<!-- Generated by IcoMoon.io -->
<svg version="1.1" xmlns="http://www.w3.org/2000/svg" width="64" height="64" viewBox="0 0 64 64">
<title>action-undo</title>
<path d="M61.934 24.658c0-9.133-5.456-17.015-13.28-20.558q-0.25-0.113-0.503-0.22-0.506-0.214-1.024-0.404-0.259-0.095-0.521-0.184-0.524-0.178-1.059-0.33c-1.848-0.544-3.971-0.857-6.167-0.857s-4.319 0.313-6.327 0.897l0.16-0.040q-0.535 0.152-1.059 0.33-0.262 0.089-0.521 0.184-0.518 0.19-1.024 0.404-0.253 0.107-0.503 0.22c-7.824 3.543-13.28 11.425-13.28 20.558v29.685l-11.999-11.999-2.828 2.828 16.828 16.828 16.828-16.828-2.828-2.828-12 12v-29.686c0-9.111 6.602-16.71 15.273-18.263 0.986-0.185 2.121-0.29 3.28-0.29s2.294 0.106 3.395 0.308l-0.115-0.018c8.671 1.553 15.273 9.152 15.273 18.263l4-0z"></path>
</svg>
