<!-- Generated by IcoMoon.io -->
<svg version="1.1" xmlns="http://www.w3.org/2000/svg" width="64" height="64" viewBox="0 0 64 64">
<title>briefcase</title>
<path d="M58.904 13.966h-12.904v-11.966h-27.971l0 11.966h-12.875c-1.709 0.002-3.094 1.387-3.096 3.096v41.754c0.002 1.709 1.387 3.094 3.096 3.096h53.75c1.709-0.002 3.094-1.387 3.096-3.096v-41.754c-0.002-1.709-1.387-3.094-3.096-3.096h-0zM22.029 6h19.971v7.966h-19.971zM57.808 18.159v10.036l-6.647 6.647h-17.036v-5.841h-4.192v5.841h-17.036l-6.647-6.647v-10.036zM6.25 57.72v-23.598l4.911 4.911h18.772v5.904h4.192v-5.904h18.772l4.911-4.911v23.598z"></path>
</svg>
