<!-- Generated by IcoMoon.io -->
<svg version="1.1" xmlns="http://www.w3.org/2000/svg" width="64" height="64" viewBox="0 0 64 64">
<title>chart</title>
<path d="M15.5 17h-11c-1.38 0.002-2.498 1.12-2.5 2.5v40c0.002 1.38 1.12 2.498 2.5 2.5h11c1.38-0.002 2.498-1.12 2.5-2.5v-40c-0.002-1.38-1.12-2.498-2.5-2.5h-0zM14 58h-8v-37h8z"></path>
<path d="M37.5 30h-11c-1.38 0.002-2.498 1.12-2.5 2.5v27c0.002 1.38 1.12 2.498 2.5 2.5h11c1.38-0.002 2.498-1.12 2.5-2.5v-27c-0.002-1.38-1.12-2.498-2.5-2.5h-0zM36 58h-8v-24h8z"></path>
<path d="M59.5 2h-11c-1.38 0.002-2.498 1.12-2.5 2.5v55c0.002 1.38 1.12 2.498 2.5 2.5h11c1.38-0.002 2.498-1.12 2.5-2.5v-55c-0.002-1.38-1.12-2.498-2.5-2.5h-0zM58 58h-8v-52h8z"></path>
</svg>
