<!-- Generated by IcoMoon.io -->
<svg version="1.1" xmlns="http://www.w3.org/2000/svg" width="64" height="64" viewBox="0 0 64 64">
<title>check-circle</title>
<path d="M53.259 10.866c-5.401-5.401-12.862-8.741-21.103-8.741-16.482 0-29.844 13.361-29.844 29.844 0 8.241 3.34 15.702 8.741 21.103v0c5.401 5.401 12.862 8.741 21.103 8.741 16.482 0 29.844-13.361 29.844-29.844 0-8.241-3.34-15.702-8.741-21.103v0zM32.156 57.813c-14.25 0-25.844-11.593-25.844-25.844s11.593-25.844 25.844-25.844 25.844 11.593 25.844 25.844-11.593 25.844-25.844 25.844z"></path>
<path d="M27.659 38.226l-9.177-9.177-2.828 2.828 12.005 12.005 20.938-20.937-2.828-2.828-18.109 18.109z"></path>
</svg>
