<!-- Generated by IcoMoon.io -->
<svg version="1.1" xmlns="http://www.w3.org/2000/svg" width="64" height="64" viewBox="0 0 64 64">
<title>euro</title>
<path d="M39.5 15h7.5v-4h-7.5c-9.218 0-17.099 5.832-20.149 14h-6.351v4h5.286c-0.182 1.052-0.286 2.264-0.286 3.5s0.104 2.448 0.304 3.627l-0.018-0.127h-5.286v4h6.351c3.050 8.168 10.931 14 20.149 14h7.5v-4h-7.5c-6.937-0.007-12.93-4.044-15.764-9.896l-0.046-0.104h19.309v-4h-20.648c-0.224-1.052-0.352-2.261-0.352-3.5s0.128-2.448 0.372-3.614l-0.020 0.114h20.648v-4h-19.309c2.879-5.956 8.872-9.993 15.808-10h0.001z"></path>
</svg>
