<!-- Generated by IcoMoon.io -->
<svg version="1.1" xmlns="http://www.w3.org/2000/svg" width="64" height="64" viewBox="0 0 64 64">
<title>thumb-up</title>
<path d="M15.83 25.334h-9.331c-0.004 0-0.009-0-0.015-0-1.472 0-2.703 1.030-3.012 2.409l-0.004 0.021c-0.939 4.006-1.477 8.605-1.477 13.331 0 4.421 0.471 8.733 1.366 12.887l-0.072-0.4 0.187 0.899c0.308 1.419 1.551 2.467 3.039 2.473h9.319c1.714-0.002 3.103-1.391 3.105-3.105v-25.408c-0.002-1.714-1.391-3.103-3.104-3.105h-0zM14.934 52.951h-7.695l-0.039-0.186c-0.769-3.508-1.21-7.537-1.21-11.669 0-4.166 0.448-8.227 1.298-12.138l-0.068 0.375h7.714z"></path>
<path d="M61.807 34.66l-2.761-7.363c-0.446-1.154-1.545-1.959-2.832-1.963h-14.713v-3.692l1.197-2.65c0.616-1.332 0.976-2.89 0.976-4.533 0-4.477-2.671-8.33-6.507-10.053l-0.070-0.028c-0.357-0.16-0.774-0.253-1.213-0.253-1.216 0-2.265 0.714-2.75 1.746l-0.008 0.019-10.039 21.977v3.133h2.966l10.285-22.515c2.015 1.257 3.335 3.461 3.335 5.974 0 1.046-0.229 2.039-0.639 2.93l0.018-0.044-1.374 3.043-0.177 0.823v6.122l2 2h16.037l2.462 6.566v1.159l-8.499 14.937h-15.618l-10.797-6.334v4.638l9.001 5.28c0.438 0.261 0.967 0.416 1.531 0.416h16.45c1.12-0.001 2.098-0.61 2.622-1.515l0.008-0.015 8.907-15.654c0.249-0.43 0.395-0.946 0.396-1.496v-1.594c0-0.001 0-0.001 0-0.002 0-0.381-0.071-0.746-0.2-1.081l0.007 0.021z"></path>
</svg>
