<!-- Generated by IcoMoon.io -->
<svg version="1.1" xmlns="http://www.w3.org/2000/svg" width="64" height="64" viewBox="0 0 64 64">
<title>thumb-down</title>
<path d="M15.934 13h-9.506c-1.442 0.004-2.645 1.022-2.935 2.377l-0.004 0.020-0.188 0.914c-0.828 3.828-1.302 8.226-1.302 12.735 0 4.819 0.542 9.511 1.567 14.020l-0.081-0.422c0.312 1.354 1.504 2.349 2.929 2.356h9.518c1.656-0.002 2.998-1.344 3-3v-26c-0.002-1.656-1.344-2.998-3-3h-0zM14.934 41h-7.708c-0.779-3.594-1.225-7.723-1.225-11.956 0-4.223 0.444-8.343 1.288-12.315l-0.069 0.386 0.024-0.115h7.69z"></path>
<path d="M61.604 27.309l-8.907-15.654c-0.531-0.919-1.509-1.528-2.629-1.529h-16.45c-0.564 0-1.093 0.155-1.545 0.424l0.014-0.008-9.002 5.28v4.637l10.797-6.334h15.618l8.499 14.937v1.159l-2.462 6.566h-16.037l-2 2v6.122l0.177 0.823 1.374 3.043c0.392 0.848 0.621 1.841 0.621 2.887 0 2.513-1.321 4.717-3.306 5.957l-0.030 0.017-10.34-22.636h-2.998v3l10.126 22.232c0.493 1.051 1.543 1.766 2.76 1.766 0.001 0 0.002 0 0.004 0h-0c0 0 0.001 0 0.001 0 0.437 0 0.852-0.094 1.226-0.262l-0.019 0.008c3.905-1.751 6.576-5.604 6.576-10.081 0-1.643-0.36-3.201-1.004-4.601l0.028 0.068-1.197-2.65v-3.692h14.713c1.288-0.004 2.387-0.809 2.826-1.942l0.007-0.021 2.761-7.363c0.122-0.315 0.193-0.68 0.193-1.061 0-0.001 0-0.002 0-0.002v0-1.594c-0-0.55-0.147-1.066-0.403-1.51l0.008 0.015z"></path>
</svg>
