<svg xmlns="http://www.w3.org/2000/svg" viewBox="0 0 512 512">
  <defs>
    <style>
      .ci-primary {
        fill: currentColor;
      }
    </style>
  </defs>
  <path class="ci-primary" d="M425.706,142.294A240,240,0,0,0,16,312v88H160V368H48V312c0-114.691,93.309-208,208-208s208,93.309,208,208v56H352v32H496V312A238.432,238.432,0,0,0,425.706,142.294Z"/>
  <rect class="ci-primary" x="80" y="264" width="32" height="32"/>
  <rect class="ci-primary" x="240" y="128" width="32" height="32"/>
  <rect class="ci-primary" x="136" y="168" width="32" height="32"/>
  <rect class="ci-primary" x="400" y="264" width="32" height="32"/>
  <path class="ci-primary" d="M297.222,335.1l69.2-144.173-28.85-13.848L268.389,321.214A64.141,64.141,0,1,0,297.222,335.1ZM256,416a32,32,0,1,1,32-32A32.036,32.036,0,0,1,256,416Z"/>
</svg>
