<svg xmlns="http://www.w3.org/2000/svg" viewBox="0 0 512 512">
  <defs>
    <style>
      .ci-primary {
        fill: currentColor;
      }
    </style>
  </defs>
  <path class="ci-primary" d="M96,472a23.82,23.82,0,0,0,23.579,24H392.421A23.82,23.82,0,0,0,416,472V152H96Zm32-288H384V464H128Z"/>
  <rect class="ci-primary" x="168" y="216" width="32" height="200"/>
  <rect class="ci-primary" x="240" y="216" width="32" height="200"/>
  <rect class="ci-primary" x="312" y="216" width="32" height="200"/>
  <path class="ci-primary" d="M328,88V40c0-13.458-9.488-24-21.6-24H205.6C193.488,16,184,26.542,184,40V88H64v32H448V88ZM216,48h80V88H216Z"/>
</svg>
