<svg xmlns="http://www.w3.org/2000/svg" viewBox="0 0 512 512">
  <defs>
    <style>
      .ci-primary {
       fill: currentColor;
      }
    </style>
  </defs>
  <rect class="ci-primary" x="240" y="384" width="32" height="32"/>
  <rect class="ci-primary" x="96" y="240" width="32" height="32"/>
  <rect class="ci-primary" x="384" y="240" width="32" height="32"/>
  <path class="ci-primary" d="M414.392,97.608A222.332,222.332,0,0,0,272,32.567V32H240v96h32V64.672C370.41,72.83,448,155.519,448,256c0,105.869-86.131,192-192,192S64,361.869,64,256a191.61,191.61,0,0,1,56.408-135.942l115.624,145.88,25.078-19.876L124.6,73.828l-12.606,10.59a224,224,0,1,0,302.4,13.19Z"/>
</svg>
