<svg xmlns="http://www.w3.org/2000/svg" viewBox="0 0 512 512">
  <defs>
    <style>
      .ci-primary {
       fill: currentColor;
      }
    </style>
  </defs>
  <path class="ci-primary" d="M384,16H128A32.036,32.036,0,0,0,96,48V464a32.036,32.036,0,0,0,32,32H384a32.036,32.036,0,0,0,32-32V48A32.036,32.036,0,0,0,384,16Zm0,448H128V48H384l.021,416Z"/>
  <path class="ci-primary" d="M256,240a96,96,0,1,0,96,96A96.108,96.108,0,0,0,256,240Zm0,160a64,64,0,1,1,64-64A64.072,64.072,0,0,1,256,400Z"/>
  <path class="ci-primary" d="M256,200a64,64,0,1,0-64-64A64.072,64.072,0,0,0,256,200Zm0-96a32,32,0,1,1-32,32A32.036,32.036,0,0,1,256,104Z"/>
  <rect class="ci-primary" x="240" y="320" width="32" height="32"/>
</svg>
