<svg xmlns="http://www.w3.org/2000/svg" viewBox="0 0 512 512">
  <polygon fill="currentColor" points="32 34 32 309.112 32.002 309.112 56 285.078 80 261.041 80 82 432 82 432 198.064 456 222.015 479.974 245.94 480 245.995 480 34 32 34" opacity=".25"/>
  <polygon fill="currentColor" points="456 222.099 432 198.148 369.643 135.917 304 201.56 432 329.56 432 380.423 196.263 144.686 80 261.125 56 285.162 32.002 309.196 32 309.196 32 311.078 32 480 480 480 480 258.654 480 246.079 479.974 246.024 456 222.099"/>
</svg>
