<svg xmlns="http://www.w3.org/2000/svg" id="export" viewBox="0 0 512 512">
  <defs>
    <style>
      .cls-1{fill:currentColor}
    </style>
  </defs>
  <path d="M97.55,150.86c.72-1.26,1.48-2.5,2.26-3.73C99,148.36,98.27,149.6,97.55,150.86Z" class="cls-1"/>
  <path d="M101,145.31q1.21-1.8,2.52-3.54Q102.23,143.51,101,145.31Z" class="cls-1"/>
  <path d="M103.53,141.77a90.86,90.86,0,0,1,7-8.29A90.86,90.86,0,0,0,103.53,141.77Z" class="cls-1"/>
  <path d="M90.32,166.87c.47-1.4,1-2.79,1.52-4.15C91.3,164.08,90.79,165.47,90.32,166.87Z" class="cls-1"/>
  <path d="M94.48,156.67c.64-1.32,1.3-2.62,2-3.9C95.78,154.05,95.12,155.35,94.48,156.67Z" class="cls-1"/>
  <path d="M120.17,124.73c1.14-.9,2.3-1.76,3.48-2.6C122.47,123,121.31,123.83,120.17,124.73Z" class="cls-1"/>
  <path d="M231.83,124.73q3.42,2.68,6.56,5.68Q235.26,127.42,231.83,124.73Z" class="cls-1"/>
  <path d="M113.61,130.41q3.14-3,6.56-5.68Q116.75,127.42,113.61,130.41Z" class="cls-1"/>
  <path d="M228.35,122.13c1.18.84,2.34,1.7,3.48,2.6C230.69,123.83,229.53,123,228.35,122.13Z" class="cls-1"/>
  <path d="M87.4,177.65c.3-1.47.64-2.93,1-4.38C88,174.72,87.7,176.18,87.4,177.65Z" class="cls-1"/>
  <path d="M245.57,138.09q-2-2.37-4.11-4.61,2.13,2.24,4.11,4.61Z" class="cls-1"/>
  <path d="M331.39,427c.46,1.06.89,2.14,1.28,3.23C332.28,429.1,331.85,428,331.39,427Z" class="cls-1"/>
  <path d="M86,186.63c.16-1.52.35-3,.58-4.53C86.38,183.6,86.19,185.11,86,186.63Z" class="cls-1"/>
  <path d="M325.37,416.44c.68.93,1.33,1.89,1.95,2.87C326.7,418.33,326.05,417.37,325.37,416.44Z" class="cls-1"/>
  <path d="M333.24,431.83c.36,1.11.69,2.22,1,3.35C333.93,434.05,333.6,432.94,333.24,431.83Z" class="cls-1"/>
  <path d="M329.9,423.82c.53,1,1,2.08,1.49,3.14C330.92,425.9,330.43,424.85,329.9,423.82Z" class="cls-1"/>
  <path d="M19.78,429c.26-.69.54-1.37.83-2.05C20.32,427.64,20,428.32,19.78,429Z" class="cls-1"/>
  <path d="M85.68,191.22c.08-1.54.2-3.07.35-4.59C85.88,188.15,85.76,189.68,85.68,191.22Z" class="cls-1"/>
  <path d="M335,438.59c.22,1.15.41,2.31.56,3.48C335.4,440.9,335.21,439.74,335,438.59Z" class="cls-1"/>
  <path d="M16.45,442.07c.15-1.17.34-2.33.56-3.48C16.79,439.74,16.6,440.9,16.45,442.07Z" class="cls-1"/>
  <path d="M89,171.12c.4-1.43.84-2.85,1.32-4.25C89.84,168.27,89.4,169.69,89,171.12Z" class="cls-1"/>
  <path fill="currentColor" d="M470.08,312.66l-86.84-54.87,33.41-52.5a62.59,62.59,0,0,0,9.78-33.61V106.43a90.44,90.44,0,0,0-179.57-15.3,127.66,127.66,0,0,1,18.54,15.34,125.61,125.61,0,0,1,37,89.41v65.24A98.48,98.48,0,0,1,287,314.06l-14,22,56.31,35.58a91.86,91.86,0,0,1,31.31,33.25c.6,1.08,1.16,2.18,1.72,3.29L496,408V359.71A55.65,55.65,0,0,0,470.08,312.66Z" opacity=".25"/>
  <path d="M223.24,347.23l33.41-52.49a63.48,63.48,0,0,0,4.22-7.82,62.54,62.54,0,0,0,5.56-25.8V195.88c0-1.57,0-3.12-.11-4.66a91.43,91.43,0,0,0-.93-9.12c-.23-1.49-.49-3-.79-4.45s-.64-2.93-1-4.38c-.19-.72-.38-1.44-.59-2.15a88.18,88.18,0,0,0-2.84-8.4c-.81-2.06-1.69-4.07-2.64-6.05-.64-1.32-1.3-2.62-2-3.9-.35-.64-.7-1.28-1.07-1.91-.72-1.26-1.48-2.5-2.26-3.73-.39-.61-.79-1.22-1.2-1.82q-2.53-3.75-5.42-7.22h0q-2-2.37-4.11-4.61-1.5-1.57-3.07-3.07-3.13-3-6.56-5.68c-1.14-.9-2.3-1.76-3.48-2.6A90,90,0,0,0,176,105.44h0a90,90,0,0,0-52.35,16.69c-1.18.84-2.34,1.7-3.48,2.6q-3.42,2.68-6.56,5.68-1.58,1.5-3.07,3.07a90.86,90.86,0,0,0-7,8.29q-1.31,1.74-2.52,3.54c-.41.6-.81,1.21-1.2,1.82-.78,1.23-1.54,2.47-2.26,3.73-.37.63-.72,1.27-1.07,1.91-.7,1.28-1.36,2.58-2,3.9-1,2-1.83,4-2.64,6.05-.54,1.36-1,2.75-1.52,4.15s-.92,2.82-1.32,4.25c-.21.71-.4,1.43-.59,2.15-.37,1.45-.71,2.91-1,4.38s-.56,3-.79,4.45-.42,3-.58,4.53-.27,3.05-.35,4.59-.11,3.09-.11,4.66v65.24a62.54,62.54,0,0,0,5.56,25.8,63.48,63.48,0,0,0,4.22,7.82l33.41,52.49L41.92,402.1l-1.49,1c-1,.67-1.94,1.36-2.88,2.09l-1.37,1.1A55.71,55.71,0,0,0,20.61,427c-.29.68-.57,1.36-.83,2.05A55.33,55.33,0,0,0,17,438.59c-.22,1.15-.41,2.31-.56,3.48a55.39,55.39,0,0,0-.45,7.08V496l320-.5V449.15a55.39,55.39,0,0,0-.45-7.08c-.15-1.17-.34-2.33-.56-3.48s-.48-2.28-.77-3.41-.62-2.24-1-3.35c-.18-.55-.37-1.1-.57-1.64-.39-1.09-.82-2.17-1.28-3.23s-1-2.11-1.49-3.14c-.79-1.54-1.65-3.05-2.58-4.51-.62-1-1.27-1.94-1.95-2.87a55.55,55.55,0,0,0-15.29-14.34Z" class="cls-1"/>
</svg>
