<svg xmlns="http://www.w3.org/2000/svg" id="export" viewBox="0 0 512 512">
  <defs>
    <style>
      .cls-2{fill:currentColor}.cls-3{fill:#fff}
    </style>
  </defs>
  <polygon points="480 202 310 202 310 32 88 32 88 252 480 252 480 202" class="cls-2" opacity=".25"/>
  <polygon points="480 166 480 160 352 32 346 32 346 166 480 166" class="cls-2"/>
  <path d="M298,395.4077V376.1665A52.2257,52.2257,0,0,0,245.8335,324H202V447.5747h43.8335A52.2258,52.2258,0,0,0,298,395.4077ZM226,348h19.8335A28.1982,28.1982,0,0,1,274,376.1665v19.2412a28.1986,28.1986,0,0,1-28.1665,28.167H226Z" class="cls-3"/>
  <polygon points="354 407 390 407 390 377 354 377 354 348 406 348 406 324 330 324 330 448 354 448 354 407" class="cls-3"/>
  <path d="M114,412h20.5A43.55,43.55,0,0,0,178,368.5v-1A43.55,43.55,0,0,0,134.5,324H90V448h24Zm0-64h20.5A19.522,19.522,0,0,1,154,367.5v1A19.522,19.522,0,0,1,134.5,388H114Z" class="cls-3"/>
  <path d="M32,288V480H480V288ZM90,448V324h44.5A43.55,43.55,0,0,1,178,367.5v1A43.55,43.55,0,0,1,134.5,412H114v36Zm112-.4253V324h43.8335A52.2257,52.2257,0,0,1,298,376.1665v19.2412a52.2258,52.2258,0,0,1-52.1665,52.167ZM406,348H354v29h36v30H354v41H330V324h76Z" class="cls-2"/>
  <path d="M154,368.5v-1A19.522,19.522,0,0,0,134.5,348H114v40h20.5A19.522,19.522,0,0,0,154,368.5Z" class="cls-2"/>
  <path d="M245.8335,348H226v75.5747h19.8335A28.1986,28.1986,0,0,0,274,395.4077V376.1665A28.1982,28.1982,0,0,0,245.8335,348Z" class="cls-2"/>
</svg>
