<svg xmlns="http://www.w3.org/2000/svg" id="export" viewBox="0 0 512 512">
  <defs>
    <style>
      .cls-2{fill:currentColor}
    </style>
  </defs>
  <rect width="448" height="448" x="32" y="32" fill="currentColor" opacity=".25"/>
  <path d="M344.7661,287.9959H257.0254l38.0542,25.748a21.8963,21.8963,0,0,1,9.5576,16.1865,20.6481,20.6481,0,0,1-6.0586,16.8243c-3.875,3.8251-11.8735,10.2412-21.9023,10.2412h-104v54h104c21.7226,0,42.9726-9.1651,59.8349-25.8077A74.639,74.639,0,0,0,358.4087,324.97,75.826,75.826,0,0,0,344.7661,287.9959Z" class="cls-2"/>
  <path d="M258.7983,223.9959l-43.3725-29.3467c-12.1948-8.251-9.7246-20.7539-8.6768-24.39,1.2681-4.4013,5.6465-14.6425,18.9644-15.248,6.4687-.0166,87.0278-.0039,118.2812.0029l.0108-54c-118.6006-.0224-119.1748-.0039-119.794.0156-32.9492,1.1133-60.1714,22.419-69.3515,54.2784-7.125,24.7266-1.8191,49.8469,13.4814,68.6875H80v32H432v-32Z" class="cls-2"/>
</svg>
