<svg xmlns="http://www.w3.org/2000/svg" id="export" viewBox="0 0 512 512">
  <defs>
    <style>
      .cls-2{fill:currentColor}
    </style>
  </defs>
  <path d="M456,171.3135a63.7964,63.7964,0,0,1-48,0V232H280V171.3135a63.7964,63.7964,0,0,1-48,0V232H104V171.3135a63.7964,63.7964,0,0,1-48,0V232H16v48H144v60.6865a63.7964,63.7964,0,0,1,48,0V280H320v60.6865a63.7964,63.7964,0,0,1,48,0V280H496V232H456Z" class="cls-2" opacity=".25"/>
  <path d="M80,48a63.99,63.99,0,1,0,64,64A64.0724,64.0724,0,0,0,80,48Z" class="cls-2"/>
  <path d="M432,48a63.99,63.99,0,1,0,64,64A64.0724,64.0724,0,0,0,432,48Z" class="cls-2"/>
  <path d="M256,48a63.99,63.99,0,1,0,64,64A64.0724,64.0724,0,0,0,256,48Z" class="cls-2"/>
  <path d="M192,340.6865A63.99,63.99,0,1,0,232,400,63.6434,63.6434,0,0,0,192,340.6865Z" class="cls-2"/>
  <path d="M368,340.6865A63.99,63.99,0,1,0,408,400,63.6434,63.6434,0,0,0,368,340.6865Z" class="cls-2"/>
</svg>
