<svg xmlns="http://www.w3.org/2000/svg" id="export" viewBox="0 0 512 512">
  <defs>
    <style>
      .cls-1{fill:currentColor}
    </style>
  </defs>
  <path d="M475.663,135.2588,401.701,98.82,323.402,203.2186l39.1495,52.1994h0A104.3986,104.3986,0,0,1,258.153,359.8167h0l-52.1993-39.15-104.3986,78.299,36.4388,73.9621a9.2278,9.2278,0,0,0,7.825,4.3369h22.3447C340.386,477.2651,480,337.6511,480,165.4285V143.0839A9.2278,9.2278,0,0,0,475.663,135.2588Z" class="cls-1"/>
  <g opacity=".25">
    <path d="M225.17,266.7773A42.8256,42.8256,0,0,1,267.9473,224V176A90.88,90.88,0,0,0,177.17,266.7773Z" class="cls-1"/>
    <path d="M267.9473,146.7773v-48c-92.6358,0-168,75.3643-168,168h48A120.1359,120.1359,0,0,1,267.9473,146.7773Z" class="cls-1"/>
    <path d="M267.9473,66.7773v-48a248.0006,248.0006,0,0,0-248,248h48C67.9473,156.4971,157.667,66.7773,267.9473,66.7773Z" class="cls-1"/>
  </g>
</svg>
