<svg xmlns="http://www.w3.org/2000/svg" id="export" viewBox="0 0 512 512">
  <defs>
    <style>
      .cls-1,.cls-2{fill:currentColor}.cls-1{opacity:.25}
    </style>
  </defs>
  <path d="M289.874,151.6665h21.8706l-57.6089-68.582a31.9291,31.9291,0,0,0-24.5029-11.418H114.3672a31.9291,31.9291,0,0,0-24.5029,11.418l-57.6087,68.582H289.874Z" class="cls-1"/>
  <path d="M237.0244,183.6665H24v124H64v40h48v-40h56V284.78a52.084,52.084,0,0,1,12.1826-33.4458l40.0415-47.668ZM80,261.6666v-42h42v42Z" class="cls-2"/>
  <path d="M200,296.667v127h40v40h48v-40H408v40h48v-40h40v-127Zm56,81v-42h42v42Zm184,0H398v-42h42Z" class="cls-2"/>
  <path d="M265.8643,199.0845,210.7749,264.667h274.45l-55.0889-65.5825a31.9291,31.9291,0,0,0-24.5029-11.418H290.3672A31.9291,31.9291,0,0,0,265.8643,199.0845Z" class="cls-1"/>
</svg>
