<svg xmlns="http://www.w3.org/2000/svg" viewBox="0 0 512 512">
  <path fill="currentColor" d="M471,112.2319H368.3936l.05-95.87h-214.22l-.05,95.87H41A24.7961,24.7961,0,0,0,16.2319,137V471.0327A24.7961,24.7961,0,0,0,41,495.8008H471a24.7961,24.7961,0,0,0,24.7681-24.7681V137A24.7961,24.7961,0,0,0,471,112.2319Zm-274.7979-53.87h130.22l-.0283,53.87h-130.22Z" opacity=".25"/>
  <polygon fill="currentColor" points="240.23 408 250.447 408 342.597 305.633 250.447 203.266 240.23 203.266 240.23 281.633 152 281.633 152 329.633 240.23 329.633 240.23 408"/>
</svg>
