<svg xmlns="http://www.w3.org/2000/svg" viewBox="0 0 512 512">
  <path fill="currentColor" d="M480.7135,31.2866h0a44.092,44.092,0,0,0-62.3558,0L385.6441,64h0L218.9011,230.7429h0l-8.17,34.4744-10.7069,45.1813a1.3512,1.3512,0,0,0-.021.3292c.0018.0351.0112.0679.0158.1023a1.3208,1.3208,0,0,0,.0393.207c.0118.0391.0293.075.0445.1126a1.3461,1.3461,0,0,0,.0777.1684c.0212.0369.0462.07.0707.105a1.363,1.363,0,0,0,.11.1387c.0294.032.0607.0606.093.09a1.3489,1.3489,0,0,0,.1369.1081c.0359.0248.0723.0474.1106.0686a1.3282,1.3282,0,0,0,.16.074c.0409.016.0812.0315.1239.0435a1.3042,1.3042,0,0,0,.1809.0344c.0434.0058.0857.0132.13.0148.0157.0006.03.0052.0461.0052a1.3772,1.3772,0,0,0,.2585-.0248l12.8066-3.0348,66.8489-15.8415,113.555-113.555L440,134.356h0l40.7135-40.7137A44.092,44.092,0,0,0,480.7135,31.2866Z"/>
  <path fill="currentColor" d="M299.4932,325.7743l-9.935,2.3544-79.6555,18.8764-.7581.18-.7652.1467a37.3473,37.3473,0,0,1-43.7118-43.7059l.1472-.7677.18-.76,18.8763-79.6556,2.3544-9.9349,7.22-7.22L334.7323,64H40A24.0275,24.0275,0,0,0,16,88V472a24.0275,24.0275,0,0,0,24,24H416a24.0275,24.0275,0,0,0,24-24V185.2676L306.7128,318.5547Z" opacity=".25"/>
</svg>
