<svg xmlns="http://www.w3.org/2000/svg" id="export" viewBox="0 0 512 512">
  <defs>
    <style>
      .cls-2{fill:currentColor;opacity:.25}
    </style>
  </defs>
  <path fill="currentColor" d="M182.9087,256.3579,88,317.381v76.0881L208,316.313V495.9985l55.7363.002,160.29-111.2793-.0762-48.4443-123.0249-79.712L423.94,177.47l.0083-47.6689L261.541,15.9736,208,16.0376V196.3555L88,118.6041v76.2594ZM272,101.458,344.64,152.37,272,199.0752Zm0,212.625,73.2168,47.4395L272,412.3525Z"/>
  <polygon points="88 226.633 48 202.635 48 308.228 88 284.23 136 255.431 88 226.633" class="cls-2"/>
  <polygon points="440 308.228 440 202.635 352 255.431 440 308.228" class="cls-2"/>
</svg>
