<svg xmlns="http://www.w3.org/2000/svg" id="export" viewBox="0 0 512 512">
  <defs>
    <style>
      .cls-1{fill:currentColor}
    </style>
  </defs>
  <path d="M107.6849,196h53.7824A112.8868,112.8868,0,0,1,196,161.4673V107.6851A160.8957,160.8957,0,0,0,107.6849,196Z" class="cls-1"/>
  <path d="M316,350.5327v53.7822A160.8957,160.8957,0,0,0,404.3149,316H350.5327A112.8868,112.8868,0,0,1,316,350.5327Z" class="cls-1"/>
  <path d="M316,107.6851v53.7822A112.8868,112.8868,0,0,1,350.5327,196h53.7822A160.8951,160.8951,0,0,0,316,107.6851Z" class="cls-1"/>
  <path d="M161.4673,316H107.6849A160.8963,160.8963,0,0,0,196,404.3149V350.5327A112.8868,112.8868,0,0,1,161.4673,316Z" class="cls-1"/>
  <g opacity=".25">
    <polygon points="232 97.8 232 146.597 232 192 280 192 280 146.597 280 97.8 280 16 232 16 232 97.8" class="cls-1"/>
    <polygon points="232 365.403 232 414.2 232 496 280 496 280 414.2 280 365.403 280 320 232 320 232 365.403" class="cls-1"/>
    <polygon points="365.403 232 320 232 320 280 365.403 280 414.2 280 496 280 496 232 414.2 232 365.403 232" class="cls-1"/>
    <polygon points="192 280 192 232 146.597 232 97.8 232 16 232 16 280 97.8 280 146.597 280 192 280" class="cls-1"/>
  </g>
</svg>
