<svg xmlns="http://www.w3.org/2000/svg" id="export" viewBox="0 0 512 512">
  <defs>
    <style>
      .cls-2{fill:currentColor}
    </style>
  </defs>
  <g opacity=".25">
    <path d="M384,40H230.6274A31.7935,31.7935,0,0,0,208,49.373L169.1719,88.2009l147.3957,147.396h0L416,335.0292V72A32.0364,32.0364,0,0,0,384,40Z" class="cls-2"/>
    <path d="M336,365.4218l-112-112h0L113.9756,143.3974,97.373,160A31.7892,31.7892,0,0,0,88,182.627V448a32.0364,32.0364,0,0,0,32,32H384a32.0364,32.0364,0,0,0,32-32v-2.5781l-80-80Z" class="cls-2"/>
  </g>
  <polygon points="416 386.024 336 306.024 261.976 232 143.674 113.699 45.976 16 16 16 16 45.422 113.976 143.397 224 253.422 224 400 336 400 336 365.422 416 445.422 466.578 496 496 496 496 466.024 416 386.024" class="cls-2"/>
</svg>
