<svg xmlns="http://www.w3.org/2000/svg" id="export" viewBox="0 0 512 512">
  <defs>
    <style>
      .cls-1{fill:currentColor}.cls-2{fill:#fff}
    </style>
  </defs>
  <path d="M464,200H352a16,16,0,0,0-16,16V424a16,16,0,0,0,16,16H464a16,16,0,0,0,16-16V216A16,16,0,0,0,464,200Z" class="cls-1"/>
  <path d="M336,424v16h16A16,16,0,0,1,336,424Z" class="cls-2"/>
  <path fill="currentColor" d="M425.8667,109.2355H30.1333c-7.8057,0-14.1333,7.1-14.1333,15.8593V424.1407C16,432.9,22.3276,440,30.1333,440H304V216a48.0543,48.0543,0,0,1,48-48h88V125.0948C440,116.336,433.6724,109.2355,425.8667,109.2355Z" opacity=".25"/>
  <path d="M304,440v16h12.2612a48.0516,48.0516,0,0,1-9.5092-16Z" class="cls-2"/>
  <path d="M304,424v16h2.752A47.7754,47.7754,0,0,1,304,424Z" class="cls-2"/>
  <path d="M229.9258,243.2582,224,184H152l-5.9258,59.2582a83.9185,83.9185,0,0,0,0,145.4836L151.2,440h73.6l5.126-51.2582a83.9185,83.9185,0,0,0,0-145.4836ZM188,368a52,52,0,1,1,52-52A52.0589,52.0589,0,0,1,188,368Z" class="cls-1"/>
</svg>
