<svg xmlns="http://www.w3.org/2000/svg" id="export" viewBox="0 0 512 512">
  <defs>
    <style>
      .cls-2{fill:currentColor}
    </style>
  </defs>
  <path fill="currentColor" d="M464,48H48A16,16,0,0,0,32,64V352a16,16,0,0,0,16,16h80V480h8L248,368H464a16,16,0,0,0,16-16V64A16,16,0,0,0,464,48Z" opacity=".25"/>
  <rect width="224" height="36" x="192" y="110" class="cls-2"/>
  <rect width="224" height="36" x="192" y="190" class="cls-2"/>
  <rect width="224" height="36" x="192" y="270" class="cls-2"/>
  <rect width="40" height="36" x="104" y="110" class="cls-2"/>
  <rect width="40" height="36" x="104" y="190" class="cls-2"/>
  <rect width="40" height="36" x="104" y="270" class="cls-2"/>
</svg>
