<svg xmlns="http://www.w3.org/2000/svg" id="export" viewBox="0 0 512 512">
  <defs>
    <style>
      .cls-1,.cls-2{fill:currentColor}.cls-1{opacity:.25}
    </style>
  </defs>
  <path d="M316.5679,235.5969l7.9975,7.9978A48.0564,48.0564,0,0,1,368,216h56V96a16,16,0,0,0-16-16H160.7646L316.5674,235.5969Z" class="cls-1"/>
  <path d="M50.5781,80H32A16,16,0,0,0,16,96V368a16,16,0,0,0,16,16H320V349.4222Z" class="cls-1"/>
  <polygon points="249 424.122 249 384 207 384 207 424.122 152 430.857 152 472 304 472 304 430.857 249 424.122" class="cls-2"/>
  <path d="M480,248H368a16,16,0,0,0-16,16v7.0291l72,72,72,72V264A16,16,0,0,0,480,248Z" class="cls-2"/>
  <path d="M412.8286,383.2548,352,322.4037l-16-16.0059-16-16.0059L109.6855,80,45.709,16H16V45.4219L50.5781,80,320,349.4222l16,16,16,16V456a16,16,0,0,0,16,16h74.5776l16,16,8,8H496V466.4568l-2.2705-2.2715Z" class="cls-2"/>
</svg>
