<svg xmlns="http://www.w3.org/2000/svg" id="export" viewBox="0 0 512 512">
  <defs>
    <style>
      .cls-2{fill:currentColor}
    </style>
  </defs>
  <rect width="42" height="248" x="234.968" y="264" fill="#fff"/>
  <path d="M356.5205,16,301.8362,71.0037l-.025-.0144A96.5559,96.5559,0,0,0,255,58.96h0a96.5644,96.5644,0,0,0-45.8241,11.49l-.0251.014L155.44,16,96,16.0527,96.0429,64l39.3587-.0351,38.3939,38.9335A96.5368,96.5368,0,0,0,158,155.96V184l194-.03V155.96a96.5418,96.5418,0,0,0-15.159-52.0852L376.4844,64H416V16Z" class="cls-2"/>
  <path d="M416,335.674c0,.109-.003.2171-.0029.326H496V288H416Z" class="cls-2"/>
  <polygon points="96 184 64 177.754 64 125 16 125 16 216.286 96.003 234.005 96 184" class="cls-2"/>
  <path d="M16,405.6333V496H64V442.3667l59.5305-16.1154a160.8016,160.8016,0,0,1-20.8169-44.0922Z" class="cls-2"/>
  <polygon points="416 233.119 496 215.235 495.975 124 448 124.014 448.015 176.779 416 184 416 233.119" class="cls-2"/>
  <path d="M448,442.3438V496h48V405.6563l-86.6837-23.5782A160.1932,160.1932,0,0,1,388.4244,426.14Z" class="cls-2"/>
  <path d="M96.0079,288H16v48H96.0126c0-.0283-.001-.0563-.001-.0845Z" class="cls-2"/>
  <path fill="currentColor" d="M397.82,184H96l.0034,45.0045L96.0079,288l.0037,47.9155c0,.0282.001.0562.001.0845a161.2387,161.2387,0,0,0,27.5179,90.2513A159.3775,159.3775,0,0,0,235,495.4788V264h42V495.3937A160.62,160.62,0,0,0,415.997,336c0-.1089.0032-.217.0029-.326V184Z" opacity=".25"/>
</svg>
