<svg xmlns="http://www.w3.org/2000/svg" id="export" viewBox="0 0 512 512">
  <defs>
    <style>
      .cls-2{fill:currentColor}
    </style>
  </defs>
  <path fill="currentColor" d="M256,16C159,16,80,95,80,192V384h64V192a112,112,0,0,1,224,0V438.53a9.48,9.48,0,0,1-9.47,9.47H232v48H358.53A57.53,57.53,0,0,0,416,438.53V384h16V192C432,95,353.05,16,256,16Z" opacity=".25"/>
  <path d="M464,216H432V384h32a32,32,0,0,0,32-32V248A32,32,0,0,0,464,216Z" class="cls-2"/>
  <path d="M48,216a32,32,0,0,0-32,32V352a32,32,0,0,0,32,32H80V216Z" class="cls-2"/>
  <rect width="68" height="48" x="232" y="448" class="cls-2"/>
</svg>
