<svg xmlns="http://www.w3.org/2000/svg" id="export" viewBox="0 0 512 512">
  <defs>
    <style>
      .cls-1,.cls-2{fill:currentColor}.cls-1{opacity:.25}
    </style>
  </defs>
  <path d="M480,216C480,114.3794,379.7119,32,256,32S32,114.3794,32,216,132.2881,400,256,400a274.0094,274.0094,0,0,0,33.3477-2.0322l22.1064,19.1592A257.3489,257.3489,0,0,0,480,480V464a299.273,299.273,0,0,1-70.5928-112.0122l-.5346-1.5156C452.6338,316.89,480,269.0737,480,216Z" class="cls-1"/>
  <rect width="40" height="40" x="168" y="152" class="cls-2"/>
  <rect width="40" height="40" x="304" y="152" class="cls-2"/>
  <path d="M252.5625,314h6.875a97.5322,97.5322,0,0,0,90.9912-61.6035L355.3867,240H316.5918a61.686,61.686,0,0,1-57.1543,38h-6.875a61.6864,61.6864,0,0,1-57.1548-38H156.6133l4.958,12.3965A97.5322,97.5322,0,0,0,252.5625,314Z" class="cls-2"/>
  <path d="M350.4287,252.3965A97.5322,97.5322,0,0,1,259.4375,314h-6.875a97.5322,97.5322,0,0,1-90.9912-61.6035L156.6133,240h38.7944a61.6864,61.6864,0,0,0,57.1548,38h6.875a61.686,61.686,0,0,0,57.1543-38h38.7949Z" class="cls-1"/>
  <rect width="40" height="40" x="168" y="152" class="cls-1"/>
  <rect width="40" height="40" x="304" y="152" class="cls-1"/>
</svg>
