<svg xmlns="http://www.w3.org/2000/svg" id="export" viewBox="0 0 512 512">
  <defs>
    <style>
      .cls-1,.cls-2{fill:currentColor}.cls-1{opacity:.25}
    </style>
  </defs>
  <path d="M122.3335,16h-21.667A60.8626,60.8626,0,0,0,40,76.6665V421.5A74.5,74.5,0,0,1,114.5,347H464V16Z" class="cls-1"/>
  <polygon points="311.66 231.667 366.332 279.667 376 279.667 376 64 248 64 248 279.667 257.565 279.667 311.66 231.667" class="cls-2"/>
  <path d="M40,421.5v8.75h.384c3.67,36.3435,33.4444,65.75,68.2825,65.75H114.5A74.5,74.5,0,0,1,40,421.5Z" class="cls-1"/>
  <path d="M40,421.5A74.5,74.5,0,0,0,114.5,496H464V448H108.6665C98.0435,448,88,435.7061,88,422.7026,88,410.6089,98.1245,400,109.6665,400H464V347H114.5A74.5,74.5,0,0,0,40,421.5Z" class="cls-2"/>
</svg>
