<svg xmlns="http://www.w3.org/2000/svg" id="export" viewBox="0 0 512 512">
  <defs>
    <style>
      .cls-1{fill:currentColor;opacity:.25}
    </style>
  </defs>
  <path d="M392.417,218.0073a156.9049,156.9049,0,0,0,0-155.9052L350.75,85.9121a108.9782,108.9782,0,0,1,0,108.2852Z" class="cls-1"/>
  <path d="M161.25,194.1973a108.9782,108.9782,0,0,1,0-108.2852l-41.6672-23.81a156.9049,156.9049,0,0,0,0,155.9052Z" class="cls-1"/>
  <path d="M469.5994,17.998,427.8054,41.88a197.6079,197.6079,0,0,1,0,196.3491l41.794,23.8821a246.6431,246.6431,0,0,0,0-244.1133Z" class="cls-1"/>
  <path d="M42.4006,17.998a246.6431,246.6431,0,0,0,0,244.1133l41.794-23.8821a197.6079,197.6079,0,0,1,0-196.3491Z" class="cls-1"/>
  <path fill="none" d="M244.48,215.004,209.4077,320.2192H306.145L268.1118,214.8981a67.1205,67.1205,0,0,1-23.6323.1059Z"/>
  <path fill="currentColor" d="M309.9238,189.3585a68.0021,68.0021,0,1,0-107.5976.318L100.2178,496h50.5967l42.5932-127.7808H323.4785L369.6216,496h50.56l.419-.1514ZM209.4077,320.2192,244.48,215.004a67.1205,67.1205,0,0,0,23.6323-.1059L306.145,320.2192Z"/>
</svg>
