<svg xmlns="http://www.w3.org/2000/svg" id="export" viewBox="0 0 512 512">
  <defs>
    <style>
      .cls-1{fill:currentColor}
    </style>
  </defs>
  <polygon points="255.833 471.762 335.362 392.234 176.305 392.234 255.833 471.762" class="cls-1"/>
  <rect width="480" height="288" x="15.834" y="72" fill="currentColor" opacity=".25" rx="24"/>
  <rect width="40" height="40" x="415.834" y="120" class="cls-1"/>
  <rect width="40" height="40" x="199.833" y="120" class="cls-1"/>
  <rect width="40" height="40" x="159.833" y="196" class="cls-1"/>
  <rect width="40" height="40" x="71.834" y="272" class="cls-1"/>
  <rect width="40" height="40" x="271.834" y="120" class="cls-1"/>
  <rect width="40" height="40" x="55.834" y="120" class="cls-1"/>
  <rect width="40" height="40" x="127.834" y="120" class="cls-1"/>
  <rect width="40" height="40" x="87.834" y="196" class="cls-1"/>
  <rect width="40" height="40" x="343.834" y="120" class="cls-1"/>
  <rect width="40" height="40" x="335.834" y="272" class="cls-1"/>
  <rect width="40" height="40" x="235.833" y="196" class="cls-1"/>
  <rect width="160" height="36" x="143.834" y="274" class="cls-1"/>
  <rect width="40" height="40" x="407.834" y="272" class="cls-1"/>
  <rect width="40" height="40" x="311.834" y="196" class="cls-1"/>
  <rect width="40" height="40" x="383.834" y="196" class="cls-1"/>
</svg>
