<svg xmlns="http://www.w3.org/2000/svg" id="export" viewBox="0 0 512 512">
  <defs>
    <style>
      .cls-2{fill:currentColor}
    </style>
  </defs>
  <path fill="currentColor" d="M455.9976,31.9814l-400-.0214A24,24,0,0,0,31.9963,55.959l-.0217,400A24,24,0,0,0,55.9734,479.96l400,.0214a23.9992,23.9992,0,0,0,24.0012-23.998l.0217-400A24.0007,24.0007,0,0,0,455.9976,31.9814Z" opacity=".25"/>
  <polygon points="368.029 101.029 213.059 256 368.029 410.971 401.971 377.029 280.941 256 401.971 134.971 368.029 101.029" class="cls-2"/>
  <polygon points="281.971 134.971 248.029 101.029 93.059 256 248.029 410.971 281.971 377.029 160.941 256 281.971 134.971" class="cls-2"/>
</svg>
