<svg xmlns="http://www.w3.org/2000/svg" id="export" viewBox="0 0 512 512">
  <defs>
    <style>
      .cls-1{fill:currentColor}.cls-2{opacity:.25}
    </style>
  </defs>
  <path d="M242.1338,166.8662l-52.9282,52.9282A627.41,627.41,0,0,0,38.8384,461.66v0a8.999,8.999,0,0,0,2.1589,9.2549l.0872.0874a9,9,0,0,0,9.2549,2.1587h0A626.7781,626.7781,0,0,0,168.86,418.6a626.7857,626.7857,0,0,0,123.3457-95.8059l52.9282-52.9282Z" class="cls-1"/>
  <g class="cls-2">
    <path d="M458.668,53.3319a72.8317,72.8317,0,0,0-103,0l-5.9625,5.9625-.0432-.0431L319.9633,88.95l.0432.0432-52.4176,52.4176,103,103L458.668,156.332A72.8321,72.8321,0,0,0,458.668,53.3319Z" class="cls-1"/>
  </g>
  <g class="cls-2">
    <path d="M325.5646,35.1534a55.464,55.464,0,0,0-78.3458,0L113.1505,169.2226,142.85,198.9218,276.9172,64.8525a13.4117,13.4117,0,0,1,18.9482,0L319.9633,88.95l29.6992-29.6991Z" class="cls-1"/>
  </g>
</svg>
