<svg xmlns="http://www.w3.org/2000/svg" id="export" viewBox="0 0 512 512">
  <defs>
    <style>
      .cls-1{fill:currentColor}
    </style>
  </defs>
  <path d="M223.1513,313.4222h0l-52.1994-39.1495L66.5532,352.5717l36.4389,73.962a9.2275,9.2275,0,0,0,7.825,4.337h22.3446A310.5418,310.5418,0,0,0,330.81,360.2329l-58.8879-58.888A103.9311,103.9311,0,0,1,223.1513,313.4222Z" class="cls-1"/>
  <path d="M444.9984,119.0341V96.6894a9.2276,9.2276,0,0,0-4.337-7.825L366.6993,52.4255,288.4,156.8242,327.55,209.0235h0a104.2961,104.2961,0,0,1-5.1388,32.4165l62.1269,62.127A310.4137,310.4137,0,0,0,444.9984,119.0341Z" class="cls-1"/>
  <polygon fill="currentColor" points="361.43 331.454 304.467 274.491 45.977 16 16 16 16 45.422 271.922 301.345 330.81 360.233 466.577 496 496 496 496 466.024 361.43 331.454" opacity=".25"/>
</svg>
