<svg xmlns="http://www.w3.org/2000/svg" id="export" viewBox="0 0 512 512">
  <defs>
    <style>
      .cls-1{fill:currentColor}.cls-2{opacity:.25}
    </style>
  </defs>
  <path d="M316,67.6851v53.7822a112,112,0,1,1-120,0V67.6851C137.42,91.4692,96,148.9839,96,216c0,88.2246,71.7759,160,160,160s160-71.7754,160-160C416,148.9839,374.58,91.4692,316,67.6851Z" class="cls-1"/>
  <g class="cls-2">
    <polygon points="232 15.998 232 57.8 232 106.598 232 200 280 200 280 106.598 280 57.8 280 15.998 232 15.998" class="cls-1"/>
  </g>
  <g class="cls-2">
    <rect width="64" height="64" x="104" y="432" class="cls-1" rx="32"/>
    <rect width="64" height="64" x="224" y="432" class="cls-1" rx="32"/>
    <rect width="64" height="64" x="344" y="432" class="cls-1" rx="32"/>
  </g>
</svg>
