<svg xmlns="http://www.w3.org/2000/svg" viewBox="0 0 512 512">
  <rect width="230.902" height="54" x="270.913" y="106.636" fill="currentColor" opacity=".25" transform="rotate(-45 386.364 133.636)"/>
  <path fill="currentColor" d="M198.4238,160.24A99.0675,99.0675,0,1,0,160.24,198.4238L221.8164,260l-56.5708,56.5708a98.9591,98.9591,0,1,0,35.9251,40.4421L260,298.1836,448.9082,487.0918l38.1836-38.1836ZM112,157a45,45,0,1,1,45-45A45.0508,45.0508,0,0,1,112,157Zm0,288a45,45,0,1,1,45-45A45.0508,45.0508,0,0,1,112,445Z"/>
</svg>
