<svg xmlns="http://www.w3.org/2000/svg" viewBox="0 0 512 512">
  <path fill="currentColor" d="M261.7373,24.1606c-51.852,7.4078-90.1138,39.2344-110.6494,92.04A231.156,231.156,0,0,0,136,192v16H280V21.5518Z" opacity=".25"/>
  <path fill="currentColor" d="M438.3027,281.2939c-23.8007-10.2006-46.3667-43.7358-63.541-94.4277v0C367.4077,165.16,346.1226,150,323,150H168.0867a86.3914,86.3914,0,0,0-41.3316,10.3973c-1.2036.6554-2.2924,1.2859-3.2091,1.8709-19.3313,12.3375-36.1475,30.91-50.1881,55.4813-14.7363,25.7886-26.5063,58.3589-34.9824,96.8057A648.3091,648.3091,0,0,0,24,440v56H272V428.4683a265.3,265.3,0,0,1,67.52-7.03,94.9722,94.9722,0,0,0,94.419-70.61l17.0884-64.0815Z"/>
</svg>
