<svg xmlns="http://www.w3.org/2000/svg" id="export" viewBox="0 0 512 512">
  <defs>
    <style>
      .cls-1{fill:currentColor}
    </style>
  </defs>
  <path d="M64,248v48c83.8135,0,152,68.187,152,152h48C264,337.72,174.28,248,64,248Z" class="cls-1"/>
  <path d="M287.4131,224.5883A315.0489,315.0489,0,0,0,64,132v48c147.7759,0,268,120.2244,268,268h48a314.1226,314.1226,0,0,0-24.8667-123.0061A315.6169,315.6169,0,0,0,287.4131,224.5883Z" class="cls-1"/>
  <path fill="currentColor" d="M462.041,279.8389A430.5088,430.5088,0,0,0,369.47,142.53,430.7213,430.7213,0,0,0,64,16V64c211.7383,0,384,172.2617,384,384h48A429.3171,429.3171,0,0,0,462.041,279.8389Z" opacity=".25"/>
  <circle cx="88" cy="424" r="48" class="cls-1"/>
</svg>
