<svg xmlns="http://www.w3.org/2000/svg" id="export" viewBox="0 0 512 512">
  <defs>
    <style>
      .cls-2{fill:currentColor}
    </style>
  </defs>
  <rect width="480" height="384" x="16" y="64" fill="currentColor" opacity=".25" rx="16"/>
  <path d="M358.33,318.23a62.23,62.23,0,0,1,0-124.46,61.58,61.58,0,0,1,38.52,13.35l22.3-28.26a97.22,97.22,0,0,0-60.82-21.09,98.23,98.23,0,0,0,0,196.46,97.22,97.22,0,0,0,60.82-21.09l-22.3-28.26A61.58,61.58,0,0,1,358.33,318.23Z" class="cls-2"/>
  <path d="M176.23,193.77a61.57,61.57,0,0,1,38.51,13.35l22.31-28.26a97.22,97.22,0,0,0-60.82-21.09,98.23,98.23,0,0,0,0,196.46,97.22,97.22,0,0,0,60.82-21.09l-22.31-28.26a61.57,61.57,0,0,1-38.51,13.35,62.23,62.23,0,0,1,0-124.46Z" class="cls-2"/>
</svg>
