<svg xmlns="http://www.w3.org/2000/svg" id="export" viewBox="0 0 512 512">
  <defs>
    <style>
      .cls-1{fill:currentColor}
    </style>
  </defs>
  <path d="M424.2051,263.5039a144.0018,144.0018,0,0,1-13.6109,61.3911l35.5166,35.5166a192.68,192.68,0,0,0-24.7041-227.1889l54.36-41.8155L320,51.3672v159.86l63.1621-48.5864A143.5109,143.5109,0,0,1,424.2051,263.5039Z" class="cls-1"/>
  <path d="M232.2461,112l-.082-48a192.409,192.409,0,0,0-69.4683,12.9966l38.4106,38.4106A145.7356,145.7356,0,0,1,232.2461,112Z" class="cls-1"/>
  <path d="M90.8018,386.7749,36.4385,428.5928l155.7666,40.04v-159.86l-63.1616,48.5859c-54.108-55.4785-54.6226-144.0459-1.5293-200.145L93.5674,123.2666C23.2119,196.59,22.293,312.3374,90.8018,386.7749Z" class="cls-1"/>
  <path d="M279.959,408l.082,48a191.12,191.12,0,0,0,110.9107-35.3491l-34.6-34.6A143.5619,143.5619,0,0,1,279.959,408Z" class="cls-1"/>
  <polygon fill="currentColor" points="496 466.301 45.699 16 16 16 16 45.699 93.567 123.267 127.514 157.213 356.352 386.051 390.952 420.651 466.301 496 496 496 496 466.301" opacity=".25"/>
</svg>
