<svg xmlns="http://www.w3.org/2000/svg" id="export" viewBox="0 0 512 512">
  <defs>
    <style>
      .cls-1{fill:none}
    </style>
  </defs>
  <polygon points="265 368.375 316.451 332.656 265 299.423 265 368.375" class="cls-1"/>
  <polygon points="198.674 256.583 144 221.269 144 291.874 198.674 256.583" class="cls-1"/>
  <rect width="448" height="448" x="32" y="32" fill="currentColor" opacity=".25" rx="24"/>
  <polygon points="265 144.19 265 213.771 316.76 180.36 265 144.19" class="cls-1"/>
  <path fill="currentColor" d="M376,313.9629l-88.8379-57.3667L377,199.2549V163.2L256.9146,80,217,80.0464V211.29l-73-47.1484v57.1389l54.6738,35.3125L144,291.8827v56.1434l.4487.6952L217,301.8925V431h41.9609L376,349.7227ZM265,144.19l51.76,36.17L265,213.7705Zm0,224.1846V299.4233l51.4512,33.2325Z"/>
</svg>
