<svg xmlns="http://www.w3.org/2000/svg" id="export" viewBox="0 0 512 512">
  <defs>
    <style>
      .cls-1{fill:currentColor}
    </style>
  </defs>
  <path d="M64,168H24V472a16,16,0,0,0,16,16H344V448H64Z" class="cls-1"/>
  <path d="M136,96H96V400a16,16,0,0,0,16,16H416V376H136Z" class="cls-1"/>
  <path fill="currentColor" d="M472,24H184a16,16,0,0,0-16,16V328a16,16,0,0,0,16,16H472a16,16,0,0,0,16-15.27c0-.25,0-.48,0-.73V40A16,16,0,0,0,472,24Z" opacity=".25"/>
  <polygon points="308 272 356 272 356 204 424 204 424 156 356 156 356 88 308 88 308 156 240 156 240 204 308 204 308 272" class="cls-1"/>
</svg>
