<svg xmlns="http://www.w3.org/2000/svg" id="export" viewBox="0 0 512 512">
  <defs>
    <style>
      .cls-1,.cls-2{fill:currentColor}.cls-1{opacity:.25}
    </style>
  </defs>
  <path d="M125.5273,263.2805,77.1309,360.0728C78.083,360.0305,79.0381,360,80,360a63.7357,63.7357,0,0,1,42.6611,16.3433l44.4849-88.97A63.998,63.998,0,0,1,125.5273,263.2805Z" class="cls-1"/>
  <path d="M122.6611,376.3433A63.7357,63.7357,0,0,0,80,360c-.9619,0-1.917.0305-2.8691.0728a64.0713,64.0713,0,1,0,45.53,16.2705Z" class="cls-2"/>
  <path d="M320.8408,304.126l-81.9551-68.2954a64.101,64.101,0,0,1-26.2544,40.6032l78.1006,65.0838A64.2869,64.2869,0,0,1,320.8408,304.126Z" class="cls-1"/>
  <path d="M176,160a63.945,63.945,0,1,0,64,64A64.0721,64.0721,0,0,0,176,160Z" class="cls-2"/>
  <path d="M432,160a63.7,63.7,0,0,1-41.2187-15.094L347.5625,296.1711C349.03,296.07,350.5068,296,352,296a63.7,63.7,0,0,1,41.2188,15.094l43.2187-151.2651C434.97,159.93,433.4932,160,432,160Z" class="cls-1"/>
  <path d="M393.2188,311.094A63.7,63.7,0,0,0,352,296c-1.4932,0-2.97.07-4.4375.1711a63.5245,63.5245,0,0,0-26.7217,7.9549,64.02,64.02,0,1,0,72.378,6.968Z" class="cls-2"/>
  <path d="M432,32a64,64,0,0,0,0,128c1.4932,0,2.97-.07,4.4375-.1711A63.9912,63.9912,0,0,0,432,32Z" class="cls-2"/>
</svg>
