<svg xmlns="http://www.w3.org/2000/svg" viewBox="0 0 512 512">
  <path fill="currentColor" d="M464.001,350.4688a31.8693,31.8693,0,0,0-5.65-18.146L426.3174,287,352,181.8525V152h32a32.0361,32.0361,0,0,0,32-32V16H96V120a32.0361,32.0361,0,0,0,32,32h31.9165v30.9219L85.8992,287,53.8677,332.0405l-.1616.23A31.8552,31.8552,0,0,0,48,350.5088v89.4224a56.0659,56.0659,0,0,0,55.9873,56L408.019,496h.0127a56,56,0,0,0,56-56.019Z" opacity=".25"/>
  <path fill="currentColor" d="M53.7061,332.2705A31.8552,31.8552,0,0,0,48,350.5088v89.4224a56.0659,56.0659,0,0,0,55.9873,56L408.019,496h.0127a56,56,0,0,0,56-56.019l-.0307-89.5122a31.8693,31.8693,0,0,0-5.65-18.146L426.3174,287H85.8992L53.8677,332.0405Z"/>
</svg>
