<svg xmlns="http://www.w3.org/2000/svg" id="export" viewBox="0 0 512 512">
  <defs>
    <style>
      .cls-1,.cls-2{fill:currentColor}.cls-1{opacity:.25}
    </style>
  </defs>
  <path d="M421,307l-12.606,12.6062q-3.9411,4.42-8.1445,8.6438-4.2144,4.214-8.6435,8.144L379,349h72V467H61V349h72l-12.606-12.606q-4.42-3.9408-8.6435-8.144-4.2144-4.2144-8.1445-8.6438L91,307H19V509H493V307Z" class="cls-1"/>
  <polygon points="235.633 387 112 387 112 429 400 429 400 387 276.367 387 235.633 387" class="cls-2"/>
  <path d="M423.1328,166.823q-.6453-6.3537-1.7568-12.5618-.3691-2.0684-.7891-4.1191-1.259-6.1516-2.96-12.1343-1.6986-5.9795-3.8213-11.772a167.6326,167.6326,0,0,0-23.1812-42.7529q-1.2092-1.6172-2.4565-3.2038A167.5177,167.5177,0,0,0,264.6455,16.2186Q260.35,16.001,256,16t-8.6455.2186A167.5177,167.5177,0,0,0,123.832,80.2791q-1.2465,1.5867-2.4565,3.2038a167.6326,167.6326,0,0,0-23.1812,42.7529q-2.1195,5.79-3.8213,11.772-1.6977,5.9795-2.96,12.1343-.42,2.0508-.7891,4.1191-1.1088,6.2051-1.7568,12.5618a170.55,170.55,0,0,0,0,34.354q.4307,4.236,1.0683,8.4077.9565,6.2568,2.3663,12.356.9389,4.0641,2.0712,8.0515,1.6986,5.9795,3.8213,11.772,1.4129,3.8595,3.0078,7.6289t3.3643,7.4419a168.0046,168.0046,0,0,0,16.8091,27.6821q1.2092,1.6171,2.4565,3.2038a167.5159,167.5159,0,0,0,123.5225,64.06Q251.65,351.9991,256,352t8.6455-.2187a167.5159,167.5159,0,0,0,123.5225-64.06q1.2465-1.5867,2.4565-3.2038a168.0046,168.0046,0,0,0,16.8091-27.6821q1.7688-3.6724,3.3643-7.4419,1.5938-3.7683,3.0078-7.6289,2.12-5.79,3.8213-11.772,1.1322-3.9865,2.0712-8.0515,1.407-6.0963,2.3663-12.356.6372-4.171,1.0683-8.4077a170.55,170.55,0,0,0,0-34.354Z" class="cls-1"/>
  <path d="M230.8457,206h51.8764a16.2844,16.2844,0,0,1,16.3266,14.1407A16.0187,16.0187,0,0,1,283.1543,238H197v36h39v38h40V274h6.3144c27.743,0,51.2518-21.4039,52.7609-49.1059A52.0559,52.0559,0,0,0,283.1543,170H231.2779a16.2844,16.2844,0,0,1-16.3266-14.1407A16.0187,16.0187,0,0,1,230.8457,138H317V102H276V64H236v38h-4.3144c-27.743,0-51.2518,21.4039-52.7609,49.1059A52.0559,52.0559,0,0,0,230.8457,206Z" class="cls-2"/>
</svg>
