<svg xmlns="http://www.w3.org/2000/svg" id="export" viewBox="0 0 512 512">
  <defs>
    <style>
      .cls-1{fill:none}.cls-2{fill:currentColor}
    </style>
  </defs>
  <polygon points="310.059 280 270.059 240 269.976 240 309.976 280 310.059 280" class="cls-1"/>
  <polygon points="344 314.024 496 466.024 496 465.941 344 313.941 344 314.024" class="cls-1"/>
  <path d="M58.28,28.22Q64.9684,22.0435,71.7729,16H45.9766L170.7573,140.7813l.0379-.0455Z" class="cls-1"/>
  <path d="M316,384h38.5774l-48-48H218.09A123.854,123.854,0,0,0,316,384Z" class="cls-1"/>
  <path d="M147.4275,176.85q-1.7508,3.5361-3.3628,7.15H104v56H210.5776Z" class="cls-2"/>
  <path d="M316,72a187.1149,187.1149,0,0,0-119.8008,43.2285l45.5432,45.5432A123.3256,123.3256,0,0,1,316,136h68V72Z" class="cls-2"/>
  <polygon points="316.568 235.597 320.971 240 344 240 344 184 264.971 184 316.568 235.597 316.568 235.597" class="cls-2"/>
  <path d="M316,384a123.854,123.854,0,0,1-97.91-48h88.4875l-56-56H104v56h40.0647C173.3127,401.91,239.3708,448,316,448h68V413.4226L354.5774,384Z" class="cls-2"/>
  <polygon fill="currentColor" points="344 314.024 309.976 280 269.976 240 170.757 140.781 45.977 16 16 16 16 45.422 147.427 176.85 210.578 240 250.578 280 306.578 336 354.577 384 384 413.423 466.577 496 496 496 496 466.024 344 314.024" opacity=".25"/>
  <path fill="#fff" d="M72,16v-.1984c-.0752.0666-.1519.1317-.2271.1984Z"/>
</svg>
