<svg xmlns="http://www.w3.org/2000/svg" viewBox="0 0 512 512">
  <path fill="currentColor" d="M456.017,32.0217,56.0364,32a23.9988,23.9988,0,0,0-24,23.9975l-.0218,399.9806a23.999,23.999,0,0,0,23.9977,24L455.9927,480a23.9988,23.9988,0,0,0,24-23.9975l.0216-399.9806A23.9986,23.9986,0,0,0,456.017,32.0217Z" opacity=".25"/>
  <path fill="currentColor" d="M350.2227,172.2227A83.7144,83.7144,0,0,0,280.11,301.7773H231.89a83.7537,83.7537,0,1,0-76.001,37.77v.23H356.1113v-.23a83.7655,83.7655,0,0,0-5.8886-167.3246ZM161.7773,301.7773A45.7773,45.7773,0,1,1,207.5557,256,45.83,45.83,0,0,1,161.7773,301.7773Zm188.4454,0A45.7773,45.7773,0,1,1,396,256,45.83,45.83,0,0,1,350.2227,301.7773Z"/>
</svg>
