<svg xmlns="http://www.w3.org/2000/svg" viewBox="0 0 512 512">
  <circle cx="88" cy="80" r="56" fill="currentColor" opacity=".25"/>
  <path fill="currentColor" d="M475.48,150.78a129.34,129.34,0,0,0-66.85-99.59c-2.1-1.12-4.22-2.19-6.36-3.19a130,130,0,0,0-104.82-1.78c-1.36.57-2.71,1.17-4.05,1.78-37.23,17-64.69,49.76-83.92,85.25-3.39,6.25-6.55,12.65-9.48,19.15A276.28,276.28,0,0,0,183.52,200c-1.74,7.09-2.86,14.28-4.77,21.33q-2.17,8-4.34,16a320.25,320.25,0,0,1-52,107.71c-16,21.54-35.34,40-54.26,59-5.8,5.81-11.66,11.55-17.4,17.42-6.65,6.81-10.19,15.63-7.12,25,2.86,8.73,10.1,16.5,17.82,21.27,8.28,5.1,18,5.78,26.26.32,3.32-2.19,5.94-5.05,8.66-7.9l24-25.07c7.54-7.9,15-15.85,23-23.3A315.92,315.92,0,0,1,250,346.27c13.75-5,28-8.35,42-12.46,15-4.41,29.09-9.06,42.06-13.81,25.7-9.42,47.15-19.26,63.62-28.57a159.48,159.48,0,0,0,68.5-77.55A130.62,130.62,0,0,0,475.48,150.78Zm-61.27,69.94a122.89,122.89,0,0,1-11.44,13.11C386.29,250.32,366,263,344.92,272.78c-22.59,10.51-47.16,18.27-72.11,20.12-10.92.81-22.41.64-32.93-2.75-6.58-2.12-12-5.62-15.21-11.85-3.28-6.38-4.58-13.74-5.18-20.82a130.94,130.94,0,0,1,1.57-31.57c3.87-24.28,12.34-47.94,23.74-69.68,10.54-20.13,23.95-39.5,41.42-54.24C303.1,87.74,324,78.38,346.33,77.93a86.28,86.28,0,0,1,87.72,81.6C435.24,181.67,427.45,203.15,414.21,220.72Z"/>
</svg>
