<svg xmlns="http://www.w3.org/2000/svg" id="export" viewBox="0 0 512 512">
  <defs>
    <style>
      .cls-1{fill:currentColor;opacity:.25}
    </style>
  </defs>
  <path d="M403.7551,66.8965l-29.38,37.909a195.1678,195.1678,0,0,1,17.3891,15.43,192.3868,192.3868,0,0,1,40.1363,212.9658l.0669.0892,31.9677,42.6233A240.1013,240.1013,0,0,0,400.1016,64.0673l.0031.0024C401.3352,64.9951,402.5442,65.9471,403.7551,66.8965Z" class="cls-1"/>
  <path d="M206,458.9333l15.0986-14.092A192.1568,192.1568,0,0,1,87.3091,164.178L87.3,164.17l.0057-.01c-.1289-.793-17.178-59.7293-17.2251-59.8915l-.0013-.0044A238.9658,238.9658,0,0,0,16,256c0,113.62,78.9641,208.772,185,233.6387V463.6Z" class="cls-1"/>
  <path fill="currentColor" d="M431.9678,333.2905l-.0669-.0892-.0015-.0021L392,280H224V216l32-24,80,16,24-24-16-40,30.3745-39.1931.001-.0014,29.38-37.909c-1.2109-.9494-2.42-1.9014-3.65-2.8268l-.0031-.0024-.0017-.0014,0,0c-.833-.6265-1.6765-1.24-2.5181-1.8553l-.0015-.0011q-.5643-.4131-1.13-.8243c-.1887-.1375-.3762-.2764-.5659-.4127q-1.2345-.887-2.4829-1.7555c-.1636-.1143-.3281-.227-.4917-.3409q-.65-.4524-1.3015-.9023l-.0032-.0021q-1.2447-.8541-2.4993-1.6947l-.0036-.0025c-.4053-.2706-.8135-.5368-1.2212-.8038-.2-.1307-.398-.2627-.5977-.3933-.85-.5566-1.6987-1.115-2.5561-1.661-.4346-.2768-.8738-.547-1.3118-.8189-.1172-.0736-.2349-.1466-.3523-.22q-2.4207-1.5138-4.8794-2.9711l-.1518-.09c-.598-.3548-1.1939-.7124-1.7955-1.0613l-.0022-.0013c-.8388-.4864-1.6843-.9621-2.529-1.4387-.147-.0828-.2947-.1641-.4417-.2468-.5407-.3043-1.0813-.6088-1.6247-.9083l-.0022-.0012q-1.2594-.6939-2.5281-1.3727l-.001-.0006q-1.0727-.574-2.1523-1.1356l-.0093-.0048c-.8323-.4347-1.664-.87-2.5017-1.2949h0c-.0486-.0247-.0977-.0482-.1463-.0727-.7287-.3682-1.4617-.7287-2.1941-1.09q-1.8512-.9144-3.72-1.7988c-.1555-.0734-.312-.1452-.4675-.2182-.866-.409-1.7317-.8188-2.6043-1.216-.749-.341-1.5044-.67-2.2583-1.003l-.1286-.0571c-.8338-.3687-1.6678-.7372-2.5066-1.0966-.8057-.3451-1.6145-.683-2.4246-1.02l-.0032-.0013c-.59-.2451-1.1831-.4849-1.7756-.7255-.261-.1059-.52-.2144-.782-.3194-.799-.3212-1.5988-.6411-2.4023-.954-.1963-.0763-.3941-.1489-.5908-.2245-.4627-.18-.9287-.3527-1.3929-.53-.2639-.0995-.5266-.2016-.791-.3007-.7405-.2778-1.4785-.5607-2.2224-.8313l0,0q-2.3785-.8651-4.779-1.6832l-.001,0c-1.4421-.49-2.8936-.9593-4.3491-1.42-.2652-.085-.5283-.1741-.794-.2578-.739-.2326-1.4821-.4561-2.2241-.6817l-.0034-.0011q-1.4626-.4444-2.9326-.8723l-.0769-.0229q-1.1291-.327-2.2627-.6437l-.003-.0008q-1.5666-.4368-3.1423-.85h0c-.7056-.1865-1.41-.3761-2.1177-.5563h0q-2.0368-.5181-4.0886-.9978l-.0107-.0025c-.3945-.0932-.7864-.1937-1.1817-.2848h0c-.5772-.1328-1.16-.25-1.7388-.3785-1.1579-.2563-2.3142-.5165-3.478-.7572-.6291-.13-1.2617-.25-1.8928-.3751l-.0042-.0008q-1.49-.2956-2.9878-.5725c-.1855-.0345-.37-.0725-.5556-.1064-.7036-.1286-1.409-.2519-2.1148-.3744l-.0014,0c-.7456-.1293-1.4944-.2493-2.2425-.3715-.4072-.0665-.813-.1377-1.2209-.2023-.6861-.1086-1.3714-.2182-2.0589-.321-.6294-.0941-1.2627-.1758-1.8935-.2649-.6824-.0954-1.3633-.1959-2.0474-.2865-.5227-.0693-1.0432-.1455-1.5669-.2115q-2.7352-.3439-5.4887-.6274c-.4493-.046-.9012-.0823-1.3509-.1259-.4633-.0449-.9294-.0809-1.3933-.1237q-.6217-.0569-1.2449-.1106c-.5388-.0468-1.0759-.1008-1.6159-.1435-.6543-.0517-1.3106-.096-1.9666-.1424l-.0024,0c-.5112-.0362-1.0247-.0641-1.5366-.0973-.7349-.0478-1.4685-.099-2.2054-.14q-1.0221-.0564-2.0461-.1058c-.6838-.032-1.37-.0526-2.0559-.0781-.709-.0285-1.4182-.0567-2.1287-.079-.51-.0167-1.0185-.0355-1.529-.0474-.2007-.0047-.4029-.0034-.6035-.0076C259.3994,16.0265,257.7029,16,256,16c-1.6155,0-3.2251.0243-4.8315.0612-.2312.0047-.4639.0035-.6951.0087-.4014.0091-.803.0178-1.2039.0289-.7216.02-1.4394.0564-2.16.082-1.07.0381-2.1424.069-3.2088.1219H243.9c-.283.0142-.5645.0322-.8472.0474l-.0044,0q-2.3709.1261-4.729.3c-.0391.0029-.0784.0046-.1174.0074-.3345.0246-.67.0463-1.0039.0722-1.1812.0916-2.3558.2047-3.5318.3136-.2246.0212-.45.0382-.6748.06-.35.0334-.7019.0585-1.0513.0933-.3942.0392-.7876.0817-1.1811.1228-.9065.0947-1.8079.2061-2.7117.31-.7444.0864-1.4919.1622-2.2344.2554-.1628.02-.3264.038-.4892.0587l-.0012,0c-1.2952.1652-2.5826.3542-3.8706.5416-.4463.0649-.8953.1208-1.3409.1876q-.6408.0962-1.2807.1952c-.6262.0974-1.2476.2087-1.8723.31-1.08.1753-2.1619.3452-3.2364.5362l-.0009,0c-.2679.0476-.5337.1-.8013.1482-1.2319.2233-2.4578.4632-3.6829.7056-.28.0553-.5615.1049-.8408.1611l-.0007,0c-.4065.0818-.814.1617-1.22.2456h-.0007c-1.4233.2942-2.84.6068-4.2546.9262-.22.05-.4424.0939-.6624.1442-.4192.0959-.8364.196-1.2546.2941l-.011.0027q-2.1332.5-4.2515,1.0374l-.0044.0011c-.3242.0825-.65.1609-.9741.2447q-2.3956.6192-4.77,1.2907-.73.2051-1.458.4151l-.001,0c-.3183.0916-.6333.19-.9512.2829-1.2436.3618-2.487.7245-3.7216,1.1072-.3113.0964-.62.1981-.93.2958l-.0068.0021q-2.008.6315-4,1.2988l-.0078.0025c-.5059.169-1.012.3373-1.5164.51-.54.1843-1.0739.38-1.612.5678-.9436.33-1.8894.6546-2.8274.9957-.489.178-.9751.3616-1.4627.5428l-.0066.0024q-1.4912.5535-2.9711,1.13c-.1658.064-.3331.1251-.4988.19-.4885.19-.9788.3766-1.4658.57-.6448.2557-1.2828.5244-1.9244.7862-.7663.3127-1.5358.62-2.2985.9391l-.001,0q-.8567.359-1.709.726l-.0059.0025q-1.6966.7266-3.38,1.4787l-.0027.0013q-1.0008.447-1.9966.9026c-.4585.21-.9128.427-1.37.64-.6363.2961-1.2742.5891-1.9073.8906q-.9213.4387-1.84.8839l-.0007,0c-.543.2642-1.08.5381-1.6213.8057-.7493.3707-1.501.7368-2.2454,1.1158-.5957.3033-1.1865.6149-1.7793.9231l-.0022.0011q-1.3118.6819-2.6145,1.3794l-.0066.0036c-.6323.3385-1.2654.6755-1.894,1.02l-.0034.0018q-1.8142.9929-3.6084,2.0172l-.002.0011c-.6741.3842-1.3442.7744-2.0142,1.1649-.4816.2808-.96.5666-1.4394.8511-.29.1722-.582.3421-.8716.5153l0,0q-1.4718.88-2.93,1.7807c-.14.0862-.278.1743-.4174.2607-.647.4005-1.2935.8014-1.9361,1.2084l-.0048.0032q-1.069.6777-2.1309,1.3657c-.4273.2771-.8511.5591-1.2759.84-.2954.1951-.592.3881-.887.5838l-.0021.0015q-1.6176,1.0741-3.2168,2.1734c-.3753.2579-.7486.5184-1.1226.7781-.2163.15-.4341.2993-.65.45l-.002.0014c-.7395.5183-1.4787,1.0374-2.2121,1.5639-.7388.53-1.471,1.0686-2.2031,1.6068-.2674.1963-.5376.3887-.804.5862-.7588.5627-1.5115,1.1334-2.2634,1.7049q-.5607.426-1.1177.8569c-.11.0849-.2212.169-.3313.254q-1.95,1.5054-3.8679,3.05l-.0879.0708c-.3718.2989-.7449.5963-1.1148.8977l-.0017.0015q-1.17.9539-2.3261,1.9227c-.1431.12-.2849.2409-.4273.3614q-.3369.2847-.6736.5694l-.0005,0q-2.0138,1.7052-3.9895,3.4534l-.0068.006q-.5025.4448-1.0039.8908l-.0054.0048q-1.78,1.5936-3.5263,3.2228-.1.093-.2.1859-1.7586,1.6421-3.4846,3.3178c-.147.1427-.293.2861-.44.4291l-.0293.0284c-.1186.1162-.238.2319-.3567.3483q-1.7589,1.7256-3.4821,3.4865c-.0479.0488-.0953.0976-.1431.1463q-1.7157,1.7555-3.3965,3.5451c-.1826.1948-.364.3911-.5459.5865-.0286.0307-.0561.0625-.0847.0932q-2.091,2.2463-4.1267,4.5446l-.0044.0048q-.1153.1306-.2315.2611-1.5491,1.7565-3.06,3.5472-1.42,1.6822-2.8125,3.3886l.001.0037c.0471.1622,17.0962,59.0985,17.2251,59.8915l-.0057.01.0091.008L136,208v64l68,72h48v72l-30.8835,28.8247-.0179.0166L206,458.9333,201,463.6v26.0386c.812.19,1.6208.39,2.436.572.2356.0526.4724.1023.7083.1542.6155.1356,1.2383.252,1.8557.3827,1.4475.3065,2.8936.6163,4.35.8973.26.05.5208.0995.7808.15.2476.0477.4949.0961.7429.1423l.0022,0q1.5279.2846,3.0623.55c.5107.0881,1.0234.1709,1.5359.2545.2024.0335.4045.0676.6071.1007q2.159.3526,4.33.6667c.0513.0074.1028.0142.1541.0215.2431.0353.487.0679.73.1023.6172.0879,1.2342.1771,1.8531.2593q1.2074.1608,2.4184.3093l.0012,0q1.7571.2147,3.522.4027c.0755.008.15.0177.2256.0257q1.1258.12,2.2544.2293l.0066.0007q2,.1938,4.01.356h.0015q.9068.0726,1.8154.139c.6174.0447,1.2383.0766,1.8565.1177,1.0415.0693,2.0815.144,3.1272.1982l.0048,0c.21.011.4195.02.6292.03,1.49.0731,2.9856.1251,4.4829.17.189.0057.3765.0161.5654.0215h0q.7221.0207,1.4455.037c1.8238.0407,3.6509.0693,5.4844.0693,1.6172,0,3.2288-.0242,4.8369-.0613.2232-.0046.4478-.0034.6709-.0084q.6951-.0156,1.3894-.0354c.6817-.0192,1.3594-.0537,2.04-.0775,1.0957-.0383,2.1929-.07,3.2844-.1248l.0091,0c.049-.0024.0981-.0038.1474-.0064.7871-.04,1.5689-.1,2.3538-.149,1.0254-.0622,2.052-.12,3.074-.1949q.6848-.05,1.3679-.1047h.0017q2.365-.187,4.7168-.4188c.13-.0127.26-.0218.39-.0347.105-.0105.2107-.0188.3157-.0295.4907-.05.9773-.1141,1.467-.1678q1.4857-.1608,2.9661-.3391c.2961-.036.5945-.0649.89-.1018q.6822-.0848,1.3628-.1741l.0058-.0007q2.4507-.3194,4.887-.6838l.0085-.0013c.1524-.0229.3052-.0432.4571-.0664,1.0483-.1606,2.0891-.3432,3.1323-.5189.6939-.1168,1.3909-.2234,2.083-.3451l.002,0q.6792-.12,1.3574-.2439c.2822-.0514.562-.1095.8437-.1618,1.2876-.2381,2.5745-.479,3.8545-.7384l.0056-.0011c.1888-.0383.3792-.0731.5677-.1119,1.5058-.309,3.0029-.6413,4.498-.9791.2007-.0455.4033-.0857.6038-.1315h0q.6808-.1554,1.3594-.3157,2.2449-.5259,4.4741-1.0918c.2361-.06.4736-.1163.7095-.1771l.0044-.0011c1.4971-.3863,2.9851-.7948,4.4707-1.21.165-.0461.332-.088.4971-.1345q.68-.1914,1.3588-.3882l.0064-.0018q2.1408-.616,4.2661-1.2691l.0093-.0029c.2707-.0832.5432-.1627.8132-.2471q2.4276-.7572,4.8308-1.5683c.0669-.0225.1336-.0457.2-.0684.1662-.0558.3318-.1131.4978-.1694.2236-.0764.448-.1521.6718-.2288q2.0333-.6957,4.05-1.4265c.3118-.113.6258-.2219.9368-.3362.3936-.1445.7817-.3,1.1746-.4465,1.1709-.4385,2.3418-.8774,3.5046-1.3325.4614-.18.9211-.3646,1.3811-.5479.51-.2033,1.0161-.4162,1.5247-.623.7727-.314,1.5473-.6243,2.3159-.9462.3435-.1439.6894-.2838,1.032-.4292l.0026-.0011c1.0918-.4634,2.1739-.9449,3.2569-1.4248.42-.186.844-.3645,1.2629-.5525.4676-.21.9326-.4234,1.3985-.6362q1.8211-.832,3.6262-1.6931c.3735-.1782.749-.3526,1.1213-.5326.0718-.0348.1426-.0717.2144-.1066q2.0826-1.01,4.1428-2.0586l.0027-.0014c.47-.2393.9375-.4825,1.4055-.7246l.0022-.0011c.688-.3559,1.37-.7216,2.0542-1.0839.449-.2379.9009-.4707,1.3481-.7113.4053-.2179.8125-.432,1.2161-.6522l.0012-.0006c.2246-.1225.4456-.2511.67-.3744q1.7633-.97,3.5115-1.9632c.4753-.2714.9472-.5473,1.42-.822l.004-.0022c.6184-.3591,1.2312-.7268,1.8459-1.0913.45-.2665.9019-.5286,1.3494-.7978.4253-.2559.8527-.5083,1.2763-.7666l.0049-.003q2.0175-1.2312,4.0081-2.502l.0009-.0007c.4781-.3046.9527-.6141,1.4283-.9221l.0019-.0012c.2139-.1384.4248-.2809.638-.42.7876-.5137,1.5744-1.0282,2.3557-1.5507.4443-.2971.8906-.5912,1.3327-.891.2835-.1924.5618-.3918.8445-.5854,1-.6857,2-1.3726,2.99-2.0728.4785-.3384.9531-.6816,1.4289-1.0234q1.4074-1.011,2.7993-2.0415l.0108-.008c.4558-.3375.9138-.6724,1.3669-1.013.596-.4478,1.1826-.9069,1.7742-1.36.625-.479,1.2546-.9524,1.8748-1.4373l.0039-.003c.4773-.3731.95-.7516,1.4245-1.1282l.0034-.0027c.33-.2621.656-.5294.9849-.7933.5391-.4326,1.08-.8635,1.615-1.3007.4709-.3845.9436-.7669,1.4114-1.1549.3259-.27.6455-.5481.97-.82.8352-.7,1.6712-1.3995,2.4966-2.1107l.0059-.0051c.4721-.407.9392-.8194,1.4082-1.23l.0039-.0034c.4441-.3886.8828-.7831,1.3242-1.175.3655-.3247.7336-.6466,1.0972-.9737.4739-.4261.9494-.8505,1.42-1.2805.7688-.7026,1.5271-1.4164,2.2869-2.1286.3325-.3119.67-.6182,1.0009-.9319.4683-.4442.9309-.8943,1.3958-1.3423q1.1324-1.0911,2.25-2.197c.4712-.4661.9438-.9308,1.4111-1.4009l.0022-.002c.4512-.4538.8936-.9163,1.3413-1.3736.59-.6027,1.1841-1.2013,1.7676-1.81.4575-.4773.9087-.9605,1.3621-1.4416.2888-.3062.5732-.6165.8606-.9243.41-.4393.8215-.8771,1.2282-1.3194l.0035-.004c.4643-.505.9292-1.0091,1.3894-1.5183l.0044-.0046q1.4512-1.6073,2.875-3.24c.0175-.02.0356-.04.0532-.06.4431-.5092.88-1.0244,1.3186-1.5373q.8057-.9411,1.6-1.8923c.1118-.1335.2258-.2652.3374-.399l.0012-.0014c.4539-.544.9089-1.0872,1.3579-1.6352.5969-.728,1.1843-1.4642,1.772-2.2.1123-.1407.2263-.28.3384-.42.0666-.0837.134-.167.2014-.25.1469-.1812.2944-.3619.4389-.545.4234-.5359.8392-1.0778,1.2579-1.6174q.91-1.1726,1.8066-2.3564c.4348-.5748.87-1.149,1.3-1.7278l.0029-.0037c.5769-.7768,1.1426-1.5622,1.711-2.3458.2876-.3971.5815-.7894.8667-1.1886.3984-.5573.7885-1.1206,1.1821-1.6814.3-.4273.595-.8579.8923-1.2871.2637-.38.53-.7589.7913-1.1411l.0068-.01c.41-.6006.8208-1.2008,1.2263-1.8053l.003-.0044q1.2073-1.801,2.385-3.6235l.0159-.0242c.372-.5774.7355-1.1609,1.1027-1.7417.2937-.4644.5823-.932.8731-1.3982.23-.3689.4626-.7358.69-1.1062l.0027-.0045c.3857-.6269.7712-1.2541,1.1514-1.8848.1828-.3033.3591-.611.541-.9149.5666-.9483,1.1335-1.8963,1.6867-2.8532h0Z"/>
  <path d="M201,489.6459c.8113.1905,1.6218.3827,2.436.5648-.8152-.1821-1.624-.3816-2.436-.572Z" class="cls-1"/>
  <path d="M201,489.6459c.8113.1905,1.6218.3827,2.436.5648-.8152-.1821-1.624-.3816-2.436-.572Z" class="cls-1"/>
</svg>
