<svg xmlns="http://www.w3.org/2000/svg" viewBox="0 0 512 512">
  <path fill="currentColor" d="M415.0254,318.9814,499,256l-83.87-62.9028-2.1475-5.0108L427.8271,84.1733,324.043,98.999l-5.0616-2.0244L256,13,193.0977,96.8706l-5.0108,2.1475L84.1729,84.1733,98.999,187.957l-2.0244,5.0616L13,256l83.87,62.9033,2.1475,5.01L84.1729,427.8267,187.957,413.001l5.0616,2.0244L256,499l62.9023-83.87,5.0108-2.148,103.914,14.8448L413.001,324.043ZM256,400A144,144,0,1,1,400,256,144,144,0,0,1,256,400Z"/>
  <path fill="currentColor" d="M112,256A144,144,0,0,0,256,400V112A144,144,0,0,0,112,256Z" opacity=".25"/>
</svg>
