<svg xmlns="http://www.w3.org/2000/svg" id="export" viewBox="0 0 512 512">
  <defs>
    <style>
      .cls-1{fill:none}.cls-3{fill:currentColor}
    </style>
  </defs>
  <path d="M452.89,422.9147l43.11,43.11v-.0882l-43.0494-43.0715Z" class="cls-1"/>
  <path d="M46.2948,16h-.32L149.2979,119.3232c.0424-.0466.0842-.0938.1266-.14Z" class="cls-1"/>
  <g opacity=".25">
    <path d="M399.9292,217.4531V216c0-79.4019-64.5981-144-144-144a143.1529,143.1529,0,0,0-79.0949,23.73l139.7333,139.867h0L476.8258,395.855a122.4761,122.4761,0,0,0,19.1034-66.2359C495.9292,271.1821,455.6445,225.3916,399.9292,217.4531Z" class="cls-3"/>
    <path d="M111.9292,216v2.4917a122.2742,122.2742,0,0,0-62.7939,32.7075,109.397,109.397,0,0,0-33.2061,78.42c0,31.1187,12.7886,60.7622,36.01,83.4693C74.6289,435.2754,105.2676,448,136,448H382.76a111.1106,111.1106,0,0,0,31.3488-4.47L125.5305,154.9522A143.1343,143.1343,0,0,0,111.9292,216Z" class="cls-3"/>
  </g>
  <path d="M149.4245,119.1828c-.0424.0466-.0842.0938-.1266.14L452.89,422.9147l.0609-.0495Z"/>
  <polygon points="452.89 422.915 149.298 119.323 45.975 16 16 16 16 45.422 125.53 154.952 414.109 443.53 466.579 496 496 496 496 466.025 452.89 422.915" class="cls-3"/>
</svg>
