<svg xmlns="http://www.w3.org/2000/svg" id="export" viewBox="0 0 512 512">
  <defs>
    <style>
      .cls-2{fill:currentColor}
    </style>
  </defs>
  <polygon fill="currentColor" points="64 112 16 112 16 496 496 496 496 448 64 448 64 112" opacity=".25"/>
  <path d="M215.2783,337.22,272,393.9414l45.91-45.91a226.2832,226.2832,0,0,0-22.2859-45.5969L272,326.0586,216.7217,270.78,103.7827,374.3086l32.4346,35.3828Z" class="cls-2"/>
  <path d="M372.8715,416H416a302.75,302.75,0,0,0-31.3313-134.7273l49.106-49.106,56.9014,56.9014L496,283.7441V136H346.8849l-4.6384,4.6384,57.5868,57.5869-40.6812,40.6812A307.87,307.87,0,0,0,326.96,201.04,302.01,302.01,0,0,0,112,112v43.1285A268.9644,268.9644,0,0,1,372.8715,416Z" class="cls-2"/>
</svg>
