<svg xmlns="http://www.w3.org/2000/svg" id="export" viewBox="0 0 512 512">
  <defs>
    <style>
      .cls-1{fill:currentColor}
    </style>
  </defs>
  <path d="M244,391.5a136.91,136.91,0,0,1,26.59-81.28l-.26-.16,38.41-60.37A71.92,71.92,0,0,0,320,211V120a104,104,0,0,0-208,0v91a71.92,71.92,0,0,0,11.26,38.66l38.41,60.37-99.86,63.1A64,64,0,0,0,32,427.26V496H292.14A137.21,137.21,0,0,1,244,391.5Z" class="cls-1"/>
  <circle cx="382.5" cy="392.5" r="108.5" fill="currentColor" opacity=".25"/>
  <polygon points="384.65 370.52 351.41 337.29 328.79 359.91 362.02 393.15 328.08 427.09 351.41 450.42 385.35 416.48 418.59 449.71 441.21 427.09 407.98 393.85 441.92 359.91 418.59 336.58 384.65 370.52" class="cls-1"/>
</svg>
