<svg xmlns="http://www.w3.org/2000/svg" id="export" viewBox="0 0 512 512">
  <defs>
    <style>
      .cls-1{fill:currentColor;opacity:.25}
    </style>
  </defs>
  <path d="M344,24H40A16,16,0,0,0,24,40V344H64V64H344Z" class="cls-1"/>
  <path d="M416,111.24V96H112a16,16,0,0,0-16,16V416h40V136H416Z" class="cls-1"/>
  <path fill="currentColor" d="M472,168H184a16,16,0,0,0-16,16V472a16,16,0,0,0,16,16H472a16,16,0,0,0,16-16V184c0-.25,0-.48,0-.73A16,16,0,0,0,472,168Z"/>
  <polygon fill="#fff" points="400 328 288 248 280 248 280 408 288 408 400 328"/>
</svg>
