<svg xmlns="http://www.w3.org/2000/svg" viewBox="0 0 512 512">
  <path fill="currentColor" d="M293,155.5459V39.7024q-18.4278-1.5531-37-1.5745A439.8435,439.8435,0,0,0,8,114.7007V165.79L228.0122,480h55.9756L426.5491,276.4011a120.32,120.32,0,0,1-14.2488.7439C346.0374,276.6455,293,221.811,293,155.5459Z"/>
  <path fill="currentColor" d="M472,75.5273a60.3186,60.3186,0,0,0-60.25-60.25h-.5A60.3187,60.3187,0,0,0,351,75.5273V104H329v53.1484a84.0912,84.0912,0,0,0,87.111,83.9434C461.4417,239.4463,497,201.4678,497,156.1069V104H472ZM436,102H387V75.5273A24.4816,24.4816,0,0,1,416.9037,51.853C427.4592,54.1,436,65.1943,436,75.9866Z" opacity=".25"/>
</svg>
