<svg xmlns="http://www.w3.org/2000/svg" id="export" viewBox="0 0 512 512">
  <defs>
    <style>
      .cls-1,.cls-2{fill:currentColor}.cls-2{opacity:.25}
    </style>
  </defs>
  <path d="M470.5,104h0V75.5273c0-.8309-.0293-1.6549-.063-2.4777-.0083-.2052-.0051-.4133-.0156-.618-.0073-.1449-.0244-.2871-.0327-.4316-.0513-.8828-.1277-1.7588-.2161-2.6313-.033-.3228-.073-.6435-.1111-.9647q-.0937-.7971-.2077-1.5878c-.0589-.4046-.1189-.8087-.1858-1.2107-.0684-.4147-.1468-.8261-.2237-1.2379-.2443-1.3068-.5156-2.6043-.8444-3.88a59.7666,59.7666,0,0,0-2.8421-8.39c-.1326-.3131-.2822-.6171-.42-.9275-.1589-.3578-.3186-.715-.4841-1.0691q-.2931-.6266-.5989-1.2459c-.1875-.3783-.3823-.7524-.5777-1.1262-.1555-.2977-.3-.6021-.46-.8969-.0755-.1386-.1594-.2718-.2359-.41q-.5031-.9078-1.0346-1.7974c-.2114-.3524-.4322-.6985-.65-1.0461-.241-.3836-.4844-.7655-.7337-1.1433-.1245-.1888-.24-.3839-.3664-.5712-.1035-.1529-.2161-.2988-.3208-.4507-.2864-.4152-.5806-.8245-.877-1.2322-.2026-.279-.4-.562-.6076-.8375q-.7119-.9445-1.4615-1.8585c-.07-.0856-.1345-.1754-.2048-.2606-.11-.1332-.23-.2571-.3413-.3893q-.8716-1.0373-1.7856-2.0361c-.1167-.1271-.2293-.2582-.347-.3841-.6948-.7431-1.4133-1.4629-2.1445-2.17-.1865-.1806-.3728-.3615-.5618-.54q-1.1019-1.0389-2.2536-2.0244c-.169-.144-.3413-.2838-.5117-.4261-.7654-.6383-1.5433-1.2619-2.34-1.8623-.0557-.042-.1077-.0885-.1636-.13-.0188-.0141-.0388-.0269-.0578-.0411-.68-.5078-1.3743-.9982-2.0762-1.4776-.2212-.1509-.4456-.2969-.6687-.4449q-.7871-.5223-1.5906-1.0207c-.14-.0865-.2739-.1805-.4143-.2659-.092-.056-.1882-.106-.2805-.1616-.6936-.4168-1.3945-.8228-2.1057-1.2121-.054-.0295-.1062-.0614-.16-.0908-.49-.2665-.9929-.5135-1.4922-.7653-.2785-.14-.5517-.29-.8322-.4269-.0843-.0411-.1653-.0873-.25-.1279-.146-.07-.2974-.1317-.4439-.2011q-.8847-.4181-1.7847-.808c-.1477-.064-.2912-.1362-.44-.1991-.09-.0385-.1845-.0708-.2753-.1088-.8123-.3393-1.63-.6672-2.46-.9715s-1.6712-.5852-2.5176-.8536c-.0942-.03-.1858-.0656-.28-.095-.1555-.0486-.3156-.087-.4717-.1343q-.948-.287-1.9089-.5433c-.2549-.068-.509-.1377-.7654-.2024-.8679-.2193-1.7409-.4261-2.6235-.6071a60.5777,60.5777,0,0,0-24.2544,0c-.8826.181-1.7554.3878-2.6235.6071-.2564.0647-.5108.1344-.7659.2025q-.96.2562-1.9077.5431c-.1565.0473-.3167.0858-.4724.1344-.0945.0294-.1861.0651-.28.095-.8464.2684-1.6877.5491-2.5176.8536-.8337.3058-1.656.6352-2.4721.9765-.0867.0363-.1761.0671-.2627.1038-.1705.0722-.3352.1549-.5049.2286q-.8475.3684-1.6814.7614c-.1594.0752-.3235.1417-.482.2182-.123.0594-.2417.1266-.3642.1869-.0232.0113-.0457.0238-.0689.0353q-.8159.4023-1.6171.8293-.1913.1016-.3833.2017c-.1021.053-.2046.1052-.3052.16-.605.3312-1.199.68-1.791,1.0311-.1184.07-.24.1353-.3584.2063l-.0005,0c-.0762.0459-.1555.0871-.2317.1334-.2376.1444-.4656.3021-.7009.45-.4117.2582-.8213.5191-1.2264.7869q-.5445.3609-1.081.7331c-.3325.23-.6609.4666-.9888.7036-.2688.1943-.5452.3783-.81.5769-.0974.0728-.1883.1536-.2852.227-.7148.5417-1.4143,1.1023-2.104,1.6746-.3415.284-.6785.5739-1.0137.8653-.4712.4089-.9338.8273-1.3918,1.25q-.7607.703-1.4964,1.4314-.57.5635-1.1267,1.14c-.3684.3843-.7353.77-1.0937,1.1642q-.71.78-1.3916,1.587c-.1787.21-.37.4095-.5459.6224-.771.9339-1.5015,1.9014-2.2149,2.8824-.05.0683-.1015.1352-.1511.2037h0l-.0012.0015-.001.0016-.0024.0031-.0034.0046-.0005.0007,0,0-.0007.0011-.0027.0037c-.3679.5094-.7409,1.0154-1.0935,1.5366-.7871,1.1642-1.52,2.3667-2.2261,3.5867q-.0768.1337-.1538.2676c-.2129.3718-.4363.7368-.6411,1.1135-.7324,1.3463-1.3994,2.7318-2.0295,4.1372-.0481.1076-.0984.2143-.1458.3222-.1194.27-.25.534-.3652.8062a59.7666,59.7666,0,0,0-2.8421,8.39c-.0549.2131-.0969.431-.1494.645-.0544.2209-.1025.4441-.1545.666q-.3084,1.3182-.5566,2.6587c-.077.4147-.157.8283-.2251,1.2459-.0638.385-.1182.7729-.1744,1.16-.0761.53-.1469,1.0625-.2089,1.5972-.0367.311-.0743.6218-.106.9342-.0869.8638-.1631,1.7309-.2139,2.6048-.0083.1445-.0254.2867-.0327.4316-.01.2052-.0073.4139-.0156.62-.0337.8223-.063,1.6457-.063,2.476V104H328v53.1489a83.4572,83.4572,0,0,0,11.4216,42.21,84.517,84.517,0,0,0,38.2117,34.4082A83.5753,83.5753,0,0,0,430.8062,239,84.0327,84.0327,0,0,0,496,157.1489V104Zm-36-8.175V102H386V75.5273a24.25,24.25,0,0,1,48.5,0Z" class="cls-1"/>
  <path d="M165.7891,68.0479a225.0892,225.0892,0,0,1,22.2124-42.2928A239.8227,239.8227,0,0,0,17.0688,239H134.2153C135.8345,174.6485,146.8965,114.4622,165.7891,68.0479Z" class="cls-2"/>
  <path d="M134.2905,275H17.2915a239.8349,239.8349,0,0,0,170.71,210.2449,225.11,225.11,0,0,1-22.2124-42.2928C147.19,397.2585,136.1733,338.2216,134.2905,275Z" class="cls-1"/>
  <path d="M256,18c-19.3931,0-40.6519,23.7832-56.8672,63.62-17.2109,42.2827-27.3315,97.6605-28.9092,157.38H324.3359A119.5526,119.5526,0,0,1,292,157.1484V42.8059C280.3506,26.8626,267.8291,18,256,18Z" class="cls-2"/>
  <path d="M199.1328,429.38C215.3481,469.2168,236.6069,493,256,493s40.6519-23.7832,56.8672-63.62C329.79,387.8059,339.86,333.573,341.6919,275H170.3081C172.14,333.573,182.21,387.8059,199.1328,429.38Z" class="cls-1"/>
  <path d="M377.71,275c-1.8828,63.2216-12.8994,122.2585-31.4986,167.9521a225.11,225.11,0,0,1-22.2124,42.2928A239.8349,239.8349,0,0,0,494.7085,275Z" class="cls-1"/>
</svg>
