<svg xmlns="http://www.w3.org/2000/svg" id="export" viewBox="0 0 512 512">
  <defs>
    <style>
      .cls-1{fill:#fff}.cls-2{fill:none}.cls-3,.cls-4{fill:currentColor}.cls-4{opacity:.25}
    </style>
  </defs>
  <polygon points="40.09 9.71 40 9.71 46.27 16 46.38 16 40.09 9.71" class="cls-1"/>
  <polygon points="496 467.31 499.44 470.77 500.3 469.92 496 465.62 496 467.31" class="cls-1"/>
  <path d="M466.7,496H467l-.14-.13Z" class="cls-2"/>
  <path d="M16,46.69,17,46l-1-1Z" class="cls-2"/>
  <polygon points="46.27 16 46.38 16 40.09 9.71 40 9.71 46.27 16" class="cls-1"/>
  <path d="M354.07,263h137s-73.92-86.25-96.18-115.93c-23.93-31.91-43-39.89-61.84-39.89h0c-41.87,0-70.71,63.82-70.71,63.82h-.25l26.69,26.69Z" class="cls-3"/>
  <path d="M383.61,292.54,435,343.91c1.11-1.5,2.19-3,3.24-4.55L491.05,263h-137Z" class="cls-4"/>
  <polygon points="354.07 263 491.05 263 354.07 263 354.07 263" class="cls-3"/>
  <polygon points="354.07 263 491.05 263 354.07 263 354.07 263" class="cls-4"/>
  <path d="M234,263H13l39.11,67.07A150.23,150.23,0,0,0,182.1,405h132a149.94,149.94,0,0,0,52.46-9.47l-77.89-77.88Z" class="cls-4"/>
  <polygon points="233.99 263 13 263 13 263 233.99 263 233.99 263" class="cls-3"/>
  <polygon points="233.99 263 13 263 13 263 233.99 263 233.99 263" class="cls-4"/>
  <path d="M417.55,387.16l-64.33-64.32L258.37,228,128.58,98.2,46.38,16H16V45l85.68,85.68,11.11,11.11c-1.35,1.68-2.71,3.42-4.08,5.25C86.43,176.75,13,263,13,263H234l54.64,54.65,95.93,95.92L467,496h29V465.62Z" class="cls-3"/>
</svg>
