<svg xmlns="http://www.w3.org/2000/svg" id="export" viewBox="0 0 512 512">
  <defs>
    <style>
      .cls-2{fill:currentColor}
    </style>
  </defs>
  <path d="M312.1616,62.4124a23.9994,23.9994,0,0,0-16.9394-6.9983H252.5806l179.27,178.6132a48.0015,48.0015,0,0,1,.0625,67.9454L300.2415,433.6443l8.7048,8.7369a24,24,0,0,0,33.9723.0312l123.993-123.9931a72,72,0,0,0-.0934-101.9167Z" class="cls-2" opacity=".25"/>
  <path d="M34.9429,254.2449,222.9741,442.9671a24,24,0,0,0,33.9722.0312L414.9429,285.0017a24,24,0,0,0-.0313-33.9722L226.1893,62.9983A24,24,0,0,0,209.25,56H185.2236l.586-.5859H145.917a32.1447,32.1447,0,0,0-6.09.5859H59.9446a32,32,0,0,0-32,32V237.3055A23.9993,23.9993,0,0,0,34.9429,254.2449ZM126.095,115.8865a36,36,0,1,1-36,36A36,36,0,0,1,126.095,115.8865Z" class="cls-2"/>
</svg>
