<svg xmlns="http://www.w3.org/2000/svg" id="export" viewBox="0 0 512 512">
  <defs>
    <style>
      .cls-1{fill:currentColor}
    </style>
  </defs>
  <rect width="272" height="272" x="120" y="120" class="cls-1"/>
  <g opacity=".25">
    <rect width="48" height="48" x="16" y="16" class="cls-1"/>
    <rect width="48" height="48" x="124" y="16" class="cls-1"/>
    <rect width="48" height="48" x="232" y="16" class="cls-1"/>
    <rect width="48" height="48" x="340" y="16" class="cls-1"/>
    <rect width="48" height="48" x="448" y="16" class="cls-1"/>
    <rect width="48" height="48" x="16" y="124" class="cls-1"/>
    <rect width="48" height="48" x="448" y="124" class="cls-1"/>
    <rect width="48" height="48" x="16" y="232" class="cls-1"/>
    <rect width="48" height="48" x="448" y="232" class="cls-1"/>
    <rect width="48" height="48" x="16" y="340" class="cls-1"/>
    <rect width="48" height="48" x="16" y="448" class="cls-1"/>
    <rect width="48" height="48" x="448" y="340" class="cls-1"/>
    <rect width="48" height="48" x="124" y="448" class="cls-1"/>
    <rect width="48" height="48" x="232" y="448" class="cls-1"/>
    <rect width="48" height="48" x="340" y="448" class="cls-1"/>
    <rect width="48" height="48" x="448" y="448" class="cls-1"/>
  </g>
</svg>
