<svg xmlns="http://www.w3.org/2000/svg" id="export" viewBox="0 0 512 512">
  <defs>
    <style>
      .cls-2{fill:currentColor}
    </style>
  </defs>
  <path fill="currentColor" d="M32,456a24,24,0,0,0,24,24H456a24,24,0,0,0,24-24V122H32Z" opacity=".25"/>
  <path d="M254.92,344.34l-39.86-25.91,17.65-43V225.71A49.71,49.71,0,0,0,183,176h0a49.71,49.71,0,0,0-49.71,49.71v49.72l16.13,44-38.34,24.92A33.13,33.13,0,0,0,96,372.13V408H270V372.13A33.13,33.13,0,0,0,254.92,344.34Z" class="cls-2"/>
  <rect width="136" height="36" x="296" y="174" class="cls-2"/>
  <rect width="136" height="36" x="296" y="238" class="cls-2"/>
  <path d="M480,56a24,24,0,0,0-24-24H56A24,24,0,0,0,32,56V86H480Z" class="cls-2"/>
</svg>
