<svg xmlns="http://www.w3.org/2000/svg" id="export" viewBox="0 0 512 512">
  <defs>
    <style>
      .cls-1{fill:currentColor}
    </style>
  </defs>
  <path d="M71.33,166h81.34l9.71-76.85A50.79,50.79,0,0,0,112,32h0A50.79,50.79,0,0,0,61.62,89.15Z" class="cls-1"/>
  <path d="M128,312a199.5,199.5,0,0,1,31.72-108.15c-.26-.62-.54-1.23-.81-1.85H65.09A307.08,307.08,0,0,0,53.63,416.19L73.6,480h76.8l15.79-50.43A199.26,199.26,0,0,1,128,312Z" class="cls-1"/>
  <circle cx="328" cy="296" r="24" class="cls-1"/>
  <circle cx="336" cy="216" r="24" class="cls-1"/>
  <circle cx="408" cy="264" r="24" class="cls-1"/>
  <path fill="currentColor" d="M494.65,290.6q-.54-4.2-1.27-8.34c-.25-1.38-.51-2.75-.79-4.12q-.84-4.09-1.88-8.13c-.34-1.34-.71-2.67-1.08-4q-1.71-6-3.82-11.77-1.43-3.87-3-7.63a168.06,168.06,0,0,0-9.06-18.23q-2-3.52-4.21-6.93c-1.45-2.27-3-4.51-4.53-6.7q-3.51-5-7.36-9.61c-1.71-2.08-3.48-4.11-5.28-6.1s-3.67-3.93-5.57-5.83-3.84-3.76-5.83-5.57-4-3.57-6.1-5.28q-4.67-3.84-9.61-7.36c-2.19-1.57-4.43-3.08-6.7-4.53s-4.58-2.86-6.93-4.21a168.06,168.06,0,0,0-18.23-9.06q-3.76-1.59-7.63-3Q380,152.07,374,150.37c-1.33-.37-2.66-.74-4-1.08q-4-1-8.13-1.88c-1.37-.28-2.74-.54-4.12-.79q-4.14-.74-8.34-1.27a170.29,170.29,0,0,0-42.8,0q-4.2.54-8.34,1.27c-1.38.25-2.75.51-4.12.79q-4.09.84-8.13,1.88c-1.34.34-2.67.71-4,1.08q-6,1.71-11.77,3.82-3.87,1.42-7.63,3a168.06,168.06,0,0,0-18.23,9.06q-3.52,2-6.93,4.21c-2.27,1.45-4.51,3-6.7,4.53q-5,3.51-9.61,7.36c-2.08,1.71-4.11,3.48-6.1,5.28s-3.93,3.67-5.83,5.57-3.76,3.84-5.57,5.83-3.57,4-5.28,6.1q-3.84,4.67-7.36,9.61c-1.57,2.19-3.08,4.43-4.53,6.7s-2.86,4.58-4.21,6.93A165.9,165.9,0,0,0,173.92,245c-.24.55-.49,1.09-.72,1.64q-1.59,3.76-3,7.63Q168.08,260,166.37,266c-.37,1.33-.74,2.66-1.08,4q-1,4-1.88,8.13c-.28,1.37-.54,2.74-.79,4.12q-.74,4.14-1.27,8.34a170.29,170.29,0,0,0,0,42.8q.54,4.2,1.27,8.34c.25,1.38.51,2.75.79,4.12q.84,4.09,1.88,8.13c.34,1.34.71,2.67,1.08,4q1.71,6,3.82,11.77,1.42,3.87,3,7.63,2.18,5.12,4.66,10.06h0q2.1,4.14,4.4,8.17,2,3.53,4.21,6.93c1.45,2.27,3,4.51,4.53,6.7q3.51,5,7.36,9.61c1.71,2.08,3.48,4.11,5.28,6.1s3.67,3.93,5.57,5.83,3.84,3.76,5.83,5.57,4,3.57,6.1,5.28q4.67,3.84,9.61,7.36c2.19,1.57,4.43,3.08,6.7,4.53s4.58,2.86,6.93,4.21a168.06,168.06,0,0,0,18.23,9.06q3.76,1.59,7.63,3,5.79,2.12,11.77,3.82c1.33.37,2.66.74,4,1.08q4,1,8.13,1.88c1.37.28,2.74.54,4.12.79q4.14.74,8.34,1.27a170.29,170.29,0,0,0,42.8,0q4.2-.54,8.34-1.27c1.38-.25,2.75-.51,4.12-.79q4.09-.84,8.13-1.88c1.34-.34,2.67-.71,4-1.08q6-1.71,11.77-3.82,3.87-1.43,7.63-3a168.06,168.06,0,0,0,18.23-9.06q3.53-2,6.93-4.21c2.27-1.45,4.51-3,6.7-4.53q5-3.51,9.61-7.36c2.08-1.71,4.11-3.48,6.1-5.28s3.93-3.67,5.83-5.57,3.76-3.84,5.57-5.83,3.57-4,5.28-6.1q3.84-4.67,7.36-9.61c1.57-2.19,3.08-4.43,4.53-6.7s2.86-4.58,4.21-6.93a168.06,168.06,0,0,0,9.06-18.23q1.59-3.76,3-7.63,2.12-5.79,3.82-11.77c.37-1.33.74-2.66,1.08-4q1-4,1.88-8.13c.28-1.37.54-2.74.79-4.12q.74-4.14,1.27-8.34a170.29,170.29,0,0,0,0-42.8Z" opacity=".25"/>
</svg>
