<svg xmlns="http://www.w3.org/2000/svg" id="export" viewBox="0 0 512 512">
  <defs>
    <style>
      .cls-1{fill:currentColor}.cls-2{fill:none}
    </style>
  </defs>
  <path d="M337.8667,16H167.4019a42.8161,42.8161,0,0,0-42.7676,42.7676V120h256V58.7676A42.8161,42.8161,0,0,0,337.8667,16Z" class="cls-1"/>
  <path d="M156.6343,152h-32V272h256V152h-224ZM210,232H168V190h42Zm126,0H294V190h42Z" class="cls-1"/>
  <polygon points="343.937 366 168.063 366 145.154 402 366.846 402 343.937 366" class="cls-2"/>
  <polygon points="122.245 438 99.336 474 412.664 474 389.755 438 122.245 438" class="cls-2"/>
  <path fill="currentColor" d="M455.3359,454l-22.9091-36H464V382H409.5176l-22.9092-36H416V310H363.6992l-24.1817-38H296.8459l24.1819,38H190.9722l24.1819-38H172.4825l-24.1817,38H96v36h29.3916l-22.9092,36H48v36H79.5732l-22.909,36H16v36H496V454ZM168.0632,346H343.9368l22.9091,36H145.1541ZM99.3359,454l22.9091-36h267.51l22.9092,36Z" opacity=".25"/>
</svg>
