<svg xmlns="http://www.w3.org/2000/svg" id="export" viewBox="0 0 512 512">
  <defs>
    <style>
      .cls-1{fill:currentColor}
    </style>
  </defs>
  <path d="M475.6563,223.1416,422.8108,215H16V366.2549H56a80,80,0,0,1,160,0h72a80,80,0,0,1,160,0h48V246.8623A23.873,23.873,0,0,0,475.6563,223.1416Z" class="cls-1"/>
  <path fill="currentColor" d="M373.4487,183l-42.687-87.0684-.3911-.6386a32.24,32.24,0,0,0-27.5474-15.291L72.2671,81.8389a32.0145,32.0145,0,0,0-30.0689,21.7734L16,183Z" opacity=".25"/>
  <circle cx="136" cy="366.255" r="48" class="cls-1"/>
  <circle cx="368" cy="366.255" r="48" class="cls-1"/>
</svg>
