<svg xmlns="http://www.w3.org/2000/svg" id="export" viewBox="0 0 512 512">
  <defs>
    <style>
      .cls-1{fill:currentColor}
    </style>
  </defs>
  <rect width="68.352" height="35.999" x="253.824" y="178.027" class="cls-1" transform="rotate(-20.556 288 196.027)"/>
  <rect width="36" height="62.482" x="230" y="316.785" class="cls-1" transform="rotate(-50.194 248 348.027)"/>
  <path d="M223.5762,231.4866a27.7308,27.7308,0,1,0-22.5074,32.1157A27.7309,27.7309,0,0,0,223.5762,231.4866Z" class="cls-1"/>
  <circle cx="307.735" cy="283.762" r="27.731" class="cls-1" transform="rotate(-40.627 307.735 283.762)"/>
  <path d="M261.47,88.791c-70.8369,0-134.1562,30.3135-175.0361,55.9619l19.1328,30.4951c36.8565-23.124,93.6055-50.457,155.8965-50.457.91,0,1.8242.0059,2.7373.0176,51.89.6709,99.4941,16.6113,149.8135,50.167l19.9726-29.9512c-56.3642-37.5869-110.167-55.4482-169.3213-56.2119C263.5957,88.7979,262.5371,88.791,261.47,88.791Z" class="cls-1"/>
  <path fill="currentColor" d="M471.06,101.9424c-74.2325-49.502-144.49-74.0069-214.7881-74.9141C254.834,27.01,253.4043,27,251.9668,27c-69.6846,0-138.4609,21.8838-210.084,66.8193a36.8176,36.8176,0,0,0-12.2265,50.0684L224.2412,475.4053a36.681,36.681,0,0,0,31.7315,18.27h.1855a36.6762,36.6762,0,0,0,31.72-17.9639L482.2471,151.7637A36.9556,36.9556,0,0,0,471.06,101.9424ZM212.4766,341.8545l23.0468-27.6563,48,40-23.0468,27.6563Zm-43.5235-100.76a27.7308,27.7308,0,1,1,32.1157,22.5076A27.7307,27.7307,0,0,1,168.9531,241.0947ZM262.32,224.88,249.68,191.1729l64-24L326.32,200.88Zm72.7266,54.0776A27.7309,27.7309,0,1,1,302.9312,256.45,27.7308,27.7308,0,0,1,335.0469,278.9575Zm78.9668-103.9819C363.6943,141.42,316.09,125.48,264.2,124.8086c-.9131-.0117-1.8272-.0176-2.7373-.0176-62.291,0-119.04,27.333-155.8965,50.457L86.4336,144.7529C127.3135,119.1045,190.6328,88.791,261.47,88.791c1.0674,0,2.126.0069,3.1953.0215,59.1543.7637,112.9571,18.625,169.3213,56.2119Z" opacity=".25"/>
</svg>
