<svg xmlns="http://www.w3.org/2000/svg" id="export" viewBox="0 0 512 512">
  <defs>
    <style>
      .cls-1,.cls-2{fill:currentColor}.cls-2{opacity:.25}
    </style>
  </defs>
  <circle cx="336" cy="64" r="48" class="cls-1"/>
  <polygon points="95.18 400 169.29 400 253.4 328.51 220 293.9 95.18 400" class="cls-1"/>
  <polygon points="268.11 232 300 188.82 300 263.6 372 329.64 372 139.31 276.89 139.31 243.89 184 172.34 184 218.64 232 268.11 232" class="cls-1"/>
  <polygon points="384 368 340.53 358.34 218.64 232 172.34 184 135.11 145.42 104.89 174.58 220 293.9 253.4 328.51 310.05 387.24 320 432 392 504 456 440 384 368" class="cls-2"/>
  <polygon points="95.18 400 32 400 32 448 290.77 448 280.11 400 169.29 400 95.18 400" class="cls-2"/>
</svg>
