<svg xmlns="http://www.w3.org/2000/svg" id="export" viewBox="0 0 512 512">
  <defs>
    <style>
      .cls-1{fill:currentColor}
    </style>
  </defs>
  <path d="M219.2051,298h73.5917l13.3247,38H344.27L281.8545,158H230.147L167.7318,336h38.1487Zm36.4673-104h.6567l23.8442,68H231.8284Z" class="cls-1"/>
  <g opacity=".25">
    <path d="M415.0254,318.981,499,256l-83.87-62.9028-2.148-5.0108L427.8267,84.1733,324.043,98.999l-5.062-2.0244L256,13,193.0972,96.87l-5.0108,2.148L84.1733,84.1733,98.999,187.957l-2.0244,5.062L13,256l83.87,62.9028,2.148,5.0108L84.1733,427.8267,187.957,413.001l5.062,2.0244L256,499l62.9028-83.87,5.0108-2.148,103.9131,14.8448L413.001,324.043ZM306.1215,336l-13.3247-38H219.2051l-13.3246,38H167.7318L230.147,158h51.7075L344.27,336Z" class="cls-1"/>
    <polygon points="255.672 194 231.828 262 280.173 262 256.329 194 255.672 194" class="cls-1"/>
  </g>
</svg>
