<svg xmlns="http://www.w3.org/2000/svg" id="export" viewBox="0 0 512 512">
  <defs>
    <style>
      .cls-2{fill:currentColor;opacity:.25}
    </style>
  </defs>
  <polygon fill="currentColor" points="152 136 16 136 16 376 152 376 256 496 288 496 288 464 288 416 288 96 288 48 288 16 256 16 152 136"/>
  <path d="M408,256a96.12,96.12,0,0,0-88-95.66v48.34a48,48,0,0,1,0,94.64v48.34A96.12,96.12,0,0,0,408,256Z" class="cls-2"/>
  <path d="M320,50.46V99.22C392.94,114.08,448,178.73,448,256S392.94,397.92,320,412.78v48.76C419.55,446.1,496,359.81,496,256S419.55,65.9,320,50.46Z" class="cls-2"/>
</svg>
