<svg xmlns="http://www.w3.org/2000/svg" id="export" viewBox="0 0 512 512">
  <defs>
    <style>
      .cls-1,.cls-2{fill:currentColor}.cls-1{opacity:.25}
    </style>
  </defs>
  <path d="M283.4878,480h.5L426.5491,276.4011c-.18.02-.36.0391-.5408.0584Z" class="cls-1"/>
  <path d="M412.3,277.145C346.0374,276.6455,293,221.811,293,155.5459V39.7024q-18.428-1.5531-37-1.5745A439.8435,439.8435,0,0,0,8,114.7007V165.79l35.87,51.2273L228.0122,480h55.4756L426.0083,276.46A120.43,120.43,0,0,1,412.3,277.145Z" class="cls-1"/>
  <path d="M472,75.5273a60.3186,60.3186,0,0,0-60.25-60.25h-.5A60.3187,60.3187,0,0,0,351,75.5273V104H329v53.1484a84.0912,84.0912,0,0,0,87.111,83.9434C461.4417,239.4463,497,201.4678,497,156.1069V104H472ZM436,102H387V75.5273A24.4816,24.4816,0,0,1,416.9037,51.853C427.4592,54.1,436,65.1943,436,75.9866Z" class="cls-2"/>
  <path d="M412.3,277.145C346.0374,276.6455,293,221.811,293,155.5459V144.0183A340.8647,340.8647,0,0,0,256,142,336.4016,336.4016,0,0,0,43.87,217.0171L228.0122,480h55.4756L426.0083,276.46A120.43,120.43,0,0,1,412.3,277.145Z" class="cls-2"/>
</svg>
