<svg xmlns="http://www.w3.org/2000/svg" id="export" viewBox="0 0 512 512">
  <defs>
    <style>
      .cls-1,.cls-2{fill:currentColor}.cls-2{opacity:.25}
    </style>
  </defs>
  <path d="M236.4165,166.1425v-41.569l-97.1894,56.112a26.0734,26.0734,0,0,0-12.9991,22.5162V313.6759l36-20.3478,74.1885-41.9326Z" class="cls-1"/>
  <path d="M268.4165,125.0566v126.38l73.3521,41.46,36,20.3478V203.2017a26.0735,26.0735,0,0,0-13-22.5166Z" class="cls-1"/>
  <path d="M251.9985,401.9976a25.9906,25.9906,0,0,0,12.9995-3.4722l98.2553-56.7275-36.3822-20.564L252.38,279.13l-74.8767,42.3219-36.3821,20.5638,97.8769,56.51A25.999,25.999,0,0,0,251.9985,401.9976Z" class="cls-1"/>
  <path d="M255.9873,460.431V416L144.3079,496H255.3208v.44c133.8042,0,242.6616-108.2647,242.6616-241.34h-36C461.9824,368.1028,369.6349,460.0718,255.9873,460.431Z" class="cls-2"/>
  <path d="M256,52.7217V96L368,16H256v.7214A239.3082,239.3082,0,0,0,17.4136,256.0352h36C53.4136,144.1685,144.2256,53.1208,256,52.7217Z" class="cls-2"/>
</svg>
