<svg xmlns="http://www.w3.org/2000/svg" id="export" viewBox="0 0 512 512">
  <defs>
    <style>
      .cls-2{fill:currentColor}
    </style>
  </defs>
  <path fill="currentColor" d="M472,138H40a24,24,0,0,0-24,24V456a24.0275,24.0275,0,0,0,24,24H472a24.0275,24.0275,0,0,0,24-24V162A24,24,0,0,0,472,138Z" opacity=".25"/>
  <path d="M392,97.5483a79.9476,79.9476,0,0,0-136-57.059A79.975,79.975,0,1,0,195.3123,177.4l-23.6429,50.1H224.746l23.5728-49.9517H263.478L287.0509,227.5h53.0765l-23.6357-50.085A80.096,80.096,0,0,0,392,97.5483Zm-192,32a32,32,0,1,1,32-32v31.8985H217.9419l-.0479.1015Zm112,0H293.9028l-.0478-.1015H280V97.5483a32,32,0,1,1,32,32Z" class="cls-2"/>
  <rect width="480" height="64" x="16" y="328" class="cls-2"/>
</svg>
