<svg xmlns="http://www.w3.org/2000/svg" viewBox="0 0 512 512">
  <path fill="currentColor" d="M123.86,128.71l-26.74,27c-38,38-58.25,88.83-57.07,143.14C41.2,352.27,62.89,402.75,101.1,441L135,407A158.84,158.84,0,0,1,88,297.79c-.89-41.11,14.4-79.54,43.07-108.2l25.78-26L214.14,224V72h-144Z"/>
  <path fill="currentColor" d="M414.89,340.3c38-38,58.24-88.83,57.06-143.13C470.8,143.73,449.11,93.25,410.9,55L377,89c61,61,62.8,158.58,3.93,217.44l-25.78,26L297.86,272V424h144l-53.72-56.71Z" opacity=".25"/>
</svg>
