<svg xmlns="http://www.w3.org/2000/svg" id="export" viewBox="0 0 512 512">
  <defs>
    <style>
      .cls-2{fill:currentColor}
    </style>
  </defs>
  <polygon points="65.848 385.724 16.156 438.278 16.262 479.653 124.073 479.935 142.086 461.922 65.848 385.724" class="cls-2" opacity=".25"/>
  <path d="M493.7988,114.9018,400.2852,20.1894a33.7561,33.7561,0,0,0-24.1973-10.1137h-.0264a33.7588,33.7588,0,0,0-24.209,10.1494L86.0791,290.2143a34.0946,34.0946,0,0,0,.1875,47.8941L99.79,351.6323,65.8493,385.7234l76.2363,76.1988,33.9974-33.9969,11.2588,11.2583a33.7048,33.7048,0,0,0,24.0215,9.958c.1963,0,.3945-.0015.5918-.0049A33.7214,33.7214,0,0,0,236.2207,438.36L494.499,162.0742A33.9589,33.9589,0,0,0,493.7988,114.9018Z" class="cls-2"/>
</svg>
