<svg xmlns="http://www.w3.org/2000/svg" id="export" viewBox="0 0 512 512">
  <defs>
    <style>
      .cls-1{fill:currentColor}
    </style>
  </defs>
  <polygon points="456 166 456 160 328 32 322 32 322 166 456 166" class="cls-1"/>
  <polygon fill="currentColor" points="286 202 286 32 225 32 208 32 168 32 80 32 64 32 64 480 456 480 456 202 286 202" opacity=".25"/>
  <polygon points="208 384 200 280 136 280 128 384 128 400 208 400 208 384" class="cls-1"/>
  <rect width="40" height="40" x="168" y="192" class="cls-1"/>
  <rect width="40" height="40" x="168" y="32" class="cls-1"/>
  <rect width="40" height="40" x="168" y="112" class="cls-1"/>
  <rect width="40" height="40" x="128" y="152" class="cls-1"/>
  <rect width="40" height="40" x="128" y="72" class="cls-1"/>
</svg>
