<svg xmlns="http://www.w3.org/2000/svg" id="export" viewBox="0 0 512 512">
  <defs>
    <style>
      .cls-1{fill:currentColor}
    </style>
  </defs>
  <circle cx="88" cy="96" r="64" class="cls-1"/>
  <circle cx="256" cy="96" r="64" class="cls-1"/>
  <circle cx="424" cy="96" r="64" class="cls-1"/>
  <circle cx="88" cy="256" r="64" class="cls-1"/>
  <circle cx="256" cy="256" r="64" class="cls-1"/>
  <circle cx="424" cy="256" r="64" class="cls-1"/>
  <circle cx="424" cy="416" r="64" class="cls-1"/>
  <g opacity=".25">
    <path d="M64,392h0a32,32,0,0,0-32,32h0a32,32,0,0,0,32,32h0a32,32,0,0,0,32-32h0A32,32,0,0,0,64,392Z" class="cls-1"/>
    <path d="M160,392h0a32,32,0,0,0-32,32h0a32,32,0,0,0,32,32h0a32,32,0,0,0,32-32h0A32,32,0,0,0,160,392Z" class="cls-1"/>
    <path d="M256,392h0a32,32,0,0,0-32,32h0a32,32,0,0,0,32,32h0a32,32,0,0,0,32-32h0A32,32,0,0,0,256,392Z" class="cls-1"/>
  </g>
</svg>
