<svg xmlns="http://www.w3.org/2000/svg" viewBox="0 0 512 512">
  <path fill="currentColor" d="M364.564,256.2666l-7.2193,7.22-9.935,2.3543L273.4219,283.374l-.7647.1812-.7724.1479A37.2519,37.2519,0,0,1,228.3,240.0969l.1465-.7627.1792-.7558L246.1592,164.59l2.3545-9.9348,7.2192-7.22L371.1689,32H56A24,24,0,0,0,32,56V328a24,24,0,0,0,24,24H388.7666l69.522,128H480V140.8311Z" opacity=".25"/>
  <path fill="currentColor" d="M281.189,172.8916,263.6558,246.88a1.2539,1.2539,0,0,0-.02.3059c.0015.0325.01.0628.0147.0948a1.25,1.25,0,0,0,.0366.1924c.0107.0363.0273.07.0415.1049a1.2578,1.2578,0,0,0,.0718.1558c.02.0347.0434.0659.0664.0986a1.2977,1.2977,0,0,0,.1011.128,1.1823,1.1823,0,0,0,.0869.0835,1.26,1.26,0,0,0,.1264.1c.0337.0229.0679.0444.1036.0642a1.2679,1.2679,0,0,0,.1479.0681,1.1909,1.1909,0,0,0,.1157.0408,1.2413,1.2413,0,0,0,.1675.0319c.0405.0054.08.0122.1216.0137.0146,0,.0283.0049.043.0049a1.2826,1.2826,0,0,0,.24-.023l58.7749-13.9282,15.2129-3.6052h0l128.606-128.6057a40.769,40.769,0,0,0,11.6015-23.3145,41.024,41.024,0,0,0-1.9023-19.1938,40.9547,40.9547,0,0,0-67.6187-15.4109L377.6436,76.4373Z"/>
</svg>
