<svg xmlns="http://www.w3.org/2000/svg" id="export" viewBox="0 0 512 512">
  <defs>
    <style>
      .cls-2{fill:currentColor}
    </style>
  </defs>
  <path fill="currentColor" d="M459.0375,128A240.012,240.012,0,1,0,496,256,239.8152,239.8152,0,0,0,459.0375,128Z" opacity=".25"/>
  <polygon points="344 152.569 284.477 202.172 307.523 229.828 344 199.431 380.477 229.828 403.523 202.172 344 152.569" class="cls-2"/>
  <polygon points="204.477 229.828 227.523 202.172 168 152.569 108.477 202.172 131.523 229.828 168 199.431 204.477 229.828" class="cls-2"/>
  <path d="M256,400A104,104,0,0,0,360,296H152A104,104,0,0,0,256,400Z" class="cls-2"/>
</svg>
