<svg xmlns="http://www.w3.org/2000/svg" viewBox="0 0 512 512">
  <g fill="currentColor">
    <path d="M418.857,333.1428A162.9253,162.9253,0,0,0,263.1942,448H248.8058A162.9253,162.9253,0,0,0,93.143,333.1428H16v0A162.857,162.857,0,0,0,178.857,496H333.143A162.8571,162.8571,0,0,0,496,333.1429H418.857Z" opacity=".25"/>
    <path d="M169.2271,262.7729a87.3576,87.3576,0,0,0,24.5473,47.4527l4.6865,4.686h6.6275A87.3537,87.3537,0,0,0,256,298.7158a87.3559,87.3559,0,0,0,50.9116,16.1958h6.6275l4.6865-4.686a87.3576,87.3576,0,0,0,24.5473-47.4527,87.3576,87.3576,0,0,0,47.4527-24.5473l4.686-4.6865v-6.6275A87.3537,87.3537,0,0,0,378.7158,176a87.3559,87.3559,0,0,0,16.1958-50.9116v-6.6275l-4.686-4.6865a87.3576,87.3576,0,0,0-47.4527-24.5473,87.3576,87.3576,0,0,0-24.5473-47.4527l-4.6865-4.686h-6.6275A87.3559,87.3559,0,0,0,256,53.2842a87.3537,87.3537,0,0,0-50.9116-16.1958h-6.6275l-4.6865,4.686a87.3576,87.3576,0,0,0-24.5473,47.4527,87.3576,87.3576,0,0,0-47.4527,24.5473l-4.686,4.6865v6.6275A87.3559,87.3559,0,0,0,133.2842,176a87.3537,87.3537,0,0,0-16.1958,50.9116v6.6275l4.686,4.6865A87.3576,87.3576,0,0,0,169.2271,262.7729ZM256,128a48,48,0,1,1-48,48A48,48,0,0,1,256,128Z"/>
  </g>
</svg>
