<svg xmlns="http://www.w3.org/2000/svg" id="export" viewBox="0 0 512 512">
  <defs>
    <style>
      .cls-2{fill:currentColor}
    </style>
  </defs>
  <path fill="currentColor" d="M342.3,32A240.7382,240.7382,0,0,0,169.7,32C79.794,66.6612,16,153.8745,16,256a240,240,0,1,0,480,0C496,153.8745,432.206,66.6612,342.3,32Z" opacity=".25"/>
  <path d="M234,306.9482a3.05,3.05,0,0,1,.1177-.8383L266,194.521V168H230v21.479L199.5029,296.2183A39.0521,39.0521,0,0,0,237.0518,346H296V310H237.0518A3.0553,3.0553,0,0,1,234,306.9482Z" class="cls-2"/>
  <rect width="48" height="48" x="328" y="176" class="cls-2"/>
  <rect width="48" height="48" x="120" y="176" class="cls-2"/>
</svg>
