<svg xmlns="http://www.w3.org/2000/svg" id="export" viewBox="0 0 512 512">
  <defs>
    <style>
      .cls-1{fill:currentColor}.cls-3{fill:none}
    </style>
  </defs>
  <path d="M360,107a84.8035,84.8035,0,0,0-63.9275,29.0725l29.8048,29.8049a42.9333,42.9333,0,0,1,68.2454,0l29.8048-29.8049A84.8035,84.8035,0,0,0,360,107Z" class="cls-1"/>
  <path d="M360,85a106.7527,106.7527,0,0,1,79.5166,35.4834l29.7105-29.71a148.7539,148.7539,0,0,0-218.4542,0l29.7105,29.71A106.7527,106.7527,0,0,1,360,85Z" class="cls-1"/>
  <path fill="currentColor" d="M488,280H384V192H336v88H24a8,8,0,0,0-8,8V432a8,8,0,0,0,8,8H488a8,8,0,0,0,8-8V288A8,8,0,0,0,488,280Z" opacity=".25"/>
  <rect width="36" height="36" x="152" y="342" class="cls-3"/>
  <rect width="36" height="36" x="80" y="342" class="cls-3"/>
  <rect width="36" height="36" x="224" y="342" class="cls-3"/>
  <rect width="36" height="36" x="224" y="342" class="cls-1"/>
  <rect width="36" height="36" x="80" y="342" class="cls-1"/>
  <rect width="36" height="36" x="152" y="342" class="cls-1"/>
</svg>
