<svg xmlns="http://www.w3.org/2000/svg" id="export" viewBox="0 0 512 512">
  <defs>
    <style>
      .cls-2{fill:currentColor}
    </style>
  </defs>
  <path fill="none" d="M259,64.05a80.08,80.08,0,0,0-83,80v56h160V145C336.05,101.79,302.18,65.62,259,64.05Z"/>
  <path d="M176.05,144a80.08,80.08,0,0,1,83-79.95c43.17,1.57,77,37.74,77,80.94v55h48V145.37C384.05,75.9,329.22,18,259.77,16.05,187.5,14,128.05,72.18,128.05,144v56h48Z" class="cls-2"/>
  <path fill="currentColor" d="M384.05,200h-304V320a176,176,0,0,0,176,176h0a176,176,0,0,0,176-176V200Z" opacity=".25"/>
  <rect width="48" height="96" x="232" y="280" class="cls-2"/>
</svg>
