<svg xmlns="http://www.w3.org/2000/svg" id="export" viewBox="0 0 512 512">
  <defs>
    <style>
      .cls-2{fill:currentColor}
    </style>
  </defs>
  <path fill="currentColor" d="M455.9976,32.0107l-400-.0214a24,24,0,0,0-24.0013,23.999l-.0217,400a24.0006,24.0006,0,0,0,23.9988,24.001l400,.0214a24,24,0,0,0,24.0012-23.999l.0217-400A24,24,0,0,0,455.9976,32.0107Z" opacity=".25"/>
  <polygon points="143.971 410.971 298.941 256 143.971 101.029 110.029 134.971 231.059 256 110.029 377.029 143.971 410.971" class="cls-2"/>
  <polygon points="230.029 377.029 263.971 410.971 418.941 256 263.971 101.029 230.029 134.971 351.059 256 230.029 377.029" class="cls-2"/>
</svg>
