<svg xmlns="http://www.w3.org/2000/svg" id="export" viewBox="0 0 512 512">
  <defs>
    <style>
      .cls-2{fill:currentColor}
    </style>
  </defs>
  <polygon fill="currentColor" points="97.529 40 97.196 40 97.196 40.333 16.089 121.44 16.089 128 97.196 128 97.196 496 145.196 496 145.196 128 226 128 226 120.471 121.529 16 97.529 40" opacity=".25"/>
  <polygon points="423 329.456 423 279 274 279 274 321 370.259 321 269 414.544 269 465 426 465 426 423 321.741 423 423 329.456" class="cls-2"/>
  <path d="M318.4692,193h63.0616l11.6667,35h44.2717L377.1357,47H322.8643L262.5308,228h44.2717ZM350,98.4077,367.5308,151H332.4692Z" class="cls-2"/>
</svg>
