<svg xmlns="http://www.w3.org/2000/svg" id="export" viewBox="0 0 512 512">
  <defs>
    <style>
      .cls-1{fill:currentColor}
    </style>
  </defs>
  <polygon points="442.578 472 418.578 448 250.26 279.682 233.289 262.711 216.318 245.74 16 446.059 16 496 448 496 466.578 496 442.578 472" class="cls-1"/>
  <polygon fill="currentColor" points="45.709 16 16 16 16 45.422 216.318 245.74 233.289 262.711 250.26 279.682 418.578 448 442.578 472 466.578 496 496 496 496 466.457 45.709 16" opacity=".25"/>
  <polygon points="446.059 16 271.485 190.574 288.467 207.533 305.449 224.493 316.568 235.597 316.568 235.597 448 367.029 472 391.029 496 415.029 496 16 446.059 16" class="cls-1"/>
</svg>
