<svg xmlns="http://www.w3.org/2000/svg" id="export" viewBox="0 0 512 512">
  <defs>
    <style>
      .cls-1{fill:currentColor}
    </style>
  </defs>
  <path d="M49.3,464.65C99.68,491.91,161,498,222.49,484.19L29.77,291.47C15.92,352.92,22,414.28,49.3,464.65Z" class="cls-1"/>
  <path d="M467,47C417.55,20.23,357.55,13.82,297.26,26.67l191.1,184.74C499.74,152.91,492.94,95,467,47Z" class="cls-1"/>
  <path fill="currentColor" d="M251,40C206.24,57,162.82,84.56,125,122.36c-37,37-64.29,79.49-81.33,123.29L268,469.9c43.8-17,86.25-44.28,123.3-81.33,39.33-39.33,67.62-84.75,84.37-131.41Z" opacity=".25"/>
  <polygon points="212.73 324.73 240 297.46 267.27 324.73 292.73 299.27 265.46 272 288 249.46 315.27 276.73 340.73 251.27 313.46 224 340.73 196.73 315.27 171.27 288 198.54 260.73 171.27 235.27 196.73 262.54 224 240 246.54 212.73 219.27 187.27 244.73 214.54 272 187.27 299.27 212.73 324.73" class="cls-1"/>
</svg>
