<svg xmlns="http://www.w3.org/2000/svg" id="export" viewBox="0 0 512 512">
  <defs>
    <style>
      .cls-2{fill:currentColor;opacity:.25}
    </style>
  </defs>
  <path fill="currentColor" d="M135.8448,477.4712a8.633,8.633,0,0,0,8.0458,2.3076l73.0349-24.8232L199.6594,334.0933,139.2282,325.46h0a97.6717,97.6717,0,0,1,0-138.1284h0l60.4312-8.6331L216.9255,57.8364,143.8906,33.0132a8.633,8.633,0,0,0-8.0458,2.3076L121.0629,50.1025C7.13,164.0354,7.13,348.7566,121.0629,462.69Z"/>
  <path d="M254.3408,159.9009l-2.8183,31.876q2.5063.2211,4.9736.22a56.0014,56.0014,0,0,0,4.89-111.7852l-2.8183,31.876a24,24,0,1,1-4.2266,47.8135Z" class="cls-2"/>
  <path d="M245.8994,255.3774q5.3643.474,10.6436.4707A119.8516,119.8516,0,0,0,267.0088,16.6108L264.19,48.4868a87.8487,87.8487,0,1,1-15.4726,175.0147Z" class="cls-2"/>
</svg>
