<svg xmlns="http://www.w3.org/2000/svg" viewBox="0 0 512 512">
  <g fill="currentColor">
    <path d="M48,272V399.4546a32.0361,32.0361,0,0,0,32,32H96V478.001a18.02,18.02,0,0,0,18,18h68a18.02,18.02,0,0,0,18-18V431.4546H312V478.001a18.02,18.02,0,0,0,18,18h68a18.02,18.02,0,0,0,18-18V431.4546h16a32.0361,32.0361,0,0,0,32-32V272Zm312,40a32,32,0,1,1-32,32A32,32,0,0,1,360,312Zm-216,0a32,32,0,1,1-32,32A32,32,0,0,1,144,312Z"/>
    <path d="M416,16H96A48.0543,48.0543,0,0,0,48,64V240H464V64A48.0543,48.0543,0,0,0,416,16Z" opacity=".25"/>
  </g>
</svg>
