<svg xmlns="http://www.w3.org/2000/svg" id="export" viewBox="0 0 512 512">
  <defs>
    <style>
      .cls-2{fill:currentColor}
    </style>
  </defs>
  <path fill="currentColor" d="M342.3,32A240.7382,240.7382,0,0,0,169.7,32C79.794,66.6612,16,153.8745,16,256a240,240,0,1,0,480,0C496,153.8745,432.206,66.6612,342.3,32Z" opacity=".25"/>
  <rect width="48" height="48" x="144" y="176" class="cls-2"/>
  <path d="M256,282a98.1107,98.1107,0,0,0-98,98h36a62,62,0,0,1,124,0h36A98.1107,98.1107,0,0,0,256,282Z" class="cls-2"/>
  <rect width="48" height="48" x="320" y="176" class="cls-2"/>
</svg>
