<svg xmlns="http://www.w3.org/2000/svg" id="export" viewBox="0 0 512 512">
  <defs>
    <style>
      .cls-2{fill:currentColor}
    </style>
  </defs>
  <polygon fill="currentColor" points="496 280 496 232 280 232 280 176 232 176 232 232 16 232 16 280 96 280 96 336 144 336 144 280 368 280 368 336 416 336 416 280 496 280" opacity=".25"/>
  <path d="M336,168V24a8,8,0,0,0-8-8H184a8,8,0,0,0-8,8V168a8,8,0,0,0,8,8H328A8,8,0,0,0,336,168Z" class="cls-2"/>
  <path d="M192,336H48a8,8,0,0,0-8,8V488a8,8,0,0,0,8,8H192a8,8,0,0,0,8-8V344A8,8,0,0,0,192,336Z" class="cls-2"/>
  <path d="M464,336H320a8,8,0,0,0-8,8V488a8,8,0,0,0,8,8H464a8,8,0,0,0,8-8V344A8,8,0,0,0,464,336Z" class="cls-2"/>
</svg>
