<svg xmlns="http://www.w3.org/2000/svg" id="export" viewBox="0 0 512 512">
  <defs>
    <style>
      .cls-2{fill:currentColor}
    </style>
  </defs>
  <path fill="currentColor" d="M463.79,135.89a238.29,238.29,0,0,0-136.19-109c-3.17-1-6.35-1.92-9.57-2.78a238.34,238.34,0,0,0-133.61,2.66A242.9,242.9,0,0,0,79,93.66,239.6,239.6,0,0,0,48.15,376a243,243,0,0,0,25,35.49,238.07,238.07,0,0,0,114,74.36c2.26.67,4.53,1.33,6.82,1.94a238.18,238.18,0,0,0,149-8.1A243.69,243.69,0,0,0,376,463.75a238.53,238.53,0,0,0,87.53-87.16A241.18,241.18,0,0,0,487.8,318,238.44,238.44,0,0,0,463.79,135.89Z" opacity=".25"/>
  <path d="M355.32,367.43,445.53,356l16.27,23.33c-1.71,2.84-3.46,5.66-5.29,8.45A238.47,238.47,0,0,1,355,474.66l-21.39-18.94Z" class="cls-2"/>
  <path d="M399.28,213.94l70.48,57.46,26.16-11.18c.06-3.31.06-6.63,0-10a238.37,238.37,0,0,0-40.15-127.47l-28.17,4.73Z" class="cls-2"/>
  <polygon points="256 168.62 170.5 230.73 203.16 331.25 308.84 331.25 341.5 230.73 256 168.62" class="cls-2"/>
  <path d="M256,106.6l75-51.47L327.6,26.88c-3.17-1-6.35-1.92-9.57-2.78a238.34,238.34,0,0,0-133.61,2.66L181,55.13Z" class="cls-2"/>
  <path d="M112.66,213.94,42.18,271.4,16,260.22c0-3.31-.06-6.63,0-10A238.37,238.37,0,0,1,56.19,122.79l28.18,4.73Z" class="cls-2"/>
  <path d="M156.63,367.43,66.41,356,50.14,379.33c1.71,2.84,3.46,5.66,5.29,8.45A238.47,238.47,0,0,0,157,474.66l21.39-18.94Z" class="cls-2"/>
</svg>
