<svg xmlns="http://www.w3.org/2000/svg" viewBox="0 0 512 512">
  <rect width="480" height="48" x="16" y="448" fill="currentColor" opacity=".25"/>
  <path fill="currentColor" d="M475.1455,324.2637c-11.9316-21.145-29.8389-38.3994-50.4219-48.584l-.8447-.4185-67.7324-24.0918L278.9385,61.8716A47.8218,47.8218,0,0,0,234.4922,32H174.7041L203.915,203.32l-53.831-15.8672-2.1748-48.2148A48.0636,48.0636,0,0,0,117.5986,96.76L73.6963,79.41l-52.86,173.1167L439.4883,394.7358a50.6043,50.6043,0,0,0,17.09,3.2837c14.5518,0,23.7022-8.3037,27.792-17.8794C490.4785,365.8428,487.1162,345.4771,475.1455,324.2637Z"/>
</svg>
