<svg xmlns="http://www.w3.org/2000/svg" id="export" viewBox="0 0 512 512">
  <defs>
    <style>
      .cls-2{fill:currentColor}
    </style>
  </defs>
  <rect width="448" height="448" x="32" y="32" fill="currentColor" opacity=".25" rx="24"/>
  <rect width="32" height="32" x="128" y="240" class="cls-2"/>
  <rect width="32" height="32" x="352" y="240" class="cls-2"/>
  <rect width="32" height="32" x="240" y="184" class="cls-2"/>
  <rect width="32" height="32" x="240" y="240" class="cls-2"/>
  <rect width="32" height="32" x="240" y="128" class="cls-2"/>
  <rect width="32" height="32" x="240" y="296" class="cls-2"/>
  <rect width="32" height="32" x="240" y="352" class="cls-2"/>
  <path d="M424,72H88A16,16,0,0,0,72,88V424a16,16,0,0,0,16,16H424a16,16,0,0,0,16-16V88A16,16,0,0,0,424,72ZM408,240V408H104V104H408Z" class="cls-2"/>
  <rect width="32" height="32" x="184" y="240" class="cls-2"/>
  <rect width="32" height="32" x="296" y="240" class="cls-2"/>
</svg>
