<svg xmlns="http://www.w3.org/2000/svg" id="export" viewBox="0 0 512 512">
  <defs>
    <style>
      .cls-1{fill:none}.cls-2{fill:#fff}.cls-4{fill:currentColor}
    </style>
  </defs>
  <path d="M466.7,496H467l-.14-.13Z" class="cls-1"/>
  <path d="M16,46.69,17,46l-1-1Z" class="cls-1"/>
  <polygon points="46.27 16 46.38 16 40.09 9.71 40 9.71 46.27 16" class="cls-2"/>
  <path d="M237.6,431.06l41.67,41.67,25.46-25.46L287,429.5A202,202,0,0,1,256,431.91Q246.79,431.91,237.6,431.06Z" class="cls-2"/>
  <polygon points="40.09 9.71 40 9.71 46.27 16 46.38 16 40.09 9.71" class="cls-2"/>
  <polygon points="496 467.31 499.44 470.77 500.3 469.92 496 465.62 496 467.31" class="cls-2"/>
  <path d="M397.22,123.1l-.22-.22C334.51,60.39,240.53,48.14,165.68,86.1l52.66,52.65L357.25,277.66l59.45,59.46L496,254.68V225.79Z" class="cls-4" opacity=".25"/>
  <path d="M392.41,362l-44.35-44.35L322.5,292.12,196.12,165.74l-25.56-25.56-35.13-35.13L46.38,16H16V45l88.64,88.64h0L16,225.79v28.89l98.78,102.69.22.22a199.78,199.78,0,0,0,243.59,30L467,496h29V465.62Z" class="cls-4"/>
</svg>
