<svg xmlns="http://www.w3.org/2000/svg" id="export" viewBox="0 0 512 512">
  <defs>
    <style>
      .cls-1,.cls-2{fill:currentColor}.cls-2{opacity:.25}
    </style>
  </defs>
  <path d="M425.71,86.29A238.43,238.43,0,0,0,256,16a241.59,241.59,0,0,0-35.4,2.6l7,47.48A194.38,194.38,0,0,1,256,64c105.87,0,192,86.13,192,192S361.87,448,256,448a194.38,194.38,0,0,1-28.37-2.08l-7,47.48A241.59,241.59,0,0,0,256,496,240,240,0,0,0,425.71,86.29Z" class="cls-1"/>
  <polygon points="208 136 192.93 136 192.93 368 208 368 368 252 208 136" class="cls-1"/>
  <path d="M169.92,84.32,148.37,41.43A240.63,240.63,0,0,0,87.05,85.54l33.79,34.09A192.28,192.28,0,0,1,169.92,84.32Z" class="cls-2"/>
  <path d="M85.1,168.4,42.4,146.46a238.46,238.46,0,0,0-23.46,71.86l47.42,7.49A190.3,190.3,0,0,1,85.1,168.4Z" class="cls-2"/>
  <path d="M19,293.82a238.14,238.14,0,0,0,23.5,71.84l42.68-22a190.69,190.69,0,0,1-18.78-57.4Z" class="cls-2"/>
  <path d="M87.15,426.56a240.39,240.39,0,0,0,61.35,44.07L170,427.73a192.32,192.32,0,0,1-49.11-35.28Z" class="cls-2"/>
</svg>
