<svg xmlns="http://www.w3.org/2000/svg" id="export" viewBox="0 0 512 512">
  <defs>
    <style>
      .cls-1{fill:currentColor;opacity:.25}
    </style>
  </defs>
  <path d="M393.283,311.498a112,112,0,0,0-1.5484-113.6259L296,256Z" class="cls-1"/>
  <path d="M424.5525,329.3366l45.167,25.7669A200,200,0,0,0,466.9548,152.2l-44.4485,26.988a147.9992,147.9992,0,0,1,2.0462,150.1486Z" class="cls-1"/>
  <path fill="currentColor" d="M118.9824,256.7949,40,307.7771v71.7382l2.0215,3.1317L144,316.8208V495.999l55.7363.002,160.29-111.2793-.0762-48.4741-30.7478-19.86L236.9668,256.812,359.94,177.4341l0-2.3734.01-45.2585L197.541,15.9741,144,16.0381V196.7646L41.3623,130.4707,40,132.58v73.2ZM208,101.4585,280.6963,152.41,208,199.3345Zm0,212.833,73.1729,47.2622L208,412.353Z"/>
</svg>
