<svg xmlns="http://www.w3.org/2000/svg" id="export" viewBox="0 0 512 512">
  <defs>
    <style>
      .cls-1{fill:currentColor}.cls-2{fill:none}
    </style>
  </defs>
  <path d="M316.5674,235.5969h0l83.4194,83.42a96.1028,96.1028,0,0,0-95.0044-95.0041Z" class="cls-1"/>
  <path d="M208,288h50.5776L121.3262,150.7483A95.9807,95.9807,0,0,0,208,288Z" class="cls-1"/>
  <path d="M368.9414,160V96H296V40H232V96H208a95.71,95.71,0,0,0-27.1216,3.9075L240.9707,160Z" class="cls-1"/>
  <path d="M304,352H136v64h96v56h64V416h8a95.554,95.554,0,0,0,60.8076-21.77L318.89,348.312A31.7945,31.7945,0,0,1,304,352Z" class="cls-1"/>
  <path d="M193.5313,163.472l-.0552.0285L253.9756,224h.0835Z" class="cls-2"/>
  <path d="M390.85,360.8745,496,466.0244v-.0835L390.877,360.8176Z" class="cls-2"/>
  <path d="M147.5449,117.4858,58.2793,28.22Q64.9685,22.0435,71.7729,16H45.9756L147.499,117.5232Z" class="cls-2"/>
  <polygon fill="currentColor" points="390.85 360.875 253.976 224 193.476 163.5 147.499 117.523 45.976 16 16 16 16 45.422 121.326 150.748 258.578 288 318.89 348.312 364.808 394.23 466.577 496 496 496 496 466.024 390.85 360.875" opacity=".25"/>
  <path fill="#fff" d="M72,15.8016c-.0752.0666-.1519.1317-.2271.1984H72Z"/>
</svg>
