<svg xmlns="http://www.w3.org/2000/svg" id="export" viewBox="0 0 512 512">
  <defs>
    <style>
      .cls-1,.cls-2{fill:currentColor}.cls-2{opacity:.25}
    </style>
  </defs>
  <path d="M456,220.3906V144a32,32,0,0,0-32-32H88a32,32,0,0,0-32,32v76.3906c2.6348-.25,5.3008-.3906,8-.3906a84.1356,84.1356,0,0,1,81.575,64h220.85A84.1356,84.1356,0,0,1,448,220C450.6992,220,453.3652,220.14,456,220.3906Z" class="cls-1"/>
  <rect width="216" height="112" x="148" y="320" class="cls-1"/>
  <path d="M107.6328,284q-.5069-1.1047-1.0671-2.1787a48.041,48.041,0,0,0-4.1016-6.5405c-.7075-.9461-1.46-1.8562-2.2334-2.7466a47.9067,47.9067,0,0,0-72.4614,0c-.7739.89-1.5259,1.8-2.2334,2.7466a48.041,48.041,0,0,0-4.1016,6.5405q-.7262,1.3908-1.363,2.833A47.8126,47.8126,0,0,0,16,304V416a15.9162,15.9162,0,0,0,1.9312,7.6265q.369.68.8012,1.3193A15.9769,15.9769,0,0,0,32,432H64v64h48V304a47.905,47.905,0,0,0-2.9126-16.504C108.6516,286.3057,108.1582,285.144,107.6328,284Z" class="cls-2"/>
  <path d="M493.0874,287.496a49.11,49.11,0,0,0-6.6233-12.2152c-.7075-.9461-1.4595-1.8562-2.2334-2.7466a47.9067,47.9067,0,0,0-72.4614,0c-.7739.89-1.5259,1.8-2.2334,2.7466a48.041,48.041,0,0,0-4.1016,6.5405q-.5607,1.0737-1.0671,2.1787c-.1.2174-.1992.4351-.2959.6543A47.8126,47.8126,0,0,0,400,304V496h48V432h32a16.2278,16.2278,0,0,0,1.636-.0825,15.9617,15.9617,0,0,0,11.6316-6.9717q.4309-.6386.8012-1.3193A15.9162,15.9162,0,0,0,496,416V304A47.905,47.905,0,0,0,493.0874,287.496Z" class="cls-2"/>
</svg>
