<svg xmlns="http://www.w3.org/2000/svg" id="export" viewBox="0 0 512 512">
  <defs>
    <style>
      .cls-1,.cls-2{fill:currentColor}.cls-1{opacity:.25}
    </style>
  </defs>
  <polygon points="405.62 363.36 405.62 399.36 369.62 399.36 160.38 399.36 160.38 475.36 480 475.36 480 219.36 405.62 219.36 405.62 363.36" class="cls-1"/>
  <polygon points="405.62 363.36 405.62 399.36 369.62 399.36 160.38 399.36 160.38 475.36 480 475.36 480 219.36 405.62 219.36 405.62 363.36" class="cls-2"/>
  <polygon points="168 291.36 264 227.36 168 171.36 168 291.36" class="cls-2"/>
  <polygon points="317 112 298 112 262 112 160 112 124 112 113 112 50 112 50 363 204.2 363 204.2 363 370 363 370 363 370 112 317 112" class="cls-1"/>
  <polygon points="298 30 124 30 124 76.23 124 112 160 112 160 76.63 160 66 262 66 262 76.63 262 112 298 112 298 76.23 298 30" class="cls-2"/>
</svg>
