<svg xmlns="http://www.w3.org/2000/svg" viewBox="0 0 512 512">
  <path fill="currentColor" d="M408.8726,350.4719C452.6335,316.89,480,269.0737,480,216a154.821,154.821,0,0,0-14.1853-64.5469l-119.73,119.73-7.2195,7.22-9.935,2.3543L249.274,299.6335l-.7679.1822-.7754.1479a37.3467,37.3467,0,0,1-43.69-43.718l.1465-.7634.1792-.7561L223.2428,175.07l2.3542-9.9348,7.22-7.22,111.17-111.17A265.6143,265.6143,0,0,0,256,32C132.2882,32,32,114.38,32,216S132.2882,400,256,400a273.9635,273.9635,0,0,0,33.3475-2.0322l22.1064,19.1589A257.349,257.349,0,0,0,480,480h0V464a299.2686,299.2686,0,0,1-70.5925-112.0122Z" opacity=".25"/>
  <path fill="currentColor" d="M258.2726,183.3716l-18.8764,79.6555v0a1.3576,1.3576,0,0,0-.0211.3287c.0019.0356.0114.0686.016.1035a1.3479,1.3479,0,0,0,.0391.206c.0118.0391.0294.075.0447.1126a1.3175,1.3175,0,0,0,.0776.1684c.0212.0369.0461.07.07.105a1.3473,1.3473,0,0,0,.11.1389c.0293.0318.06.0606.0924.0894a1.4233,1.4233,0,0,0,.1372.1084c.0361.0246.0724.0473.1109.0686a1.3714,1.3714,0,0,0,.16.0737c.041.0161.0813.0315.1241.0437a1.3593,1.3593,0,0,0,.1794.034,1.3094,1.3094,0,0,0,.132.0151c.0157.0005.03.0051.0456.0051a1.3841,1.3841,0,0,0,.2584-.0246l24.061-5.7019,55.5945-13.1744L459.0857,107.27a44.0926,44.0926,0,0,0,0-62.356h0a44.0926,44.0926,0,0,0-62.356,0Z"/>
</svg>
