<svg xmlns="http://www.w3.org/2000/svg" id="export" viewBox="0 0 512 512">
  <defs>
    <style>
      .cls-1{fill:currentColor}
    </style>
  </defs>
  <path d="M330.8188,305.3468c.0828-.0967.1634-.1953.2466-.2917Q330.9417,305.2006,330.8188,305.3468Z" class="cls-1"/>
  <path d="M429.6184,262.1422l-.0139-.0483C428.0757,262.038,426.5425,262,425,262a124.4769,124.4769,0,0,0-31.7417,3.9257A122.4769,122.4769,0,0,0,306.8267,350H258V222H160C85.7034,222,24.1934,277.7839,15.1479,349.667H216v2.6663A33.6666,33.6666,0,0,0,249.6667,386h88.3646L338,384a85.9687,85.9687,0,0,1,158-46.9579V285.4748A121.2536,121.2536,0,0,0,429.6184,262.1422Z" class="cls-1"/>
  <circle cx="428" cy="388" r="52" class="cls-1"/>
  <path d="M167.9409,385.667H64.0591c-.0049.1105-.0044.2223-.0086.333-.0251.6646-.05,1.3292-.05,2a52,52,0,0,0,104,0c0-.6708-.0254-1.3354-.05-2C167.9453,385.8893,167.9458,385.7775,167.9409,385.667Z" class="cls-1"/>
  <g opacity=".25">
    <rect width="88" height="36" x="170" y="149.667" class="cls-1"/>
    <path d="M429.6045,262.0939,381.5776,94H296v36h58.4224l38.8359,135.9257A124.4769,124.4769,0,0,1,425,262C426.5425,262,428.0757,262.038,429.6045,262.0939Z" class="cls-1"/>
  </g>
</svg>
