<svg xmlns="http://www.w3.org/2000/svg" id="export" viewBox="0 0 512 512">
  <defs>
    <style>
      .cls-1,.cls-2{fill:currentColor}.cls-1{opacity:.25}
    </style>
  </defs>
  <path d="M165.7891,68.0479a225.1067,225.1067,0,0,1,22.2122-42.2928A239.8231,239.8231,0,0,0,17.0687,239H134.2152C135.8345,174.6485,146.8964,114.4622,165.7891,68.0479Z" class="cls-1"/>
  <path d="M134.2905,275H17.2916a239.8347,239.8347,0,0,0,170.71,210.2449,225.1157,225.1157,0,0,1-22.2124-42.2928C147.19,397.2585,136.1733,338.2216,134.2905,275Z" class="cls-2"/>
  <path d="M377.7847,239H494.9312A239.8229,239.8229,0,0,0,323.9987,25.7551a225.1067,225.1067,0,0,1,22.2122,42.2928C365.1036,114.4622,376.1655,174.6485,377.7847,239Z" class="cls-1"/>
  <path d="M341.7764,239c-1.5777-59.7194-11.6982-115.0972-28.9092-157.38C296.6519,41.7832,275.3931,18,256,18s-40.6519,23.7832-56.8672,63.62c-17.211,42.2827-27.3315,97.6605-28.9092,157.38Z" class="cls-1"/>
  <path d="M170.308,275c1.8324,58.573,11.9022,112.8059,28.8248,154.38C215.3481,469.2168,236.6069,493,256,493s40.6519-23.7832,56.8672-63.62C329.79,387.8059,339.86,333.573,341.692,275Z" class="cls-2"/>
  <path d="M346.2109,442.9521a225.1157,225.1157,0,0,1-22.2124,42.2928A239.8349,239.8349,0,0,0,494.7085,275H377.71C375.8267,338.2216,364.81,397.2585,346.2109,442.9521Z" class="cls-2"/>
</svg>
