<svg xmlns="http://www.w3.org/2000/svg" viewBox="0 0 512 512">
  <path fill="currentColor" d="M480,145.8187a9.2276,9.2276,0,0,0-4.3369-7.825l-73.9622-36.4388L323.4021,205.9535l39.1494,52.1993v0A104.3987,104.3987,0,0,1,258.1528,362.5515h0L205.9536,323.402,101.5549,401.7009l36.4388,73.9621A9.2277,9.2277,0,0,0,145.8188,480h22.3445C340.386,480,480,340.386,480,168.1633Z"/>
  <path fill="currentColor" d="M90.4048,168.5518,56,193.3232v51.7537l51-36.7195V309h52l78-58.5V212.5078l-71.8755-46.001L237,114.7568V77.5L159,19H107V129.3076l-51-32.64v49.8651ZM149,64l42.4238,31.8184L149,126.3633Zm0,142.0527,41.689,26.6807L149,264Z" opacity=".25"/>
</svg>
