<svg xmlns="http://www.w3.org/2000/svg" id="export" viewBox="0 0 512 512">
  <defs>
    <style>
      .cls-2{fill:currentColor}
    </style>
  </defs>
  <rect width="480" height="432" x="16" y="40" fill="currentColor" opacity=".25" rx="24"/>
  <rect width="112" height="36" x="288" y="293.598" class="cls-2"/>
  <rect width="112" height="36" x="288" y="150" class="cls-2"/>
  <polygon points="194.87 291.272 168 318.142 141.13 291.272 115.675 316.728 142.544 343.598 115.675 370.468 141.13 395.924 168 369.054 194.87 395.924 220.325 370.468 193.456 343.598 220.325 316.728 194.87 291.272" class="cls-2"/>
  <rect width="112" height="36" x="288" y="357.598" class="cls-2"/>
  <polygon points="150 224 186 224 186 186 224 186 224 150 186 150 186 112 150 112 150 150 112 150 112 186 150 186 150 224" class="cls-2"/>
</svg>
