<svg xmlns="http://www.w3.org/2000/svg" id="export" viewBox="0 0 512 512">
  <defs>
    <style>
      .cls-1,.cls-2{fill:currentColor}.cls-1{opacity:.26}
    </style>
  </defs>
  <path d="M120.54,120.54h0L86.59,86.59a239.59,239.59,0,0,0,0,338.82l34-34a191.54,191.54,0,0,1,0-270.92Z" class="cls-1"/>
  <path d="M424.9,86.1,391,120c.17.17.34.33.5.5a191.54,191.54,0,0,1,0,270.92l34,34A239.56,239.56,0,0,0,424.9,86.1Z" class="cls-1"/>
  <path d="M157,157a140,140,0,0,0,0,198l34-34a91.84,91.84,0,0,1,0-130Z" class="cls-2"/>
  <path d="M354.47,156.53l-34,34A91.82,91.82,0,0,1,321,321l34,34a140,140,0,0,0-.51-198.45Z" class="cls-2"/>
  <path d="M256,208a48,48,0,1,0,33.43,13.57A47.77,47.77,0,0,0,256,208Z" class="cls-2"/>
</svg>
