<svg xmlns="http://www.w3.org/2000/svg" id="export" viewBox="0 0 512 512">
  <defs>
    <style>
      .cls-1,.cls-2{fill:currentColor}.cls-2{opacity:.25}
    </style>
  </defs>
  <path d="M96,456a40.0455,40.0455,0,0,0,40,40H376a40.0455,40.0455,0,0,0,40-40V368H96Zm142-42h36v36H238Z" class="cls-1"/>
  <path d="M416,56a40.0455,40.0455,0,0,0-40-40H136A40.0455,40.0455,0,0,0,96,56V88H416Z" class="cls-1"/>
  <polygon points="182.971 287.029 127.941 232 182.971 176.971 149.029 143.029 60.059 232 149.029 320.971 182.971 287.029" class="cls-2"/>
  <polygon points="362.971 320.971 451.941 232 362.971 143.029 329.029 176.971 384.059 232 329.029 287.029 362.971 320.971" class="cls-2"/>
</svg>
