<svg xmlns="http://www.w3.org/2000/svg" viewBox="0 0 512 512">
  <path fill="currentColor" d="M453.4929,159.459c.4964-.4566.99-.9177,1.4715-1.3989h0a69.8615,69.8615,0,0,0,0-98.7991h0a69.8613,69.8613,0,0,0-98.7989,0h0c-.4813.4813-.9423.9751-1.3989,1.4714a181.1012,181.1012,0,0,0-69.2548-13.6806l-.0005-.0005A235.1944,235.1944,0,0,0,50.2473,282.3154l0,0a181.1,181.1,0,0,0,13.6809,69.2547c-.4964.4565-.99.9174-1.4715,1.3989h0a69.8615,69.8615,0,0,0,0,98.7991h0a69.8617,69.8617,0,0,0,98.7989,0h0c.4813-.4815.9422-.9754,1.3988-1.4717A181.1,181.1,0,0,0,231.91,463.9778l0,0c129.9328,0,235.2638-105.3316,235.2641-235.2642l0,0A181.0988,181.0988,0,0,0,453.4929,159.459Z" opacity=".25"/>
  <path fill="currentColor" d="M153.2393,243.6367A213.9081,213.9081,0,0,1,271.14,139.749l-14.28-39.498a255.7833,255.7833,0,0,0-140.9878,124.21Z"/>
</svg>
