<svg xmlns="http://www.w3.org/2000/svg" id="export" viewBox="0 0 512 512">
  <defs>
    <style>
      .cls-1{fill:currentColor}
    </style>
  </defs>
  <path d="M456.6519,56.6519v0a126.646,126.646,0,0,0-179.1044,0l-90.6488,90.6489,45.2547,45.2547,90.6488-90.6488a62.6461,62.6461,0,0,1,88.5948,88.595L320.7483,281.15l45.2549,45.2549,90.6487-90.6488A126.646,126.646,0,0,0,456.6519,56.6519Z" class="cls-1"/>
  <path d="M190.5015,411.3971a62.6461,62.6461,0,0,1-88.5951-88.5948L186.8986,237.81l-45.2548-45.2547L56.6516,277.5475a126.6458,126.6458,0,0,0,0,179.1041l0,0a126.6454,126.6454,0,0,0,179.1041,0l84.9921-84.992L275.4934,326.405Z" class="cls-1"/>
  <polygon fill="currentColor" points="247.515 298.427 292.77 253.172 344.971 200.971 311.029 167.029 258.828 219.23 213.573 264.485 167.029 311.029 200.971 344.971 247.515 298.427" opacity=".25"/>
</svg>
