<svg xmlns="http://www.w3.org/2000/svg" id="export" viewBox="0 0 512 512">
  <defs>
    <style>
      .cls-1{fill:currentColor}
    </style>
  </defs>
  <path d="M160,347.9056A75.99,75.99,0,1,0,212,420,75.6556,75.6556,0,0,0,160,347.9056Z" class="cls-1"/>
  <path d="M136,16a75.99,75.99,0,1,0,76,76A76.0859,76.0859,0,0,0,136,16Z" class="cls-1"/>
  <path d="M364,16a75.9869,75.9869,0,1,0,76,76A76.0859,76.0859,0,0,0,364,16Z" class="cls-1"/>
  <path d="M364,168a75.7879,75.7879,0,0,1-20-2.69V202a40.0451,40.0451,0,0,1-40,40H160V164.0944a75.6931,75.6931,0,0,1-48,0V347.9056a75.6931,75.6931,0,0,1,48,0V290H304a88.1,88.1,0,0,0,88-88V162.6321A75.5676,75.5676,0,0,1,364,168Z" class="cls-1" opacity=".25"/>
</svg>
