<svg xmlns="http://www.w3.org/2000/svg" id="export" viewBox="0 0 512 512">
  <defs>
    <style>
      .cls-2{fill:currentColor}
    </style>
  </defs>
  <path fill="currentColor" d="M132,150.67A102.4,102.4,0,0,1,234.29,253V319.5H280V272H408v47.5h56V56.21A24.13,24.13,0,0,0,440,32H72A24.13,24.13,0,0,0,48,56.21V194.66A102.23,102.23,0,0,1,132,150.67Z" opacity=".25"/>
  <path d="M227.89,411.12l-53.15-34.55,23.55-57.33V253a66.29,66.29,0,0,0-132.58,0v66.29l21.52,58.65L36.11,411.12A44.19,44.19,0,0,0,16,448.17V496H248V448.17A44.19,44.19,0,0,0,227.89,411.12Z" class="cls-2"/>
  <polygon points="233.5 355 233.5 365.69 282.7 397 496 397 496 355 233.5 355" class="cls-2"/>
</svg>
