<svg xmlns="http://www.w3.org/2000/svg" id="export" viewBox="0 0 512 512">
  <defs>
    <style>
      .cls-1,.cls-2{fill:currentColor}.cls-1{opacity:.25}
    </style>
  </defs>
  <polygon points="64 64 152 64 152 16 16 16 16 152 64 152 64 64" class="cls-1"/>
  <polygon points="64 360 16 360 16 496 152 496 152 448 64 448 64 360" class="cls-1"/>
  <polygon points="448 360 448 448 360 448 360 496 496 496 496 360 448 360" class="cls-1"/>
  <polygon points="448 152 496 152 496 16 360 16 360 64 448 64 448 152" class="cls-1"/>
  <rect width="48" height="48" x="104" y="360" class="cls-2"/>
  <rect width="48" height="48" x="104" y="104" class="cls-2"/>
  <rect width="48" height="48" x="360" y="104" class="cls-2"/>
  <polygon points="408 408 408 360 240 360 240 272 104 272 104 320 192 320 192 408 408 408" class="cls-2"/>
  <polygon points="272 240 360 240 360 276 280 276 280 324 408 324 408 192 320 192 320 104 192 104 192 152 272 152 272 240" class="cls-2"/>
  <rect width="128" height="48" x="104" y="192" class="cls-2"/>
</svg>
