<svg xmlns="http://www.w3.org/2000/svg" id="export" viewBox="0 0 512 512">
  <defs>
    <style>
      .cls-1{fill:currentColor}
    </style>
  </defs>
  <path d="M394.6343,220.6641,269.4751,25.1743a16,16,0,0,0-26.95,0L187.624,110.9258l238.18,238.1794a172.4645,172.4645,0,0,0,2.094-26.8039A170.52,170.52,0,0,0,394.6343,220.6641Z" class="cls-1"/>
  <path d="M117.3652,220.665A170.525,170.525,0,0,0,84.1025,322.3013c0,94.7846,77.1128,171.8974,171.8975,171.8974a171.738,171.738,0,0,0,138.1277-69.7063L145.834,176.1987Z" class="cls-1"/>
  <polygon fill="currentColor" points="496 466.968 46.032 17 16 17 16 46.365 466.635 497 496 497 496 466.968" opacity=".25"/>
</svg>
