<svg xmlns="http://www.w3.org/2000/svg" id="export" viewBox="0 0 512 512">
  <defs>
    <style>
      .cls-2{fill:currentColor}
    </style>
  </defs>
  <path fill="currentColor" d="M456,32H56A24,24,0,0,0,32,56V328a24,24,0,0,0,24,24H388.7666l69.522,128H480V56A24,24,0,0,0,456,32Z" opacity=".25"/>
  <polygon points="202 298 384 298 384 262 238 262 202 298" class="cls-2"/>
  <path d="M98.4761,287.98l65.3457-15.4853,113.584-113.5838a36.1716,36.1716,0,0,0,0-51.1538h0a36.1713,36.1713,0,0,0-51.1538,0L112.668,221.3405,97.1826,286.6862A1.1052,1.1052,0,0,0,98.4761,287.98Z" class="cls-2"/>
</svg>
