<svg xmlns="http://www.w3.org/2000/svg" viewBox="0 0 512 512">
  <path fill="currentColor" d="M108,248a84.0953,84.0953,0,0,0,84-84V110.8511H166.5V82.3789a60.25,60.25,0,0,0-120.5,0v28.4722H24V164A84.0953,84.0953,0,0,0,108,248ZM82,82.3789a24.25,24.25,0,1,1,48.5,0v26.4722H82Z" opacity=".25"/>
  <path fill="currentColor" d="M299.402,184.3987l39.1495,52.1993h0A104.3984,104.3984,0,0,1,234.153,340.9966h0l-52.1992-39.1494L77.5549,380.1462l36.4388,73.962a9.2276,9.2276,0,0,0,7.825,4.3369h22.3447C316.386,458.4451,456,318.8311,456,146.6085V124.2639a9.2272,9.2272,0,0,0-4.337-7.8249L377.701,80Z"/>
</svg>
