<svg xmlns="http://www.w3.org/2000/svg" id="export" viewBox="0 0 512 512">
  <defs>
    <style>
      .cls-1,.cls-2{fill:currentColor}.cls-1{opacity:.25}
    </style>
  </defs>
  <polygon points="144 216.615 24 272 32 320 144 306.56 208 298.88 208 187.077 144 216.615" class="cls-1"/>
  <path d="M304,187.0769V96a89.4348,89.4348,0,0,0-32.18-68.7058,24.7114,24.7114,0,0,0-31.64,0A89.4348,89.4348,0,0,0,208,96v31.0293l96,96Z" class="cls-2"/>
  <polygon points="208 187.077 208 298.88 208 304 217.772 416.383 144 448 144 488 224 488 256 488 288 488 368 488 368 448 294.228 416.383 304 304 304 298.88 304 273.941 208 177.941 208 187.077" class="cls-2"/>
  <polygon points="45.975 16 16 16 16 45.422 466.579 496 496 496 496 466.025 45.975 16" class="cls-2"/>
  <polygon points="316.568 235.597 390.194 309.223 480 320 488 272 368 216.615 304 187.077 304 223.029 316.568 235.597 316.568 235.597" class="cls-1"/>
  <path fill="#fff" d="M72,16v-.1982c-.0752.0664-.1519.1315-.2271.1982Z"/>
</svg>
