<svg xmlns="http://www.w3.org/2000/svg" id="export" viewBox="0 0 512 512">
  <defs>
    <style>
      .cls-2{fill:currentColor}
    </style>
  </defs>
  <path fill="currentColor" d="M430.2227,280l-37.7764-84.9966A32.0005,32.0005,0,0,0,363.2041,176H148.7959a32.0005,32.0005,0,0,0-29.2422,19.0034L81.7773,280Z" opacity=".25"/>
  <polygon points="256 22.138 16 118.5 16 170.225 256 73.862 496 170.225 496 118.5 256 22.138" class="cls-2"/>
  <path d="M81.7773,280H64a16,16,0,0,0-16,16V424a16,16,0,0,0,16,16H80v49a8,8,0,0,0,8,8h56a8,8,0,0,0,8-8V440H360v49a8,8,0,0,0,8,8h56a8,8,0,0,0,8-8V440h16a16,16,0,0,0,16-16V296a16,16,0,0,0-16-16H81.7773ZM176,377H96V345h80Zm240,0H336V345h80Z" class="cls-2"/>
  <polygon points="256 22.138 16 118.5 16 170.225 256 73.862 496 170.225 496 118.5 256 22.138" class="cls-2"/>
</svg>
