<svg xmlns="http://www.w3.org/2000/svg" id="export" viewBox="0 0 512 512">
  <defs>
    <style>
      .cls-3{fill:currentColor}
    </style>
  </defs>
  <path fill="currentColor" d="M367.6875,143.75a181.2443,181.2443,0,0,1,6.7041,48.9458c0,100.187-81.5088,181.6953-181.6963,181.6953a181.3022,181.3022,0,0,1-47.0212-6.1821A181.7535,181.7535,0,0,0,320.6953,501c100.1875,0,181.6963-81.5083,181.6963-181.6958A182.0843,182.0843,0,0,0,367.6875,143.75Z" opacity=".25"/>
  <path d="M184.2031,288.4023,143.166,279.46a181.9363,181.9363,0,0,1,132.96-137.3394l10.2734,40.7236A140.5238,140.5238,0,0,0,184.2031,288.4023Z" class="cls-3" opacity=".25"/>
  <path d="M192.6953,11C92.5078,11,11,92.5083,11,192.6958S92.5078,374.3911,192.6953,374.3911s181.6963-81.5083,181.6963-181.6953S292.8828,11,192.6953,11ZM53,192.6958C53,115.6675,115.667,53,192.6953,53s139.6963,62.6675,139.6963,139.6958-62.667,139.6953-139.6963,139.6953S53,269.7241,53,192.6958Z" class="cls-3"/>
</svg>
