<svg xmlns="http://www.w3.org/2000/svg" viewBox="0 0 512 512">
  <path fill="currentColor" d="M462.2,238.75,397.56,125.14A24,24,0,0,0,376.7,113H258.58a24,24,0,0,0-12.14,3.3l-61.75,36.22V337.66L254.83,491.2a8.21,8.21,0,0,0,10.77,4.1h0a72.11,72.11,0,0,0,36.67-95.68l-11-24.34v-49H424.1a24,24,0,0,0,22.47-15.57l17.24-46a24,24,0,0,0,1.53-8.43v-5.7A24.1,24.1,0,0,0,462.2,238.75Z"/>
  <path fill="currentColor" d="M127.47,145h-76a24.08,24.08,0,0,0-23.51,19.18l-1.5,7.31a503.48,503.48,0,0,0,1.47,210.66A24.15,24.15,0,0,0,51.33,401h76.14a24,24,0,0,0,24-24V169A24,24,0,0,0,127.47,145Z" opacity=".25"/>
</svg>
