<svg xmlns="http://www.w3.org/2000/svg" id="export" viewBox="0 0 512 512">
  <defs>
    <style>
      .cls-1{fill:currentColor;opacity:.25}
    </style>
  </defs>
  <path d="M16,448a24.0275,24.0275,0,0,0,24,24H472a24.0275,24.0275,0,0,0,24-24V384H16Z" class="cls-1"/>
  <path d="M496,112a24.0275,24.0275,0,0,0-24-24H400V16H336V88H176V16H112V88H40a24.0275,24.0275,0,0,0-24,24v72H496Z" class="cls-1"/>
  <polygon fill="currentColor" points="496 232 16 232 0 232 0 336 16 336 496 336 512 336 512 232 496 232"/>
</svg>
