<svg xmlns="http://www.w3.org/2000/svg" id="export" viewBox="0 0 512 512">
  <defs>
    <style>
      .cls-2,.cls-3{fill:currentColor}.cls-2{opacity:.25}.cls-4{fill:#fff}
    </style>
  </defs>
  <polygon fill="none" points="366.599 336.623 496 466.024 496 465.945 366.606 336.612 366.599 336.623"/>
  <path d="M84.1858,194.9536A171.03,171.03,0,0,0,117.4429,296.551L242.8782,476.3325a16,16,0,0,0,26.2436,0L342.1875,371.61,97.9817,127.4038A171.2453,171.2453,0,0,0,84.1858,194.9536Z" class="cls-2"/>
  <polygon points="329.151 299.175 366.599 336.623 366.606 336.612 329.151 299.175"/>
  <polygon points="366.599 336.623 329.151 299.175 278.325 248.373 204.628 174.711 119.93 90.053 45.841 16 16 16 16 45.422 97.982 127.404 342.188 371.61 466.577 496 496 496 496 466.024 366.599 336.623" class="cls-3"/>
  <path d="M45.9766,16h-.1353L119.93,90.0535l.0435-.0564Z" class="cls-4"/>
  <path d="M278.325,248.373l50.8264,50.8023-50.81-50.81Z" class="cls-4"/>
  <path d="M119.9734,89.9971l-.0435.0564,84.6983,84.6579.0185-.041Z" class="cls-4"/>
  <path d="M204.6467,174.67l-.0185.041L278.325,248.373l.0166-.0075Z" class="cls-4"/>
  <path d="M256,23.1394A171.12,171.12,0,0,0,144.8066,63.9829L228.9,148.0049,305.0313,224.07l11.5363,11.5266h0l70.9883,70.9883,7.0009-10.0342A171.8141,171.8141,0,0,0,256,23.1394Z" class="cls-2"/>
  <path d="M312,197.0122a56.0015,56.0015,0,0,0-83.1-49.0073L305.0313,224.07A55.7364,55.7364,0,0,0,312,197.0122Z" class="cls-3"/>
</svg>
