<svg xmlns="http://www.w3.org/2000/svg" id="export" viewBox="0 0 512 512">
  <defs>
    <style>
      .cls-1,.cls-2{fill:currentColor}.cls-1{opacity:.25}
    </style>
  </defs>
  <path d="M480,216C480,114.38,379.7119,32,256,32S32,114.38,32,216,132.2881,400,256,400a273.9693,273.9693,0,0,0,33.3477-2.0322l22.1062,19.1589A257.349,257.349,0,0,0,480,480V464a299.2686,299.2686,0,0,1-70.5925-112.0122l-.5349-1.5159C452.6335,316.89,480,269.0737,480,216Z" class="cls-1"/>
  <rect width="40" height="40" x="236" y="288" class="cls-2"/>
  <polygon points="232 189.714 238 248 274 248 280 189.714 280 112 232 112 232 189.714" class="cls-2"/>
  <rect width="40" height="40" x="236" y="288" class="cls-1"/>
  <polygon points="280 189.714 274 248 238 248 232 189.714 232 112 280 112 280 189.714" class="cls-1"/>
</svg>
