<svg xmlns="http://www.w3.org/2000/svg" id="export" viewBox="0 0 512 512">
  <defs>
    <style>
      .cls-1{fill:currentColor}
    </style>
  </defs>
  <path d="M86.9834,339.5323l151.3584-85.5505V29.27L67.9829,127.626a34.0948,34.0948,0,0,0-16.9995,29.4448V354.9292a33.74,33.74,0,0,0,.3445,4.7563Z" class="cls-1"/>
  <path d="M461.33,359.7389a33.7317,33.7317,0,0,0,.3536-4.81V157.0708a34.0961,34.0961,0,0,0-17-29.4448L274.3418,29.2791V254.05l151.3418,85.5411Z" class="cls-1"/>
  <path fill="currentColor" d="M74.3289,388.0376l165.0036,95.2646a34.0913,34.0913,0,0,0,34.001,0L438.287,388.0671l-36.3823-20.5639-145.623-82.3089L110.7111,367.4736Z" opacity=".25"/>
</svg>
