<svg xmlns="http://www.w3.org/2000/svg" id="export" viewBox="0 0 512 512">
  <defs>
    <style>
      .cls-1,.cls-2{fill:currentColor}.cls-2{opacity:.25}
    </style>
  </defs>
  <path d="M316.57,235.6l29.55,29.55A95.85,95.85,0,0,0,352,232V112a96,96,0,0,0-96-96h0a96.06,96.06,0,0,0-91.71,67.53L316.57,235.6Z" class="cls-1"/>
  <path d="M440,232V176H392v56a135.18,135.18,0,0,1-15.68,63.34l35.08,35.08A182.9,182.9,0,0,0,440,232Z" class="cls-2"/>
  <polygon points="16 45.42 27.7 57.13 16 45.42 16 45.42" class="cls-1"/>
  <path d="M256,368c-75,0-136-61-136-136V176H72v56c0,93.32,69.84,170.64,160,182.44V496h48V414.44A183,183,0,0,0,356.58,386l-34.93-34.93A135.19,135.19,0,0,1,256,368Z" class="cls-2"/>
  <path d="M45.71,16H16V45.42L27.7,57.13,160,189.42V232a96,96,0,0,0,96,96h0a95.67,95.67,0,0,0,35.71-6.87h0l13.67,13.67,16.27,16.27L356.58,386l42.19,42.19L466.58,496H496V466.46Z" class="cls-1"/>
</svg>
