<svg xmlns="http://www.w3.org/2000/svg" id="export" viewBox="0 0 512 512">
  <defs>
    <style>
      .cls-2{fill:currentColor}
    </style>
  </defs>
  <polygon fill="currentColor" points="145.107 16 97.107 16 97.107 384 16 384 16 391.529 120.471 496 144.471 472 145.107 472 145.107 471.364 225.911 390.56 225.911 384 145.107 384 145.107 16" opacity=".25"/>
  <polygon points="422.911 329.456 422.911 279 273.911 279 273.911 321 370.17 321 268.911 414.544 268.911 465 425.911 465 425.911 423 321.652 423 422.911 329.456" class="cls-2"/>
  <path d="M318.38,193h63.0615l11.6667,35H437.38L377.0469,47H322.7754L262.4419,228h44.2718Zm31.5307-94.5923L367.4419,151H332.38Z" class="cls-2"/>
</svg>
