<svg xmlns="http://www.w3.org/2000/svg" id="export" viewBox="0 0 512 512">
  <defs>
    <style>
      .cls-1{fill:currentColor}
    </style>
  </defs>
  <polygon points="303.03 224.02 256.5 270.55 209.96 224.02 176.02 257.96 222.55 304.5 176.02 351.03 209.96 384.97 256.5 338.44 303.03 384.97 336.97 351.03 290.44 304.5 336.97 257.96 303.03 224.02" class="cls-1"/>
  <path d="M464,216H432V384h32a32,32,0,0,0,32-32V248A32,32,0,0,0,464,216Z" class="cls-1"/>
  <path d="M48,216a32,32,0,0,0-32,32V352a32,32,0,0,0,32,32H80V216Z" class="cls-1"/>
  <path fill="currentColor" d="M256,16C159,16,80,95,80,192V384h64V192a112,112,0,0,1,224,0V384h64V192C432,95,353.05,16,256,16Z" opacity=".25"/>
</svg>
