<svg xmlns="http://www.w3.org/2000/svg" id="export" viewBox="0 0 512 512">
  <defs>
    <style>
      .cls-2{fill:currentColor}
    </style>
  </defs>
  <path fill="currentColor" d="M324.1167,240A128.1152,128.1152,0,0,1,275.35,48,129.9161,129.9161,0,0,1,309.6,16H96A48.0543,48.0543,0,0,0,48,64V240H324.1167Z" opacity=".25"/>
  <path d="M48,272V399.4546a32.0361,32.0361,0,0,0,32,32H96V478.001a18.02,18.02,0,0,0,18,18h68a18.02,18.02,0,0,0,18-18V431.4546H312V478.001a18.02,18.02,0,0,0,18,18h68a18.02,18.02,0,0,0,18-18V431.4546h16a32.0361,32.0361,0,0,0,32-32V272Zm312,40a32,32,0,1,1-32,32A32,32,0,0,1,360,312Zm-216,0a32,32,0,1,1-32,32A32,32,0,0,1,144,312Z" class="cls-2"/>
  <path d="M305.998,67.2q-1.3656,1.7378-2.6486,3.5419t-2.48,3.6706q-1.795,2.8-3.39,5.7344-1.5933,2.9331-2.977,5.9913-1.3818,3.0567-2.5444,6.2287-1.161,3.1705-2.0926,6.4465a92.5056,92.5056,0,0,0,2.0926,56.8189q.7741,2.1135,1.6472,4.1778.4365,1.032.8972,2.0509,1.3821,3.0566,2.977,5.9913a92.0036,92.0036,0,0,0,6.1917,9.8549q1.1311,1.5711,2.3266,3.092,1.3661,1.7379,2.8123,3.4076,2.169,2.5036,4.5117,4.8466,2.3412,2.3414,4.8467,4.5118,1.6692,1.4459,3.4075,2.8121t3.542,2.6488a91.6971,91.6971,0,0,0,23.75,12.14q3.2061,1.0851,6.5148,1.9375,1.1024.2836,2.2151.5406,2.2258.5138,4.4917.9188a93.0534,93.0534,0,0,0,30.2962.3769q2.284-.3489,4.53-.809,3.7027-.7578,7.291-1.8132c1.2351-.3607,2.4619-.741,3.6748-1.1516q1.0686-.3616,2.1257-.7486a91.5114,91.5114,0,0,0,12.22-5.5214q.9779-.531,1.9409-1.0851a92.0339,92.0339,0,0,0,8.7676-5.7353q.4487-.3309.8931-.6666,1.3864-1.0488,2.7314-2.1477,1.0218-.8352,2.0215-1.6958.89-.7711,1.759-1.5656,1.5774-1.438,3.0877-2.9462A92.46,92.46,0,0,0,453.7891,176.7q.858-1.2255,1.6765-2.48,2.421-3.7084,4.4865-7.6563.35-.6684.6885-1.3433A92.0608,92.0608,0,0,0,424.1694,44.189q-.9631-.554-1.9409-1.0851a91.5241,91.5241,0,0,0-12.22-5.5214q-1.0568-.3869-2.1257-.7486a91.3078,91.3078,0,0,0-10.9658-2.9648q-2.2459-.46-4.53-.809a93.0534,93.0534,0,0,0-30.2962.3769q-2.2653.4046-4.4917.9188-1.1125.2568-2.2151.5406-2.2046.5672-4.3657,1.24a91.7551,91.7551,0,0,0-29.4416,15.4862q-1.738,1.3657-3.4075,2.8121-.8346.723-1.6516,1.4655-1.6337,1.4848-3.1951,3.0463-2.3412,2.3412-4.5117,4.8466Q307.3642,65.462,305.998,67.2ZM362.0732,72h32v45.4771L431.6543,137.95,416.3457,166.05l-54.2725-29.5654Z" class="cls-2"/>
</svg>
