<svg xmlns="http://www.w3.org/2000/svg" id="export" viewBox="0 0 512 512">
  <defs>
    <style>
      .cls-1{fill:none}.cls-2{fill:currentColor}
    </style>
  </defs>
  <polygon points="222.36 378 222.36 378 222.36 378 222.36 378" class="cls-1"/>
  <path d="M219.64,130.55l-38.09,29.2a151.7,151.7,0,0,1,2.12,189.87L222.36,378h0a199.55,199.55,0,0,0-2.72-247.45Z" class="cls-2"/>
  <path d="M112.63,297.53,151.4,326a111.77,111.77,0,0,0-1.61-141.87l-38.14,29.24a63.82,63.82,0,0,1,1,84.2Z" class="cls-2"/>
  <polygon points="222.36 378 222.36 378 222.36 378 222.36 378" class="cls-1"/>
  <path fill="currentColor" d="M440,80H72A16,16,0,0,0,56,96V408a16,16,0,0,0,16,16H440a16,16,0,0,0,16-16V96A16,16,0,0,0,440,80ZM222.36,378Z" opacity=".25"/>
  <path d="M88,256a32,32,0,0,0-32-32v64A32,32,0,0,0,88,256Z" class="cls-2"/>
</svg>
