<svg xmlns="http://www.w3.org/2000/svg" id="export" viewBox="0 0 512 512">
  <defs>
    <style>
      .cls-1{fill:currentColor}
    </style>
  </defs>
  <polygon points="144.97 246.06 145 246.12 145 246.04 144.97 246.06" class="cls-1"/>
  <circle cx="207.09" cy="64.09" r="38.09" class="cls-1"/>
  <polygon points="196 347.19 167.15 290.07 93.18 475 144.88 475 196 347.19" class="cls-1"/>
  <polygon fill="currentColor" points="415.3 475 441.5 475 344.48 253.44 325.73 270.47 415.3 475" opacity=".25"/>
  <path d="M242,297.39V178.46l83.67,92,.06-.06,18.75-17,16.71-15.19L255.52,122H163.27l-35,22.75A68.28,68.28,0,0,0,97,202.24V274h48V246.12l0-.06,0,0V202.2A20.58,20.58,0,0,1,154.37,185l14.63-9.5v78.34L280.7,475h43.76Z" class="cls-1"/>
</svg>
