<svg xmlns="http://www.w3.org/2000/svg" viewBox="0 0 512 512">
  <g fill="currentColor">
    <path d="M448,264H32V399.4546a32.0364,32.0364,0,0,0,32,32V478.001a18.0206,18.0206,0,0,0,18,18h68a18.0206,18.0206,0,0,0,18-18V431.4546H344V478.001a18.0206,18.0206,0,0,0,18,18h68a18.0206,18.0206,0,0,0,18-18V431.4546a32.0364,32.0364,0,0,0,32-32V264Zm-88,39.4545a32,32,0,1,1-32,32A32,32,0,0,1,360,303.4545Zm-216,0a32,32,0,1,1-32,32A32,32,0,0,1,144,303.4545Z"/>
    <path d="M406.6973,119.5967A48.1481,48.1481,0,0,0,361.5859,88H150.4141a48.1481,48.1481,0,0,0-45.1114,31.5967L64.4294,232H447.5706Z" opacity=".25"/>
  </g>
</svg>
