<svg xmlns="http://www.w3.org/2000/svg" viewBox="0 0 512 512">
  <rect width="168" height="48" x="112" y="176" fill="currentColor"/>
  <path fill="currentColor" d="M479.5977,400.4023l-81.084-81.0839-53.32-22.0288A178.9746,178.9746,0,0,0,376,196.6865c0-99.2519-80.748-180-180-180s-180,80.7481-180,180,80.748,180,180,180a178.9706,178.9706,0,0,0,101.3569-31.3293l21.9615,53.1565,81.0839,81.084a56,56,0,1,0,79.1954-79.1954ZM64,196.6865c0-72.7851,59.2148-132,132-132s132,59.2149,132,132-59.2148,132-132,132S64,269.4717,64,196.6865Z" opacity=".25"/>
</svg>
