<svg xmlns="http://www.w3.org/2000/svg" id="export" viewBox="0 0 512 512">
  <defs>
    <style>
      .cls-1{fill:currentColor}
    </style>
  </defs>
  <path d="M300.0366,274.8052l14.895-15.0537a91.621,91.621,0,0,0,43.2139,10.8471q3.671,0,7.3721-.2929c26.7422-2.1182,52.0547-15.35,73.2012-38.2627,20.6806-22.4082,35.1542-51.9629,39.71-81.086,5.2324-33.456-2.8379-61.9882-22.7256-80.3427C435.8164,52.2617,406.7305,46.502,373.8,54.3965c-28.665,6.873-56.9668,23.667-77.6475,46.0752-21.1455,22.9131-32.3066,49.2041-32.2773,76.0293a91.9363,91.9363,0,0,0,18.9922,55.9421l-12.2793,12.41Z" class="cls-1"/>
  <polygon points="100.023 417.229 129.879 446.771 244.034 331.402 215.022 301.009 100.023 417.229" class="cls-1"/>
  <path fill="currentColor" d="M270.5879,244.8528,64.6172,35.3594,50.0166,55.2686A143.6512,143.6512,0,0,0,64.28,241.7939l80.0576,80.0567,72.1328-72.1328,19.0039,19.3291L406.0752,442.5645l5.9014,6.0019,29.9492-29.4453L300.0366,274.8052Z" opacity=".25"/>
</svg>
