<svg xmlns="http://www.w3.org/2000/svg" id="export" viewBox="0 0 512 512">
  <defs>
    <style>
      .cls-2{fill:currentColor}
    </style>
  </defs>
  <path fill="currentColor" d="M480,64H32A16,16,0,0,0,16,80V432a16,16,0,0,0,16,16H480a16,16,0,0,0,16-16V80A16,16,0,0,0,480,64Z" opacity=".25"/>
  <polygon points="338 227.14 387.21 344 434 344 434 160 398 160 398 276.87 348.79 160 302 160 302 344 338 344 338 227.14" class="cls-2"/>
  <rect width="36" height="184" x="222" y="160" class="cls-2"/>
  <path d="M106,290h46a34,34,0,0,0,34-34V192a34,34,0,0,0-22.52-32H70V344h36Zm0-96h44v60H106Z" class="cls-2"/>
</svg>
