<svg xmlns="http://www.w3.org/2000/svg" id="export" viewBox="0 0 512 512">
  <defs>
    <style>
      .cls-1,.cls-2{fill:currentColor}.cls-2{opacity:.25}
    </style>
  </defs>
  <path d="M256,151.2007l144,46.08V128a32.0361,32.0361,0,0,0-32-32H144a32.0361,32.0361,0,0,0-32,32v69.2807Z" class="cls-1"/>
  <rect width="144" height="48" x="184" y="16" class="cls-2"/>
  <path d="M272,368.566a80.7472,80.7472,0,0,1,27.4443,14.8871l3.97,3.2813a38.6857,38.6857,0,0,0,49.0434.1152l4.7466-3.8852A80.7524,80.7524,0,0,1,430.6458,367.88l33.2966-116.539L272,189.9193Z" class="cls-1"/>
  <path d="M144.22,383.9858l.7071.6109a38.82,38.82,0,0,0,50.4726-.0039A80.4614,80.4614,0,0,1,240,365.3266V189.9193L48.0576,251.3408,80.5735,365.1469A80.5628,80.5628,0,0,1,144.22,383.9858Z" class="cls-1"/>
  <path d="M455.1685,417.6211a83.6028,83.6028,0,0,0-99.8643,4.5093l-4.7466,3.8852a35.6787,35.6787,0,0,1-45.2309-.105l-3.9717-3.2832a83.3775,83.3775,0,0,0-107.9175,1.1831,35.803,35.803,0,0,1-46.5488.004l-.708-.6119a83.6557,83.6557,0,0,0-106.7281-2.1469L16,439.7256v61.3528l53.3481-42.469a35.6243,35.6243,0,0,1,45.4463.91l.7076.6118a83.6045,83.6045,0,0,0,109.3173,0,35.5069,35.5069,0,0,1,45.9561-.5049l3.9717,3.2832a83.7794,83.7794,0,0,0,106.2143.25l4.7461-3.8853a35.8169,35.8169,0,0,1,42.5283-1.92L496,503.2874V445.299Z" class="cls-2"/>
</svg>
