<svg xmlns="http://www.w3.org/2000/svg" id="export" viewBox="0 0 512 512">
  <defs>
    <style>
      .cls-2{fill:currentColor;opacity:.25}
    </style>
  </defs>
  <path fill="currentColor" d="M380.4,262.26c.38-.75.75-1.51,1.11-2.27L424,170.76V156.69S366.25,77.34,346.62,51.17C325.52,23,308.71,16,292.09,16h0C255.17,16,224,62.46,224,62.46h-8S184.83,16,147.91,16h0c-16.62,0-33.43,7-54.53,35.17C73.75,77.34,16,156.69,16,156.69v14.07L58.49,260c.36.76.73,1.52,1.11,2.27,20.46,40.79,62.69,66.07,108.32,66.07H272.08C317.71,328.33,359.94,303.05,380.4,262.26Zm-61.92-28.19h0a696.48,696.48,0,0,0-197,0h0L88,166.46l61.66-49.16h0s28.13,31.83,70.34,31.83,70.34-31.83,70.34-31.83h0L352,166.46Z"/>
  <path d="M321.23,359.42v48a102.93,102.93,0,0,0,96.26-66.77l-45-16.81A54.85,54.85,0,0,1,321.23,359.42Z" class="cls-2"/>
  <path d="M455,354.66a143,143,0,0,1-133.72,92.76v48c81.69,0,151.54-51.61,178.68-123.94Z" class="cls-2"/>
</svg>
