<svg xmlns="http://www.w3.org/2000/svg" id="export" viewBox="0 0 512 512">
  <defs>
    <style>
      .cls-2{fill:none}.cls-3{fill:#d3aeae}
    </style>
  </defs>
  <path fill="currentColor" d="M388.31,58.4951A439.8768,439.8768,0,0,0,8,114.7007V165.79L228.0122,480h55.9756L504,165.79V114.7007A439.4345,439.4345,0,0,0,388.31,58.4951Z"/>
  <path d="M263.7646,86.2231c70.1788,1.5152,137.8892,22.2615,196.4649,57.678l.0381-.0544A389.6543,389.6543,0,0,0,263.7646,86.2231Z" class="cls-2"/>
  <path d="M239.4258,86.4653c2.3213-.0971,4.647-.1657,6.9746-.2207Q242.909,86.3241,239.4258,86.4653Z" class="cls-2"/>
  <path d="M255.5,86.1279q3.7126,0,7.4165.0735Q259.2127,86.1326,255.5,86.1279Z" class="cls-2"/>
  <path d="M247.769,86.21q3.8607-.0777,7.731-.0816C252.9194,86.1279,250.3433,86.16,247.769,86.21Z" class="cls-2"/>
  <path d="M50.7324,143.8467l.0733.1047c56.1318-34.0378,120.7724-54.5972,188.3159-57.4731A389.5,389.5,0,0,0,50.7324,143.8467Z" class="cls-2"/>
  <path d="M239.1216,86.4783c.1015-.0042.2026-.0091.3042-.013C239.3242,86.47,239.2231,86.4741,239.1216,86.4783Z" class="cls-3"/>
  <path d="M246.4,86.2446c.4565-.0105.9121-.0263,1.3686-.0351C247.3125,86.2188,246.8569,86.2339,246.4,86.2446Z" class="cls-3"/>
  <path d="M262.9165,86.2014c.2832.0054.5654.0159.8481.0217C263.4819,86.217,263.2,86.207,262.9165,86.2014Z" class="cls-3"/>
</svg>
