<svg xmlns="http://www.w3.org/2000/svg" id="export" viewBox="0 0 512 512">
  <defs>
    <style>
      .cls-2{fill:currentColor}
    </style>
  </defs>
  <path d="M485.5508,131.7822,380.7061,26.9375A24,24,0,0,0,345.16,28.71L267.894,123.146,389.3423,244.5942l94.436-77.2661a24,24,0,0,0,1.7725-35.5459Z" class="cls-2" opacity=".25"/>
  <path d="M356.5248,261.2729,251.06,155.8085l-13.5649-13.5648L125.0869,165.1455a27.0939,27.0939,0,0,0-20.0244,17.0264l-82.6,217.7636a27.2693,27.2693,0,0,0,6.2051,28.917L42.93,443.1147l11.3133-11.3133,11.3138-11.3137L162.74,323.3054a43.9687,43.9687,0,1,1,24.2237,25.2724L90.3055,445.2355,78.9916,456.5494,67.6782,467.8628,81.94,482.124a27.2657,27.2657,0,0,0,28.915,6.2071l217.86-82.6377a27.1425,27.1425,0,0,0,16.9493-19.6543l24.3033-111.3236Z" class="cls-2"/>
</svg>
