<svg xmlns="http://www.w3.org/2000/svg" viewBox="0 0 512 512">
  <path fill="currentColor" d="M456.0171,32.0217,56.0366,32A23.9993,23.9993,0,0,0,32.0361,55.9976l-.0215,399.9805a23.9986,23.9986,0,0,0,23.9976,24L455.9927,480a23.9984,23.9984,0,0,0,24-23.9976l.0219-399.98A23.9991,23.9991,0,0,0,456.0171,32.0217Z" opacity=".25"/>
  <path fill="currentColor" d="M422.0649,251.8075c-91.7151-91.7434-240.4148-91.7434-332.13,0l-11.8994,11.903a6.9532,6.9532,0,0,0-1.8574,6.4788L96.1606,329l97.2935-13.9033,6.95-48.6618h0a78.6078,78.6078,0,0,1,111.1924,0h0l6.95,48.6618L415.8393,329l19.9827-58.8107a6.9531,6.9531,0,0,0-1.8577-6.4788Z"/>
</svg>
