<svg xmlns="http://www.w3.org/2000/svg" id="export" viewBox="0 0 512 512">
  <defs>
    <style>
      .cls-1{fill:currentColor}.cls-2{opacity:.25}
    </style>
  </defs>
  <path d="M156.9805,433.3843a76.8675,76.8675,0,0,1-54.3531-131.2207l83.6656-83.666H95.7839L57.3726,256.9087A140.8692,140.8692,0,0,0,247,464.8733V375.2041l-35.6665,35.6665A76.367,76.367,0,0,1,156.9805,433.3843Z" class="cls-1"/>
  <path d="M454.6274,58.8706A140.408,140.408,0,0,0,265,50.6731v89.7712l36.3193-36.32A76.4057,76.4057,0,0,1,409.3726,212.1792l-83.3457,83.3457.9726.9727h88.564l39.0639-39.0635C509.3716,202.69,509.3716,113.6148,454.6274,58.8706Z" class="cls-1"/>
  <g class="cls-2">
    <polygon points="363 332.498 283 332.498 283 388.498 283 429.713 283 497.498 325 497.498 325 374.498 448 374.498 448 332.498 379.563 332.498 363 332.498" class="cls-1"/>
  </g>
  <g class="cls-2">
    <polygon points="167.785 182.498 229 182.498 229 118.498 229 85.934 229 17.498 187 17.498 187 140.498 64 140.498 64 182.498 131.784 182.498 167.785 182.498" class="cls-1"/>
  </g>
</svg>
