<svg xmlns="http://www.w3.org/2000/svg" id="export" viewBox="0 0 512 512">
  <defs>
    <style>
      .cls-1{fill:#fff}.cls-4{fill:currentColor}
    </style>
  </defs>
  <path d="M72,16v-.1982c-.0753.0664-.1517.1315-.2269.1982Z" class="cls-1"/>
  <path fill="none" d="M438.94,408.9646l.0183-.0217-.0183.0217Z"/>
  <path d="M438.9584,408.9429l.02-.0237h0Z"/>
  <g opacity=".25">
    <path d="M254,16A238.8645,238.8645,0,0,0,130.912,49.9412L184.9708,104,242,161.0293l73.243,73.2432,1.3246,1.3244h0l33.1955,33.1956L460.0588,379.0879A238.8636,238.8636,0,0,0,494,256C494,123.4517,386.5483,16,254,16Z" class="cls-4"/>
    <path d="M290.5781,320l-40-40L194,223.4219,71.1462,100.5681A239.03,239.03,0,0,0,14,256c0,132.5483,107.4517,240,240,240a239.0312,239.0312,0,0,0,155.4319-57.1462L306,335.4219Z" class="cls-4"/>
  </g>
  <path d="M316.5676,235.5969l-1.3246-1.3244c-.0893.05-.1763.1047-.266.1547l1.17,1.17h0l33.3814,33.3816c.0793-.061.156-.1247.235-.186l-33.1955-33.1956Z" class="cls-1"/>
  <polygon points="184.55 104 208.55 128 232.55 152 242 161.45 242 161.029 184.971 104 184.55 104" class="cls-1"/>
  <path d="M101.0355,71.06a241.4654,241.4654,0,0,0-29.8893,29.5083L194,223.4219V240H146v40H250.5781l40,40H146v40h48v48h48V360h64V335.4219L409.4319,438.8538A241.4428,241.4428,0,0,0,438.94,408.9646Z" class="cls-4"/>
  <path d="M242,152h50.8489c22.6134,0,43.105,18.4031,44.6276,40.9651a44.0065,44.0065,0,0,1-22.2335,41.3074l1.3246,1.3244h0l33.1955,33.1956a91.8812,91.8812,0,0,0,35.7879-75.0735C384.35,144.354,341.8093,104,292.43,104H184.9708L242,161.0293Z" class="cls-4"/>
</svg>
