<svg xmlns="http://www.w3.org/2000/svg" id="export" viewBox="0 0 512 512">
  <defs>
    <style>
      .cls-1{fill:currentColor}
    </style>
  </defs>
  <path d="M277.054,70.501c0-23.2949-10.89-43.6187-27.0646-54.501-16.1742,10.8823-27.0646,31.2061-27.0646,54.501,0,20.0986,8.1111,37.98,20.7238,49.499H256.33C268.9429,108.4806,277.054,90.6,277.054,70.501Z" class="cls-1"/>
  <polygon fill="currentColor" points="256.33 120 243.649 120 200 120 200 246 296 246 296 120 256.33 120" opacity=".25"/>
  <path d="M422,246H90a42,42,0,0,0-42,42v36.5254l32.8442,14.49a35.1486,35.1486,0,0,0,28.3116,0l40.8418-18.0195,40.8447,18.0195a35.1464,35.1464,0,0,0,28.3115,0l40.8418-18.019,40.8428,18.0195a35.1484,35.1484,0,0,0,28.3115,0l40.8447-18.0195,40.8448,18.02a35.1489,35.1489,0,0,0,28.31.001L464,328.0544V288A42,42,0,0,0,422,246Z" class="cls-1"/>
  <path d="M424.9956,377.9854a71.0735,71.0735,0,0,1-28.688-6.0328l-26.313-11.6088-26.3139,11.6093a71.2313,71.2313,0,0,1-57.3736-.001l-26.3115-11.6083-26.31,11.6079a71.2176,71.2176,0,0,1-57.3745,0l-26.313-11.6083-26.311,11.6083a71.22,71.22,0,0,1-57.374,0L48,363.873V480a16,16,0,0,0,16,16H448a16,16,0,0,0,16-16V367.4017l-10.3208,4.5529A71.086,71.086,0,0,1,424.9956,377.9854Z" class="cls-1"/>
</svg>
