<svg xmlns="http://www.w3.org/2000/svg" id="export" viewBox="0 0 512 512">
  <defs>
    <style>
      .cls-1{fill:currentColor}
    </style>
  </defs>
  <path d="M456,240A168,168,0,0,0,288,72H263V249H456Z" class="cls-1"/>
  <path d="M191.4166,400a64.0135,64.0135,0,0,0-52.9024-31.9365C137.6788,368.0313,136.8433,368,136,368c-.4148,0-.824.0234-1.2371.0313A63.9951,63.9951,0,1,0,191.4166,400Z" class="cls-1"/>
  <path d="M430.5305,369.677A63.9968,63.9968,0,1,0,480,432,64.1338,64.1338,0,0,0,430.5305,369.677Z" class="cls-1"/>
  <path d="M131.08,174.5713A56.8479,56.8479,0,0,0,75.6846,131H16v42H75.6846a14.96,14.96,0,0,1,14.5776,11.4663L105.9068,249h43.2165Z" class="cls-1"/>
  <path fill="currentColor" d="M263,249H105.9068l20.239,83.4856q2.1807-.2142,4.3878-.3344,2.7153-.147,5.4664-.1512a100.0105,100.0105,0,0,1,94.75,68h90.5a100.0294,100.0294,0,0,1,118.5616-65.1277L456,274.1666V249Z" opacity=".25"/>
</svg>
