<svg xmlns="http://www.w3.org/2000/svg" id="export" viewBox="0 0 512 512">
  <defs>
    <style>
      .cls-2{fill:currentColor}
    </style>
  </defs>
  <path fill="currentColor" d="M410.0446,97.5032c-3.5093-1.53-7.0335-3.0242-10.5845-4.4486-2.8792-1.1548-5.7764-2.262-8.6816-3.3468q-5.9427-2.2188-11.9494-4.2535a385.2537,385.2537,0,0,0-245.6582,0q-6.0106,2.0214-11.9494,4.2535c-2.9052,1.0848-5.8024,2.192-8.6816,3.3468-3.5511,1.4244-7.0752,2.9182-10.5845,4.4486A385.2025,385.2025,0,0,0,35,135.03l47.5893,67.9647a302.3432,302.3432,0,0,1,346.8214,0L477,135.03A385.2025,385.2025,0,0,0,410.0446,97.5032Z" opacity=".25"/>
  <path d="M102.0894,230.8437l43.6428,62.3284a192.2452,192.2452,0,0,1,220.5356,0l43.6428-62.3284a268.3346,268.3346,0,0,0-307.8212,0Z" class="cls-2"/>
  <path d="M319.2682,305.608q-3.0041-1.31-6.0579-2.4944-3.3551-1.3011-6.7627-2.4543a158.32,158.32,0,0,0-19.865-5.2694q-.48-.0945-.96-.1863-5.6925-1.0849-11.4677-1.7566a158.1977,158.1977,0,0,0-36.31,0q-5.7723.6667-11.4677,1.7566-.48.0917-.96.1863a158.32,158.32,0,0,0-19.865,5.2694q-3.4092,1.1468-6.7627,2.4543-3.0534,1.1838-6.0579,2.4944c-1.3211.5764-2.6374,1.1641-3.943,1.7767a158.1967,158.1967,0,0,0-23.5566,13.6364L256,450.6509l90.7678-129.63a158.1967,158.1967,0,0,0-23.5566-13.6364C321.9056,306.7721,320.5893,306.1844,319.2682,305.608Z" class="cls-2"/>
</svg>
