<svg xmlns="http://www.w3.org/2000/svg" id="export" viewBox="0 0 512 512">
  <defs>
    <style>
      .cls-1{fill:currentColor}
    </style>
  </defs>
  <path d="M139,256a116.76,116.76,0,0,1,3.54-28.6L76.47,161.33,45.54,130.39a245.66,245.66,0,0,0,.33,251.77l30.82-31.09,65.86-66.45A116.44,116.44,0,0,1,139,256Z" class="cls-1"/>
  <path d="M227.4,142.54a117.26,117.26,0,0,1,57.23,0l66.45-65.86,31.09-30.81a245.65,245.65,0,0,0-251.78-.34l30.94,30.93Z" class="cls-1"/>
  <path d="M284.6,369.46a117.22,117.22,0,0,1-57.18,0l-65.69,66.28L131,466.79a245.66,245.66,0,0,0,250.66-.33l-30.94-30.93Z" class="cls-1"/>
  <path d="M466.8,131l-31.06,30.78-66.28,65.68a117.22,117.22,0,0,1,0,57.18l66.07,66.07,30.93,30.94A245.68,245.68,0,0,0,466.8,131Z" class="cls-1"/>
  <g opacity=".25">
    <path d="M142.54,227.4a117.43,117.43,0,0,1,84.86-84.86L161.33,76.47,130.39,45.54a248.2,248.2,0,0,0-84.85,84.85l30.93,30.94Z" class="cls-1"/>
    <path d="M369.46,284.6a117.43,117.43,0,0,1-84.86,84.86l66.07,66.07,30.94,30.93a248.2,248.2,0,0,0,84.85-84.85l-30.93-30.94Z" class="cls-1"/>
    <path d="M369.46,227.42l66.28-65.68L466.8,131a248.14,248.14,0,0,0-84.63-85.08L351.08,76.69l-66.45,65.86A117.39,117.39,0,0,1,369.46,227.42Z" class="cls-1"/>
    <path d="M142.55,284.62,76.69,351.07,45.87,382.16A248.14,248.14,0,0,0,131,466.79l30.78-31.05,65.69-66.28A117.4,117.4,0,0,1,142.55,284.62Z" class="cls-1"/>
  </g>
</svg>
