<svg xmlns="http://www.w3.org/2000/svg" id="export" viewBox="0 0 512 512">
  <defs>
    <style>
      .cls-1{fill:currentColor}
    </style>
  </defs>
  <path d="M368,112H288v64h80a80,80,0,0,1,0,160H288v64h80c79.4023,0,144-64.5981,144-144S447.4023,112,368,112Z" class="cls-1"/>
  <path d="M64,256a80.09,80.09,0,0,1,80-80h80V112H144C64.5977,112,0,176.5981,0,256S64.5977,400,144,400h80V336H144A80.09,80.09,0,0,1,64,256Z" class="cls-1"/>
  <polygon fill="currentColor" points="372 280.652 372 232.652 288 232.652 224 232.652 140 232.652 140 280.652 224 280.652 288 280.652 372 280.652" opacity=".25"/>
</svg>
