<svg xmlns="http://www.w3.org/2000/svg" id="export" viewBox="0 0 512 512">
  <defs>
    <style>
      .cls-1{fill:currentColor;opacity:.25}
    </style>
  </defs>
  <path d="M471.8613,354.251C462.0737,349.6846,449.8926,344,427.4248,344s-34.6489,5.6846-44.4365,10.251C375.57,357.7129,370.6689,360,358.8491,360s-16.7192-2.2871-24.1372-5.748C324.9248,349.6846,312.7446,344,290.2773,344s-34.6474,5.6846-44.4345,10.252C238.4253,357.7129,233.5254,360,221.707,360s-16.7168-2.2871-24.1338-5.748C187.7861,349.6846,175.6064,344,153.14,344s-34.6474,5.6846-44.4345,10.252C101.2881,357.7129,96.3882,360,84.57,360s-16.7182-2.2871-24.1357-5.748C50.6475,349.6846,38.4673,344,16,344v48c11.8184,0,16.7183,2.2871,24.1357,5.748C49.9229,402.3154,62.1035,408,84.57,408s34.647-5.6846,44.4341-10.252C136.4219,394.2871,141.3218,392,153.14,392s16.7168,2.2871,24.1333,5.748C187.0605,402.3154,199.24,408,221.707,408s34.6475-5.6846,44.4346-10.252c7.4175-3.4609,12.3174-5.748,24.1357-5.748s16.7188,2.2871,24.1363,5.748C324.2012,402.3154,336.3818,408,358.8491,408s34.6494-5.6846,44.437-10.251c7.4185-3.4619,12.3189-5.749,24.1387-5.749s16.7207,2.2871,24.1387,5.749C461.3511,402.3154,473.5322,408,496,408V360C484.18,360,479.2793,357.7129,471.8613,354.251Z" class="cls-1"/>
  <path d="M427.4248,432c-22.4678,0-34.6489,5.6846-44.4365,10.251C375.57,445.7129,370.6689,448,358.8491,448s-16.7192-2.2871-24.1372-5.748C324.9248,437.6846,312.7446,432,290.2773,432s-34.6474,5.6846-44.4345,10.252C238.4253,445.7129,233.5254,448,221.707,448s-16.7168-2.2871-24.1338-5.748C187.7861,437.6846,175.6064,432,153.14,432s-34.6474,5.6846-44.4345,10.252C101.2881,445.7129,96.3882,448,84.57,448s-16.7182-2.2871-24.1357-5.748C50.6475,437.6846,38.4673,432,16,432v48c11.8184,0,16.7183,2.2871,24.1357,5.748C49.9229,490.3154,62.1035,496,84.57,496s34.647-5.6846,44.4341-10.252C136.4219,482.2871,141.3218,480,153.14,480s16.7168,2.2871,24.1333,5.748C187.0605,490.3154,199.24,496,221.707,496s34.6475-5.6846,44.4346-10.252c7.4175-3.4609,12.3174-5.748,24.1357-5.748s16.7188,2.2871,24.1363,5.748C324.2012,490.3154,336.3818,496,358.8491,496s34.6494-5.6846,44.437-10.251c7.4185-3.4619,12.3189-5.749,24.1387-5.749s16.7207,2.2871,24.1387,5.749C461.3511,490.3154,473.5322,496,496,496V448c-11.82,0-16.7207-2.2871-24.1387-5.749C462.0737,437.6846,449.8926,432,427.4248,432Z" class="cls-1"/>
  <path fill="currentColor" d="M256,280H384v40h48V115.8779a39.8362,39.8362,0,0,1,7.0381-22.6611L492.1245,16h-58.249L399.4839,66.0244A87.6277,87.6277,0,0,0,384,115.8779V136H256V115.8779a39.8362,39.8362,0,0,1,7.0381-22.6611L316.1245,16h-58.249L223.4839,66.0244A87.6277,87.6277,0,0,0,208,115.8779V320h48Zm0-96H384v48H256Z"/>
</svg>
