<svg xmlns="http://www.w3.org/2000/svg" id="export" viewBox="0 0 512 512">
  <defs>
    <style>
      .cls-1{fill:#fff}.cls-3{fill:currentColor}
    </style>
  </defs>
  <path d="M17.1025,233H8.0288v48h9.2629A242.775,242.775,0,0,1,16,256C16,248.2405,16.3826,240.571,17.1025,233Z" class="cls-1"/>
  <g opacity=".25">
    <path d="M72.23,101.6517A238.9141,238.9141,0,0,0,17.1025,233c-.72,7.571-1.1025,15.24-1.1025,23a242.775,242.775,0,0,0,1.2917,25C28.9805,393.9241,118.9642,483.5984,232.0288,494.8113Q243.8563,495.9843,256,496q12.1656,0,24.0288-1.1938a238.92,238.92,0,0,0,130.32-55.0362Z" class="cls-3"/>
    <path d="M316.5676,235.5969h0l.685.6851L461.3157,380.345A238.4975,238.4975,0,0,0,494.7083,281,242.775,242.775,0,0,0,496,256c0-7.76-.3826-15.429-1.1025-23C484.0706,119.147,393.717,28.4825,280,17.1912Q268.1586,16.0153,256,16q-12.1509,0-24,1.1912A238.51,238.51,0,0,0,131.5554,50.7431L276.1963,195.26Z" class="cls-3"/>
  </g>
  <path fill="none" d="M440.0234,410.0485,496,466.0249v-.08L440.0481,410.02Z"/>
  <path d="M17.1025,233H8.0288v48h9.2629A242.775,242.775,0,0,1,16,256C16,248.2405,16.3826,240.571,17.1025,233Z" class="cls-1"/>
  <path d="M280,17.1912Q268.1586,16.0153,256,16q-12.1509,0-24,1.1912V88h48Z" class="cls-3"/>
  <path d="M232.0288,494.8113Q243.8563,495.9843,256,496q12.1656,0,24.0288-1.1938V424h-48Z" class="cls-3"/>
  <path d="M16,256a242.775,242.775,0,0,0,1.2917,25H88.0576V233H17.1025C16.3826,240.571,16,248.2405,16,256Z" class="cls-3"/>
  <path d="M494.8975,233H424.0288v48h70.68A242.775,242.775,0,0,0,496,256C496,248.2405,495.6174,240.571,494.8975,233Z" class="cls-3"/>
  <path d="M316.5679,235.5969l.685.6851L347.5708,175.62a8,8,0,0,0-10.7386-10.7295L276.1963,195.26l40.3713,40.3368Z" class="cls-3"/>
  <path d="M440.0234,410.0485,326.9263,296.9514l-26.6714-26.6587L242.2144,212.28,101.8936,72.0255,45.8414,16H16V45.4219l56.23,56.23L212.5781,242,165.39,336.3345a8,8,0,0,0,10.7276,10.7368l94.4077-47.124L410.3484,439.77l56.23,56.23H496V466.0249Z" class="cls-3"/>
  <polygon points="300.255 270.293 326.926 296.951 300.259 270.284 300.255 270.293" class="cls-1"/>
  <path d="M101.9513,71.9766l-.0577.0489L242.2144,212.28l.0268-.0134Z" class="cls-1"/>
  <polygon points="242.241 212.266 242.214 212.28 300.255 270.293 300.259 270.284 242.241 212.266" class="cls-1"/>
</svg>
