<svg xmlns="http://www.w3.org/2000/svg" id="export" viewBox="0 0 512 512">
  <defs>
    <style>
      .cls-2{fill:currentColor}
    </style>
  </defs>
  <path fill="currentColor" d="M256,175.8572a320.145,320.145,0,0,1,39.3008,2.4325,120.2612,120.2612,0,0,1-1.8653-21.1413V105.9362H293V89.696Q274.6009,88.02,256,88a407.9918,407.9918,0,0,0-130.0649,21.29q-6.3648,2.1405-12.6534,4.5041-1.9995.7465-3.99,1.5142a407.9731,407.9731,0,0,0-59.1641,28.4589q-5.684,3.3222-11.2671,6.8357-3.6565,2.2992-7.2688,4.6785c-3.2278,2.126-6.4377,4.2835-9.61,6.5049l50.3925,71.9684A320.1791,320.1791,0,0,1,256,175.8572Z" opacity=".25"/>
  <path d="M309.4146,216.9293A284.0615,284.0615,0,0,0,93.0225,263.2438l46.2138,66a203.5718,203.5718,0,0,1,233.5274,0l36.5332-52.1746A120.1032,120.1032,0,0,1,309.4146,216.9293Z" class="cls-2"/>
  <path d="M181.95,345.6782q-1.4334.7061-2.8545,1.44a167.5634,167.5634,0,0,0-19.2107,11.6155L256,496l96.1152-137.2665h0A167.57,167.57,0,0,0,181.95,345.6782Z" class="cls-2"/>
  <path d="M471.9355,104V75.5273a60.25,60.25,0,0,0-120.5,0V104h-22v53.1484a84,84,0,0,0,168,0V104Zm-36-2h-48.5V75.5273a24.25,24.25,0,0,1,48.5,0Z" class="cls-2"/>
</svg>
