<svg xmlns="http://www.w3.org/2000/svg" id="export" viewBox="0 0 512 512">
  <defs>
    <style>
      .cls-1{fill:currentColor}
    </style>
  </defs>
  <polygon points="429.009 16.005 389 34.938 389 475.215 431.189 496.072 495.925 496.072 496.008 16.005 429.009 16.005" class="cls-1"/>
  <polygon fill="currentColor" points="173 368 347 454.451 347 54.813 173 136 66.388 136 16 176.31 16 347.734 23.134 368 33.694 398 68.192 496 174.846 496 139.198 398 128.286 368 146 368 173 368" opacity=".25"/>
  <polygon points="139.198 398 128.286 368 146 368 173 368 173 136 66.388 136 16 176.31 16 347.734 23.134 368 33.694 398 68.192 496 174.846 496 139.198 398" class="cls-1"/>
</svg>
