<svg xmlns="http://www.w3.org/2000/svg" viewBox="0 0 512 512">
  <path fill="currentColor" d="M472,88H400V16H336V88H176V16H112V88H40a24.0275,24.0275,0,0,0-24,24V448a24.0275,24.0275,0,0,0,24,24H472a24.0275,24.0275,0,0,0,24-24V112A24.0275,24.0275,0,0,0,472,88Z" opacity=".25"/>
  <polygon fill="currentColor" points="200.971 376.971 256 321.941 311.029 376.971 344.971 343.029 289.941 288 344.971 232.971 311.029 199.029 256 254.059 200.971 199.029 167.029 232.971 222.059 288 167.029 343.029 200.971 376.971"/>
</svg>
