<svg xmlns="http://www.w3.org/2000/svg" id="export" viewBox="0 0 512 512">
  <defs>
    <style>
      .cls-1,.cls-2{fill:currentColor}.cls-1{opacity:.25}
    </style>
  </defs>
  <polygon points="96 179.516 37.04 221.631 96 259.426 96 179.516" class="cls-1"/>
  <polygon points="416 179.516 416 260.789 476.308 222.594 416 179.516" class="cls-1"/>
  <polygon points="240.941 307.765 256 299.733 271.059 307.765 309.476 328.254 384 281.056 384 156.659 384 48 128 48 128 156.659 128 279.938 202.987 328.007 240.941 307.765" class="cls-1"/>
  <polygon points="416 298.667 341.943 345.57 416 385.067 496 427.733 496 248 416 298.667" class="cls-2"/>
  <polygon points="170.62 345.269 96 297.436 16 246.154 16 427.733 96 385.067 170.62 345.269" class="cls-2"/>
  <polygon points="310.857 365.257 278.39 347.942 256 336 233.869 347.803 201.502 365.065 96 421.333 16 464 16 496 496 496 496 464 416 421.333 310.857 365.257" class="cls-2"/>
</svg>
