<svg xmlns="http://www.w3.org/2000/svg" viewBox="0 0 512 512">
  <path fill="currentColor" d="M426.7515,160.9131c-11.7349-29.5479-30.877-54.6348-55.3428-72.54A153.7734,153.7734,0,0,0,308.06,61.0781c-1.927-.36-3.8719-.675-5.8255-.9644a172.5039,172.5039,0,0,0-54.4973.8248c-42.7334,7.47-83.7905,30.8691-115.6074,65.8857-31.8477,35.05-52.5957,79.8623-58.4224,126.1807-5.9165,47.0449,3.875,92.8691,27.5708,129.0322,23.9751,36.59,60.4566,61.06,102.7183,68.8994.4927.0916.99.1707,1.4844.2576A165.8192,165.8192,0,0,0,234.15,453.68a174.3622,174.3622,0,0,0,30.05-2.624c26.0181-4.5225,51.0342-14.69,74.3516-30.2188,54.2514-36.1211,91.5376-96.623,99.7407-161.84C442.6084,224.708,438.6177,190.791,426.7515,160.9131ZM332.6,251.917c-8.7778,50.85-31.7358,97.5859-61.418,125.0254-11.0239,10.1992-22.4746,17.0371-33.1494,19.7842A42.2655,42.2655,0,0,1,227.47,398.13a33.7507,33.7507,0,0,1-8.591-1.0916c-.28-.0727-.5625-.13-.8416-.21C189.04,388.47,166.772,335.0342,179.7,260.084c6.27-36.3106,20.0762-71.3213,38.8745-98.582,16.9805-24.625,37.2705-41.4776,55.6348-46.2286A42.7845,42.7845,0,0,1,284.83,113.87a35.2963,35.2963,0,0,1,4.0439.2476,32.8566,32.8566,0,0,1,5.378,1.0542l.0253.0078c7.2872,2.1025,13.9781,6.8555,19.8838,14.1221C334.314,154.1123,341.3794,201.0947,332.6,251.917Z" opacity=".25"/>
  <path fill="currentColor" d="M264.2,451.0557c26.0181-4.5225,51.0342-14.69,74.3516-30.2188,54.2514-36.1211,91.5376-96.623,99.7407-161.84,4.3164-34.2891.3257-68.2061-11.54-98.084-11.7349-29.5479-30.877-54.6348-55.3428-72.54A153.7734,153.7734,0,0,0,308.06,61.0781c-1.927-.36-3.8719-.675-5.8255-.9644l-13.3606,54.004a32.8566,32.8566,0,0,1,5.378,1.0542l.0253.0078c7.2872,2.1025,13.9781,6.8555,19.8838,14.1221C334.314,154.1123,341.3794,201.0947,332.6,251.917c-8.7778,50.85-31.7358,97.5859-61.418,125.0254-11.0239,10.1992-22.4746,17.0371-33.1494,19.7842A42.2655,42.2655,0,0,1,227.47,398.13a33.7507,33.7507,0,0,1-8.591-1.0916L205.481,451.1941A165.8192,165.8192,0,0,0,234.15,453.68,174.3622,174.3622,0,0,0,264.2,451.0557Z"/>
</svg>
