<svg xmlns="http://www.w3.org/2000/svg" viewBox="0 0 512 512">
  <path fill="currentColor" d="M479,228H347a50,50,0,0,0-50,50v20a50,50,0,0,0,50,50H479a14,14,0,0,0,14-14V242A14,14,0,0,0,479,228Zm-90,80H349V268h40Z" opacity=".25"/>
  <rect width="40" height="40" x="349" y="268" fill="none"/>
  <path fill="currentColor" d="M347,192H455V136c.0444-12.5859-7.7417-23.8633-21.27-28.3044A14.4752,14.4752,0,0,0,429.2161,107H61v-4.3489A33.6529,33.6529,0,0,1,94.6511,69H397V27H95.58A76.8317,76.8317,0,0,0,42.7712,47.5759,75.178,75.178,0,0,0,19,102.627V401.5056a37.571,37.571,0,0,0,1.83,11.677C32.3276,448.3389,61.9043,469,94.6558,469H425.0017A29.0516,29.0516,0,0,0,454,440.095V384H347a86,86,0,0,1-86-86V278A86,86,0,0,1,347,192Z"/>
</svg>
