<svg xmlns="http://www.w3.org/2000/svg" viewBox="0 0 512 512">
  <polygon fill="currentColor" points="149 117 216 117 216 283 176 283 176 325 336 325 336 283 296 283 296 117 363 117 363 152 405 152 405 75 107 75 107 152 149 152 149 117"/>
  <polygon fill="currentColor" points="415.343 300.876 410.325 300.876 410.325 363 101.675 363 101.675 300.876 95.915 300.876 16 380.792 96.657 461.449 101.675 461.449 101.675 405 410.325 405 410.325 461.449 416.085 461.449 496 381.533 415.343 300.876" opacity=".25"/>
</svg>
