<svg xmlns="http://www.w3.org/2000/svg" id="export" viewBox="0 0 512 512">
  <defs>
    <style>
      .cls-1{fill:currentColor}
    </style>
  </defs>
  <path d="M321.4,113.4a8,8,0,0,0-11.32,0h0a65.54,65.54,0,0,0,0,92.68L352,248v8H112a24,24,0,0,0-24,24h0a24,24,0,0,0,24,24H288v16H72a24,24,0,0,0-24,24h0a24,24,0,0,0,24,24H288v16H112a24,24,0,0,0-24,24h0a24,24,0,0,0,24,24H288v16H176a24,24,0,0,0-24,24h0a24,24,0,0,0,24,24H352l144-32V288Z" class="cls-1"/>
  <g opacity=".25">
    <path d="M275,158.76a81.32,81.32,0,0,1,17.86-50L207.1,23A24,24,0,0,0,173.16,57Z" class="cls-1"/>
    <path d="M456,70.26a8,8,0,0,0-8-8,65.54,65.54,0,0,0-65.54,65.54v24L456,225.37Z" class="cls-1"/>
    <path d="M175.17,240h67.88L116.59,113.54a24,24,0,0,0-33.94,0h0a24,24,0,0,0,0,33.94Z" class="cls-1"/>
    <path d="M265.68,240h55.69l-22.6-22.6a81.13,81.13,0,0,1-19.66-31.85L133.56,40A24,24,0,0,0,99.62,73.94Z" class="cls-1"/>
    <path d="M84.66,240h67.88L104,191.48a24,24,0,0,0-33.94,33.94Z" class="cls-1"/>
  </g>
</svg>
