<svg xmlns="http://www.w3.org/2000/svg" id="export" viewBox="0 0 512 512">
  <defs>
    <style>
      .cls-1{fill:currentColor}
    </style>
  </defs>
  <polygon points="216 215.06 280 151.14 280 128 280 48 280 24 80 64 80 168 216 140.8 216 215.06" class="cls-1"/>
  <path d="M216,325.42V384c0,57.44,52.08,104,116.32,104s116.32-46.56,116.32-104S396.56,280,332.32,280A127,127,0,0,0,280,291.1V261.42Z" class="cls-1"/>
  <polygon fill="currentColor" points="496 45.42 496 16 466.29 16 16 466.46 16 496 45.42 496 216 325.42 280 261.42 496 45.42" opacity=".25"/>
</svg>
