<svg xmlns="http://www.w3.org/2000/svg" id="export" viewBox="0 0 512 512">
  <defs>
    <style>
      .cls-1{fill:currentColor}
    </style>
  </defs>
  <path d="M16.45,440.62c.15-1.16.34-2.32.56-3.47C16.79,438.3,16.6,439.46,16.45,440.62Z" class="cls-1"/>
  <path d="M19.78,427.57c.26-.69.54-1.37.83-2.05C20.32,426.2,20,426.88,19.78,427.57Z" class="cls-1"/>
  <circle cx="382.5" cy="392.5" r="108.5" fill="currentColor" opacity=".25"/>
  <polygon points="401 377 401 330 369 330 369 377 321 377 321 410 369 410 369 457 401 457 401 410 449 410 449 377 401 377" class="cls-1"/>
  <path d="M247,392.5a136,136,0,0,1,3-28.37l-26.74-16.9,33.41-52.49a63.48,63.48,0,0,0,4.22-7.82,62.54,62.54,0,0,0,5.56-25.8V195.88c0-1.57,0-3.12-.11-4.66a91.43,91.43,0,0,0-.93-9.12c-.23-1.49-.49-3-.79-4.45s-.64-2.93-1-4.38c-.19-.72-.38-1.44-.59-2.15a88.18,88.18,0,0,0-2.84-8.4c-.81-2.06-1.69-4.07-2.64-6.05-.64-1.32-1.3-2.62-2-3.9-.35-.64-.7-1.28-1.07-1.91-.72-1.26-1.48-2.5-2.26-3.73-.39-.61-.79-1.22-1.2-1.82q-2.53-3.75-5.42-7.22h0q-2-2.37-4.11-4.61-1.5-1.57-3.07-3.07-3.13-3-6.56-5.68c-1.14-.9-2.3-1.76-3.48-2.6a90.45,90.45,0,0,0-104.7,0c-1.18.84-2.34,1.7-3.48,2.6q-3.42,2.68-6.56,5.68-1.58,1.5-3.07,3.07a90.86,90.86,0,0,0-7,8.29q-1.31,1.74-2.52,3.54c-.41.6-.81,1.21-1.2,1.82-.78,1.23-1.54,2.47-2.26,3.73-.37.63-.72,1.27-1.07,1.91-.7,1.28-1.36,2.58-2,3.9-1,2-1.83,4-2.64,6.05-.54,1.36-1,2.75-1.52,4.15s-.92,2.82-1.32,4.25c-.21.71-.4,1.43-.59,2.15-.37,1.45-.71,2.91-1,4.38s-.56,3-.79,4.45-.42,3-.58,4.53-.27,3.05-.35,4.59-.11,3.09-.11,4.66v65.24a62.54,62.54,0,0,0,5.56,25.8,63.48,63.48,0,0,0,4.22,7.82l33.41,52.49L41.92,402.1l-1.49,1c-1,.67-1.94,1.36-2.88,2.09l-1.37,1.1A55.71,55.71,0,0,0,20.61,427c-.29.68-.57,1.36-.83,2.05A55.33,55.33,0,0,0,17,438.59c-.22,1.15-.41,2.31-.56,3.48a55.39,55.39,0,0,0-.45,7.08V496l278.55-.43A135.2,135.2,0,0,1,247,392.5Z" class="cls-1"/>
  <path d="M302.43,195.88v65.24a98.57,98.57,0,0,1-3.05,24.37A134.92,134.92,0,0,1,382.5,257l1.23,0,32.92-51.73a62.59,62.59,0,0,0,9.78-33.61V106.43a90.44,90.44,0,0,0-179.57-15.3,127.66,127.66,0,0,1,18.54,15.34A125.61,125.61,0,0,1,302.43,195.88Z" class="cls-1" opacity=".25"/>
</svg>
