<svg xmlns="http://www.w3.org/2000/svg" id="export" viewBox="0 0 512 512">
  <defs>
    <style>
      .cls-2{fill:currentColor}
    </style>
  </defs>
  <g opacity=".25">
    <path d="M256,16A238.8793,238.8793,0,0,0,131.655,50.6842l77.3909,77.3908L256.9707,176l59.5967,59.5969h0L461.3159,380.345A238.8823,238.8823,0,0,0,496,256C496,123.4517,388.5483,16,256,16Z" class="cls-2"/>
    <path d="M303.9106,333.3333,250.5776,280l-50.8271-50.8274L186.8271,216.25,142.93,172.3521l-70.7-70.7A239.0188,239.0188,0,0,0,16,256c0,132.5483,107.4517,240,240,240a239.0173,239.0173,0,0,0,154.3477-56.2295l-71.7759-71.7762Z" class="cls-2"/>
    <path d="M262.06,232l-55.4707-55.47c-.0235.0047-.0474.0081-.0708.0129L261.9756,232Z" class="cls-2"/>
  </g>
  <path d="M440.0239,410.0482,101.9517,71.9762,45.9756,16H16V45.4219l56.23,56.23,70.7,70.7A75.9516,75.9516,0,0,0,212,280h38.5776l53.333,53.3333A27.8264,27.8264,0,0,1,292,336H160v48h72v48h48V384h12a75.599,75.599,0,0,0,46.5718-16.0057l71.7759,71.7762L466.5771,496H496V466.0244Z" class="cls-2"/>
  <path d="M344,176V128H280V80H232v48H212c-.9907,0-1.9727.0371-2.9541.075L256.9707,176Z" class="cls-2"/>
  <path d="M262.06,232l-55.4707-55.47c-.0235.0047-.0474.0081-.0708.0129L261.9756,232Z" class="cls-2"/>
</svg>
