<svg xmlns="http://www.w3.org/2000/svg" id="export" viewBox="0 0 512 512">
  <defs>
    <style>
      .cls-2{fill:currentColor}
    </style>
  </defs>
  <path fill="currentColor" d="M425.39,200.0352A184.3847,184.3847,0,0,0,299.1214,93.0893L324.3521,52.72,283.6479,27.28,245.5134,88.2951A184.0912,184.0912,0,0,0,86.61,200.0352a71.9778,71.9778,0,0,0,0,143.93,184.0709,184.0709,0,0,0,338.78,0,71.9778,71.9778,0,0,0,0-143.93Z" opacity=".25"/>
  <rect width="36" height="36" x="306" y="222" class="cls-2"/>
  <rect width="36" height="36" x="170" y="222" class="cls-2"/>
  <path d="M256,384a88,88,0,0,0,88-88H168A88,88,0,0,0,256,384Z" class="cls-2"/>
</svg>
