<svg xmlns="http://www.w3.org/2000/svg" id="export" viewBox="0 0 512 512">
  <defs>
    <style>
      .cls-1,.cls-2{fill:currentColor}.cls-1{opacity:.25}.cls-3{fill:none}
    </style>
  </defs>
  <path d="M248,96a32,32,0,0,0-32-32H48A32,32,0,0,0,16,96v82.0381H248Z" class="cls-1"/>
  <path d="M248,267V214.0381H16V496H248V267Z" class="cls-2"/>
  <circle cx="368" cy="160" r="27" class="cls-3"/>
  <circle cx="368" cy="160" r="27" class="cls-3"/>
  <path d="M453,199.7056a545.4106,545.4106,0,0,0-12.1943-114.583L425.9253,16H382.9639l16.7832,77.9614c.3857,1.7912.7549,3.5862,1.1211,5.382A69.0143,69.0143,0,1,0,411,213.9044V242h42ZM368,187a27,27,0,1,1,27-27A27.0308,27.0308,0,0,1,368,187Z" class="cls-2"/>
  <path d="M323,332v96a65,65,0,0,0,130,0V242H411V428a23,23,0,0,1-46,0V332a65.0737,65.0737,0,0,0-65-65H248v42h52A23.0259,23.0259,0,0,1,323,332Z" class="cls-1"/>
</svg>
