<svg xmlns="http://www.w3.org/2000/svg" id="export" viewBox="0 0 512 512">
  <defs>
    <style>
      .cls-1,.cls-2{fill:currentColor}.cls-2{opacity:.25}
    </style>
  </defs>
  <path d="M448,101a29.0328,29.0328,0,0,0,29-29V16H435V59H264a29.0328,29.0328,0,0,0-29,29v56h42V101Z" class="cls-1"/>
  <path d="M235,184V144H203.1709a72.6255,72.6255,0,0,0-72.6255,72.6255V251H235Z" class="cls-2"/>
  <path d="M130.5454,376.5715A119.4286,119.4286,0,0,0,249.9739,496h12.0522A119.4286,119.4286,0,0,0,381.4546,376.5715V293H130.5454Z" class="cls-1"/>
  <path d="M277,251H381.4546V216.6255A72.6255,72.6255,0,0,0,308.8291,144H277V251Z" class="cls-2"/>
</svg>
