<svg xmlns="http://www.w3.org/2000/svg" viewBox="0 0 512 512">
  <path fill="currentColor" d="M394.6328,220.6621,269.4746,25.1729a15.9992,15.9992,0,0,0-26.9492,0L117.3672,220.6621A170.5025,170.5025,0,0,0,84.1,322.3c0,94.7861,77.1143,171.9,171.9,171.9s171.9-77.1143,171.9-171.9A170.5025,170.5025,0,0,0,394.6328,220.6621Z" opacity=".25"/>
  <path fill="currentColor" d="M394.6328,220.6621,269.4746,25.1729A15.9973,15.9973,0,0,0,256,17.8V494.2c94.7861,0,171.9-77.1143,171.9-171.9A170.5025,170.5025,0,0,0,394.6328,220.6621Z"/>
</svg>
