<svg xmlns="http://www.w3.org/2000/svg" id="export" viewBox="0 0 512 512">
  <defs>
    <style>
      .cls-1{fill:currentColor}
    </style>
  </defs>
  <path d="M280,112H448a32.0364,32.0364,0,0,0,32-32V16H432V64H264a32.0364,32.0364,0,0,0-32,32v82.8571h48Z" class="cls-1"/>
  <path d="M376,178.8571H136a120,120,0,0,0-120,120V415.5928A80.4072,80.4072,0,0,0,96.4072,496h1.9322A80.4071,80.4071,0,0,0,160.11,467.0682l61.6045-82.4968h68.5712L351.86,464.6179A80.4073,80.4073,0,0,0,496,415.5928V298.8571A120,120,0,0,0,376,178.8571Z" class="cls-1" opacity=".25"/>
  <rect width="42" height="42" x="355" y="227" class="cls-1"/>
  <rect width="42" height="42" x="355" y="339" class="cls-1"/>
  <rect width="42" height="42" x="299" y="283" class="cls-1"/>
  <rect width="42" height="42" x="411" y="283" class="cls-1"/>
  <polygon points="157 283 157 248 115 248 115 283 80 283 80 325 115 325 115 360 157 360 157 325 192 325 192 283 157 283" class="cls-1"/>
</svg>
