<svg xmlns="http://www.w3.org/2000/svg" id="export" viewBox="0 0 512 512">
  <defs>
    <style>
      .cls-1{fill:currentColor}
    </style>
  </defs>
  <polygon points="376.971 296 400 296 400 240 320.971 240 376.971 296" class="cls-1"/>
  <polygon points="266.578 296 224 253.422 210.578 240 136 240 136 296 224 296 266.578 296" class="cls-1"/>
  <polygon points="136 336 136 392 224 392 224 472 288 472 288 392 362.578 392 306.578 336 136 336" class="cls-1"/>
  <polygon points="425.2 91.722 374.8 52.278 268.753 187.782 314.343 233.372 425.2 91.722" class="cls-1"/>
  <polygon fill="currentColor" points="376 346.024 365.976 336 357.976 328 333.976 304 325.976 296 291.955 261.979 288 258.024 269.976 240 246.365 216.389 45.976 16 16 16 16 45.422 210.578 240 224 253.422 266.578 296 274.578 304 288 317.422 298.578 328 306.578 336 362.578 392 466.578 496 496 496 496 466.024 376 346.024" opacity=".25"/>
  <path fill="#fff" d="M72,16v-.1982c-.0752.0664-.1517.1315-.2269.1982Z"/>
</svg>
