<svg xmlns="http://www.w3.org/2000/svg" id="export" viewBox="0 0 512 512">
  <defs>
    <style>
      .cls-2{fill:currentColor}
    </style>
  </defs>
  <path fill="currentColor" d="M472,88H400V16H336V88H176V16H112V88H40a24.0275,24.0275,0,0,0-24,24V448a24.0275,24.0275,0,0,0,24,24H472a24.0275,24.0275,0,0,0,24-24V112A24.0275,24.0275,0,0,0,472,88Z" opacity=".25"/>
  <rect width="64" height="64" x="104" y="192" class="cls-2"/>
  <rect width="64" height="64" x="224" y="192" class="cls-2"/>
  <rect width="64" height="64" x="344" y="192" class="cls-2"/>
  <rect width="64" height="64" x="104" y="312" class="cls-2"/>
  <rect width="64" height="64" x="224" y="312" class="cls-2"/>
  <rect width="64" height="64" x="344" y="312" class="cls-2"/>
</svg>
