<svg xmlns="http://www.w3.org/2000/svg" id="export" viewBox="0 0 512 512">
  <defs>
    <style>
      .cls-2{fill:currentColor}
    </style>
  </defs>
  <path d="M185.6133,290.4514l50.9194-32.7339L256,245.2029l19.4673,12.5146,50.9194,32.7339L465.8242,182H466L274.6,45.2854a32,32,0,0,0-37.1992,0L46,182h.1758Z" class="cls-2" opacity=".25"/>
  <polygon points="33.824 218 32 218 32 389.203 153.51 311.089 33.824 218" class="cls-2"/>
  <polygon points="478.176 218 358.49 311.089 480 389.203 480 218 478.176 218" class="cls-2"/>
  <polygon points="312.313 324.201 296.261 313.882 256 288 215.739 313.882 199.687 324.201 183.635 334.52 32 432 32 480 480 480 480 432 328.365 334.52 312.313 324.201" class="cls-2"/>
</svg>
