<svg xmlns="http://www.w3.org/2000/svg" id="export" viewBox="0 0 512 512">
  <defs>
    <style>
      .cls-1{fill:currentColor}
    </style>
  </defs>
  <path d="M424.7832,310.0117,412.2842,294.37l-12.499,15.6416c-8.3545,10.4541-50.0274,64.208-50.0274,95.8828,0,36.4512,28.0488,66.1055,62.5264,66.1055s62.5263-29.6543,62.5263-66.1055C474.8105,374.22,433.1377,320.4658,424.7832,310.0117Z" class="cls-1"/>
  <polygon fill="none" points="350.175 173.672 144.781 98.916 90.522 248 323.123 248 350.175 173.672"/>
  <path fill="currentColor" d="M62.0381,335.6729a10.9176,10.9176,0,0,0,6.2021,5.6826l184.7237,67.2412a11.0256,11.0256,0,0,0,14.1045-6.584L323.1226,248H90.522L61.6748,327.2607A10.9188,10.9188,0,0,0,62.0381,335.6729Z" opacity=".25"/>
  <path d="M119.68,45.084,93.2681,117.6476,31.9512,92.5635l-15.9024,38.873,62.843,25.7086-36.0861,99.144L22.209,312.8926a52.9905,52.9905,0,0,0,31.667,67.9306l184.7275,67.2422a53.0029,53.0029,0,0,0,67.93-31.6826l97.4717-267.8144ZM267.0684,402.0127a11.0256,11.0256,0,0,1-14.1045,6.584L68.24,341.3555a10.989,10.989,0,0,1-6.5654-14.0948L90.522,248l27.2743-74.94,43.9331,17.9726a36.0091,36.0091,0,1,0,12.9894-40.0647l-42.5472-17.4057,12.61-34.6467,205.3935,74.7559L323.1226,248Z" class="cls-1"/>
</svg>
