<svg xmlns="http://www.w3.org/2000/svg" id="export" viewBox="0 0 512 512">
  <defs>
    <style>
      .cls-1{fill:currentColor}
    </style>
  </defs>
  <path d="M16,256c0,115.7144,82.4678,214.957,196.09,235.9761L231,495.4746V349.3594l-10.1406-3.9912a96.0455,96.0455,0,0,1,0-178.7364L231,162.6406V16.5254l-18.91,3.4985C98.4678,41.043,16,140.2856,16,256Z" class="cls-1"/>
  <path d="M345.3682,291.1406a96.3,96.3,0,0,1-55.084,54.5523L280,349.6265v145.95l18.8389-3.396a240.2109,240.2109,0,0,0,193.1377-192.27L495.4746,281H349.3594Z" class="cls-1"/>
  <path fill="currentColor" d="M345.6924,221.7163,349.626,232H495.5771l-3.3964-18.8384A240.2094,240.2094,0,0,0,298.8389,19.8193L280,16.4233v145.95l10.2842,3.9341A96.1892,96.1892,0,0,1,345.6924,221.7163Z" opacity=".25"/>
</svg>
