<svg xmlns="http://www.w3.org/2000/svg" id="export" viewBox="0 0 512 512">
  <defs>
    <style>
      .cls-1,.cls-2{fill:currentColor}.cls-2{opacity:.25}
    </style>
  </defs>
  <path d="M16,248V392H56v48h48V392h64V317.1138a52.0767,52.0767,0,0,1,12.1836-33.4463L210.1445,248Zm46,48h42v42H62Z" class="cls-1"/>
  <path d="M237.0244,216l4.3379-5.1641A63.8287,63.8287,0,0,1,288,188.0649c.7881-.029,1.575-.0649,2.3672-.0649H320V96a48.054,48.054,0,0,0-48-48H64A48.054,48.054,0,0,0,16,96V216Z" class="cls-2"/>
  <path d="M200,332V456h40v40h48V456H408v40h48V456h40V332Zm56,78V368h42v42Zm184,0H398V368h42Z" class="cls-1"/>
  <path d="M265.8643,231.418,208.2556,300H487.7441l-57.6084-68.582A31.9291,31.9291,0,0,0,405.6328,220H290.3672A31.9291,31.9291,0,0,0,265.8643,231.418Z" class="cls-2"/>
</svg>
