<svg xmlns="http://www.w3.org/2000/svg" id="export" viewBox="0 0 512 512">
  <defs>
    <style>
      .cls-2{fill:currentColor}
    </style>
  </defs>
  <g opacity=".25">
    <path d="M495.8008,394.6377A56.63,56.63,0,0,0,396.12,362.8125c-.6616.7827-1.2949,1.5821-1.91,2.3925L345.2969,348.9a170.6762,170.6762,0,0,0,51.8916-38.3632C427.2869,277.8719,444.5361,234.3735,447.5291,184H415.458C410.7939,253.1924,375.656,303.6331,320,324.869v49.3295l62.8943,20.9648a57.3428,57.3428,0,0,0,.0442,8.9383,56.6376,56.6376,0,0,0,56.3359,51.9023q2.4039,0,4.8272-.2031a56.6276,56.6276,0,0,0,51.6992-61.1631Z" class="cls-2"/>
    <path d="M96.542,184H64.4709c2.993,50.3735,20.2422,93.8719,50.3406,126.5371A170.6762,170.6762,0,0,0,166.7031,348.9l-48.9072,16.3025a57.082,57.082,0,0,0-8.6084-9.0827,56.63,56.63,0,0,0-79.8066,6.6934v-.001a56.6349,56.6349,0,0,0,43.1543,93.1914q2.4037,0,4.8271-.2031a56.6094,56.6094,0,0,0,51.7307-60.6333L192,374.1985V324.869C136.344,303.6331,101.2061,253.1924,96.542,184Z" class="cls-2"/>
  </g>
  <rect width="128" height="128" x="368" y="56" class="cls-2"/>
  <rect width="128" height="128" x="16" y="56" class="cls-2"/>
  <polygon points="192 288 192 374.199 192 416 320 416 320 374.199 320 288 192 288" class="cls-2"/>
</svg>
