<svg xmlns="http://www.w3.org/2000/svg" id="export" viewBox="0 0 512 512">
  <defs>
    <style>
      .cls-1{fill:currentColor}
    </style>
  </defs>
  <polygon points="58.856 496 453.117 496 491.168 305.745 21.201 305.745 58.856 496" class="cls-1"/>
  <polygon fill="currentColor" points="460.24 184 405.316 16 354.816 16 409.74 184 102.26 184 157.184 16 106.684 16 51.76 184 16 184 16 263.745 496 263.745 496 184 460.24 184" opacity=".25"/>
  <path d="M183.9116,150.7934H372.9932l-36.6787-43.3476q-.8182-.9666-1.6568-1.91C316.1484,84.72,289.335,73.2067,261.4805,73.2067h-6.2222c-26.2373,0-51.6523,10.1693-69.9614,28.9619q-.95.9747-1.875,1.9769l-43.06,46.6479Z" class="cls-1"/>
</svg>
