<svg xmlns="http://www.w3.org/2000/svg" id="export" viewBox="0 0 512 512">
  <defs>
    <style>
      .cls-1{fill:currentColor;opacity:.25}
    </style>
  </defs>
  <path d="M436,188h48A227.6529,227.6529,0,0,0,402.9355,13.6553l-30.95,36.6894A179.7511,179.7511,0,0,1,436,188Z" class="cls-1"/>
  <path d="M140.0142,50.3447l-30.95-36.6894A227.6529,227.6529,0,0,0,28,188H76A179.7511,179.7511,0,0,1,140.0142,50.3447Z" class="cls-1"/>
  <path fill="currentColor" d="M392,264V176A136,136,0,0,0,256,40h0A136,136,0,0,0,120,176v88L74.3972,348.19A8,8,0,0,0,81.4316,360H430.5684a8,8,0,0,0,7.0344-11.81Z"/>
  <path d="M256,464a72,72,0,0,0,72-72H184A72,72,0,0,0,256,464Z" class="cls-1"/>
</svg>
