<svg xmlns="http://www.w3.org/2000/svg" viewBox="0 0 512 512">
  <path fill="currentColor" d="M389.0527,126.3018A302.898,302.898,0,0,0,280.0117,18.15L272,13V441.459a176.9391,176.9391,0,0,0,21-1.2531c32.2567-3.8554,62.0933-16.5615,85.6074-36.7469,32.3086-27.7354,50.2276-67.1621,51.8194-114.0166.1171-3.457.1767-6.9561.1767-10.4A300.935,300.935,0,0,0,389.0527,126.3018Z" opacity=".25"/>
  <path fill="currentColor" d="M263.9883,18.15A301.085,301.085,0,0,0,113.3965,279.042c0,3.4443.06,6.9434.1767,10.3994,1.5918,46.8555,19.5108,86.2822,51.8194,114.0176A157.6659,157.6659,0,0,0,234,437.2939V496h38V13Z"/>
</svg>
