<svg xmlns="http://www.w3.org/2000/svg" id="export" viewBox="0 0 512 512">
  <defs>
    <style>
      .cls-1,.cls-3{fill:currentColor}.cls-2{fill:none}.cls-3{opacity:.25}
    </style>
  </defs>
  <path d="M466.7,496h.2878l-.1323-.1323C466.8027,495.9114,466.7516,495.9562,466.7,496Z" class="cls-1"/>
  <path d="M466.7,496h.2878l-.1323-.1323C466.8027,495.9114,466.7516,495.9562,466.7,496Z" class="cls-2"/>
  <path d="M464,48H129.297L192,110.703,227.297,146l44,44,36,36,44,44,36,36,62,62H464a16,16,0,0,0,16-16V64A16,16,0,0,0,464,48Z" class="cls-3"/>
  <path d="M110.0762,190,32,111.9238V352a16,16,0,0,0,16,16h80V480h8L248,368h40.0762L144,223.9238Z" class="cls-3"/>
  <path d="M466.7,496h.2878l-.1323-.1323C466.8027,495.9114,466.7516,495.9562,466.7,496Z" class="cls-1"/>
  <path d="M466.7,496h.2878l-.1323-.1323C466.8027,495.9114,466.7516,495.9562,466.7,496Z" class="cls-2"/>
  <polygon points="416 110 192 110 192 110.703 227.297 146 416 146 416 110" class="cls-1"/>
  <polygon points="416 226 416 190 271.297 190 307.297 226 416 226" class="cls-1"/>
  <polygon points="416 306 416 270 351.297 270 387.297 306 416 306" class="cls-1"/>
  <rect width="40" height="36" x="104" y="270" class="cls-1"/>
  <polygon points="398.385 368 336.385 306 336.385 306 300.385 270 300.385 270 256.385 226 256.385 226 220.385 190 220.385 190 144 113.615 144 113.615 140.385 110 140.385 110 78.385 48 78.385 48 46.385 16 16 16 16 45.013 16.99 46.002 16.99 46.002 466.855 495.867 466.855 495.868 466.987 496 496 496 496 465.615 496 465.615 398.385 368" class="cls-1"/>
</svg>
