<svg xmlns="http://www.w3.org/2000/svg" id="export" viewBox="0 0 512 512">
  <defs>
    <style>
      .cls-1,.cls-2{fill:currentColor}.cls-2{opacity:.25}
    </style>
  </defs>
  <path d="M139.32,35.76a8,8,0,0,0-11.31,0L34.46,129.31a8,8,0,0,0,0,11.31l40.95,40.95L180.27,76.71Z" class="cls-1"/>
  <rect width="48" height="230.68" x="232" y="141.96" class="cls-1" transform="rotate(-45 255.998 257.302)"/>
  <path d="M477.54,374l-41-40.94L331.73,437.9l40.95,40.94a8,8,0,0,0,11.31,0l93.55-93.54A8,8,0,0,0,477.54,374Z" class="cls-1"/>
  <path d="M250.34,88.53,215.05,53.24a8,8,0,0,0-11.31,0L180.27,76.71,75.41,181.57,51.94,205a8,8,0,0,0,0,11.32l35.29,35.29a8,8,0,0,0,11.31,0l58.93-58.93,33.94-33.94,58.93-58.93A8,8,0,0,0,250.34,88.53Z" class="cls-2"/>
  <path d="M460.06,298.25,424.77,263a8,8,0,0,0-11.31,0l-58.93,58.93-33.94,33.94-58.93,58.93a8,8,0,0,0,0,11.32L297,461.37a8,8,0,0,0,11.31,0l23.47-23.47L436.59,333l23.47-23.48A8,8,0,0,0,460.06,298.25Z" class="cls-2"/>
</svg>
