<svg xmlns="http://www.w3.org/2000/svg" id="export" viewBox="0 0 512 512">
  <defs>
    <style>
      .cls-1,.cls-2{fill:currentColor}.cls-2{opacity:.25}
    </style>
  </defs>
  <path d="M412.7173,65.0122c-35.5786-20.9849-82.5449-32.5415-132.2466-32.5415H239.5293c-49.7017,0-96.6675,11.5566-132.2461,32.5415C69.0537,87.56,48,118.4531,48,152v16H472V152C472,118.4531,450.9463,87.56,412.7173,65.0122Z" class="cls-1"/>
  <rect width="424" height="42" x="48" y="296" class="cls-2"/>
  <path d="M387.1968,200c-25.9048,0-40.0191,6.6572-51.36,12.0068C325.9985,216.6475,318.8906,220,302.3936,220c-16.4952,0-23.6031-3.3525-33.44-7.9932C257.6128,206.6577,243.4985,200,217.5947,200s-40.0171,6.6577-51.3579,12.0073C156.4,216.6475,149.2925,220,132.7979,220s-23.6026-3.3525-33.44-7.9932C88.0176,206.6577,73.9038,200,48,200v42c16.4951,0,23.6025,3.3525,33.44,7.9932C92.78,255.3423,106.894,262,132.7979,262s40.017-6.6577,51.3579-12.0073C193.9927,245.3525,201.1,242,217.5947,242s23.6031,3.3525,33.4405,7.9932C262.3755,255.3423,276.49,262,302.3936,262s40.0195-6.6572,51.36-12.0068C363.5923,245.3525,370.7,242,387.1968,242s23.605,3.3525,33.4433,7.9932C431.981,255.3428,446.0952,262,472,262V220c-16.4966,0-23.6045-3.3525-33.4429-7.9932C427.2163,206.6572,413.1021,200,387.1968,200Z" class="cls-2"/>
  <path d="M48,456a24.0275,24.0275,0,0,0,24,24H448a24.0275,24.0275,0,0,0,24-24V376H48Z" class="cls-1"/>
</svg>
