<svg xmlns="http://www.w3.org/2000/svg" viewBox="0 0 512 512">
  <polygon fill="currentColor" points="40 40 40 272 40.014 314.271 40.014 384 40 384 40 480 464 480 464 248 464 205.721 464 40 40 40" opacity=".25"/>
  <polygon fill="currentColor" points="336.06 219.982 280.39 259.506 280.012 259.241 279.634 259.506 223.964 219.982 167.347 259.727 112.023 217.835 40 272 40.014 314.271 111.337 260.265 167.954 300.01 223.624 260.487 224.002 260.751 224.38 260.487 280.05 300.01 336.666 260.265 391.991 302.157 464 248 464 205.721 392.676 259.727 336.06 219.982"/>
</svg>
