<svg xmlns="http://www.w3.org/2000/svg" id="export" viewBox="0 0 512 512">
  <defs>
    <style>
      .cls-1{fill:currentColor;opacity:.25}
    </style>
  </defs>
  <path d="M344,24H40A16,16,0,0,0,24,40V344H64V64H344Z" class="cls-1"/>
  <path d="M416,111.24V96H112a16,16,0,0,0-16,16V416h40V136H416Z" class="cls-1"/>
  <path fill="currentColor" d="M472,168H184a16,16,0,0,0-16,16V472a16,16,0,0,0,16,16H472a16,16,0,0,0,16-16V184c0-.25,0-.48,0-.73A16,16,0,0,0,472,168Z"/>
  <path fill="#fff" d="M301.7,389c0,28.15,24.65,51,55.05,51s55-22.82,55-51-24.64-51-55-51a59,59,0,0,0-18.75,3l.24-117.6L248,240.67V288l54-10.27S301.7,387.24,301.7,389Z"/>
</svg>
