<svg xmlns="http://www.w3.org/2000/svg" viewBox="0 0 512 512">
  <path fill="currentColor" d="M67.7773,104l19.535,120,13.5114,83L126.126,462.4282A39.8476,39.8476,0,0,0,165.6064,496H346.3936a39.8494,39.8494,0,0,0,39.4814-33.5732L411.1768,307l13.5112-83,19.5347-120Z" opacity=".25"/>
  <path fill="currentColor" d="M261.5574,224l-8.3723-72-5.5813-48-6.3081-54.2495L237.3711,16H104V64h90.6289l4.6511,40,5.5813,48,8.3721,72H87.3123l13.5114,83L126.126,462.4282A39.8476,39.8476,0,0,0,165.6064,496H346.3936a39.8494,39.8494,0,0,0,39.4814-33.5732L411.1768,307l13.5112-83Z"/>
</svg>
