<svg xmlns="http://www.w3.org/2000/svg" id="export" viewBox="0 0 512 512">
  <defs>
    <style>
      .cls-1,.cls-2{fill:currentColor}.cls-1{opacity:.25}
    </style>
  </defs>
  <path d="M480,216C480,114.38,379.7119,32,256,32S32,114.38,32,216,132.2881,400,256,400a273.9894,273.9894,0,0,0,33.3477-2.0322l22.1064,19.1589A257.3487,257.3487,0,0,0,480,480V464h0a299.273,299.273,0,0,1-70.5928-112.0122l-.5346-1.5157C452.6338,316.89,480,269.0737,480,216Z" class="cls-1"/>
  <path d="M229.2412,148.2476a36.6686,36.6686,0,1,1,30.1416,62.7871,26.056,26.056,0,0,0-22.7158,25.7832V272h36V245.0835A72.6756,72.6756,0,1,0,182,174.6665h36A36.3641,36.3641,0,0,1,229.2412,148.2476Z" class="cls-2"/>
  <rect width="36" height="36" x="236" y="296" class="cls-2"/>
  <rect width="36" height="36" x="236" y="296" class="cls-1"/>
  <path d="M309.9063,221.8813a72.5288,72.5288,0,0,1-37.2393,23.2022V272h-36V236.8179a26.056,26.056,0,0,1,22.7158-25.7832A36.67,36.67,0,1,0,218,174.6665H182a72.6674,72.6674,0,0,1,75.4805-72.6128,72.6675,72.6675,0,0,1,52.4258,119.8276Z" class="cls-1"/>
</svg>
