<svg xmlns="http://www.w3.org/2000/svg" id="export" viewBox="0 0 512 512">
  <defs>
    <style>
      .cls-2{fill:currentColor;opacity:.25}
    </style>
  </defs>
  <path fill="currentColor" d="M304,187.0769V96a89.4348,89.4348,0,0,0-32.18-68.7058,24.7114,24.7114,0,0,0-31.64,0A89.4348,89.4348,0,0,0,208,96V304l9.7725,112.3833L144,448v40H368V448l-73.7725-31.6167L304,304V187.0769Z"/>
  <polygon points="144 216.615 24 272 32 320 144 306.56 208 298.88 208 187.077 144 216.615" class="cls-2"/>
  <polygon points="368 216.615 304 187.077 304 298.88 368 306.56 480 320 488 272 368 216.615" class="cls-2"/>
</svg>
