<svg xmlns="http://www.w3.org/2000/svg" viewBox="0 0 512 512">
  <path fill="currentColor" d="M429.1946,387.48C460.4526,363.4927,480,329.3384,480,291.4287,480,218.8428,408.3655,160,320,160S160,218.8428,160,291.4287s71.6345,131.4282,160,131.4282a195.7693,195.7693,0,0,0,23.82-1.4511L359.61,435.09A183.821,183.821,0,0,0,480,480V468.5713a213.7624,213.7624,0,0,1-50.4233-80.0088Z"/>
  <path fill="currentColor" d="M184.0122,170.6768c36.3123-29.8282,84.0679-46.3663,134.6065-46.6626C308.605,63.0244,244.9924,16,168,16,84.0527,16,16,71.9,16,140.8569c0,36.0147,18.57,68.461,48.2651,91.2491l-.363,1.0283A203.0761,203.0761,0,0,1,16,309.1426V320a174.6306,174.6306,0,0,0,108.2808-37.6235,146.8525,146.8525,0,0,1,16.2866-58.586A168.6616,168.6616,0,0,1,184.0122,170.6768Z" opacity=".25"/>
</svg>
