<svg xmlns="http://www.w3.org/2000/svg" viewBox="0 0 512 512">
  <path fill="currentColor" d="M393.3042,161.33,334.5322,76.437a48.0936,48.0936,0,0,0-38.7749-20.6724l-49.8591-.7166-3.2331,15.9553-3.2332,15.9553L199.5264,283.8892l-.0747.3115c-6.2823,26.1763-18.7242,48.74-35.98,65.2524A101.4882,101.4882,0,0,1,92,378l-7.8839-.0018-16.4584-.0036-16.4584-.0038L22.7222,496H312V389.4932l98.6162-16.8872c22.3594-2.7491,38.8565-9.9551,50.4253-22.023,9.89-10.3179,15.91-23.5029,19.519-42.7519L496,225.4873V178.4458Z"/>
  <path fill="currentColor" d="M209.2729,54.5215l-25.0429-.36L184,54.16c-57.5786,0-101.7568,9.6308-130.21,56.6342C28.5417,152.503,17.0914,222.17,16.0747,341.983H16v36l35.1993.0078,16.4584.0038,16.4584.0036L92,378a101.4882,101.4882,0,0,0,71.4712-28.5469c17.2563-16.5122,29.6982-39.0761,35.98-65.2524l.0747-.3115L239.4319,86.9586l3.2332-15.9553,3.2331-15.9553Z" opacity=".25"/>
</svg>
