<svg xmlns="http://www.w3.org/2000/svg" id="export" viewBox="0 0 512 512">
  <defs>
    <style>
      .cls-1,.cls-2{fill:currentColor}.cls-1{opacity:.25}
    </style>
  </defs>
  <path d="M336.22,226l37.41,30a140.34,140.34,0,0,0-.19-176.29L336.1,109.86A92.45,92.45,0,0,1,336.22,226Z" class="cls-1"/>
  <path d="M401.17,278.14l37.5,30.11a224,224,0,0,0-.3-280.87L400.93,57.57a175.61,175.61,0,0,1,.24,220.57Z" class="cls-1"/>
  <path d="M304,211V120A104,104,0,0,0,200,16h0a103.68,103.68,0,0,0-73.18,30.11l176.3,176.06A71.32,71.32,0,0,0,304,211Z" class="cls-2"/>
  <path d="M96,125.42V211a71.92,71.92,0,0,0,11.26,38.66l38.41,60.37-99.86,63.1A64,64,0,0,0,16,427.26v69.31L384,496V413.42l-2-2Z" class="cls-2"/>
  <polygon points="45.71 16 16 16 16 45.42 96 125.42 382.01 411.43 384 413.42 466.58 496 496 496 496 466.46 45.71 16" class="cls-1"/>
</svg>
