<svg xmlns="http://www.w3.org/2000/svg" id="export" viewBox="0 0 512 512">
  <defs>
    <style>
      .cls-2{fill:currentColor}
    </style>
  </defs>
  <path fill="currentColor" d="M438.4351,232C428.0178,152.3833,366.5093,88.6161,288,74.7913V16H224V74.7913C145.4907,88.6161,83.9822,152.3833,73.5649,232H16v64H76.3918A184.53,184.53,0,0,0,224,437.2087V496h64V437.2087A184.53,184.53,0,0,0,435.6082,296H496V232ZM256,376A120,120,0,1,1,376,256,120.1362,120.1362,0,0,1,256,376Z" opacity=".25"/>
  <circle cx="256" cy="256" r="72" class="cls-2"/>
  <path d="M224,74.7913a184.8227,184.8227,0,0,1,64,0V16H224Z" class="cls-2"/>
  <path d="M438.4351,232a184.5273,184.5273,0,0,1-2.8269,64H496V232Z" class="cls-2"/>
  <path d="M73.5649,232H16v64H76.3918a184.5273,184.5273,0,0,1-2.8269-64Z" class="cls-2"/>
  <path d="M224,437.2087V496h64V437.2087a184.8227,184.8227,0,0,1-64,0Z" class="cls-2"/>
</svg>
