<svg xmlns="http://www.w3.org/2000/svg" id="export" viewBox="0 0 512 512">
  <defs>
    <style>
      .cls-1,.cls-2{fill:currentColor}.cls-1{opacity:.25}
    </style>
  </defs>
  <path d="M423.584,88.416A237,237,0,0,0,19,256V360H61V256C61,148.4766,148.4766,61,256,61s195,87.4766,195,195V360h42V256A235.4462,235.4462,0,0,0,423.584,88.416Z" class="cls-1"/>
  <path d="M356.6348,248h32V186.7676A42.8161,42.8161,0,0,0,345.8672,144H175.4014a42.8152,42.8152,0,0,0-42.7666,42.7676V248h224Z" class="cls-2"/>
  <polygon points="388.635 377.478 388.635 400 352.712 400 433.145 496 487.937 496 388.635 377.478" class="cls-1"/>
  <polygon points="132.635 367.83 24.184 496 79.201 496 160.432 400 132.635 400 132.635 367.83" class="cls-1"/>
  <path d="M388.6348,377.4785V280h-256V400h256ZM218,360H176V318h42Zm126,0H302V318h42Z" class="cls-2"/>
</svg>
