<svg xmlns="http://www.w3.org/2000/svg" id="export" viewBox="0 0 512 512">
  <defs>
    <style>
      .cls-2{fill:currentColor}
    </style>
  </defs>
  <path fill="currentColor" d="M425.71,86.29c-1.42-1.42-2.86-2.81-4.31-4.19l-.81-.76c-1.33-1.26-2.66-2.5-4-3.72l-.14-.13A239.48,239.48,0,0,0,280,17.06l-.78-.08q-7.46-.72-15-1c-5.47-.18-17.26,0-17.26,0H232V128h48V65.41a192.16,192.16,0,0,1,38.47,9l.09,0c1.34.46,2.68.94,4,1.43l.1,0q2.19.82,4.35,1.69l1,.41c1.2.48,2.39,1,3.58,1.5l.82.35c1.35.58,2.7,1.19,4,1.81l1.51.71,2.34,1.13,2.13,1,1,.52C405.47,117,448,181.61,448,256c0,105.87-86.13,192-192,192S64,361.87,64,256a191.55,191.55,0,0,1,50.66-130L229.4,270.81,84.72,87.9a240,240,0,1,0,341-1.61Z" opacity=".25"/>
  <circle cx="120" cy="264" r="32" class="cls-2"/>
  <circle cx="256" cy="384" r="32" class="cls-2"/>
  <circle cx="392" cy="264" r="32" class="cls-2"/>
  <polygon points="229.48 270.91 248.13 256.12 229.46 270.89 229.48 270.91" class="cls-2"/>
  <polygon points="267.1 241.09 266.99 240.96 267.1 241.09 267.1 241.09" class="cls-2"/>
  <polygon points="120.61 56.28 119.43 57.28 120.64 56.32 120.61 56.28" class="cls-2"/>
  <polygon points="120.82 56.17 120.64 56.32 266.99 240.96 120.82 56.17"/>
  <polygon points="229.46 270.89 229.46 270.89 229.4 270.81 229.46 270.89"/>
  <polygon points="267.11 241.11 267.1 241.09 248.13 256.12 267.11 241.11"/>
  <path d="M229.46,270.89l18.67-14.77,19-15L267,241,120.64,56.32l-1.21,1L101.71,72.16q-8.92,7.5-17,15.74L229.4,270.81Z" class="cls-2"/>
</svg>
