<svg xmlns="http://www.w3.org/2000/svg" id="export" viewBox="0 0 512 512">
  <defs>
    <style>
      .cls-1,.cls-2{fill:currentColor}.cls-1{opacity:.25}.cls-3{fill:none}
    </style>
  </defs>
  <path d="M424,16H88A16,16,0,0,0,72,32V144H440V32A16,16,0,0,0,424,16Z" class="cls-1"/>
  <rect width="32" height="32" x="224" y="72" class="cls-2"/>
  <rect width="72" height="32" x="120" y="72" class="cls-2"/>
  <rect width="72" height="32" x="120" y="72" class="cls-3"/>
  <rect width="32" height="32" x="224" y="72" class="cls-3"/>
  <rect width="72" height="32" x="120" y="72" class="cls-3"/>
  <rect width="32" height="32" x="224" y="72" class="cls-3"/>
  <path d="M72,176V480a16,16,0,0,0,16,16H424a16,16,0,0,0,16-16V176ZM256,464A128,128,0,1,1,384,336,128.1451,128.1451,0,0,1,256,464Z" class="cls-2"/>
  <path d="M325.7561,346.6558c-26.0032,8.7544-50.271,6.7461-68.2954-5.6512h0q-.6894-.4742-1.4052-.948a87.447,87.447,0,0,0-87.6086-4.7431l-8.4037,3.467a95.9956,95.9956,0,0,0,191.9337-.9521Z" class="cls-1"/>
</svg>
