<svg xmlns="http://www.w3.org/2000/svg" viewBox="0 0 512 512">
  <g fill="currentColor">
    <path d="M218.5319,356.62,240.32,310.3192c-8.5814-8.9963-17.3-18.7263-25.9886-29.2q14.0157-19.3257,26.3049-39.533A551.9234,551.9234,0,0,0,298.2252,112H344V64H208V16H160V64H16v48H69.7632a551.7054,551.7054,0,0,0,63.146,138.6238c10.015-12.7153,20.2825-26.8924,30.3536-42.4939a502.86,502.86,0,0,1-43.22-96.13H247.9315c-29.8233,90.5607-81.2626,157.549-121.1024,199.1885C85.6519,354.2256,48.7817,379.07,38.5612,385.6046c-1.7629,1.1272-2.7392,1.7139-2.8014,1.7509L48,408l12.21,20.6621c1.9111-1.13,47.4209-28.293,100.0839-83.0215q12.2512-12.7316,23.68-26.0757C195.6262,333.14,207.26,345.4865,218.5319,356.62Z"/>
    <path d="M375.417,192H328.583L204.24,464l-3.6572,8H253.36l3.6571-8,29.2572-64h131.451L450.64,472h52.7775ZM352,352H308.2174L352,256.2256,395.7826,352Z" opacity=".25"/>
  </g>
</svg>
