<svg xmlns="http://www.w3.org/2000/svg" id="export" viewBox="0 0 512 512">
  <defs>
    <style>
      .cls-2,.cls-3{fill:currentColor}.cls-3{opacity:.25}
    </style>
  </defs>
  <polygon fill="none" points="389.976 360 496 466.024 496 465.941 390.059 360 389.976 360"/>
  <path d="M316.5679,235.5969,437.2888,356.318a7.9237,7.9237,0,0,0,.314-8.1283L392,264V176A136,136,0,0,0,256,40h0a135.56,135.56,0,0,0-95.6753,39.3538l156.243,156.2431Z" class="cls-2"/>
  <path d="M120,176v88L74.3972,348.19A8,8,0,0,0,81.4316,360H330.5781L122.1852,151.6071A136.7842,136.7842,0,0,0,120,176Z" class="cls-2"/>
  <path d="M256,464a72,72,0,0,0,72-72H184A72,72,0,0,0,256,464Z" class="cls-3"/>
  <polygon points="389.976 360 138.116 108.14 45.976 16 16 16 16 45.422 122.185 151.607 330.578 360 362.578 392 416 445.422 466.578 496 496 496 496 466.024 389.976 360" class="cls-3"/>
</svg>
