<svg xmlns="http://www.w3.org/2000/svg" id="export" viewBox="0 0 512 512">
  <defs>
    <style>
      .cls-1,.cls-2{fill:currentColor}.cls-2{opacity:.25}
    </style>
  </defs>
  <path d="M432.16,67.84a259,259,0,0,0-113-66.48L303.37,46.89A213.18,213.18,0,0,1,455.42,206l47-10.21A258.6,258.6,0,0,0,432.16,67.84Z" class="cls-1"/>
  <path d="M266.16,87.1A152.91,152.91,0,0,0,111.09,240h48A104.91,104.91,0,0,1,265.5,135.1c56.65.78,103,47.53,103.41,104.2A104,104,0,0,1,336.31,316a33.56,33.56,0,0,0-10.37,24.23V400.7a62.46,62.46,0,0,1-62.39,62.39H253.26v48h10.29A110.52,110.52,0,0,0,373.94,400.7V346.27a153.57,153.57,0,0,0,43-107.28A153.33,153.33,0,0,0,266.16,87.1Z" class="cls-2"/>
  <path d="M292.34,239.09h48a76,76,0,1,0-152.06,0h48a28,28,0,1,1,56.06,0Z" class="cls-2"/>
  <rect width="48" height="48" x="216" y="280" class="cls-1"/>
  <rect width="48" height="48" x="88" y="408" class="cls-1"/>
  <rect width="48" height="158.39" x="152" y="288.8" class="cls-1" transform="rotate(-45 176.003 368.007)"/>
</svg>
