<svg xmlns="http://www.w3.org/2000/svg" id="export" viewBox="0 0 512 512">
  <defs>
    <style>
      .cls-2{fill:currentColor}
    </style>
  </defs>
  <path fill="currentColor" d="M208,64C102.13,64,16,150.13,16,256s86.13,192,192,192,192-86.13,192-192S313.87,64,208,64Zm0,336c-79.4,0-144-64.6-144-144s64.6-144,144-144,144,64.6,144,144S287.4,400,208,400Z" opacity=".25"/>
  <circle cx="208" cy="256" r="88" class="cls-2"/>
  <path d="M479.7,161.65A279.19,279.19,0,0,0,434.58,81l-37.45,30a232.08,232.08,0,0,1,5.58,282.73l38.6,28.52A280.46,280.46,0,0,0,479.7,161.65Z" class="cls-2"/>
</svg>
