<svg xmlns="http://www.w3.org/2000/svg" viewBox="0 0 512 512">
  <path fill="currentColor" d="M415.0254,318.981,499,256l-83.87-62.9028-2.148-5.0108L427.8267,84.1733,324.043,98.999l-5.062-2.0244L256,13,193.0972,96.87l-5.0108,2.148L84.1733,84.1733,98.999,187.957l-2.0244,5.062L13,256l83.87,62.9028,2.148,5.0108L84.1733,427.8267,187.957,413.001l5.062,2.0244L256,499l62.9028-83.87,5.0108-2.148,103.9131,14.8448L413.001,324.043ZM256,400A144,144,0,1,1,400,256,144,144,0,0,1,256,400Z"/>
  <circle cx="256" cy="256" r="96" fill="currentColor" opacity=".25"/>
</svg>
