<svg xmlns="http://www.w3.org/2000/svg" id="export" viewBox="0 0 512 512">
  <defs>
    <style>
      .cls-2{fill:currentColor}
    </style>
  </defs>
  <path fill="currentColor" d="M472,104H16V448a24,24,0,0,0,24,24H472a24,24,0,0,0,24-24V128A24,24,0,0,0,472,104Z" opacity=".25"/>
  <path d="M196.86,324.1272l-9.1413,59.26c6.4345,4.6751,7.6339,5.5465,14.0688,10.2216l53.5344-27.0063h1.3554l53.5344,27.0063c6.4349-4.6751,7.6343-5.5465,14.0688-10.2216l-9.1413-59.26c.1474-.4542.2713-.835.4187-1.2892l42.2278-42.5688c-2.4579-7.5647-2.9162-8.9745-5.3741-16.5389l-59.184-9.6185c-.3862-.28-.71-.516-1.0968-.7965L264.6948,200h-17.39l-27.4364,53.3153c-.3865.28-.7106.516-1.0968.7965L159.588,263.73c-2.4579,7.5644-2.9162,8.9742-5.3741,16.5389l42.2278,42.5688C196.5891,323.2922,196.713,323.673,196.86,324.1272Z" class="cls-2"/>
  <path d="M258.6667,104,237.8975,54.1538A23,23,0,0,0,216.6667,40H39A23,23,0,0,0,16,63v41Z" class="cls-2"/>
</svg>
