<svg xmlns="http://www.w3.org/2000/svg" id="export" viewBox="0 0 512 512">
  <defs>
    <style>
      .cls-2{fill:currentColor}
    </style>
  </defs>
  <path d="M470.1074,41.8926a88.3989,88.3989,0,0,0-130.9248,6.5293L201.7957,216.3408l93.8637,93.8638L463.5781,172.8174a88.3989,88.3989,0,0,0,6.5293-130.9248Z" class="cls-2" opacity=".25"/>
  <path d="M263.1469,328.6024l-79.933-79.933-13.5647-13.5647-70.9221,14.45a23.8775,23.8775,0,0,0-17.6485,15.0039L22.252,419.6484a24.0332,24.0332,0,0,0,5.4687,25.4834l6.846,6.846L45.88,440.6642,57.1941,429.35l46.0779-46.0778,25.456,25.455L82.65,454.8059,71.3357,466.12,60.022,477.4335l5.6377,5.6378a24.0262,24.0262,0,0,0,25.4824,5.47L246.3,429.6875a23.9146,23.9146,0,0,0,14.937-17.3213l15.3522-70.3216ZM136,336h40v40H136Z" class="cls-2"/>
</svg>
