<svg xmlns="http://www.w3.org/2000/svg" id="export" viewBox="0 0 512 512">
  <defs>
    <style>
      .cls-2{fill:currentColor}
    </style>
  </defs>
  <rect width="448" height="448" x="32" y="32" fill="currentColor" opacity=".25" rx="24"/>
  <rect width="32" height="32" x="240" y="408" class="cls-2"/>
  <path d="M72,88V440h32V104H440V72H88A16,16,0,0,0,72,88Z" class="cls-2"/>
  <rect width="32" height="32" x="408" y="352" class="cls-2"/>
  <rect width="32" height="32" x="408" y="296" class="cls-2"/>
  <rect width="32" height="32" x="352" y="408" class="cls-2"/>
  <rect width="32" height="32" x="408" y="240" class="cls-2"/>
  <rect width="32" height="32" x="408" y="408" class="cls-2"/>
  <rect width="32" height="32" x="408" y="128" class="cls-2"/>
  <rect width="32" height="32" x="408" y="184" class="cls-2"/>
  <rect width="32" height="32" x="296" y="408" class="cls-2"/>
  <rect width="32" height="32" x="184" y="408" class="cls-2"/>
  <rect width="32" height="32" x="128" y="408" class="cls-2"/>
</svg>
