<svg xmlns="http://www.w3.org/2000/svg" id="export" viewBox="0 0 512 512">
  <defs>
    <style>
      .cls-1{fill:currentColor}
    </style>
  </defs>
  <path d="M144.5688,170.3193H421.7979V120a24.0275,24.0275,0,0,0-24-24H241.9619L224.8228,54.7842A23.9338,23.9338,0,0,0,202.6626,40H40A24.0275,24.0275,0,0,0,16,64V472H40.8027L48,435.4191,91.585,213.8936A54.1151,54.1151,0,0,1,144.5688,170.3193Z" class="cls-1"/>
  <path d="M483.7788,211.4453a13.8046,13.8046,0,0,0-10.8286-5.126H144.5688a18.0387,18.0387,0,0,0-17.6616,14.5254L77.8867,470H437.189l49.4887-246.93A13.8053,13.8053,0,0,0,483.7788,211.4453Z" class="cls-1" opacity=".25"/>
</svg>
