<svg xmlns="http://www.w3.org/2000/svg" id="export" viewBox="0 0 512 512">
  <defs>
    <style>
      .cls-2{fill:currentColor}
    </style>
  </defs>
  <path fill="currentColor" d="M394,56a38,38,0,0,0-38-38H124.8874A76.7263,76.7263,0,0,1,137,59.4287v395.5a39.1831,39.1831,0,0,0,37.538,39.0287A38.1094,38.1094,0,0,0,211,456V393H394Z" opacity=".25"/>
  <path d="M429.5406,429H247v26.7477A74.4984,74.4984,0,0,1,236.4967,494H456a38,38,0,0,0,38-38V429Z" class="cls-2"/>
  <path d="M75.7152,21.2955a41.5584,41.5584,0,0,0-21.29-2.9922C33.5,20.7992,18,39.0265,18,60.1V110h83V59.4287A41.49,41.49,0,0,0,75.7152,21.2955Z" class="cls-2"/>
</svg>
