<svg xmlns="http://www.w3.org/2000/svg" viewBox="0 0 512 512">
  <path fill="currentColor" d="M423.8613,158.2041,340.1152,241.95l-7.22,7.22-9.9349,2.3545L257.615,267.01l-.7489.1775-.7559.1453a37.1051,37.1051,0,0,1-43.447-43.4192l.147-.7676.18-.7605,15.4852-65.3457,2.3545-9.9351,7.22-7.2194,97.334-97.3343A171.8281,171.8281,0,0,0,117.4429,296.551L242.8782,476.3325a16,16,0,0,0,26.2436,0L394.5571,296.551a172.0587,172.0587,0,0,0,29.3042-138.3469Z" opacity=".25"/>
  <path fill="currentColor" d="M429.5261,101.561a36.1741,36.1741,0,0,0,0-48.4547q-.6207-.687-1.2829-1.3495h0q-.6621-.6621-1.3494-1.2828a36.3583,36.3583,0,0,0-2.84-2.3176,35.9306,35.9306,0,0,0-6.1565-3.6418q-1.6054-.7449-3.2647-1.3243c-.6675-.2334-1.3418-.4392-2.0193-.6321-.1535-.0438-.3068-.0873-.4609-.1289-.6765-.1831-1.3564-.3513-2.0408-.4944-.0517-.0108-.1037-.019-.1555-.03-.6614-.1352-1.3259-.2492-1.9922-.347-.1181-.0174-.2361-.036-.3542-.0521-.7144-.0977-1.4307-.177-2.1487-.2319-.05-.0039-.1008-.0059-.1511-.01q-1.0686-.0773-2.14-.0916c-.052-.0008-.1038-.0028-.1558-.0033q-1.1293-.01-2.258.0491c-.05.0026-.0987.0075-.148.01-.6572.0376-1.3132.0969-1.968.17-.1609.0182-.322.0358-.4829.0561-.7053.0884-1.4094.1909-2.11.32-.2559.0475-.5113.1-.7664.1532a36.162,36.162,0,0,0-3.5049.9143q-1.1692.3682-2.3176.8156c-.2056.0806-.4114.16-.616.2446a36.0539,36.0539,0,0,0-11.7531,7.8534L365.9307,62.9153,339.228,89.6179l-75.7224,75.7227-9.5775,40.4155-5.9078,24.93a1.1163,1.1163,0,0,0-.0174.27c.0016.0293.0094.0566.0132.0854a1.1168,1.1168,0,0,0,.0321.1685c.01.0319.0241.0615.0365.0922a1.1043,1.1043,0,0,0,.0637.1382c.0174.03.0381.0581.0581.0865a1.1491,1.1491,0,0,0,.09.1137c.0241.0259.05.05.0761.0733a1.1347,1.1347,0,0,0,.1123.0888,1.0555,1.0555,0,0,0,.0908.0562,1.0953,1.0953,0,0,0,.1318.061,1.06,1.06,0,0,0,.1011.0354,1.0759,1.0759,0,0,0,.1481.0281,1.03,1.03,0,0,0,.1075.0122c.0127.0005.0247.0044.0375.0044a1.1283,1.1283,0,0,0,.212-.02l65.3457-15.4853,96.1514-96.1514,17.4324-17.4324Q428.9053,102.2485,429.5261,101.561Z"/>
</svg>
