<svg xmlns="http://www.w3.org/2000/svg" id="export" viewBox="0 0 512 512">
  <defs>
    <style>
      .cls-2{fill:currentColor}
    </style>
  </defs>
  <path fill="currentColor" d="M213.2568,26.1577a16,16,0,0,0-22.6274,0L24.3345,192.4529a16,16,0,0,0,0,22.6274l271.2519,271.252a16,16,0,0,0,22.6275,0L484.5088,320.0371a16,16,0,0,0,0-22.6274Z" opacity=".25"/>
  <path d="M52.1816,310.9365h-36c0,98.9019,78.5169,179.7959,176.4893,183.6585l-53.7617-96.386L112.45,429.96A147.6976,147.6976,0,0,1,52.1816,310.9365Z" class="cls-2"/>
  <path d="M373.0908,113.791,399.55,82.04a147.6971,147.6971,0,0,1,60.2686,119.0232h36c0-98.9019-78.5169-179.7959-176.4893-183.6585Z" class="cls-2"/>
</svg>
