<svg xmlns="http://www.w3.org/2000/svg" id="export" viewBox="0 0 512 512">
  <defs>
    <style>
      .cls-1{fill:currentColor;opacity:.25}
    </style>
  </defs>
  <path d="M408.8726,350.4722C452.6338,316.89,480,269.0737,480,216,480,114.3794,379.7119,32,256,32S32,114.3794,32,216,132.2881,400,256,400a274.0094,274.0094,0,0,0,33.3477-2.0322l22.1064,19.1592A257.3489,257.3489,0,0,0,480,480V464a299.273,299.273,0,0,1-70.5928-112.0122Z" class="cls-1"/>
  <polygon fill="currentColor" points="206.85 294.85 256 245.699 305.15 294.85 334.85 265.15 285.699 216 334.85 166.85 305.15 137.15 256 186.301 206.85 137.15 177.15 166.85 226.301 216 177.15 265.15 206.85 294.85"/>
  <polygon points="334.85 265.15 305.15 294.85 256 245.699 206.85 294.85 177.15 265.15 226.301 216 177.15 166.85 206.85 137.15 256 186.301 305.15 137.15 334.85 166.85 285.699 216 334.85 265.15" class="cls-1"/>
</svg>
