<svg xmlns="http://www.w3.org/2000/svg" id="export" viewBox="0 0 512 512">
  <defs>
    <style>
      .cls-1{fill:currentColor}
    </style>
  </defs>
  <path d="M48,496H408V400.3477H112V112H16V464A32.0364,32.0364,0,0,0,48,496Z" class="cls-1"/>
  <g opacity=".25">
    <rect width="48" height="48" x="448" y="312" class="cls-1"/>
    <rect width="49.6" height="48" x="348.801" y="312" class="cls-1"/>
    <rect width="49.6" height="48" x="249.601" y="312" class="cls-1"/>
    <rect width="48" height="48" x="152" y="312" class="cls-1"/>
    <rect width="48" height="49.6" x="152" y="113.6" class="cls-1"/>
    <rect width="48" height="49.6" x="152" y="212.8" class="cls-1"/>
    <rect width="48" height="48" x="152" y="16" class="cls-1"/>
    <rect width="49.6" height="48" x="348.8" y="16" class="cls-1"/>
    <rect width="49.6" height="48" x="249.6" y="16" class="cls-1"/>
    <rect width="48" height="48" x="448" y="16" class="cls-1"/>
    <rect width="48" height="49.6" x="448" y="212.8" class="cls-1"/>
    <rect width="48" height="49.6" x="448" y="113.6" class="cls-1"/>
  </g>
</svg>
