<svg xmlns="http://www.w3.org/2000/svg" id="export" viewBox="0 0 512 512">
  <defs>
    <style>
      .cls-1,.cls-2{fill:currentColor}.cls-2{opacity:.25}
    </style>
  </defs>
  <path d="M217.9146,344.709c-.47-.6507-.952-1.2912-1.4617-1.909a37.0968,37.0968,0,0,0-5.2966-5.2326c-.82-.6629-1.6646-1.2966-2.54-1.8883a36.8948,36.8948,0,0,0-41.232,0c-.8757.5917-1.72,1.2254-2.54,1.8883a37.0779,37.0779,0,0,0-2.9168,2.6142c-.0193.0194-.0374.04-.0569.06q-1.2191,1.2246-2.323,2.5588c-.51.6178-.9922,1.2583-1.4617,1.909a36.8212,36.8212,0,0,0,2.6207,46.3379q1.19,1.31,2.5014,2.5014a36.8367,36.8367,0,0,0,49.585,0q1.31-1.19,2.5014-2.5014a36.8963,36.8963,0,0,0,5.1285-42.3682q-.5625-1.0356-1.1924-2.0275T217.9146,344.709Z" class="cls-1"/>
  <polygon points="133.425 72.709 16 72.709 16 208.709 205.425 208.709 133.425 72.709" class="cls-2"/>
  <path d="M241.6333,208.709H461.1064c-40.1152-57.2883-116.5827-136-233.7685-136H169.6333Z" class="cls-2"/>
  <path d="M25.6223,312.709a68.6856,68.6856,0,0,1,86.5007,0,69.3611,69.3611,0,0,1,16.3133,19.0338A69.3692,69.3692,0,0,1,144.75,312.709a68.686,68.686,0,0,1,86.501,0,69.3692,69.3692,0,0,1,16.3132,19.0338A69.3645,69.3645,0,0,1,263.877,312.709a68.8794,68.8794,0,0,1,108.6528,32h61.9043a61.567,61.567,0,0,0,54.7275-89.7676c-2.0422-3.9714-4.6206-8.7806-7.7387-14.2324H16v81.4692A69.4832,69.4832,0,0,1,25.6223,312.709Z" class="cls-1"/>
  <path d="M89.4888,335.6791a36.8847,36.8847,0,0,0-50.1636,8.5139q-1.0617,1.42-1.9871,2.9416-.9238,1.52-1.7021,3.1341a36.9754,36.9754,0,0,0-.7383,30.3384c.3123.7381.656,1.4591,1.0142,2.1717.4443.8845.9148,1.7537,1.4262,2.5956q.4619.76.9593,1.496c.5915.8758,1.2253,1.72,1.8881,2.54q.9611,1.1892,2.0184,2.2918.6108.64,1.2514,1.25c.6355.6054,1.2854,1.1957,1.9629,1.7548a36.9648,36.9648,0,0,0,4.991,3.4592q.7038.408,1.4262.7863a36.8109,36.8109,0,0,0,40.4917-4.2455q1.3342-1.1008,2.5589-2.323c.02-.0193.04-.0374.06-.0569a36.876,36.876,0,0,0-4.0115-55.62Q90.2242,336.1765,89.4888,335.6791Z" class="cls-1"/>
  <path d="M336.6748,344.193a36.8847,36.8847,0,0,0-50.1636-8.5139q-.7353.4971-1.4455,1.0279a36.8591,36.8591,0,0,0-4.6072,54.9954q.6108.64,1.2515,1.25c.6355.6054,1.2854,1.1957,1.9629,1.7548a36.82,36.82,0,0,0,40.4917,4.2455q.7228-.3777,1.4262-.7863a36.9648,36.9648,0,0,0,4.991-3.4592q1.3341-1.1008,2.5588-2.323c.02-.0193.04-.0374.06-.0569a37.07,37.07,0,0,0,2.6143-2.9168c.6628-.82,1.2966-1.6644,1.8881-2.54q.497-.7356.9593-1.496c.5114-.8419.9819-1.7111,1.4262-2.5956.3582-.7126.7019-1.4336,1.0142-2.1717a36.9754,36.9754,0,0,0-.7383-30.3384q-.7767-1.6121-1.7021-3.1341Q337.7379,345.6142,336.6748,344.193Z" class="cls-1"/>
  <rect width="480" height="42" x="16" y="419" class="cls-2"/>
</svg>
