<svg xmlns="http://www.w3.org/2000/svg" id="export" viewBox="0 0 512 512">
  <defs>
    <style>
      .cls-1{fill:currentColor}
    </style>
  </defs>
  <path d="M407.9385,400V264H104.0615V400h303.877ZM312,310.116A23.9969,23.9969,0,1,1,304,328,23.9065,23.9065,0,0,1,312,310.116Zm-144,0A23.9969,23.9969,0,1,1,160,328,23.9065,23.9065,0,0,1,168,310.116Z" class="cls-1"/>
  <path fill="currentColor" d="M152.5576,96a48.5509,48.5509,0,0,0-48.4961,48.4961V232h303.877V144.4961A48.5509,48.5509,0,0,0,359.4424,96Z" opacity=".25"/>
  <g opacity=".25">
    <polygon points="378.814 400 329.287 400 389.287 496 438.814 496 378.814 400" class="cls-1"/>
    <polygon points="73.186 496 122.713 496 182.713 400 133.186 400 73.186 496" class="cls-1"/>
  </g>
  <path d="M426.3125,36.376A25.8568,25.8568,0,0,0,403.0557,22H108.9443A25.8545,25.8545,0,0,0,85.69,36.3726L63.9,79.95,96.1,96.05,115.125,58h55.4839l22.8,38h42.0976l-1.3149-2-21.6-36h86.8174l-21.6,36-1.3909,2h42.1736l22.8-38H396.875L415.9,96.05,448.1,79.95Z" class="cls-1"/>
</svg>
