<svg xmlns="http://www.w3.org/2000/svg" id="export" viewBox="0 0 512 512">
  <defs>
    <style>
      .cls-2{fill:currentColor}
    </style>
  </defs>
  <path fill="currentColor" d="M256,16C123.45,16,16,123.45,16,256S123.45,496,256,496,496,388.55,496,256,388.55,16,256,16Z" opacity=".25"/>
  <path d="M256,168a88,88,0,1,0,88,88A88,88,0,0,0,256,168Z" class="cls-2"/>
  <path d="M256,78a176.16,176.16,0,0,0-80.88,19.4,179.51,179.51,0,0,0-61.52,51.79l28.78,21.62A141,141,0,0,1,256,114Z" class="cls-2"/>
</svg>
