<svg xmlns="http://www.w3.org/2000/svg" id="export" viewBox="0 0 512 512">
  <defs>
    <style>
      .cls-1,.cls-3{fill:currentColor}.cls-1{opacity:.25}
    </style>
  </defs>
  <polygon points="232 376 232 432 160 464 160 496 352 496 352 464 280 432 280 376 232 376" class="cls-1"/>
  <path fill="none" d="M16,56a23.8623,23.8623,0,0,1,1.7068-8.8713L16,45.4219Z"/>
  <path d="M16,56V352a24.0275,24.0275,0,0,0,24,24H346.5774L16,44Z" class="cls-3"/>
  <path d="M316.5679,235.5969,456.9707,376H472a24.0275,24.0275,0,0,0,24-24V56a24.0275,24.0275,0,0,0-24-24H112.7007L316.5676,235.5969Z" class="cls-3"/>
  <polygon points="45.709 16 16 16 16 45.422 17.707 47.129 346.577 376 466.577 496 496 496 496 466.457 45.709 16" class="cls-1"/>
</svg>
