<svg xmlns="http://www.w3.org/2000/svg" id="export" viewBox="0 0 512 512">
  <defs>
    <style>
      .cls-1,.cls-2{fill:currentColor}.cls-1{opacity:.25}
    </style>
  </defs>
  <rect width="336" height="120" x="16" y="240" class="cls-1"/>
  <rect width="48" height="120" x="376" y="240" class="cls-2"/>
  <rect width="48" height="120" x="448" y="240" class="cls-2"/>
  <path d="M395.2837,170.6641a33.6721,33.6721,0,0,1,2.2251-39.1,69.6484,69.6484,0,0,0,3.5522-83.1338L400.7662,48H357.1388L371.354,68.7656a33.4672,33.4672,0,0,1-1.6636,39.9492c-18.78,22.8633-20.73,56.3077-4.7436,81.3311l6.36,9.9541h42.72Z" class="cls-1"/>
  <path d="M467.2837,170.6641a33.6721,33.6721,0,0,1,2.2251-39.1,69.6484,69.6484,0,0,0,3.5522-83.1338L472.7662,48H429.1388L443.354,68.7656a33.4672,33.4672,0,0,1-1.6636,39.9492c-18.78,22.8633-20.73,56.3077-4.7436,81.3311l6.36,9.9541h42.72Z" class="cls-1"/>
</svg>
