<svg xmlns="http://www.w3.org/2000/svg" viewBox="0 0 512 512">
  <path fill="currentColor" d="M453.2554,204.7636c-10.8618-27.8389-28.3047-49.2793-50.4424-62.0024a96.6341,96.6341,0,0,0-38.5491-12.4146,120.17,120.17,0,0,1-107.1116,68.3928l-.011-.0255a120.6307,120.6307,0,0,1-7.0884-22.2557,119.17,119.17,0,0,1-2.5956-21.4681c-9.4792-4.5424-17.7763-8.4528-21.0589-9.7288-15.6044-6.0659-34.7023-13.265-39.2436-13.9865-24.9429-3.9619-47.811-.0981-67.9678,11.4864-22.1377,12.7231-39.5806,34.1635-50.4424,62.0024-9.874,25.3071-13.6079,54.8174-10.5136,83.0942C68.3726,380.54,97.89,442.8857,143.5923,468.1562A99.91,99.91,0,0,0,192.69,480.7c19.5855,0,40.6289-5.1948,62.9751-15.5756h10.67c22.3462,10.3808,43.39,15.5752,62.9751,15.5756a99.9093,99.9093,0,0,0,49.0976-12.5434c45.7022-25.2705,75.22-87.6167,85.3613-180.2984C466.8633,259.581,463.1294,230.0707,453.2554,204.7636Z"/>
  <path fill="currentColor" d="M366.25,31.3257l-.0114-.0253a119.3266,119.3266,0,0,0-31.8235,4.6529c-1.2775.3676-2.5516.7659-3.8239,1.1782q-.4746.1539-.9485.3118c-1.2724.4241-2.5432.8623-3.8094,1.3318q-2.8452,1.0551-5.6662,2.264a119.9869,119.9869,0,0,0-63.0254,157.6748l.011.0255A120.104,120.104,0,0,0,366.25,31.3257Z" opacity=".25"/>
</svg>
