<svg xmlns="http://www.w3.org/2000/svg" id="export" viewBox="0 0 512 512">
  <defs>
    <style>
      .cls-2{fill:currentColor}
    </style>
  </defs>
  <path fill="currentColor" d="M288,163.2776V100.9009L213.2568,26.1577a16,16,0,0,0-22.6274,0L24.3345,192.4529a16,16,0,0,0,0,22.6274l271.2519,271.252a16,16,0,0,0,22.6275,0l166.295-166.2952a16,16,0,0,0,0-22.6274l-24.1322-24.1321H398A110,110,0,0,1,288,163.2776Z" opacity=".25"/>
  <path d="M320,157.1484a84,84,0,0,0,168,0V104H462.5V75.5273a60.25,60.25,0,1,0-120.5,0V104H320Zm58-81.6211a24.25,24.25,0,1,1,48.5,0V102H378Z" class="cls-2"/>
  <path d="M52.1816,310.9365h-36c0,95.4317,73.1037,174.1,166.2509,182.9737q5.08.4838,10.2384.6848l-45.662-81.8645-8.1-14.5215L130.75,408l-6.71,8.0525L112.45,429.96A147.6975,147.6975,0,0,1,52.1816,310.9365Z" class="cls-2"/>
</svg>
