<svg xmlns="http://www.w3.org/2000/svg" id="export" viewBox="0 0 512 512">
  <defs>
    <style>
      .cls-1{fill:currentColor}
    </style>
  </defs>
  <path d="M480,248H368a16,16,0,0,0-16,16V456a16,16,0,0,0,16,16H480a16,16,0,0,0,16-16V264A16,16,0,0,0,480,248Z" class="cls-1"/>
  <polygon points="249 424.122 249 384 207 384 207 424.122 152 430.857 152 472 304 472 304 430.857 249 424.122" class="cls-1"/>
  <path fill="currentColor" d="M408,80H32A16,16,0,0,0,16,96V368a16,16,0,0,0,16,16H320V264a48.0543,48.0543,0,0,1,48-48h56V96A16,16,0,0,0,408,80Z" opacity=".25"/>
  <path d="M272,217.6684c-2.0107-6.1886-2.3855-7.3419-4.3962-13.53l-48.419-7.8687-.897-.6517L195.842,152H181.6152l-22.4458,43.6175-.8969.6517-48.419,7.8687c-2.0107,6.1886-2.3855,7.3419-4.3962,13.53l34.5464,34.8258c.1208.3714.2219.6831.3427,1.0545l-7.4787,48.4806,11.51,8.3623,43.7969-22.0939h1.1087L233.08,310.3916l11.51-8.3623-7.4786-48.4806c.1206-.3714.222-.6831.3428-1.0545Z" class="cls-1"/>
</svg>
