<svg xmlns="http://www.w3.org/2000/svg" id="export" viewBox="0 0 512 512">
  <defs>
    <style>
      .cls-2{fill:currentColor}
    </style>
  </defs>
  <polygon fill="currentColor" points="472 198.12 431.24 154.82 414.12 97.88 357.18 80.76 313.88 40 256 53.65 198.12 40 154.82 80.76 97.88 97.88 80.76 154.82 40 198.12 53.65 256 40 313.88 80.76 357.18 97.88 414.12 154.82 431.24 198.12 472 256 458.35 313.88 472 357.18 431.24 414.12 414.12 431.24 357.18 472 313.88 458.35 256 472 198.12" opacity=".25"/>
  <polygon points="216 184 246 264 266 264 296 184 296 128 216 128 216 184" class="cls-2"/>
  <circle cx="256" cy="352" r="40" class="cls-2"/>
</svg>
