<svg xmlns="http://www.w3.org/2000/svg" viewBox="0 0 512 512">
  <path fill="currentColor" d="M234.153,340.9966h0l-52.1993-39.1494L77.5549,380.1462l36.4388,73.962a9.2276,9.2276,0,0,0,7.825,4.3369h22.3447C316.386,458.4451,456,318.8311,456,146.6084V124.2639a9.2271,9.2271,0,0,0-4.337-7.8249L377.701,80,299.402,184.3987l39.1495,52.1994h0A104.3984,104.3984,0,0,1,234.153,340.9966Z"/>
  <polygon fill="currentColor" points="200 56 48 56 48 200 96 200 96 135.678 199.521 233.448 232.479 198.552 132.365 104 200 104 200 56" opacity=".25"/>
</svg>
