<svg xmlns="http://www.w3.org/2000/svg" id="export" viewBox="0 0 512 512">
  <defs>
    <style>
      .cls-2{fill:currentColor}
    </style>
  </defs>
  <circle cx="368" cy="160" r="27" fill="none"/>
  <path d="M453,199.7056a545.4106,545.4106,0,0,0-12.1943-114.583L425.9253,16H382.9639l16.7832,77.9614c.3857,1.7912.7549,3.5862,1.1211,5.382A69.0143,69.0143,0,1,0,411,213.9044V242h42ZM368,187a27,27,0,1,1,27-27A27.0308,27.0308,0,0,1,368,187Z" class="cls-2"/>
  <path fill="currentColor" d="M323,332v96a65,65,0,0,0,130,0V242H411V428a23,23,0,0,1-46,0V332a65.0737,65.0737,0,0,0-65-65H248v42h52A23.0259,23.0259,0,0,1,323,332Z" opacity=".25"/>
  <path d="M216,64H48A32,32,0,0,0,16,96V496H248V96A32,32,0,0,0,216,64ZM157.8374,376H121.02l16.7146-78h-47.69l22.8-114h36.7126l-15.6,78h48.31Z" class="cls-2"/>
</svg>
