<svg xmlns="http://www.w3.org/2000/svg" id="export" viewBox="0 0 512 512">
  <defs>
    <style>
      .cls-2{fill:currentColor}
    </style>
  </defs>
  <path fill="currentColor" d="M480,80H32A16,16,0,0,0,16,96v64A264,264,0,0,1,280,424H480a16,16,0,0,0,16-16V96A16,16,0,0,0,480,80Z" opacity=".25"/>
  <polygon points="304 230.111 304 265.889 368 297.889 432 265.889 432 230.111 368 262.111 304 230.111" class="cls-2"/>
  <polygon points="456 188 456 172 368 128 280 172 280 188 368 232 456 188" class="cls-2"/>
  <path d="M176.269,263.731A224.6183,224.6183,0,0,0,16.3936,197.5083v48c98.2036,0,178.0981,79.8945,178.0981,178.0981h48A224.6183,224.6183,0,0,0,176.269,263.731Z" class="cls-2"/>
  <path d="M16,360v64H80A64,64,0,0,0,16,360Z" class="cls-2"/>
  <path d="M16.2539,280.6348v48a95.2187,95.2187,0,0,1,95.1113,95.1113h48C159.3652,344.8345,95.1655,280.6348,16.2539,280.6348Z" class="cls-2"/>
</svg>
