<svg xmlns="http://www.w3.org/2000/svg" id="export" viewBox="0 0 512 512">
  <defs>
    <style>
      .cls-1,.cls-2{fill:currentColor}.cls-1{opacity:.25}
    </style>
  </defs>
  <path d="M373.85,134h68.3l8.5-50.45A43.25,43.25,0,0,0,408,33.12h0a43.25,43.25,0,0,0-42.65,50.43Z" class="cls-1"/>
  <path d="M449.82,188.93h0A63.89,63.89,0,0,1,441.6,170H374.4a63.89,63.89,0,0,1-8.22,18.93h0a190,190,0,0,0-17.86,35.49,245.37,245.37,0,0,1,11.29,166.36l14.3,40.1h68.18L469,355.51A190,190,0,0,0,449.82,188.93Z" class="cls-1"/>
  <path d="M163.68,224.42a190,190,0,0,0-17.86-35.49h0A63.89,63.89,0,0,1,137.6,170H70.4a63.89,63.89,0,0,1-8.22,18.93h0A190,190,0,0,0,43,355.51l26.87,75.37h68.18l14.3-40.1a245.37,245.37,0,0,1,11.29-166.36Z" class="cls-1"/>
  <path d="M69.85,134h68.3l8.5-50.45A43.25,43.25,0,0,0,104,33.12h0A43.25,43.25,0,0,0,61.35,83.55Z" class="cls-1"/>
  <path d="M215.58,134l2.69,16h75.46l2.69-16L304,88.8a48.67,48.67,0,0,0,.69-8.27,48.46,48.46,0,0,0-9.92-29.26,46,46,0,0,0-3.32-3.93c-.59-.63-1.19-1.24-1.81-1.84a48.74,48.74,0,0,0-67.34,0A49.17,49.17,0,0,0,213,57.77a48.47,48.47,0,0,0-5.05,31Z" class="cls-2"/>
  <path d="M336.74,310.87c-.24-4-.58-8.06-1.05-12.08a215.28,215.28,0,0,0-4.12-23.89q-1.38-5.91-3.08-11.75a214.37,214.37,0,0,0-8.17-23Q318,234.53,315.24,229t-5.74-10.9q-3-5.38-6.4-10.62h0A72.24,72.24,0,0,1,293.8,186H218.2a72.24,72.24,0,0,1-9.3,21.49h0q-3.36,5.23-6.4,10.62T196.76,229q-2.72,5.52-5.08,11.16a214.37,214.37,0,0,0-8.17,23q-1.71,5.84-3.08,11.75a215.28,215.28,0,0,0-4.12,23.89c-.47,4-.81,8-1.05,12.08s-.35,8-.35,12V323a213.77,213.77,0,0,0,12.43,72.11L217.6,480h76.8l30.26-84.89A213.77,213.77,0,0,0,337.09,323v-.09Q337.09,316.88,336.74,310.87Z" class="cls-2"/>
</svg>
