<svg xmlns="http://www.w3.org/2000/svg" id="export" viewBox="0 0 512 512">
  <defs>
    <style>
      .cls-1{fill:currentColor}
    </style>
  </defs>
  <path d="M165,64V219.8936l27,27v96H96v-96l27-27V64H32V408a48,48,0,0,0,48,48H288a48,48,0,0,0,48-48V64Z" class="cls-1"/>
  <g opacity=".25">
    <polygon points="96 246.894 96 342.894 192 342.894 192 246.894 165 219.894 165 64 123 64 123 219.894 96 246.894" class="cls-1"/>
    <path d="M436.5745,120H336v60h80a4,4,0,0,1,4,4V320a4,4,0,0,1-4,4H336v60H436.5745A43.4257,43.4257,0,0,0,480,340.5745V163.4255A43.4257,43.4257,0,0,0,436.5745,120Z" class="cls-1"/>
  </g>
</svg>
