<svg xmlns="http://www.w3.org/2000/svg" viewBox="0 0 512 512">
  <path fill="currentColor" d="M386.1512,259.89,336,264l-16,96,57.9471,14.4868a15.9363,15.9363,0,0,0,12.0851-1.7849C409.896,360.7507,472,314.25,472,200c0-85.4763-59.444-138.5288-80.6194-154.7156a16.0261,16.0261,0,0,0-15.363-2.291L320,64l16,80,50.1512,12.11h0a73.3834,73.3834,0,0,1,0,103.78Z" opacity=".25"/>
  <path fill="currentColor" d="M304,496V429.178a36,36,0,0,0-18.5109-31.4665l-79.6629-44.2769L232,288V224a72,72,0,0,0-72-72h0a72,72,0,0,0-72,72v64l26.1738,65.4346L34.5109,397.7115A36,36,0,0,0,16,429.178V496Z"/>
</svg>
