<svg xmlns="http://www.w3.org/2000/svg" id="export" viewBox="0 0 512 512">
  <defs>
    <style>
      .cls-1,.cls-3{fill:currentColor}.cls-1{opacity:.25}
    </style>
  </defs>
  <path d="M106.4014,382a23.9994,23.9994,0,0,1-20.6807-36.1782L151.5714,234H101v-8.7177L44.3594,321.4644A72,72,0,0,0,106.4014,430h49.7934l48.0005-48Z" class="cls-1"/>
  <path d="M241.4053,81.4521v0a23.9993,23.9993,0,0,1,41.36,0L330.2,162h55.705L324.127,57.0947a72,72,0,0,0-124.0831,0L175.9011,98.092l15.611,68.0843Z" class="cls-1"/>
  <path d="M479.8115,321.4644l-31.61-53.6771-61.7225-10.2181,51.971,88.2521A24,24,0,0,1,417.77,382H308.8967l16.479,16.4791L293.855,430H417.77a72.0007,72.0007,0,0,0,62.042-108.5356Z" class="cls-1"/>
  <polygon fill="#fff" points="151.533 135 152.271 138.218 154.166 135 151.533 135"/>
  <polygon points="42.642 215.188 40 219.454 176.512 304 179.544 299.104 153.681 189.085 42.642 215.188" class="cls-3"/>
  <polygon points="329.971 488 335 487.94 333.076 327 327.303 327.069 248.162 408.125 329.971 488" class="cls-3"/>
  <polygon points="416 100.173 413.214 96 279.67 185.161 282.869 189.951 393.706 212.04 416 100.173" class="cls-3"/>
</svg>
