<svg xmlns="http://www.w3.org/2000/svg" id="export" viewBox="0 0 512 512">
  <defs>
    <style>
      .cls-2{fill:currentColor}
    </style>
  </defs>
  <polygon fill="currentColor" points="183.196 16 135.196 16 135.196 384 56 384 56 391.529 135.196 470.725 135.196 472 136.471 472 160.471 496 265.911 390.56 265.911 384 183.196 384 183.196 16" opacity=".25"/>
  <polygon points="424 195 389 195 389 48 347 48 347 72 312 72 312 112 347 112 347 195 312 195 312 237 424 237 424 195" class="cls-2"/>
  <path d="M429,327.6A60.6687,60.6687,0,0,0,368.4,267H364a60.6687,60.6687,0,0,0-60.6,60.6V332A60.6687,60.6687,0,0,0,364,392.6h4.4a60.3892,60.3892,0,0,0,17.0592-2.4611A39.8621,39.8621,0,0,1,347.2,419H328v42h19.2A81.8925,81.8925,0,0,0,429,379.2V333.6H428.96c.0139-.5333.0405-1.0635.0405-1.6Zm-60.6,23H364A18.6209,18.6209,0,0,1,345.4,332v-4.4A18.6209,18.6209,0,0,1,364,309h4.4A18.6209,18.6209,0,0,1,387,327.6V332A18.6209,18.6209,0,0,1,368.4,350.6Z" class="cls-2"/>
</svg>
