<svg xmlns="http://www.w3.org/2000/svg" id="export" viewBox="0 0 512 512">
  <defs>
    <style>
      .cls-2{fill:currentColor}
    </style>
  </defs>
  <g opacity=".25">
    <path d="M397.22,123.1l-.22-.22C334.51,60.39,240.53,48.14,165.68,86.1l52.66,52.65L357.25,277.66l59.45,59.46L496,254.68V225.79Z" class="cls-2"/>
    <path d="M306.48,335.49l-146-146-55.87-55.87L16,225.79v28.89l98.78,102.69.22.22a199.78,199.78,0,0,0,243.59,30l-42.77-42.76Z" class="cls-2"/>
  </g>
  <path d="M256,132a107.84,107.84,0,0,0-37.66,6.75L357.25,277.66A108.07,108.07,0,0,0,256,132Z" class="cls-2"/>
  <path d="M392.41,362l-44.35-44.35L322.5,292.12,196.12,165.74l-25.56-25.56-35.13-35.13L46.38,16H16V45l88.64,88.64,38.76,38.76,17.11,17.11a108,108,0,0,0,146,146l9.34,9.35,42.77,42.76L467,496h29V465.62Z" class="cls-2"/>
</svg>
