<svg xmlns="http://www.w3.org/2000/svg" viewBox="0 0 512 512">
  <path fill="currentColor" d="M455.0591,314.3159a7.9914,7.9914,0,0,0-4.918-3.9433L312,272V148a36.4473,36.4473,0,0,0-.1858-3.6807,35.9346,35.9346,0,0,0-.5456-3.5747q-.36-1.7571-.887-3.45a35.9253,35.9253,0,0,0-6.6023-12.1943q-1.1-1.333-2.3235-2.5567-1.2213-1.2208-2.5564-2.3232a35.92,35.92,0,0,0-12.1941-6.602q-1.6908-.5259-3.45-.8873a35.876,35.876,0,0,0-3.5747-.5454,36.3462,36.3462,0,0,0-12.6778.9473,35.7675,35.7675,0,0,0-6.61,2.4165q-1.574.7588-3.06,1.6621a36.18,36.18,0,0,0-12.1206,12.1206q-.9019,1.4847-1.6619,3.06A35.84,35.84,0,0,0,240,148V344H192l-23.2952-28.4717q-1.3194-1.6128-2.7116-3.1274c-.3047-.3335-.6226-.6475-.9319-.9741-.6316-.6665-1.2649-1.3311-1.9158-1.97-.3769-.37-.7651-.7221-1.1484-1.0825-.6045-.5679-1.21-1.1333-1.83-1.6782-.4138-.3633-.8354-.7139-1.2556-1.0669-.6089-.5117-1.2212-1.0176-1.8432-1.5068-.4375-.3443-.88-.68-1.3235-1.0127q-.9405-.7068-1.8982-1.38-.6732-.4731-1.3543-.9312c-.656-.4389-1.3191-.8637-1.9865-1.28-.4507-.2813-.9009-.5635-1.3565-.8345-.6992-.416-1.4075-.812-2.1177-1.2031-.4358-.24-.8686-.4864-1.3081-.7168-.7778-.4082-1.5659-.7915-2.3554-1.17-.3833-.1841-.7625-.3794-1.1485-.5567-1.0136-.4653-2.0383-.9013-3.0688-1.3193-.169-.0684-.3347-.1465-.5042-.2139q-1.8245-.7243-3.68-1.3486c-.272-.0918-.5483-.168-.8213-.2564-.9548-.31-1.9121-.6093-2.8769-.88-.4287-.12-.8618-.2227-1.2925-.335-.8152-.2129-1.6314-.4219-2.4524-.6069-.4883-.11-.98-.2056-1.47-.3052-.7715-.1577-1.5437-.31-2.3194-.4429-.5163-.0884-1.0344-.1665-1.5525-.2441-.7556-.1133-1.5127-.2173-2.2714-.3076q-.7973-.0953-1.5962-.1724-1.1275-.11-2.2583-.1826c-.5364-.0362-1.073-.0708-1.61-.0952-.76-.0342-1.5206-.05-2.2813-.0616-.5554-.0078-1.11-.021-1.6658-.0166-.467.0035-.934.0181-1.4011.03-.6955.0186-1.3913.0425-2.0867.0806-.4721.0254-.944.0576-1.4157.0923q-1.0426.0768-2.0838.1831c-.4646.0468-.9292.0962-1.3933.1523-.71.0855-1.4179.1856-2.1257.292-.4429.0664-.8862.13-1.3286.2046-.7522.1269-1.5022.2729-2.2515.4228-.3926.0787-.7861.15-1.1777.2349-.8882.1934-1.773.4107-2.6558.6367-.248.0635-.4975.1172-.7451.1831q-1.7135.4586-3.41.9991c-.1563.05-.31.1088-.4666.16-.9587.3135-1.914.6431-2.8627.9966-.3582.1338-.7122.2822-1.0689.4214-.7422.29-1.4829.5845-2.2178.9-.4121.1767-.82.3652-1.23.55-.6743.3042-1.3469.6138-2.0142.939-.4279.2084-.8527.4252-1.2778.6425q-.9649.4937-1.92,1.0166-.6412.3524-1.2781.7178c-.6284.3613-1.2519.7358-1.8725,1.1177-.4156.2558-.8316.5107-1.2437.7754-.6313.4057-1.2554.8291-1.8774,1.2563-.3863.2652-.7747.5239-1.157.7974-.6736.4814-1.3369.9853-1.9986,1.4922-.3173.2431-.64.4756-.9541.7246-.969.7671-1.9265,1.5576-2.8674,2.3808a7.6063,7.6063,0,0,0-2.7847,4.3731,5.3548,5.3548,0,0,0-.0522,1.3784c.2439,2.7075,2.4419,5.1138,4.1665,6.9932.1919.209.3774.4116.5542.6069L222.1936,496H456V318.0806A7.9808,7.9808,0,0,0,455.0591,314.3159Z"/>
  <path fill="currentColor" d="M208,245.0967V148a68,68,0,0,1,136,0v97.0967A132.0514,132.0514,0,0,0,408,132C408,59.2148,348.7852,0,276,0S144,59.2148,144,132A132.0514,132.0514,0,0,0,208,245.0967Z" opacity=".25"/>
</svg>
