<svg xmlns="http://www.w3.org/2000/svg" id="export" viewBox="0 0 512 512">
  <defs>
    <style>
      .cls-2{fill:currentColor}
    </style>
  </defs>
  <rect width="480" height="480" x="16" y="16" fill="currentColor" opacity=".25" rx="32"/>
  <polygon points="192 232 128 232 128 136 80 136 80 376 128 376 128 280 192 280 192 376 240 376 240 136 192 136 192 232" class="cls-2"/>
  <path d="M431.11,355.39A59.67,59.67,0,0,0,440,324V188a60.07,60.07,0,0,0-60-60H336a56.06,56.06,0,0,0-56,56V328a56.06,56.06,0,0,0,56,56h44a59.57,59.57,0,0,0,11.72-1.16L412,413.31,452,386.69ZM392,324a12,12,0,0,1-12,12H336a8,8,0,0,1-8-8V184a8,8,0,0,1,8-8h44a12,12,0,0,1,12,12Z" class="cls-2"/>
</svg>
