<svg xmlns="http://www.w3.org/2000/svg" id="export" viewBox="0 0 512 512">
  <defs>
    <style>
      .cls-2{fill:currentColor}
    </style>
  </defs>
  <path fill="currentColor" d="M56.0147,32h400a24,24,0,0,1,24,24V456a24,24,0,0,1-24,24h-400a24,24,0,0,1-24-24V56a24,24,0,0,1,24-24Z" opacity=".25"/>
  <polygon points="275.112 159.71 331.079 215.677 359.363 187.393 254.488 82.518 148.987 188.018 177.271 216.302 235.112 158.461 235.112 274.706 125.077 384.444 153.323 412.767 275.112 291.305 275.112 159.71" class="cls-2"/>
  <rect width="40" height="105.783" x="299.4" y="308.314" class="cls-2" transform="rotate(-45 319.4 361.206)"/>
</svg>
