<svg xmlns="http://www.w3.org/2000/svg" id="export" viewBox="0 0 512 512">
  <defs>
    <style>
      .cls-1{fill:currentColor}
    </style>
  </defs>
  <polygon points="264 412.353 264 312.888 321.184 350.606 200 229.422 200 240.646 96 307.776 96 379.515 98.021 382.647 200 316.821 200 495.999 255.736 496 380.183 409.605 334.197 363.619 264 412.353" class="cls-1"/>
  <polygon points="264 101.458 336.696 152.409 273.875 192.96 316.567 235.597 316.568 235.597 320.202 239.231 415.939 177.434 415.95 129.802 253.541 15.974 200 16.038 200 119.184 264 183.099 264 101.458" class="cls-1"/>
  <polygon fill="currentColor" points="415.004 385.431 200 170.348 45.709 16 16 16 16 45.422 61.578 91 96 125.422 200 229.422 321.184 350.606 334.197 363.619 380.183 409.605 466.578 496 496 496 496 466.457 415.004 385.431" opacity=".25"/>
  <path fill="#fff" d="M29.7317-.2438c-.0452.0417-.0908.0827-.136.1244L45.7092,16h.2664Z"/>
</svg>
