<svg xmlns="http://www.w3.org/2000/svg" id="export" viewBox="0 0 512 512">
  <defs>
    <style>
      .cls-1{fill:currentColor}
    </style>
  </defs>
  <polygon points="208 291 208 333 320 333 320 291 285 291 285 168 243 168 243 203 208 203 208 245 243 245 243 291 208 291" class="cls-1"/>
  <path fill="currentColor" d="M448,210.4V240A120.13,120.13,0,0,1,328,360H120V296L88,323.06l-33.81,28.6L16,384l104,88V408H328c92.64,0,168-75.37,168-168V168h-.82Z" opacity=".25"/>
  <path d="M64,293.58V264A120.13,120.13,0,0,1,184,144H392v64l32-27.08,33.81-28.61L496,120,392,32V96H184C91.36,96,16,171.36,16,264v72h.82Z" class="cls-1"/>
</svg>
