<svg xmlns="http://www.w3.org/2000/svg" id="export" viewBox="0 0 512 512">
  <defs>
    <style>
      .cls-1{opacity:.25}.cls-2{fill:currentColor}
    </style>
  </defs>
  <g class="cls-1">
    <path d="M475.7666,91.4072,320,51.3672v159.86l63.1621-48.5864A144.4886,144.4886,0,0,1,279.959,408l.082,48A192.4871,192.4871,0,0,0,421.4067,133.2227Z" class="cls-2"/>
  </g>
  <g class="cls-1">
    <path d="M130.3223,154.3223A143.5732,143.5732,0,0,1,232.2461,112l-.082-48A191.269,191.269,0,0,0,96.3809,120.3809C23.24,193.5225,21.3887,311.355,90.8018,386.7749L36.4385,428.5928l155.7666,40.04v-159.86l-63.1616,48.5859C73.9971,300.9175,74.4165,210.228,130.3223,154.3223Z" class="cls-2"/>
  </g>
  <rect width="48" height="48" x="232" y="328" class="cls-2"/>
  <polygon points="232 229.714 238 288 274 288 280 229.714 280 152 232 152 232 229.714" class="cls-2"/>
</svg>
