<svg xmlns="http://www.w3.org/2000/svg" id="export" viewBox="0 0 512 512">
  <defs>
    <style>
      .cls-1,.cls-2{fill:currentColor}.cls-2{opacity:.25}
    </style>
  </defs>
  <path d="M310.6631,427.0383a36.9674,36.9674,0,0,0-20.647-23.9068q-1.3659-.6041-2.7876-1.0988a36.6144,36.6144,0,0,0-5.8823-1.51A37.1,37.1,0,0,0,275.1274,400a36.69,36.69,0,0,0-20.2885,6.0875q-1.062.7014-2.0713,1.4722a37.0664,37.0664,0,0,0-3.7134,3.24q-.6255.6255-1.2207,1.2805a36.7687,36.7687,0,0,0-8.688,16.7461,37.156,37.156,0,0,0-.833,5.987q-.0579,1.0222-.0581,2.0593h0a37.06,37.06,0,0,0,.66,6.98,36.7342,36.7342,0,0,0,6.666,15.0815,36.6833,36.6833,0,0,0,7.1875,7.2515q1.2488.9543,2.5815,1.7993a36.7448,36.7448,0,0,0,3.7925,2.1243c.8252.3977,1.6729.7558,2.5313,1.0925.8173.3208,1.6445.6231,2.49.8857a36.954,36.954,0,0,0,32.1289-5.017,37.0761,37.0761,0,0,0,10.019-10.5113q.6534-1.0328,1.2393-2.1108a36.6969,36.6969,0,0,0,2.2129-4.8977q.62-1.6943,1.0767-3.463c.2758-1.0729.4985-2.167.6777-3.2755a36.8264,36.8264,0,0,0-.854-15.774Z" class="cls-1"/>
  <path d="M429.1982,422.7572c-.2368-.5714-.4931-1.1327-.7573-1.6891a36.8014,36.8014,0,0,0-2.0293-3.7038q-.4827-.7736-1.0024-1.5208a36.8577,36.8577,0,0,0-50.57-9.756q-1.062.7014-2.0713,1.4722a37.0664,37.0664,0,0,0-3.7134,3.24q-.6255.6255-1.2207,1.2805a36.7659,36.7659,0,0,0-9.5791,24.7924h0a37.06,37.06,0,0,0,.66,6.98,36.7342,36.7342,0,0,0,6.666,15.0815,36.6833,36.6833,0,0,0,7.1875,7.2515q1.2487.9543,2.5815,1.7993a36.7448,36.7448,0,0,0,3.7925,2.1243c.8252.3977,1.6729.7558,2.5313,1.0925.8173.3208,1.6445.6231,2.49.8857a36.954,36.954,0,0,0,32.1289-5.017,37.0761,37.0761,0,0,0,10.019-10.5113q.6534-1.0328,1.2393-2.1108a36.6969,36.6969,0,0,0,2.2129-4.8977q.62-1.6943,1.0767-3.463c.2758-1.0729.4985-2.167.6777-3.2755a36.9157,36.9157,0,0,0-1.8067-18.75Q429.4667,423.4038,429.1982,422.7572Z" class="cls-1"/>
  <path d="M189.0547,422.4355q-.5127-1.2039-1.1079-2.363-.3721-.7254-.7744-1.4319A36.9189,36.9189,0,0,0,146.8,400.9441q-1.338.309-2.6376.7136-1.7319.5387-3.3877,1.24-1.6542.7-3.2232,1.5526-.7836.4257-1.5442.8878a36.8734,36.8734,0,0,0,36.1573,64.2328q.7228-.3775,1.4262-.7862a36.7516,36.7516,0,0,0,11.084-9.85q1.0612-1.42,1.9868-2.9417t1.7022-3.134A36.7017,36.7017,0,0,0,192,436.8727a37.0459,37.0459,0,0,0-.6455-6.8516A36.5515,36.5515,0,0,0,189.0547,422.4355Z" class="cls-1"/>
  <path d="M423.7705,190.0044c.0762.0347.1533.0688.2285.1066l.001,0-.001,0C423.9238,190.0732,423.8457,190.0419,423.7705,190.0044Z" class="cls-1"/>
  <path d="M423.5381,189.8966c.0766.0375.1557.07.2324.1078-.0791-.0354-.1577-.0713-.2353-.1094Z" class="cls-1"/>
  <path d="M475.5254,318.5H160v-.0214c-1.6167-.0656-3.24-.1058-4.873-.1058-.9268,0-1.85.0183-2.7715.0394q-1.2518.0332-2.4981.0878H139.2622v-.0214c-1.6167-.0656-3.24-.1058-4.873-.1058a118.876,118.876,0,0,0-26.7613,3.0339q-4.3008.9936-8.477,2.2935-5.5657,1.7313-10.8872,3.9851-5.316,2.2485-10.3584,4.99-2.5188,1.3683-4.9629,2.8532A118.6644,118.6644,0,0,0,16,432H86.4463a68.8259,68.8259,0,0,1,125.1445-34.4948q1.8984,2.7151,3.5366,5.6137,1.6905-2.9932,3.6646-5.7937a68.9088,68.9088,0,0,1,116.3354,5.7937A68.8815,68.8815,0,0,1,462.7754,424H496V373.0986Z" class="cls-2"/>
  <path d="M447.5713,201.97l-24.0332-12.0734A57.6883,57.6883,0,0,0,398.1563,184h-139.56L229.5361,96.8213A47.9376,47.9376,0,0,0,184,64H16v82.832l40,16.001v50.334L16,229.168V286.5H472V243.7773A47.71,47.71,0,0,0,447.5713,201.97Z" class="cls-1"/>
  <polygon points="406 184 406 96 318 96 318 184 380.156 184 406 184" class="cls-2"/>
</svg>
