<svg xmlns="http://www.w3.org/2000/svg" viewBox="0 0 512 512">
  <path fill="currentColor" d="M399.93,217.4531V216c0-79.4019-64.5986-144-144.001-144S111.93,136.5981,111.93,216v2.4917a122.2749,122.2749,0,0,0-62.794,32.7075,109.3973,109.3973,0,0,0-33.206,78.42c0,31.1192,12.7881,60.7622,36.01,83.4693C74.6289,435.2754,105.2676,448,136,448H382.76a109.7493,109.7493,0,0,0,81.14-35.4541c20.6553-22.2065,32.03-51.6572,32.03-82.9268C495.93,271.1821,455.6455,225.3916,399.93,217.4531Z" opacity=".25"/>
  <polygon fill="currentColor" points="342.962 246.735 313.038 217.265 217.392 314.384 166.653 264.958 137.347 295.042 218.005 373.616 342.962 246.735"/>
</svg>
