<svg xmlns="http://www.w3.org/2000/svg" id="export" viewBox="0 0 512 512">
  <defs>
    <style>
      .cls-1,.cls-2{fill:currentColor}.cls-2{opacity:.25}
    </style>
  </defs>
  <polygon points="451.475 265.916 428.357 242.845 405.5 220.034 405.214 219.749 345.084 159.741 281.786 223.04 405.5 346.464 405.5 395.464 367.163 357.464 177.896 168.197 65.786 280.478 65.5 280.764 42.643 303.656 19.502 326.832 19.5 326.832 19.5 491.536 451.5 491.536 451.5 278.095 451.5 265.969 451.475 265.916" class="cls-1"/>
  <polygon points="451.5 61.464 451.5 20.464 405.5 20.464 405.5 61.464 364.5 61.464 364.5 107.464 405.5 107.464 405.5 148.464 451.5 148.464 451.5 107.464 492.5 107.464 492.5 61.464 451.5 61.464" class="cls-1"/>
  <polygon points="19.5 61.464 19.5 326.751 19.502 326.751 42.643 303.575 65.5 280.683 65.5 107.464 322.5 107.464 322.5 61.464 19.5 61.464" class="cls-2"/>
  <polygon points="405.5 219.953 428.357 242.764 451.475 265.835 451.5 265.888 451.5 190.464 405.5 190.464 405.5 219.953" class="cls-2"/>
</svg>
