<svg xmlns="http://www.w3.org/2000/svg" viewBox="0 0 512 512">
  <path fill="currentColor" d="M396.88,227.39l-12.37-38.45c-10.29-32-19.32-64.29-28.25-96.65A104,104,0,0,0,256,16h0A104,104,0,0,0,155.74,92.29c-8.93,32.36-18,64.69-28.25,96.65l-12.37,38.45A32,32,0,0,0,144.53,272H367.47A32,32,0,0,0,396.88,227.39Z" opacity=".25"/>
  <path fill="currentColor" d="M410.19,373.16l-78.93-49.87h0l-23.63-14.94,41.11-74.66A71.92,71.92,0,0,0,360,195V135a155.76,155.76,0,0,1-93.51-52.57c-29.41,48.37-72.33,81-114.49,91.35V195a71.92,71.92,0,0,0,11.26,38.66l41.11,74.66L181.18,323l-79.37,50.15A64,64,0,0,0,72,427.26v69.31L440,496V427.26A64,64,0,0,0,410.19,373.16Z"/>
</svg>
