<svg xmlns="http://www.w3.org/2000/svg" id="export" viewBox="0 0 512 512">
  <defs>
    <style>
      .cls-2{fill:currentColor}
    </style>
  </defs>
  <rect width="480" height="480" x="16" y="16" class="cls-2" opacity=".25" rx="32"/>
  <polygon points="134 305 129.6 305 123.4 185.48 108.9 119 52 119 52 377 92 377 92 170 96.8 170 101.6 273.01 124.3 377 174 377 174 119 134 119 134 305" class="cls-2"/>
  <polygon points="196 377 277 377 277 337 235 337 235 268 263 268 263 229 235 229 235 159 277 159 277 120 196 120 196 377" class="cls-2"/>
  <polygon points="420 119 420 165.32 413 235.28 413 318 408.4 318 402.37 231.81 395.42 181 354.58 181 347.63 231.83 341.6 318 337 318 337 235.33 330 165.36 330 119 291 119 291 167.2 313.37 376 364.75 376 372.98 232 377.07 232 385.36 377 436.62 377 458.89 168.77 459 167.74 459 119 420 119" class="cls-2"/>
</svg>
