<svg xmlns="http://www.w3.org/2000/svg" id="export" viewBox="0 0 512 512">
  <defs>
    <style>
      .cls-2{fill:currentColor}
    </style>
  </defs>
  <path fill="currentColor" d="M399.93,217.4531V216c0-79.4023-64.5986-144-144.001-144S111.93,136.5977,111.93,216v2.4912a122.2831,122.2831,0,0,0-62.794,32.708,109.3973,109.3973,0,0,0-33.206,78.42c0,31.1192,12.7881,60.7618,36.01,83.4688C74.6289,435.2754,105.2676,448,136,448H382.76a109.7475,109.7475,0,0,0,81.14-35.4541c20.6553-22.207,32.03-51.6572,32.03-82.9268C495.93,271.1816,455.6455,225.3916,399.93,217.4531Z" opacity=".25"/>
  <circle cx="160" cy="336" r="32" class="cls-2"/>
  <circle cx="264" cy="336" r="32" class="cls-2"/>
  <circle cx="368" cy="336" r="32" class="cls-2"/>
</svg>
