<svg xmlns="http://www.w3.org/2000/svg" id="export" viewBox="0 0 512 512">
  <defs>
    <style>
      .cls-2{fill:currentColor}
    </style>
  </defs>
  <polygon fill="currentColor" points="88 64 88 96 131.55 96 173.68 96 338.32 96 380.45 96 424 96 424 64 88 64" opacity=".25"/>
  <polygon points="16 16 16 144 88 144 88 96 88 64 88 16 16 16" class="cls-2"/>
  <polygon points="424 16 424 64 424 96 424 144 496 144 496 16 424 16" class="cls-2"/>
  <polygon points="338.32 96 331.74 181.55 256 244.66 180.26 181.55 173.68 96 131.55 96 139.74 202.45 220 269.34 220 331 292 331 292 269.34 372.26 202.45 380.45 96 338.32 96" class="cls-2"/>
  <polygon points="371.87 331 292 331 220 331 140.13 331 132.44 469.43 174.51 469.43 179.87 373 332.13 373 337.49 469.43 379.56 469.43 371.87 331" class="cls-2"/>
  <circle cx="256" cy="160" r="48" class="cls-2"/>
</svg>
