<svg xmlns="http://www.w3.org/2000/svg" id="export" viewBox="0 0 512 512">
  <defs>
    <style>
      .cls-1{fill:currentColor}
    </style>
  </defs>
  <polygon points="413.14 16 396.54 109 469.66 109 483.29 16 413.14 16" class="cls-1"/>
  <path d="M376,224H155.3A32,32,0,0,0,123.7,251l-7.94,49.69A108,108,0,0,1,212,408q0,4-.29,8H314.05A128,128,0,0,0,440.81,305.79L464.38,145H390.11Z" class="cls-1"/>
  <path fill="currentColor" d="M104,336a72,72,0,0,0-25.68,4.73q-2.31.88-4.54,1.92c-1.39.64-2.76,1.31-4.1,2s-2.73,1.57-4.06,2.41A71.43,71.43,0,0,0,53.2,357l-.11.11a72.45,72.45,0,0,0-10.67,13.58,71.35,71.35,0,0,0-6.05,12.57c-.49,1.35-.93,2.72-1.35,4.11q-.81,2.7-1.41,5.49c-.29,1.38-.56,2.78-.78,4.2a72.81,72.81,0,0,0,.63,25.47c.48,2.34,1.08,4.65,1.78,6.9a72,72,0,0,0,137.52,0c.7-2.25,1.3-4.56,1.78-6.9A72,72,0,0,0,104,336Z" opacity=".25"/>
</svg>
