<svg xmlns="http://www.w3.org/2000/svg" id="export" viewBox="0 0 512 512">
  <defs>
    <style>
      .cls-1{fill:currentColor}
    </style>
  </defs>
  <rect width="112" height="36" x="112" y="134" class="cls-1"/>
  <path fill="currentColor" d="M456,35H56A21,21,0,0,0,35,56V456a21,21,0,0,0,21,21H456a21,21,0,0,0,21-21V56A21,21,0,0,0,456,35ZM77,77H405.3013L77,405.3013Z" opacity=".25"/>
  <polygon points="370 288 334 288 334 334 288 334 288 370 334 370 334 416 370 416 370 370 416 370 416 334 370 334 370 288" class="cls-1"/>
</svg>
