<svg xmlns="http://www.w3.org/2000/svg" id="export" viewBox="0 0 512 512">
  <defs>
    <style>
      .cls-1{fill:currentColor}
    </style>
  </defs>
  <path d="M398.5137,319.3179l-53.32-22.0283A178.9756,178.9756,0,0,0,376,196.686c0-99.2524-80.748-180-180-180s-180,80.7476-180,180,80.748,180,180,180a178.9718,178.9718,0,0,0,101.3572-31.33l21.9612,53.1573ZM64,196.686c0-72.7851,59.2148-132,132-132s132,59.2149,132,132-59.2148,132-132,132S64,269.4712,64,196.686Z" class="cls-1"/>
  <path d="M479.5977,400.4023l-81.084-81.0844-79.1953,79.1958,81.0839,81.0844a56,56,0,1,0,79.1954-79.1958Z" class="cls-1" opacity=".25"/>
</svg>
