<svg xmlns="http://www.w3.org/2000/svg" id="export" viewBox="0 0 512 512">
  <defs>
    <style>
      .cls-2{fill:currentColor}
    </style>
  </defs>
  <rect width="512" height="288" y="127" fill="currentColor" opacity=".25" rx="16"/>
  <polygon points="198 352 234 352 234 227.894 248 227.894 264 227.894 278 227.894 278 352 314 352 314 227.894 344 227.894 344 191.894 264 191.894 248 191.894 168 191.894 168 227.894 198 227.894 198 352" class="cls-2"/>
  <path d="M402,301.79h22a42.0479,42.0479,0,0,0,42-42V232a42.0478,42.0478,0,0,0-42-42H366V352h36ZM402,226h22a6.0066,6.0066,0,0,1,6,6v27.79a6.0066,6.0066,0,0,1-6,6H402Z" class="cls-2"/>
  <polygon points="82 290 110 290 110 352 146 352 146 192 110 192 110 254 82 254 82 192 46 192 46 352 82 352 82 290" class="cls-2"/>
</svg>
