<svg xmlns="http://www.w3.org/2000/svg" id="export" viewBox="0 0 512 512">
  <defs>
    <style>
      .cls-1{fill:currentColor}
    </style>
  </defs>
  <path d="M82,118A49.2731,49.2731,0,0,1,96.5269,82.9292l.4023-.4023a49.6856,49.6856,0,0,1,56.1753-9.8391,78.8711,78.8711,0,0,1,25.3343-27.0049A85.6185,85.6185,0,0,0,71.4731,57.0708l-.4023.4023A85.0386,85.0386,0,0,0,46,118V278H82Z" class="cls-1"/>
  <polygon points="354.608 458 366.008 496 403.593 496 392.193 458 354.608 458" class="cls-1"/>
  <polygon points="112 458 100.917 496 138.417 496 149.5 458 112 458" class="cls-1"/>
  <path d="M307.272,45.272,287.1147,65.4291l-9.5366-9.5365A78.9736,78.9736,0,0,0,165.8926,167.5781l9.5366,9.5367L155.272,197.272l25.456,25.456,152-152Z" class="cls-1"/>
  <path fill="currentColor" d="M149.5,458H410.2339a25.9662,25.9662,0,0,0,24.6655-17.7783l29.7652-89.2949A25.948,25.948,0,0,0,466,342.7017V314h30V278H16v36H46v28.7017a25.9351,25.9351,0,0,0,1.3345,8.2216l29.7661,89.2984A25.9662,25.9662,0,0,0,101.7661,458H149.5Z" opacity=".25"/>
</svg>
