<svg xmlns="http://www.w3.org/2000/svg" id="export" viewBox="0 0 512 512">
  <defs>
    <style>
      .cls-1{fill:currentColor;opacity:.25}
    </style>
  </defs>
  <path d="M256,102.603c-83.8135,0-152,68.187-152,152,0,.4651.0151.9315.0193,1.397h48c-.0061-.4657-.0193-.9318-.0193-1.397a104,104,0,0,1,208,0c0,.4652-.0132.9313-.019,1.397h48c.0044-.4655.0195-.9319.0195-1.397C408,170.79,339.8135,102.603,256,102.603Z" class="cls-1"/>
  <path d="M256,64.5713c105.6782,0,191.6826,85.8218,191.9927,191.4287h48A239.996,239.996,0,0,0,86.2939,86.8657,238.4142,238.4142,0,0,0,16.0068,256H64.0073C64.3174,150.3931,150.3218,64.5713,256,64.5713Z" class="cls-1"/>
  <path fill="currentColor" d="M280,382.0586V323.8868a72,72,0,1,0-48,0v58.1723L118.1963,495.8628l.1372.1372h67.6079L256,425.9413,326.0586,496h67.8828Z"/>
</svg>
