<svg xmlns="http://www.w3.org/2000/svg" viewBox="0 0 512 512">
  <polygon fill="currentColor" points="178.201 367.74 260.308 285.634 342.414 367.74 376.355 333.799 294.249 251.692 376.355 169.586 342.414 135.645 260.308 217.751 178.201 135.645 144.26 169.586 226.366 251.692 144.26 333.799 178.201 367.74"/>
  <path fill="currentColor" d="M425.7061,86.2939A240.0007,240.0007,0,0,0,86.2939,425.7061,240.0007,240.0007,0,0,0,425.7061,86.2939ZM376.3555,333.7988,342.4141,367.74l-82.1065-82.1064L178.2012,367.74,144.26,333.7988l82.1064-82.1064L144.26,169.5859l33.9414-33.9414,82.1064,82.1065,82.1065-82.1065,33.9414,33.9414L294.249,251.6924Z" opacity=".25"/>
</svg>
