<svg xmlns="http://www.w3.org/2000/svg" id="export" viewBox="0 0 512 512">
  <defs>
    <style>
      .cls-1,.cls-2{fill:currentColor}.cls-2{opacity:.25}
    </style>
  </defs>
  <path d="M420,336c28.7188,0,52-25.0721,52-56s-52-96-52-96-52,65.0721-52,96S391.2812,336,420,336Z" class="cls-1"/>
  <path d="M467,392H46a29,29,0,0,0-29,29v43a29,29,0,0,0,29,29H467a29,29,0,0,0,29-29V421A29,29,0,0,0,467,392Z" class="cls-2"/>
  <path d="M99.9327,170l-4.0912,16L91.75,202,81.355,242.6543a13.2163,13.2163,0,0,0,9.518,16.0605l158.5083,40.52a13.1916,13.1916,0,0,0,16.0533-9.5171L287.8627,202l4.091-16,4.091-16Z" class="cls-2"/>
  <path d="M94.8662,19.7734,82.9894,66.2219,22.1357,49.2705,10.8643,89.73l61.718,17.1926L40.6646,231.7476a55.2651,55.2651,0,0,0,39.8042,67.1582l158.5087,40.5195a55.5338,55.5338,0,0,0,13.7715,1.7436,55.2557,55.2557,0,0,0,53.376-41.5468L360.3276,87.6353ZM296.0447,169.5l-4.091,16-4.091,16-22.4281,87.7173a13.1916,13.1916,0,0,1-16.0533,9.5171L90.873,258.2148a13.2163,13.2163,0,0,1-9.518-16.0605L91.75,201.5l4.0912-16,4.0912-16,25.2206-98.6338,184.0786,47.0581Z" class="cls-1"/>
</svg>
