<svg xmlns="http://www.w3.org/2000/svg" id="export" viewBox="0 0 512 512">
  <defs>
    <style>
      .cls-1{fill:none}.cls-2,.cls-3{fill:currentColor}.cls-3{opacity:.25}
    </style>
  </defs>
  <path d="M154.1677,124.1083l2.3821,2.3822,13.2034,13.2032L58.28,28.22Q64.9684,22.0435,71.7729,16H45.9756l96.2319,96.2319h.084Z" class="cls-1"/>
  <rect width="130.22" height="53.87" x="196.188" y="58.362" class="cls-1"/>
  <polygon points="495.768 465.709 495.768 465.793 496 466.025 496 465.941 483.07 453.011 495.768 465.709" class="cls-1"/>
  <polygon points="217.816 136.845 316.568 235.597 226.739 145.768 217.816 136.845" class="cls-1"/>
  <polygon points="308.059 278 307.975 278 343.975 314 344.059 314 308.059 278" class="cls-1"/>
  <polygon points="431.456 314 394.971 314 462.232 381.261 495.768 414.797 495.768 249.688 462.232 283.224 431.456 314" class="cls-2"/>
  <path d="M16,136.7681v61.8971l33.5831,33.5831L95.3345,278H248.671l-166-166H40.7681A24.768,24.768,0,0,0,16,136.7681Z" class="cls-3"/>
  <path d="M226.7962,145.5852l90.177,89.9531h0L359.5409,278h57.4684l45.5532-45.7517L496,198.6652V136.7681A24.768,24.768,0,0,0,471.2319,112H369l.05-96H154l-.03,56.94,63.8685,63.71ZM196.0283,58H326l-.0283,54H196Z" class="cls-3"/>
  <polygon points="466.379 495.801 466.378 495.801 466.578 496 466.579 496 466.379 495.801"/>
  <polygon points="495.768 465.793 496 466.025 496 466.025 495.768 465.793 495.768 465.793"/>
  <path fill="#fff" d="M72,16v-.1984c-.0752.0666-.1519.1318-.2271.1984Z"/>
  <path d="M495.7681,465.793,343.9753,314h0l-36-36h0L142.2075,112.2319h-.001L45.9746,16H16V45.4219l66.81,66.81L248.5779,278h0l36,36H81L49.7681,283.4233,16.2319,249.8872V471.2319A24.7961,24.7961,0,0,0,41,496H496V466.0249Z" class="cls-2"/>
</svg>
