<svg xmlns="http://www.w3.org/2000/svg" id="export" viewBox="0 0 512 512">
  <defs>
    <style>
      .cls-2{fill:currentColor}
    </style>
  </defs>
  <g opacity=".25">
    <path d="M256,16A238.8793,238.8793,0,0,0,131.655,50.6842L198.92,117.95l37.3189,37.3189,80.3283,80.3283h0L461.3157,380.345A238.8785,238.8785,0,0,0,496,256C496,123.4517,388.5483,16,256,16Z" class="cls-2"/>
    <path d="M242.5781,272l-40-40-63.2636-63.2637L72.23,101.6519A239.017,239.017,0,0,0,16,256c0,132.5483,107.4517,240,240,240a239.017,239.017,0,0,0,154.3481-56.23L280,309.4219Z" class="cls-2"/>
  </g>
  <path fill="#fff" d="M72,16v-.1984c-.0752.0666-.1519.1317-.2271.1984Z"/>
  <path d="M440.0239,410.0483,261.9756,232l-40-40-20.1309-20.1309L167.686,137.71,101.9517,71.9762,45.9756,16H16V45.4219l56.23,56.23,67.0845,67.0844A147.9831,147.9831,0,0,0,126.3213,192H88v40H202.5781l40,40H88v40h38.3213A148.2077,148.2077,0,0,0,261.6,400H312V352H261.6a99.9082,99.9082,0,0,1-79.9495-40H282.5781l127.77,127.77,56.23,56.23H496V466.0244Z" class="cls-2"/>
  <path d="M261.6,152H312V104H261.6a147.0894,147.0894,0,0,0-62.68,13.95l37.3189,37.3189A99.7871,99.7871,0,0,1,261.6,152Z" class="cls-2"/>
</svg>
