<svg xmlns="http://www.w3.org/2000/svg" viewBox="0 0 512 512">
  <path fill="currentColor" d="M471,112.2319H357.8262l-.05-95.87h-214.22l.05,95.87H41A24.7961,24.7961,0,0,0,16.2319,137V471.0327A24.7961,24.7961,0,0,0,41,495.8008H471a24.7961,24.7961,0,0,0,24.7681-24.7681V137A24.7961,24.7961,0,0,0,471,112.2319Zm-155.2021-53.87.0283,53.87h-130.22l-.0283-53.87Z" opacity=".25"/>
  <polygon fill="currentColor" points="246.834 408 246.834 329.633 335.064 329.633 335.064 281.633 246.834 281.633 246.834 203.266 236.617 203.266 144.467 305.633 236.617 408 246.834 408"/>
</svg>
