<svg xmlns="http://www.w3.org/2000/svg" id="export" viewBox="0 0 512 512">
  <defs>
    <style>
      .cls-2{fill:currentColor}
    </style>
  </defs>
  <path fill="currentColor" d="M425.5142,82.0547C380.7783,39.4585,320.6733,16,256.2715,16,196.2476,16,136.415,36.0728,92.1152,71.0713,43.0317,109.85,16,164.1606,16,224c0,60.0981,15.5308,98.87,48.876,122.0186,28,19.4379,68.4116,27.7314,135.124,27.7314h29.75A26.28,26.28,0,0,1,256,400v47.9844a31.9992,31.9992,0,0,0,31.9985,32h.0328l90.7548-.0879a32.1,32.1,0,0,0,19.6861-6.7954c9.7251-7.6221,34.7265-29.399,56.7944-66.9033C482.2954,360.2622,496,307.0366,496,248,496,184.2681,470.9678,125.334,425.5142,82.0547Z" opacity=".25"/>
  <circle cx="240" cy="128" r="40" class="cls-2"/>
  <circle cx="360" cy="184" r="40" class="cls-2"/>
  <circle cx="128" cy="200" r="40" class="cls-2"/>
  <circle cx="376" cy="320" r="40" class="cls-2"/>
</svg>
