<svg xmlns="http://www.w3.org/2000/svg" id="export" viewBox="0 0 512 512">
  <defs>
    <style>
      .cls-1{fill:#fff}.cls-3{fill:currentColor}
    </style>
  </defs>
  <path d="M238,512h18c-6.05,0-12.05-.23-18-.64Z" class="cls-1"/>
  <path d="M274,512v-.64c-5.95.41-11.95.64-18,.64Z" class="cls-1"/>
  <path d="M512,274V256c0,6.05-.23,12.05-.64,18Z" class="cls-1"/>
  <path d="M512,238h-.64c.41,5.95.64,11.95.64,18Z" class="cls-1"/>
  <g opacity=".25">
    <path d="M274,0H256c6.05,0,12.05.23,18,.64Z" class="cls-3"/>
    <path d="M238,0V.64C244,.23,250,0,256,0Z" class="cls-3"/>
    <path d="M495.33,238A240,240,0,0,0,274,16.67Q265.09,16,256,16t-18,.67A240.07,240.07,0,0,0,16.67,238Q16,246.91,16,256t.67,18A240,240,0,0,0,238,495.33q8.91.66,18,.67t18-.67A240.07,240.07,0,0,0,495.33,274q.66-8.91.67-18T495.33,238Z" class="cls-3"/>
  </g>
  <path d="M496,256q0-9.09-.67-18H368.45c3.64-65.52,26.87-122.35,58.58-150.35a241.1,241.1,0,0,0-27.29-23.86A174.68,174.68,0,0,0,369.9,102c-21.92,37.11-35,84.87-37.5,136H274V16.67Q265.09,16,256,16t-18,.67V238H179.6c-2.49-51.16-15.58-98.92-37.5-136a174.68,174.68,0,0,0-29.84-38.18A241.1,241.1,0,0,0,85,87.65c31.71,28,54.94,84.83,58.58,150.35H16.67Q16,246.91,16,256t.67,18H143.55C139.91,339.52,116.68,396.35,85,424.35a241.1,241.1,0,0,0,27.29,23.86A174.68,174.68,0,0,0,142.1,410c21.92-37.11,35-84.87,37.5-136H238V495.33q8.91.66,18,.67t18-.67V274h58.4c2.49,51.16,15.58,98.92,37.5,136a174.68,174.68,0,0,0,29.84,38.18A241.1,241.1,0,0,0,427,424.35c-31.71-28-54.94-84.83-58.58-150.35H495.33Q496,265.09,496,256Z" class="cls-3"/>
</svg>
