<svg xmlns="http://www.w3.org/2000/svg" id="export" viewBox="0 0 512 512">
  <defs>
    <style>
      .cls-1{fill:currentColor}
    </style>
  </defs>
  <path d="M64,168H24V472a16,16,0,0,0,16,16H344V448H64Z" class="cls-1"/>
  <path d="M136,96H96V400a16,16,0,0,0,16,16H416V376H136Z" class="cls-1"/>
  <path fill="currentColor" d="M472,24H184a16,16,0,0,0-16,16V328a16,16,0,0,0,16,16H472a16,16,0,0,0,16-15.27c0-.25,0-.48,0-.73V40A16,16,0,0,0,472,24Z" opacity=".25"/>
  <path d="M295.61,245c0,28.15,24.64,51,55.05,51s55-22.82,55-51-24.64-51-55-51a59,59,0,0,0-18.75,3l.24-117.6L241.91,96.67V144l54-10.27S295.61,243.24,295.61,245Z" class="cls-1"/>
</svg>
