<svg xmlns="http://www.w3.org/2000/svg" viewBox="0 0 512 512">
  <path fill="currentColor" d="M474.5425,322.3169l-31.7638-26.1494-.0011.0044a193.2089,193.2089,0,0,0,0-80.3438l.0011.0044,31.7628-26.1484a19.9387,19.9387,0,0,0,4.61-25.4419l-32.6128-56.4868a19.9384,19.9384,0,0,0-24.336-8.7266l-38.56,14.4468a191.774,191.774,0,0,0-69.5542-40.1963l.013.0039L307.3389,32.71A19.9384,19.9384,0,0,0,287.6113,16H222.3887a19.9392,19.9392,0,0,0-19.7281,16.7119l-6.7622,40.5713.013-.0039a191.774,191.774,0,0,0-69.5542,40.1963L87.7935,99.0273a19.94,19.94,0,0,0-24.334,8.7305L30.8467,164.2446a19.9374,19.9374,0,0,0,4.6108,25.4385l31.7638,26.1494.0011-.0044a193.2089,193.2089,0,0,0,0,80.3438l-.0011-.0044L35.4585,322.3159a19.9369,19.9369,0,0,0-4.61,25.4414l32.6128,56.4873a19.9382,19.9382,0,0,0,24.336,8.7266l38.56-14.4468a191.774,191.774,0,0,0,69.5542,40.1963l-.013-.0039,6.7627,40.5737A19.9384,19.9384,0,0,0,222.3887,496h65.2226a19.9392,19.9392,0,0,0,19.7281-16.7119l6.7622-40.5713-.013.0039a191.774,191.774,0,0,0,69.5542-40.1963l38.5637,14.4483a19.9388,19.9388,0,0,0,24.334-8.73l32.6118-56.4854A19.937,19.937,0,0,0,474.5425,322.3169ZM255,328a72,72,0,1,1,72-72A72,72,0,0,1,255,328Z" opacity=".25"/>
  <path fill="currentColor" d="M255,64C148.9612,64,63,149.9609,63,256s85.9612,192,192,192,192-85.9609,192-192S361.0388,64,255,64Zm0,264a72,72,0,1,1,72-72A72,72,0,0,1,255,328Z"/>
</svg>
