<svg xmlns="http://www.w3.org/2000/svg" id="export" viewBox="0 0 512 512">
  <defs>
    <style>
      .cls-1,.cls-2{fill:currentColor}.cls-1{opacity:.25}
    </style>
  </defs>
  <path d="M413.27,277.14c-.3235,0-.6454.0076-.9694.0051A119.4735,119.4735,0,0,1,317.97,229.6084,122.02,122.02,0,0,1,293,155.5459V39.7024q-18.428-1.5531-37-1.5745A439.8435,439.8435,0,0,0,8,114.7007V165.79L91.0645,284.418,228.0122,480h55.9756L426.5491,276.4011A120.3231,120.3231,0,0,1,413.27,277.14Z" class="cls-1"/>
  <path d="M472,75.5273a60.3186,60.3186,0,0,0-60.25-60.25h-.5A60.3187,60.3187,0,0,0,351,75.5273V104H329v53.1484a84.0912,84.0912,0,0,0,87.111,83.9434C461.4417,239.4463,497,201.4678,497,156.1069V104H472ZM436,102H387V75.5273A24.4816,24.4816,0,0,1,416.9037,51.853C427.4592,54.1,436,65.1943,436,75.9866Z" class="cls-2"/>
  <path d="M421.3188,283.8706,283.9878,480,426.5491,276.4011a120.3231,120.3231,0,0,1-13.2794.7388Q417.3611,280.4273,421.3188,283.8706Z" class="cls-1"/>
  <path d="M413.27,277.14c-.3235,0-.6454.0076-.9694.0051A119.4735,119.4735,0,0,1,317.97,229.6084a250.2168,250.2168,0,0,0-226.905,54.81L228.0122,480h55.9756l137.331-196.1294Q417.3705,280.4179,413.27,277.14Z" class="cls-2"/>
</svg>
