<svg xmlns="http://www.w3.org/2000/svg" id="export" viewBox="0 0 512 512">
  <defs>
    <style>
      .cls-1{fill:currentColor}.cls-2{opacity:.25}
    </style>
  </defs>
  <polygon points="32 117 32 299 153.333 208 32 117" class="cls-1"/>
  <path d="M292,258a59.9995,59.9995,0,0,1-72,0l-36.6667-27.5L32,344v40H252.232A140.0077,140.0077,0,0,1,480,283.104V117Z" class="cls-1"/>
  <g class="cls-2">
    <path d="M241.6,229.2A23.9817,23.9817,0,0,0,256,234q.95,0,1.8984-.075A23.9545,23.9545,0,0,0,270.4,229.2L480,72V32H32V72Z" class="cls-1"/>
  </g>
  <g class="cls-2">
    <path d="M495.8647,386.6482a103.8819,103.8819,0,0,0-3.1389-20.6394q-.3206-1.2462-.6711-2.48c-.41-1.4436-.8557-2.8721-1.3258-4.2891-.3334-1.0056-.6765-2.0068-1.04-2.9985q-.4372-1.1946-.9031-2.3755c-.7658-1.9419-1.5949-3.8513-2.4721-5.7339q-1.07-2.2961-2.2465-4.53-1.2431-2.3595-2.6017-4.6465-.5029-.8463-1.0213-1.6827a104.5313,104.5313,0,0,0-34.5168-34.2165q-1.072-.6515-2.1611-1.2776-2.1777-1.2525-4.4205-2.4014-3.3634-1.7226-6.8647-3.2045a103.2,103.2,0,0,0-16.9944-5.51,104.9033,104.9033,0,0,0-46.9742,0q-2.516.5808-4.9842,1.2822t-4.8845,1.5191q-2.4164.8177-4.7784,1.75a103.6071,103.6071,0,0,0-15.7936,7.8425q-4.2885,2.606-8.2971,5.6047-1.001.7486-1.9834,1.5205a104.292,104.292,0,0,0-32.5779,43.6841q-.4656,1.1811-.9031,2.3755-.875,2.39-1.635,4.8325t-1.4015,4.9351a103.8819,103.8819,0,0,0-3.1389,20.6394Q288.0006,389.3073,288,392t.1353,5.3518a103.8819,103.8819,0,0,0,3.1389,20.6394q.6411,2.4924,1.4015,4.9351t1.635,4.8325q.4372,1.1946.9031,2.3755a104.292,104.292,0,0,0,32.5779,43.6841q.9823.7716,1.9834,1.5205,4.0042,2.9944,8.2971,5.6047a103.6071,103.6071,0,0,0,15.7936,7.8425q2.3616.9314,4.7784,1.75t4.8845,1.5191q2.4678.7009,4.9842,1.2822a104.9033,104.9033,0,0,0,46.9742,0c1.45-.3349,2.8866-.7058,4.3131-1.1006q2.8092-.7775,5.5556-1.7007c1.3047-.4414,2.5945-.9148,3.8753-1.4062,1.0913-.4185,2.1772-.8481,3.25-1.3023q3.5-1.48,6.8647-3.2045,2.2422-1.1485,4.4205-2.4014,1.089-.6263,2.1611-1.2776,3.5066-2.1306,6.8234-4.53,1.7544-1.2649,3.4571-2.5952,2.0751-1.6311,4.0623-3.3658,1.7115-1.49,3.357-3.0527,1.8714-1.7782,3.6547-3.646,1.722-1.8061,3.357-3.6936,2.2611-2.61,4.3448-5.3728.38-.5025.7537-1.01,2.4892-3.374,4.7068-6.9509.5186-.8361,1.0213-1.6827,1.3584-2.2866,2.6017-4.6465,1.1764-2.2335,2.2465-4.53c.8772-1.8826,1.7063-3.792,2.4721-5.7339q.4656-1.1811.9031-2.3755c.3631-.9917.7062-1.9929,1.04-2.9985.47-1.417.9158-2.8455,1.3258-4.2891q.35-1.2337.6711-2.48a103.8819,103.8819,0,0,0,3.1389-20.6394q.1347-2.6591.1353-5.3518T495.8647,386.6482Z" class="cls-1"/>
  </g>
  <rect width="114.286" height="36" x="336" y="374" class="cls-1"/>
</svg>
