<svg xmlns="http://www.w3.org/2000/svg" id="export" viewBox="0 0 512 512">
  <defs>
    <style>
      .cls-1{fill:currentColor;opacity:.25}
    </style>
  </defs>
  <path d="M480,216C480,114.38,379.7119,32,256,32S32,114.38,32,216,132.2881,400,256,400a273.9693,273.9693,0,0,0,33.3477-2.0322l22.1062,19.1589A257.349,257.349,0,0,0,480,480V464a299.2686,299.2686,0,0,1-70.5925-112.0122l-.5349-1.5159C452.6335,316.89,480,269.0737,480,216Z" class="cls-1"/>
  <polygon fill="currentColor" points="233.698 244.603 182.849 193.754 153.151 223.452 233.698 304 362.849 174.849 333.151 145.151 233.698 244.603"/>
  <polygon points="153.151 223.452 182.849 193.754 233.698 244.603 333.151 145.151 362.849 174.849 233.698 304 153.151 223.452" class="cls-1"/>
</svg>
