<svg xmlns="http://www.w3.org/2000/svg" id="export" viewBox="0 0 512 512">
  <defs>
    <style>
      .cls-1{fill:currentColor}
    </style>
  </defs>
  <circle cx="209.91" cy="70.09" r="38.09" class="cls-1"/>
  <path d="M442.18,360.72l-39.91,10-17.45-81.41A32.17,32.17,0,0,0,353.53,264H272l-4.62-40H368V176H261.8l-3.31-28.74a24,24,0,0,0-26.6-21.09l-55.63,6.41L197,312H340.6l25.13,117.3,88.09-22Z" class="cls-1"/>
  <path fill="currentColor" d="M318.18,379.19C277.86,448,208,448,208,448a112,112,0,0,1-55.71-209.12l-5.83-50.56C88.69,212.49,48,269.57,48,336c0,88.22,71.78,160,160,160a159.73,159.73,0,0,0,122.86-57.63l-.33-1.52Z" opacity=".25"/>
</svg>
