<svg xmlns="http://www.w3.org/2000/svg" viewBox="0 0 512 512">
  <path fill="currentColor" d="M234.1528,340.9966h0l-52.1992-39.1494L77.5549,380.1462l36.4388,73.962a9.2276,9.2276,0,0,0,7.8251,4.3369h22.3445C316.386,458.4451,456,318.8311,456,146.6085V124.2639a9.2271,9.2271,0,0,0-4.3369-7.8249L377.7009,80,299.4021,184.3987l39.1494,52.1993h0A104.3986,104.3986,0,0,1,234.1528,340.9966Z"/>
  <polygon fill="currentColor" points="80 176 80 224 232 224 232 80 184 80 184 144.322 80.479 46.552 47.521 81.448 147.635 176 80 176" opacity=".25"/>
</svg>
