<svg xmlns="http://www.w3.org/2000/svg" id="export" viewBox="0 0 512 512">
  <defs>
    <style>
      .cls-1{fill:currentColor}
    </style>
  </defs>
  <rect width="256" height="36" x="128" y="30" class="cls-1"/>
  <rect width="384" height="36" x="64" y="86" class="cls-1"/>
  <path fill="currentColor" d="M464,144H48a16,16,0,0,0-16,16V464a16,16,0,0,0,16,16H464a16,16,0,0,0,16-16V160A16,16,0,0,0,464,144Z" opacity=".25"/>
  <path d="M388.6821,434.9983l-86.9353-45.17,25.3863-63.4661V263.1331A71.133,71.133,0,0,0,256,192h0a71.133,71.133,0,0,0-71.133,71.1331v63.2294l25.3863,63.4661-86.9353,45.17a17.7831,17.7831,0,0,0-9.5841,15.78V480H398.2662V450.7786A17.7831,17.7831,0,0,0,388.6821,434.9983Z" class="cls-1"/>
</svg>
