<svg xmlns="http://www.w3.org/2000/svg" id="export" viewBox="0 0 512 512">
  <defs>
    <style>
      .cls-1{fill:currentColor}
    </style>
  </defs>
  <polygon points="480 166 480 160 352 32 346 32 346 166 480 166" class="cls-1"/>
  <polygon points="480 202 310 202 310 32 88 32 88 252 480 252 480 202" class="cls-1" opacity=".25"/>
  <path d="M32,288V480H480V288ZM188,391.8335A52.2261,52.2261,0,0,1,135.833,444H92V324h43.833A52.2261,52.2261,0,0,1,188,376.1665ZM308,396a48,48,0,0,1-96,0V372a48,48,0,0,1,96,0Zm72,48a48.054,48.054,0,0,1-48-48V372a48.0079,48.0079,0,0,1,92.8489-17.14l-22.3084,8.9233A23.9945,23.9945,0,0,0,356,372v24a23.9945,23.9945,0,0,0,46.5405,8.2163l22.3084,8.9233A47.9351,47.9351,0,0,1,380,444Z" class="cls-1"/>
  <path d="M260,348a24.0275,24.0275,0,0,0-24,24v24a24,24,0,0,0,48,0V372A24.0275,24.0275,0,0,0,260,348Z" class="cls-1"/>
  <path d="M135.833,348H116v72h19.833A28.1986,28.1986,0,0,0,164,391.8335v-15.667A28.1986,28.1986,0,0,0,135.833,348Z" class="cls-1"/>
</svg>
