<svg xmlns="http://www.w3.org/2000/svg" viewBox="0 0 512 512">
  <path fill="currentColor" d="M149.94,334.88a202.4783,202.4783,0,0,1,43.405-222.1507,204.8413,204.8413,0,0,1,15.6226-14.0849,160.6153,160.6153,0,1,0,0,314.7114,204.8942,204.8942,0,0,1-15.6223-14.0849A201.8874,201.8874,0,0,1,149.94,334.88Z" opacity=".25"/>
  <path fill="currentColor" d="M460.554,153.8337q-1.2273-1.4875-2.49-2.9445-2.5244-2.9143-5.1843-5.7041t-5.4495-5.4495q-2.7894-2.66-5.7043-5.1846a161.2055,161.2055,0,0,0-18.5406-13.863q-6.517-4.1781-13.45-7.7322-5.1943-2.6605-10.6015-4.9492a161.3071,161.3071,0,0,0-101.7154-7.7957c-1.6.4012-3.1936.8179-4.7739,1.2666q-7.0971,2.0157-13.9126,4.6636-4.1631,1.6092-8.216,3.4317-3.5578,1.6083-7.0213,3.383-3.49,1.7875-6.88,3.74-1.6545.9525-3.2846,1.9422a161.3269,161.3269,0,0,0-32.9795,26.5476c-1.3032,1.3667-2.5742,2.7641-3.8291,4.1762-1.3057,1.47-2.5933,2.9554-3.8452,4.4724q-2.4552,2.9748-4.7681,6.0677-3.4687,4.6377-6.6052,9.5285-1.0445,1.6293-2.0506,3.2852-2.4876,4.0938-4.7246,8.35a159.7231,159.7231,0,0,0-9.2427,21.0166c-.7251,2.0349-1.42,4.084-2.0647,6.1558a159.4986,159.4986,0,0,0-4.7121,19.3306q-.3534,1.9774-.6582,3.9714-.6094,3.9876-1.0215,8.0383A162.5141,162.5141,0,0,0,176,256a160.568,160.568,0,0,0,7.2209,47.7622q1.1734,3.7721,2.5252,7.4627a159.6821,159.6821,0,0,0,7.8252,17.8955q2.6606,5.1943,5.6816,10.1645,2.0119,3.3117,4.1778,6.5166,1.0824,1.6021,2.2021,3.1768a161.3781,161.3781,0,0,0,12.0923,15.0158q2.5924,2.8526,5.3181,5.5782a160.6158,160.6158,0,0,0,227.1443,0q2.7251-2.725,5.3184-5.5782,3.6365-4.0008,6.997-8.2475a160.9517,160.9517,0,0,0,13.4483-19.7993q.9668-1.6817,1.894-3.3885A160.7318,160.7318,0,0,0,460.554,153.8337Z"/>
</svg>
