<svg xmlns="http://www.w3.org/2000/svg" id="export" viewBox="0 0 512 512">
  <defs>
    <style>
      .cls-1,.cls-2{fill:currentColor}.cls-1{opacity:.25}
    </style>
  </defs>
  <path d="M160,432h0a32,32,0,0,0,0,64h0a32,32,0,0,0,0-64Z" class="cls-1"/>
  <path d="M256,432h0a32,32,0,0,0,0,64h0a32,32,0,0,0,0-64Z" class="cls-1"/>
  <path d="M352,432h0a32,32,0,0,0,0,64h0a32,32,0,0,0,0-64Z" class="cls-1"/>
  <rect width="480" height="384" x="16" y="16" class="cls-1" rx="24"/>
  <polygon points="392 160 392 256 456 208 392 160" class="cls-2"/>
  <polygon points="256 56 208 120 304 120 256 56" class="cls-2"/>
  <polygon points="120 160 56 208 120 256 120 160" class="cls-2"/>
  <polygon points="304 296 208 296 256 360 304 296" class="cls-2"/>
</svg>
