<svg xmlns="http://www.w3.org/2000/svg" id="export" viewBox="0 0 512 512">
  <defs>
    <style>
      .cls-2{fill:currentColor}
    </style>
  </defs>
  <path fill="currentColor" d="M256,16A240,240,0,0,0,86.2944,425.7056,240,240,0,1,0,425.7056,86.2944,238.4289,238.4289,0,0,0,256,16Z" opacity=".25"/>
  <path d="M82.0273,149.0544a204.9457,204.9457,0,0,0-19.74,173.33H181.6609Z" class="cls-2"/>
  <path d="M263.0831,51.64c-2.16-.0676-4.3254-.1135-6.5016-.1135a204.6581,204.6581,0,0,0-153.7488,69.5113l59.7282,103.9076Z" class="cls-2"/>
  <path d="M252.33,461.679c1.4148.0288,2.8305.0539,4.252.0539a204.67,204.67,0,0,0,154.121-69.93L350.9323,288.3Z" class="cls-2"/>
  <path d="M436.9285,159.0112A205.8022,205.8022,0,0,0,297.7356,55.6758L237.798,159.0112Z" class="cls-2"/>
  <path d="M76.309,354.3848A205.757,205.757,0,0,0,217.6074,458.0022L276.536,354.3848Z" class="cls-2"/>
  <path d="M450.9213,191.0112H331.7021l99.7361,172.71a204.9584,204.9584,0,0,0,19.4831-172.71Z" class="cls-2"/>
</svg>
