<svg xmlns="http://www.w3.org/2000/svg" id="export" viewBox="0 0 512 512">
  <defs>
    <style>
      .cls-2{fill:currentColor}
    </style>
  </defs>
  <rect width="448" height="448" x="32" y="31.998" fill="currentColor" opacity=".25"/>
  <path d="M215.167,216.1831a16.4427,16.4427,0,0,1,30.9614,10.9424L215.5908,330.9536a66.3285,66.3285,0,0,0,61.2886,85.0025q1.1865.0425,2.3667.0419A66.2266,66.2266,0,0,0,336.5293,383.07l9.3347-16.0156-45.4819-17.2876-5.3225,9.1323a18.3286,18.3286,0,0,1-33.419-14.4013l30.5376-103.8282A64.4429,64.4429,0,0,0,170.833,197.7847l-9.96,24.0005,44.334,18.3984Z" class="cls-2"/>
  <rect width="48" height="48" x="264" y="79.998" class="cls-2"/>
</svg>
