<svg xmlns="http://www.w3.org/2000/svg" id="export" viewBox="0 0 512 512">
  <defs>
    <style>
      .cls-1{fill:currentColor}
    </style>
  </defs>
  <path d="M406.835,321.9951l-61.4485-25.3873a171.3377,171.3377,0,0,0,14.28-170.75L392,112,345.5166,90.8711,304,72l-22.6455,83.0331L280,160l35.5159-15.2211a123.61,123.61,0,0,1-180.4173,156.51l-34.3647,34.3646a171.2783,171.2783,0,0,0,201.33,4.2767l25.1223,60.8088Z" class="cls-1"/>
  <path d="M113.6787,226.7092l-26.612,11.4051A123.6455,123.6455,0,0,1,254.512,85.8757l35.6235-35.6235a170.6031,170.6031,0,0,0-85.7922-23.0217c-94.6519,0-171.6573,77.0049-171.6573,171.6572a170.864,170.864,0,0,0,10.1575,58.1794L8,272l40.2585,20.1293L88,312l32-88Z" class="cls-1"/>
  <path d="M471.8506,392.6563,406.835,321.9951l-79.649,78.7442,64.7554,70.3789.4605.4795a56,56,0,0,0,79.4487-78.9414Z" class="cls-1" opacity=".25"/>
</svg>
