<svg xmlns="http://www.w3.org/2000/svg" id="export" viewBox="0 0 512 512">
  <defs>
    <style>
      .cls-2{fill:currentColor}
    </style>
  </defs>
  <path d="M230.6279,349.3724a68,68,0,0,1-48.0835-116.0838L295.833,120H16V496H392V216.167L278.7114,329.4556A67.5543,67.5543,0,0,1,230.6279,349.3724Z" class="cls-2" opacity=".25"/>
  <path d="M288,16V80h98.7446l-40,40L208,258.7444q-.5851.5858-1.1348,1.1938a32.04,32.04,0,0,0-2.9658,3.8262q-.44.6654-.8418,1.3474-.8057,1.3635-1.4648,2.7859-.329.71-.6221,1.4326-.5859,1.4448-1.0254,2.9309-.44,1.4843-.7319,2.9991a32.155,32.155,0,0,0-.586,6.112c0,.546.0162,1.0921.044,1.6375q.0754,1.4827.2856,2.9563.22,1.5228.586,3.0246.3662,1.5.8789,2.9679.2564.733.5488,1.4555a31.7658,31.7658,0,0,0,3.8447,6.8791A32.237,32.237,0,0,0,208.0005,304q.5859.5857,1.1938,1.135a31.8121,31.8121,0,0,0,14.9,7.56c.2256.0468.4512.0935.6778.1355q1.2246.2268,2.4614.3568c.1821.0193.3638.0388.5464.0549q1.3674.1216,2.74.1282c.0361,0,.0718.0025.1074.0025a32.1408,32.1408,0,0,0,7.377-.8624c.08-.019.1611-.0334.2417-.053a31.8393,31.8393,0,0,0,7.2471-2.738l.0161-.0078a31.9054,31.9054,0,0,0,6.5517-4.5764q.608-.5493,1.1944-1.135L392,165.2554l40-40V224h64V16Z" class="cls-2"/>
</svg>
