<svg xmlns="http://www.w3.org/2000/svg" id="export" viewBox="0 0 512 512">
  <defs>
    <style>
      .cls-1,.cls-2{fill:currentColor}.cls-1{opacity:.25}
    </style>
  </defs>
  <path d="M88.3477,143.3418a92.4585,92.4585,0,0,1,95.3046,0,140.3668,140.3668,0,0,0,144.6954,0,92.4585,92.4585,0,0,1,95.3046,0A141.1524,141.1524,0,0,0,496,163.3618V115.3584a92.9767,92.9767,0,0,1-47.6523-13.1768,140.3731,140.3731,0,0,0-144.6954,0,92.4473,92.4473,0,0,1-95.3046,0,140.3731,140.3731,0,0,0-144.6954,0A92.9874,92.9874,0,0,1,16,115.3569v48.0039A141.1428,141.1428,0,0,0,88.3477,143.3418Z" class="cls-1"/>
  <path d="M303.6523,193.5625a92.4477,92.4477,0,0,1-95.3046,0,140.3731,140.3731,0,0,0-144.6954,0A92.984,92.984,0,0,1,16,206.7373v48.0044a141.1477,141.1477,0,0,0,72.3477-20.019,92.4608,92.4608,0,0,1,95.3046,0,140.3674,140.3674,0,0,0,144.6954,0,92.4608,92.4608,0,0,1,95.3046,0A141.1544,141.1544,0,0,0,496,254.7437V206.7388a92.9627,92.9627,0,0,1-47.6523-13.1763A140.3731,140.3731,0,0,0,303.6523,193.5625Z" class="cls-1"/>
  <path d="M303.6523,282.8008a92.4477,92.4477,0,0,1-95.3046,0,140.3727,140.3727,0,0,0-144.6954,0A92.985,92.985,0,0,1,16,295.9766v48.0048a141.153,141.153,0,0,0,72.3477-20.0205,92.4587,92.4587,0,0,1,95.3046,0,140.3668,140.3668,0,0,0,144.6954,0,92.4587,92.4587,0,0,1,95.3046,0A141.152,141.152,0,0,0,496,343.9805V295.9766a92.9864,92.9864,0,0,1-47.6523-13.1758A140.3727,140.3727,0,0,0,303.6523,282.8008Z" class="cls-2"/>
  <path d="M448.3477,370.8008a140.3727,140.3727,0,0,0-144.6954,0,92.4477,92.4477,0,0,1-95.3046,0,140.3727,140.3727,0,0,0-144.6954,0A92.984,92.984,0,0,1,16,383.9756V431.98a141.1429,141.1429,0,0,0,72.3477-20.0191,92.4587,92.4587,0,0,1,95.3046,0,140.3668,140.3668,0,0,0,144.6954,0,92.4587,92.4587,0,0,1,95.3046,0A141.1665,141.1665,0,0,0,496,431.9805V383.9771A92.9636,92.9636,0,0,1,448.3477,370.8008Z" class="cls-2"/>
</svg>
