<svg xmlns="http://www.w3.org/2000/svg" id="export" viewBox="0 0 512 512">
  <defs>
    <style>
      .cls-1{fill:currentColor;opacity:.25}
    </style>
  </defs>
  <path d="M396.5,216a100,100,0,1,0,100,100A100.1127,100.1127,0,0,0,396.5,216Z" class="cls-1"/>
  <path d="M113,216A100,100,0,1,0,213,316,100.1127,100.1127,0,0,0,113,216Z" class="cls-1"/>
  <path fill="currentColor" d="M408.5864,290.2852,329.6846,70H245v36h59.3154l27.1426,76H186.5771l-5.7141-20H213V126H109v36h34.4224l10.2712,35.9485-47.7307,90.9443a28.0085,28.0085,0,1,0,32.5176,15.5025L183.8005,218H342.6448L372.95,302.53a28,28,0,1,0,35.636-12.2448Z"/>
</svg>
