<svg xmlns="http://www.w3.org/2000/svg" viewBox="0 0 512 512">
  <polygon fill="currentColor" points="32 480 80 480 432 480 480 480 480 32 32 32 32 480" opacity=".25"/>
  <path fill="currentColor" d="M315.8745,255.2952l-9.0312-13.9768a69.6364,69.6364,0,0,0-58.7115-31.9644H214.89l10.2412-47.65a10.0508,10.0508,0,0,1,8.92-7.6543H287.87v-48H233.4048l-.9883.02a58.0392,58.0392,0,0,0-54.1133,45.09L165.7959,209.354H109.88v48H155.48L135.37,350.9185a10.0488,10.0488,0,0,1-8.9189,7.6528H87v48h40.5918l.4941-.0205a58.0379,58.0379,0,0,0,54.1133-45.0918l22.3745-104.105h43.5581a21.8193,21.8193,0,0,1,18.396,10.0151l14.2583,22.0662L189.7617,378h68.8311l48.7636-47.4456,9.9229,15.3567a69.6355,69.6355,0,0,0,58.7114,31.9649h49.6182v-48H375.9907a21.82,21.82,0,0,1-18.396-10.0156l-15.15-23.4458L432.2871,209h-68.831Z"/>
</svg>
