<svg xmlns="http://www.w3.org/2000/svg" id="export" viewBox="0 0 512 512">
  <defs>
    <style>
      .cls-2{fill:currentColor;opacity:.25}
    </style>
  </defs>
  <path fill="currentColor" d="M453.3687,129.9937,379.4066,93.5549,301.1077,197.9535l39.1494,52.1993v0A104.3984,104.3984,0,0,1,235.8586,354.5515h0L183.6592,315.402,79.2605,393.7009l36.4388,73.9622A9.228,9.228,0,0,0,123.5244,472H145.869c172.2226,0,311.8366-139.614,311.8366-311.8367V137.8187A9.2276,9.2276,0,0,0,453.3687,129.9937Z"/>
  <circle cx="255.153" cy="84.116" r="32" class="cls-2" transform="rotate(-65.549 255.153 84.116)"/>
  <circle cx="164.853" cy="163.147" r="32" class="cls-2"/>
  <circle cx="74.553" cy="242.179" r="32" class="cls-2" transform="rotate(-85.396 74.553 242.179)"/>
</svg>
