<svg xmlns="http://www.w3.org/2000/svg" id="export" viewBox="0 0 512 512">
  <defs>
    <style>
      .cls-2{fill:currentColor}
    </style>
  </defs>
  <g opacity=".25">
    <path d="M384.7734,288H16V424a16,16,0,0,0,16,16H480a16,16,0,0,0,16-16V288H384.7734Z" class="cls-2"/>
    <path d="M496,224V80a16,16,0,0,0-16-16H32A16,16,0,0,0,16,80V224Z" class="cls-2"/>
  </g>
  <path d="M270,342.9229a4.7765,4.7765,0,0,1-1.4966,3.4521,5.7833,5.7833,0,0,1-4.09,1.625H231V288H195v96h69.4146a41.598,41.598,0,0,0,29.2646-11.8916A40.5424,40.5424,0,0,0,306,342.9229V288H270Z" class="cls-2"/>
  <rect width="36" height="96" x="54" y="288" class="cls-2"/>
  <rect width="36" height="96" x="134" y="288" class="cls-2"/>
  <rect width="36" height="96" x="333" y="288" class="cls-2"/>
  <polygon points="427.227 288 384.773 288 413 333.162 413 384 449 384 449 322.838 427.227 288" class="cls-2"/>
  <path d="M449,224V153.9941C449,135.25,434.3457,120,416.3335,120H333V224H306V161.0771C306,138.4268,287.3442,120,264.4131,120H195V224H170V120H134V224H90V120H54V224H0v32H512V224Zm-218,0V156h33.4131A5.3563,5.3563,0,0,1,270,161.0771V224Zm138,0V156h44v68Z" class="cls-2"/>
</svg>
