<svg xmlns="http://www.w3.org/2000/svg" id="export" viewBox="0 0 512 512">
  <defs>
    <style>
      .cls-2{fill:currentColor}
    </style>
  </defs>
  <path fill="currentColor" d="M375.6611,204.8584l.0005-.001c22.0269-21.5263,34.1577-49.5888,34.1577-79.0156V64H456V16H72V64h46.5117v61.8418c0,29.4268,12.1309,57.4893,34.1582,79.0166L192.6,243.88v24.24l-39.93,39.0225c-22.0268,21.5263-34.1577,49.5879-34.1577,79.0146V448H72v48H456V448H409.8193V386.1572c0-29.4267-12.1308-57.4883-34.1582-79.0156l-39.93-39.0215V243.88Z" opacity=".25"/>
  <polygon points="72 16 72 64 118.512 64 409.819 64 456 64 456 16 72 16" class="cls-2"/>
  <polygon points="409.819 448 118.512 448 72 448 72 496 456 496 456 448 409.819 448" class="cls-2"/>
</svg>
