<svg xmlns="http://www.w3.org/2000/svg" id="export" viewBox="0 0 512 512">
  <defs>
    <style>
      .cls-2{fill:currentColor}
    </style>
  </defs>
  <path fill="currentColor" d="M93,96V248h0V404.3885A18.0556,18.0556,0,0,1,89.1171,415.8a17.41,17.41,0,0,1-13.7685,6.5312A17.5938,17.5938,0,0,1,58,404.749V176H16V404.4856a59.7209,59.7209,0,0,0,59.0684,59.5115c.1777.0019.353.0029.5307.0029C77.7078,464,444,463.6684,444,463.6684a52.029,52.029,0,0,0,52-51.94V96Z" opacity=".25"/>
  <rect width="104" height="36" x="328" y="158" class="cls-2"/>
  <rect width="104" height="36" x="328" y="302" class="cls-2"/>
  <rect width="104" height="36" x="328" y="230" class="cls-2"/>
  <rect width="107" height="176" x="165" y="160" class="cls-2"/>
</svg>
