<svg xmlns="http://www.w3.org/2000/svg" id="export" viewBox="0 0 512 512">
  <defs>
    <style>
      .cls-1{fill:currentColor}
    </style>
  </defs>
  <polygon points="216 496 296 496 308.03 398 203.97 398 216 496" class="cls-1"/>
  <path d="M335.57,142.3l-19.2-76.83c-4.72-18.86-16.75-34-32.31-42.36h0c-.64-.35-1.29-.68-1.94-1l-.85-.41c-.3-.15-.62-.28-.92-.42a58.28,58.28,0,0,0-8.85-3.2h0q-1.08-.28-2.19-.54l-.5-.12c-.64-.14-1.29-.27-1.94-.39l-.85-.15c-.57-.1-1.15-.19-1.72-.27-.39-.06-.79-.1-1.18-.15l-1.49-.17c-.53-.05-1.06-.08-1.6-.12l-1.15-.08C257.89,16,257,16,256,16h0c-.95,0-1.89,0-2.83.07l-1.15.08c-.54,0-1.07.07-1.6.12l-1.49.17c-.39,0-.79.09-1.18.15-.57.08-1.15.17-1.72.27l-.85.15c-.65.12-1.3.25-1.94.39l-.5.12q-1.11.26-2.19.54h0a58.28,58.28,0,0,0-8.85,3.2c-.3.14-.62.27-.92.42l-.85.41c-.65.32-1.3.65-1.94,1h0c-15.56,8.35-27.59,23.5-32.31,42.36l-19.2,76.83a13.88,13.88,0,0,0-.43,3.45A14.25,14.25,0,0,0,190.25,160H218.5l12.94,22.92c.05.09.12.17.17.26A55.6,55.6,0,0,1,243,182h26a55.6,55.6,0,0,1,11.37,1.18c.05-.09.12-.17.17-.26L293.5,160h28.25A14.25,14.25,0,0,0,336,145.75,13.88,13.88,0,0,0,335.57,142.3Z" class="cls-1"/>
  <path fill="currentColor" d="M321.32,218.63A55.7,55.7,0,0,0,269,182H243a55.7,55.7,0,0,0-52.3,36.63L140,398H372Z" opacity=".25"/>
</svg>
