<svg xmlns="http://www.w3.org/2000/svg" id="export" viewBox="0 0 512 512">
  <defs>
    <style>
      .cls-1{fill:currentColor}
    </style>
  </defs>
  <path d="M136,496H376a40.0451,40.0451,0,0,0,40-40V368H144V88H416V56a40.0451,40.0451,0,0,0-40-40H136A40.0451,40.0451,0,0,0,96,56V456A40.0451,40.0451,0,0,0,136,496Zm138-82v36H238V414Z" class="cls-1"/>
  <g opacity=".25">
    <path d="M357.6611,170.3389,336,192v7.9683a25.3259,25.3259,0,0,1,0,48.0634V256l21.6611,21.6611a61.294,61.294,0,0,0,0-107.3222Z" class="cls-1"/>
    <path d="M401.3914,126.6086l-25.8028,25.8028a85.9167,85.9167,0,0,1,0,143.1772l25.8028,25.8028A122.7078,122.7078,0,0,0,440,272.35a121.8842,121.8842,0,0,0,0-96.6992A122.7078,122.7078,0,0,0,401.3914,126.6086Z" class="cls-1"/>
    <polygon points="304 326.372 304 312 304 136 304 121.628 233.042 170.286 176 170.286 176 277.714 233.042 277.714 304 326.372" class="cls-1"/>
  </g>
</svg>
