<svg xmlns="http://www.w3.org/2000/svg" id="export" viewBox="0 0 512 512">
  <defs>
    <style>
      .cls-2{fill:currentColor}
    </style>
  </defs>
  <path fill="currentColor" d="M342.3,32A240.7382,240.7382,0,0,0,169.7,32C79.794,66.6612,16,153.8745,16,256a240,240,0,1,0,480,0C496,153.8745,432.206,66.6612,342.3,32Z" opacity=".25"/>
  <polygon points="211.958 226.547 189.412 206.505 209.453 183.958 182.547 160.042 162.505 182.588 139.958 162.547 116.042 189.453 138.588 209.495 118.547 232.042 145.453 255.958 165.495 233.412 188.042 253.453 211.958 226.547" class="cls-2"/>
  <rect width="176" height="36" x="168" y="318" class="cls-2"/>
  <polygon points="385.453 183.958 358.547 160.042 338.505 182.588 315.958 162.547 292.042 189.453 314.588 209.495 294.547 232.042 321.453 255.958 341.495 233.412 364.042 253.453 387.958 226.547 365.412 206.505 385.453 183.958" class="cls-2"/>
</svg>
