<svg xmlns="http://www.w3.org/2000/svg" id="export" viewBox="0 0 512 512">
  <defs>
    <style>
      .cls-1{fill:currentColor}
    </style>
  </defs>
  <path d="M368,368H120V88H392V56a40.0451,40.0451,0,0,0-40-40H112A40.0451,40.0451,0,0,0,72,56V456a40.0451,40.0451,0,0,0,40,40H352a40.0451,40.0451,0,0,0,40-40V368ZM250,450H214V414h36Z" class="cls-1"/>
  <g opacity=".25">
    <path d="M266.8723,222.7937a17.8544,17.8544,0,0,1,0,4.2632v13.487l28.0994,23.2549a60.8425,60.8425,0,0,0,.7893-76.7527l-28.8887,22.9117Z" class="cls-1"/>
    <path d="M324.2346,288.0164l32.3421,26.7656a140.7139,140.7139,0,0,0,1.8462-177.4331L325.531,163.4355a98.7993,98.7993,0,0,1-1.2964,124.5809Z" class="cls-1"/>
    <path d="M431.5986,88q-2.0373-2.72-4.1662-5.3828L420.6453,88l-26.198,20.7776a186.6212,186.6212,0,0,1-2.4484,235.32L420.8816,368l3.5465,2.9351q1.2107-1.4576,2.3905-2.9351a229.1135,229.1135,0,0,0,4.78-280Z" class="cls-1"/>
  </g>
</svg>
