<svg xmlns="http://www.w3.org/2000/svg" id="export" viewBox="0 0 512 512">
  <defs>
    <style>
      .cls-1{fill:currentColor}
    </style>
  </defs>
  <rect width="240" height="72" x="136" y="424" class="cls-1"/>
  <polygon points="386.868 16 321.082 16 256.02 85.419 191.229 16 125.571 16 192.771 88 319.387 88 386.868 16" class="cls-1"/>
  <path fill="currentColor" d="M480,88H32a16,16,0,0,0-16,16V408a16,16,0,0,0,16,16H480a16,16,0,0,0,16-16V104A16,16,0,0,0,480,88Z" opacity=".25"/>
  <path d="M70,142V370H442V142ZM406,334H106V178H406Z" class="cls-1"/>
</svg>
