<svg xmlns="http://www.w3.org/2000/svg" id="export" viewBox="0 0 512 512">
  <defs>
    <style>
      .cls-1{fill:none}.cls-2,.cls-3{fill:currentColor}.cls-3{opacity:.25}
    </style>
  </defs>
  <path d="M313.7559,283.5986c-.02.0413-.0367.084-.0567.125L348.7258,318.75c.022-.0324.045-.0642.0669-.0966Z" class="cls-1"/>
  <path d="M383.0754,353.1l28.4681,28.468.0586-.0725-28.4634-28.4781Z" class="cls-1"/>
  <path d="M445.71,415.7341l50.29,50.29v-.0876l-50.2383-50.2643Z" class="cls-1"/>
  <path d="M46.2949,16h-.3193l50.29,50.29c.053-.0448.1062-.0893.1592-.1341Z" class="cls-1"/>
  <path d="M159.0481,128.8113l-28.4634-28.4779c-.0508.0411-.1018.0819-.1526.1231L158.9,128.9247C158.95,128.887,158.9988,128.849,159.0481,128.8113Z" class="cls-1"/>
  <path d="M316.5679,235.5969l47.99,47.9905A112.0307,112.0307,0,0,0,228.48,147.425l88.0876,88.1719Z" class="cls-1"/>
  <path d="M228.4316,198.2305l-35.038-35.0559c-.0484.0327-.0955.0669-.1438.1l35.0266,35.0266C228.3274,198.2761,228.38,198.255,228.4316,198.2305Z" class="cls-1"/>
  <path d="M192,256a64.0114,64.0114,0,0,0,92.09,57.5128l-85.603-85.6034A63.728,63.728,0,0,0,192,256Z" class="cls-2"/>
  <path d="M431.3623,80.6372A248.2073,248.2073,0,0,0,125.9182,44.7649l35.1865,35.22A198.769,198.769,0,0,1,256,56c110.28,0,200,89.72,200,200a198.77,198.77,0,0,1-24.0366,94.9926l35.2019,35.2017a248.2059,248.2059,0,0,0-35.803-305.5571Z" class="cls-3"/>
  <path d="M100.7034,130.1255l-34.16-34.16a248.0035,248.0035,0,0,0,14.0945,335.397l34.0073-34.0072a199.6287,199.6287,0,0,1-13.9416-267.23Z" class="cls-3"/>
  <path d="M256,96a159.0737,159.0737,0,0,0-65.0676,13.8414L228.48,147.425A112.0315,112.0315,0,0,1,364.5583,283.5874l37.5638,37.5638A159.0711,159.0711,0,0,0,416,256C416,167.7759,344.2246,96,256,96Z" class="cls-2"/>
  <path d="M163.501,192.9231l-34.336-34.3359a159.6994,159.6994,0,0,0,13.7508,210.497L176,336h1.7026A111.7841,111.7841,0,0,1,163.501,192.9231Z" class="cls-2"/>
  <polygon points="445.71 415.734 411.543 381.568 383.075 353.1 348.726 318.75 313.699 283.724 228.276 198.301 193.25 163.274 158.9 128.925 130.432 100.457 96.266 66.29 45.976 16 16 16 16 45.422 66.543 95.965 100.703 130.125 129.165 158.587 163.501 192.923 198.487 227.909 284.09 313.513 306.578 336 319.077 348.499 353.413 382.835 381.874 411.297 416.034 445.457 466.577 496 496 496 496 466.024 445.71 415.734" class="cls-3"/>
</svg>
