<svg xmlns="http://www.w3.org/2000/svg" id="export" viewBox="0 0 512 512">
  <defs>
    <style>
      .cls-1{fill:currentColor}
    </style>
  </defs>
  <polygon points="352 312 200 216 192 216 192 408 200 408 352 320 352 312" class="cls-1"/>
  <path fill="currentColor" d="M480,128H32a16,16,0,0,0-16,16V480a16,16,0,0,0,16,16H480a16,16,0,0,0,16-16V144A16,16,0,0,0,480,128Z" opacity=".25"/>
  <polygon points="136 16 136 128 184 128 184 64 328 64 328 128 376 128 376 16 136 16" class="cls-1"/>
</svg>
