<svg xmlns="http://www.w3.org/2000/svg" id="export" viewBox="0 0 512 512">
  <defs>
    <style>
      .cls-2{fill:currentColor}
    </style>
  </defs>
  <g opacity=".25">
    <path d="M256,16A238.8622,238.8622,0,0,0,130.4217,51.4507l83.52,83.52,35.3446,35.3448,65.2821,65.2818L460.5492,381.5784A238.8614,238.8614,0,0,0,496,256C496,123.4517,388.5483,16,256,16Z" class="cls-2"/>
    <path d="M304.5125,335.9341,248.5784,280,200,231.4217,71.3137,102.7355A239.0143,239.0143,0,0,0,16,256c0,132.5483,107.4517,240,240,240a239.0147,239.0147,0,0,0,153.2647-55.3138L344,375.4215Z" class="cls-2"/>
  </g>
  <path fill="#fff" d="M70,16v-.1984c-.0753.0666-.1517.1318-.2269.1984Z"/>
  <path d="M439.1072,411.1321,307.9749,280l-48-48L248,220.0251l-47.7145-47.7144L100.8676,72.8929,43.9746,16H14V45.4219l57.3137,57.3136L200,231.4217V232H160v48h40v55.9341H160v48H344v-8.5126l65.2647,65.2647L464.5786,496H494V466.0249ZM248,335.9341V280h.5784l55.9341,55.9341Z" class="cls-2"/>
  <path d="M275.6475,151a27.6791,27.6791,0,0,1,27.6479,27.6475h48A75.6095,75.6095,0,0,0,213.9412,134.97l35.3446,35.3448A27.6955,27.6955,0,0,1,275.6475,151Z" class="cls-2"/>
</svg>
