<svg xmlns="http://www.w3.org/2000/svg" viewBox="0 0 512 512">
  <path fill="currentColor" d="M451.6631,116.4388,377.7009,80,299.4021,184.3986l39.1494,52.1994h0A104.3985,104.3985,0,0,1,234.153,340.9966h0l-52.1992-39.1494L77.5549,380.1461l36.4388,73.9621a9.2276,9.2276,0,0,0,7.825,4.3369h22.3446C316.386,458.4451,456,318.8311,456,146.6085V124.2639A9.2277,9.2277,0,0,0,451.6631,116.4388Z"/>
  <polygon fill="currentColor" points="188.12 224.971 222.062 191.029 166.351 135.319 222.062 79.609 188.12 45.668 132.41 101.378 76.7 45.668 42.758 79.609 98.469 135.319 42.758 191.029 76.7 224.971 132.41 169.261 188.12 224.971" opacity=".25"/>
</svg>
