<svg xmlns="http://www.w3.org/2000/svg" id="export" viewBox="0 0 512 512">
  <defs>
    <style>
      .cls-1{opacity:.25}.cls-2{fill:currentColor}
    </style>
  </defs>
  <g class="cls-1">
    <rect width="240" height="48" x="256" y="408" class="cls-2"/>
  </g>
  <g class="cls-1">
    <rect width="240" height="48" x="256" y="301.334" class="cls-2"/>
  </g>
  <g class="cls-1">
    <rect width="240" height="48" x="256" y="194.667" class="cls-2"/>
  </g>
  <g class="cls-1">
    <rect width="168" height="48" x="328" y="88" class="cls-2"/>
  </g>
  <path d="M95.1973,370.4644C75.08,344.4243,64,309.4556,64,272s11.08-72.4243,31.1973-98.4644c17.6145-22.7993,40.1945-35.9458,63.9985-37.3964v68.7837l140.4067-93.8995L159.1958,19.7817V88.0868C120.2612,89.48,84.19,109.272,57.2129,144.19,30.6362,178.59,16,223.9805,16,272s14.6362,93.41,41.2129,127.81C85.207,436.0449,122.9937,456,163.6118,456H216V408H163.6118C138.1948,408,113.8979,394.6694,95.1973,370.4644Z" class="cls-2"/>
</svg>
