<svg xmlns="http://www.w3.org/2000/svg" viewBox="0 0 512 512">
  <path fill="currentColor" d="M343.8367,466.4451h22.3446a9.2274,9.2274,0,0,0,7.825-4.3369l36.4389-73.962-104.3987-78.299-52.1993,39.1494h0A104.3984,104.3984,0,0,1,149.4485,244.5981h0l39.15-52.1993L110.299,88,36.337,124.439A9.2272,9.2272,0,0,0,32,132.2639v22.3446C32,326.8311,171.614,466.4451,343.8367,466.4451Z"/>
  <polygon fill="currentColor" points="354.445 240 458.445 144 354.445 48 330.445 48 330.445 88 266.445 88 266.445 192 330.445 192 330.445 240 354.445 240" opacity=".25"/>
</svg>
