<svg xmlns="http://www.w3.org/2000/svg" id="export" viewBox="0 0 512 512">
  <defs>
    <style>
      .cls-1{fill:currentColor}
    </style>
  </defs>
  <polygon points="328 32 322 32 322 166 456 166 456 160 328 32" class="cls-1"/>
  <polygon fill="currentColor" points="286 202 286 32 64 32 64 480 456 480 456 202 286 202" opacity=".25"/>
  <path d="M229.5559,245.4231l12.9133-41.3445A40.3553,40.3553,0,1,0,174.27,219.3911l29.3855,31.8955a320.1468,320.1468,0,0,1-28.3865,90.3743l-32.6679,7.3352a40.374,40.374,0,0,0,8.6518,79.7593,41.21,41.21,0,0,0,9.03-1.0093,39.9471,39.9471,0,0,0,29.68-27.3447L203.49,357.0908a371.5144,371.5144,0,0,1,71.863-16.0918l30.1621,32.7378a39.8912,39.8912,0,0,0,29.4893,13.04,41.2225,41.2225,0,0,0,9.0308-1.0093,40.3551,40.3551,0,0,0-17.6822-78.75L293.16,314.4705A320.5208,320.5208,0,0,1,229.5559,245.4231ZM167.0542,393.2466a16.3555,16.3555,0,1,1-19.1953-20.8335l27.64-6.2061ZM191.92,203.1289a16.3548,16.3548,0,0,1,8.4453-27.0391,16.68,16.68,0,0,1,3.66-.4091,16.3712,16.3712,0,0,1,15.5346,21.2426l-8.4453,27.04Zm14.3565,127.9024a343.7648,343.7648,0,0,0,16.8383-53.74A344.3183,344.3183,0,0,0,261.3,318.6787,395.5281,395.5281,0,0,0,206.2769,331.0313Zm125.3335-.5967a16.3551,16.3551,0,1,1-8.4454,27.04L303.97,336.6406Z" class="cls-1"/>
</svg>
