<svg xmlns="http://www.w3.org/2000/svg" id="export" viewBox="0 0 512 512">
  <defs>
    <style>
      .cls-2{fill:currentColor}
    </style>
  </defs>
  <path fill="#fff" d="M361.54,485.77l-43-43a161.69,161.69,0,0,1-25.38,25.53l42.92,42.92Z"/>
  <circle cx="417.91" cy="70.09" r="38.09" class="cls-2"/>
  <path d="M403.56,223.27H321.3l83-83-28.6-28.6.44-.43L289.68,22.57a28.11,28.11,0,0,0-39.35-.75L175.46,93l33.08,34.78,60.55-57.58,45.47,46.65L241,190.42a161.07,161.07,0,0,1,95.1,80.85h47.45V403.64h48V251.27A28,28,0,0,0,403.56,223.27Z" class="cls-2"/>
  <g opacity=".25">
    <path d="M193,183.07a159.45,159.45,0,0,0-99.46,34.69L127.78,252A112.2,112.2,0,0,1,284.31,408.53l34.24,34.25a159.46,159.46,0,0,0,34.7-99.46C353.25,255,281.36,183.07,193,183.07Z" class="cls-2"/>
    <path d="M193,455.57a112.19,112.19,0,0,1-90.77-178.21L68,243.14A159.44,159.44,0,0,0,32.74,343.32c0,88.36,71.89,160.25,160.25,160.25a159.49,159.49,0,0,0,100.18-35.26L259,434.09A111.66,111.66,0,0,1,193,455.57Z" class="cls-2"/>
  </g>
</svg>
