<svg xmlns="http://www.w3.org/2000/svg" id="export" viewBox="0 0 512 512">
  <defs>
    <style>
      .cls-1{fill:currentColor}
    </style>
  </defs>
  <path d="M152,136h72v8h0V304a31.8691,31.8691,0,0,0,2.8657,13.2324q.2547.56.5292,1.1081a32.0058,32.0058,0,0,0,2.9623,4.8055c.4717.6308.9729,1.2375,1.4889,1.8311a32.1659,32.1659,0,0,0,6.2623,5.5577q1.2768.8627,2.6384,1.6029a31.7834,31.7834,0,0,0,8.804,3.2121A32.1488,32.1488,0,0,0,256,336h0a32.0617,32.0617,0,0,0,7.9973-1.0074q1.5336-.3947,3.0053-.9344c.7118-.2606,1.407-.554,2.094-.8626.7323-.3291,1.4546-.6766,2.1565-1.0578q1.36-.7391,2.6383-1.6029a32.177,32.177,0,0,0,6.8013-6.18q.4891-.5928.95-1.2089A31.8584,31.8584,0,0,0,288,304V136h72L256,16Z" class="cls-1"/>
  <polygon fill="none" points="186.667 384 316.078 384 367.843 312 143.529 312 186.667 384"/>
  <polygon points="367.843 312 316.078 384 186.667 384 143.529 312 64 312 16 312 16 495.998 495.372 495.998 495.372 312 447.372 312 367.843 312" class="cls-1"/>
  <g opacity=".25">
    <polygon points="298.345 16 384.182 115.042 395.412 128 409.279 144 447.372 144 447.372 312 495.372 312 495.372 128 495.372 16 298.345 16" class="cls-1"/>
    <polygon points="16 128 16 312 64 312 64 144 102.721 144 116.588 128 127.818 115.042 213.655 16 16 16 16 128" class="cls-1"/>
  </g>
</svg>
