<svg xmlns="http://www.w3.org/2000/svg" id="export" viewBox="0 0 512 512">
  <defs>
    <style>
      .cls-1{fill:currentColor;opacity:.25}
    </style>
  </defs>
  <path d="M357.1353,170.5449a23.9776,23.9776,0,0,1-26.3912-.1523L192,77.8962v71.1477A104.18,104.18,0,0,1,264,248v8H496V80.2828Z" class="cls-1"/>
  <polygon points="344.111 140.845 495.28 42.585 496 43.692 496 16 192 16 192 39.437 344.111 140.845" class="cls-1"/>
  <path fill="currentColor" d="M205.8262,377.4345h0L232,312V248h0a72.5452,72.5452,0,0,0-.83-10.9649,71.5861,71.5861,0,0,0-11.4668-29.2909q-1.9409-2.8728-4.1448-5.5428a72.41,72.41,0,0,0-15.3029-13.9049q-2.8726-1.9407-5.9363-3.6064a72.1146,72.1146,0,0,0-68.6392,0q-3.06,1.6626-5.9363,3.6064a72.41,72.41,0,0,0-15.3029,13.9049q-2.2009,2.667-4.1448,5.5428A71.5833,71.5833,0,0,0,88.83,237.035,72.5452,72.5452,0,0,0,88,248v64l26.1738,65.4344h0l-79.6631,44.277a36.0261,36.0261,0,0,0-4.0756,2.6392q-.9654.7219-1.8753,1.5027a35.9708,35.9708,0,0,0-3.405,3.3373q-.7917.8864-1.522,1.8211A35.9825,35.9825,0,0,0,16,453.1779V496H304V453.1779a36.0111,36.0111,0,0,0-7.6328-22.1661q-.73-.9342-1.522-1.8211a35.9708,35.9708,0,0,0-3.405-3.3373q-.9093-.78-1.8753-1.5027a36.0261,36.0261,0,0,0-4.0756-2.6392Z"/>
</svg>
