<svg xmlns="http://www.w3.org/2000/svg" id="export" viewBox="0 0 512 512">
  <defs>
    <style>
      .cls-1{opacity:.25}.cls-2{fill:currentColor}
    </style>
  </defs>
  <g class="cls-1">
    <rect width="240" height="48" x="256" y="48" class="cls-2"/>
  </g>
  <g class="cls-1">
    <rect width="240" height="48" x="256" y="154.667" class="cls-2"/>
  </g>
  <g class="cls-1">
    <rect width="240" height="48" x="256" y="261.334" class="cls-2"/>
  </g>
  <g class="cls-1">
    <rect width="168" height="48" x="328" y="368" class="cls-2"/>
  </g>
  <path d="M159.1958,367.8608c-23.804-1.4506-46.384-14.5971-63.9985-37.3964C75.08,304.4243,64,269.4556,64,232s11.08-72.4243,31.1973-98.4644C113.8979,109.3306,138.1948,96,163.6118,96H216V48H163.6118C122.9937,48,85.207,67.9551,57.2129,104.19,30.6362,138.59,16,183.9805,16,232s14.6362,93.41,41.2129,127.81c26.9767,34.9179,63.0482,54.71,101.9829,56.1031v68.3051l140.4067-91.2417-140.4067-93.9Z" class="cls-2"/>
</svg>
