<svg xmlns="http://www.w3.org/2000/svg" viewBox="0 0 512 512">
  <path fill="currentColor" d="M478.47,248.22l-17.24-46a24,24,0,0,0-22.47-15.57H301.86v-37l16.41-36.34A72.11,72.11,0,0,0,281.6,17.67h0a8.21,8.21,0,0,0-10.77,4.1L184.69,210.34v141.5l76.41,44.82a24,24,0,0,0,12.14,3.3H391.36a24,24,0,0,0,20.86-12.13l64.64-113.61A24,24,0,0,0,480,262.35v-5.7A24,24,0,0,0,478.47,248.22Z"/>
  <path fill="currentColor" d="M126.64,170.67H52a24.69,24.69,0,0,0-24.25,19.44,487,487,0,0,0-1.46,206.53l1.49,7.19a25,25,0,0,0,24.32,19.78h74.55a24.86,24.86,0,0,0,24.83-24.84V195.51A24.86,24.86,0,0,0,126.64,170.67Z" opacity=".25"/>
</svg>
