<svg xmlns="http://www.w3.org/2000/svg" id="export" viewBox="0 0 512 512">
  <defs>
    <style>
      .cls-1,.cls-2{fill:currentColor}.cls-1{opacity:.25}
    </style>
  </defs>
  <path d="M256,53a67.0243,67.0243,0,0,0-66.6263,59.9312A67.7,67.7,0,0,0,189,120a66.9959,66.9959,0,0,0,133.9233,3.03c.045-1.0052.0767-2.014.0767-3.03A67,67,0,0,0,256,53Z" class="cls-1"/>
  <circle cx="256" cy="120" r="30" class="cls-2"/>
  <path d="M322.9233,123.03a66.6836,66.6836,0,0,1-14.9624,39.2565L416,206.3376V160.9805Z" class="cls-2"/>
  <path d="M206.6841,74.6584,96,26.7741V72.5357l93.3737,40.3955A66.74,66.74,0,0,1,206.6841,74.6584Z" class="cls-2"/>
  <path d="M235,183.6237V433H136v42H277V183.6237a66.9963,66.9963,0,0,1-42,0Z" class="cls-2"/>
  <path d="M200.0086,302.2334,206,295.6357V268.3618L133.4715,115H92.5285L20,268.3618v28.4317l5.5492,6.03A118.4433,118.4433,0,0,0,112.512,341c.1312,0,.2686,0,.4-.001A118.4483,118.4483,0,0,0,200.0086,302.2334Z" class="cls-1"/>
  <path d="M37.6693,231,20,268.3618v28.4317l5.5492,6.03A118.4433,118.4433,0,0,0,112.512,341c.1312,0,.2686,0,.4-.001a118.4483,118.4483,0,0,0,87.0968-38.7656L206,295.6357V268.3618L188.3307,231Z" class="cls-2"/>
  <path d="M487.0086,412.2334,493,405.6357V378.3618L420.4715,225h-40.943L307,378.3618v28.4317l5.5492,6.03A118.4433,118.4433,0,0,0,399.512,451c.1312,0,.2686,0,.4-.001A118.4483,118.4483,0,0,0,487.0086,412.2334Z" class="cls-1"/>
  <path d="M324.6693,341,307,378.3618v28.4317l5.5492,6.03A118.4433,118.4433,0,0,0,399.512,451c.1312,0,.2686,0,.4-.001a118.4483,118.4483,0,0,0,87.0968-38.7656L493,405.6357V378.3618L475.3307,341Z" class="cls-2"/>
</svg>
