<svg xmlns="http://www.w3.org/2000/svg" id="export" viewBox="0 0 512 512">
  <defs>
    <style>
      .cls-2{fill:currentColor}
    </style>
  </defs>
  <g opacity=".25">
    <path d="M350.8455,158.3407a83.72,83.72,0,0,1-21.5474-42.9125L163.4341,204.74a83.714,83.714,0,0,1,21.34,43.0241Z" class="cls-2"/>
    <path d="M163.179,319.5281l165.6584,80.7053a83.6476,83.6476,0,0,1,20.0452-43.6289l-164.177-79.9837A83.7218,83.7218,0,0,1,163.179,319.5281Z" class="cls-2"/>
  </g>
  <path d="M163.4341,204.74a84.1129,84.1129,0,1,0,21.34,43.0241A83.7516,83.7516,0,0,0,163.4341,204.74Z" class="cls-2"/>
  <path d="M412,328a84.0452,84.0452,0,0,0-83.1626,72.2334A83.9951,83.9951,0,1,0,412,328Z" class="cls-2"/>
  <path d="M350.8455,158.3407a84.1208,84.1208,0,1,0-21.5474-42.9125A83.7433,83.7433,0,0,0,350.8455,158.3407Z" class="cls-2"/>
</svg>
