<svg xmlns="http://www.w3.org/2000/svg" id="export" viewBox="0 0 512 512">
  <defs>
    <style>
      .cls-1,.cls-2{fill:currentColor}.cls-1{opacity:.25}
    </style>
  </defs>
  <polygon points="416 278.392 496 215.196 416 152 416 195 320 195 320 237 416 237 416 278.392" class="cls-1"/>
  <polygon points="336 289.608 256 352.804 336 416 336 373 432 373 432 331 336 331 336 289.608" class="cls-1"/>
  <path d="M264,195H220.3564l-28.328-50.99L177,139,131.586,123.8621l-12.3421-4.1141L46.0908,146.3486A29.0881,29.0881,0,0,0,27,173.6035V232H69V182.709l37.0667-13.479L76.0073,257.5742,17.3705,440H61.4867l48.4219-150.6459L147,357.3555V440h42V354.04a29.0775,29.0775,0,0,0-3.541-13.8867l-37.185-68.1727,24.7192-75.7514,14.3632,25.8538A29.0162,29.0162,0,0,0,212.707,237H264Z" class="cls-2"/>
  <circle cx="180" cy="76" r="36" class="cls-2"/>
</svg>
