<svg xmlns="http://www.w3.org/2000/svg" id="export" viewBox="0 0 512 512">
  <defs>
    <style>
      .cls-2{fill:currentColor;opacity:.25}
    </style>
  </defs>
  <path fill="currentColor" d="M320,192H192a16,16,0,0,0-16,16V480a16,16,0,0,0,16,16H320a16,16,0,0,0,16-16V208A16,16,0,0,0,320,192ZM256,296a24,24,0,1,1,24-24A24,24,0,0,1,256,296Z"/>
  <path d="M154.22,138.22l33.93,33.93a95.84,95.84,0,0,1,135.7,0l33.93-33.93a143.79,143.79,0,0,0-203.56,0Z" class="cls-2"/>
  <path d="M256,16A222.53,222.53,0,0,0,97.61,81.61l34,34a175.71,175.71,0,0,1,248.78,0l34-34A222.53,222.53,0,0,0,256,16Z" class="cls-2"/>
</svg>
