<svg xmlns="http://www.w3.org/2000/svg" id="export" viewBox="0 0 512 512">
  <defs>
    <style>
      .cls-1{fill:currentColor;opacity:.25}
    </style>
  </defs>
  <polygon points="236.478 316.978 202.068 351.387 239.82 404.239 273.451 368.74 236.478 316.978" class="cls-1"/>
  <polygon points="261.138 434.084 292.471 477.95 297.816 474.132 326.844 443.491 294.769 398.584 261.138 434.084" class="cls-1"/>
  <polygon points="467.039 216.744 433.569 252.072 479.115 282.761 512.584 247.432 467.039 216.744" class="cls-1"/>
  <polygon points="403.3 231.677 436.769 196.348 389.175 164.28 354.596 198.86 403.3 231.677" class="cls-1"/>
  <polygon points="255.797 297.658 294.96 346.036 328.261 310.884 289.926 263.529 255.797 297.658" class="cls-1"/>
  <polygon points="317.81 374.262 352.192 416.735 385.494 381.583 351.111 339.111 317.81 374.262" class="cls-1"/>
  <polygon points="377.101 311.678 417.378 347.928 450.399 313.072 410.122 276.822 377.101 311.678" class="cls-1"/>
  <polygon points="383.354 252.731 339.865 213.59 305.877 247.578 350.332 287.587 383.354 252.731" class="cls-1"/>
  <path fill="currentColor" d="M375.2725,127.2725,343.0293,95.0293,305.4766,132.582l-19.0606-19.06a95.6017,95.6017,0,0,0-129.0473-5.6226l-9.3111-7.76A80.5145,80.5145,0,0,0,16,161.9922V408H64V161.9922a32.5141,32.5141,0,0,1,53.3281-24.9785l11.3067,9.4228,2.103-2.5234a95.6211,95.6211,0,0,0,20.4653,104.822l19.06,19.06-35.2339,35.2339,32.2432,32.2432,1.6982,1.6982,208-208Z"/>
</svg>
