<svg xmlns="http://www.w3.org/2000/svg" viewBox="0 0 512 512">
  <polygon fill="currentColor" points="216 40 88 40 88 168 136 168 136 119.678 256.478 233.463 424.971 64.971 391.029 31.029 255.522 166.537 172.365 88 216 88 216 40" opacity=".25"/>
  <path fill="currentColor" d="M477.0753,366.9194l-14.782-14.7819c-113.9326-113.9327-298.654-113.9327-412.5866,0l-14.782,14.7819a8.633,8.633,0,0,0-2.3075,8.0457L57.44,448l120.8624-17.2661,8.633-60.4312h0a97.6715,97.6715,0,0,1,138.1282,0h0l8.633,60.4312L454.56,448l24.8232-73.0349A8.633,8.633,0,0,0,477.0753,366.9194Z"/>
</svg>
