<svg xmlns="http://www.w3.org/2000/svg" viewBox="0 0 512 512">
  <path fill="currentColor" d="M456.0267,32.0109l-400-.0218A24,24,0,0,0,32.0254,55.9879l-.0217,400a24,24,0,0,0,23.9987,24.0012l400,.0218a24,24,0,0,0,24.0013-23.9988l.0217-400A24,24,0,0,0,456.0267,32.0109Z" opacity=".25"/>
  <path fill="currentColor" d="M390.8417,130.4584,332.5508,101.74l-61.7089,82.2786,30.8545,41.1393h0a82.2784,82.2784,0,0,1-82.2785,82.2785h0l-41.1392-30.8544L96,338.2911l28.7181,58.2908A7.2725,7.2725,0,0,0,130.8852,400h17.61C284.2273,400,394.26,289.9676,394.26,154.2357v-17.61A7.2727,7.2727,0,0,0,390.8417,130.4584Z"/>
</svg>
