<svg xmlns="http://www.w3.org/2000/svg" viewBox="0 0 512 512">
  <path fill="currentColor" d="M256.25,503.5A247.75,247.75,0,0,0,431.4355,80.5645a247.72,247.72,0,0,0-343.83-6.2834L29.324,16,24,21.3239V169.0681H173.1152l4.6382-4.6384-56.1662-56.1663A199.94,199.94,0,0,1,256.25,56C366.3926,56,456,145.6074,456,255.75S366.3926,455.5,256.25,455.5,56.5,365.8926,56.5,255.75H8.5A247.7507,247.7507,0,0,0,256.25,503.5Z" opacity=".25"/>
  <polygon fill="currentColor" points="232.485 103.927 231.927 288 368.485 288 368.485 240 280.073 240 280.485 104.073 232.485 103.927"/>
</svg>
