<svg xmlns="http://www.w3.org/2000/svg" id="export" viewBox="0 0 512 512">
  <defs>
    <style>
      .cls-1{fill:currentColor}
    </style>
  </defs>
  <polygon points="112 399.5 167.943 399.5 167.943 463.5 231.943 463.5 231.943 399.5 312 399.5 312 343.5 112 343.5 112 399.5" class="cls-1"/>
  <path d="M231.9434,150.9727V128H306.82c33.7349,0,61.18,25.9287,61.18,57.7988,0,26.7139-19.2869,49.2429-45.3936,55.8369l48.585,48.585C407.5955,268.8955,432,230.0693,432,185.7979,432,118.6387,375.8447,64,306.82,64H144.9709l64,64Z" class="cls-1"/>
  <polygon points="167.943 197.365 167.943 243.597 112 243.597 112 303.5 274.078 303.5 167.943 197.365" class="cls-1"/>
  <polygon fill="currentColor" points="45.976 16 16 16 16 45.422 167.943 197.365 274.078 303.5 314.078 343.5 466.578 496 496 496 496 466.024 45.976 16" opacity=".25"/>
</svg>
