<svg xmlns="http://www.w3.org/2000/svg" id="export" viewBox="0 0 512 512">
  <defs>
    <style>
      .cls-1{fill:currentColor;opacity:.25}
    </style>
  </defs>
  <path d="M374.4161,101.6909q-3.8235-1.126-7.6684-2.1794-11.5343-3.16-23.2451-5.6608A419.07,419.07,0,0,0,256,84.6134q-8.0631,0-16.0994.3093t-16.0346.9245q-11.9974.9228-23.8938,2.5285-15.8553,2.1392-31.4748,5.475-11.7062,2.4992-23.2451,5.6608-19.2235,5.2668-37.8864,12.3427Q99.91,114.682,92.56,117.7937q-3.6743,1.5558-7.32,3.182a419.0635,419.0635,0,0,0-69.6561,39.4408l52.3348,74.7419h0a327.7892,327.7892,0,0,1,185.485-59.2771l2.4692-10.36,7.03-29.4972,29.8326,5.4341,31.1158,5.668,29.8325,5.434-3.8224,30.0816-.85,6.6886q2.8019.8291,5.5926,1.7049a327.5283,327.5283,0,0,1,89.4776,44.1232h0l52.3347-74.7417A419.1485,419.1485,0,0,0,374.4161,101.6909Z" class="cls-1"/>
  <path d="M244.7777,212.0724A291.9609,291.9609,0,0,0,97.8751,258.3933q-4.7073,3.0333-9.308,6.2545l48.0417,68.6106a208.2521,208.2521,0,0,1,87.679-35.2159Z" class="cls-1"/>
  <path d="M333.6,310.62a207.8722,207.8722,0,0,1,41.7915,22.6388l48.0417-68.6106a291.8986,291.8986,0,0,0-79.0267-39.0746Z" class="cls-1"/>
  <path fill="currentColor" d="M224.8942,433.5231a32.132,32.132,0,0,0,.67,17.44q.4806,1.4763,1.1,2.89a31.3816,31.3816,0,0,0,2.15,4.071A29.545,29.545,0,0,0,253.9675,472c15.0469,0,28.347-11.6326,30.3819-27.6469L286.9356,424h0l15.6422-123.1025h0l10.5941-83.3748h0l4.5495-35.8035h0l.3953-3.1114L287.0007,172.94Z"/>
</svg>
