<svg xmlns="http://www.w3.org/2000/svg" id="export" viewBox="0 0 512 512">
  <defs>
    <style>
      .cls-1{fill:currentColor}
    </style>
  </defs>
  <polygon points="329.151 299.175 354.472 324.496 354.477 324.489 329.151 299.175" class="cls-1"/>
  <path d="M400.17,370.1945l95.83,95.83v-.08l-95.8145-95.769Z" class="cls-1"/>
  <path d="M354.4771,324.489l-.0049.0072L400.17,370.1945l.0151-.0187Z" class="cls-1"/>
  <g opacity=".25">
    <path d="M438.4351,232C428.0178,152.3833,366.5093,88.6161,288,74.7913V16H224V74.7913a182.5549,182.5549,0,0,0-51.2261,17.1351l49.0745,49.0325A120.01,120.01,0,0,1,371.06,290.0889l49.0547,49.0549A182.6232,182.6232,0,0,0,435.6082,296H496V232Z" class="cls-1"/>
    <path d="M256,376a119.9381,119.9381,0,0,1-98.2454-188.8231l-45.6779-45.678A183.168,183.168,0,0,0,73.5649,232H16v64H76.3918A184.53,184.53,0,0,0,224,437.2087V496h64V437.2087a183.2677,183.2677,0,0,0,82.5007-37.2854L324.823,354.2454A119.3283,119.3283,0,0,1,256,376Z" class="cls-1"/>
  </g>
  <polygon points="400.17 370.194 354.472 324.496 329.151 299.175 187.464 157.555 141.756 111.869 45.841 16 16 16 16 45.422 112.077 141.499 157.755 187.177 324.823 354.245 370.501 399.923 466.577 496 496 496 496 466.024 400.17 370.194" class="cls-1"/>
  <path d="M45.9766,16h-.1353l95.915,95.8694.05-.04Z" class="cls-1"/>
  <path d="M141.8059,111.83l-.05.04,45.7078,45.686.04-.0276Z" class="cls-1"/>
  <path d="M224,74.7913a184.8227,184.8227,0,0,1,64,0V16H224Z" class="cls-1"/>
  <path d="M438.4351,232a184.5273,184.5273,0,0,1-2.8269,64H496V232Z" class="cls-1"/>
  <path d="M73.5649,232H16v64H76.3918a184.5273,184.5273,0,0,1-2.8269-64Z" class="cls-1"/>
  <path d="M224,437.2087V496h64V437.2087a184.8227,184.8227,0,0,1-64,0Z" class="cls-1"/>
</svg>
