<svg xmlns="http://www.w3.org/2000/svg" id="export" viewBox="0 0 512 512">
  <defs>
    <style>
      .cls-2{fill:currentColor}
    </style>
  </defs>
  <path d="M456,80H201.5241a24,24,0,0,0-17.4205,7.4917L32,248v16L184.1036,424.5083A24,24,0,0,0,201.5241,432H456a24,24,0,0,0,24-24V104A24,24,0,0,0,456,80Z" class="cls-2" opacity=".25"/>
  <polygon points="395.272 147.272 312 230.544 228.728 147.272 203.272 172.728 286.544 256 203.272 339.272 228.728 364.728 312 281.456 395.272 364.728 420.728 339.272 337.456 256 420.728 172.728 395.272 147.272" class="cls-2"/>
</svg>
