<svg xmlns="http://www.w3.org/2000/svg" id="export" viewBox="0 0 512 512">
  <defs>
    <style>
      .cls-2,.cls-3{fill:currentColor}.cls-2{opacity:.25}
    </style>
  </defs>
  <polygon fill="#fff" points="496 467.31 499.44 470.77 500.3 469.92 496 465.62 496 467.31"/>
  <path d="M249.25,16A165.64,165.64,0,0,0,142.36,54.33L168.14,80.1l22.54,22.55,5.16,5.15,24.56,24.56,8.17,8.17L336,248l39.23,39.23A165.55,165.55,0,0,0,413.5,180.44C413,90.41,339.28,16.64,249.25,16Z" class="cls-2"/>
  <path d="M273,132.79a33.35,33.35,0,0,1,10,24.38h42a75.49,75.49,0,0,0-22.62-54.35c-15.28-15-35.94-23-58.19-22.64a78.16,78.16,0,0,0-53.51,22.47l5.16,5.15,24.56,24.56A36.6,36.6,0,0,1,245,122.17C255.85,122,265.78,125.75,273,132.79Z" class="cls-3"/>
  <path d="M363.53,392.55l-47.95-48L208.52,237.53l-42-42-35.87-35.87L92.44,121.45h0A163.87,163.87,0,0,0,80.06,184H80c0,120,86.52,98.5,86.52,201.7v20.82A89.48,89.48,0,0,0,256,496h1.07A106.5,106.5,0,0,0,363.53,392.55Z" class="cls-2"/>
  <polygon points="363.58 333.19 316.37 285.99 208.92 178.53 176.19 145.8 148.49 118.1 114.1 83.71 46.38 16 46.27 16 16 16 16 45.01 92.44 121.45 130.65 159.66 166.52 195.53 208.52 237.53 315.58 344.59 363.53 392.55 466.99 496 496 496 496 467.31 496 465.62 363.58 333.19" class="cls-3"/>
  <path d="M180.8,285.5c21.64,21.64,33.56,44.59,33.56,75.2v25h42.57v-25h-.57c0-41.83-16.29-75.32-45.86-104.9l-2-2V237.53l-42-42v75.69Z" class="cls-3"/>
</svg>
