<svg xmlns="http://www.w3.org/2000/svg" viewBox="0 0 512 512">
  <path fill="currentColor" d="M56.0147,32h400a24,24,0,0,1,24,24V456a24,24,0,0,1-24,24h-400a24,24,0,0,1-24-24V56a24,24,0,0,1,24-24Z" opacity=".25"/>
  <path fill="currentColor" d="M294.2354,165.8247l26.89,26.8506,32.1094-32.155V347.2329a39.1172,39.1172,0,1,1-78.2344,0V172.7671a77.14,77.14,0,0,0-154.28,0V352.6438L88.4761,320.7764,61.7642,347.8037l78.47,77.5527,77.5307-77.6411-26.89-26.8506-32.1548,32.2V172.7671a39.14,39.14,0,0,1,78.28,0V347.2329a77.1172,77.1172,0,1,0,154.2344,0V160.8513l32.29,31.9124,26.7119-27.0274-78.47-77.5527Z"/>
</svg>
