<svg xmlns="http://www.w3.org/2000/svg" id="export" viewBox="0 0 512 512">
  <defs>
    <style>
      .cls-1{fill:none}.cls-3{fill:currentColor}
    </style>
  </defs>
  <path d="M58.28,28.22Q64.9682,22.0435,71.7731,16H45.9756l55.9762,55.9761.0455-.0384Z" class="cls-1"/>
  <path d="M440.0238,410.0483,496,466.0244v-.0835l-55.9379-55.938Z" class="cls-1"/>
  <g opacity=".25">
    <path d="M256,16A238.88,238.88,0,0,0,131.6551,50.6841L262.5328,181.562l34.41,34.41L312.9707,232l3.5969,3.5969h0L336,255.0291,461.3157,380.345A238.8785,238.8785,0,0,0,496,256C496,123.4517,388.5483,16,256,16Z" class="cls-3"/>
    <path d="M282.5781,312l-40-40-40-40L72.23,101.6519A239.0169,239.0169,0,0,0,16,256c0,132.5483,107.4517,240,240,240a239.0179,239.0179,0,0,0,154.3483-56.23L322.5781,352Z" class="cls-3"/>
  </g>
  <path fill="#fff" d="M72,16v-.1982c-.0753.0664-.1517.1315-.2269.1982Z"/>
  <path d="M440.0238,410.0483l.0383-.0454L342.0593,312,336,305.9407,334.0593,304h-.0837l-24-24-8-8-60.6907-60.6907L101.9518,71.9761,45.9756,16H16V45.4219l56.23,56.23L202.5781,232H176v40h66.5781l40,40H176v40h56v48h48V352h42.5781l87.77,87.77,56.23,56.23H496V466.0244Z" class="cls-3"/>
  <polygon points="355.53 133.95 316.47 106.05 262.533 181.562 296.943 215.972 355.53 133.95" class="cls-3"/>
  <polygon points="316.568 235.597 336 255.029 336 232 312.971 232 316.568 235.597 316.568 235.597" class="cls-3"/>
</svg>
