<svg xmlns="http://www.w3.org/2000/svg" id="export" viewBox="0 0 512 512">
  <defs>
    <style>
      .cls-1,.cls-2{fill:currentColor}.cls-1{opacity:.25}
    </style>
  </defs>
  <path d="M199.0086,414.2334,205,407.6357V380.3618L132.4715,227H91.5285L19,380.3618v28.4317l5.5492,6.03A118.4433,118.4433,0,0,0,111.512,453c.1312,0,.2686,0,.4-.001A118.4483,118.4483,0,0,0,199.0086,414.2334Z" class="cls-1"/>
  <path d="M36.6693,343,19,380.3618v28.4317l5.5492,6.03A118.4433,118.4433,0,0,0,111.512,453c.1312,0,.2686,0,.4-.001a118.4483,118.4483,0,0,0,87.0968-38.7656L205,407.6357V380.3618L187.3307,343Z" class="cls-2"/>
  <path d="M487.0086,294.2334,493,287.6357V260.3618L420.4715,107h-40.943L307,260.3618v28.4317l5.5492,6.03A118.4433,118.4433,0,0,0,399.512,333c.1312,0,.2686,0,.4-.001A118.4483,118.4483,0,0,0,487.0086,294.2334Z" class="cls-2" opacity=".25"/>
  <path d="M324.6693,223,307,260.3618v28.4317l5.5492,6.03A118.4433,118.4433,0,0,0,399.512,333c.1312,0,.2686,0,.4-.001a118.4483,118.4483,0,0,0,87.0968-38.7656L493,287.6357V260.3618L475.3307,223Z" class="cls-2"/>
  <path d="M277,183.6237a66.9963,66.9963,0,0,1-42,0V477H376V435H277Z" class="cls-2"/>
  <path d="M96,162.7977v45.3572l109.1827-44.5171A66.6861,66.6861,0,0,1,189.19,124.8013Z" class="cls-2"/>
  <path d="M415.6616,28.7266,306.4724,75.9642A66.6918,66.6918,0,0,1,322.77,114.675L416,74.3418V29.5087Z" class="cls-2"/>
  <path d="M322.77,114.675A66.9906,66.9906,0,0,0,189,120c0,1.6163.0775,3.2136.19,4.8013A66.9909,66.9909,0,0,0,323,120C323,118.2057,322.9084,116.4338,322.77,114.675Z" class="cls-1"/>
  <circle cx="256" cy="120" r="30" class="cls-2"/>
</svg>
