<svg xmlns="http://www.w3.org/2000/svg" id="export" viewBox="0 0 512 512">
  <defs>
    <style>
      .cls-2{fill:currentColor}
    </style>
  </defs>
  <path d="M466.6683,45.103a128.6417,128.6417,0,0,0-181.93,0l-79.1535,79.1536h90.5088l33.9-33.9A64.645,64.645,0,0,1,421.4144,181.78L324.601,278.5913a64.7171,64.7171,0,0,1-91.4209,0l-45.2549,45.2559a128.793,128.793,0,0,0,181.9316,0l96.8115-96.8135A128.7888,128.7888,0,0,0,466.6683,45.103Z" class="cls-2" opacity=".25"/>
  <path d="M183.056,421.4741a65.2233,65.2233,0,1,1-92.24-92.2392l97.8008-97.8018a64.6438,64.6438,0,0,1,91.4209-.001l45.2558-45.2539a128.644,128.644,0,0,0-181.9316,0L45.56,283.98A129.2231,129.2231,0,0,0,228.31,466.728l79.4722-79.4714H217.2736Z" class="cls-2"/>
</svg>
