<svg xmlns="http://www.w3.org/2000/svg" id="export" viewBox="0 0 512 512">
  <defs>
    <style>
      .cls-1,.cls-2{fill:currentColor}.cls-2{opacity:.25}
    </style>
  </defs>
  <polygon points="376 295.029 424 343.029 424 240 376 240 376 295.029" class="cls-1"/>
  <rect width="48" height="120" x="448" y="240" class="cls-1"/>
  <path d="M364.9468,190.0459l6.36,9.9541h42.72l-18.7429-29.3359a33.6721,33.6721,0,0,1,2.2251-39.1,69.6484,69.6484,0,0,0,3.5522-83.1338L400.7662,48H357.1388L371.354,68.7656a33.4672,33.4672,0,0,1-1.6636,39.9492C350.9106,131.5781,348.96,165.0225,364.9468,190.0459Z" class="cls-2"/>
  <path d="M436.9468,190.0459l6.36,9.9541h42.72l-18.7429-29.3359a33.6721,33.6721,0,0,1,2.2251-39.1,69.6484,69.6484,0,0,0,3.5522-83.1338L472.7662,48H429.1388L443.354,68.7656a33.4672,33.4672,0,0,1-1.6636,39.9492C422.9106,131.5781,420.96,165.0225,436.9468,190.0459Z" class="cls-2"/>
  <polygon points="16 240 16 360 330.578 360 210.578 240 16 240" class="cls-2"/>
  <polygon points="45.709 16 496 466.457 496 466.024 45.976 16 45.709 16"/>
  <polygon points="16 16 16 45.422 210.578 240 330.578 360 466.578 496 496 496 496 466.457 45.709 16 16 16" class="cls-1"/>
</svg>
