<svg xmlns="http://www.w3.org/2000/svg" id="export" viewBox="0 0 512 512">
  <defs>
    <style>
      .cls-1{fill:currentColor}
    </style>
  </defs>
  <rect width="40" height="40" x="292" y="312" class="cls-1"/>
  <rect width="40" height="40" x="292" y="392" class="cls-1"/>
  <rect width="40" height="40" x="372" y="392" class="cls-1"/>
  <rect width="40" height="40" x="372" y="312" class="cls-1"/>
  <rect width="40" height="40" x="212" y="312" class="cls-1"/>
  <rect width="40" height="40" x="212" y="392" class="cls-1"/>
  <rect width="40" height="40" x="132" y="392" class="cls-1"/>
  <rect width="40" height="40" x="132" y="312" class="cls-1"/>
  <polygon fill="currentColor" points="456.723 121 328.193 248 312 248 312 121 291.296 121 166.084 248 162 248 152 248 152 32 32 32 32 480 480 480 480 248 480 121 456.723 121" opacity=".25"/>
  <polygon points="456.723 121 328.193 248 480 248 480 121 456.723 121" class="cls-1"/>
  <polygon points="312 121 291.296 121 166.084 248 312 248 312 121" class="cls-1"/>
</svg>
