<svg xmlns="http://www.w3.org/2000/svg" id="export" viewBox="0 0 512 512">
  <defs>
    <style>
      .cls-2{fill:currentColor}
    </style>
  </defs>
  <rect width="480" height="288" x="16" y="128" fill="currentColor" opacity=".25" rx="24"/>
  <rect width="40" height="40" x="200" y="176" class="cls-2"/>
  <rect width="40" height="40" x="344" y="176" class="cls-2"/>
  <rect width="40" height="40" x="160" y="252" class="cls-2"/>
  <rect width="40" height="40" x="128" y="176" class="cls-2"/>
  <rect width="40" height="40" x="56" y="176" class="cls-2"/>
  <rect width="40" height="40" x="88" y="252" class="cls-2"/>
  <rect width="40" height="40" x="272" y="176" class="cls-2"/>
  <rect width="40" height="40" x="416" y="176" class="cls-2"/>
  <rect width="40" height="40" x="236" y="252" class="cls-2"/>
  <rect width="40" height="40" x="336" y="328" class="cls-2"/>
  <rect width="40" height="40" x="72" y="328" class="cls-2"/>
  <rect width="160" height="36" x="144" y="330" class="cls-2"/>
  <rect width="40" height="40" x="384" y="252" class="cls-2"/>
  <rect width="40" height="40" x="408" y="328" class="cls-2"/>
  <rect width="40" height="40" x="312" y="252" class="cls-2"/>
</svg>
