<svg xmlns="http://www.w3.org/2000/svg" id="export" viewBox="0 0 512 512">
  <defs>
    <style>
      .cls-2{fill:currentColor}
    </style>
  </defs>
  <circle cx="256.029" cy="256" r="240" fill="currentColor" opacity=".25"/>
  <path d="M228.7533,401.2914l-33.8441-58.0187L168.45,375.0237A147.698,147.698,0,0,1,108.1816,256h-36c0,99.75,79.865,181.1962,179.0091,183.7554l-1.9163-3.2851Z" class="cls-2"/>
  <path d="M289.5215,222.15,175.1967,164.8908A8,8,0,0,0,164.458,175.62l57.1814,114.4119,114.2715,57.0391a8,8,0,0,0,10.7276-10.7368Z" class="cls-2"/>
  <path d="M260.8093,72.2446l1.9163,3.2849,20.5211,35.1791,33.8441,58.0186L343.55,136.9763A147.698,147.698,0,0,1,403.8184,256h36C439.8184,156.25,359.9534,74.8038,260.8093,72.2446Z" class="cls-2"/>
</svg>
