<svg xmlns="http://www.w3.org/2000/svg" viewBox="0 0 512 512">
  <g fill="currentColor">
    <path d="M192.1462,213.6013c-2.7951-.2026-5.5938-.3279-8.3786-.3279A116.2592,116.2592,0,0,0,73.0225,293.5752L18.2383,461.1172a27.1364,27.1364,0,0,0,25.7187,35.56,27.2719,27.2719,0,0,0,8.4815-1.3584l167.542-54.7842a116.2621,116.2621,0,0,0,80.3027-110.7451v-.001c0-2.781-.1118-5.5755-.3158-8.3657Z"/>
    <path d="M482.64,31.0215a48.0425,48.0425,0,0,0-64.8613-3.5557L220.4468,190.9917,321.4153,291.96,485.0781,94.8262A47.7484,47.7484,0,0,0,482.64,31.0215Z" opacity=".25"/>
  </g>
</svg>
