<svg xmlns="http://www.w3.org/2000/svg" id="export" viewBox="0 0 512 512">
  <defs>
    <style>
      .cls-2{fill:currentColor}
    </style>
  </defs>
  <path fill="currentColor" d="M234.5929,284.375A196.8955,196.8955,0,0,1,256,309.709a195.8524,195.8524,0,0,1,103.9185-74.585A218.2562,218.2562,0,0,0,269.7494,63.7891L252.2856,51.1428,236.2634,63.6045a218.2585,218.2585,0,0,0-84.252,171.4988,195.4291,195.4291,0,0,1,82.5815,49.2717Z" opacity=".25"/>
  <path d="M96,262.9678H32v49.5483a161.8868,161.8868,0,0,0,.826,16.3591A159.5434,159.5434,0,0,0,36.0972,348.65q.8936,3.8709,1.9725,7.6682t2.337,7.5147q2.0782,6.1416,4.6418,12.0481,1.0632,2.4624,2.206,4.8813a159.9529,159.9529,0,0,0,16.5319,27.4844q3.4551,4.62,7.23,8.9775,2.5147,2.9029,5.1646,5.6824c1.33,1.3948,2.6925,2.7576,4.0716,4.1038,1.368,1.3354,2.752,2.6545,4.1671,3.9406q4.2619,3.8737,8.7983,7.44,3.0224,2.3748,6.16,4.6067,1.5686,1.1151,3.1646,2.1936,3.1919,2.1563,6.4917,4.1616,4.9482,3.0069,10.1255,5.66c1.9338.99,3.8955,1.9336,5.8737,2.8467,1.551.7158,3.11,1.4165,4.6873,2.0835q7.1784,3.0363,14.7,5.38,3.7575,1.169,7.5925,2.1562a159.446,159.446,0,0,0,23.6275,4.2109A161.8341,161.8341,0,0,0,192,472.5161h28V422.9678a194.8052,194.8052,0,0,1,15.4174-76.303c.1781-.4211.3678-.8357.5487-1.2554A159.9474,159.9474,0,0,0,96,262.9678Z" class="cls-2"/>
  <path d="M416,262.9678a160.0155,160.0155,0,0,0-145.2688,92.8745q-.6159,1.3311-1.2079,2.6753A159.43,159.43,0,0,0,256,422.9678v49.5483h64a161.8341,161.8341,0,0,0,16.3591-.8262,159.51,159.51,0,0,0,19.7748-3.271q3.8708-.8936,7.6681-1.9726t7.5147-2.3369A159.7342,159.7342,0,0,0,421.7749,435.98q4.4451-3.6684,8.6155-7.645,2.7785-2.6493,5.4284-5.4285,3.9738-4.1679,7.6451-8.6155a159.732,159.732,0,0,0,28.1294-50.4582q1.2579-3.7175,2.3369-7.5147t1.9726-7.6682a159.5058,159.5058,0,0,0,3.271-19.7747A161.8282,161.8282,0,0,0,480,312.5161V262.9678Z" class="cls-2"/>
</svg>
