<svg xmlns="http://www.w3.org/2000/svg" id="export" viewBox="0 0 512 512">
  <defs>
    <style>
      .cls-2{fill:currentColor}
    </style>
  </defs>
  <path fill="currentColor" d="M453,256a29.0334,29.0334,0,0,0-29-29H277V168H235v59H88a29.0334,29.0334,0,0,0-29,29v64h42V269H235v51h42V269H411v51h42Z" opacity=".25"/>
  <path d="M120,320H40a24,24,0,0,0-24,24v72a24,24,0,0,0,24,24h80a24,24,0,0,0,24-24V344A24,24,0,0,0,120,320Z" class="cls-2"/>
  <path d="M472,320H392a24,24,0,0,0-24,24v72a24,24,0,0,0,24,24h80a24,24,0,0,0,24-24V344A24,24,0,0,0,472,320Z" class="cls-2"/>
  <path d="M296,320H216a24,24,0,0,0-24,24v72a24,24,0,0,0,24,24h80a24,24,0,0,0,24-24V344A24,24,0,0,0,296,320Z" class="cls-2"/>
  <path d="M304,48H208a24,24,0,0,0-24,24v72a24,24,0,0,0,24,24h96a24,24,0,0,0,24-24V72A24,24,0,0,0,304,48Z" class="cls-2"/>
</svg>
