<svg xmlns="http://www.w3.org/2000/svg" id="export" viewBox="0 0 512 512">
  <defs>
    <style>
      .cls-2{fill:currentColor;opacity:.25}
    </style>
  </defs>
  <path fill="currentColor" d="M487.938,162.1079l-224-128a16.0007,16.0007,0,0,0-15.876,0l-224,128a16,16,0,0,0,.3823,27.9956l224,120a15.9993,15.9993,0,0,0,15.1114,0l224-120a16,16,0,0,0,.3823-27.9956Z"/>
  <path d="M32,320.7334v47.6l214.1177,114.196a20.999,20.999,0,0,0,19.7646,0L480,368.3333v-47.6L256,440.2Z" class="cls-2"/>
  <path d="M32,232.8335v47.933L245.88,398.4a20.9983,20.9983,0,0,0,20.24,0L480,280.7665v-47.933l-224,123.2Z" class="cls-2"/>
</svg>
