<svg xmlns="http://www.w3.org/2000/svg" id="export" viewBox="0 0 512 512">
  <defs>
    <style>
      .cls-2{fill:currentColor}
    </style>
  </defs>
  <polygon fill="currentColor" points="430.673 152 277 152 277 16 235 16 235 72 81.327 72 16 137.971 16 166.627 81.373 232 235 232 235 496 277 496 277 312 430.627 312 496 246.627 496 217.971 430.673 152" opacity=".25"/>
  <polygon points="430.673 152 277 152 277 312 430.627 312 496 246.627 496 217.971 430.673 152" class="cls-2"/>
  <polygon points="81.327 72 16 137.971 16 166.627 81.373 232 235 232 235 72 81.327 72" class="cls-2"/>
</svg>
