<svg xmlns="http://www.w3.org/2000/svg" id="export" viewBox="0 0 512 512">
  <defs>
    <style>
      .cls-1,.cls-2{fill:currentColor}.cls-1{opacity:.25}
    </style>
  </defs>
  <path d="M199.1484,358.2334l6.001-6.5977V324.3618L132.5044,171H91.4956L18.8506,324.3618v28.4317l5.5581,6.03A118.721,118.721,0,0,0,111.5112,397c.1314,0,.2691,0,.4-.001A118.7239,118.7239,0,0,0,199.1484,358.2334Z" class="cls-1"/>
  <path d="M420.5044,171H379.4956l-72.645,153.3618v28.4317l5.5581,6.03A118.721,118.721,0,0,0,399.5112,397c.1314,0,.2691,0,.4-.001a118.7239,118.7239,0,0,0,87.2368-38.7656l6.001-6.5977V324.3618Z" class="cls-1"/>
  <path d="M36.5483,287,18.8506,324.3618v28.4317l5.5581,6.03A118.721,118.721,0,0,0,111.5112,397c.1314,0,.2691,0,.4-.001a118.7239,118.7239,0,0,0,87.2368-38.7656l6.001-6.5977V324.3618L187.4517,287Z" class="cls-2"/>
  <path d="M324.5483,287l-17.6977,37.3618v28.4317l5.5581,6.03A118.721,118.721,0,0,0,399.5112,397c.1314,0,.2691,0,.4-.001a118.7239,118.7239,0,0,0,87.2368-38.7656l6.001-6.5977V324.3618L475.4517,287Z" class="cls-2"/>
  <circle cx="256" cy="120" r="67" class="cls-1"/>
  <path d="M277,183.6237a66.9963,66.9963,0,0,1-42,0V435H128v42H384V435H277Z" class="cls-2"/>
  <path d="M189,120a66.8985,66.8985,0,0,1,3.3763-21H96v42h96.3763A66.8985,66.8985,0,0,1,189,120Z" class="cls-2"/>
  <path d="M319.6237,99a66.9963,66.9963,0,0,1,0,42H416V99Z" class="cls-2"/>
  <circle cx="256" cy="120" r="30" class="cls-2"/>
</svg>
