<svg xmlns="http://www.w3.org/2000/svg" id="export" viewBox="0 0 512 512">
  <defs>
    <style>
      .cls-1,.cls-2{fill:currentColor}.cls-2{opacity:.25}
    </style>
  </defs>
  <path d="M210.56,152.81l.13-.06a8,8,0,0,1,8.84,1.4l29.79,32L142.38,280.48c3.31-.31,6.88-.48,10.76-.48,22.47,0,34.65,5.68,44.43,10.25,7.42,3.46,12.32,5.75,24.14,5.75a50,50,0,0,0,13.68-1.57l63-55.62,52.95,56.8a65.18,65.18,0,0,0,7.47.39c11.82,0,16.72-2.29,24.14-5.75a101.24,101.24,0,0,1,21.64-7.9L254.26,121l-.59-.61a56.15,56.15,0,0,0-63.2-11.18l-80.49,37,20,43.62Z" class="cls-1"/>
  <circle cx="368" cy="136" r="48" class="cls-1"/>
  <path d="M427.42,416c-22.46,0-34.64,5.68-44.43,10.25-7.42,3.46-12.32,5.75-24.14,5.75s-16.72-2.29-24.14-5.75c-9.79-4.57-22-10.25-44.43-10.25s-34.65,5.68-44.44,10.25c-7.41,3.46-12.31,5.75-24.13,5.75s-16.72-2.29-24.14-5.75c-9.78-4.57-22-10.25-44.43-10.25s-34.65,5.68-44.43,10.25c-7.42,3.46-12.32,5.75-24.14,5.75s-16.72-2.29-24.14-5.75C50.65,421.68,38.47,416,16,416v48c11.82,0,16.72,2.29,24.14,5.75,9.78,4.57,22,10.25,44.43,10.25s34.65-5.68,44.43-10.25c7.42-3.46,12.32-5.75,24.14-5.75s16.72,2.29,24.13,5.75c9.79,4.57,22,10.25,44.44,10.25s34.64-5.68,44.43-10.25c7.42-3.46,12.32-5.75,24.14-5.75s16.72,2.29,24.13,5.75c9.79,4.57,22,10.25,44.44,10.25s34.65-5.68,44.44-10.25c7.41-3.46,12.31-5.75,24.13-5.75s16.73,2.29,24.14,5.75c9.79,4.57,22,10.25,44.44,10.25V432c-11.82,0-16.72-2.29-24.14-5.75C462.07,421.68,449.89,416,427.42,416Z" class="cls-2"/>
  <path d="M471.86,330.25c-9.79-4.57-22-10.25-44.44-10.25s-34.64,5.68-44.43,10.25c-7.42,3.46-12.32,5.75-24.14,5.75s-16.72-2.29-24.14-5.75c-9.79-4.57-22-10.25-44.43-10.25s-34.65,5.68-44.44,10.25c-7.41,3.46-12.31,5.75-24.13,5.75s-16.72-2.29-24.14-5.75c-9.78-4.57-22-10.25-44.43-10.25s-34.65,5.68-44.43,10.25c-7.42,3.46-12.32,5.75-24.14,5.75s-16.72-2.29-24.14-5.75C50.65,325.68,38.47,320,16,320v48c11.82,0,16.72,2.29,24.14,5.75,9.78,4.57,22,10.25,44.43,10.25s34.65-5.68,44.43-10.25c7.42-3.46,12.32-5.75,24.14-5.75s16.72,2.29,24.13,5.75c9.79,4.57,22,10.25,44.44,10.25s34.64-5.68,44.43-10.25c7.42-3.46,12.32-5.75,24.14-5.75s16.72,2.29,24.13,5.75c9.79,4.57,22,10.25,44.44,10.25s34.65-5.68,44.44-10.25c7.41-3.46,12.31-5.75,24.13-5.75s16.73,2.29,24.14,5.75c9.79,4.57,22,10.25,44.44,10.25V336C484.18,336,479.28,333.71,471.86,330.25Z" class="cls-2"/>
</svg>
