<svg xmlns="http://www.w3.org/2000/svg" id="export" viewBox="0 0 512 512">
  <defs>
    <style>
      .cls-2{fill:currentColor}
    </style>
  </defs>
  <path d="M256,104C132.2882,104,32,204.2881,32,328v72H174a81.8623,81.8623,0,0,1,29.4427-62.8961C217.6842,325.1836,338,373.97,338,400H480V328C480,204.2881,379.7118,104,256,104ZM120,352H80V312h40Zm48-112H128V200h40Zm112-48H240V152h40ZM432,352H392V312h40Z" class="cls-2" opacity=".25"/>
  <path d="M306.821,335.7192l61.4065-127.93-32.455-15.5782L274.384,320.1035a82.1784,82.1784,0,1,0,32.437,15.6157ZM256,446a46,46,0,0,1,0-92c.7,0,1.3955.022,2.0883.0527A45.9973,45.9973,0,0,1,256,446Z" class="cls-2"/>
</svg>
