<svg xmlns="http://www.w3.org/2000/svg" id="export" viewBox="0 0 512 512">
  <defs>
    <style>
      .cls-1{fill:currentColor}
    </style>
  </defs>
  <path d="M357,173V480H472a24.0275,24.0275,0,0,0,24-24V173H357Z" class="cls-1"/>
  <path fill="currentColor" d="M472,32H40A24.0275,24.0275,0,0,0,16,56v75H496V56A24.0275,24.0275,0,0,0,472,32Z" opacity=".25"/>
  <polygon points="189 448 189 480 315 480 315 448 315 173 189 173 189 448" class="cls-1"/>
  <path d="M16,173V456a24.0275,24.0275,0,0,0,24,24H147V173H16Z" class="cls-1"/>
</svg>
