<svg xmlns="http://www.w3.org/2000/svg" id="export" viewBox="0 0 512 512">
  <defs>
    <style>
      .cls-1{fill:currentColor}
    </style>
  </defs>
  <path d="M298.42,122.28A29.52,29.52,0,0,0,303,106.49V64.21A47.11,47.11,0,0,0,256,17h0a47.11,47.11,0,0,0-47,47.21V106.5a29.48,29.48,0,0,0,4.58,15.78L229,150h54Z" class="cls-1"/>
  <polygon points="216 496 296 496 315 342 197 342 216 496" class="cls-1"/>
  <path fill="currentColor" d="M315,153.8a63.74,63.74,0,0,0-21.72-3.8H218.72a64,64,0,0,0-63.94,66.66L160,342H352l5.22-125.34A64,64,0,0,0,315,153.8Z" opacity=".25"/>
</svg>
