<svg xmlns="http://www.w3.org/2000/svg" id="export" viewBox="0 0 512 512">
  <defs>
    <style>
      .cls-1,.cls-2{fill:currentColor}.cls-2{opacity:.25}
    </style>
  </defs>
  <path d="M487.938,162.1079l-224-128a16.0007,16.0007,0,0,0-15.876,0L160.7173,84.019,343.8091,267.1107l143.7466-77.0072a16,16,0,0,0,.3823-27.9956Z" class="cls-1"/>
  <polygon points="400.945 324.247 480 280.766 480 232.833 370.021 293.322 400.945 324.247" class="cls-2"/>
  <polygon points="457.195 380.496 480 368.333 480 320.733 426.151 349.453 457.195 380.496" class="cls-2"/>
  <path d="M32,232.8335v47.933L245.88,398.4a20.9983,20.9983,0,0,0,20.24,0l65.7515-36.1635L300.947,331.3123,256,356.0332Z" class="cls-2"/>
  <path d="M256,440.2,32,320.7332v47.6L246.1172,482.5293a21.0009,21.0009,0,0,0,19.7656,0l121.4878-64.7935-31.0435-31.0435Z" class="cls-2"/>
  <path d="M45.699,16.6667H16V46.3652l76.5862,76.5862L24.062,162.1079a16,16,0,0,0,.3823,27.9956l224,120a15.9993,15.9993,0,0,0,15.1114,0l10.5376-5.645L466.3015,496.6667H496V466.9678Z" class="cls-1"/>
</svg>
