<svg xmlns="http://www.w3.org/2000/svg" id="export" viewBox="0 0 512 512">
  <defs>
    <style>
      .cls-1{fill:currentColor}
    </style>
  </defs>
  <path d="M480.4648,91.022,362,57.8851v385.162l110.6123,30.9407A20,20,0,0,0,498,454.7275V114.1353A24.0807,24.0807,0,0,0,480.4648,91.022Z" class="cls-1"/>
  <polygon fill="currentColor" points="186.5 475.434 326 436.138 326 50.959 186.5 90.255 186.5 475.434" opacity=".25"/>
  <path d="M43.457,52.0513A20.0007,20.0007,0,0,0,18,71.2925V411.8882a24.0951,24.0951,0,0,0,17.4492,23.0889L150.5,467.6155V82.4185L43.459,52.0518Zm-8.73,30.7861-.001-.0005.0342.01Z" class="cls-1"/>
</svg>
