<svg xmlns="http://www.w3.org/2000/svg" id="export" viewBox="0 0 512 512">
  <defs>
    <style>
      .cls-1{fill:currentColor;opacity:.25}
    </style>
  </defs>
  <path d="M488,96S344.73,78.07,272,16H240c-25.68,21.92-60.16,38.33-94,50.39L433.27,353.68C475.23,275.59,488,180,488,96Z" class="cls-1"/>
  <path d="M24,96c0,154.47,43.2,348.51,232,400,56-15.28,99.21-43.1,132.27-78.72L60.68,89.7C38.54,94.18,24,96,24,96Z" class="cls-1"/>
  <polygon fill="currentColor" points="414.64 384.25 46.38 16 46.27 16 16 16 16 45.01 60.68 89.7 388.27 417.28 466.99 496 496 496 496 467.31 496 465.62 414.64 384.25"/>
</svg>
