<svg xmlns="http://www.w3.org/2000/svg" viewBox="0 0 512 512">
  <path fill="currentColor" d="M249.25,16c-44.45-.27-86.69,17.2-119,49.31S80.06,139.58,80.06,184H80c0,120,86.52,98.5,86.52,201.7v20.82A89.48,89.48,0,0,0,256,496h1.07A106.5,106.5,0,0,0,363.58,389.49V299.87A165.67,165.67,0,0,0,413.5,180.44C413,90.41,339.28,16.64,249.25,16Z" opacity=".25"/>
  <path fill="currentColor" d="M302.38,102.82c-15.28-15-35.94-23-58.19-22.64A78.26,78.26,0,0,0,189,104.29,79.84,79.84,0,0,0,166.52,160V271.22L180.8,285.5c21.64,21.64,33.56,44.59,33.56,75.2v25h42.57v-25h-.57c0-41.83-16.29-75.32-45.86-104.9l-2-2V160c0-20.49,16.34-37.46,36.44-37.83,10.89-.2,20.82,3.58,28,10.62a33.35,33.35,0,0,1,10,24.38h42A75.49,75.49,0,0,0,302.38,102.82Z"/>
</svg>
