<svg xmlns="http://www.w3.org/2000/svg" id="export" viewBox="0 0 512 512">
  <defs>
    <style>
      .cls-1{fill:currentColor}
    </style>
  </defs>
  <path d="M252.9222,369.3611a52.0062,52.0062,0,0,1-50.7544-40.7577L175.4535,208H32a16,16,0,0,0-16,16V480a16,16,0,0,0,16,16H288a16,16,0,0,0,16-16V359.3074l-39.8174,8.82A52.1614,52.1614,0,0,1,252.9222,369.3611ZM115.81,448H72V404.19h43.81Zm0-140.19H72V264h43.81Zm70.0953,70.0952h-43.81v-43.81h43.81ZM256,448h-43.81V404.19H256Z" class="cls-1"/>
  <path fill="currentColor" d="M495.6179,263.6025,445.3231,36.5432l-.0017-.0061c-.1118-.504-.25-.9951-.4061-1.4766-.0513-.1585-.114-.3106-.17-.4665-.1149-.3207-.2337-.6392-.3673-.9486-.0761-.1763-.16-.3474-.2422-.52-.1329-.28-.2708-.5557-.4187-.8249-.0946-.1723-.1927-.3417-.2932-.51q-.2333-.39-.4881-.7635c-.1073-.1582-.2144-.3168-.3271-.4705-.1862-.2542-.3829-.4991-.5831-.7408-.11-.1328-.2159-.2692-.33-.3981-.2507-.2835-.5144-.5538-.7836-.818-.0751-.0736-.1447-.1533-.2211-.2254q-.5257-.4961-1.0935-.9413c-.1-.0788-.2068-.1484-.3086-.2246-.283-.2118-.5694-.419-.8656-.6116-.1478-.0962-.3009-.1838-.4518-.275-.2617-.1583-.5258-.3125-.7963-.4557-.1676-.0887-.3381-.1719-.5089-.2547q-.4-.1936-.81-.3655c-.1765-.0739-.3537-.1461-.533-.2137-.2834-.1067-.5712-.2022-.8609-.2929-.1741-.0544-.347-.112-.5232-.1606-.3258-.09-.6568-.1634-.9892-.2326-.1451-.03-.2879-.068-.4341-.0942-.48-.086-.9644-.1528-1.4544-.1944-.0691-.0059-.14-.004-.2091-.009-.4164-.03-.8354-.0456-1.2572-.0424-.37.0028-.7438.0319-1.1172.0608-.1847.0144-.3681.016-.5533.0369a16.15,16.15,0,0,0-1.6814.2773l-.0024,0-41.1745,9.12L199.1822,74.6769a15.9223,15.9223,0,0,0-9.0068,5.6059c-.1388.1729-.2684.3518-.4.53a14.9271,14.9271,0,0,0-2.35,4.5846,15.8708,15.8708,0,0,0-.7852,5.1423,16.0652,16.0652,0,0,0,.38,3.2185L212.3261,208h0l24.99,112.8179a15.9821,15.9821,0,0,0,19.0816,12.1611L304,322.4348l179.4568-39.7507a16.06,16.06,0,0,0,3.0779-1.0147,15.8851,15.8851,0,0,0,3.9505-2.52q.5841-.5079,1.1147-1.0677c.0491-.0519.0913-.11.14-.1623a16.3092,16.3092,0,0,0,2.9482-4.5559q.1981-.46.3661-.9331a15.6966,15.6966,0,0,0,.5641-8.8279Z" opacity=".25"/>
  <rect width="42.765" height="42.765" x="400.398" y="207.121" class="cls-1" transform="rotate(-12.49 421.78 228.503)"/>
  <rect width="42.765" height="42.765" x="318.796" y="155.114" class="cls-1" transform="rotate(-12.49 340.178 176.496)"/>
  <rect width="42.765" height="42.765" x="237.193" y="103.107" class="cls-1" transform="rotate(-12.49 258.576 124.49)"/>
</svg>
