<svg xmlns="http://www.w3.org/2000/svg" id="export" viewBox="0 0 512 512">
  <defs>
    <style>
      .cls-2{fill:currentColor}
    </style>
  </defs>
  <path fill="currentColor" d="M440,16H72A56.06,56.06,0,0,0,16,72V456a16,16,0,0,0,16,16H480a16,16,0,0,0,16-16V72A56.06,56.06,0,0,0,440,16Z" opacity=".25"/>
  <polygon points="292.04 136 268.04 64 211.97 64 235.97 136 292.04 136" class="cls-2"/>
  <polygon points="398.7 136 374.7 64 318.63 64 342.63 136 398.7 136" class="cls-2"/>
  <polygon points="185.37 136 161.37 64 105.3 64 129.3 136 185.37 136" class="cls-2"/>
</svg>
