<svg xmlns="http://www.w3.org/2000/svg" id="export" viewBox="0 0 512 512">
  <defs>
    <style>
      .cls-2{fill:currentColor}
    </style>
  </defs>
  <path fill="currentColor" d="M472,30H152a26.0292,26.0292,0,0,0-26,26v65h36V66H462V337.1426H408v36h64a26.0292,26.0292,0,0,0,26-26V56A26.0292,26.0292,0,0,0,472,30Z" opacity=".25"/>
  <path d="M16.2476,264.22V458a24.0275,24.0275,0,0,0,24,24H352a24.0275,24.0275,0,0,0,24-24V264.22Z" class="cls-2"/>
  <path d="M352,153H40.2476a24.0275,24.0275,0,0,0-24,24v51.22H376V177A24.0275,24.0275,0,0,0,352,153Z" class="cls-2"/>
</svg>
