<svg xmlns="http://www.w3.org/2000/svg" id="export" viewBox="0 0 512 512">
  <defs>
    <style>
      .cls-1,.cls-2{fill:currentColor}.cls-2{opacity:.25}
    </style>
  </defs>
  <rect width="203.65" height="48" x="130.18" y="240" class="cls-1" transform="rotate(-45 232 263.993)"/>
  <path d="M369,264.69A99.38,99.38,0,0,0,228.4,124.22l-51.12,51.12,33.94,33.94,51.12-51.12A51.38,51.38,0,0,1,335,230.82l-80.37,81.76c-20.67,21-55.34,64.25-55.34,117.46v66h48V430c0-26.38,15.15-56.93,41.57-83.81Z" class="cls-1"/>
  <path d="M174.11,246.38l3.17-3.16-33.94-33.94-3.17,3.16c-27.63,27.63-61.69,42.85-95.9,42.85H16v48H44.27C91.3,303.29,137.42,283.08,174.11,246.38Z" class="cls-1"/>
  <path d="M72,335.11H16v48H72a48.05,48.05,0,0,1,48,48v64h48v-64A96.11,96.11,0,0,0,72,335.11Z" class="cls-2"/>
  <path d="M341.7,341.47c-18.24,19.2-32.64,34.36-41.77,57.77C291.34,421.24,288,448.36,288,496h48c0-78.84,7.78-87,40.5-121.47l5.89-6.2-33.95-33.95Z" class="cls-2"/>
  <path d="M340.11,17.26V65.81A112.19,112.19,0,0,1,432,176a175.62,175.62,0,0,1-48.5,121.47l-2,2.1,33.95,33.95,2.84-3A223.43,223.43,0,0,0,480,176C480,94.58,418.87,27.18,340.11,17.26Z" class="cls-2"/>
  <path d="M154.62,155.83l44.51-43a173,173,0,0,1,93-46.61V17.74A220.8,220.8,0,0,0,165.78,78.31l-44.86,43.34-.73.73A144.3,144.3,0,0,1,16,167.11v48A192.54,192.54,0,0,0,154.62,155.83Z" class="cls-2"/>
</svg>
