<svg xmlns="http://www.w3.org/2000/svg" viewBox="0 0 512 512">
  <path fill="currentColor" d="M471,112.2319H368.3936l.05-95.87h-214.22l-.05,95.87H41A24.7961,24.7961,0,0,0,16.2319,137v61.776l33.5362,33.5363L95.4556,278H238V232.5h36V278H416.5444l45.6875-45.6877,33.5362-33.5363V137A24.7961,24.7961,0,0,0,471,112.2319Zm-144.6063,0H196.174l.0281-53.87h130.22Z" opacity=".25"/>
  <path fill="currentColor" d="M431.4561,314H274v46H238V314H80.5439L49.7681,283.2241,16.2319,249.688V471.0327A24.7961,24.7961,0,0,0,41,495.8008H471a24.7961,24.7961,0,0,0,24.7681-24.7681V249.688l-33.5362,33.5361Z"/>
</svg>
