<svg xmlns="http://www.w3.org/2000/svg" id="export" viewBox="0 0 512 512">
  <defs>
    <style>
      .cls-1{fill:currentColor;opacity:.25}
    </style>
  </defs>
  <path d="M336.22,226l37.41,30a140.34,140.34,0,0,0-.19-176.29L336.1,109.86A92.45,92.45,0,0,1,336.22,226Z" class="cls-1"/>
  <path d="M438.37,27.38,400.93,57.57a175.61,175.61,0,0,1,.24,220.57l37.5,30.11a224,224,0,0,0-.3-280.87Z" class="cls-1"/>
  <path fill="currentColor" d="M354.19,373.16l-99.86-63.1,38.41-60.37A71.92,71.92,0,0,0,304,211V120a104,104,0,0,0-208,0v91a71.92,71.92,0,0,0,11.26,38.66l38.41,60.37-99.86,63.1A64,64,0,0,0,16,427.26v69.31L384,496V427.26A64,64,0,0,0,354.19,373.16Z"/>
</svg>
