<svg xmlns="http://www.w3.org/2000/svg" id="export" viewBox="0 0 512 512">
  <defs>
    <style>
      .cls-1{fill:currentColor}.cls-3{fill:none}
    </style>
  </defs>
  <path d="M494.61,230.17h0a1.49,1.49,0,0,1,0,.21A1.49,1.49,0,0,0,494.61,230.17Z" class="cls-1"/>
  <circle cx="256" cy="256" r="240" fill="currentColor" opacity=".25"/>
  <path d="M289,100.89c-14.38,28.1-42.32,49.24-69.33,69.69-53.83,40.74-85.4,69.5-70,125.36,6.09,22.05,24.79,41.19,25,41.38s19.28,18.86,41.38,25c26.92,7.44,48.78,4.27,68.81-10,19.41-13.81,35.63-36.64,51.31-58.73,19-26.75,38.63-54.41,65.78-68.6,27.81-14.55,58.27-12.87,92.65,5.2C482.93,121,398,33.64,289.83,18.39,302.36,48.18,302.05,75.39,289,100.89Z" class="cls-3"/>
  <path d="M421.42,262.19c-18.21,9.53-34.13,32-51,55.71-17.7,24.93-36,50.71-61.21,68.64-20.4,14.52-42.33,21.73-66.34,21.73a142.54,142.54,0,0,1-38-5.49c-33-9.12-58.8-34.68-59.89-35.76s-26.64-26.93-35.76-59.89c-10.86-39.3-5.54-73.8,16.27-105.48,17.91-26,43.8-45.62,68.83-64.56C250,95,275.9,71.64,241.6,16.44,115.76,23.89,16,128.29,16,256c0,132.55,107.45,240,240,240,124.63,0,227.06-95,238.86-216.54l-5.46-3.58C452.16,251.22,432.77,256.26,421.42,262.19Z" class="cls-3"/>
  <path d="M494.61,230.18c-34.38-18.07-64.84-19.75-92.65-5.2-27.15,14.19-46.79,41.85-65.78,68.6-15.68,22.09-31.9,44.92-51.31,58.73-20,14.25-41.89,17.42-68.81,10-22.1-6.11-41.23-24.83-41.38-25s-18.88-19.33-25-41.38c-15.44-55.86,16.13-84.62,70-125.36,27-20.45,55-41.59,69.33-69.69,13.05-25.5,13.36-52.71.83-82.5A241.85,241.85,0,0,0,256,16c-4.84,0-9.64.16-14.4.44C275.9,71.64,250,95,194.32,137.09c-25,18.94-50.92,38.53-68.83,64.56-21.81,31.68-27.13,66.18-16.27,105.48,9.12,33,34.68,58.8,35.76,59.89s26.93,26.64,59.89,35.76a142.54,142.54,0,0,0,38,5.49c24,0,45.94-7.21,66.34-21.73,25.2-17.93,43.51-43.71,61.21-68.64,16.87-23.75,32.79-46.18,51-55.71,11.35-5.93,30.74-11,68,13.69l5.46,3.58Q496,267.88,496,256A242,242,0,0,0,494.61,230.18Z" class="cls-1"/>
</svg>
