<svg xmlns="http://www.w3.org/2000/svg" id="export" viewBox="0 0 512 512">
  <defs>
    <style>
      .cls-1{fill:currentColor}.cls-2{fill:none}
    </style>
  </defs>
  <polygon points="304 282.954 208 378.954 208 400 186.954 400 168 400 168 418.954 168 432 344 432 344 400 304 400 304 282.954" class="cls-1"/>
  <polygon points="304 120 304 178.301 362.301 120 304 120" class="cls-2"/>
  <path d="M424,117.6992l63.4722-63.4721q4.22,4.6371,8.5278,9.19V45.6987l-72,72Z" class="cls-2"/>
  <polygon points="72 88 72 168 104 168 136 168 136 120 208 120 208 274.301 304 178.301 304 120 362.301 120 394.301 88 72 88" class="cls-1"/>
  <polygon fill="currentColor" points="466.301 16 394.301 88 362.301 120 304 178.301 208 274.301 16 466.301 16 496 45.699 496 304 237.699 496 45.699 496 16 466.301 16" opacity=".25"/>
  <path fill="#fff" d="M496,63.4166V80h10.9543l2.63-2.63Q502.6658,70.5157,496,63.4166Z"/>
</svg>
