<svg xmlns="http://www.w3.org/2000/svg" viewBox="0 0 512 512">
  <path fill="currentColor" d="M272,16H240C167.27,78.07,24,96,24,96c0,154.47,43.2,348.51,232,400C444.8,444.51,488,250.47,488,96,488,96,344.73,78.07,272,16Z" opacity=".25"/>
  <path fill="currentColor" d="M390.44,141C336,126.19,291,107,256,83.84,221,107,176,126.19,121.56,141c-11.16,3-21.81,5.65-31.63,7.86,4.57,61.27,17.26,115.48,37.34,158.84C155.59,368.85,197.81,408.69,256,429c58.19-20.34,100.41-60.18,128.73-121.31,20.08-43.36,32.77-97.57,37.34-158.84C412.25,146.67,401.6,144.06,390.44,141Z"/>
</svg>
