<svg xmlns="http://www.w3.org/2000/svg" xmlns:xlink="http://www.w3.org/1999/xlink" width="196.727" height="220" viewBox="0 0 196.727 220"><defs><style>.a{fill:url(#a);}</style><linearGradient id="a" x1="0.5" y1="0.465" x2="0.5" y2="1" gradientUnits="objectBoundingBox"><stop offset="0" stop-color="#fff"/><stop offset="1" stop-color="#c8d2dc"/></linearGradient></defs><path class="a" d="M217.155,78.529,141.936,35.1a23.144,23.144,0,0,0-23.144,0L43.572,78.528A23.21,23.21,0,0,0,32,98.572v86.856a23.209,23.209,0,0,0,11.572,20.044L118.791,248.9a23.144,23.144,0,0,0,23.144,0l75.219-43.428a23.209,23.209,0,0,0,11.572-20.044V98.572a23.209,23.209,0,0,0-11.572-20.044Z" transform="translate(-32 -32)"/></svg>