<svg xmlns="http://www.w3.org/2000/svg" viewBox="0 0 512 512">
  <defs>
    <style>
      .ci-primary {
        fill: currentColor;
      }
    </style>
  </defs>
  <path class="ci-primary" d="M472,80H40a24.028,24.028,0,0,0-24,24V344a24.028,24.028,0,0,0,24,24H472a24.028,24.028,0,0,0,24-24V104A24.028,24.028,0,0,0,472,80Zm-8,256H48V112H464Z"/>
  <rect class="ci-primary" x="144" y="272" width="160" height="32"/>
  <rect class="ci-primary" x="80" y="272" width="32" height="32"/>
  <rect class="ci-primary" x="400" y="272" width="32" height="32"/>
  <rect class="ci-primary" x="336" y="272" width="32" height="32"/>
  <rect class="ci-primary" x="368" y="208" width="32" height="32"/>
  <rect class="ci-primary" x="304" y="208" width="32" height="32"/>
  <rect class="ci-primary" x="240" y="208" width="32" height="32"/>
  <rect class="ci-primary" x="176" y="208" width="32" height="32"/>
  <rect class="ci-primary" x="112" y="208" width="32" height="32"/>
  <rect class="ci-primary" x="336" y="144" width="32" height="32"/>
  <rect class="ci-primary" x="400" y="144" width="32" height="32"/>
  <rect class="ci-primary" x="272" y="144" width="32" height="32"/>
  <rect class="ci-primary" x="208" y="144" width="32" height="32"/>
  <rect class="ci-primary" x="144" y="144" width="32" height="32"/>
  <rect class="ci-primary" x="80" y="144" width="32" height="32"/>
</svg>
