<svg xmlns="http://www.w3.org/2000/svg" viewBox="0 0 512 512">
  <defs>
    <style>
      .ci-primary {
        fill: currentColor;
      }
    </style>
  </defs>
  <path class="ci-primary" d="M420,128.1V16H92V128.1A80.1,80.1,0,0,0,16,208V400H84V368H48V208a48.054,48.054,0,0,1,48-48H416a48.054,48.054,0,0,1,48,48V368H420v32h76V208A80.1,80.1,0,0,0,420,128.1Zm-32-.1H124V48H388Z"/>
  <rect class="ci-primary" x="396" y="200" width="32" height="32"/>
  <path class="ci-primary" d="M116,264H76v32h40V496H388V296h40V264H116ZM356,464H148V296H356Z"/>
</svg>
