<svg xmlns="http://www.w3.org/2000/svg" viewBox="0 0 512 512">
  <defs>
    <style>
      .ci-primary {
        fill: currentColor;
      }
    </style>
  </defs>
  <polygon class="ci-primary" points="48 48 176 48 176 16 16 16 16 176 48 176 48 48"/>
  <path class="ci-primary" d="M176,176V80H80v96h96Zm-64-64h32v32H112Z"/>
  <polygon class="ci-primary" points="328 48 464 48 464 176 496 176 496 16 328 16 328 48"/>
  <path class="ci-primary" d="M432,176V80H336v96h96Zm-64-64h32v32H368Z"/>
  <polygon class="ci-primary" points="176 464 48 464 48 336 16 336 16 496 176 496 176 464"/>
  <path class="ci-primary" d="M176,336H80v96h96V336Zm-32,64H112V368h32Z"/>
  <polygon class="ci-primary" points="464 464 328 464 328 496 496 496 496 336 464 336 464 464"/>
  <polygon class="ci-primary" points="272 304 400 304 400 368 432 368 432 272 272 272 272 304"/>
  <polygon class="ci-primary" points="432 432 432 400 240 400 240 272 80 272 80 304 208 304 208 432 432 432"/>
  <rect class="ci-primary" x="208" y="80" width="32" height="96"/>
  <polygon class="ci-primary" points="80 240 304 240 304 80 272 80 272 208 80 208 80 240"/>
  <rect class="ci-primary" x="336" y="208" width="96" height="32"/>
  <rect class="ci-primary" x="336" y="336" width="32" height="32"/>
  <rect class="ci-primary" x="272" y="336" width="32" height="32"/>
</svg>
