<svg xmlns="http://www.w3.org/2000/svg" viewBox="0 0 512 512">
  <defs>
    <style>
      .ci-primary {
        fill: currentColor;
      }
    </style>
  </defs>
  <path class="ci-primary" d="M495.24,267.592,445.066,41.083A32.038,32.038,0,0,0,406.9,16.76L180.393,66.934A32,32,0,0,0,156.071,105.1L177.092,200H48a32.036,32.036,0,0,0-32,32V464a32.036,32.036,0,0,0,32,32H280a32.036,32.036,0,0,0,32-32V340.957l158.917-35.2A32.038,32.038,0,0,0,495.24,267.592ZM280,464H48V232H184.181l22.063,99.606a32.031,32.031,0,0,0,31.18,25.092,32.3,32.3,0,0,0,6.984-.769l35.6-7.886L280.02,464ZM464,274.513,237.487,324.686,187.314,98.176,413.824,48l50.193,226.505Z"/>
  <rect class="ci-primary" x="80" y="264" width="40" height="40"/>
  <rect class="ci-primary" x="80" y="392" width="40" height="40"/>
  <rect class="ci-primary" x="208" y="392" width="40" height="40"/>
  <rect class="ci-primary" x="144" y="328" width="40" height="40"/>
  <rect class="ci-primary" x="229.329" y="117.7" width="40" height="40" transform="matrix(0.976, -0.216, 0.216, 0.976, -23.879, 57.179)"/>
  <rect class="ci-primary" x="381.981" y="214.989" width="40" height="40" transform="translate(-41.306 92.493) rotate(-12.489)"/>
  <rect class="ci-primary" x="305.655" y="166.345" width="40" height="40" transform="translate(-32.593 74.837) rotate(-12.49)"/>
</svg>
