<svg xmlns="http://www.w3.org/2000/svg" viewBox="0 0 512 512">
  <defs>
    <style>
      .ci-primary {
        fill: currentColor;
      }
    </style>
  </defs>
  <g>
    <polygon class="ci-primary" points="272 227.616 272 121.388 240 121.388 240 227.617 141.377 167.935 138.946 171.952 138.946 203.867 225.096 256 138.946 308.133 138.946 340.048 141.377 344.065 240 284.383 240 390.612 272 390.612 272 284.384 370.623 344.065 373.054 340.049 373.054 308.134 286.903 256 373.054 203.866 373.054 171.951 370.623 167.935 272 227.616"/>
    <path class="ci-primary" d="M425.8567,87.3789A239.3646,239.3646,0,1,0,87.344,425.8916,239.3646,239.3646,0,1,0,425.8567,87.3789ZM256.6,464C142.2591,464,49.2356,370.9766,49.2356,256.6357S142.2591,49.2705,256.6,49.2705s207.3652,93.0234,207.3652,207.3652S370.9417,464,256.6,464Z"/>
  </g>
</svg>
