<svg xmlns="http://www.w3.org/2000/svg" viewBox="0 0 512 512">
  <defs>
    <style>
      .ci-primary {
        fill: currentColor;
      }
    </style>
  </defs>
  <path class="ci-primary" d="M453.1216,79.0117a127.9988,127.9988,0,0,0-181.0869.0679L256.5239,94.7769,241.1421,79.1143l-.1016-.1026a127.9993,127.9993,0,0,0-181.019-.0005l-6.91,6.91a127.9987,127.9987,0,0,0,0,181.019L235.4854,449.3145,256.08,470.8916l.4912-.4912.5327.5327,19.2939-20.3594L460.0317,266.94a128.1456,128.1456,0,0,0,0-181.0185ZM437.4043,244.313,256.5713,425.1455,75.7383,244.313a96,96,0,0,1,0-135.7642l6.9106-6.91a95.9992,95.9992,0,0,1,135.7134-.05l38.0923,38.7871L294.73,101.6387a96,96,0,0,1,135.7646.0005l6.91,6.9091A96.11,96.11,0,0,1,437.4043,244.313Z"/>
</svg>
