<svg xmlns="http://www.w3.org/2000/svg" viewBox="0 0 512 512">
  <defs>
    <style>
      .ci-primary {
        fill: currentColor;
      }
    </style>
  </defs>
  <path class="ci-primary" d="M494,198.6713a40.539,40.539,0,0,0-32.175-27.5927L345.9167,152.2421,292.1845,47.8281a40.6946,40.6946,0,0,0-72.369,0l-53.7321,104.414L50.1759,171.0786a40.6947,40.6947,0,0,0-22.3635,68.8272l82.6994,83.368L92.6091,439.3291a40.672,40.672,0,0,0,58.5484,42.5375L256,428.9771l104.8431,52.89a40.69,40.69,0,0,0,58.5478-42.5376L401.4882,323.2738l82.6994-83.368A40.5386,40.5386,0,0,0,494,198.6713Zm-32.53,18.6983-94.068,94.8285,20.3639,132.01a8.6721,8.6721,0,0,1-12.5092,9.0885L256,393.1359l-119.2559,60.16a8.6721,8.6721,0,0,1-12.5092-9.0885l20.3639-132.01L50.5308,217.37a8.6948,8.6948,0,0,1,4.7782-14.7054L187.15,181.2382,248.2689,62.4706a8.6948,8.6948,0,0,1,15.4622,0L324.85,181.2382l131.8413,21.426A8.6947,8.6947,0,0,1,461.4692,217.37Z"/>
</svg>
