<svg xmlns="http://www.w3.org/2000/svg" viewBox="0 0 512 512">
  <defs>
    <style>
      .ci-primary {
        fill: currentColor;
      }
    </style>
  </defs>
  <path class="ci-primary" d="M256,16C123.452,16,16,123.452,16,256S123.452,496,256,496,496,388.548,496,256,388.548,16,256,16ZM403.078,403.078a207.253,207.253,0,1,1,44.589-66.125A207.332,207.332,0,0,1,403.078,403.078Z"/>
  <rect class="ci-primary" x="152" y="200" width="40" height="40"/>
  <rect class="ci-primary" x="320" y="200" width="40" height="40"/>
  <path class="ci-primary" d="M256,288a88.1,88.1,0,0,0-88,88h32a56,56,0,0,1,112,0h32A88.1,88.1,0,0,0,256,288Z"/>
</svg>
