<svg xmlns="http://www.w3.org/2000/svg" viewBox="0 0 512 512">
  <defs>
    <style>
      .ci-primary {
        fill: currentColor;
      }
    </style>
  </defs>
  <path class="ci-primary" d="M256,16C123.452,16,16,123.452,16,256S123.452,496,256,496,496,388.548,496,256,388.548,16,256,16ZM403.078,403.078a207.253,207.253,0,1,1,44.589-66.125A207.332,207.332,0,0,1,403.078,403.078Z"/>
  <path class="ci-primary" d="M256,280A104,104,0,0,0,152,384H360A104,104,0,0,0,256,280Z"/>
  <rect class="ci-primary" x="148" y="159.834" width="32.001" height="96.333" transform="translate(-100.417 192.387) rotate(-48.366)"/>
  <rect class="ci-primary" x="291.834" y="192" width="96.333" height="32" transform="translate(-41.345 323.93) rotate(-48.366)"/>
</svg>
