<svg xmlns="http://www.w3.org/2000/svg" viewBox="0 0 512 512">
  <defs>
    <style>
      .ci-primary {
        fill: currentColor;
      }
    </style>
  </defs>
  <path class="ci-primary" d="M256,16C123.452,16,16,123.452,16,256S123.452,496,256,496,496,388.548,496,256,388.548,16,256,16ZM403.078,403.078a207.253,207.253,0,1,1,44.589-66.125A207.332,207.332,0,0,1,403.078,403.078Z"/>
  <rect class="ci-primary" x="152" y="200" width="40" height="40"/>
  <rect class="ci-primary" x="320" y="200" width="40" height="40"/>
  <path class="ci-primary" d="M338.289,307.2A83.6,83.6,0,0,1,260.3,360H251.7a83.6,83.6,0,0,1-77.992-52.8l-1.279-3.2H137.968L144,319.081A116,116,0,0,0,251.7,392H260.3A116,116,0,0,0,368,319.081L374.032,304H339.568Z"/>
</svg>
