<svg xmlns="http://www.w3.org/2000/svg" viewBox="0 0 512 512">
  <defs>
    <style>
      .ci-primary {
        fill: currentColor;
      }
    </style>
  </defs>
  <rect class="ci-primary" x="144" y="240" width="32" height="32"/>
  <rect class="ci-primary" x="240" y="240" width="32" height="32"/>
  <rect class="ci-primary" x="336" y="240" width="32" height="32"/>
  <path class="ci-primary" d="M464,32H48A32.036,32.036,0,0,0,16,64V352a32.036,32.036,0,0,0,32,32h64V496h30.627l112-112H464a32.036,32.036,0,0,0,32-32V64A32.036,32.036,0,0,0,464,32Zm0,320H241.373L144,449.373V352H48V64H464Z"/>
</svg>
