<?xml version="1.0" standalone="no"?>
<!DOCTYPE svg PUBLIC "-//W3C//DTD SVG 1.1//EN" "http://www.w3.org/Graphics/SVG/1.1/DTD/svg11.dtd" >
<svg xmlns="http://www.w3.org/2000/svg">
<metadata>Generated by IcoMoon</metadata>
<defs>
<font id="CoreUI-Icons-Free" horiz-adv-x="1024">
<font-face units-per-em="1024" ascent="960" descent="-64" />
<missing-glyph horiz-adv-x="1024" />
<glyph unicode="&#x20;" horiz-adv-x="512" d="" />
<glyph unicode="&#xe900;" glyph-name="american-football" d="M946.549 844.396l-4.534 8.378-8.377 4.534c-99.938 54.087-224.107 69.025-349.632 42.067-127.696-27.425-247.573-94.3-346.67-193.398s-165.975-218.974-193.4-346.67c-26.959-125.527-12.020-249.696 42.067-349.633l4.534-8.377 8.377-4.534c67.444-36.5 145.903-55.17 228.39-55.17 42.999 0.087 84.836 4.856 125.091 13.823l-3.848-0.72c127.695 27.425 247.572 94.302 346.669 193.398s165.975 218.975 193.4 346.67c26.959 125.527 12.020 249.696-42.067 349.633zM894.709 805.467c39.56-77.716 51.68-167.613 38.796-259.051l-297.847 297.847c91.438 12.884 181.336 0.764 259.052-38.796zM137.844 48.602c-40.404 79.374-52.184 171.454-37.937 264.905l302.841-302.842c-93.451-14.248-185.531-2.467-264.904 37.936zM749.964 193.349v0c-80.868-80.868-176.223-137.177-273.322-166.067l-360.118 360.116c28.89 97.1 85.2 192.455 166.068 273.323 82.312 82.313 179.634 139.167 278.527 167.575l356.42-356.42c-28.408-98.892-85.262-196.215-167.575-278.527zM694.626 564.041l-45.252 45.252-41.374-41.372-57.374 57.372-45.252-45.252 57.372-57.374-50.746-50.746-57.374 57.372-45.252-45.252 57.372-57.374-50.746-50.746-57.374 57.372-45.252-45.252 57.372-57.374-41.372-41.374 45.252-45.252 41.374 41.372 57.374-57.372 45.252 45.252-57.372 57.374 50.746 50.746 57.374-57.372 45.252 45.252-57.372 57.374 50.746 50.746 57.374-57.372 45.252 45.252-57.372 57.374 41.372 41.374z" />
<glyph unicode="&#xe901;" glyph-name="3d" d="M887.367 679.951l-342.699 197.857c-9.184 5.374-20.221 8.548-32 8.548s-22.817-3.174-32.305-8.712l0.305 0.164-342.701-197.857c-19.239-11.299-31.96-31.872-31.999-55.42v-395.723c0.039-23.554 12.761-44.128 31.699-55.262l0.301-0.164 342.698-197.856c9.184-5.375 20.222-8.549 32.002-8.549s22.817 3.173 32.305 8.712l-0.305-0.164 342.702 197.858c19.238 11.298 31.958 31.872 31.998 55.419v395.722c-0.040 23.554-12.761 44.127-31.699 55.262l-0.301 0.164zM855.367 624.525v-354.756l-310.7 175.613v358.524zM169.967 624.525l310.7 179.382v-358.408l-310.7-175.612zM512.667 30.951l-314.309 181.466 314.206 177.596 314.31-177.655z" />
<glyph unicode="&#xe903;" glyph-name="aperture" d="M513.368 905.194c-264.322 0-478.597-214.276-478.597-478.597 0-132.161 53.569-251.81 140.178-338.419v0c86.609-86.609 206.258-140.178 338.419-140.178 264.322 0 478.597 214.275 478.597 478.597 0 132.161-53.569 251.81-140.178 338.419v0c-86.133 86.591-205.369 140.18-337.121 140.18-0.456 0-0.913-0.001-1.369-0.002h0.071zM927.965 426.597c0-0.147 0-0.32 0-0.494 0-68.892-16.906-133.836-46.797-190.908l1.082 2.268 26.98-46.665-55.406-32.033-10.151 17.558c-72.225-94.756-182.789-157.102-308.128-163.744l-1.031-0.044-27.182-47.532-55.557 31.771 10.507 18.374c-125.301 16.125-231.592 86.056-296.427 185.486l-0.977 1.598h-54.194v64h20.367c-20.41 47.33-32.28 102.432-32.28 160.307 0 69.687 17.21 135.354 47.611 192.983l-1.087-2.26-26.556 46.244 55.5 31.871 9.855-17.162c72.503 94.341 183.177 156.246 308.507 162.457l0.972 0.038 27.146 47.221 55.484-31.896-10.429-18.142c124.892-16.496 230.736-86.413 295.314-185.649l0.979-1.605h55.264v-64h-21.516c20.327-47.126 32.149-101.991 32.149-159.617 0-0.15 0-0.301 0-0.451v0.024zM917.332 650.641h-459.206l-36.792-64h185.114l-10.022 17.334 55.406 32.032 28.542-49.366h236.958v64zM651.832 636.007l-55.406-32.032 101.846-176.16 8.874 15.52 55.558-31.772-27.368-47.856 118.488-204.942 55.406 32.032-257.398 445.21zM762.704 411.563l-55.558 31.772-101.278-177.102h17.586v-64h-54.184l-117.494-205.458 55.556-31.772 255.372 446.56zM623.454 202.233v64h-202.78l9.614-16.74-55.5-31.872-27.916 48.612h-236.188v-64h512.77zM374.788 217.621l55.5 31.872-101.332 176.458-9.472-16.478-55.484 31.898 28.066 48.822-117.826 205.184-55.5-31.87 256.048-445.886zM264 441.371l55.484-31.898 256.722 446.564-55.486 31.896-256.72-446.562z" />
<glyph unicode="&#xe904;" glyph-name="airplane-mode" d="M953.514 263.067l26.658 133.291-340.172 170.086v144.445c0 0.079 0 0.172 0 0.265 0 64.87-29.371 122.881-75.54 161.459l-0.333 0.271c-14.013 11.743-32.237 18.876-52.127 18.876s-38.114-7.133-52.254-18.98l0.127 0.104c-46.502-38.849-75.873-96.859-75.873-161.729 0-0.093 0-0.186 0-0.279v0.014-144.445l-340.172-170.086 26.658-133.291 314.377 41.006 15.473-162.447-144.336-61.859v-133.1h512v133.1l-144.336 61.86 15.473 162.447zM704 37.565v-26.898h-384v26.898l148.477 63.635-20.477 214.987v60.664l-326.486-42.584-5.342 26.709 331.828 165.914v184c0 0.055 0 0.119 0 0.184 0 45.182 20.457 85.585 52.614 112.454l0.232 0.189c2.998 2.513 6.898 4.040 11.154 4.040s8.156-1.527 11.181-4.062l-0.027 0.022c32.389-27.057 52.846-67.461 52.846-112.642 0-0.065 0-0.129 0-0.194v0.010-184l331.828-165.914-5.342-26.709-326.486 42.584v-60.664l-20.477-214.987z" />
<glyph unicode="&#xe905;" glyph-name="airplane-mode-off" d="M448 710.89c0 0.055 0 0.119 0 0.184 0 45.182 20.457 85.585 52.614 112.453l0.232 0.189c2.998 2.513 6.897 4.040 11.153 4.040s8.155-1.527 11.181-4.062l-0.027 0.022c32.389-27.057 52.847-67.461 52.847-112.642 0-0.065 0-0.129 0-0.194v0.010-184l331.828-165.914-5.342-26.709-173.873 22.678 74.229-74.225 150.671-19.653 26.658 133.291-340.172 170.086v144.445c0 0.078 0 0.17 0 0.262 0 64.871-29.371 122.883-75.541 161.461l-0.333 0.271c-14.013 11.743-32.236 18.876-52.126 18.876s-38.113-7.133-52.253-18.979l0.127 0.103c-46.503-38.849-75.874-96.861-75.874-161.732 0-0.092 0-0.184 0-0.276v0.014-9.351l64-63.996zM77.033 906.667h-44.976v-45.31l313.934-313.916-302.163-151.082 26.658-133.291 314.378 41.006 15.471-162.447-144.335-61.859v-133.1h512v133.1l-144.335 61.86 11.144 117.013 311.99-311.973h45.201v45.085zM704 37.567v-26.9h-384v26.9l148.476 63.633-20.476 214.987v60.664l-326.486-42.584-5.342 26.709 277.525 138.762 182.303-182.294v-1.258l-20.476-214.986z" />
<glyph unicode="&#xe906;" glyph-name="blur" d="M174.742 902.104c0 0-0.001 0-0.001 0-78.834 0-142.741-63.907-142.741-142.741s63.907-142.741 142.741-142.741c78.834 0 142.741 63.907 142.741 142.741v0c-0.092 78.796-63.944 142.649-142.731 142.741h-0.009zM174.742 680.622c0 0-0.001 0-0.001 0-43.488 0-78.741 35.254-78.741 78.741s35.254 78.741 78.741 78.741c43.488 0 78.741-35.254 78.741-78.741v0c-0.051-43.466-35.274-78.689-78.735-78.741h-0.005zM548.621 846.589c0 0-0.001 0-0.001 0-65.686 0-118.935-53.249-118.935-118.935s53.249-118.935 118.935-118.935c65.686 0 118.935 53.249 118.935 118.935v0c-0.076 65.655-53.279 118.858-118.926 118.935h-0.007zM548.621 672.719c0 0-0.001 0-0.001 0-30.34 0-54.935 24.595-54.935 54.935s24.595 54.935 54.935 54.935c30.34 0 54.935-24.595 54.935-54.935 0 0 0 0 0 0v0c-0.036-30.325-24.609-54.898-54.93-54.935h-0.003zM930.306 707.896c0-32.736-26.538-59.274-59.274-59.274s-59.274 26.538-59.274 59.274c0 32.736 26.538 59.274 59.274 59.274s59.274-26.538 59.274-59.274zM174.742 567.127c0 0-0.001 0-0.001 0-78.834 0-142.741-63.907-142.741-142.741s63.907-142.741 142.741-142.741c78.834 0 142.741 63.907 142.741 142.741v0c-0.092 78.796-63.944 142.649-142.731 142.741h-0.009zM174.742 345.645c0 0-0.001 0-0.001 0-43.488 0-78.741 35.254-78.741 78.741s35.254 78.741 78.741 78.741c43.488 0 78.741-35.254 78.741-78.741v0c-0.051-43.467-35.274-78.689-78.735-78.741h-0.005zM548.621 543.321c0 0-0.001 0-0.001 0-65.686 0-118.935-53.249-118.935-118.935s53.249-118.935 118.935-118.935c65.686 0 118.935 53.249 118.935 118.935v0c-0.076 65.655-53.279 118.858-118.926 118.935h-0.007zM548.621 369.451c0 0-0.001 0-0.001 0-30.34 0-54.935 24.595-54.935 54.935s24.595 54.935 54.935 54.935c30.34 0 54.935-24.595 54.935-54.935 0 0 0 0 0 0v0c-0.036-30.325-24.609-54.898-54.93-54.935h-0.003zM930.306 424.386c0-32.736-26.538-59.274-59.274-59.274s-59.274 26.538-59.274 59.274c0 32.736 26.538 59.274 59.274 59.274s59.274-26.538 59.274-59.274zM174.742 232.15c-0.001 0-0.001 0-0.002 0-78.834 0-142.742-63.908-142.742-142.742s63.908-142.742 142.742-142.742c78.834 0 142.742 63.908 142.742 142.742v0c-0.092 78.797-63.944 142.649-142.731 142.742h-0.009zM174.742 10.667c-0.001 0-0.001 0-0.002 0-43.488 0-78.742 35.254-78.742 78.742s35.254 78.742 78.742 78.742c43.488 0 78.742-35.254 78.742-78.742 0 0 0 0 0-0.001v0c-0.051-43.467-35.274-78.689-78.735-78.741h-0.005zM548.621 240.053c0 0-0.001 0-0.001 0-65.686 0-118.935-53.249-118.935-118.935s53.249-118.935 118.935-118.935c65.686 0 118.935 53.249 118.935 118.935v0c-0.076 65.655-53.279 118.857-118.926 118.935h-0.008zM548.621 66.184c0 0-0.001 0-0.001 0-30.34 0-54.935 24.595-54.935 54.935s24.595 54.935 54.935 54.935c30.34 0 54.935-24.595 54.935-54.935v0c-0.036-30.325-24.609-54.898-54.93-54.935h-0.003zM930.306 140.876c0-32.736-26.538-59.274-59.274-59.274s-59.274 26.538-59.274 59.274c0 32.736 26.538 59.274 59.274 59.274s59.274-26.538 59.274-59.274z" />
<glyph unicode="&#xe907;" glyph-name="blur-circular" d="M512 906.667c-265.096 0-479.999-214.904-479.999-480 0-132.548 53.725-252.547 140.588-339.41v0c86.908-87.135 207.092-141.044 339.866-141.044 265.097 0 480 214.903 480 480 0 132.775-53.909 252.958-141.034 339.856l-0.010 0.010c-86.385 86.845-205.97 140.591-338.109 140.591-0.458 0-0.915-0.001-1.373-0.002h0.070zM806.156 132.511v0c-162.2-162.2-426.116-162.2-588.313 0s-162.198 426.114 0 588.312c75.333 75.167 179.317 121.648 294.157 121.648s218.823-46.481 294.164-121.655l-0.008 0.008c162.198-162.198 162.198-426.113 0-588.312zM394.967 453.902c51.151 0.034 92.605 41.508 92.605 92.664 0 51.177-41.487 92.664-92.664 92.664s-92.664-41.487-92.664-92.664c0-25.604 10.384-48.782 27.17-65.553l0.001-0.001c16.729-16.749 39.851-27.111 65.392-27.111 0.056 0 0.113 0 0.169 0h-0.009zM374.668 566.864c5.195 5.195 12.372 8.408 20.299 8.408 15.854 0 28.707-12.852 28.707-28.707s-12.852-28.707-28.707-28.707c-7.927 0-15.104 3.213-20.299 8.408v0c-5.218 5.184-8.447 12.364-8.447 20.299s3.229 15.114 8.446 20.297l0.002 0.001zM629.033 453.902c51.19 0 92.688 41.498 92.688 92.689s-41.498 92.689-92.689 92.689c-25.601 0-48.778-10.379-65.553-27.16v0c-16.786-16.772-27.17-39.95-27.17-65.553 0-51.177 41.487-92.664 92.664-92.664 0.021 0 0.042 0 0.063 0h-0.003zM608.735 566.865c5.195 5.195 12.372 8.408 20.299 8.408 15.854 0 28.707-12.853 28.707-28.707s-12.853-28.707-28.707-28.707c-7.927 0-15.104 3.213-20.299 8.408v0c-5.188 5.198-8.395 12.374-8.395 20.299s3.208 15.101 8.396 20.3v0zM329.414 372.321c-16.776-16.776-27.153-39.953-27.153-65.553 0-51.2 41.506-92.706 92.706-92.706s92.706 41.506 92.706 92.706c0 25.6-10.376 48.776-27.153 65.553v0c-16.708 16.925-39.906 27.409-65.553 27.409s-48.845-10.484-65.543-27.399l-0.010-0.010zM415.266 286.47c-5.192-5.187-12.361-8.395-20.28-8.395-15.847 0-28.693 12.846-28.693 28.693s12.846 28.693 28.693 28.693c7.919 0 15.088-3.208 20.28-8.395v0c5.187-5.199 8.394-12.374 8.394-20.299s-3.207-15.1-8.395-20.299l0.001 0.001zM563.48 372.321c-16.777-16.777-27.154-39.954-27.154-65.555 0-51.201 41.506-92.707 92.707-92.707s92.707 41.506 92.707 92.707c0 25.601-10.377 48.778-27.154 65.555v0c-16.788 16.751-39.961 27.11-65.553 27.11s-48.765-10.358-65.554-27.111l0.002 0.002zM649.332 286.47c-5.195-5.195-12.371-8.408-20.298-8.408-15.854 0-28.706 12.852-28.706 28.706s12.852 28.706 28.706 28.706c15.854 0 28.706-12.852 28.706-28.706v0c-0.004-7.926-3.216-15.102-8.408-20.299v0zM686.722 755.285c7.521-31.86-12.21-63.785-44.070-71.306s-63.785 12.21-71.306 44.070c-7.521 31.86 12.21 63.785 44.070 71.306s63.785-12.21 71.306-44.070zM452.655 755.285c7.521-31.86-12.21-63.785-44.070-71.306s-63.785 12.21-71.306 44.070c-7.521 31.86 12.21 63.785 44.070 71.306s63.785-12.21 71.306-44.070zM686.722 125.285c7.521-31.86-12.21-63.785-44.070-71.306s-63.785 12.21-71.306 44.070c-7.521 31.86 12.21 63.785 44.070 71.306s63.785-12.21 71.306-44.070zM452.655 125.285c7.521-31.86-12.21-63.785-44.070-71.306s-63.785 12.21-71.306 44.070c-7.521 31.86 12.21 63.785 44.070 71.306s63.785-12.21 71.306-44.070zM884.688 323.251c7.521-31.86-12.21-63.785-44.070-71.306s-63.785 12.21-71.306 44.070c-7.521 31.86 12.21 63.785 44.070 71.306s63.785-12.21 71.306-44.070zM868.913 585.613c23.148-23.148 23.148-60.678 0-83.826s-60.678-23.148-83.826 0c-23.148 23.148-23.148 60.678 0 83.826s60.678 23.148 83.826 0zM256.274 309.634c0-32.736-26.538-59.274-59.274-59.274s-59.274 26.538-59.274 59.274c0 32.736 26.538 59.274 59.274 59.274s59.274-26.538 59.274-59.274zM256.274 543.701c0-32.736-26.538-59.274-59.274-59.274s-59.274 26.538-59.274 59.274c0 32.736 26.538 59.274 59.274 59.274s59.274-26.538 59.274-59.274z" />
<glyph unicode="&#xe908;" glyph-name="blur-linear" d="M32 906.667h960v-64h-960v64zM32 10.667h960v-64h-960v64zM174.742 475.732c78.833 0.001 142.74 63.908 142.74 142.741s-63.907 142.741-142.741 142.741c-78.834 0-142.741-63.907-142.741-142.741v0c0.092-78.797 63.945-142.65 142.733-142.741h0.009zM174.742 697.215c43.487-0.001 78.74-35.254 78.74-78.741s-35.254-78.741-78.741-78.741c-43.488 0-78.741 35.254-78.741 78.741v0c0.050 43.468 35.274 78.691 78.737 78.741h0.005zM548.621 475.732c65.685 0 118.934 53.249 118.934 118.935s-53.249 118.935-118.935 118.935c-65.686 0-118.935-53.249-118.935-118.935v0c0.076-65.655 53.28-118.859 118.928-118.935h0.007zM548.621 649.602c30.339 0 54.934-24.595 54.934-54.935s-24.595-54.935-54.935-54.935c-30.34 0-54.935 24.595-54.935 54.935v0c0.035 30.326 24.61 54.9 54.932 54.935h0.003zM871.032 507.732c32.736 0 59.274 26.538 59.274 59.274s-26.538 59.274-59.274 59.274c-32.736 0-59.274-26.538-59.274-59.274 0 0 0 0 0 0v0c0-32.736 26.538-59.274 59.274-59.274 0 0 0 0 0.001 0v0zM174.742 83.967c78.834 0 142.741 63.908 142.741 142.742s-63.908 142.742-142.742 142.742c-78.834 0-142.742-63.908-142.742-142.742v0c0.091-78.798 63.945-142.651 142.733-142.742h0.009zM174.742 305.45c43.488 0 78.741-35.254 78.741-78.742s-35.254-78.742-78.742-78.742c-43.488 0-78.742 35.254-78.742 78.742 0 0 0 0 0 0v0c0.050 43.468 35.274 78.692 78.737 78.742h0.005zM548.621 131.581c65.686 0 118.935 53.249 118.935 118.935s-53.249 118.935-118.935 118.935c-65.686 0-118.935-53.249-118.935-118.935 0 0 0 0 0-0.001v0c0.076-65.655 53.28-118.859 118.928-118.935h0.007zM548.621 305.451c30.34 0 54.935-24.595 54.935-54.935s-24.595-54.935-54.935-54.935c-30.34 0-54.935 24.595-54.935 54.935v0c0.034 30.326 24.609 54.901 54.932 54.936h0.003zM871.032 218.903c32.736 0 59.273 26.538 59.273 59.274s-26.538 59.274-59.274 59.274c-32.736 0-59.274-26.538-59.274-59.274 0 0 0 0 0 0v0c0-32.736 26.538-59.274 59.274-59.274 0 0 0.001 0 0.001 0v0z" />
<glyph unicode="&#xe90b;" glyph-name="border-all" d="M912 858.667h-800c-17.673 0-32-14.327-32-32v0-800c0-17.673 14.327-32 32-32v0h800c17.673 0 32 14.327 32 32v0 800c0 17.673-14.327 32-32 32v0zM880 458.667h-336v336h336zM144 794.667h336v-336h-336zM144 394.667h336v-336h-336zM880 58.667h-336v336h336z" />
<glyph unicode="&#xe90c;" glyph-name="border-bottom" d="M80 58.667h864v-64h-864v64zM80 326.302h64v-66.908h-64v66.908zM80 192.483h64v-66.908h-64v66.908zM80 460.122h64v-66.91h-64v66.91zM80 593.938h64v-66.908h-64v66.908zM80 727.757h64v-66.908h-64v66.908zM80 858.667h64v-64h-64v64zM612.363 858.667h66.909v-64h-66.909v64zM344.728 858.667h66.909v-64h-66.909v64zM746.182 858.667h66.909v-64h-66.909v64zM478.545 858.667h66.91v-64h-66.91v64zM210.909 858.667h66.909v-64h-66.909v64zM880 858.667h64v-64h-64v64zM880 192.485h64v-66.908h-64v66.908zM880 326.304h64v-66.908h-64v66.908zM880 727.759h64v-66.908h-64v66.908zM880 593.94h64v-66.908h-64v66.908zM880 460.122h64v-66.91h-64v66.91zM478.545 460.122h66.91v-66.91h-66.91v66.91zM478.545 326.304h66.91v-66.908h-66.91v66.908zM478.545 593.94h66.91v-66.908h-66.91v66.908zM478.545 727.759h66.91v-66.908h-66.91v66.908zM478.545 192.485h66.91v-66.908h-66.91v66.908zM612.363 460.122h66.909v-66.91h-66.909v66.91zM746.182 460.122h66.909v-66.91h-66.909v66.91zM344.728 460.122h66.909v-66.91h-66.909v66.91zM210.909 460.122h66.909v-66.91h-66.909v66.91z" />
<glyph unicode="&#xe90d;" glyph-name="border-clear" d="M880-5.333h64v64h-64v-64zM612.364-5.333h66.908v64h-66.908v-64zM344.728-5.333h66.908v64h-66.908v-64zM746.182-5.333h66.908v64h-66.908v-64zM210.91-5.333h66.908v64h-66.908v-64zM80-5.333h64v64h-64v-64zM80 259.393h64v66.908h-64v-66.908zM80 125.575h64v66.908h-64v-66.908zM80 393.211h64v66.912h-64v-66.912zM80 527.031h64v66.908h-64v-66.908zM80 660.849h64v66.908h-64v-66.908zM80 794.667h64v64h-64v-64zM612.364 794.667h66.908v64h-66.908v-64zM344.728 794.667h66.908v64h-66.908v-64zM746.182 794.667h66.908v64h-66.908v-64zM478.544 794.667h66.912v64h-66.912v-64zM210.91 794.667h66.908v64h-66.908v-64zM880 858.667v-64h64v64h-64zM880 125.577h64v66.908h-64v-66.908zM880 259.395h64v66.908h-64v-66.908zM880 660.851h64v66.908h-64v-66.908zM880 527.033h64v66.908h-64v-66.908zM880 393.211h64v66.912h-64v-66.912zM478.544 393.211h66.912v66.912h-66.912v-66.912zM478.544 259.395h66.912v66.908h-66.912v-66.908zM478.544 527.033h66.912v66.908h-66.912v-66.908zM478.544 660.851h66.912v66.908h-66.912v-66.908zM478.544 125.577h66.912v66.908h-66.912v-66.908zM478.544-5.333h66.912v64h-66.912v-64zM612.364 393.211h66.908v66.912h-66.908v-66.912zM746.182 393.211h66.908v66.912h-66.908v-66.912zM344.728 393.211h66.908v66.912h-66.908v-66.912zM210.91 393.211h66.908v66.912h-66.908v-66.912z" />
<glyph unicode="&#xe90e;" glyph-name="border-horizontal" d="M80 458.667h864v-64h-864v64zM880 58.667h64v-64h-64v64zM612.363 58.667h66.909v-64h-66.909v64zM344.728 58.667h66.909v-64h-66.909v64zM746.182 58.667h66.909v-64h-66.909v64zM210.909 58.667h66.909v-64h-66.909v64zM80 58.667h64v-64h-64v64zM80 326.302h64v-66.908h-64v66.908zM80 192.483h64v-66.908h-64v66.908zM80 593.938h64v-66.908h-64v66.908zM80 727.757h64v-66.908h-64v66.908zM80 858.667h64v-64h-64v64zM612.363 858.667h66.909v-64h-66.909v64zM344.728 858.667h66.909v-64h-66.909v64zM746.182 858.667h66.909v-64h-66.909v64zM478.545 858.667h66.91v-64h-66.91v64zM210.909 858.667h66.909v-64h-66.909v64zM880 858.667h64v-64h-64v64zM880 192.485h64v-66.908h-64v66.908zM880 326.304h64v-66.908h-64v66.908zM880 727.759h64v-66.908h-64v66.908zM880 593.94h64v-66.908h-64v66.908zM478.545 326.304h66.91v-66.908h-66.91v66.908zM478.545 593.94h66.91v-66.908h-66.91v66.908zM478.545 727.759h66.91v-66.908h-66.91v66.908zM478.545 192.485h66.91v-66.908h-66.91v66.908zM478.545 58.667h66.91v-64h-66.91v64z" />
<glyph unicode="&#xe90f;" glyph-name="border-inner" d="M544 458.667v400h-64v-400h-400v-64h400v-400h64v400h400v64h-400zM880 58.667h64v-64h-64v64zM612.363 58.667h66.909v-64h-66.909v64zM344.728 58.667h66.909v-64h-66.909v64zM746.182 58.667h66.909v-64h-66.909v64zM210.909 58.667h66.909v-64h-66.909v64zM80 58.667h64v-64h-64v64zM80 326.302h64v-66.908h-64v66.908zM80 192.483h64v-66.908h-64v66.908zM80 593.938h64v-66.908h-64v66.908zM80 727.757h64v-66.908h-64v66.908zM80 858.667h64v-64h-64v64zM612.363 858.667h66.909v-64h-66.909v64zM344.728 858.667h66.909v-64h-66.909v64zM746.182 858.667h66.909v-64h-66.909v64zM210.909 858.667h66.909v-64h-66.909v64zM880 858.667h64v-64h-64v64zM880 192.485h64v-66.908h-64v66.908zM880 326.304h64v-66.908h-64v66.908zM880 727.759h64v-66.908h-64v66.908zM880 593.94h64v-66.908h-64v66.908z" />
<glyph unicode="&#xe910;" glyph-name="border-left" d="M80 794.667v-800h64v864h-64v-64zM880 58.667h64v-64h-64v64zM612.363 58.667h66.909v-64h-66.909v64zM344.728 58.667h66.909v-64h-66.909v64zM746.182 58.667h66.909v-64h-66.909v64zM210.909 58.667h66.909v-64h-66.909v64zM612.363 858.667h66.909v-64h-66.909v64zM344.728 858.667h66.909v-64h-66.909v64zM746.182 858.667h66.909v-64h-66.909v64zM478.545 858.667h66.91v-64h-66.91v64zM210.909 858.667h66.909v-64h-66.909v64zM880 858.667h64v-64h-64v64zM880 192.485h64v-66.908h-64v66.908zM880 326.304h64v-66.908h-64v66.908zM880 727.759h64v-66.908h-64v66.908zM880 593.94h64v-66.908h-64v66.908zM880 460.122h64v-66.91h-64v66.91zM478.545 460.122h66.91v-66.91h-66.91v66.91zM478.545 326.304h66.91v-66.908h-66.91v66.908zM478.545 593.94h66.91v-66.908h-66.91v66.908zM478.545 727.759h66.91v-66.908h-66.91v66.908zM478.545 192.485h66.91v-66.908h-66.91v66.908zM478.545 58.667h66.91v-64h-66.91v64zM612.363 460.122h66.909v-66.91h-66.909v66.91zM746.182 460.122h66.909v-66.91h-66.909v66.91zM344.728 460.122h66.909v-66.91h-66.909v66.91zM210.909 460.122h66.909v-66.91h-66.909v66.91z" />
<glyph unicode="&#xe911;" glyph-name="border-outer" d="M912 858.667h-800c-17.673 0-32-14.327-32-32v0-800c0-17.673 14.327-32 32-32v0h800c17.673 0 32 14.327 32 32v0 800c0 17.673-14.327 32-32 32v0zM880 58.667h-736v736h736zM478.545 460.122h66.91v-66.91h-66.91v66.91zM478.545 326.304h66.91v-66.908h-66.91v66.908zM478.545 593.94h66.91v-66.908h-66.91v66.908zM478.545 727.759h66.91v-66.908h-66.91v66.908zM478.545 192.485h66.91v-66.908h-66.91v66.908zM612.363 460.122h66.909v-66.91h-66.909v66.91zM746.182 460.122h66.909v-66.91h-66.909v66.91zM344.728 460.122h66.909v-66.91h-66.909v66.91zM210.909 460.122h66.909v-66.91h-66.909v66.91z" />
<glyph unicode="&#xe912;" glyph-name="border-right" d="M880 858.667v-864h64v864h-64zM612.363 58.667h66.909v-64h-66.909v64zM344.728 58.667h66.909v-64h-66.909v64zM746.182 58.667h66.909v-64h-66.909v64zM210.909 58.667h66.909v-64h-66.909v64zM80 58.667h64v-64h-64v64zM80 326.302h64v-66.908h-64v66.908zM80 192.483h64v-66.908h-64v66.908zM80 460.122h64v-66.91h-64v66.91zM80 593.938h64v-66.908h-64v66.908zM80 727.757h64v-66.908h-64v66.908zM80 858.667h64v-64h-64v64zM612.363 858.667h66.909v-64h-66.909v64zM344.728 858.667h66.909v-64h-66.909v64zM746.182 858.667h66.909v-64h-66.909v64zM478.545 858.667h66.91v-64h-66.91v64zM210.909 858.667h66.909v-64h-66.909v64zM478.545 460.122h66.91v-66.91h-66.91v66.91zM478.545 326.304h66.91v-66.908h-66.91v66.908zM478.545 593.94h66.91v-66.908h-66.91v66.908zM478.545 727.759h66.91v-66.908h-66.91v66.908zM478.545 192.485h66.91v-66.908h-66.91v66.908zM478.545 58.667h66.91v-64h-66.91v64zM612.363 460.122h66.909v-66.91h-66.909v66.91zM746.182 460.122h66.909v-66.91h-66.909v66.91zM344.728 460.122h66.909v-66.91h-66.909v66.91zM210.909 460.122h66.909v-66.91h-66.909v66.91z" />
<glyph unicode="&#xe913;" glyph-name="border-style" d="M880 58.667h64v-64h-64v64zM612.363 58.667h66.909v-64h-66.909v64zM344.728 58.667h66.909v-64h-66.909v64zM746.182 58.667h66.909v-64h-66.909v64zM210.909 58.667h66.909v-64h-66.909v64zM112 858.667c-17.673 0-32-14.327-32-32v0-832h64v800h800v64zM880 192.485h64v-66.908h-64v66.908zM880 326.304h64v-66.908h-64v66.908zM880 727.759h64v-66.908h-64v66.908zM880 593.94h64v-66.908h-64v66.908zM880 460.122h64v-66.91h-64v66.91zM478.545 58.667h66.91v-64h-66.91v64z" />
<glyph unicode="&#xe914;" glyph-name="border-top" d="M80 858.667h864v-64h-864v64zM880 58.667h64v-64h-64v64zM612.363 58.667h66.909v-64h-66.909v64zM344.728 58.667h66.909v-64h-66.909v64zM746.182 58.667h66.909v-64h-66.909v64zM210.909 58.667h66.909v-64h-66.909v64zM80 58.667h64v-64h-64v64zM80 326.302h64v-66.908h-64v66.908zM80 192.483h64v-66.908h-64v66.908zM80 460.122h64v-66.91h-64v66.91zM80 593.938h64v-66.908h-64v66.908zM80 727.757h64v-66.908h-64v66.908zM880 192.485h64v-66.908h-64v66.908zM880 326.304h64v-66.908h-64v66.908zM880 727.759h64v-66.908h-64v66.908zM880 593.94h64v-66.908h-64v66.908zM880 460.122h64v-66.91h-64v66.91zM478.545 460.122h66.91v-66.91h-66.91v66.91zM478.545 326.304h66.91v-66.908h-66.91v66.908zM478.545 593.94h66.91v-66.908h-66.91v66.908zM478.545 727.759h66.91v-66.908h-66.91v66.908zM478.545 192.485h66.91v-66.908h-66.91v66.908zM478.545 58.667h66.91v-64h-66.91v64zM612.363 460.122h66.909v-66.91h-66.909v66.91zM746.182 460.122h66.909v-66.91h-66.909v66.91zM344.728 460.122h66.909v-66.91h-66.909v66.91zM210.909 460.122h66.909v-66.91h-66.909v66.91z" />
<glyph unicode="&#xe915;" glyph-name="border-vertical" d="M480 826.667v-832h64v864h-64v-32zM880 58.667h64v-64h-64v64zM612.363 58.667h66.909v-64h-66.909v64zM344.728 58.667h66.909v-64h-66.909v64zM746.182 58.667h66.909v-64h-66.909v64zM210.909 58.667h66.909v-64h-66.909v64zM80 58.667h64v-64h-64v64zM80 326.302h64v-66.908h-64v66.908zM80 192.483h64v-66.908h-64v66.908zM80 460.122h64v-66.91h-64v66.91zM80 593.938h64v-66.908h-64v66.908zM80 727.757h64v-66.908h-64v66.908zM80 858.667h64v-64h-64v64zM612.363 858.667h66.909v-64h-66.909v64zM344.728 858.667h66.909v-64h-66.909v64zM746.182 858.667h66.909v-64h-66.909v64zM210.909 858.667h66.909v-64h-66.909v64zM880 858.667h64v-64h-64v64zM880 192.485h64v-66.908h-64v66.908zM880 326.304h64v-66.908h-64v66.908zM880 727.759h64v-66.908h-64v66.908zM880 593.94h64v-66.908h-64v66.908zM880 460.122h64v-66.91h-64v66.91zM612.363 460.122h66.909v-66.91h-66.909v66.91zM746.182 460.122h66.909v-66.91h-66.909v66.91zM344.728 460.122h66.909v-66.91h-66.909v66.91zM210.909 460.122h66.909v-66.91h-66.909v66.91z" />
<glyph unicode="&#xe916;" glyph-name="brush" d="M965.298 876.607c-17.691 18.101-42.351 29.325-69.633 29.325-23.534 0-45.117-8.352-61.947-22.253l0.165 0.132-463.069-383.74c-3.423 0.154-6.842 0.26-10.249 0.26-0.007 0-0.016-0.001-0.025-0.001s-0.017 0-0.026 0.001h0.001c-0.105 0-0.23 0-0.355 0-100.606 0-185.977-65.231-216.125-155.706l-0.464-1.608-106.967-327.123c-1.683-4.98-2.654-10.717-2.654-16.679 0-29.628 23.975-53.657 53.583-53.744h0.008c6.007 0.004 11.783 0.988 17.178 2.8l-0.381-0.111 327.124 106.965c92.082 30.612 157.313 115.983 157.313 216.589 0 0.127 0 0.255 0 0.382v-0.018c0 5.036-0.189 10.095-0.524 15.149l381.986 460.105c13.929 16.643 22.388 38.279 22.388 61.891 0 26.21-10.423 49.985-27.35 67.408l0.022-0.023zM411.572 115.956l-307.827-100.656 100.656 307.826c22.028 66.264 83.462 113.205 155.859 113.205 0.092 0 0.183 0 0.275 0h-0.014c4.543 0 9.118-0.191 13.683-0.57l150.002-150.002c0.38-4.563 0.569-9.137 0.569-13.684 0-0.078 0-0.169 0-0.261 0-72.396-46.94-133.829-112.046-155.524l-1.157-0.334zM920.995 788.214l-366.231-441.129-121.565 121.564 441.519 365.883c5.646 4.703 12.976 7.557 20.973 7.557 18.159 0 32.88-14.721 32.88-32.88 0-8.007-2.862-15.346-7.619-21.048l0.043 0.053z" />
<glyph unicode="&#xe917;" glyph-name="brush-alt" d="M816 522.667h-173.233l26.148 212.525 0.138 1.355c0.32 3.762 0.502 8.142 0.502 12.565 0 87.015-70.54 157.555-157.555 157.555s-157.555-70.54-157.555-157.555c0-4.422 0.182-8.802 0.539-13.132l-0.038 0.567 0.055-0.678 26.231-213.203h-173.233c-52.994-0.062-95.938-43.006-96-95.994v-480.006h800v480c-0.062 52.994-43.006 95.938-95.994 96h-0.006zM848 10.667h-672v288h672zM176 362.667v64c0.021 17.665 14.335 31.979 31.998 32h245.593l-34.895 283.615c-0.159 2.045-0.25 4.428-0.25 6.832 0 51.669 41.886 93.554 93.554 93.554s93.554-41.886 93.554-93.554c0-2.404-0.091-4.787-0.269-7.146l0.019 0.314-34.895-283.615h245.591c17.665-0.021 31.979-14.335 32-31.998v-64.002z" />
<glyph unicode="&#xe918;" glyph-name="camera-roll" d="M656 666.667v64c-0.042 35.329-28.671 63.958-63.996 64h-32.004v48c-0.042 35.329-28.671 63.958-63.996 64h-304.004c-35.329-0.042-63.958-28.671-64-63.996v-48.004h-32c-35.329-0.042-63.958-28.671-64-63.996v-720.004c0.042-35.329 28.671-63.958 63.996-64h496.004c35.329 0.042 63.958 28.671 64 63.996v48.004h336v608zM928 122.667h-336v-112h-496v720h96v112h304v-112h96v-128h336zM784 538.667h80v-80h-80v80zM640 538.667h80v-80h-80v80zM496 538.667h80v-80h-80v80zM784 266.667h80v-80h-80v80zM640 266.667h80v-80h-80v80zM496 266.667h80v-80h-80v80zM352 538.667h80v-80h-80v80zM352 266.667h80v-80h-80v80z" />
<glyph unicode="&#xe919;" glyph-name="center-focus" d="M96 42.667v240h-64v-240c0.061-52.995 43.005-95.939 95.994-96h240.006v64h-240c-17.665 0.021-31.979 14.335-32 31.998v0.002zM96 810.667c0.021 17.665 14.335 31.979 31.998 32h240.002v64h-240c-52.995-0.061-95.939-43.005-96-95.994v-240.006h64zM896 906.667h-240v-64h240c17.665-0.021 31.979-14.335 32-31.998v-240.002h64v240c-0.061 52.995-43.005 95.939-95.994 96h-0.006zM928 42.667c-0.021-17.665-14.335-31.979-31.998-32h-240.002v-64h240c52.995 0.061 95.939 43.005 96 95.994v240.006h-64zM800 426.667c0 158.805-129.196 288-288 288s-288-129.195-288-288 129.196-288 288-288 288 129.195 288 288zM512 202.667c-123.712 0-224 100.288-224 224s100.288 224 224 224c123.712 0 224-100.288 224-224v0c-0.145-123.654-100.346-223.855-223.986-224h-0.014z" />
<glyph unicode="&#xe91b;" glyph-name="color-border" d="M286.8 274.849c2.324 0 4.594 0.227 6.791 0.659l-0.222-0.036 179.734 42.56 380.406 380.409c22.787 22.776 36.881 54.246 36.881 89.008 0 69.502-56.343 125.845-125.845 125.845-34.763 0-66.233-14.095-89.008-36.882l-380.408-380.407-42.268-178.369-0.289-1.35c-0.397-1.975-0.624-4.245-0.624-6.568 0-19.252 15.602-34.86 34.851-34.87h0.001zM353.22 463.587l367.572 367.57c11.198 11.229 26.684 18.176 43.793 18.176 34.156 0 61.846-27.689 61.846-61.846 0-17.109-6.947-32.595-18.174-43.791l-367.572-367.573-114.627-27.164zM944 186.667h-864c-26.497-0.031-47.969-21.503-48-47.997v-144.003c0.031-26.497 21.503-47.969 47.997-48h864.003c26.497 0.031 47.969 21.503 48 47.997v144.003c-0.031 26.497-21.503 47.969-47.997 48h-0.003zM928 10.667h-832v112h832z" />
<glyph unicode="&#xe91c;" glyph-name="color-fill" d="M944 186.667h-864c-26.497-0.031-47.969-21.503-48-47.997v-144.003c0.031-26.497 21.503-47.969 47.997-48h864.003c26.497 0.031 47.969 21.503 48 47.997v144.003c-0.031 26.497-21.503 47.969-47.997 48h-0.003zM928 10.667h-832v112h832zM90.020 459.689c-1.987-7.464-3.129-16.033-3.129-24.868 0-46.613 31.766-85.807 74.83-97.116l0.699-0.156 317.004-81.049c7.475-1.994 16.056-3.14 24.905-3.14 46.608 0 85.794 31.774 97.079 74.843l0.156 0.699 105.918 414.275-511.546 130.786-24.020-93.95-115.991 29.656-15.854-62.006 115.991-29.656zM495.278 318.506v0l-317.003 81.049c-15.864 4.175-27.375 18.39-27.375 35.294 0 3.193 0.411 6.29 1.182 9.241l-0.056-0.254 7.975 31.191v-0.36h412.774l-33.214-129.912c-4.174-15.865-18.39-27.375-35.294-27.375-3.193 0-6.29 0.411-9.242 1.182l0.254-0.056zM629.624 697.024l-40.487-158.357h-412.866l65.819 257.438zM840 234.667c74.99 0 136 64.598 136 144 0 32.361-18.683 77.028-57.117 136.554-26.57 41.151-52.781 74.043-53.884 75.423l-24.999 31.283-25-31.283c-1.103-1.38-27.313-34.272-53.884-75.423-38.434-59.526-57.116-104.193-57.116-136.554 0-79.402 61.010-144 136-144zM840 517.55c35.315-49.277 72-110.854 72-138.883 0-44.112-32.299-80-72-80s-72 35.888-72 80c0 28.029 36.687 89.608 72 138.883z" />
<glyph unicode="&#xe91d;" glyph-name="color-palette" d="M851.028 774.558c-89.472 85.192-209.682 132.109-338.485 132.109-120.048 0-239.713-40.146-328.313-110.143-98.167-77.557-152.23-186.179-152.23-305.857 0-120.196 31.062-197.74 97.752-244.037 56-38.876 136.823-55.463 270.248-55.463h59.5c28.981-0.034 52.466-23.519 52.5-52.497v-95.972c0-0.001 0-0.001 0-0.002 0-35.345 28.652-63.998 63.997-63.998l181.575 0.176c14.914 0.031 28.629 5.143 39.51 13.696l-0.138-0.105c19.45 15.244 69.453 58.798 113.589 133.807 54.058 91.871 81.467 198.322 81.467 316.396 0 127.464-50.064 245.332-140.972 331.891zM855.373 158.728c-38.59-65.584-81.325-102.894-97.862-115.854l-181.511-0.176v95.969c-0.075 64.311-52.189 116.425-116.493 116.5h-59.507c-119.38 0-189.287 13.17-233.752 44.037-48.583 33.725-70.248 92.775-70.248 191.463 0 220.335 211.789 352 416.543 352 232.967 0 415.457-175.701 415.457-400 0-106.507-24.436-202.037-72.627-283.94zM256 650.667c-61.856 0-112-50.144-112-112s50.144-112 112-112c61.856 0 112 50.144 112 112v0c-0.072 61.827-50.173 111.928-111.993 112h-0.007zM256 490.667c-26.51 0-48 21.49-48 48s21.49 48 48 48c26.51 0 48-21.49 48-48v0c-0.031-26.497-21.503-47.969-47.997-48h-0.003zM480 794.667c-61.856 0-112-50.144-112-112s50.144-112 112-112c61.856 0 112 50.144 112 112v0c-0.072 61.827-50.173 111.928-111.993 112h-0.007zM480 634.667c-26.51 0-48 21.49-48 48s21.49 48 48 48c26.51 0 48-21.49 48-48v0c-0.031-26.497-21.503-47.969-47.997-48h-0.003zM720 458.667c61.856 0 112 50.144 112 112s-50.144 112-112 112c-61.856 0-112-50.144-112-112v0c0.072-61.827 50.173-111.928 111.993-112h0.007zM720 618.667c26.51 0 48-21.49 48-48s-21.49-48-48-48c-26.51 0-48 21.49-48 48v0c0.031 26.497 21.503 47.969 47.997 48h0.003zM752 410.667c-61.856 0-112-50.144-112-112s50.144-112 112-112c61.856 0 112 50.144 112 112v0c-0.072 61.827-50.173 111.928-111.993 112h-0.007zM752 250.667c-26.51 0-48 21.49-48 48s21.49 48 48 48c26.51 0 48-21.49 48-48v0c-0.031-26.497-21.503-47.969-47.997-48h-0.003z" />
<glyph unicode="&#xe91f;" glyph-name="contrast" d="M512 906.667c-265.097 0-480-214.903-480-480s214.903-480 480-480 480 214.903 480 480-214.903 480-480 480zM96 426.667q0 19.824 1.843 39.34l370.157-207.218v-106.656l-366.222 205.014c-3.676 20.863-5.778 44.884-5.778 69.396 0 0.044 0 0.088 0 0.131v-0.007zM140.601 614.286l327.399-183.487v-98.665l-358.362 200.614c5.824 22.013 12.324 40.587 20.056 58.504l-1.029-2.679q5.54 13.099 11.936 25.713zM468 840.365v-160.786l-179.296 98.185c51.063 33.010 111.974 55.364 177.465 62.44l1.831 0.161zM233.042 735.279l234.958-128.667v-102.45l-294.173 164.865c13.888 19.205 28.333 36.118 44.015 51.794l0.001 0.001q7.44 7.441 15.199 14.457zM217.844 132.511c-37.043 36.941-67.132 80.834-88.146 129.559l-1.033 2.691c-0.727 1.718-1.41 3.449-2.113 5.174l341.448-191.145v-65.82c-98.453 10.613-185.11 54.289-250.145 119.531l-0.011 0.011zM806.156 132.511c-70.586-70.805-166.617-116.209-273.211-121.33l-0.945-0.036v831.044c221.058-10.771 396.209-192.62 396.209-415.378 0-114.959-46.648-219.022-122.047-294.294l-0.006-0.006z" />
<glyph unicode="&#xe920;" glyph-name="crop" d="M946.744 906.667l-80-80h45.256v-45.256l80 80v45.256h-45.256zM176 90.667h45.256l626.744 626.744v45.256h-45.256l-626.744-626.744v-45.256zM912 90.667h80v-64h-80v64zM221.256 90.667h-45.256v672h-64v-736h736v64h-626.744zM112 906.667h64v-80h-64v80zM866.744 826.667h-834.744v-64h816v-816h64v880h-45.256z" />
<glyph unicode="&#xe921;" glyph-name="crop-rotate" d="M736 906.737l-224-0.070c-127.566-0.189-246.828-51.357-337.051-141.58-86.591-86.133-140.18-205.369-140.18-337.121 0-0.457 0.001-0.913 0.002-1.369v0.071h64c0 228.367 185.594 414.193 413.87 414.588v-83.518zM927.965 426.597c0-228.211-186.489-413.944-415.99-414.663v62.733l-223.359-128h223.359c264.79 0.72 479.99 216.427 479.99 479.93zM768 647.923v34.744h-45.256l-48-48h-306.744v64h-64v-64h-64v-64h64v-352h336v-64h64v64h64v64h-64v210.744l-64-64v-146.744h-237.255zM368 327.923v242.744h242.744z" />
<glyph unicode="&#xe922;" glyph-name="cursor" d="M606.634-53.333h74.011l225.918 855.263c0.842 3.064 1.326 6.583 1.326 10.215 0 22.091-17.909 40-40 40-6.172 0-12.017-1.398-17.236-3.894l0.241 0.104-786.894-369.358v-73.994l330.698-132.28zM831.559 768.579l-197.311-746.961-196.946 302.993-297.806 119.122z" />
<glyph unicode="&#xe923;" glyph-name="cursor-move" d="M544 779.803l-32 32-32-32v-321.332h64v321.332zM480 71.531l32-32 32 32v322.94h-64v-322.94zM544 779.803l103.764-103.762 45.256 45.252-181.020 181.020-181.020-181.020 45.256-45.252 135.764 135.762 32-32zM480 71.531l-103.764 103.762-45.256-45.252 181.020-181.020 181.020 181.020-45.256 45.252-135.764-135.762-32 32zM157.058 394.471h708.276l32 32-32 32h-708.276l-32-32 32-32zM865.334 394.471l-103.766-103.764 45.256-45.254 181.018 181.018-181.018 181.020-45.256-45.254 135.766-135.766-32-32zM260.824 290.707l-135.766 135.764 135.766 135.766-45.256 45.254-181.020-181.020 181.022-181.020 45.254 45.256z" />
<glyph unicode="&#xe924;" glyph-name="drop" d="M512-49.731c-189.569 0-343.795 154.227-343.795 343.797-0.001 0.269-0.001 0.588-0.001 0.907 0 76.172 24.971 146.511 67.174 203.278l-0.648-0.911 250.32 390.98c5.778 8.924 15.684 14.746 26.95 14.746s21.172-5.822 26.874-14.621l0.076-0.125 250.318-390.979c41.556-55.857 66.528-126.197 66.528-202.37 0-0.318 0-0.636-0.001-0.954v0.049c0-189.57-154.226-343.797-343.795-343.797zM512 811.717l-223.935-349.77q-0.579-0.904-1.217-1.768c-34.127-45.582-54.645-103.073-54.645-165.356 0-0.267 0-0.533 0.001-0.8v0.041c0-154.281 125.516-279.797 279.795-279.797s279.795 125.516 279.795 279.797c0.001 0.225 0.001 0.492 0.001 0.758 0 62.283-20.519 119.774-55.165 166.082l0.519-0.725q-0.637 0.863-1.217 1.768z" />
<glyph unicode="&#xe926;" glyph-name="exposure" d="M912 858.667h-800c-17.673 0-32-14.327-32-32v0-800c0-17.673 14.327-32 32-32v0h800c17.673 0 32 14.327 32 32v0 800c0 17.673-14.327 32-32 32v0zM144 794.667h690.745l-690.745-690.746zM880 58.667h-690.746l690.746 690.745zM672 202.667v-80h64v80h80v64h-80v80h-64v-80h-80v-64h80zM224 666.667h224v-64h-224v64z" />
<glyph unicode="&#xe927;" glyph-name="baseball" d="M216 538.667c101.62 0 184 82.38 184 184s-82.38 184-184 184c-101.62 0-184-82.38-184-184v0c0.119-101.573 82.427-183.881 183.989-184h0.011zM216 842.667c66.274 0 120-53.726 120-120s-53.726-120-120-120c-66.274 0-120 53.726-120 120v0c0.077 66.243 53.757 119.923 119.993 120h0.007zM953.873 862.147h-0.001c-27.506 27.507-65.506 44.52-107.48 44.52s-79.974-17.013-107.48-44.52l-10.949-10.949c-42.107-42.106-83.107-86.385-121.86-131.603l-0.636-0.741-277.656-367.12-170.715-170.716c-10.944 6.397-24.095 10.175-38.128 10.175-42.264 0-76.525-34.261-76.525-76.525 0-21.13 8.564-40.26 22.41-54.108l81.040-81.039c13.848-13.827 32.967-22.377 54.083-22.377 42.274 0 76.544 34.27 76.544 76.544 0 14.019-3.769 27.157-10.348 38.458l0.196-0.365 170.48 170.48 361.482 262.83c53.732 44.81 106.063 92.618 155.542 142.098 27.465 27.525 44.448 65.519 44.448 107.48s-16.983 79.954-44.45 107.482l0.003-0.003zM908.616 692.442c-47.869-47.871-98.486-94.135-150.46-137.521l-363.005-263.847-217.444-217.444 31.146-31.149c2.299-2.271 3.723-5.424 3.723-8.909 0-6.915-5.605-12.52-12.52-12.52-3.485 0-6.637 1.424-8.907 3.722l-81.041 81.040c-2.266 2.266-3.667 5.396-3.667 8.854 0 6.915 5.606 12.521 12.521 12.521 3.458 0 6.588-1.401 8.854-3.667l31.147-31.148 217.228 217.229 279.14 369.080c37.506 43.726 77.163 86.535 117.888 127.26l10.949 10.948c15.944 16.040 38.021 25.967 62.417 25.967 48.601 0 88-39.399 88-88 0-24.396-9.927-46.474-25.963-62.413l-0.004-0.004z" />
<glyph unicode="&#xe929;" glyph-name="basketball" d="M512 906.667c-265.097 0-480-214.903-480-480 0-132.548 53.726-252.548 140.589-339.411v0c86.882-86.978 206.96-140.782 339.604-140.782 265.097 0 480 214.903 480 480 0 132.644-53.804 252.722-140.778 339.6l-0.004 0.004c-86.385 86.845-205.97 140.591-338.109 140.591-0.458 0-0.915-0.001-1.373-0.002h0.070zM215.522 718.167q8.42-11.651 16.29-24.933c37.325-63.185 59.646-145.529 63.97-234.567h-198.563c8.052 101.763 51.704 192.028 118.347 259.544l-0.043-0.044zM215.522 135.167c-66.599 67.471-110.251 157.736-118.211 258.051l-0.092 1.449h198.563c-4.324-89.038-26.645-171.382-63.97-234.567q-7.853-13.294-16.29-24.933zM480 11.886c-82.044 6.439-156.157 35.89-217.153 81.825l1.056-0.761c7.46 9.868 15.058 21.16 22.049 32.857l0.965 1.743c42.965 72.736 68.466 166.605 72.94 267.118h120.143zM480 458.667h-120.142c-4.475 100.513-29.975 194.382-72.94 267.118-7.955 13.44-15.554 24.732-23.717 35.575l0.703-0.975c59.94 45.174 134.052 74.624 214.661 80.972l1.436 0.091zM544 841.448c82.044-6.439 156.157-35.89 217.153-81.825l-1.056 0.761c-7.46-9.868-15.058-21.16-22.049-32.857l-0.965-1.743c-42.965-72.736-68.466-166.605-72.94-267.118h-120.143zM544 11.886v382.781h120.142c4.475-100.513 29.975-194.382 72.94-267.118 7.955-13.44 15.554-24.732 23.717-35.575l-0.703 0.975c-59.94-45.174-134.052-74.624-214.661-80.972l-1.436-0.091zM808.478 135.167q-8.42 11.651-16.29 24.933c-37.325 63.185-59.646 145.529-63.97 234.567h198.563c-8.052-101.763-51.704-192.028-118.347-259.544l0.043 0.044zM728.218 458.667c4.324 89.038 26.645 171.382 63.97 234.567q7.853 13.294 16.29 24.933c66.599-67.471 110.251-157.736 118.211-258.051l0.092-1.449z" />
<glyph unicode="&#xe92a;" glyph-name="bowling" d="M624 682.667c-0.025 0-0.055 0-0.085 0-111.676 0-211.712-49.84-279.077-128.491l-0.416-0.498c-3.41 7.608-6.935 15.177-10.649 22.677l22.738 180.009c0.67 5.027 1.053 10.838 1.053 16.739 0 73.765-59.799 133.564-133.564 133.564s-133.564-59.799-133.564-133.564c0-5.9 0.383-11.712 1.124-17.41l-0.071 0.672 22.738-180.010c-42.269-83.573-67.025-182.187-67.025-286.584 0-68.927 10.792-135.333 30.778-197.622l-1.268 4.574 46.975-150.057h200.627l35.191 112.415c66.849-69.347 160.551-112.415 264.312-112.415 0.064 0 0.129 0 0.193 0h-0.010c202.916 0 368 165.084 368 368s-165.084 368-368 368zM171.82 819.107c12.809 14.479 31.434 23.561 52.181 23.561 38.419 0 69.563-31.145 69.563-69.563 0-3.074-0.199-6.101-0.586-9.069l0.037 0.35-20.427-161.718h-97.176l-20.427 161.719c-0.348 2.616-0.547 5.64-0.547 8.711 0 17.675 6.59 33.81 17.446 46.084l-0.064-0.074zM310.21 115.843l-32.924-105.176h-106.572l-32.924 105.176c-17.023 52.055-26.839 111.961-26.839 174.159 0 90.374 20.724 175.908 57.68 252.108l-1.506-3.443h113.752q11.16-23.554 20.151-47.758c-28.341-50.873-45.027-111.594-45.027-176.212 0-71.975 20.701-139.115 56.475-195.79l-0.892 1.514c-0.464-1.525-0.896-3.055-1.373-4.578zM624 10.667c-167.626 0-304 136.374-304 304s136.374 304 304 304 304-136.374 304-304-136.374-304-304-304zM672 490.667c0-26.51-21.49-48-48-48s-48 21.49-48 48c0 26.51 21.49 48 48 48s48-21.49 48-48zM816 394.667c0-26.51-21.49-48-48-48s-48 21.49-48 48c0 26.51 21.49 48 48 48s48-21.49 48-48zM656 330.667c0-26.51-21.49-48-48-48s-48 21.49-48 48c0 26.51 21.49 48 48 48s48-21.49 48-48z" />
<glyph unicode="&#xe92c;" glyph-name="badge" d="M656.75 170.667l7.396-149.998-151.724 105.438-152.574-105.538 7.402 150.098h-64.078l-11.044-224h73.384l146.826 101.56 146.146-101.56h73.388l-11.044 224h-64.078zM830.818 628.839l-4.389 96.108-81.038 51.856-51.855 81.036-96.109 4.391-85.427 44.252-85.427-44.252-96.109-4.391-51.855-81.037-81.038-51.855-4.389-96.107-44.253-85.428 44.253-85.43 4.39-96.107 81.037-51.853 51.855-81.040 96.109-4.391 85.427-44.251 85.427 44.252 96.109 4.391 51.855 81.040 81.037 51.853 4.39 96.107 44.253 85.43zM767.525 474.94l-3.518-77.027-64.949-41.56-41.562-64.949-77.029-3.52-68.468-35.467-68.468 35.467-77.029 3.52-41.562 64.949-64.949 41.56-3.518 77.027-35.469 68.471 35.469 68.467 3.518 77.029 64.949 41.563 41.562 64.947 77.029 3.52 68.468 35.466 68.468-35.467 77.029-3.52 41.562-64.947 64.949-41.562 3.518-77.029 35.469-68.467z" />
<glyph unicode="&#xe930;" glyph-name="eyedropper" d="M942.294 848.961l-8 8c-30.711 30.711-73.137 49.706-120 49.706s-89.289-18.995-120-49.706l-128.653-128.653-103.747 104.163-45.344-45.165 104.223-104.64-393.832-393.832c-54.435-54.147-88.124-129.104-88.124-211.93 0-0.287 0-0.574 0.001-0.86v0.044-82.935c0.032-26.603 21.59-48.161 48.19-48.191h66.745c0.244-0.001 0.532-0.001 0.821-0.001 82.824 0 157.78 33.688 211.912 88.109l401.446 401.448 111.69-112.138 45.344 45.164-111.78 112.228 2.575 2.575-0.040 0.041 126.574 126.574c30.71 30.711 49.705 73.137 49.705 119.999s-18.995 89.289-49.706 120v0zM321.246 78.337c-42.63-42.854-101.642-69.376-166.849-69.376-0.226 0-0.452 0-0.679 0.001h-50.901v67.127c-0.001 0.19-0.001 0.415-0.001 0.64 0 65.208 26.522 124.222 69.368 166.842l37.39 37.39h314.294zM586.902 343.995v0.967h-313.326l294.531 294.531 157.147-157.146zM897.040 654.216l-122.745-122.745-157.49 157.49 122.745 122.746c19.129 19.129 45.555 30.96 74.745 30.96s55.617-11.832 74.746-30.962l7.999-7.999c19.1-19.142 30.911-45.564 30.911-74.745s-11.811-55.603-30.913-74.747l0.002 0.002z" />
<glyph unicode="&#xe933;" glyph-name="contact" d="M944 842.667h-864c-26.497-0.031-47.969-21.503-48-47.997v-736.003c0.031-26.497 21.503-47.969 47.997-48h176.003v117.645c0.005 14.955 8.213 27.992 20.369 34.856l0.2 0.104 183.957 102.246-60.525 151.311v121.838c0 61.856 50.144 112 112 112s112-50.144 112-112v0-121.838l-60.525-151.311 183.959-102.246c12.354-6.969 20.561-20.006 20.566-34.96v-117.646h176c26.497 0.031 47.969 21.503 48 47.997v736.003c-0.031 26.497-21.503 47.969-47.997 48h-0.003zM928 74.667h-96v53.645c-0.013 38.885-21.352 72.783-52.957 90.632l-0.519 0.27h0.002l-134.695 74.863 44.17 110.428v134.162c0 97.202-78.798 176-176 176s-176-78.798-176-176v0-134.162l44.17-110.428-134.693-74.863c-32.124-18.12-53.464-52.017-53.477-90.9v-53.647h-96v704h832z" />
<glyph unicode="&#xe934;" glyph-name="bank" d="M495.519 909.951l-463.519-223.176v-116.108h960v116.724zM928 634.667h-832v11.892l400.481 192.824 431.519-193.439zM96 122.667h832v-64h-832v64zM32 10.667h960v-64h-960v64zM112 506.667h64v-320h-64v320zM848 506.667h64v-320h-64v320zM656 506.667h64v-320h-64v320zM304 506.667h64v-320h-64v320zM480 506.667h64v-320h-64v320z" />
<glyph unicode="&#xe935;" glyph-name="battery-0, battery-empty" d="M79.972 90.667h736.028c0.105-0.001 0.229-0.001 0.353-0.001 26.151 0 47.382 21.067 47.646 47.156v112.845h128v336h-128v112.82c-0.264 26.114-21.495 47.181-47.647 47.181-0.124 0-0.248 0-0.372-0.001h-736.009c-0.105 0.001-0.229 0.001-0.353 0.001-26.151 0-47.382-21.067-47.647-47.156v-561.665c0.265-26.114 21.495-47.181 47.647-47.181 0.124 0 0.248 0 0.372 0.001h-0.019zM95.972 682.667h704.028v-160h128v-208h-128v-160h-704.028z" />
<glyph unicode="&#xe938;" glyph-name="bell" d="M900.54 241.528l-87.342 161.248v167.891c0 167.627-136.373 304-304 304s-304-136.373-304-304v-167.891l-87.342-161.246c-3.648-6.607-5.795-14.485-5.795-22.863 0-26.51 21.49-48 48-48h173.872c-0.477-5.272-0.735-10.606-0.735-16 0-97.202 78.798-176 176-176s176 78.798 176 176v0c0 5.394-0.258 10.728-0.735 16h173.872c0.001 0 0.001 0 0.002 0 26.509 0 47.998 21.49 47.998 47.998 0 8.379-2.147 16.256-5.92 23.111l0.125-0.248zM621.198 154.667c0-0.027 0-0.059 0-0.091 0-61.856-50.144-112-112-112s-112 50.144-112 112c0 5.677 0.422 11.256 1.238 16.706l-0.076-0.615h221.677c0.733-4.804 1.155-10.35 1.161-15.994v-0.006zM186.925 234.667l82.273 151.891v184.109c0 132.548 107.452 240 240 240s240-107.452 240-240v0-184.109l82.273-151.891z" />
<glyph unicode="&#xe93a;" glyph-name="football, soccer" d="M851.411 766.078c-86.882 86.978-206.96 140.782-339.604 140.782-265.097 0-480-214.903-480-480 0-132.644 53.804-252.722 140.778-339.6l0.004-0.004c86.882-86.978 206.96-140.782 339.604-140.782 265.097 0 480 214.903 480 480 0 132.644-53.804 252.722-140.778 339.6l-0.004 0.004zM842.485 679.010c50.148-64.853 81.618-146.409 85.138-235.152l0.025-0.796-132.28 99.545zM632.067 824.977l-116.756-86.74-122.251 87.076c35.603 11.012 76.532 17.354 118.943 17.354 42.822 0 84.134-6.466 123.013-18.474l-2.949 0.784zM233.591 542.572l-137.278-100.565c3.346 90.479 35.241 172.909 86.878 239.207l-0.695-0.927zM172.396 186.667h158.731l50.081-154.916c-86.26 29.335-157.721 83.384-207.951 153.649l-0.861 1.267zM453.971 14.734l-76.271 235.933h-242.576c-16.071 33.373-28.186 72.095-34.362 112.768l-0.285 2.285 209.933 153.792-79.295 213.726c26.514 24.393 56.558 45.596 89.126 62.631l2.302 1.097 193.56-137.868 185.482 137.8c35.006-18.218 65.163-39.544 92.055-64.357l-0.286 0.261-73.688-213.324 203.9-153.442c-6.443-43.068-18.575-81.9-35.761-117.855l1.071 2.487h-233.852l-84.091-235.806c-17.707-2.669-38.14-4.194-58.929-4.194-20.471 0-40.597 1.478-60.276 4.334l2.243-0.267zM645.182 32.528l54.968 154.139h151.454c-50.612-70.869-121.19-124.565-203.49-153.249l-2.932-0.89zM693.618 491.813l-177.911 129.26-177.911-129.26 67.956-209.146h219.91zM579.164 346.667h-126.914l-39.218 120.701 102.675 74.598 102.675-74.598z" />
<glyph unicode="&#xe93c;" glyph-name="filter-frames" d="M768 730.667h-512v-472.234h512zM704 322.433h-384v344.234h384zM880 906.667h-736c-35.33-0.041-63.959-28.67-64-63.996v-696.238c0.041-35.33 28.67-63.959 63.996-64h218.984l149.020-149.021 149.020 149.021h218.98c35.33 0.041 63.959 28.67 64 63.996v696.238c-0.041 35.33-28.67 63.959-63.996 64h-0.004zM880 146.433h-245.49l-122.51-122.51-122.51 122.51h-245.49v696.234h736z" />
<glyph unicode="&#xe93f;" glyph-name="dialpad" d="M242 906.667c-53.019 0-96-42.981-96-96s42.981-96 96-96c53.019 0 96 42.981 96 96v0c-0.061 52.995-43.005 95.939-95.994 96h-0.006zM242 778.667c-17.673 0-32 14.327-32 32s14.327 32 32 32c17.673 0 32-14.327 32-32v0c-0.021-17.665-14.335-31.979-31.998-32h-0.002zM498 906.667c-53.019 0-96-42.981-96-96s42.981-96 96-96c53.019 0 96 42.981 96 96v0c-0.061 52.995-43.005 95.939-95.994 96h-0.006zM498 778.667c-17.673 0-32 14.327-32 32s14.327 32 32 32c17.673 0 32-14.327 32-32v0c-0.021-17.665-14.335-31.979-31.998-32h-0.002zM754 714.667c53.019 0 96 42.981 96 96s-42.981 96-96 96c-53.019 0-96-42.981-96-96v0c0.061-52.995 43.005-95.939 95.994-96h0.006zM754 842.667c17.673 0 32-14.327 32-32s-14.327-32-32-32c-17.673 0-32 14.327-32 32v0c0.021 17.665 14.335 31.979 31.998 32h0.002zM242 650.667c-53.019 0-96-42.981-96-96s42.981-96 96-96c53.019 0 96 42.981 96 96v0c-0.061 52.995-43.005 95.939-95.994 96h-0.006zM242 522.667c-17.673 0-32 14.327-32 32s14.327 32 32 32c17.673 0 32-14.327 32-32v0c-0.021-17.665-14.335-31.979-31.998-32h-0.002zM498 650.667c-53.019 0-96-42.981-96-96s42.981-96 96-96c53.019 0 96 42.981 96 96v0c-0.061 52.995-43.005 95.939-95.994 96h-0.006zM498 522.667c-17.673 0-32 14.327-32 32s14.327 32 32 32c17.673 0 32-14.327 32-32v0c-0.021-17.665-14.335-31.979-31.998-32h-0.002zM754 650.667c-53.019 0-96-42.981-96-96s42.981-96 96-96c53.019 0 96 42.981 96 96v0c-0.061 52.995-43.005 95.939-95.994 96h-0.006zM754 522.667c-17.673 0-32 14.327-32 32s14.327 32 32 32c17.673 0 32-14.327 32-32v0c-0.021-17.665-14.335-31.979-31.998-32h-0.002zM242 394.667c-53.019 0-96-42.981-96-96s42.981-96 96-96c53.019 0 96 42.981 96 96v0c-0.061 52.995-43.005 95.939-95.994 96h-0.006zM242 266.667c-17.673 0-32 14.327-32 32s14.327 32 32 32c17.673 0 32-14.327 32-32v0c-0.021-17.665-14.335-31.979-31.998-32h-0.002zM498 394.667c-53.019 0-96-42.981-96-96s42.981-96 96-96c53.019 0 96 42.981 96 96v0c-0.061 52.995-43.005 95.939-95.994 96h-0.006zM498 266.667c-17.673 0-32 14.327-32 32s14.327 32 32 32c17.673 0 32-14.327 32-32v0c-0.021-17.665-14.335-31.979-31.998-32h-0.002zM754 394.667c-53.019 0-96-42.981-96-96s42.981-96 96-96c53.019 0 96 42.981 96 96v0c-0.061 52.995-43.005 95.939-95.994 96h-0.006zM754 266.667c-17.673 0-32 14.327-32 32s14.327 32 32 32c17.673 0 32-14.327 32-32v0c-0.021-17.665-14.335-31.979-31.998-32h-0.002zM498 138.667c-53.019 0-96-42.981-96-96s42.981-96 96-96c53.019 0 96 42.981 96 96v0c-0.061 52.995-43.005 95.939-95.994 96h-0.006zM498 10.667c-17.673 0-32 14.327-32 32s14.327 32 32 32c17.673 0 32-14.327 32-32v0c-0.021-17.665-14.335-31.979-31.998-32h-0.002z" />
<glyph unicode="&#xe942;" glyph-name="golf" d="M757.682 254.599c-78.937 28.418-183.236 44.068-293.682 44.068-0.751 0.002-1.64 0.003-2.53 0.003-55.565 0-110.147-4.213-163.442-12.338l5.972 0.749v229.272l304 112v76.26l-304 142.4v59.654h-64v-800h64v115.667c47.119 7.851 101.41 12.338 156.75 12.338 1.143 0 2.285-0.002 3.427-0.006h-0.177c103.242 0 199.842-14.307 272.004-40.285 70.856-25.508 95.996-54.575 95.996-71.715s-25.14-46.207-95.996-71.715c-72.162-25.979-168.762-40.285-272.004-40.285s-199.842 14.307-272.004 40.285c-70.856 25.508-95.996 54.575-95.996 71.715 0 15.78 21.338 41.663 80 65.576v68.353c-1.904-0.66-3.806-1.322-5.682-1.997-114.322-41.155-138.318-94.461-138.318-131.932s23.996-90.776 138.318-131.932c78.937-28.418 183.236-44.068 293.682-44.068s214.744 15.65 293.682 44.068c114.322 41.155 138.318 94.461 138.318 131.932s-23.996 90.776-138.318 131.932zM304 776.341l229.172-107.35-229.172-84.432zM928 378.667c0-35.346-28.654-64-64-64s-64 28.654-64 64c0 35.346 28.654 64 64 64s64-28.654 64-64z" />
<glyph unicode="&#xe944;" glyph-name="mobile-landscape" d="M928 746.667h-832c-35.33-0.041-63.959-28.67-64-63.996v-512.004c0.042-35.329 28.671-63.958 63.996-64h832.004c35.329 0.042 63.958 28.671 64 63.996v512.004c-0.041 35.33-28.67 63.959-63.996 64h-0.004zM96 170.667v512h96v-512.036l-95.998-0.005zM256 682.667h512v-512.008l-512-0.025zM928 170.667l-96-0.005v512.005h96z" />
<glyph unicode="&#xe946;" glyph-name="link-broken" d="M576-53.333h64v256h256v64h-320v-320zM448 586.667v320h-64v-256h-256v-64h320zM157.415 69.521l-2.557 2.557c-36.366 36.366-58.858 86.605-58.858 142.097s22.493 105.732 58.86 142.098l150.392 150.395h-90.508l-105.14-105.14c-47.948-47.947-77.604-114.186-77.604-187.352 0-73.163 29.655-139.401 77.6-187.348l2.557-2.557c47.98-47.876 114.209-77.481 187.352-77.481s139.372 29.605 187.357 77.485l9.135 9.135v90.511l-54.395-54.397c-36.391-36.311-86.622-58.765-142.098-58.765-55.473 0-105.703 22.452-142.097 58.764l0.004-0.004zM914.4 826.507l-2.557 2.557c-103.307 103.309-271.398 103.305-374.704 0l-9.14-9.14v-90.51l54.395 54.396c36.391 36.311 86.622 58.764 142.097 58.764 55.473 0 105.703-22.452 142.097-58.764l2.553-2.553c36.366-36.366 58.858-86.605 58.858-142.097s-22.493-105.732-58.859-142.098l-150.393-150.394h90.508l105.14 105.14c47.948 47.947 77.605 114.187 77.605 187.353 0 73.163-29.655 139.4-77.6 187.347v0z" />
<glyph unicode="&#xe947;" glyph-name="browser" d="M944 858.667h-864c-26.497-0.031-47.969-21.503-48-47.997v-768.003c0.031-26.497 21.503-47.969 47.997-48h864.003c26.497 0.031 47.969 21.503 48 47.997v768.003c-0.031 26.497-21.503 47.969-47.997 48h-0.003zM96 794.667h192v-144h-192zM928 58.667h-832v528h832zM928 650.667h-576v144h576z" />
<glyph unicode="&#xe948;" glyph-name="filter-photo" d="M880 858.667h-736c-35.33-0.041-63.959-28.67-64-63.996v-736.004c0.041-35.33 28.67-63.959 63.996-64h736.004c35.33 0.041 63.959 28.67 64 63.996v736.004c-0.041 35.33-28.67 63.959-63.996 64h-0.004zM880 58.667h-736v736h736zM241.227 415.188l0.062-4.521 0.634-45.956 164.113-52.828 51.666-164.059h108.593l51.666 164.059 164.113 52.828 0.634 45.956 0.062 4.521 0.14 10.185 0.644 46.563-157.046 53.194-61.288 181.514h-106.447l-61.288-181.515-157.046-53.194 0.644-46.563zM448 474.667l56.717 167.978h14.566l56.717-167.978 142.92-48.409c-0.097-7.037-0.106-7.671-0.203-14.708l-151.86-48.883-47.504-150.843h-14.706l-47.504 150.843-151.86 48.883c-0.097 7.037-0.106 7.671-0.203 14.708z" />
<glyph unicode="&#xe94a;" glyph-name="building" d="M880 10.667v896h-736v-896h-112v-64h960v64zM816 10.667h-272v128h-64v-128h-272v832h608zM320 330.667h64v-64h-64v64zM480 330.667h64v-64h-64v64zM640 330.667h64v-64h-64v64zM320 522.667h64v-64h-64v64zM480 522.667h64v-64h-64v64zM640 522.667h64v-64h-64v64zM320 714.667h64v-64h-64v64zM480 714.667h64v-64h-64v64zM640 714.667h64v-64h-64v64z" />
<glyph unicode="&#xe94b;" glyph-name="bullhorn" d="M858.002 906.802l-507.147-239.99h-318.871v-423.467l104.383-296.533h229.309l-93.12 256h71.694l518.114-256.145h129.471l0.166 960.135zM319.984 266.812h-112.053l0.123-73.899 66.238-182.101h-92.605l-85.703 243.469v348.531h224zM384.234 611.802l351.75 166.455v-697.717l-351.75 173.898zM927.846 10.667h-50.526l-77.336 38.233v759.642l72.396 34.26h55.607z" />
<glyph unicode="&#xe94f;" glyph-name="phone" d="M898.732 759.37l-1.369 0.857-173.187 85.322-186.926-249.234 86.004-114.674c-5.489-89.511-76.717-160.74-165.729-166.204l-0.5-0.025-114.672 86.004-249.236-186.926 85.324-173.187 0.857-1.369c8.999-14.329 24.716-23.713 42.626-23.713 0.056 0 0.112 0 0.168 0h44.68c362.118 0.001 655.672 293.555 655.672 655.672 0 0.001 0 0.002 0 0.002v-0.001 44.689c0 0.047 0 0.103 0 0.159 0 17.909-9.385 33.627-23.505 42.503l-0.209 0.122zM858.445 671.896c0-326.25-265.424-591.674-591.672-591.674h-36.16l-56.621 114.925 168.361 126.27 93.732-70.299h10.666c132.926 0.156 240.642 107.872 240.797 240.784v10.681l-70.299 93.732 126.269 168.36 114.926-56.621z" />
<glyph unicode="&#xe952;" glyph-name="flip" d="M592 858.667h64v-64h-64v64zM736 858.667h64v-64h-64v64zM592 58.667h64v-64h-64v64zM736 58.667h64v-64h-64v64zM880 858.667h64v-64h-64v64zM880 727.759h64v-66.908h-64v66.908zM880 593.94h64v-66.908h-64v66.908zM880 192.485h64v-66.908h-64v66.908zM880 460.122h64v-66.908h-64v66.908zM880 326.304h64v-66.908h-64v66.908zM880 58.667h64v-64h-64v64zM448 858.667h-336c-17.673 0-32-14.327-32-32v0-800c0-17.673 14.327-32 32-32v0h336v-48h64v960h-64zM448 58.667h-304v736h304z" />
<glyph unicode="&#xe953;" glyph-name="flip-to-back" d="M96 42.667v656h-64v-656c0.063-52.994 43.006-95.937 95.994-96h672.006v64h-672c-17.665 0.021-31.979 14.335-32 31.998v0.002zM928 202.667h64v-64h-64v64zM346.182 202.667h58.182v-64h-58.182v64zM811.637 202.667h58.182v-64h-58.182v64zM462.545 202.667h58.182v-64h-58.182v64zM578.91 202.667h58.182v-64h-58.182v64zM695.273 202.667h58.182v-64h-58.182v64zM224 202.667h64v-64h-64v64zM224 668.122h64v-58.182h-64v58.182zM224 784.485h64v-58.182h-64v58.182zM224 319.030h64v-58.182h-64v58.182zM224 435.394h64v-58.182h-64v58.182zM224 551.757h64v-58.182h-64v58.182zM224 906.667h64v-64h-64v64zM578.908 906.667h58.182v-64h-58.182v64zM462.545 906.667h58.182v-64h-58.182v64zM811.637 906.667h58.182v-64h-58.182v64zM346.182 906.667h58.182v-64h-58.182v64zM695.273 906.667h58.182v-64h-58.182v64zM928 906.667h64v-64h-64v64zM928 319.030h64v-58.182h-64v58.182zM928 784.485h64v-58.182h-64v58.182zM928 551.759h64v-58.182h-64v58.182zM928 668.122h64v-58.182h-64v58.182zM928 435.394h64v-58.182h-64v58.182z" />
<glyph unicode="&#xe954;" glyph-name="flip-to-front" d="M928 906.667h-640c-35.329-0.042-63.958-28.671-64-63.996v-640.004c0.042-35.329 28.671-63.958 63.996-64h640.004c35.329 0.042 63.958 28.671 64 63.996v640.004c-0.042 35.329-28.671 63.958-63.996 64h-0.004zM928 202.667h-640v640h640l0.041-639.998zM155.692 10.667h61.539v-64h-61.539v64zM768 10.667h61.539v-64h-61.539v64zM400.615 10.667h61.539v-64h-61.539v64zM278.155 10.667h61.537v-64h-61.537v64zM523.078 10.667h61.537v-64h-61.537v64zM645.539 10.667h61.539v-64h-61.539v64zM32 10.667h64v-64h-64v64zM32 490.052h64v-60.309h-64v60.309zM32 369.744h64v-60.309h-64v60.309zM32 129.129h64v-60.309h-64v60.309zM32 249.437h64v-60.309h-64v60.309zM32 610.359h64v-60.309h-64v60.309zM32 730.667h64v-60.309h-64v60.309z" />
<glyph unicode="&#xe955;" glyph-name="gif" d="M128 666.667v-448c0.042-35.329 28.671-63.958 63.996-64h192.004v320h-128v-64h64v-192h-128v448h192v64h-192c-35.329-0.042-63.958-28.671-64-63.996v-0.004zM480 730.667h64v-576h-64v576zM896 666.667v64h-240v-576h64v256h144v64h-144v192h176z" />
<glyph unicode="&#xe956;" glyph-name="gradient" d="M880 858.667h-736c-17.673 0-32-14.327-32-32v0-800c0-17.673 14.327-32 32-32v0h736c17.673 0 32 14.327 32 32v0 800c0 17.673-14.327 32-32 32v0zM176 378.667h96v96h-96v320h672v-320h-96v-96h96v-96h-96v-80h-96v80h-96v-80h-96v80h-96v-80h-96v80h-96zM272 378.667h96v-96h-96v96zM368 474.667h96v-96h-96v96zM464 378.667h96v-96h-96v96zM560 474.667h96v-96h-96v96zM656 378.667h96v-96h-96v96zM272 570.667h96v-96h-96v96zM464 570.667h96v-96h-96v96zM656 570.667h96v-96h-96v96z" />
<glyph unicode="&#xe959;" glyph-name="bath, bathroom" d="M928 378.667h-768v360c0 0.083 0 0.181 0 0.279 0 28.409 11.555 54.119 30.222 72.687l0.808 0.808c18.703 18.676 44.526 30.226 73.047 30.226 16.039 0 31.225-3.653 44.772-10.171l-0.62 0.269c-14.214-23.266-22.63-51.419-22.63-81.537 0-43.612 17.647-83.102 46.189-111.72l21.899-21.9-40.315-40.314 45.254-45.254 304 304-45.254 45.254-40.314-40.314-21.902 21.902c-28.608 28.53-68.088 46.171-111.688 46.171-33.734 0-65.002-10.561-90.678-28.556l0.508 0.337c-25.303 16.206-56.171 25.833-89.288 25.833-46.173 0-87.976-18.714-118.236-48.971l-0.803-0.803c-30.25-30.090-48.971-71.745-48.971-117.772 0-0.16 0-0.319 0.001-0.478v0.025-360h-64v-64h64v-61.403c0-0.005 0-0.011 0-0.017 0-5.424 0.902-10.637 2.564-15.498l-0.1 0.337 59.532-178.597c6.53-19.23 24.423-32.821 45.491-32.821 0.016 0 0.032 0 0.047 0h25.799l-23.333-80h66.666l23.334 80h416.191l24-80h66.818l-24 80h41.46c0.013 0 0.029 0 0.045 0 21.068 0 38.961 13.591 45.391 32.484l0.1 0.338 59.531 178.591c1.562 4.526 2.464 9.741 2.464 15.167 0 0.006 0 0.012 0 0.019v-0.001 61.403h64v64zM377.040 817.627c17.013 16.976 40.496 27.474 66.431 27.474s49.418-10.497 66.433-27.475l21.899-21.899-132.862-132.862-21.901 21.901c-16.976 17.013-27.473 40.496-27.473 66.431s10.497 49.418 27.475 66.433l-0.002-0.002zM864 255.86l-55.064-165.193h-593.871l-55.064 165.193v58.807h704z" />
<glyph unicode="&#xe960;" glyph-name="grain" d="M176 682.667c61.856 0 112 50.144 112 112s-50.144 112-112 112c-61.856 0-112-50.144-112-112v0c0.072-61.827 50.173-111.928 111.993-112h0.007zM176 842.667c26.51 0 48-21.49 48-48s-21.49-48-48-48c-26.51 0-48 21.49-48 48v0c0.031 26.497 21.503 47.969 47.997 48h0.003zM400 437.333c61.856 0 112 50.144 112 112s-50.144 112-112 112c-61.856 0-112-50.144-112-112v0c0.072-61.827 50.173-111.928 111.993-112h0.007zM400 597.333c26.51 0 48-21.49 48-48s-21.49-48-48-48c-26.51 0-48 21.49-48 48v0c0.031 26.497 21.503 47.969 47.997 48h0.003zM176 416.001c-61.856 0-112-50.144-112-112s50.144-112 112-112c61.856 0 112 50.144 112 112v0c-0.072 61.827-50.173 111.928-111.993 112h-0.007zM176 256.001c-26.51 0-48 21.49-48 48s21.49 48 48 48c26.51 0 48-21.49 48-48v0c-0.031-26.497-21.503-47.969-47.997-48h-0.003zM400 170.667c-61.856 0-112-50.144-112-112s50.144-112 112-112c61.856 0 112 50.144 112 112v0c-0.072 61.827-50.173 111.928-111.993 112h-0.007zM400 10.667c-26.51 0-48 21.49-48 48s21.49 48 48 48c26.51 0 48-21.49 48-48v0c-0.031-26.497-21.503-47.969-47.997-48h-0.003zM624 682.667c61.856 0 112 50.144 112 112s-50.144 112-112 112c-61.856 0-112-50.144-112-112v0c0.072-61.827 50.173-111.928 111.993-112h0.007zM624 842.667c26.51 0 48-21.49 48-48s-21.49-48-48-48c-26.51 0-48 21.49-48 48v0c0.031 26.497 21.503 47.969 47.997 48h0.003zM848 437.333c61.856 0 112 50.144 112 112s-50.144 112-112 112c-61.856 0-112-50.144-112-112v0c0.072-61.827 50.173-111.928 111.993-112h0.007zM848 597.333c26.51 0 48-21.49 48-48s-21.49-48-48-48c-26.51 0-48 21.49-48 48v0c0.031 26.497 21.503 47.969 47.997 48h0.003zM624 416.001c-61.856 0-112-50.144-112-112s50.144-112 112-112c61.856 0 112 50.144 112 112v0c-0.072 61.827-50.173 111.928-111.993 112h-0.007zM624 256.001c-26.51 0-48 21.49-48 48s21.49 48 48 48c26.51 0 48-21.49 48-48v0c-0.031-26.497-21.503-47.969-47.997-48h-0.003zM848 170.667c-61.856 0-112-50.144-112-112s50.144-112 112-112c61.856 0 112 50.144 112 112v0c-0.072 61.827-50.173 111.928-111.993 112h-0.007zM848 10.667c-26.51 0-48 21.49-48 48s21.49 48 48 48c26.51 0 48-21.49 48-48v0c-0.031-26.497-21.503-47.969-47.997-48h-0.003z" />
<glyph unicode="&#xe961;" glyph-name="grid" d="M896.906 843.573h-769.812c-17.673 0-32-14.327-32-32v0-769.812c0-17.673 14.327-32 32-32v0h769.812c17.673 0 32 14.327 32 32v0 769.812c0 17.673-14.327 32-32 32v0zM864.906 586.97h-192.603v192.603h192.603zM415.697 330.364v192.606h192.606v-192.606zM608.303 266.364v-192.603h-192.606v192.603zM351.697 330.364h-192.603v192.606h192.603zM415.697 586.97v192.603h192.606v-192.603zM672.303 522.97h192.603v-192.606h-192.603zM351.697 779.573v-192.603h-192.603v192.603zM159.094 266.364h192.603v-192.603h-192.603zM672.303 73.761v192.603h192.603v-192.603z" />
<glyph unicode="&#xe962;" glyph-name="grid-slash" d="M351.697 779.573v-53.693l64-64v117.693h192.606v-192.603h-117.695l64-64h53.695v-53.695l64-64v117.695h192.603v-192.606h-117.693l64-64h53.693v-53.693l64-64v662.902c0 17.673-14.327 32-32 32v0h-662.902l64-64zM864.906 586.97h-192.603v192.603h192.603zM77.253 905.334h-45.253v-45.255l63.094-63.094v-755.225c0-17.673 14.327-32 32-32v0h755.225l64.427-64.427h45.255v45.253zM561.715 330.364h-146.018v146.018zM159.095 522.97h192.603v-192.606h-192.604zM305.11 586.97h-146.017v146.016zM159.094 266.364h192.603v-192.603h-192.603zM415.697 266.364h192.606v-192.603h-192.606zM672.303 73.761v146.016l146.016-146.016z" />
<glyph unicode="&#xe963;" glyph-name="hdr" d="M576 730.667h-192v-576h192c35.329 0.042 63.958 28.671 64 63.996v448.004c-0.042 35.329-28.671 63.958-63.996 64h-0.004zM576 218.667h-128v448h128zM256 474.667h-128v256h-64v-576h64v256h128v-256h64v576h-64v-256zM960 474.667v192c-0.042 35.329-28.671 63.958-63.996 64h-192.004v-576h64v256h58.335l53.665-134.162v-121.838h64v134.162l-48.735 121.838h0.735c35.329 0.042 63.958 28.671 64 63.996v0.004zM768 506.667v160h128v-192h-128z" />
<glyph unicode="&#xe964;" glyph-name="account-logout" d="M154.31 394.599l549.19 0.002v64h-549.19l150.106 150.108-45.256 45.252-227.362-227.362 227.362-227.362 45.256 45.256-150.106 150.106zM320 906.667v-64h608v-832h-608v-64h672v960h-672z" />
<glyph unicode="&#xe965;" glyph-name="action-redo" d="M722.752-51.659l-269.246 269.246 45.254 45.254 223.992-223.992 223.994 223.992 45.254-45.254-269.248-269.246zM754.755-6.373h-64v552.188c0 163.684-133.167 296.852-296.851 296.852-166.459 0-296.851-126.213-296.851-287.334h-64c0 96.049 37.7 185.139 106.157 250.857 67.49 64.793 157.942 100.477 254.693 100.477 198.975 0 360.851-161.877 360.851-360.852z" />
<glyph unicode="&#xe966;" glyph-name="action-undo" d="M990.945 544.144c0 146.12-87.301 272.235-212.484 328.924q-3.995 1.809-8.041 3.523-8.092 3.428-16.38 6.47-4.143 1.52-8.333 2.941-8.38 2.841-16.937 5.279c-29.568 8.704-63.536 13.712-98.675 13.712s-69.108-5.008-101.232-14.349l2.557 0.637q-8.556-2.436-16.937-5.279-4.189-1.421-8.333-2.941-8.286-3.040-16.38-6.47-4.046-1.714-8.041-3.523c-125.183-56.688-212.485-182.803-212.485-328.924v-474.966l-191.989 191.989-45.254-45.254 269.246-269.246 269.246 269.246-45.254 45.254-191.995-191.995v474.97c0 145.78 105.63 267.356 244.372 292.207 15.778 2.955 33.932 4.645 52.479 4.645s36.7-1.69 54.313-4.925l-1.834 0.28c138.742-24.851 244.372-146.426 244.372-292.207l64 0.002z" />
<glyph unicode="&#xe967;" glyph-name="applications, apps" d="M176 874.667c-70.692 0-128-57.308-128-128s57.308-128 128-128c70.692 0 128 57.308 128 128v0c-0.082 70.659-57.341 127.918-127.992 128h-0.008zM176 682.667c-35.346 0-64 28.654-64 64s28.654 64 64 64c35.346 0 64-28.654 64-64v0c-0.041-35.33-28.67-63.959-63.996-64h-0.004zM512 874.667c-70.692 0-128-57.308-128-128s57.308-128 128-128c70.692 0 128 57.308 128 128v0c-0.082 70.659-57.341 127.918-127.992 128h-0.008zM512 682.667c-35.346 0-64 28.654-64 64s28.654 64 64 64c35.346 0 64-28.654 64-64v0c-0.041-35.33-28.67-63.959-63.996-64h-0.004zM848 618.667c70.692 0 128 57.308 128 128s-57.308 128-128 128c-70.692 0-128-57.308-128-128v0c0.082-70.659 57.341-127.918 127.992-128h0.008zM848 810.667c35.346 0 64-28.654 64-64s-28.654-64-64-64c-35.346 0-64 28.654-64 64v0c0.041 35.33 28.67 63.959 63.996 64h0.004zM176 554.667c-70.692 0-128-57.308-128-128s57.308-128 128-128c70.692 0 128 57.308 128 128v0c-0.082 70.659-57.341 127.918-127.992 128h-0.008zM176 362.667c-35.346 0-64 28.654-64 64s28.654 64 64 64c35.346 0 64-28.654 64-64v0c-0.041-35.33-28.67-63.959-63.996-64h-0.004zM512 554.667c-70.692 0-128-57.308-128-128s57.308-128 128-128c70.692 0 128 57.308 128 128v0c-0.082 70.659-57.341 127.918-127.992 128h-0.008zM512 362.667c-35.346 0-64 28.654-64 64s28.654 64 64 64c35.346 0 64-28.654 64-64v0c-0.041-35.33-28.67-63.959-63.996-64h-0.004zM848 554.667c-70.692 0-128-57.308-128-128s57.308-128 128-128c70.692 0 128 57.308 128 128v0c-0.082 70.659-57.341 127.918-127.992 128h-0.008zM848 362.667c-35.346 0-64 28.654-64 64s28.654 64 64 64c35.346 0 64-28.654 64-64v0c-0.041-35.33-28.67-63.959-63.996-64h-0.004zM176 234.667c-70.692 0-128-57.308-128-128s57.308-128 128-128c70.692 0 128 57.308 128 128v0c-0.082 70.659-57.341 127.918-127.992 128h-0.008zM176 42.667c-35.346 0-64 28.654-64 64s28.654 64 64 64c35.346 0 64-28.654 64-64v0c-0.041-35.33-28.67-63.959-63.996-64h-0.004zM512 234.667c-70.692 0-128-57.308-128-128s57.308-128 128-128c70.692 0 128 57.308 128 128v0c-0.082 70.659-57.341 127.918-127.992 128h-0.008zM512 42.667c-35.346 0-64 28.654-64 64s28.654 64 64 64c35.346 0 64-28.654 64-64v0c-0.041-35.33-28.67-63.959-63.996-64h-0.004zM848 234.667c-70.692 0-128-57.308-128-128s57.308-128 128-128c70.692 0 128 57.308 128 128v0c-0.082 70.659-57.341 127.918-127.992 128h-0.008zM848 42.667c-35.346 0-64 28.654-64 64s28.654 64 64 64c35.346 0 64-28.654 64-64v0c-0.041-35.33-28.67-63.959-63.996-64h-0.004z" />
<glyph unicode="&#xe968;" glyph-name="applications-settings, apps-settings" d="M176 618.667c70.692 0 128 57.308 128 128s-57.308 128-128 128c-70.692 0-128-57.308-128-128v0c0.082-70.659 57.341-127.918 127.992-128h0.008zM176 810.667c35.346 0 64-28.654 64-64s-28.654-64-64-64c-35.346 0-64 28.654-64 64v0c0.041 35.33 28.67 63.959 63.996 64h0.004zM512 874.667c-70.692 0-128-57.308-128-128s57.308-128 128-128c70.692 0 128 57.308 128 128v0c-0.082 70.659-57.341 127.918-127.992 128h-0.008zM512 682.667c-35.346 0-64 28.654-64 64s28.654 64 64 64c35.346 0 64-28.654 64-64v0c-0.041-35.33-28.67-63.959-63.996-64h-0.004zM848 618.667c70.692 0 128 57.308 128 128s-57.308 128-128 128c-70.692 0-128-57.308-128-128v0c0.082-70.659 57.341-127.918 127.992-128h0.008zM848 810.667c35.346 0 64-28.654 64-64s-28.654-64-64-64c-35.346 0-64 28.654-64 64v0c0.041 35.33 28.67 63.959 63.996 64h0.004zM176 554.667c-70.692 0-128-57.308-128-128s57.308-128 128-128c70.692 0 128 57.308 128 128v0c-0.082 70.659-57.341 127.918-127.992 128h-0.008zM176 362.667c-35.346 0-64 28.654-64 64s28.654 64 64 64c35.346 0 64-28.654 64-64v0c-0.041-35.33-28.67-63.959-63.996-64h-0.004zM512 554.667c-70.692 0-128-57.308-128-128s57.308-128 128-128c70.692 0 128 57.308 128 128v0c-0.082 70.659-57.341 127.918-127.992 128h-0.008zM512 362.667c-35.346 0-64 28.654-64 64s28.654 64 64 64c35.346 0 64-28.654 64-64v0c-0.041-35.33-28.67-63.959-63.996-64h-0.004zM848 554.667c-70.692 0-128-57.308-128-128s57.308-128 128-128c70.692 0 128 57.308 128 128v0c-0.082 70.659-57.341 127.918-127.992 128h-0.008zM848 362.667c-35.346 0-64 28.654-64 64s28.654 64 64 64c35.346 0 64-28.654 64-64v0c-0.041-35.33-28.67-63.959-63.996-64h-0.004zM848 234.667c-70.692 0-128-57.308-128-128s57.308-128 128-128c70.692 0 128 57.308 128 128v0c-0.082 70.659-57.341 127.918-127.992 128h-0.008zM848 42.667c-35.346 0-64 28.654-64 64s28.654 64 64 64c35.346 0 64-28.654 64-64v0c-0.041-35.33-28.67-63.959-63.996-64h-0.004zM112 122.667h64v-64h-64v64zM304 122.667h64v-64h-64v64zM496 122.667h64v-64h-64v64z" />
<glyph unicode="&#xe969;" glyph-name="arrow-bottom" d="M735.994 261.167l-191.996-191.994v834.488h-64v-834.484l-191.992 191.99-45.254-45.254 269.248-269.246 269.248 269.246-45.254 45.254z" />
<glyph unicode="&#xe96a;" glyph-name="arrow-circle-bottom" d="M512 906.667c-265.097 0-480-214.903-480-480s214.903-480 480-480 480 214.903 480 480-214.903 480-480 480zM806.156 132.511c-74.965-74.746-178.411-120.963-292.652-120.963-228.92 0-414.496 185.576-414.496 414.496s185.576 414.496 414.496 414.496c228.92 0 414.496-185.576 414.496-414.496 0-58.245-12.014-113.684-33.698-163.974l1.032 2.691c-22.047-51.416-52.136-95.309-89.169-132.241l-0.009-0.009zM544.224 309.705v372.962h-64v-372.962l-150.106 150.104-45.254-45.254 227.36-227.36 227.362 227.36-45.254 45.254-150.108-150.104z" />
<glyph unicode="&#xe96b;" glyph-name="arrow-circle-left" d="M512 906.584c-265.097 0-480-214.903-480-480s214.903-480 480-480 480 214.903 480 480-214.903 480-480 480zM806.156 132.427c-74.965-74.747-178.412-120.964-292.654-120.964-228.921 0-414.499 185.577-414.499 414.499s185.577 414.499 414.499 414.499c228.921 0 414.499-185.577 414.499-414.499 0-58.245-12.013-113.684-33.698-163.974l1.032 2.69c-22.047-51.416-52.136-95.308-89.169-132.241l-0.009-0.009zM545.228 608.693l-45.256 45.254-227.362-227.362 227.362-227.362 45.256 45.254-150.108 150.108h374.88v64h-374.88l150.108 150.108z" />
<glyph unicode="&#xe96c;" glyph-name="arrow-circle-right" d="M512.5 906.584c-265.097 0-480-214.903-480-480s214.903-480 480-480 480 214.903 480 480-214.903 480-480 480zM806.656 132.427c-74.965-74.747-178.413-120.965-292.656-120.965-228.922 0-414.5 185.578-414.5 414.5s185.578 414.5 414.5 414.5c228.922 0 414.5-185.578 414.5-414.5 0-58.245-12.014-113.684-33.698-163.975l1.032 2.69c-22.047-51.416-52.136-95.308-89.169-132.241l-0.009-0.009zM479.274 608.693l150.106-150.108h-373.106v-64h373.106l-150.106-150.108 45.254-45.254 227.362 227.362-227.362 227.362-45.254-45.254z" />
<glyph unicode="&#xe96d;" glyph-name="arrow-circle-top" d="M512 906.667c-265.097 0-480-214.903-480-480s214.903-480 480-480 480 214.903 480 480-214.903 480-480 480zM806.156 132.511c-74.965-74.747-178.412-120.964-292.654-120.964-228.921 0-414.499 185.577-414.499 414.499s185.577 414.499 414.499 414.499c228.921 0 414.499-185.577 414.499-414.499 0-58.245-12.013-113.684-33.698-163.974l1.032 2.69c-22.047-51.415-52.135-95.308-89.169-132.24l-0.010-0.010zM284.638 456.613l45.256-45.254 150.106 150.104v-374.796h64v374.796l150.106-150.104 45.256 45.254-227.362 227.36-227.362-227.36z" />
<glyph unicode="&#xe96e;" glyph-name="arrow-left" d="M994.666 458.669h-834.482l191.99 191.99-45.254 45.254-269.246-269.246 269.246-269.246 45.254 45.254-191.994 191.994h834.486v64z" />
<glyph unicode="&#xe96f;" glyph-name="arrow-right" d="M719.746 695.913l-45.254-45.254 191.994-191.994-834.486-0.002v-64h834.48l-191.988-191.988 45.254-45.254 269.25 269.246-269.25 269.246z" />
<glyph unicode="&#xe970;" glyph-name="arrow-thick-bottom" d="M511.363-50.604l-479.363 480.668v76.555l287.875 0.016v400.033h384v-400.014l288.029 0.016-0.070-77.375zM109.861 442.622l401.592-402.684 403.203 402.727-274.781-0.016v400.018h-256v-400.029z" />
<glyph unicode="&#xe971;" glyph-name="circle" d="M513.2-53.333c0 0 0 0 0 0 264.395 0 478.729 214.334 478.729 478.729 0 132.197-53.584 251.88-140.217 338.513v0c-86.623 86.576-206.267 140.12-338.416 140.12-264.395 0-478.729-214.334-478.729-478.729 0-132.15 53.545-251.793 140.122-338.419l-0.002 0.002c86.156-86.615 205.425-140.219 337.214-140.219 0.456 0 0.913 0.001 1.369 0.002h-0.071zM513.2 840.127c228.683 0 414.729-186.047 414.729-414.73s-186.047-414.73-414.729-414.73-414.728 186.047-414.728 414.729 186.047 414.73 414.728 414.73z" />
<glyph unicode="&#xe972;" glyph-name="sim" d="M768 858.667h-306.746c-0.051 0-0.111 0-0.171 0-17.619 0-33.564-7.166-45.080-18.743l-221.257-221.257c-11.58-11.518-18.746-27.464-18.746-45.083 0-0.060 0-0.12 0-0.181v0.009-530.746c0.042-35.329 28.671-63.958 63.996-64h528.004c35.329 0.042 63.958 28.671 64 63.996v752.004c-0.042 35.329-28.671 63.958-63.996 64h-0.004zM768 42.667h-528v530.746l221.254 221.254h306.746zM416 106.667h288v400h-288zM480 442.667h160v-272h-160z" />
<glyph unicode="&#xe977;" glyph-name="golf-alt" d="M323.692 298.667h384l9.846 64h-384l-9.846-64zM934.243 906.667l-32.84-224h-59.054l36.63 224h-64.85l-70.642-432h-431.85c-46.651-0.042-85.518-33.318-94.205-77.428l-0.1-0.609-18.708-98.213c-93.075-5.127-166.608-81.851-166.608-175.749 0-97.202 78.798-176 176-176 80.109 0 147.717 53.521 169.018 126.756l0.31 1.244h250.753c144.869 0.001 264.756 106.964 284.992 246.224l0.185 1.553 85.651 584.223zM208 10.667c-61.856 0-112 50.144-112 112s50.144 112 112 112c61.856 0 112-50.144 112-112v0c-0.072-61.827-50.173-111.928-111.993-112h-0.007zM849.926 331.533c-6.241-43.201-24.070-81.4-50.199-112.368l0.273 0.333c-16.116-19.172-34.95-35.39-56.047-48.264l-0.999-0.567c-32.758-20.082-72.414-31.982-114.849-32h-244.84c-1.629 17.675-5.639 33.955-11.729 49.177l0.416-1.177h318.51l9.846 64h-371.642q-5.252 4.954-10.901 9.471c-15.786 12.732-34.251 22.938-54.326 29.622l-1.241 0.358 18.007 94.537c2.928 14.907 15.884 25.999 31.433 26.013h486.234l34.013 208h60.137z" />
<glyph unicode="&#xe978;" glyph-name="cloud" d="M765.66 42.667h-493.52c-61.465 0-122.742 25.449-168.12 69.824-46.444 45.414-72.020 104.699-72.020 166.938 0.048 61.508 25.469 117.070 66.36 156.791l0.053 0.051c33.423 32.685 76.25 55.884 124.047 65.165l1.541 0.249v4.982c0 158.805 129.195 288 287.998 288s288.002-129.195 288.002-288v-2.906c111.432-15.877 192-107.457 192-224.332 0-62.54-22.75-121.44-64.060-165.854-40.246-43.657-97.719-70.909-161.556-70.909-0.254 0-0.509 0-0.763 0.001h0.039zM512 730.667c-123.654-0.145-223.855-100.346-224-223.986v-62.825l-29.727-2.117c-90.993-6.478-162.273-77.773-162.273-162.31 0-92.031 82.309-172.762 176.14-172.762h493.52c91.031 0 162.34 75.887 162.34 172.762 0 93.133-67.461 161.582-160.404 162.758l-31.596 0.4v64.080c-0.145 123.654-100.346 223.855-223.986 224h-0.014z" />
<glyph unicode="&#xe979;" glyph-name="cloud-download" d="M544 69.179v451.136h-64v-451.136l-103.764 103.764-45.256-45.254 181.020-181.022 181.020 181.022-45.256 45.254-103.764-103.764zM800 616.315c0 158.805-129.196 288-288 288s-288-129.195-288-288c-106.039 0-192-85.961-192-192s85.961-192 192-192h160v64h-160c-70.692 0-128 57.308-128 128s57.308 128 128 128v0h64v64c0 123.712 100.288 224 224 224s224-100.288 224-224v0-64h64c70.692 0 128-57.308 128-128s-57.308-128-128-128v0h-160v-64h160c106.039 0 192 85.961 192 192s-85.961 192-192 192v0z" />
<glyph unicode="&#xe97a;" glyph-name="cloud-upload" d="M692.462 369.175l-180.384 180.384-180.384-180.384 45.254-45.254 103.13 103.13v-480.384h64v480.384l103.13-103.13 45.254 45.254zM800 615.761v2.906c0 158.805-129.197 288-288.002 288s-287.998-129.195-287.998-288v-4.982c-49.337-9.529-92.164-32.729-125.633-65.458l0.045 0.044c-40.944-39.772-66.364-95.334-66.412-156.833v-0.009c0-62.238 25.576-121.524 72.020-166.938 45.378-44.375 106.656-69.824 168.12-69.824h127.86v64h-127.86c-93.831 0-176.14 80.73-176.14 172.762 0 84.537 71.28 155.832 162.273 162.31l29.727 2.117v62.811c0 123.712 100.288 224 224 224s224-100.288 224-224v0-64.080l31.596-0.4c92.944-1.176 160.404-69.625 160.404-162.758 0-96.875-71.309-172.762-162.34-172.762h-141.66v-64h141.66c0.215-0.001 0.469-0.001 0.724-0.001 63.837 0 121.31 27.252 161.418 70.757l0.139 0.152c41.31 44.414 64.060 103.314 64.060 165.854 0 116.875-80.568 208.455-192 224.332z" />
<glyph unicode="&#xe97b;" glyph-name="cloudy" d="M799.334 408.917v7.627c0 158.805-129.196 288-288 288-4.404 0-8.781-0.115-13.138-0.313-15.8 114.896-113.335 202.446-231.318 202.446-128.89 0-233.377-104.486-233.377-233.377 0-113.954 81.673-208.833 189.677-229.292l1.454-0.229c-0.845-8.968-1.296-18.050-1.296-27.235v-7.627c-109.873-20.282-192-115.344-192-229.587 0-128.82 104.422-233.251 233.238-233.266h493.519c128.818 0.014 233.241 104.446 233.241 233.266 0 114.244-82.127 209.305-190.563 229.366l-1.437 0.221zM97.5 673.292c0 0.007 0 0.014 0 0.022 0 93.531 75.822 169.353 169.353 169.353 86.158 0 157.288-64.339 167.968-147.592l0.088-0.844c-93.362-26.517-166.247-96.294-196.579-185.715l-0.6-2.038c-80.114 14.474-140.11 83.62-140.23 166.8v0.013zM758.093 10.063h-493.519c-0.001 0-0.002 0-0.004 0-93.467 0-169.237 75.77-169.237 169.237 0 90.727 71.393 164.78 161.064 169.043l0.383 0.014 30.555 1.38v66.806c0 123.712 100.288 224 224 224s224-100.288 224-224v0-66.805l30.555-1.38c90.054-4.278 161.447-78.331 161.447-169.058 0-93.467-75.77-169.237-169.237-169.237-0.002 0-0.004 0-0.006 0v0z" />
<glyph unicode="&#xe97d;" glyph-name="coffee" d="M383 186.667h194c123.102 0.143 222.856 99.898 223 222.986v33.014h48c79.529 0 144 64.471 144 144s-64.471 144-144 144v0h-688v-321c0.143-123.102 99.898-222.856 222.986-223h0.014zM800 666.667h48c44.183 0 80-35.817 80-80s-35.817-80-80-80v0h-48zM224 666.667h512v-257c-0.102-87.772-71.228-158.898-158.99-159h-194.010c-87.772 0.102-158.898 71.228-159 158.99v0.010zM32 106.667h960v-64h-960v64z" />
<glyph unicode="&#xe97e;" glyph-name="child, baby" d="M850.78 538.597c-48.376 111.571-147.157 193.296-266.809 217.103l-2.347 0.389 53.512 85.618-54.272 33.92-70.61-112.976c-150.582-0.72-279.727-91.749-336.114-221.674l-0.92-2.38c-78.328-1.524-141.241-65.38-141.241-143.93s62.913-142.406 141.099-143.928l0.142-0.002c57.544-132.831 187.507-224.071 338.78-224.071s281.236 91.24 337.86 221.69l0.92 2.38c78.328 1.524 141.241 65.38 141.241 143.93s-62.913 142.406-141.099 143.928l-0.142 0.002zM905.084 338.647c-14.146-14.458-33.737-23.538-55.449-23.919l-0.071-0.001-41.449-0.788-16.228-38.148c-47.533-109.749-154.906-185.136-279.887-185.136s-232.354 75.387-279.127 183.17l-0.76 1.967-16.228 38.148-41.449 0.788c-43.496 0.858-78.428 36.32-78.428 79.941s34.932 79.084 78.348 79.94l0.080 0.001 41.449 0.788 16.228 38.148c47.533 109.749 154.906 185.136 279.887 185.136s232.354-75.387 279.127-183.169l0.76-1.967 16.228-38.148 41.449-0.788c43.499-0.849 78.436-36.312 78.436-79.934 0-21.827-8.747-41.611-22.927-56.039l0.011 0.011zM336 474.667h80v-80h-80v80zM608 474.667h80v-80h-80v80zM512 170.667c88.366 0 160 71.634 160 160v0h-320c0-88.366 71.634-160 160-160v0z" />
<glyph unicode="&#xe981;" glyph-name="arrow-thick-from-bottom" d="M512.394 906.667l-400.394-399.986v-77.264h240v-288h320v288h240v77.246zM608 493.417v-288h-192v288h-226.722l323.070 322.742 322.42-322.742zM112 13.417h800v-64h-800v64z" />
<glyph unicode="&#xe982;" glyph-name="arrow-thick-from-left" d="M592.015 826.667h-77.265v-240h-288v-320h288v-240h77.245l400.005 399.605zM578.75 103.899v226.768h-288v192h288v226.723l322.74-323.070zM34.75 826.667h64v-800h-64v800z" />
<glyph unicode="&#xe983;" glyph-name="arrow-thick-from-right" d="M509.25 826.667h-77.265l-399.985-400.395 400.005-399.605h77.245v240h288v320h-288zM733.25 522.667v-192h-288v-226.768l-322.74 322.42 322.74 323.070v-226.723zM925.25 826.667h64v-800h-64v800z" />
<glyph unicode="&#xe984;" glyph-name="rowing" d="M605.14 726.182c11.024-7.208 24.525-11.496 39.027-11.496 39.76 0 71.991 32.231 71.991 71.991s-32.231 71.991-71.991 71.991c-39.76 0-71.991-32.231-71.991-71.991 0-0.003 0-0.007 0-0.010v0.001c0-0.054 0-0.119 0-0.183 0-25.201 13.013-47.363 32.686-60.133l0.278-0.169zM839.799 145.294l-99.725 99.724-149.242 39.031-214.487 222.618h119.803l79.852 108.131v-235.654l64.158-67.075 63.842-12.768v376.739h-162.333l-77.815-105.373h-149.168l-67.64 70.203-46.088-44.406 225.754-234.312-255.322-215.008 1.558-1.85h-140.945v-64h464v64h-227.452l202.667 170.667 69.237-71.862 41.235-157.477 119.268-119.266c8.686-8.688 20.687-14.062 33.943-14.062s25.255 5.373 33.941 14.060l90.511 90.51q0.1 0.1 0.2 0.2c13.747 14.181 32.913 23.040 54.15 23.229h78.301v64zM734.896 23.923l-95.69 95.691-24.071 91.926 91.957-24.049 95.688-95.687z" />
<glyph unicode="&#xe985;" glyph-name="face" d="M512 906.667c-265.097 0-480-214.903-480-480s214.903-480 480-480 480 214.903 480 480-214.903 480-480 480zM806.156 132.511c-74.965-74.747-178.412-120.964-292.654-120.964-228.921 0-414.499 185.577-414.499 414.499s185.577 414.499 414.499 414.499c228.921 0 414.499-185.577 414.499-414.499 0-58.245-12.013-113.684-33.698-163.974l1.032 2.69c-22.047-51.415-52.135-95.308-89.169-132.24l-0.010-0.010zM256 554.667h80v-80h-80v80zM672 554.667h80v-80h-80v80zM464 324.771c0 0.989 0.142 1.944 0.407 2.847l-0.018-0.072 63.611 222.64v52.481h-64v-43.519l-61.147-214.018c-1.811-6.1-2.853-13.11-2.853-20.362 0-40.925 33.176-74.101 74.101-74.101 0.001 0 0.002 0 0.002 0h117.896v64h-117.896c-5.577 0.006-10.097 4.526-10.104 10.103v0.001z" />
<glyph unicode="&#xe986;" glyph-name="face-dead" d="M512 906.667c-265.097 0-480-214.903-480-480s214.903-480 480-480 480 214.903 480 480-214.903 480-480 480zM806.156 132.511c-74.965-74.747-178.413-120.965-292.656-120.965-228.922 0-414.5 185.578-414.5 414.5s185.578 414.5 414.5 414.5c228.922 0 414.5-185.578 414.5-414.5 0-58.245-12.014-113.684-33.698-163.975l1.032 2.69c-22.047-51.416-52.136-95.309-89.169-132.241l-0.009-0.009zM336 298.667h352v-64h-352v64zM421.26 482.583l-48.084 42.742 42.74 48.082-47.832 42.52-42.742-48.084-48.082 42.74-42.52-47.832 48.084-42.742-42.74-48.082 47.832-42.52 42.742 48.084 48.082-42.74 42.52 47.832zM767.916 573.407l-47.832 42.52-42.742-48.084-48.082 42.74-42.52-47.832 48.084-42.742-42.74-48.082 47.832-42.52 42.742 48.084 48.082-42.74 42.52 47.832-48.084 42.742 42.74 48.082z" />
<glyph unicode="&#xe987;" glyph-name="frown, sad" d="M512 906.667c-265.097 0-480-214.903-480-480s214.903-480 480-480 480 214.903 480 480-214.903 480-480 480zM806.156 132.511c-74.965-74.746-178.411-120.963-292.652-120.963-228.92 0-414.496 185.576-414.496 414.496s185.576 414.496 414.496 414.496c228.92 0 414.496-185.576 414.496-414.496 0-58.245-12.014-113.684-33.698-163.974l1.032 2.691c-22.047-51.416-52.136-95.309-89.169-132.241l-0.009-0.009zM304 538.667h80v-80h-80v80zM640 538.667h80v-80h-80v80zM512 362.667c-97.156-0.114-175.886-78.844-176-175.989v-0.011h64c0 61.856 50.144 112 112 112s112-50.144 112-112v0h64c-0.114 97.156-78.844 175.886-175.989 176h-0.011z" />
<glyph unicode="&#xe988;" glyph-name="meh" d="M512 906.667c-265.097 0-480-214.903-480-480s214.903-480 480-480 480 214.903 480 480-214.903 480-480 480zM806.156 132.511c-74.965-74.746-178.411-120.963-292.652-120.963-228.92 0-414.496 185.576-414.496 414.496s185.576 414.496 414.496 414.496c228.92 0 414.496-185.576 414.496-414.496 0-58.245-12.014-113.684-33.698-163.974l1.032 2.691c-22.047-51.416-52.136-95.308-89.169-132.241l-0.009-0.009zM304 538.667h80v-80h-80v80zM640 538.667h80v-80h-80v80zM336 298.667h352v-64h-352v64z" />
<glyph unicode="&#xe989;" glyph-name="mood-bad" d="M512 906.667c-265.097 0-480-214.903-480-480s214.903-480 480-480 480 214.903 480 480-214.903 480-480 480zM806.156 132.511c-74.965-74.746-178.411-120.963-292.652-120.963-228.92 0-414.496 185.576-414.496 414.496s185.576 414.496 414.496 414.496c228.92 0 414.496-185.576 414.496-414.496 0-58.245-12.014-113.684-33.698-163.974l1.032 2.691c-22.047-51.416-52.136-95.309-89.17-132.241l-0.009-0.009zM304 538.667h80v-80h-80v80zM640 538.667h80v-80h-80v80zM512 378.667c-114.875 0-208-93.125-208-208v0h416c0 114.875-93.125 208-208 208v0z" />
<glyph unicode="&#xe98a;" glyph-name="mood-good" d="M512 906.667c-265.097 0-480-214.903-480-480s214.903-480 480-480 480 214.903 480 480-214.903 480-480 480zM806.156 132.511c-74.965-74.747-178.412-120.964-292.654-120.964-228.921 0-414.499 185.577-414.499 414.499s185.577 414.499 414.499 414.499c228.921 0 414.499-185.577 414.499-414.499 0-58.245-12.013-113.684-33.698-163.974l1.032 2.69c-22.047-51.415-52.135-95.308-89.169-132.24l-0.010-0.010zM304 538.667h80v-80h-80v80zM640 538.667h80v-80h-80v80zM512 170.667c114.875 0 208 93.125 208 208v0h-416c0-114.875 93.125-208 208-208v0z" />
<glyph unicode="&#xe98b;" glyph-name="mood-very-bad" d="M512 906.667c-265.097 0-480-214.903-480-480s214.903-480 480-480 480 214.903 480 480-214.903 480-480 480zM806.156 132.511c-74.965-74.747-178.412-120.964-292.654-120.964-228.921 0-414.499 185.577-414.499 414.499s185.577 414.499 414.499 414.499c228.921 0 414.499-185.577 414.499-414.499 0-58.245-12.013-113.684-33.698-163.974l1.032 2.69c-22.047-51.415-52.135-95.308-89.169-132.24l-0.010-0.010zM512 378.667c-114.875 0-208-93.125-208-208v0h416c0 114.875-93.125 208-208 208v0zM234.74 562.75l42.52 47.835 144-128-42.52-47.835-144 128zM592.083 471.927l128.001 143.999 47.834-42.52-128.001-143.999-47.834 42.52z" />
<glyph unicode="&#xe98c;" glyph-name="mood-very-good" d="M512 906.667c-265.097 0-480-214.903-480-480s214.903-480 480-480 480 214.903 480 480-214.903 480-480 480zM806.156 132.511c-74.965-74.747-178.413-120.965-292.656-120.965-228.922 0-414.5 185.578-414.5 414.5s185.578 414.5 414.5 414.5c228.922 0 414.5-185.578 414.5-414.5 0-58.245-12.014-113.684-33.698-163.975l1.032 2.69c-22.047-51.416-52.136-95.309-89.169-132.241l-0.009-0.009zM512 170.667c114.875 0 208 93.125 208 208v0h-416c0-114.875 93.125-208 208-208v0zM411.514 482.083l40.972 49.168-116.486 97.070-116.486-97.070 40.972-49.168 75.514 62.93 75.514-62.93zM571.514 531.251l40.972-49.168 75.514 62.93 75.514-62.93 40.972 49.168-116.486 97.070-116.486-97.070z" />
<glyph unicode="&#xe98f;" glyph-name="at" d="M991.652 474.667c-2.355 57.331-16.029 110.912-38.833 159.347l1.068-2.523c-26 55.637-60.719 102.93-102.946 142.27l-0.273 0.251c-91.252 85.544-211.527 132.654-338.669 132.654-265.097 0-480-214.903-480-480 0-132.548 53.726-252.548 140.589-339.411v0c86.863-86.863 206.862-140.589 339.411-140.589 130.827 0 249.429 52.34 336.010 137.221l-0.079-0.077-44.793 45.711c-74.618-73.483-177.099-118.857-290.177-118.857-0.338 0-0.675 0-1.013 0.001h0.052c-229.383 0-416 186.617-416 416s186.617 416 416 416c225.495 0 416-175.851 416-384v-72c0-57.346-50.243-104-112-104s-112 46.654-112 104v232h-64v-53.503c-35.585 33.123-83.465 53.453-136.093 53.453-110.443 0-199.975-89.532-199.975-199.975s89.532-199.975 199.975-199.975c65.914 0 124.38 31.89 160.81 81.083l0.383 0.541c30.812-48.864 86.92-81.624 150.9-81.624 97.047 0 176 75.364 176 168v88zM504 282.667c-75.111 0-136 60.889-136 136s60.889 136 136 136c75.111 0 136-60.889 136-136v0c-0.088-75.075-60.925-135.912-135.992-136h-0.008z" />
<glyph unicode="&#xe990;" glyph-name="book" d="M203.333 138.667h724.667v768h-726.667c-66.921-0.222-121.111-54.412-121.333-121.312v-707.188h0.022c-0.002-0.302-0.022-0.602-0.022-0.905 0-70.79 55.563-130.595 121.333-130.595h726.667v64h-726.667c-30.006 0-57.333 31.741-57.333 66.595 0 33.285 27.171 61.405 59.333 61.405zM720 842v-345.632l-96.793 84.98-95.207-84.48v345.132zM464 842.667v-432h63.281l96.15 85.318 97.179-85.318h63.39v432h80v-640h-591.84l-0.151 640zM201.333 842.667h6.674l0.152-640h-4.827c-21.83-0.003-42.292-5.855-59.906-16.074l0.573 0.307v597.934c0 0.055 0 0.119 0 0.184 0 31.728 25.631 57.469 57.316 57.649h0.017z" />
<glyph unicode="&#xe992;" glyph-name="bookmark" d="M848-53.333h-70.5l-265.484 229.62-265.082-229.62h-70.934v960h672zM240 842.667v-817.335l271.984 235.599 272.016-235.269v817.006z" />
<glyph unicode="&#xe994;" glyph-name="calendar" d="M944 746.667h-176v112h-64v-112h-384v112h-64v-112h-176c-26.497-0.031-47.969-21.503-48-47.997v-672.003c0.031-26.497 21.503-47.969 47.997-48h864.003c26.497 0.031 47.969 21.503 48 47.997v672.003c-0.031 26.497-21.503 47.969-47.997 48h-0.003zM928 42.667h-832v640h160v-80h64v80h384v-80h64v80h160zM224 490.667h64v-64h-64v64zM400 490.667h64v-64h-64v64zM560 490.667h64v-64h-64v64zM736 490.667h64v-64h-64v64zM224 346.667h64v-64h-64v64zM400 346.667h64v-64h-64v64zM560 346.667h64v-64h-64v64zM736 346.667h64v-64h-64v64zM224 202.667h64v-64h-64v64zM400 202.667h64v-64h-64v64zM560 202.667h64v-64h-64v64zM736 202.667h64v-64h-64v64z" />
<glyph unicode="&#xe995;" glyph-name="calendar-check" d="M944 746.667h-176v112h-64v-112h-384v112h-64v-112h-176c-26.497-0.031-47.969-21.503-48-47.997v-672.003c0.031-26.497 21.503-47.969 47.997-48h864.003c26.497 0.031 47.969 21.503 48 47.997v672.003c-0.031 26.497-21.503 47.969-47.997 48h-0.003zM928 42.667h-832v640h160v-80h64v80h384v-80h64v80h160zM486.794 311.921l-108.77 108.77-45.254-45.256 154.024-154.022 251.23 251.23-45.256 45.254-205.974-205.976z" />
<glyph unicode="&#xe998;" glyph-name="running" d="M706.829 538.667l-61.96 115.71-121.434 40.478-0.282-0.863-188.733-53.925c-26.967-7.978-46.325-32.484-46.42-61.526v-167.874h64v167.861l147.199 42.057-65.024-199.265-0.31 0.111-58.928-164.998c-4.624-12.468-16.416-21.192-30.246-21.192-3.579 0-7.021 0.584-10.236 1.662l0.227-0.066-132.562 44.187-20.24-60.715 132.563-44.188c9.059-3.123 19.498-4.926 30.358-4.926 41.44 0 76.748 26.257 90.193 63.043l0.213 0.667 48.464 135.698 34.346-11.207 96.61-96.609c5.791-5.761 9.374-13.735 9.374-22.547 0-0.029 0-0.058 0-0.088v0.005-213.49h64v213.49c0 0.077 0 0.167 0 0.258 0 26.429-10.749 50.347-28.115 67.621l-96.534 96.534 53.567 164.153 38.537-69.367c8.362-14.831 24.009-24.683 41.958-24.689h166.587v64zM573.656 719.253c12.402-10.418 28.542-16.747 46.161-16.747 39.76 0 71.992 32.232 71.992 71.992s-32.232 71.992-71.992 71.992c-39.76 0-71.992-32.232-71.992-71.992 0-0.003 0-0.005 0-0.008v0c0-0.039 0-0.085 0-0.131 0-22.1 9.999-41.864 25.719-55.016l0.113-0.092z" />
<glyph unicode="&#xe999;" glyph-name="swimming" d="M446.616 663.663c3.962 1.883 8.609 2.982 13.512 2.982 8.684 0 16.562-3.448 22.341-9.049l-0.008 0.008 65.765-70.327-204.11-180.097c19.108-3.806 32.616-10.081 44.263-15.516 15.56-7.262 27.85-12.998 55.034-12.998s39.477 5.736 55.038 12.998l0.307 0.143c31.68 14.951 58.954 33.067 83.201 54.525l-0.367-0.319 54.097 47.732 105.807-113.146c12.357 2.274 21.122 6.34 31.246 11.064 9.523 4.851 20.741 9.298 32.4 12.711l1.414 0.355-278.527 297.819c-17.412 17.337-41.427 28.055-67.945 28.055-14.71 0-28.649-3.298-41.119-9.195l0.586 0.249-129.084-60.24 27.064-57.996zM816 674.667c0-39.765-32.235-72-72-72s-72 32.235-72 72c0 39.765 32.235 72 72 72s72-32.235 72-72zM854.85 186.667c-41.386 0-63.965-10.535-82.106-19.002-15.563-7.262-27.856-12.998-55.045-12.998s-39.478 5.736-55.040 12.998c-18.142 8.465-40.718 19.002-82.104 19.002s-63.962-10.537-82.102-19.002c-15.562-7.262-27.852-12.998-55.038-12.998s-39.475 5.736-55.034 12.998c-18.14 8.465-40.717 19.002-82.1 19.002s-63.962-10.537-82.102-19.002c-15.561-7.262-27.851-12.998-55.037-12.998s-39.477 5.736-55.038 12.998c-18.14 8.465-40.717 19.002-82.102 19.002v-64c27.186 0 39.477-5.736 55.038-12.998 18.141-8.465 40.718-19.002 82.102-19.002s63.96 10.537 82.102 19.002c15.562 7.262 27.853 12.998 55.038 12.998s39.474-5.736 55.033-12.998c18.14-8.465 40.717-19.002 82.1-19.002s63.962 10.537 82.103 19.002c15.562 7.262 27.853 12.998 55.038 12.998s39.478-5.736 55.040-12.998c18.142-8.465 40.719-19.002 82.104-19.002s63.966 10.535 82.108 19.002c15.562 7.262 27.855 12.998 55.043 12.998s39.481-5.736 55.043-12.998c18.143-8.467 40.721-19.002 82.108-19.002v64c-27.188 0-39.481 5.736-55.043 12.998-18.143 8.467-40.721 19.002-82.107 19.002zM986.598 314.753c-23.482 0.718-35.152 6.151-49.64 12.912-17.33 8.088-38.752 18.040-76.705 18.916-1.778 0.041-3.55 0.086-5.402 0.086s-3.624-0.045-5.402-0.086c-37.952-0.877-59.375-10.828-76.704-18.916-14.491-6.761-26.16-12.194-49.642-12.912-1.739-0.053-3.528-0.086-5.403-0.086s-3.663 0.033-5.402 0.086c-23.481 0.718-35.149 6.151-49.638 12.912-17.33 8.086-38.75 18.039-76.702 18.916-1.778 0.041-3.549 0.086-5.402 0.086s-3.623-0.045-5.401-0.086c-37.952-0.877-59.372-10.83-76.7-18.916-14.489-6.761-26.157-12.194-49.637-12.912-1.739-0.053-3.527-0.086-5.402-0.086s-3.663 0.033-5.401 0.086c-23.48 0.718-35.146 6.151-49.633 12.912-17.329 8.086-38.748 18.040-76.698 18.916-1.258 0.038-2.571 0.055-3.899 0.066l0.003-0.004c-0.511 0.003-0.989 0.024-1.506 0.024-1.852 0-3.623-0.045-5.401-0.086-37.952-0.877-59.372-10.83-76.701-18.916-14.489-6.761-26.156-12.194-49.636-12.912-1.739-0.053-3.527-0.086-5.402-0.086s-3.663 0.033-5.401 0.086c-23.48 0.718-35.148 6.151-49.637 12.912-17.329 8.086-38.749 18.040-76.701 18.916-1.78 0.041-3.551 0.086-5.403 0.086v-64c27.186 0 39.477-5.736 55.038-12.998 18.141-8.465 40.718-19.002 82.102-19.002s63.96 10.537 82.102 19.002c15.562 7.262 27.853 12.998 55.038 12.998s39.474-5.736 55.033-12.998c18.14-8.465 40.717-19.002 82.1-19.002s63.962 10.537 82.103 19.002c15.562 7.262 27.853 12.998 55.038 12.998s39.478-5.736 55.040-12.998c18.142-8.465 40.719-19.002 82.104-19.002s63.966 10.535 82.108 19.002c15.562 7.262 27.855 12.998 55.043 12.998s39.481-5.736 55.043-12.998c18.143-8.467 40.721-19.002 82.108-19.002v64c-1.874 0-3.664 0.033-5.402 0.086z" />
<glyph unicode="&#xe99b;" glyph-name="arrow-thick-from-top" d="M672 711.917h-320v-288h-240v-77.246l399.605-400.004 400.395 399.986v77.264h-240zM834.723 359.917l-323.070-322.742-322.42 322.742h226.768v288h192v-288zM112 903.915h800v-64h-800v64z" />
<glyph unicode="&#xe99c;" glyph-name="tennis" d="M288 778.667c0 70.692-57.308 128-128 128s-128-57.308-128-128c0-70.692 57.308-128 128-128v0c70.659 0.082 127.918 57.341 128 127.992v0.008zM96 778.667c0 35.346 28.654 64 64 64s64-28.654 64-64c0-35.346-28.654-64-64-64v0c-35.33 0.041-63.959 28.67-64 63.996v0.004zM881.3 795.796c-48.162 48.445-114.785 78.491-188.427 78.695h-0.039c-0.419 0.002-0.827 0.004-1.245 0.004-74.98 0-148.193-31.938-206.269-90.014-59.16-59.16-107.497-149.059-129.304-240.48-5.073-19.972-8.945-43.652-10.827-67.89l-0.093-1.49c-2.461-38.164-13.483-73.278-31.148-104.097l0.619 1.171c-13.117-22.461-28.152-41.843-45.377-59.031l-0.005-0.005-158.57-162.414c-24.777-24.861-27.411-50.428-25.252-67.512 2.508-19.838 13.050-39.543 30.487-56.98s37.142-27.98 56.981-30.488c2.855-0.381 6.155-0.599 9.507-0.6h0.001c16.376 0 37.511 5.357 58.148 25.994l158.557 162.398c18.486 18.511 39.508 34.482 62.502 47.349l1.437 0.739c28.125 15.448 61.255 25.491 96.49 27.847l0.72 0.039c25.879 2.019 49.686 5.963 72.756 11.759l-2.985-0.635c91.089 21.983 180.817 70.453 240.023 129.66v0c58.4 58.4 90.365 132.096 90.010 207.514-0.204 73.681-30.25 140.304-78.682 188.454l-0.013 0.013zM195.112 65.794c-7.889-7.836-12.513-7.25-14.256-7.035-5.458 0.691-12.656 5.154-19.75 12.248s-11.559 14.293-12.248 19.752c-0.222 1.754-0.811 6.41 7.153 14.373l126.748 129.823 39.22-39.219zM367.211 241.014l-39.942 39.941c15.485 17.135 29.495 36.179 41.486 56.554l0.886 1.627c13.34-23.484 32.271-42.411 55.039-55.372l0.718-0.376c-22.004-12.877-41.049-26.888-58.489-42.644l0.303 0.269zM824.732 445.069c-50.468-50.467-130.852-93.652-209.783-112.701-78.548-18.955-144.353-11.369-176.022 20.3-67.525 67.528-17.847 277.063 91.648 386.559 50.128 50.127 106.993 71.016 160.385 71.016 56.582-0.034 107.834-22.826 145.103-59.718l-0.017 0.017c71.3-71.3 91.566-202.591-11.313-305.472z" />
<glyph unicode="&#xe99d;" glyph-name="healing" d="M314.040 36.317c-0.011 0.007-0.020 0.016-0.028 0.025v0l-192.333 192.334 111.528 111.53-45.255 45.254-111.529-111.529c-11.582-11.582-18.746-27.582-18.746-45.255s7.164-33.673 18.746-45.255l192.334-192.336c11.59-11.563 27.586-18.713 45.253-18.713s33.665 7.151 45.256 18.716l111.529 111.529-45.232 45.232zM709.989 816.991l192.333-192.334-111.524-111.535 45.25-45.25 111.529 111.529c11.582 11.582 18.746 27.582 18.746 45.255s-7.164 33.673-18.746 45.255l-192.334 192.336c-11.59 11.563-27.586 18.712-45.253 18.712s-33.665-7.151-45.256-18.715l-111.529-111.529 45.254-45.254zM481.941 523.638l31.029 31.029 31.029-31.029-31.029-31.029-31.029 31.029zM481.941 329.696l31.029 31.030 31.030-31.029-31.029-31.030-31.030 31.029zM578.912 426.667l31.029 31.029 31.029-31.029-31.029-31.029-31.029 31.029zM384.971 426.667l31.029 31.029 31.029-31.029-31.029-31.029-31.029 31.029zM909.421 312.088l-527.529 527.528c-17.372 17.373-41.372 28.119-67.882 28.119s-50.51-10.746-67.882-28.119l-147.079-147.078c-17.373-17.372-28.118-41.372-28.118-67.882s10.745-50.51 28.118-67.882l543.058-543.057c0.158-0.158 0.324-0.304 0.483-0.46 17.321-17.099 41.132-27.659 67.409-27.659 26.507 0 50.504 10.746 67.872 28.119l147.078 147.078c17.373 17.372 28.118 41.372 28.118 67.882s-10.745 50.51-28.118 67.882v0zM144.305 602.028c-5.791 5.791-9.373 13.791-9.373 22.628s3.582 16.837 9.373 22.628l147.079 147.078c5.791 5.791 13.791 9.373 22.627 9.373s16.837-3.582 22.627-9.373l130.108-130.107-192.333-192.334zM319.667 426.667l192.333 192.334 192.343-192.342-192.324-192.343zM879.696 206.050l-147.079-147.078c-5.791-5.791-13.791-9.373-22.627-9.373s-16.837 3.582-22.627 9.373l-130.108 130.108 192.333 192.333 130.107-130.107c5.791-5.791 9.373-13.791 9.373-22.628s-3.582-16.837-9.373-22.628v0z" />
<glyph unicode="&#xe99f;" glyph-name="image-broken" d="M880 58.667h-736v256h-64v-320h864v320h-64v-256zM80 858.667v-451.51l98.746-50.875 107.64 93.658 112.318-101.055 113.296 95.678 113.296-95.678 112.318 101.055 107.64-93.658 98.746 50.875v451.51zM880 446.179l-25.477-13.127-117.618 102.342-112.941-101.613-111.964 94.553-111.964-94.553-112.941 101.613-117.618-102.342-25.477 13.127v348.488h736z" />
<glyph unicode="&#xe9a0;" glyph-name="image-plus" d="M880 519.307l-129.538 129.54-138.462-138.464-200 200-268-268.001v352.284h528v64h-592v-864h864v576h-64zM750.462 558.335l129.538-129.538v-186.414l-222.745 222.745zM144 58.667v293.206l268 267.999 468-467.999v-93.206zM896 810.667v96h-64v-96h-96v-64h96v-96h64v96h96v64h-96z" />
<glyph unicode="&#xe9a1;" glyph-name="arrow-thick-left" d="M589.273-53.333l-77.375 0.070-479.898 480.473 480.668 479.361h76.555l0.016-287.875h400.033v-384h-400.014zM122.543 427.12l402.727-403.205-0.016 274.781h400.017v256h-400.029l-0.016 274.014z" />
<glyph unicode="&#xe9a2;" glyph-name="arrow-thick-right" d="M508.604-53.333h-76.555l-0.016 287.875h-400.034v384h400.014l-0.016 288.029 77.376-0.070 479.898-480.471zM96 298.542h400.030l0.015-274.014 402.683 401.592-402.725 403.203 0.015-274.781h-400.018z" />
<glyph unicode="&#xe9a4;" glyph-name="data-transfer-down" d="M32 10.667h960v-64h-960v64zM790.626 340.041l-45.252 45.252-185.374-185.372v706.746h-64v-706.746l-185.374 185.372-45.252-45.252 262.626-262.628 262.626 262.628z" />
<glyph unicode="&#xe9a5;" glyph-name="data-transfer-up" d="M32 906.667h960v-64h-960v64zM758.626 513.293l-262.626 262.628-262.626-262.628 45.252-45.252 185.374 185.372v-706.746h64v706.746l185.374-185.372 45.252 45.252z" />
<glyph unicode="&#xe9a6;" glyph-name="tennis-ball" d="M851.412 766.079c-86.846 86.759-206.776 140.415-339.238 140.415-265.097 0-480.001-214.904-480.001-480.001 0-132.462 53.656-252.392 140.418-339.241l-0.004 0.004c86.846-86.759 206.776-140.415 339.238-140.415 265.097 0 480.001 214.904 480.001 480.001 0 132.462-53.656 252.392-140.418 339.241l0.004-0.004zM565.186 723.218c18.48 35.335 22.972 73.123 13.423 114.092 176.134-28.468 315.567-167.902 344.035-344.036-40.97 9.55-78.758 5.058-114.092-13.421-52.17-27.281-90.742-81.606-128.045-134.14-31.844-44.848-64.769-91.22-104.975-119.822-42.695-30.379-89.113-37.193-146.076-21.447-46.851 12.949-86.812 52.172-87.162 52.518-0.393 0.393-39.647 40.59-52.518 87.16-15.744 56.965-8.93 103.383 21.447 146.078 28.602 40.205 74.975 73.131 119.822 104.975 52.535 37.302 106.859 75.874 134.141 128.045zM512 10.667c-229.383 0-416 186.617-416 416 0 228.899 185.834 415.196 414.552 415.982 31.65-84.177-22.392-128.429-116.56-195.292-94.758-67.281-212.686-151.016-165.904-320.285 17.527-63.412 66.86-113.273 68.951-115.367 2.092-2.090 51.953-51.422 115.365-68.949 21.874-6.507 47.033-10.356 73.057-10.581l0.123-0.001c121.789 0.004 190.312 96.5 247.105 176.486 66.864 94.169 111.113 148.212 195.292 116.56-0.785-228.718-187.083-414.552-415.981-414.552z" />
<glyph unicode="&#xe9aa;" glyph-name="clock" d="M543.028 747.667h-64v-356.222l231.226-109.896 27.474 57.804-194.7 92.536v315.778zM512 906.667c-265.097 0-480-214.903-480-480s214.903-480 480-480 480 214.903 480 480-214.903 480-480 480zM512 10.667c-229.75 0-416 186.25-416 416s186.25 416 416 416 416-186.25 416-416-186.25-416-416-416z" />
</font>
</defs>
</svg>
