<?xml version="1.0" encoding="utf-8"?>
<!-- Generator: Adobe Illustrator 22.0.1, SVG Export Plug-In . SVG Version: 6.00 Build 0)  -->
<svg version="1.1" id="Layer_1" xmlns="http://www.w3.org/2000/svg" xmlns:xlink="http://www.w3.org/1999/xlink" x="0px" y="0px"
	 viewBox="0 0 300 44" style="enable-background:new 0 0 300 44;" xml:space="preserve">
<style type="text/css">
	.st0{fill:#11CA79;}
	.st1{fill:#3474FF;}
</style>
<g>
	<g>
		<path class="st0" d="M238.1,27.9c0,9.5-6.7,15.9-16.4,15.9c-9.9,0-16.5-6.4-16.5-15.9s6.7-15.8,16.5-15.8
			C231.5,12.1,238.1,18.4,238.1,27.9z M212.9,28c0,5.6,3.6,9.5,8.9,9.5c5.1,0,8.8-3.9,8.8-9.5s-3.6-9.5-8.8-9.5
			C216.5,18.6,212.9,22.4,212.9,28z"/>
		<path class="st0" d="M272.4,12.3v31.2h-7.6v-5.8c-2.2,4.1-5.9,6.1-10.9,6.1c-7,0-11.3-4.6-11.3-12V12.3h7.6v17.3
			c0,4.4,2.5,7,6.7,7c4.9-0.1,7.8-3.9,7.8-8.9V12.3H272.4z"/>
		<path class="st0" d="M300.1,41.6c-2.4,1.5-5.1,2.3-7.8,2.3c-5.1,0-9.2-2.9-9.2-9.3V19.1h-4.4l-0.1-5.5h4.4V5h7.5v8.6h8.9v5.5h-8.9
			v14.1c0,3,1.2,4,3.3,4c1.3,0,2.7-0.5,4.4-1.3L300.1,41.6z"/>
	</g>
	<g>
		<g>
			<polygon class="st1" points="205.2,43.7 176.1,14.7 176.1,25.4 194.5,43.7 			"/>
		</g>
		<g>
			<rect x="176.1" y="0.1" class="st1" width="7.6" height="43.6"/>
		</g>
		<g>
			<polygon class="st0" points="194,12 183.7,22.2 176.1,14.7 176.1,25.4 178.4,27.6 178.4,27.6 183.7,33 204.7,12 			"/>
		</g>
	</g>
	<g>
		<g>
			<g>
				<g>
					<path class="st1" d="M30.2,43.5H1v-5.8L14.8,23c1.9-2.1,3.3-3.9,4.2-5.4s1.4-3,1.4-4.4c0-1.9-0.5-3.4-1.4-4.5
						c-1-1.1-2.3-1.6-4.1-1.6c-1.9,0-3.4,0.7-4.5,2s-1.7,3.1-1.7,5.2H0.1c0-2.6,0.6-5,1.9-7.1C3.2,5,5,3.3,7.2,2.1
						c2.3-1.2,4.8-1.8,7.7-1.8c4.4,0,7.8,1.1,10.3,3.2s3.7,5.1,3.7,9c0,2.1-0.5,4.3-1.6,6.5s-3,4.7-5.6,7.7L12,36.9h18.4v6.6H30.2z"
						/>
					<path class="st1" d="M50.6,18.7c-5,0-8.5,3.7-8.5,9.2c0,5.6,3.5,9.3,8.5,9.3c3.6,0,6.5-1.2,8.4-3.7l4.7,3.9
						c-2.7,4-7.4,6.3-13.5,6.3c-9.3,0-15.8-6.4-15.8-15.8c0-9.5,6.5-15.9,15.9-15.9c5.7,0,10.3,2.1,13.1,5.7l-4.6,4.4
						C56.8,20,54,18.7,50.6,18.7z"/>
					<path class="st1" d="M100.9,24.1v19.5h-7.6V26.3c0-4.4-2.6-7.1-6.9-7.1c-5.1,0.1-8.2,3.9-8.2,9v15.3h-7.6V0.2h7.6v18
						c2.2-4.3,6.1-6.2,11.3-6.2C96.5,12,100.9,16.6,100.9,24.1z"/>
					<path class="st1" d="M137.4,30.6h-23.1c1,4.4,4.4,7.1,8.9,7.1c3.2,0,6.2-1.2,8.4-3.5l4.1,4.3c-3.1,3.4-7.6,5.4-13.1,5.4
						c-9.7,0-16.1-6.4-16.1-15.8c0-9.5,6.5-15.9,15.9-15.9C133.4,12.1,138.1,19.3,137.4,30.6z M130.5,25.5c-0.2-4.6-3.3-7.5-8-7.5
						c-4.5,0-7.6,2.9-8.3,7.5H130.5z"/>
					<path class="st1" d="M157.3,18.7c-5,0-8.5,3.7-8.5,9.2c0,5.6,3.5,9.3,8.5,9.3c3.6,0,6.5-1.2,8.4-3.7l4.7,3.9
						c-2.7,4-7.4,6.3-13.5,6.3c-9.3,0-15.8-6.4-15.8-15.8c0-9.5,6.5-15.9,15.9-15.9c5.7,0,10.3,2.1,13.1,5.7l-4.6,4.4
						C163.4,20,160.7,18.7,157.3,18.7z"/>
				</g>
			</g>
		</g>
	</g>
</g>
</svg>
