<!-- Generated by IcoMoon.io -->
<svg version="1.1" xmlns="http://www.w3.org/2000/svg" width="64" height="64" viewBox="0 0 64 64">
<title>sync</title>
<path d="M51.271 16.631l-3.62-3.62 10.351-0.011-0.004-4-16.998 0.018v16.982h4v-9.983l3.443 3.443c3.45 3.45 5.583 8.215 5.583 13.479 0 10.516-8.516 19.043-19.027 19.062h-0.002l0.007 4c12.72-0.023 23.022-10.339 23.022-23.062 0-6.368-2.581-12.134-6.755-16.307v0z"></path>
<path d="M29.003 13l-0.007-4c-12.72 0.023-23.022 10.339-23.022 23.062 0 6.368 2.581 12.134 6.755 16.307l3.631 3.631h-10.36v4h17v-17h-4v9.983l-3.442-3.443c-3.45-3.45-5.583-8.215-5.583-13.479 0-10.516 8.516-19.043 19.027-19.062h0.002z"></path>
</svg>
