<svg viewBox="0 0 24 24" xmlns="http://www.w3.org/2000/svg"><path d="M23.542 11.305c-1.235-1.186-7.408-1.927-9.355-2.142.094-.222.175-.453.242-.69.266-.117.552-.225.848-.315.036.107.207.515.303.708 3.917.109 4.118-2.91 4.277-3.737.156-.809.149-1.59 1.492-3.019-2.001-.583-4.88.904-5.844 3.118a5.981 5.981 0 00-1.085-.297C14.163 3.892 12.823 1 9.306 1c-2.278 0-4.574.94-6.301 2.58A9.421 9.421 0 00.832 6.7C.28 7.98 0 9.39 0 10.892 0 16.12 3.568 20.7 5.584 20.7c.88 0 1.638-.659 1.816-1.25.15.406.606 1.666.757 1.986.222.474 1.249.884 1.698.392.577.32 1.638.514 2.215-.342 1.113.235 2.097-.428 2.118-1.221.546-.029.814-.796.695-1.406-.088-.45-1.026-2.063-1.393-2.619.725.59 2.562.757 2.784 0 1.169.918 2.991.437 3.135-.31 1.42.368 3.05-.442 2.782-1.423 2.282-.158 1.99-2.585 1.35-3.2zm-5.943-4.023c-.6-.237-1.363-.386-1.897-.386-.757 0-1.22.429-1.932.429-.15 0-.507.001-.794-.102.189.198.423.305.877.305.272 0 .81-.138 1.245-.269.007.092.016.182.029.274-.816.195-1.672.714-1.92.848-.55-1.217-.077-2.368.36-2.898 1.962.004 3.548 1.351 4.032 1.798zm.85-.092l-.3-.28c-.309-.29-.63-.55-.96-.782.491-.975 1.109-2.04 1.889-2.699-.859.347-1.707 1.38-2.208 2.486a7.635 7.635 0 00-.777-.434c.7-1.492 2.323-2.738 4.114-2.836-1.2 1.088-.75 3.258-1.76 4.544l.001.001zm-2.465 1.017c-.132-.287-.265-.762-.249-1.042.222-.005.65.078.718.094-.026.132-.04.42-.04.457.042-.073.16-.324.208-.424.428.082.99.218 1.32.372-.388.251-1.045.524-1.957.543zM8.913 6.255c-.484-.174-.484-.61 0-.785.485-.173 1.095.045 1.095.393 0 .348-.61.566-1.095.392zm1.617.163c0-.96-1.047-1.564-1.88-1.084a1.252 1.252 0 000 2.167c.833.48 1.88-.123 1.88-1.083zm2.783-1.575c-1.565 1.586-.947 3.592-.377 4.498-.81 1.349-2.404 2.27-4.255 2.69 2.078 0 3.3-.535 4.011-1.058.454-.335.7-.665.825-.848 3.081.2 7.96 1.192 8.435 1.513.19.13.388.414.417.688-2.315-.325-6.488-.666-7.58-.723.775.11 6.433 1.181 7.414 1.432-.299.487-.98.831-2.004.592.555.754-.52 1.659-2.019 1.16.33.741-1.003 1.408-2.52.636.02.74-1.88.827-2.63.008.015.097.104.284.142.366-.241 2.164-2.014 3.506-3.829 3.506-4.443 0-8.314-3.61-8.314-8.41 0-5.077 3.751-8.865 8.278-8.865 2.594 0 3.766 2.041 4.006 2.815z"/></svg>