<svg viewBox="0 0 24 24" xmlns="http://www.w3.org/2000/svg"><path d="M8.59 23.974q-.185 0-.33-.066-.145-.066-.278-.172-.132-.106-.185-.264-.053-.159-.079-.344l.026-5.92h15.648l-7.11 6.766H8.564zM24 15.41q-.026.185-.079.33-.053.146-.185.265-.132.119-.278.185-.145.066-.33.066h-5.92L17.18.582l6.793 7.137v7.691zM15.41.027q.159 0 .33.066t.265.172q.092.106.172.264.079.159.052.344l.027 5.92H.556L7.719.028h7.665zM.027 8.591q-.026-.185.053-.33.08-.146.185-.265.106-.119.264-.185.159-.066.317-.066h5.947L6.767 23.42l-6.74-7.136L.001 8.59z"/></svg>