<svg version="1.1" xmlns="http://www.w3.org/2000/svg" width="32" height="32" viewBox="0 0 32 32">
<title>trainerroad</title>
<path d="M4.651 3.188l-2.943 16.224c1.152-2.245 3.448-3.756 6.099-3.756h0.011c1.376-0.005 2.724 0.417 3.86 1.199l-0.027-0.016c0.537-0.484 0.937-1.099 1.172-1.781l0.011-0.031c0.547-1.772-1.052-7.297 4.88-7.381 2.964-0.041 6.76 2.423 6.656 2.407-5.323-0.817-7.015-1.052-8.323 1.484-1.183 2.303-0.875 4.219-2.401 5.657-1.307 1.228-4.427 2.041-5.395 1.843-0.444-0.093 1.113-0.505 2.556-1.515-5.015-3.037-10.864 2.416-8.176 7.629 2.681 5.213 10.52 3.625 10.963-2.219v-0.020c0.339 0.192 0.657 0.391 0.948 0.593-0.353 2.359-1.916 4.359-4.115 5.287l-0.047 0.020h12.317c-0.979-1.687-4.687-7.025-13.161-8.541 1.043-0.516 10.12-0.26 18.063 7.177l4.407-24.255zM13.36 5.307c0.785 0.027 1.567 0.235 2.219 0.391 1.781 0.428 3.375 0.901 3.161 0.996-0.047 0.020-0.781-0.084-1.089-0.115-0.692-0.1-1.396-0.068-2.077 0.093l0.036-0.005c-2.797 0.672-3.807 3.948-4 4.245-0.021 0.031-1.579-0.803-1.697-2.439-0.084-1.192 0.343-2.333 2.036-2.963 0.453-0.156 0.932-0.229 1.412-0.204zM20.541 10.765c0.871-0.011 1.959 0.109 3.339 0.407-0.907 0.531-1.744 1.188-2.484 1.943-1.427 1.464-2.751 3.421-2.256 4.505 0.491 1.083 3.537 2.432 5.729 3.896 1.141 0.755 2.021 3.411 2.027 3.416-4.147-3.219-7.161-4.125-9.401-5.463-2.625-1.584-0.948-5.412-0.151-7.068 0.459-0.937 1.287-1.615 3.197-1.636zM1.011 23.235l-1.011 5.577h5.203c-2.276-0.957-3.905-3.047-4.187-5.547z"></path>
</svg>
