<svg viewBox="0 0 24 24" xmlns="http://www.w3.org/2000/svg"><path d="M16.509 16.845c.147-.507.09-.971-.155-1.316-.225-.316-.605-.499-1.062-.52l-8.66-.113a.156.156 0 01-.133-.07.194.194 0 01-.02-.156.24.24 0 01.203-.156l8.736-.113c1.035-.049 2.16-.886 2.554-1.913l.499-1.302a.27.27 0 00.014-.168 5.689 5.689 0 00-10.938-.584 2.584 2.584 0 00-1.793-.498 2.561 2.561 0 00-2.223 3.18A3.634 3.634 0 000 16.751c0 .175.014.351.035.527a.174.174 0 00.17.148h15.98c.091 0 .176-.065.204-.155l.12-.427zm2.757-5.564c-.077 0-.161 0-.239.011-.056 0-.105.042-.127.098l-.337 1.174c-.148.507-.092.971.154 1.317.225.316.605.498 1.062.52l1.844.113c.056 0 .105.026.133.07a.203.203 0 01.021.156.24.24 0 01-.204.156l-1.92.112c-1.042.049-2.159.887-2.553 1.914l-.141.358c-.028.072.021.142.099.142h6.597a.174.174 0 00.17-.126c.111-.408.175-.837.175-1.28a4.74 4.74 0 00-4.734-4.727"/></svg>