<svg viewBox="0 0 24 24" xmlns="http://www.w3.org/2000/svg"><path d="M5.37 2.65A2.64 2.64 0 012.75 5.3 2.64 2.64 0 01.12 2.65 2.64 2.64 0 012.75 0a2.64 2.64 0 012.62 2.65zm0 9.35a2.64 2.64 0 01-2.62 2.65A2.64 2.64 0 01.12 12a2.64 2.64 0 012.63-2.65A2.64 2.64 0 015.37 12zm0 9.35A2.64 2.64 0 012.75 24a2.64 2.64 0 01-2.63-2.65 2.64 2.64 0 012.63-2.65 2.64 2.64 0 012.62 2.65zM11.31 0A2.64 2.64 0 008.7 2.65a2.64 2.64 0 002.6 2.65h9.94a2.64 2.64 0 002.63-2.65A2.64 2.64 0 0021.25 0h-9.94zM8.7 12a2.64 2.64 0 012.62-2.65H17A2.64 2.64 0 0119.6 12a2.64 2.64 0 01-2.6 2.65h-5.7A2.64 2.64 0 018.7 12z"/></svg>