<svg viewBox="0 0 24 24" xmlns="http://www.w3.org/2000/svg"><path d="M20.32 16.315l-3.946-.923-1.048-2.003 5.161-4.522a3.95 3.95 0 012.551 3.69 3.993 3.993 0 01-2.718 3.758m-2.967 4.666a2.81 2.81 0 01-1.709-.584l.78-4.065 3.585.839c.114.31.172.64.172.983a2.83 2.83 0 01-2.828 2.827m-2.629-.584a5.902 5.902 0 01-4.892 2.593 5.928 5.928 0 01-5.806-7.1l5.15-4.655 5.256 2.396 1.164 2.223zM.964 11.443A3.995 3.995 0 013.68 7.685l3.937.93.925 1.975-5.034 4.55a3.957 3.957 0 01-2.545-3.697m5.684-8.424a2.833 2.833 0 011.718.58L7.58 7.678 3.993 6.83a2.833 2.833 0 01-.172-.984 2.83 2.83 0 012.827-2.828m2.653.587a5.902 5.902 0 0110.774 3.338c0 .399-.037.78-.113 1.161l-5.282 4.628-5.235-2.386-1.022-2.182zm14.662 8.963a4.708 4.708 0 00-3.114-4.44 6.674 6.674 0 00.125-1.286 6.768 6.768 0 00-6.76-6.76 6.747 6.747 0 00-5.476 2.804 3.575 3.575 0 00-2.197-.752 3.592 3.592 0 00-3.363 4.839 4.77 4.77 0 00-3.14 4.458 4.713 4.713 0 003.13 4.453 6.854 6.854 0 00-.124 1.285 6.751 6.751 0 006.744 6.744 6.716 6.716 0 005.473-2.815c.63.495 1.4.766 2.2.766a3.592 3.592 0 003.363-4.839 4.77 4.77 0 003.14-4.457"/></svg>