<svg viewBox="0 0 24 24" xmlns="http://www.w3.org/2000/svg"><path d="M24.002 1.86V.801a.81.81 0 01-.568-.236.81.81 0 01-.234-.567h-1.061a.806.806 0 01-1.608 0H19.47a.805.805 0 01-1.608 0h-1.059a.807.807 0 01-.845.765.808.808 0 01-.765-.765h-1.06a.806.806 0 01-1.609 0h-1.059a.805.805 0 01-1.608 0h-1.06a.795.795 0 01-.826.774.804.804 0 01-.776-.774h-1.06a.806.806 0 01-1.608 0h-1.06a.803.803 0 01-1.607 0H.8a.807.807 0 01-.803.803V1.86a.804.804 0 010 1.607v1.061a.803.803 0 010 1.607v1.059a.805.805 0 010 1.609v1.059a.803.803 0 110 1.608v1.06a.803.803 0 010 1.607v1.061a.803.803 0 110 1.608v1.061c.444.016.79.387.774.83a.801.801 0 01-.774.775v1.061a.804.804 0 110 1.608v1.061a.806.806 0 01.803.803h1.06a.806.806 0 011.608 0h1.061a.806.806 0 011.608 0h1.059a.807.807 0 011.609 0h1.06a.804.804 0 011.607 0h1.061a.806.806 0 011.608 0H15.2a.807.807 0 011.61 0h1.059a.807.807 0 011.61 0h1.06a.804.804 0 011.606 0H23.2c0-.211.086-.418.235-.568a.808.808 0 01.567-.234v-1.061a.805.805 0 010-1.606v-1.061a.806.806 0 010-1.608v-1.061a.806.806 0 010-1.608v-1.061a.804.804 0 010-1.608v-1.058a.806.806 0 010-1.608v-1.06a.804.804 0 010-1.608v-1.06a.806.806 0 010-1.607v-1.06a.806.806 0 010-1.608zm-4.068 9.838l-6.404 6.226c.58.09 1.14.225 1.742.225 1.465 0 3.148-.445 4.287-.916l-.584 2.746c-1.676.805-2.701.871-3.703.871-1.095 0-2.144-.357-3.215-.357-.603 0-1.474.045-2.009.4L8.887 18.84l6.607-6.541H7.891L6.44 19.107H3.27l3.305-15.58h10.49l-.67 3.146H9.096l-.625 2.925h11.977l-.514 2.1z"/></svg>