<svg xmlns="http://www.w3.org/2000/svg" viewBox="0 0 24 24"><path d="M0 16.144h4.667v.668H0zm0-1.282h4.667v.67H0zm1.33-1.279h2.003v.671H1.33zm0-1.278h2.003v.67H1.33zm0-1.28h2.003v.671H1.33zm0-1.281h2.003v.671H1.33zM0 8.466h4.667v.67H0zm0-1.279h4.667v.67H0zm5.332 8.345h7.177c.12-.206.212-.433.267-.67H5.333v.67zm6.618-3.227H6.667v.67h5.843a2.67 2.67 0 00-.558-.67zm-5.284-1.28v.671h5.285c.223-.188.41-.414.559-.671H6.666zm5.843-2.559H5.332v.67h7.443a2.891 2.891 0 00-.266-.67zm-2.206-1.279H5.332v.67h6.685a2.522 2.522 0 00-1.714-.67zM6.666 9.744h2v.671h-2zm4.001.671h2.092c.059-.214.09-.44.09-.671h-2.182v.671zm-4.001 3.168h1.999v.671h-2zm4.001 0v.671h2.182c0-.23-.031-.457-.09-.671h-2.092zm-5.335 3.224l4.97.007c.667 0 1.268-.257 1.717-.67H5.332v.663zm8.002-.663h3.332v.668h-3.332zm0-1.282h3.332v.67h-3.332zm1.331-1.279h2v.671h-2zm0-1.278h2v.67h-2zm2.929-3.839h-4.26v.67h4.49zm-.442-1.279h-3.818v.669h4.048zm3.513 8.957H24v.668h-3.335zm0-1.282H24v.67h-3.335zm0-1.279h2v.671h-2zm0-1.278h2v.67h-2zm0-.609h2v-.671h-3.811l-.188.542-.188-.542h-3.813v.671h2v-.616l.213.616h3.575l.212-.616zm2.001-1.952h-3.37l-.23.671h3.6zm-2.483-2.557l-.231.669H24v-.669zm-1.517 9.62l.23-.663h-.461zm-.442-1.275h.884l.238-.67h-1.357zm-.449-1.278h1.782l.235-.671h-2.253zm-.448-1.279h2.679l.229-.67h-3.138zm-2.662-2.56h3.602l-.231-.671h-3.371zm4.845-1.279H24v-.67h-4.262z"/></svg>