<svg xmlns="http://www.w3.org/2000/svg" viewBox="0 0 24 24"><path d="M3.129 1.338C2.082 1.96.02 4.329 0 4.95v1.029c0 1.304 1.219 2.45 2.325 2.45 1.329 0 2.436-1.101 2.436-2.408 0 1.307 1.069 2.408 2.398 2.408s2.364-1.101 2.364-2.408c0 1.307 1.137 2.408 2.466 2.408h.024c1.329 0 2.466-1.101 2.466-2.408 0 1.307 1.035 2.408 2.364 2.408s2.398-1.101 2.398-2.408c0 1.307 1.107 2.408 2.436 2.408 1.107 0 2.325-1.146 2.325-2.45V4.95c-.02-.621-2.082-2.991-3.129-3.612-3.254-.114-5.51-.134-8.871-.133s-7.945.053-8.871.133zm6.377 6.477c-.133.23-.288.428-.467.601l-.001.001a2.78 2.78 0 01-1.947.794h-.003a2.775 2.775 0 01-1.949-.795 2.574 2.574 0 01-.446-.59h-.001a2.715 2.715 0 01-.485.59 2.779 2.779 0 01-1.949.794h-.003a.825.825 0 01-.263-.052 40.302 40.302 0 00-.168 2.95v.004l-.006 1.167c.021 2.334-.231 7.564 1.029 8.849 1.953.455 5.546.663 9.151.664h.001c3.605-.001 7.198-.209 9.151-.664 1.26-1.285 1.008-6.516 1.029-8.849l-.006-1.167v-.004a40.302 40.302 0 00-.168-2.95.854.854 0 01-.263.052h-.002a2.775 2.775 0 01-1.949-.795h.001a2.774 2.774 0 01-.485-.59h-.001a2.632 2.632 0 01-.446.59 2.779 2.779 0 01-1.948.795h-.003a2.777 2.777 0 01-1.947-.795 2.777 2.777 0 01-.461-.589l-.007-.013a2.78 2.78 0 01-2.412 1.397h-.003L12 9.208h-.001a2.083 2.083 0 01-.08.002h-.003a2.775 2.775 0 01-1.949-.795h.001a2.723 2.723 0 01-.456-.589l-.007-.013zm-2.004 2.591v.001h.001c.794.002 1.498 0 2.372.953A20.263 20.263 0 0112 11.253h.001c.719-.001 1.437.035 2.125.107.873-.953 1.578-.952 2.372-.953h.001v-.001c.375 0 1.875 0 2.92 2.935l1.122 4.026c.832 2.995-.266 3.069-1.636 3.071-2.031-.076-3.156-1.551-3.156-3.026-1.124.184-2.436.276-3.748.276H12c-1.312 0-2.624-.092-3.748-.276 0 1.475-1.125 2.95-3.156 3.026-1.37-.003-2.468-.076-1.636-3.071l1.123-4.026c1.045-2.935 2.545-2.935 2.92-2.935zM12 12.713v.001c-.002.002-2.138 1.964-2.523 2.662l1.399-.056v1.22c0 .057.561.034 1.123.008H12c.562.026 1.123.049 1.123-.008v-1.22l1.399.056c-.384-.698-2.523-2.662-2.523-2.662v-.001z"/></svg>