<svg viewBox="0 0 24 24" xmlns="http://www.w3.org/2000/svg"><path d="M24 11.122V7.61h-1.253c-.524-2.76-3.424-4.575-6.34-3.483-1.624.606-2.944 2.546-2.944 4.282v7.981H13.615a3.492 3.492 0 002.38-1.077 3.499 3.499 0 00.981-2.432h1.463V9.366h-1.463V8.4c0-.375.199-.726.527-.907.899-.501 1.815.143 1.815.995v3.22c0 1.273.48 2.456 1.352 3.331a4.677 4.677 0 003.179 1.352h.149v-3.512a1.17 1.17 0 01-1.171-1.171v-.585zM3.512 13.463V4.097H0v8.78c0 2.412 1.592 3.512 3.073 3.512.442 0 .884-.102 1.279-.287.059-.026.152-.085.152-.085l-.126-.135c-.562-.641-.866-1.472-.866-2.42zm5.561-1.088c0 .146-.07.287-.19.369-.471.331-.981-.003-.981-.451V7.61H4.39v5.854a2.926 2.926 0 004.829 2.225c-.056.433-.293.79-.691 1.039-.372.234-.858.357-1.402.357a3.85 3.85 0 01-1.651-.38s-.094-.044-.211-.111v3.12a6.66 6.66 0 002.467.483c1.311 0 2.508-.41 3.372-1.156.969-.834 1.481-2.055 1.481-3.527V7.612H9.072z"/></svg>