<svg xmlns="http://www.w3.org/2000/svg" viewBox="0 0 24 24"><path d="M20.885 15.81v1.164h1.982c.406 0 1.103-.315 1.127-1.195v-.45c0-.753-.582-1.196-1.127-1.196h-.988v-.54h1.957v-1.17h-1.878c-.485 0-1.134.424-1.134 1.215v.405c0 .79.643 1.196 1.134 1.196 1.363.006-.328 0 .933 0v.565l-2.006.007zm-10.618-.282s1.06-.097 1.06-1.55c0-1.452-1.285-1.587-1.285-1.587H7.727v4.583h1.164V15.87l1.006 1.105h1.721l-1.351-1.446zm-.449-.939h-.927v-1.048h.933s.26.103.26.521c0 .418-.266.527-.266.527zm4.382-2.166h-1.182c-.842 0-1.127.81-1.127 1.196v3.355h1.182v-.803h1.109v.803h1.145V13.62c0-.978-.836-1.196-1.127-1.196zm-.018 2.45h-1.115V13.76s0-.25.37-.25h.405c.328 0 .334.25.334.25v1.112h.006zm1.685-2.45h1.23v4.551h-1.23v-4.551zm2.957 3.375v-3.375H17.6v4.551h2.879v-1.176h-1.655zm-18.4 1.176h4.788s-.915-4.429 2.115-6.223c.66-.34 2.764-1.613 6.206 1.087.11-.097.212-.174.212-.174s-3.151-3.336-6.66-2.963c-1.764.167-3.933 1.87-5.206 4.12C.606 15.071.424 16.974.424 16.974zm0 0h4.788s-.915-4.429 2.115-6.223c.66-.34 2.764-1.613 6.206 1.087.11-.097.212-.174.212-.174s-3.151-3.336-6.66-2.963c-1.764.167-3.933 1.87-5.206 4.12C.606 15.071.424 16.974.424 16.974zm0 0h4.788s-.915-4.429 2.115-6.223c.66-.34 2.764-1.613 6.206 1.087.11-.097.212-.174.212-.174s-3.151-3.336-6.66-2.963c-1.77.167-3.94 1.87-5.212 4.12C.6 15.071.424 16.974.424 16.974zM10.4 9.061l.024-.431c-.054-.032-.206-.11-.588-.225l-.024.424c.2.071.394.148.588.232zm-.576 1.363l-.024.405c.2.006.4.032.6.077l.024-.399a4.06 4.06 0 00-.6-.083zM7.582 8.418h.06l-.12-.392c-.189 0-.383.013-.583.038l.116.38c.175-.02.351-.026.527-.026zm.29 2.366l.14.443a3.71 3.71 0 01.527-.225l-.133-.424a4.238 4.238 0 00-.533.206zm-2.75-1.691l-.274-.444c-.151.084-.309.174-.472.277l.279.45c.157-.103.309-.2.466-.283zm1.242 2.893l.29.463c.104-.161.225-.309.358-.457l-.273-.437c-.139.135-.266.283-.375.43zm-.88 2.07l.492.411c.024-.25.066-.501.127-.752l-.436-.366a6.408 6.408 0 00-.182.707zM2.83 11.002l-.43-.398c-.158.16-.31.321-.448.482l.466.424c.127-.174.267-.347.412-.508zM1 13.876l-.697-.27c-.115.276-.242.598-.303.771l.697.27c.079-.218.206-.533.303-.771zm4.394 1.813c.012.34.042.617.073.81l.727.276a8.962 8.962 0 01-.146-.836l-.654-.25z"/></svg>