<svg xmlns="http://www.w3.org/2000/svg" viewBox="0 0 24 24"><path d="M5.661 9.601V5.303a6.793 6.793 0 00-4.053 11.084c2.378-1.152 4.041-3.755 4.053-6.786zm1.132 4.114c-.423 1.752-1.687 3.249-3.262 4.244a6.759 6.759 0 003.261.833 6.771 6.771 0 003.262-.833c-1.575-.995-2.838-2.493-3.261-4.244zm5.184-6.102a6.789 6.789 0 00-4.052-2.31v4.265c0 3.044 1.666 5.662 4.051 6.817a6.766 6.766 0 01-1.607-4.386 6.754 6.754 0 011.608-4.386zm0 0c1.003 1.183 1.655 2.714 1.655 4.387s-.652 3.202-1.655 4.387l-.001-.001.001.001c2.378-1.151 4.087-3.755 4.099-6.786V5.303a6.9 6.9 0 00-4.099 2.31zm6.363 1.955c0 3.045 1.666 5.662 4.052 6.818A6.792 6.792 0 0018.34 5.304v4.264zm-1.132 4.147c-.423 1.752-1.687 3.249-3.262 4.244a6.759 6.759 0 003.261.833 6.771 6.771 0 003.262-.833c-1.574-.995-2.838-2.493-3.261-4.244z"/></svg>