<svg viewBox="0 0 24 24" xmlns="http://www.w3.org/2000/svg"><path d="M22.98 8.566c.32.607.563 1.275.732 2.005.17.73.264 1.495.285 2.292.02.795-.061 1.605-.24 2.416-.18.815-.447 1.611-.797 2.388s-.83 1.515-1.441 2.22a11.807 11.807 0 01-2.107 1.901c-.781.554-1.74 1.034-2.85 1.409-1.111.39-2.326.645-3.646.795l-.299-.721c.074-.015.164-.045.299-.089.137-.046.375-.135.721-.301.359-.15.689-.329 1.02-.54.33-.21.689-.495 1.08-.87a6.496 6.496 0 001.02-1.215c.285-.449.525-.99.721-1.649a7.43 7.43 0 00.301-2.115c0-.721-.09-1.381-.285-2.01a6.01 6.01 0 00-.766-1.621 12.173 12.173 0 00-1.049-1.289 27.783 27.783 0 00-1.141-1.155c-.391-.36-.734-.735-1.066-1.095a4.73 4.73 0 01-.779-1.215c-.195-.45-.3-.916-.3-1.41 0-.885.361-1.65 1.05-2.28.705-.646 1.664-.96 2.895-.96.361 0 .721.029 1.096.105.375.074.824.209 1.334.435.512.226.992.51 1.455.854.467.346.961.84 1.471 1.455.51.619.977 1.335 1.395 2.145l-.109.115zM1.02 15.451a8.274 8.274 0 01-.731-2.006 11.415 11.415 0 01-.285-2.291 9.983 9.983 0 01.24-2.416c.181-.816.445-1.612.795-2.388a9.214 9.214 0 011.44-2.22 11.846 11.846 0 012.109-1.9c.78-.556 1.739-1.035 2.851-1.41C8.55.427 9.765.158 11.085.007l.299.711c-.063.014-.158.044-.285.08a8.093 8.093 0 00-.712.293c-.35.156-.687.334-1.013.537-.322.202-.68.489-1.072.861s-.73.777-1.012 1.215c-.284.439-.521.985-.716 1.64a7.3 7.3 0 00-.291 2.107c0 .71.09 1.375.301 2a5.8 5.8 0 00.765 1.613c.315.466.675.885 1.05 1.307.375.419.766.794 1.141 1.154.375.359.734.734 1.05 1.096.329.375.585.779.78 1.214.195.45.299.915.299 1.41 0 .899-.359 1.666-1.049 2.296-.706.645-1.667.959-2.897.959-.359 0-.72-.03-1.095-.105a6.003 6.003 0 01-1.32-.435c-.51-.226-.99-.51-1.47-.855-.466-.345-.96-.84-1.47-1.455a12.04 12.04 0 01-1.396-2.144l.048-.055z"/></svg>