<svg viewBox="0 0 24 24" xmlns="http://www.w3.org/2000/svg"><path d="M23.86.952c.029 0 .056.004.07.011.015.009.023.027.023.061L22.69 7.176v.029h-.059c-.009 0-.045 0-.104-.016h-.044a2.983 2.983 0 01-.215-.044c-.063-.015-.134-.015-.209-.015a29.698 29.698 0 00-3.207-.36l-.374 7.861-.069-.12c0-.016-.016-.016-.016-.03l-.015-.016c-.016 0-.029 0-.044-.014-.016-.016-.016-.03-.016-.045-.03-.016-.06-.031-.074-.061-.016-.015-.046-.045-.075-.061-.09-.074-.18-.148-.284-.223-.119-.075-.224-.15-.329-.21l-.179-.089-.164-.09c-.016 0-.03 0-.045-.016l-.015-.029.344-8.203h.118c.12 0 .255 0 .39.014.134.016.283.016.418.016l.822.045c.269.016.537.045.806.075l.419.044.404.045h.091c.035 0 .09.016.148.029.076.016.165.03.254.03.091.016.165.016.21.046l.747-3.691c-.015 0-.036 0-.066-.015l-.12-.046c-.522-.104-1.061-.193-1.6-.283a28.727 28.727 0 00-1.628-.179 17.154 17.154 0 00-1.285-.09 37.13 37.13 0 00-1.3-.03h-.792c0 .03 0 .061-.015.09l-.045.148-.043.14a1.246 1.246 0 01-.086.284 5.505 5.505 0 00-.104.283c-.097.18-.194.344-.296.493-.102.165-.206.313-.314.478-.25.3-.531.554-.844.777a4.333 4.333 0 01-1.763.748 4.445 4.445 0 01-.776.074c-.141 0-.284 0-.434-.016a3.75 3.75 0 01-.434-.059 3.996 3.996 0 01-1.158-.403 4.39 4.39 0 01-.992-.717 2.84 2.84 0 01-.419-.434 6.693 6.693 0 01-.333-.493l-.714.254-.718.269c-.485.164-.962.359-1.43.568-.463.209-.926.434-1.377.672l-.688.374c-.227.134-.456.254-.69.374v.014c0 .016-.01.016-.026.016l-.088.044-.037.029L3.263 8.85l.198-.105c.06-.03.134-.075.211-.105.486-.254.979-.478 1.48-.702.496-.209 1-.418 1.494-.612h.044l2.052 8.231c.329-.142.636-.263.924-.363.294-.102.567-.191.837-.269a11.604 11.604 0 011.591-.317 14.074 14.074 0 011.639-.104c.283 0 .567.016.852.04.27.029.523.059.762.104.284.061.553.15.807.24.239.104.463.208.657.357.225.15.419.314.583.509.149.194.284.403.374.628.089.238.135.478.149.747 0 .269-.03.522-.09.762-.03.134-.074.254-.12.358-.06.12-.119.238-.193.344 0 .015 0 .03-.015.03-.016 0-.016.015-.016.029l-.045.045c-.015.015-.015.03-.015.045s0 .029.015.044l.03.062v.029l.015.029.09.195a.859.859 0 01.029.192c.061.254.075.51.045.777-.03.285-.09.554-.179.808a3.207 3.207 0 01-.763 1.149c-.357.345-.807.644-1.344.912-.42.225-.883.404-1.375.553-.508.149-1.061.283-1.674.389-.15.03-.284.06-.418.076l-.389.015-.253.028-.105-1.418v-.016h.045l.03-.015h.149l.06-.046h.18c.06 0 .104-.015.149-.015.283-.045.553-.09.807-.148.27-.062.523-.12.792-.195.269-.074.522-.149.762-.239.239-.073.464-.179.688-.283.254-.135.464-.269.643-.418.18-.149.329-.3.448-.449.075-.09.149-.193.195-.298.044-.104.074-.21.088-.329v-.225l-.119.09c-.015.015-.045.029-.074.044l-.104.047c-.21.134-.434.237-.673.343a9.17 9.17 0 01-.762.299c-.254.09-.508.179-.777.239-.27.073-.538.135-.792.179-.284.045-.554.09-.821.119-.27.031-.538.061-.807.076h-.15c-.254 0-.493 0-.701-.03-.225-.015-.42-.061-.613-.104a2.575 2.575 0 01-.732-.314 1.127 1.127 0 01-.448-.508 1.096 1.096 0 01-.149-.628c0-.225.06-.448.165-.656.104-.195.254-.374.433-.539.18-.164.403-.313.657-.448a4.24 4.24 0 01.688-.284c.238-.074.508-.164.791-.239.225-.059.479-.119.747-.164a7.84 7.84 0 01.867-.09c.104-.015.224-.029.343-.029.121-.015.24-.015.375-.015h.447l.449.044c.134.016.268.03.402.061.135.029.254.045.374.074.075.015.149.045.209.061l.165.059h.014c.016 0 .031.016.031.016l.015.016.044.029-.029.029c-.135.314-.373.568-.747.747-.374.195-.628.314-.792.358h-.014c-.015-.015-.029-.029-.035-.029h-.434c-.138 0-.273 0-.406.015-.135.015-.264.015-.389.029-.279.03-.553.076-.818.12a5.133 5.133 0 00-.746.195 2.946 2.946 0 00-.404.148 2.898 2.898 0 00-.35.149c-.063.03-.119.061-.175.09-.054.029-.104.06-.149.091-.029.029-.074.059-.119.089s-.086.074-.119.12c.014 0 .039 0 .06.014l.134.031v.029c.061.015.12.029.18.029.064 0 .135.015.209.015a.774.774 0 00.19.021h.603c.254 0 .514-.015.785-.06.27-.041.55-.074.831-.13.284-.061.544-.126.792-.209.246-.076.486-.165.722-.254.134-.045.254-.105.358-.15.119-.06.225-.119.344-.18l.283-.163c.105-.062.225-.135.33-.209.164-.14.313-.314.463-.509a.997.997 0 00.239-.663.87.87 0 00-.06-.344.544.544 0 00-.18-.27c-.074-.074-.164-.149-.254-.209s-.194-.119-.329-.164a3.521 3.521 0 00-.808-.194 5.09 5.09 0 00-.731-.06c-.075-.016-.149-.016-.239-.016h-.225c-.47 0-.938.035-1.405.105-.468.074-.927.164-1.38.299-.254.06-.5.134-.75.224-.254.104-.516.194-.796.313-.218.09-.444.18-.679.299l-.747.389-.045.03-2.065-8.561-.09.044-.094.045c-.502.223-.993.448-1.476.702-.488.254-.963.508-1.43.777l-.049.029L.046 4.828c0-.016.007-.022.024-.029l.115-.083a.65.65 0 00.166-.121c.014 0 .026 0 .033-.008h.012c.109-.061.225-.12.34-.194l.364-.224c.216-.119.44-.254.664-.374.24-.119.449-.254.674-.373.462-.238.925-.463 1.388-.672.479-.225.957-.434 1.42-.613A36.278 36.278 0 016.74 1.6c.493-.18 1.001-.344 1.523-.479l.046-.031v.046c.075.313.18.598.344.882.164.268.359.507.582.732.284.238.598.434.956.582.359.135.732.209 1.105.209.046 0 .09-.014.135-.014.037-.016.08-.016.126-.016.374-.03.739-.135 1.091-.314.35-.18.658-.402.922-.688a2.81 2.81 0 00.643-1.12c.135-.418.18-.866.104-1.315l.045-.015 1.016-.044C15.723 0 16.051 0 16.395 0h.643c.553.016 1.091.045 1.629.074a30.203 30.203 0 013.151.374c.51.09 1.003.194 1.511.329l.045.015.089.03.18.045c.06.015.12.029.164.059h.016c.015 0 .03.016.045.016l.029.015-.037-.005z"/></svg>