<svg xmlns="http://www.w3.org/2000/svg" width="24" height="24" viewBox="0 0 24 24"><path d="M20.798 6.064l-8.032-4.637c-.215-.126-.474-.2-.75-.2s-.535.074-.757.204l.007-.004-8.032 4.637a1.506 1.506 0 00-.75 1.299v9.275c.001.552.299 1.034.743 1.295l.007.004 8.032 4.637c.215.126.474.2.75.2s.535-.074.757-.204l-.007.004 8.032-4.637c.451-.265.749-.747.75-1.299V7.363a1.503 1.503 0 00-.743-1.295l-.007-.004zm-.75 1.299v8.315l-7.282-4.116V3.159zm-16.064 0l7.282-4.204v8.4l-7.282 4.116zm8.032 13.912l-7.367-4.253 7.364-4.162 7.367 4.164z"/></svg>