<svg xmlns="http://www.w3.org/2000/svg" width="24" height="24" viewBox="0 0 24 24"><path d="M23.25 6.786V5.214h-1.839V1.969A1.172 1.172 0 0020.239.808H3.761c-.643 0-1.166.518-1.172 1.16v20.157a1.172 1.172 0 001.172 1.161H20.239c.643 0 1.166-.518 1.172-1.16v-3.34h1.839v-1.572h-1.839v-4.428h1.839v-1.572h-1.839V6.786zm-3.411 4.428h-2.214v1.572h2.214v4.428h-2.214v1.572h2.214v2.928H4.161V2.38h15.678v2.834h-2.214v1.572h2.214z"/><path d="M14.702 14.387l-1.347-.876.648-1.578V9.455a3.08 3.08 0 00-6.16 0v2.464l.596 1.626-1.296.842a2.296 2.296 0 00-1.048 1.927v2.436h9.656v-2.431-.004c0-.804-.413-1.512-1.039-1.922l-.009-.005zm-.452 2.863H7.594v-.931-.002c0-.28.144-.527.363-.67l.003-.002 2.298-1.494-.916-2.498V9.456a1.58 1.58 0 013.16 0v2.182l-1.008 2.454 2.39 1.553a.803.803 0 01.366.672v.002z"/></svg>