<svg xmlns="http://www.w3.org/2000/svg" width="24" height="24" viewBox="0 0 24 24"><path d="M10.5 5.339v-.004c0-1.059.479-2.006 1.233-2.636l.005-.004a.406.406 0 01.523 0l-.001-.001a3.43 3.43 0 011.239 2.64v4.317l7.777 3.889-.125.626-4.075-.532 1.74 1.74 3.531.461.625-3.124-7.973-3.986V5.34v-.006c0-1.52-.688-2.88-1.77-3.784l-.008-.006c-.328-.275-.756-.442-1.222-.442s-.893.167-1.225.445l.003-.002a4.923 4.923 0 00-1.778 3.791v.225l1.5 1.5zM1.805.75H.751v1.062l7.358 7.357-7.082 3.541.625 3.124 7.368-.961.363 3.807L6 20.13v3.12h12v-3.12l-3.383-1.45.261-2.742 7.312 7.312h1.059v-1.057zM16.5 21.12v.63h-9v-.63l3.48-1.491-.48-5.039v-1.422l-7.652.998-.125-.626 6.504-3.252 4.273 4.273v.029l-.48 5.039z"/></svg>