<svg xmlns="http://www.w3.org/2000/svg" width="24" height="24" viewBox="0 0 24 24"><path d="M19.955 4.045A11.214 11.214 0 0012 .75C5.787.75.75 5.787.75 12c0 3.107 1.259 5.919 3.295 7.955A11.214 11.214 0 0012 23.25c6.213 0 11.25-5.037 11.25-11.25 0-3.107-1.259-5.919-3.295-7.955zM12 21.75c-5.376 0-9.75-4.374-9.75-9.75S6.624 2.25 12 2.25s9.75 4.374 9.75 9.75-4.374 9.75-9.75 9.75z"/><path d="M12 7.125A4.875 4.875 0 1016.875 12 4.88 4.88 0 0012 7.125zm0 8.25A3.375 3.375 0 1115.375 12 3.379 3.379 0 0112 15.375z"/><path d="M11.25 11.25h1.5v1.5h-1.5v-1.5zM12 5.25v-1.5h-.026c-1.36 0-2.641.332-3.769.921l.045-.021a8.38 8.38 0 00-2.836 2.38l-.015.021 1.199.901a6.698 6.698 0 015.375-2.701h.029-.001z"/></svg>