<svg xmlns="http://www.w3.org/2000/svg" width="24" height="24" viewBox="0 0 24 24"><path d="M12.032.785C5.837.785.815 5.807.815 12.002c0 3.098 1.256 5.902 3.285 7.932a11.181 11.181 0 007.932 3.285c6.195 0 11.217-5.022 11.217-11.217 0-3.098-1.256-5.902-3.285-7.932A11.11 11.11 0 0012.063.785h-.032.002zm9.717 11.217v.012a9.606 9.606 0 01-1.097 4.474l.025-.053.632 1.094-1.299.751-.238-.412c-1.693 2.221-4.284 3.682-7.222 3.838l-.024.001-.637 1.114-1.302-.745.246-.431a9.754 9.754 0 01-6.948-4.347l-.023-.037h-1.27v-1.5h.477a9.553 9.553 0 01-.757-3.757c0-1.633.403-3.172 1.116-4.523l-.025.053-.622-1.084 1.301-.747.231.402c1.699-2.211 4.293-3.662 7.231-3.808l.023-.001.636-1.107 1.3.748-.244.425a9.752 9.752 0 016.921 4.351l.023.038h1.295v1.5h-.504a9.51 9.51 0 01.753 3.741v.011-.001z"/><path d="M21.5 6.751H10.737l-.862 1.5h4.339l-.235-.406 1.299-.751.669 1.157h5.554v-1.5z"/><path d="M15.277 7.094l-1.299.751 2.387 4.129.208-.364 1.302.745-.641 1.122 2.777 4.803 1.299-.751-6.033-10.435z"/><path d="M17.876 12.354l-1.302-.745L14.2 15.76h.412v1.5h-1.27l-2.754 4.815 1.302.745 5.985-10.466z"/><path d="M14.612 17.26v-1.5H9.859l.225.392-1.301.747-.654-1.139H2.593v1.5h12.018z"/><path d="M8.784 16.9l1.301-.747-2.375-4.136-.222.386-1.3-.748.658-1.144-2.762-4.809-1.301.747 6.001 10.45z"/><path d="M6.188 11.655l1.3.748 6.017-10.466-1.3-.748-6.017 10.466z"/></svg>