<svg xmlns="http://www.w3.org/2000/svg" width="24" height="24" viewBox="0 0 24 24"><path d="M4.125 1.5a3 3 0 103 3 3.004 3.004 0 00-3-3zm0 4.5a1.5 1.5 0 111.5-1.5 1.502 1.502 0 01-1.5 1.5zM12 1.5a3 3 0 103 3 3.004 3.004 0 00-3-3zM12 6a1.5 1.5 0 111.5-1.5A1.502 1.502 0 0112 6zM19.875 7.5a3 3 0 10-3-3 3.004 3.004 0 003 3zm0-4.5a1.5 1.5 0 11-1.5 1.5 1.502 1.502 0 011.5-1.5zM4.125 9a3 3 0 103 3 3.004 3.004 0 00-3-3zm0 4.5a1.5 1.5 0 111.5-1.5 1.502 1.502 0 01-1.5 1.5zM12 9a3 3 0 103 3 3.004 3.004 0 00-3-3zm0 4.5a1.5 1.5 0 111.5-1.5 1.502 1.502 0 01-1.5 1.5zM19.875 9a3 3 0 103 3 3.004 3.004 0 00-3-3zm0 4.5a1.5 1.5 0 111.5-1.5 1.502 1.502 0 01-1.5 1.5zM4.125 16.5a3 3 0 103 3 3.004 3.004 0 00-3-3zm0 4.5a1.5 1.5 0 111.5-1.5 1.502 1.502 0 01-1.5 1.5zM12 16.5a3 3 0 103 3 3.004 3.004 0 00-3-3zm0 4.5a1.5 1.5 0 111.5-1.5A1.502 1.502 0 0112 21zM19.875 16.5a3 3 0 103 3 3.004 3.004 0 00-3-3zm0 4.5a1.5 1.5 0 111.5-1.5 1.502 1.502 0 01-1.5 1.5z"/></svg>