<svg xmlns="http://www.w3.org/2000/svg" width="24" height="24" viewBox="0 0 24 24"><path d="M12.991 4.004l-.395 1.454a7.262 7.262 0 015.877 5.575l.009.048 1.496-.169c-.711-3.517-3.457-6.236-6.932-6.899l-.055-.009z"/><path d="M19.784 4.216a11.725 11.725 0 00-5.898-3.211l-.077-.014-.395 1.453a10.363 10.363 0 018.169 8.286l1.496-.169a11.76 11.76 0 00-3.294-6.345l-.001-.001zM10.927 6.973h-.147a5.817 5.817 0 00-5.763 5.816h1.511a4.316 4.316 0 014.266-4.316H10.896c2.331.032 4.24 1.956 4.255 4.287v.045a4.265 4.265 0 01-1.34 3.109l-.002.002a1.12 1.12 0 00-.347.812v2.376a2.648 2.648 0 01-2.645 2.645h-.405v1.5h.416a4.15 4.15 0 004.145-4.145v-2.218a5.822 5.822 0 001.689-4.108v-.03.002a5.833 5.833 0 00-5.729-5.777h-.005z"/><path d="M13.272 12.789v-.01a2.439 2.439 0 00-4.878 0v.011-.001h1.5v-.006a.938.938 0 111.878 0v.007zM10.125 14.25h1.5v1.5h-1.5v-1.5zM5.25 19.125h1.5v1.5h-1.5v-1.5zM5.796 15.954l1.061-1.061 4.125 4.125-1.061 1.061-4.125-4.125z"/></svg>