<svg xmlns="http://www.w3.org/2000/svg" width="24" height="24" viewBox="0 0 24 24"><path d="M22.125 3H1.875C1.254 3 .75 3.504.75 4.125v15.75c0 .621.504 1.125 1.125 1.125h20.25c.621 0 1.125-.504 1.125-1.125V4.125c0-.621-.504-1.125-1.125-1.125zm-.375 16.5H2.25v-15h19.5z"/><path d="M6.291 13.5h2.794l.875 2.625h1.581l-2.75-8.25H6.585l-2.75 8.25h1.581zm1.374-4.125h.044L8.584 12H6.791zM19.875 12.344v-.687a3.785 3.785 0 00-3.781-3.781h-2.969v8.25h2.969a3.785 3.785 0 003.781-3.781zm-5.25-2.969h1.469a2.283 2.283 0 012.281 2.281v.687a2.283 2.283 0 01-2.281 2.281h-1.469z"/></svg>