<svg xmlns="http://www.w3.org/2000/svg" width="24" height="24" viewBox="0 0 24 24"><path d="M9.527 18.113l.223-.245v-1.209L6.1 8.953H4.401l-3.65 7.706v1.268l.198.215a5.815 5.815 0 004.276 1.874h.02a5.815 5.815 0 004.279-1.899l.004-.005zm-1.277-.834a4.25 4.25 0 01-3.004 1.238h-.044a4.247 4.247 0 01-2.954-1.19l.001.001v-.331l3-6.333 3 6.333zM19.6 8.953h-1.699l-3.65 7.706v1.268l.198.215a5.815 5.815 0 004.276 1.874h.02a5.815 5.815 0 004.279-1.899l.004-.005.223-.245v-1.209zm2.15 8.326a4.25 4.25 0 01-3.004 1.238h-.044a4.247 4.247 0 01-2.954-1.19l.001.001v-.331l3-6.333 3 6.333z"/><path d="M12.75 9.218a2.647 2.647 0 001.76-1.747l.005-.019H19.5v-1.5h-4.985C14.182 4.859 13.182 4.077 12 4.077s-2.182.782-2.51 1.856l-.005.019H4.5v1.5h4.985a2.647 2.647 0 001.747 1.76l.019.005v12.485H6.376v1.5h11.25v-1.5h-4.875zm-1.875-2.515A1.125 1.125 0 1112 7.828a1.125 1.125 0 01-1.125-1.125z"/></svg>