<svg xmlns="http://www.w3.org/2000/svg" width="24" height="24" viewBox="0 0 24 24"><path d="M21.75 13.125h-18V4.687 4.68a2.4 2.4 0 01.708-1.704l.019-.019a2.42 2.42 0 012.761-.47l-.015-.006a3.668 3.668 0 00-.53 1.911c0 1.022.414 1.948 1.083 2.618l.513.513-.945.945 1.061 1.061 7.125-7.125-1.061-1.061-.945.945-.513-.513A3.694 3.694 0 0010.393.693c-.791 0-1.523.248-2.125.669l.012-.008A3.88 3.88 0 006.187.749a3.907 3.907 0 00-2.771 1.148l-.019.019a3.881 3.881 0 00-1.148 2.76v.011-.001 8.438h-1.5v1.5h1.5v1.439c0 .127.021.249.06.363l-.002-.008 1.395 4.186c.153.451.572.769 1.066.769h.606l-.547 1.875h1.562l.547-1.875h9.754l.563 1.875h1.566l-.563-1.875h.973c.494 0 .913-.319 1.064-.761l.002-.008 1.395-4.186c.037-.106.058-.228.058-.355v-1.439h1.5v-1.5zM8.837 2.837c.399-.398.949-.644 1.557-.644s1.158.246 1.557.644l.513.513L9.35 6.464l-.513-.513c-.398-.399-.644-.949-.644-1.557s.246-1.158.644-1.557zM20.25 16.003l-1.291 3.872H5.04l-1.291-3.872v-1.378h16.5z"/></svg>