<svg xmlns="http://www.w3.org/2000/svg" width="24" height="24" viewBox="0 0 24 24"><path d="M12.161 12.6l6.562-6.563-1.302-1.302a9.736 9.736 0 00-6.905-2.86C5.123 1.875.75 6.247.75 11.641a9.734 9.734 0 002.86 6.905l1.302 1.302L11.1 13.66l7.714 7.714h2.121zm-1.645-9.225h.022c2.275 0 4.335.926 5.822 2.421l.242.242-2.675 2.675a22.558 22.558 0 00-2.882-2.483l-.065-.045c-1.182-.836-2.317-1.422-3.375-1.741a6.6 6.6 0 00-.757-.187l-.044-.007a8.119 8.119 0 013.694-.876h.019-.001zM4.913 17.727l-.242-.242a8.253 8.253 0 01-2.421-5.851c0-1.351.323-2.626.897-3.753l-.022.047c.058.319.125.589.207.852l-.014-.051c.319 1.057.904 2.193 1.741 3.375a22.611 22.611 0 002.524 2.944l.004.004zm3.735-3.736a20.957 20.957 0 01-2.364-2.752C5.212 9.723 4.1 7.587 4.702 5.827c1.754-.6 3.881.503 5.391 1.567a21.084 21.084 0 012.773 2.379z"/></svg>