<svg xmlns="http://www.w3.org/2000/svg" width="24" height="24" viewBox="0 0 24 24"><path d="M5.438 12.563a4.688 4.688 0 104.688 4.688 4.694 4.694 0 00-4.687-4.688zm0 7.875a3.188 3.188 0 113.188-3.188 3.192 3.192 0 01-3.187 3.188zM18.563 12.563a4.688 4.688 0 104.688 4.688 4.694 4.694 0 00-4.687-4.688zm0 7.875a3.188 3.188 0 113.188-3.188 3.192 3.192 0 01-3.187 3.188zM16.5 4.41a1.598 1.598 0 11-3.196 0 1.598 1.598 0 013.196 0z"/><path d="M15.853 11.099c.205.209.49.338.805.339H18v-1.5h-1.184l-4.335-4.439-.022.022-.394-.394-5.25 5.25 2.121 2.121.015-.015 2.299 2.268v4.186h1.5v-4.343a1.132 1.132 0 00-.335-.801l-2.403-2.371 3.115-3.115z"/></svg>