<svg xmlns="http://www.w3.org/2000/svg" width="24" height="24" viewBox="0 0 24 24"><path d="M19.781 10.597h-5.156v-4.5h-1.688a3.98 3.98 0 00.8-2.401v-.017.001c0-1.296-.613-2.513-1.6-3.177l-.419-.282-.419.282c-.987.664-1.6 1.881-1.6 3.177v.016c0 .905.3 1.74.807 2.411l-.007-.01H8.625v4.5H4.219A2.722 2.722 0 001.5 13.316v8.434a1.502 1.502 0 001.5 1.5h18a1.502 1.502 0 001.5-1.5v-8.434a2.722 2.722 0 00-2.719-2.719zm-8.063-8.462c.328.407.519.959.519 1.545s-.191 1.138-.519 1.545c-.328-.407-.519-.959-.519-1.545s.191-1.138.519-1.545zm-1.593 5.462h3v3h-3zM3 13.316a1.22 1.22 0 011.219-1.219h15.563a1.22 1.22 0 011.219 1.219v1.48l-1.013.447a1.563 1.563 0 01-1.266-.004l.01.004-1.762-.777-1.762.777a1.563 1.563 0 01-1.266-.004l.01.004-1.762-.777-1.762.777a1.563 1.563 0 01-1.266-.004l.01.004-1.762-.777-1.762.777a1.563 1.563 0 01-1.266-.004l.01.004-1.387-.612zm18 8.434H3v-5.48l.782.345c.363.164.787.259 1.234.259s.871-.096 1.253-.267l-.019.008 1.157-.51 1.157.51c.363.164.787.259 1.234.259s.871-.096 1.253-.267l-.019.008 1.157-.51 1.157.51c.363.164.787.259 1.234.259s.871-.096 1.253-.267l-.019.008 1.157-.51 1.157.51c.363.164.787.259 1.234.259s.871-.095 1.253-.267l-.019.008.408-.18.001 5.315z"/></svg>