<svg xmlns="http://www.w3.org/2000/svg" width="24" height="24" viewBox="0 0 24 24"><path d="M20.4 11.625l-1.141-3.138a1.508 1.508 0 00-1.41-.987h-1.84l-.75-4.5h-4.896l.75 4.5H9.259L8.509 3H3.613l.75 4.5H2.248v4.125h-1.5V21h20.05l2.45-7.759v-1.616zM12.135 4.5h1.854l.5 3h-1.854zm-6.75 0h1.854l.5 3H5.885zM3.75 9h14.1l.955 2.625H3.751zM19.7 19.5H2.25v-6.375h19.464z"/><path d="M3.75 15h1.5v1.5h-1.5V15zM6.75 15h1.5v1.5h-1.5V15zM9.75 15h1.5v1.5h-1.5V15zM12.75 15h1.5v1.5h-1.5V15zM15.75 15h1.5v1.5h-1.5V15z"/></svg>