<svg xmlns="http://www.w3.org/2000/svg" width="24" height="24" viewBox="0 0 24 24"><path d="M4.766 18.75H21.75v-18H4.719a2.853 2.853 0 00-2.844 2.843v16.575h.001l-.001.021c0 1.659 1.302 3.061 2.844 3.061H21.75v-1.5H4.719c-.703 0-1.344-.744-1.344-1.561 0-.78.637-1.439 1.391-1.439zM16.875 2.266v8.101l-2.269-1.992-2.231 1.98V2.266zm-6-.016v10.125h1.483l2.254-2 2.278 2h1.486V2.25h1.875v15H6.38l-.004-15zm-6.156 0h.156l.004 15h-.113c-.512 0-.991.137-1.404.377l.013-.007V3.606v-.004a1.35 1.35 0 011.343-1.351z"/></svg>