<svg xmlns="http://www.w3.org/2000/svg" width="24" height="24" viewBox="0 0 24 24"><path d="M1.875 11.25h20.25v1.5H1.875v-1.5zM20.625 20.625h1.5v1.5h-1.5v-1.5zM14.352 20.625h1.568v1.5h-1.568v-1.5zM8.08 20.625h1.568v1.5H8.08v-1.5zM17.489 20.625h1.568v1.5h-1.568v-1.5zM4.943 20.625h1.568v1.5H4.943v-1.5zM1.875 20.625h1.5v1.5h-1.5v-1.5zM1.875 14.352h1.5v1.568h-1.5v-1.568zM1.875 17.489h1.5v1.568h-1.5v-1.568zM1.875 8.08h1.5v1.568h-1.5V8.08zM1.875 4.943h1.5v1.568h-1.5V4.943zM1.875 1.875h1.5v1.5h-1.5v-1.5zM14.352 1.875h1.568v1.5h-1.568v-1.5zM8.08 1.875h1.568v1.5H8.08v-1.5zM17.489 1.875h1.568v1.5h-1.568v-1.5zM11.216 1.875h1.568v1.5h-1.568v-1.5zM4.943 1.875h1.568v1.5H4.943v-1.5zM20.625 1.875h1.5v1.5h-1.5v-1.5zM20.625 17.489h1.5v1.568h-1.5v-1.568zM20.625 14.352h1.5v1.568h-1.5v-1.568zM20.625 4.943h1.5v1.568h-1.5V4.943zM20.625 8.08h1.5v1.568h-1.5V8.08zM11.216 14.352h1.568v1.568h-1.568v-1.568zM11.216 8.08h1.568v1.568h-1.568V8.08zM11.216 4.943h1.568v1.568h-1.568V4.943zM11.216 17.489h1.568v1.568h-1.568v-1.568zM11.216 20.625h1.568v1.5h-1.568v-1.5z"/></svg>