<svg xmlns="http://www.w3.org/2000/svg" width="24" height="24" viewBox="0 0 24 24"><path d="M14.625 6h-.002a8.589 8.589 0 00-6.541 3.012l-.01.012c-.08-.178-.163-.356-.25-.531l.533-4.219a3.13 3.13 0 10-6.209.016l-.002-.016.533 4.219c-.991 1.959-1.571 4.27-1.571 6.717 0 1.615.253 3.172.721 4.632l-.03-.107 1.101 3.517H7.6l.825-2.635a8.579 8.579 0 006.195 2.635h.005c4.756 0 8.625-3.869 8.625-8.625s-3.869-8.625-8.625-8.625zM4.027 2.802a1.629 1.629 0 012.839 1.291l.001-.008-.479 3.79H4.11l-.479-3.79a1.623 1.623 0 01.396-1.284l-.002.002zm3.244 16.483l-.772 2.465H4.001l-.772-2.465a13.273 13.273 0 01-.629-4.082c0-2.118.486-4.123 1.352-5.909l-.035.081h2.666q.262.552.472 1.119A8.504 8.504 0 006 14.624c0 1.687.485 3.261 1.324 4.589l-.021-.035-.032.107zm7.354 2.465c-3.929 0-7.125-3.196-7.125-7.125S10.696 7.5 14.625 7.5s7.125 3.196 7.125 7.125-3.196 7.125-7.125 7.125z"/><path d="M15.75 10.5a1.125 1.125 0 11-2.25 0 1.125 1.125 0 012.25 0zM19.125 12.75a1.125 1.125 0 11-2.25 0 1.125 1.125 0 012.25 0zM15.375 14.25a1.125 1.125 0 11-2.25 0 1.125 1.125 0 012.25 0z"/></svg>