<svg xmlns="http://www.w3.org/2000/svg" width="24" height="24" viewBox="0 0 24 24"><path d="M5.25 9A2.25 2.25 0 103 11.25 2.252 2.252 0 005.25 9zm-3 0a.75.75 0 11.75.75.75.75 0 01-.75-.75zM15 11.25A2.25 2.25 0 1012.75 9 2.252 2.252 0 0015 11.25zm0-3a.75.75 0 11-.75.75.75.75 0 01.75-.75zM8.625 5.25A2.25 2.25 0 106.375 3a2.252 2.252 0 002.25 2.25zm0-3a.75.75 0 11-.75.75.75.75 0 01.75-.75zM21 6.75A2.25 2.25 0 1023.25 9 2.252 2.252 0 0021 6.75zm0 3a.75.75 0 11.75-.75.75.75 0 01-.75.75zM21 5.25A2.25 2.25 0 1018.75 3 2.252 2.252 0 0021 5.25zm0-3a.75.75 0 11-.75.75.75.75 0 01.75-.75zM15 5.25A2.25 2.25 0 1012.75 3 2.252 2.252 0 0015 5.25zm0-3a.75.75 0 11-.75.75.75.75 0 01.75-.75zM17.625 15c-.045 0-.09.002-.135.004l-.041.003-.095.009a4.545 4.545 0 00-.043.006q-.051.007-.102.017l-.029.005q-.064.013-.126.029l-.033.009-.093.028-.041.014q-.044.015-.087.032l-.035.014a2.412 2.412 0 00-.116.052l-.014.007q-.05.025-.099.052l-.013.007-.012-.018q-.025-.038-.052-.075l-.021-.03a1.869 1.869 0 00-.077-.099l-.011-.012q-.035-.042-.072-.082l-.028-.03q-.03-.032-.062-.062l-.031-.03-.073-.065-.021-.019q-.048-.04-.098-.077a.298.298 0 00-.029-.02q-.037-.027-.076-.052l-.037-.024q-.037-.024-.076-.046l-.035-.02a2.372 2.372 0 00-.112-.058l-.011-.005q-.052-.025-.106-.047a1.515 1.515 0 01-.038-.015l-.084-.031-.041-.014a1.486 1.486 0 00-.095-.028l-.029-.008q-.062-.016-.126-.029l-.032-.006a3.33 3.33 0 00-.098-.016l-.044-.006q-.047-.006-.094-.009l-.041-.003c-.045-.003-.089-.004-.134-.004s-.09.002-.135.004l-.041.003-.095.009a4.545 4.545 0 00-.043.006q-.051.007-.102.017l-.029.005q-.064.013-.126.029l-.033.009-.093.028-.041.014q-.044.015-.087.032l-.035.014a2.412 2.412 0 00-.116.052l-.014.007q-.05.025-.099.052l-.013.007-.012-.018q-.025-.038-.052-.075l-.021-.03a1.869 1.869 0 00-.077-.099l-.011-.012q-.035-.042-.072-.082l-.028-.03q-.03-.032-.062-.062l-.031-.03-.073-.065-.021-.019q-.048-.04-.098-.077a.298.298 0 00-.029-.02q-.037-.027-.076-.052l-.037-.024q-.037-.024-.076-.046l-.035-.02a2.372 2.372 0 00-.112-.058l-.011-.005q-.052-.025-.106-.047a1.515 1.515 0 01-.038-.015l-.084-.031-.041-.014a1.486 1.486 0 00-.095-.028l-.029-.008q-.062-.016-.126-.029l-.032-.006a3.33 3.33 0 00-.098-.016l-.044-.006q-.047-.006-.094-.009l-.041-.003a1.998 1.998 0 00-.242-.001l-.035.002-.072.006-.04.004-.066.008-.04.006-.066.012-.038.007-.075.017-.027.006q-.05.013-.099.028l-.023.008c-.021.007-.042.013-.062.021v-2.003a2.25 2.25 0 10-4.5 0v4.502a3.707 3.707 0 00-2.246-.752h-.004a1.127 1.127 0 00-1.125 1.125v6.75h1.5v-6.344a2.257 2.257 0 011.875 2.219v.75h1.5v-8.25a.75.75 0 011.5 0v8.25h1.5v-4.125a.75.75 0 011.5 0v4.125h1.5v-3.375a.75.75 0 011.5 0v3.375h1.5v-2.625a.75.75 0 011.5 0v6h1.5v-6a2.252 2.252 0 00-2.25-2.25z"/></svg>