<svg xmlns="http://www.w3.org/2000/svg" width="24" height="24" viewBox="0 0 24 24"><path d="M19.502 9.904l3.751-1.346-.001-3.314-1.5.001.001 2.258-3.107 1.115h-2.144V7.167v-.004a4.503 4.503 0 00-1.043-2.89l.006.007 2.022-2.035h2.008v-1.5h-2.632l-2.531 2.547a4.49 4.49 0 00-2.377-.672c-.862 0-1.668.24-2.354.658l.02-.011L7.134.743 4.502.745l.001 1.5 2.004-.002 1.97 1.999a4.504 4.504 0 00-1.068 2.921V8.62H5.382L2.251 7.505V5.247h-1.5v3.316l3.752 1.336v3.971H.753v1.5h3.75v.384c0 .922.167 1.805.472 2.621l-.017-.052-4.205 1.621v3.302h1.5v-2.272l3.362-1.296c1.34 2.158 3.697 3.573 6.385 3.573a7.471 7.471 0 005.314-2.211c.402-.402.759-.85 1.062-1.335l.019-.032 3.358 1.3v2.273h1.5v-3.301l-4.201-1.626c.285-.76.451-1.638.451-2.554v-.03.002-.365h3.75v-1.5h-3.75zM8.908 7.167a3.047 3.047 0 116.094 0v1.452l-6.094.001zm-2.906 8.578v-5.626h5.248v11.585a6.006 6.006 0 01-5.248-5.959zm12-.008a6.015 6.015 0 01-5.221 5.962l-.03.003V10.12l5.251-.002z"/></svg>