<svg xmlns="http://www.w3.org/2000/svg" width="24" height="24" viewBox="0 0 24 24"><path d="M22.296 10.46l-4.232-.652-2.579-4.213a1.505 1.505 0 00-1.281-.717h-.011.001l-10.807.086a1.502 1.502 0 00-1.406 1.01l-.003.011L.75 9.627V18h2.578c.414 1.314 1.621 2.25 3.047 2.25s2.633-.936 3.04-2.227L9.421 18h4.782c.414 1.314 1.621 2.25 3.047 2.25s2.633-.936 3.04-2.227l.006-.023h2.953v-6.428-.005a1.12 1.12 0 00-.947-1.106l-.006-.001zm-8.089-4.082l2.067 3.377-5.774-.002V6.407zm-10.808.086L9 6.419v3.333L2.291 9.75zM6.375 18.75a1.688 1.688 0 111.688-1.688 1.69 1.69 0 01-1.687 1.688zm10.875 0a1.688 1.688 0 111.688-1.688 1.69 1.69 0 01-1.687 1.688zm4.5-2.25h-1.363a3.187 3.187 0 00-6.271-.02l-.003.02H9.512a3.187 3.187 0 00-6.271-.02l-.003.02H2.25v-5.249l15.493.025 4.007.617z"/></svg>