<svg xmlns="http://www.w3.org/2000/svg" width="24" height="24" viewBox="0 0 24 24"><path d="M17.567 8.759a2.542 2.542 0 00-2.401-1.721h-2.041V1.009l-.856.122c-1.942.277-3.455 1.262-4.496 2.925-.751 1.199-1.099 2.522-1.261 3.511-1.118.86-2.09 2.044-2.894 3.525-.677 1.248-1.238 2.71-1.667 4.347-.724 2.765-.822 5.059-.826 5.155v2.655h1.5v-2.608c.019-.386.491-8.829 5.017-12.044l.265-.188.044-.323c.226-1.67 1.006-4.428 3.674-5.276v5.728h3.54c.453 0 .838.29.979.695l.002.007c.598 1.765 1.625 3.974 3.227 5.012l-.482 1.806a2.944 2.944 0 01-2.844 2.198l-.092-.001h.004c-1.344-.04-2.742.135-4.157.521l-.553.151v4.323h1.5v-3.166a12.117 12.117 0 013.181-.329h-.016l.123.002a4.454 4.454 0 004.296-3.28l.007-.031.801-3.004-.596-.256c-1.116-.478-2.173-2.05-2.979-4.426z"/></svg>