<svg xmlns="http://www.w3.org/2000/svg" width="24" height="24" viewBox="0 0 24 24"><path d="M5.813 6.375H1.688a.94.94 0 00-.938.937v15a.94.94 0 00.937.938h4.125a.94.94 0 00.938-.937v-15a.94.94 0 00-.937-.938zM5.25 21.75h-3V7.875h3zM14.063 11.25H9.938a.94.94 0 00-.938.937v10.125a.94.94 0 00.937.938h4.125a.94.94 0 00.938-.937V12.188a.94.94 0 00-.937-.938zm-.563 10.5h-3v-9h3zM22.313.75h-4.125a.94.94 0 00-.938.937v20.625a.94.94 0 00.937.938h4.125a.94.94 0 00.938-.937V1.688a.94.94 0 00-.937-.938zm-.563 21h-3V2.25h3z"/></svg>