<svg xmlns="http://www.w3.org/2000/svg" width="24" height="24" viewBox="0 0 24 24"><path d="M21.01 18.399c1.431-1.275 2.24-2.974 2.24-4.738 0-1.874-.877-3.627-2.471-4.936C19.229 7.451 17.176 6.75 15 6.75s-4.229.701-5.779 1.975c-1.593 1.309-2.471 3.062-2.471 4.936s.877 3.627 2.471 4.936c1.55 1.273 3.603 1.975 5.779 1.975.29 0 .582-.013.871-.038l.494.428a9.32 9.32 0 006.134 2.288h.75v-1.596l-.22-.22a9.362 9.362 0 01-1.998-2.974l-.023-.061zm-3.662 1.429l-.992-.86-.331.041c-.308.04-.664.062-1.025.062-3.722 0-6.75-2.427-6.75-5.411S11.278 8.249 15 8.249s6.75 2.427 6.75 5.411c0 1.486-.742 2.874-2.088 3.907l-.432.331.199.564a10.852 10.852 0 001.792 3.199l-.016-.02a7.868 7.868 0 01-3.867-1.823l.01.008z"/><path d="M2.821 14.882A10.273 10.273 0 004.43 12l.023-.072.198-.561-.432-.331c-1.27-.974-1.969-2.282-1.969-3.682 0-2.814 2.86-5.103 6.375-5.103 2.586 0 4.817 1.239 5.816 3.014.185-.009.372-.014.559-.014q.564 0 1.117.055c-.386-1-1.056-1.913-1.978-2.67C12.659 1.421 10.701.751 8.625.751S4.59 1.42 3.111 2.636C1.589 3.887.75 5.562.75 7.354c0 1.678.766 3.295 2.121 4.511a8.874 8.874 0 01-1.902 2.847l-.219.219v1.57h.75a8.9 8.9 0 004.046-.967l-.051.023a7.166 7.166 0 01-.237-1.562l-.001-.015a7.292 7.292 0 01-2.39.895l-.046.007z"/></svg>