<svg xmlns="http://www.w3.org/2000/svg" width="24" height="24" viewBox="0 0 24 24"><path d="M11.835 16.173l-5.11-5.11L3 14.788l8.837 8.837 3.195-3.194.525-.529 5.113-5.113-3.725-3.725zm2.134 3.195l-.524.527-1.61 1.61-.002-.002-1.607-1.607.002-.002-5.107-5.107 1.603-1.603 5.11 5.11 5.11-5.11 1.603 1.603z"/><path d="M8.112 9.534l3.191 3.191.534.53 3.195-3.194.525-.529 5.113-5.113L16.945.694l-5.11 5.11-5.11-5.11L3 4.419l5.113 5.113zM5.121 4.419l1.603-1.603 5.11 5.11 5.11-5.11 1.603 1.603-6.716 6.716-1.607-1.607.002-.002z"/></svg>