<svg xmlns="http://www.w3.org/2000/svg" width="24" height="24" viewBox="0 0 24 24"><path d="M23.622 11.997l.002-.002-8.834-8.83-3.725 3.725 5.11 5.11-5.11 5.11 3.725 3.725L23.625 12zm-8.832 6.717l-1.603-1.604 5.11-5.11-5.11-5.11 1.603-1.604L21.508 12l-1.605 1.605-.002-.002-.003.003z"/><path d="M13.256 12l-.003-.003.002-.002-3.191-3.191-.529-.525-5.114-5.113L.696 6.891l5.11 5.11-5.11 5.11 3.725 3.725 8.307-8.303zM9.53 13.609l-.002-.002-5.107 5.107-1.603-1.604L7.928 12l-5.11-5.11 1.603-1.604L11.139 12z"/></svg>