<svg xmlns="http://www.w3.org/2000/svg" width="24" height="24" viewBox="0 0 24 24"><path d="M19.94 9.377c-1.134-2.615-3.449-4.53-6.253-5.088l-.055-.009 1.254-2.007-1.272-.795-1.655 2.648a8.631 8.631 0 00-7.878 5.195l-.022.056a3.374 3.374 0 00-.003 6.746h.003c1.349 3.113 4.395 5.252 7.94 5.252s6.591-2.138 7.919-5.196l.022-.056a3.374 3.374 0 00.003-6.746h-.003zm1.273 4.686a1.86 1.86 0 01-1.3.561h-.002l-.971.018-.38.894c-1.114 2.572-3.631 4.339-6.56 4.339s-5.446-1.767-6.542-4.293l-.018-.046-.38-.894-.971-.018a1.874 1.874 0 01-.002-3.748h.002l.971-.018.38-.894C6.554 7.392 9.071 5.625 12 5.625s5.446 1.767 6.542 4.293l.018.046.38.894.971.018a1.874 1.874 0 011.301 3.186z"/><path d="M7.875 10.875H9.75v1.875H7.875v-1.875zM14.25 10.875h1.875v1.875H14.25v-1.875zM12 18a3.75 3.75 0 003.75-3.75h-7.5A3.75 3.75 0 0012 18z"/></svg>