<svg xmlns="http://www.w3.org/2000/svg" width="24" height="24" viewBox="0 0 24 24"><path d="M20.862 16.178l.888-3.33v-1.973C21.369 6.469 17.628 3 13.125 3h-1.5v7.875h-5.43l-.836-3.692A1.51 1.51 0 003.893 6H.75v1.5h3.142l1.897 8.375a3.757 3.757 0 00-2.79 3.625 3.75 3.75 0 007.5 0c0-.127-.006-.252-.019-.375h4.913a3.858 3.858 0 00-.019.375v.002a3.75 3.75 0 105.507-3.314l-.02-.01zM13.125 4.5c3.676 0 6.71 2.797 7.086 6.375h-7.086zM6.75 21.75A2.25 2.25 0 119 19.5a2.252 2.252 0 01-2.25 2.25zm9.129-4.125H9.995a3.766 3.766 0 00-2.665-1.83l-.021-.003-.774-3.417H20.25v.277l-.83 3.111a3.75 3.75 0 00-3.531 1.844l-.01.018zm3.246 4.125a2.25 2.25 0 112.25-2.25 2.252 2.252 0 01-2.25 2.25z"/></svg>