<svg xmlns="http://www.w3.org/2000/svg" viewBox="0 0 512 512">
  <path fill="currentColor" d="M472,128H371.833A71.9618,71.9618,0,0,0,256,42.8149,71.9618,71.9618,0,0,0,140.167,128H40a24.0275,24.0275,0,0,0-24,24V473.5557C16,485.9316,26.7666,496,40,496H472c13.2334,0,24-10.0684,24-22.4443V152A24.0275,24.0275,0,0,0,472,128ZM312,48a40,40,0,0,1,0,80H272V88A40.0458,40.0458,0,0,1,312,48ZM160,88a40,40,0,0,1,80,0v40H200A40.0458,40.0458,0,0,1,160,88ZM48,464V256H192V464Zm176,0V256h64V464Zm240,0H320V256H464ZM48,224V160H464v64Z" class="ci-primary"/>
</svg>
