<svg xmlns="http://www.w3.org/2000/svg" viewBox="0 0 512 512">
  <path fill="currentColor" d="M 126.640625 202.671875 L 51.992188 202.671875 C 51.960938 202.671875 51.921875 202.671875 51.871094 202.671875 C 40.097656 202.671875 30.246094 210.910156 27.777344 221.945312 L 27.742188 222.113281 C 20.230469 254.160156 15.929688 290.953125 15.929688 328.761719 C 15.929688 364.128906 19.695312 398.625 26.855469 431.855469 L 26.28125 428.65625 L 27.777344 435.847656 C 30.238281 447.199219 40.183594 455.585938 52.089844 455.632812 L 126.640625 455.632812 C 140.351562 455.617188 151.464844 444.503906 151.480469 430.792969 L 151.480469 227.527344 C 151.464844 213.816406 140.351562 202.703125 126.648438 202.6875 Z M 119.472656 423.609375 L 57.910156 423.609375 L 57.601562 422.121094 C 51.449219 394.054688 47.921875 361.824219 47.921875 328.769531 C 47.921875 295.441406 51.503906 262.953125 58.304688 231.664062 L 57.761719 234.664062 L 119.472656 234.664062 Z M 119.472656 423.609375" class="ci-primary"/>
  <path fill="currentColor" d="M 494.457031 277.28125 L 472.367188 218.375 C 468.800781 209.144531 460.007812 202.703125 449.710938 202.671875 L 332.007812 202.671875 L 332.007812 173.136719 L 341.585938 151.9375 C 346.511719 141.28125 349.390625 128.816406 349.390625 115.671875 C 349.390625 79.855469 328.023438 49.03125 297.335938 35.246094 L 296.777344 35.023438 C 293.921875 33.742188 290.585938 33 287.070312 33 C 277.34375 33 268.953125 38.710938 265.070312 46.96875 L 265.007812 47.121094 L 184.695312 222.9375 L 184.695312 248 L 208.425781 248 L 290.703125 67.878906 C 306.824219 77.9375 317.382812 95.566406 317.382812 115.671875 C 317.382812 124.039062 315.550781 131.984375 312.273438 139.113281 L 312.414062 138.761719 L 301.425781 163.105469 L 300.007812 169.6875 L 300.007812 218.664062 L 316.007812 234.664062 L 444.304688 234.664062 L 464 287.191406 L 464 296.464844 L 396.007812 415.960938 L 271.0625 415.960938 L 184.6875 365.289062 L 184.6875 402.390625 L 256.695312 444.632812 C 260.199219 446.71875 264.433594 447.960938 268.945312 447.960938 L 400.542969 447.960938 C 409.503906 447.953125 417.328125 443.078125 421.519531 435.839844 L 421.585938 435.71875 L 492.839844 310.488281 C 494.832031 307.046875 496 302.921875 496.007812 298.519531 L 496.007812 285.769531 C 496.007812 285.761719 496.007812 285.761719 496.007812 285.753906 C 496.007812 282.703125 495.441406 279.785156 494.40625 277.105469 L 494.464844 277.273438 Z M 494.457031 277.28125" class="ci-primary"/>
</svg>
