<svg xmlns="http://www.w3.org/2000/svg" viewBox="0 0 512 512">
  <path fill="currentColor" d="M425.8564,87.3789A239.3646,239.3646,0,1,0,87.3438,425.8916,239.3646,239.3646,0,1,0,425.8564,87.3789ZM256.6006,464C142.2588,464,49.2354,370.9766,49.2354,256.6353S142.2588,49.2705,256.6006,49.2705s207.3642,93.0234,207.3642,207.3648S370.9414,464,256.6006,464Z" class="ci-primary"/>
  <path fill="currentColor" d="M256.6006,192.6353a64,64,0,1,0,64,64A64.0723,64.0723,0,0,0,256.6006,192.6353Zm0,96a32,32,0,1,1,32-32A32.0364,32.0364,0,0,1,256.6006,288.6353Z" class="ci-primary"/>
</svg>
