<svg xmlns="http://www.w3.org/2000/svg" viewBox="0 0 512 512">
  <path fill="currentColor" d="M394.6328,220.6631,269.4746,25.1738a15.9993,15.9993,0,0,0-26.9492,0L117.3643,220.665A170.5253,170.5253,0,0,0,84.1025,322.3008c0,94.7851,77.1133,171.8984,171.8975,171.8984s171.8975-77.1133,171.8975-171.8984A170.5139,170.5139,0,0,0,394.6328,220.6631ZM256,462.1992c-77.14,0-139.8975-62.7578-139.8975-139.8984a138.7554,138.7554,0,0,1,27.3213-83.0576q.3193-.4322.6084-.8838L256,63.4746,367.9668,238.3594q.2886.4526.6084.8838a138.752,138.752,0,0,1,27.3223,83.0576C395.8975,399.4414,333.14,462.1992,256,462.1992Z" class="ci-primary"/>
</svg>
