<svg xmlns="http://www.w3.org/2000/svg" viewBox="0 0 512 512">
  <path fill="currentColor" d="M135.5388,453.9044a7.9792,7.9792,0,0,1-11.51-8.3623l20.57-133.3439L49.58,216.4113a8,8,0,0,1,4.3962-13.5306L187.15,181.2382,256,76.2043V17.8335L237.2373,46.457,168.1112,151.9125,48.8431,171.2951a39.8469,39.8469,0,0,0-31.6258,27.1216A40.4384,40.4384,0,0,0,16,203.183v15.2757a39.9,39.9,0,0,0,10.8617,20.4887l83.65,84.3265-18.1085,117.39a39.9788,39.9788,0,0,0,57.5474,41.8119L256,428.977V393.1358Z" class="ci-primary"/>
</svg>
