<svg xmlns="http://www.w3.org/2000/svg" viewBox="0 0 512 512">
  <rect width="32" height="32" x="296" y="40" fill="currentColor" class="ci-primary"/>
  <rect width="32" height="32" x="368" y="40" fill="currentColor" class="ci-primary"/>
  <rect width="32" height="32" x="296" y="440" fill="currentColor" class="ci-primary"/>
  <rect width="32" height="32" x="368" y="440" fill="currentColor" class="ci-primary"/>
  <rect width="32" height="32" x="440" y="40" fill="currentColor" class="ci-primary"/>
  <rect width="32" height="33.454" x="440" y="105.454" fill="currentColor" class="ci-primary"/>
  <rect width="32" height="33.454" x="440" y="172.363" fill="currentColor" class="ci-primary"/>
  <rect width="32" height="33.454" x="440" y="373.091" fill="currentColor" class="ci-primary"/>
  <rect width="32" height="33.454" x="440" y="239.272" fill="currentColor" class="ci-primary"/>
  <rect width="32" height="33.454" x="440" y="306.182" fill="currentColor" class="ci-primary"/>
  <rect width="32" height="32" x="440" y="440" fill="currentColor" class="ci-primary"/>
  <path fill="currentColor" d="M40,456a16,16,0,0,0,16,16H224v24h32V16H224V40H56A16,16,0,0,0,40,56ZM72,72H224V440H72Z" class="ci-primary"/>
</svg>
