<svg xmlns="http://www.w3.org/2000/svg" width="24" height="24" viewBox="0 0 24 24"><path d="M22.125 3H1.875C1.254 3 .75 3.504.75 4.125v15.75c0 .621.504 1.125 1.125 1.125h20.25c.621 0 1.125-.504 1.125-1.125V4.125c0-.621-.504-1.125-1.125-1.125zm-.375 16.5H2.25v-15h19.5z"/><path d="M8.625 16.125h.015c.963 0 1.849-.334 2.547-.892l-.008.006-.929-1.177a2.58 2.58 0 01-1.614.563h-.011.001a2.625 2.625 0 110-5.25h.011c.612 0 1.175.212 1.619.567l-.005-.004.929-1.178a4.054 4.054 0 00-2.538-.885h-.017.001a4.125 4.125 0 000 8.25zM16.286 16.125h.015c.963 0 1.849-.334 2.547-.892l-.008.006-.929-1.177a2.58 2.58 0 01-1.614.563h-.011.001a2.625 2.625 0 110-5.25h.011c.612 0 1.175.212 1.619.567l-.005-.004.929-1.178a4.054 4.054 0 00-2.538-.885h-.016.001a4.125 4.125 0 000 8.25z"/></svg>