<svg xmlns="http://www.w3.org/2000/svg" width="24" height="24" viewBox="0 0 24 24"><path d="M6.722 15.558a.832.832 0 00.159-.015l-.005.001 4.213-.997 8.916-8.916a2.95 2.95 0 10-4.171-4.171l-8.916 8.916-.991 4.181-.007.032a.817.817 0 00.802.971zm1.557-4.423l8.615-8.615a1.45 1.45 0 112.05 2.05l-8.615 8.615-2.687.637zM22.125 17.625H1.875A1.127 1.127 0 00.75 18.75v3.375a1.127 1.127 0 001.125 1.125h20.25a1.127 1.127 0 001.125-1.125V18.75a1.127 1.127 0 00-1.125-1.125zm-.375 4.125H2.25v-2.625h19.5z"/></svg>