<svg xmlns="http://www.w3.org/2000/svg" width="24" height="24" viewBox="0 0 24 24"><path d="M19.946 3.846C17.849 1.849 15.032.75 12.013.75c-2.814 0-5.618.941-7.695 2.581C2.017 5.149.75 7.695.75 10.5c0 2.817.728 4.635 2.291 5.72 1.313.911 3.207 1.3 6.334 1.3h1.395c.679.001 1.23.551 1.23 1.23v2.249a1.5 1.5 0 001.5 1.5l4.256-.004c.35-.001.671-.121.926-.321l-.003.002c.456-.357 1.628-1.378 2.662-3.136 1.267-2.153 1.909-4.648 1.909-7.416 0-2.987-1.173-5.75-3.304-7.779zm.102 14.434c-.904 1.537-1.906 2.412-2.294 2.715l-4.254.004V18.75a2.733 2.733 0 00-2.73-2.73H9.375c-2.798 0-4.436-.309-5.479-1.032-1.139-.79-1.646-2.174-1.646-4.487 0-5.164 4.964-8.25 9.763-8.25 5.46 0 9.737 4.118 9.737 9.375 0 2.496-.573 4.735-1.702 6.655z"/><path d="M6 6.75a2.625 2.625 0 102.625 2.625A2.629 2.629 0 006 6.75zm0 3.75a1.125 1.125 0 111.125-1.125A1.127 1.127 0 016 10.5zM11.25 3.375A2.625 2.625 0 1013.875 6a2.629 2.629 0 00-2.625-2.625zm0 3.75A1.125 1.125 0 1112.375 6a1.127 1.127 0 01-1.125 1.125zM16.875 11.25a2.625 2.625 0 10-2.625-2.625 2.629 2.629 0 002.625 2.625zm0-3.75a1.125 1.125 0 11-1.125 1.125A1.127 1.127 0 0116.875 7.5zM17.625 12.375A2.625 2.625 0 1020.25 15a2.629 2.629 0 00-2.625-2.625zm0 3.75A1.125 1.125 0 1118.75 15a1.127 1.127 0 01-1.125 1.125z"/></svg>