<svg xmlns="http://www.w3.org/2000/svg" width="24" height="24" viewBox="0 0 24 24"><path d="M23.25 23.25h-.75a12.763 12.763 0 01-8.407-3.144l.016.013-.789-.684c-.438.043-.88.064-1.319.064-2.978 0-5.784-.958-7.901-2.697C1.94 15.028.751 12.656.751 10.124S1.94 5.22 4.1 3.446C6.217 1.707 9.023.749 12.001.749s5.784.958 7.901 2.697c2.16 1.774 3.349 4.146 3.349 6.678a7.984 7.984 0 01-1.009 3.892l.021-.041a9.534 9.534 0 01-2.192 2.686l-.014.011a13.43 13.43 0 002.975 4.547l.219.219zm-9.447-5.38l1.288 1.116a11.252 11.252 0 006.281 2.708l.047.004a14.841 14.841 0 01-2.902-4.846l-.033-.104-.206-.584.432-.331c1.961-1.505 3.041-3.532 3.041-5.708 0-4.342-4.374-7.875-9.75-7.875s-9.75 3.533-9.75 7.875S6.625 18 12.001 18c.519 0 1.03-.033 1.532-.096l-.06.006z"/></svg>