<svg xmlns="http://www.w3.org/2000/svg" width="24" height="24" viewBox="0 0 24 24"><path d="M12 .75C5.787.75.75 5.787.75 12S5.787 23.25 12 23.25 23.25 18.213 23.25 12 18.213.75 12 .75zM2.25 12q0-.465.043-.922l8.676 4.857v2.5L2.386 13.63a9.574 9.574 0 01-.135-1.626v-.003zm1.045-4.397l7.673 4.3v2.312L2.569 9.513a9.5 9.5 0 01.47-1.371l-.024.063q.13-.307.28-.603zm7.674-5.299v3.768L6.767 3.771a9.561 9.561 0 014.159-1.463l.043-.004zM5.462 4.767l5.507 3.016v2.401L4.074 6.32c.325-.45.664-.847 1.032-1.214q.174-.174.356-.339zm-.356 14.127a9.752 9.752 0 01-2.066-3.037l-.024-.063-.05-.121 8.003 4.48v1.543a9.702 9.702 0 01-5.863-2.802zm13.788 0a9.68 9.68 0 01-6.403 2.844l-.022.001V2.261c5.181.252 9.286 4.515 9.286 9.735a9.72 9.72 0 01-2.86 6.898z"/></svg>