<svg xmlns="http://www.w3.org/2000/svg" width="24" height="24" viewBox="0 0 24 24"><path d="M21 11.345v-4.22a2.252 2.252 0 00-2.25-2.25H5.25A2.252 2.252 0 003 7.125v4.22A3.012 3.012 0 00.75 14.25v5.25a1.502 1.502 0 001.5 1.5H3v2.25h1.5V21h15v2.25H21V21h.75a1.502 1.502 0 001.5-1.5v-5.25a3.007 3.007 0 00-2.229-2.9L21 11.345zM5.25 19.5h-3v-5.25a1.5 1.5 0 013 0zm12 0H6.75V15h10.5zm.095-6H6.655a3.023 3.023 0 00-2.134-2.15l-.021-.005v-4.22a.75.75 0 01.75-.75h13.5a.75.75 0 01.75.75v4.22a3.023 3.023 0 00-2.15 2.134l-.005.021zm4.405 6h-3v-5.25a1.5 1.5 0 013 0l.001 5.25z"/></svg>