<svg xmlns="http://www.w3.org/2000/svg" width="24" height="24" viewBox="0 0 24 24"><path d="M5.672.75A2.25 2.25 0 107.922 3 2.252 2.252 0 005.672.75zm0 3a.75.75 0 11.75-.75.75.75 0 01-.75.75zM11.672.75A2.25 2.25 0 1013.922 3a2.252 2.252 0 00-2.25-2.25zm0 3a.75.75 0 11.75-.75.75.75 0 01-.75.75zM17.672 5.25A2.25 2.25 0 1015.422 3a2.252 2.252 0 002.25 2.25zm0-3a.75.75 0 11-.75.75.75.75 0 01.75-.75zM5.672 6.75A2.25 2.25 0 107.922 9a2.252 2.252 0 00-2.25-2.25zm0 3a.75.75 0 11.75-.75.75.75 0 01-.75.75zM11.672 6.75A2.25 2.25 0 1013.922 9a2.252 2.252 0 00-2.25-2.25zm0 3a.75.75 0 11.75-.75.75.75 0 01-.75.75zM17.672 6.75A2.25 2.25 0 1019.922 9a2.252 2.252 0 00-2.25-2.25zm0 3a.75.75 0 11.75-.75.75.75 0 01-.75.75zM5.672 12.75A2.25 2.25 0 107.922 15a2.252 2.252 0 00-2.25-2.25zm0 3a.75.75 0 11.75-.75.75.75 0 01-.75.75zM11.672 12.75a2.25 2.25 0 102.25 2.25 2.252 2.252 0 00-2.25-2.25zm0 3a.75.75 0 11.75-.75.75.75 0 01-.75.75zM17.672 12.75a2.25 2.25 0 102.25 2.25 2.252 2.252 0 00-2.25-2.25zm0 3a.75.75 0 11.75-.75.75.75 0 01-.75.75zM11.672 18.75a2.25 2.25 0 102.25 2.25 2.252 2.252 0 00-2.25-2.25zm0 3a.75.75 0 11.75-.75.75.75 0 01-.75.75z"/></svg>