<svg xmlns="http://www.w3.org/2000/svg" width="24" height="24" viewBox="0 0 24 24"><path d="M12 23.166c-4.443 0-8.058-3.615-8.058-8.058v-.021c0-1.785.585-3.434 1.574-4.764l-.015.021 5.867-9.164a.751.751 0 011.262-.003l.002.003 5.867 9.164a7.935 7.935 0 011.559 4.743v.022-.001c0 4.443-3.615 8.058-8.058 8.058zm0-20.191l-5.248 8.198-.029.041a6.456 6.456 0 00-1.281 3.876v.019-.001c0 3.616 2.942 6.558 6.558 6.558s6.558-2.942 6.558-6.558v-.018c0-1.46-.481-2.807-1.293-3.893l.012.017-.029-.041z"/></svg>