<svg xmlns="http://www.w3.org/2000/svg" width="24" height="24" viewBox="0 0 24 24"><path d="M18.498 10.344L12.631 1.18a.751.751 0 00-1.262-.003l-.002.003L5.5 10.344a7.935 7.935 0 00-1.559 4.743v.022-.001c0 4.443 3.615 8.058 8.058 8.058s8.058-3.615 8.058-8.058v-.021a7.957 7.957 0 00-1.574-4.764l.015.021zM12 21.666a6.566 6.566 0 01-6.558-6.558v-.018c0-1.46.481-2.807 1.293-3.893l-.012.017.029-.041 5.249-8.198 5.248 8.198.029.041a6.456 6.456 0 011.281 3.876v.019-.001a6.566 6.566 0 01-6.558 6.558z"/></svg>