<svg xmlns="http://www.w3.org/2000/svg" width="24" height="24" viewBox="0 0 24 24"><path d="M4.5 6.844V.75H3v6.094C1.693 7.187.744 8.358.744 9.75s.949 2.563 2.235 2.902l.021.005v10.594h1.5V12.657c1.307-.343 2.256-1.514 2.256-2.906s-.949-2.563-2.235-2.902L4.5 6.844zm-.75 4.406a1.5 1.5 0 111.5-1.5 1.5 1.5 0 01-1.5 1.5zM12.75 13.594V.75h-1.5v12.844c-1.307.343-2.256 1.514-2.256 2.906s.949 2.563 2.235 2.902l.021.005v3.844h1.5v-3.844c1.307-.343 2.256-1.514 2.256-2.906s-.949-2.563-2.235-2.902l-.021-.005zM12 18a1.5 1.5 0 111.5-1.5A1.5 1.5 0 0112 18zM21 3.844V.75h-1.5v3.094c-1.307.343-2.256 1.514-2.256 2.906s.949 2.563 2.235 2.902l.021.005v13.594H21V9.657c1.307-.343 2.256-1.514 2.256-2.906s-.949-2.563-2.235-2.902L21 3.844zm-.75 4.406a1.5 1.5 0 111.5-1.5 1.5 1.5 0 01-1.5 1.5z"/></svg>