<svg xmlns="http://www.w3.org/2000/svg" width="24" height="24" viewBox="0 0 24 24"><path d="M12 .75C5.787.75.75 5.787.75 12S5.787 23.25 12 23.25 23.25 18.213 23.25 12 18.213.75 12 .75zm6.894 18.144a9.684 9.684 0 01-6.859 2.835c-5.365 0-9.715-4.349-9.715-9.715s4.349-9.715 9.715-9.715c5.365 0 9.715 4.349 9.715 9.715a9.688 9.688 0 01-.79 3.843l.024-.063a9.768 9.768 0 01-2.09 3.099z"/><path d="M6 9h1.875v1.875H6V9zM15.75 9h1.875v1.875H15.75V9zM10.875 14.388c0-.023.003-.046.01-.067v.002l1.491-5.218v-1.23h-1.5v1.02l-1.433 5.016a1.737 1.737 0 001.67 2.214h2.763v-1.5h-2.763a.237.237 0 01-.237-.237z"/></svg>