<svg xmlns="http://www.w3.org/2000/svg" width="24" height="24" viewBox="0 0 24 24"><path d="M12 .75C5.787.75.75 5.787.75 12S5.787 23.25 12 23.25 23.25 18.213 23.25 12 18.213.75 12 .75zm6.894 18.144a9.684 9.684 0 01-6.859 2.835c-5.365 0-9.715-4.349-9.715-9.715s4.349-9.715 9.715-9.715c5.365 0 9.715 4.349 9.715 9.715a9.688 9.688 0 01-.79 3.843l.024-.063a9.768 9.768 0 01-2.09 3.099z"/><path d="M7.875 15h8.25v1.5h-8.25V15zM9.873 10.689L8.746 9.687 9.748 8.56l-1.121-.997L7.625 8.69 6.498 7.688l-.997 1.121 1.127 1.002-1.002 1.127 1.121.997 1.002-1.127 1.127 1.002.997-1.121zM17.998 8.561l-1.121-.997-1.002 1.127-1.127-1.002-.997 1.121 1.127 1.002-1.002 1.127 1.121.997 1.002-1.127 1.127 1.002.997-1.121-1.127-1.002 1.002-1.127z"/></svg>