<svg xmlns="http://www.w3.org/2000/svg" width="24" height="24" viewBox="0 0 24 24"><path d="M22.872 10.953l-2.997-2.664V4.19L16.436.751H7.125v6H3.75a1.127 1.127 0 00-1.125 1.125v14.25a1.127 1.127 0 001.125 1.125h19.5V11.794c0-.334-.146-.634-.377-.84l-.001-.001zm-4.497-6.142v.439h-3v-3h.439zM8.625 2.25h5.25v4.5h4.5v3.375h-9.75zm-1.5 19.5h-3V8.25h3zm14.625 0H8.625V11.625h11.25v-1.33l1.875 1.667z"/><path d="M10.875 16.125h1.5v1.5h-1.5v-1.5zM13.875 16.125h1.5v1.5h-1.5v-1.5zM10.875 19.125h1.5v1.5h-1.5v-1.5zM13.875 19.125h1.5v1.5h-1.5v-1.5zM16.875 16.125h1.5v1.5h-1.5v-1.5zM16.875 19.125h1.5v1.5h-1.5v-1.5zM10.875 13.125h7.5v1.5h-7.5v-1.5z"/></svg>