<svg xmlns="http://www.w3.org/2000/svg" width="24" height="24" viewBox="0 0 24 24"><path d="M20.625 1.875H3.375a1.502 1.502 0 00-1.5 1.5v17.25a1.502 1.502 0 001.5 1.5h17.25a1.502 1.502 0 001.5-1.5V3.375a1.502 1.502 0 00-1.5-1.5zm0 18.75H3.375V3.375h17.25z"/><path d="M5.654 12.269l.001.106.015 1.077 3.846 1.238 1.211 3.845h2.545l1.211-3.845 3.846-1.238.015-1.077.001-.106.003-.239.015-1.091-3.681-1.247-1.436-4.254h-2.495L9.315 9.692l-3.681 1.247.015 1.091zm4.846-1.394l1.329-3.937h.341l1.329 3.937 3.35 1.135-.005.345-3.559 1.146-1.113 3.535h-.345l-1.113-3.535-3.559-1.146-.005-.345z"/></svg>