<svg xmlns="http://www.w3.org/2000/svg" width="24" height="24" viewBox="0 0 24 24"><path d="M6.961 15.604l5.723-5.924 1.079 1.042-5.723 5.924-1.079-1.042z"/><path d="M15.488 13.239a3.75 3.75 0 00-5.306-5.3L6.671 11.45a5.668 5.668 0 01-4.03 1.676h-.39v1.5h.395a7.156 7.156 0 005.087-2.115L11.244 9a2.25 2.25 0 113.182 3.182l-3.197 3.253a6.401 6.401 0 00-1.853 4.512v.016-.001 1.789h1.5v-1.789-.012c0-1.351.543-2.574 1.423-3.465z"/><path d="M18.616 15.415c-.931 1.013-3.868 3.984-3.897 4.014l-.005.005a.567.567 0 11-.813-.791l3.71-3.815a6.352 6.352 0 001.865-4.504 6.353 6.353 0 00-1.868-4.508 6.382 6.382 0 00-9.016 0L5.714 8.783c-1.504 1.341-2.04 1.341-3.463 1.341v1.5c1.713 0 2.619-.074 4.483-1.741l.02-.018 2.903-2.993a4.875 4.875 0 016.891 6.898l-3.721 3.826a2.067 2.067 0 002.962 2.884c.149-.151 2.988-3.024 3.932-4.051 1.637-1.78 2.78-4.218 2.78-5.93h-1.5c0 1.324-1.025 3.437-2.384 4.915z"/><path d="M19.928 3.633c-1.649-1.594-3.718-2.508-5.678-2.508v1.5c1.574 0 3.264.76 4.635 2.086C20.209 5.991 21 7.595 21 9h1.5c0-1.831-.938-3.787-2.572-5.367zM6.232 6.44c1.034-1.427 2.765-3.815 6.518-3.815v-1.5c-4.518 0-6.609 2.885-7.732 4.435-.763 1.053-1.669 1.565-2.768 1.565v1.5c1.569 0 2.946-.755 3.982-2.185zM3.75 15.75h-1.5v1.5h1.5a2.629 2.629 0 012.625 2.625v1.875h1.5v-1.875A4.13 4.13 0 003.75 15.75z"/></svg>