<svg xmlns="http://www.w3.org/2000/svg" width="24" height="24" viewBox="0 0 24 24"><path d="M14.585 12.075c.258-.423.524-.861.788-1.313.881-1.51 1.043-3.032.481-4.523-1.134-3.008-4.925-4.841-5.802-5.134L9.435.899l-.963 1.926.465.38c.005.004.521.455.556 1.139.029.584-.291 1.214-.951 1.875-.459.459-.962.902-1.495 1.371-2.242 1.975-4.783 4.213-4.783 8.448l.002.174a7.076 7.076 0 002.175 4.99l.002.002a7.2 7.2 0 005.039 2.046h4.332l-.533-1.082c-2.165-4.395-.634-6.909 1.304-10.093zM9.496 21.75c-3.103 0-5.674-2.497-5.732-5.566l-.001-.146c0-3.557 2.173-5.471 4.274-7.322A33.933 33.933 0 009.601 7.28c.973-.973 1.44-1.986 1.388-3.011a3.036 3.036 0 00-.346-1.262l.008.017c1.305.713 3.165 2.065 3.798 3.744.4 1.062.279 2.122-.373 3.238-.256.439-.519.871-.773 1.288-1.86 3.055-3.624 5.952-1.849 10.455z"/><path d="M21.949 15.99l-.039-.149c-.541-1.984-3.537-4.536-3.877-4.82l-.682-.571-.447.769c-1.02 1.753-1.895 3.352-2.276 5.166-.435 2.069-.142 4.171.895 6.428l.201.437h.527a5.857 5.857 0 004.628-2.261l.01-.013a5.74 5.74 0 001.238-3.572c0-.502-.064-.99-.185-1.454l.009.04zm-2.244 4.064a4.375 4.375 0 01-3.002 1.672l-.019.002c-1.478-3.558-.606-5.983 1.061-8.958 1.108 1.031 2.459 2.517 2.718 3.467l.031.12c.083.314.13.675.13 1.047 0 1.005-.346 1.93-.926 2.66l.007-.009z"/></svg>