<svg xmlns="http://www.w3.org/2000/svg" width="24" height="24" viewBox="0 0 24 24"><path d="M.75 21.75h22.5v1.5H.75v-1.5zM22.514 10.65c1.113-.524 1.249-1.362 1.004-1.972-.271-.676-1.058-1.24-2.158-1.546-1.096-.305-2.262-.284-3.282.061l-.042.014-3.051 1.45-8.905-3.54a2.23 2.23 0 00-2.335.417l.002-.002-1.192 1.069a1.125 1.125 0 00.097 1.754l.003.002 5.52 3.912-2.117 1.109-1.677-1.532a2.243 2.243 0 00-1.518-.588c-.323 0-.631.068-.909.191l.014-.006-.912.395a1.127 1.127 0 00-.543 1.566l-.003-.006 3.413 6.414zM2.565 12.819a.751.751 0 01.805.135l-.001-.001 2.453 2.242 5.219-2.734-7.135-5.057.842-.755a.744.744 0 01.783-.136l-.005-.002 9.513 3.782 3.56-1.692c.725-.235 1.587-.242 2.375-.019.648.183.993.45 1.11.59a1.06 1.06 0 01-.205.12l-.007.003-.007.003-17.299 8.527-2.54-4.772z"/></svg>