<svg xmlns="http://www.w3.org/2000/svg" width="24" height="24" viewBox="0 0 24 24"><path d="M21.75.75h-15a1.502 1.502 0 00-1.5 1.5v15a1.502 1.502 0 001.5 1.5h15a1.502 1.502 0 001.5-1.5v-15a1.502 1.502 0 00-1.5-1.5zm0 16.5h-15v-15h15l.001 15zM3.649 21.75h1.442v1.5H3.649v-1.5zM18 21.75h1.442v1.5H18v-1.5zM9.389 21.75h1.442v1.5H9.389v-1.5zM6.519 21.75h1.442v1.5H6.519v-1.5zM12.26 21.75h1.442v1.5H12.26v-1.5zM15.13 21.75h1.442v1.5H15.13v-1.5zM.75 21.75h1.5v1.5H.75v-1.5zM.75 10.514h1.5v1.413H.75v-1.413zM.75 13.334h1.5v1.413H.75v-1.413zM.75 18.974h1.5v1.413H.75v-1.413zM.75 16.154h1.5v1.413H.75v-1.413zM.75 7.695h1.5v1.413H.75V7.695zM.75 4.875h1.5v1.413H.75V4.875z"/></svg>