<svg xmlns="http://www.w3.org/2000/svg" width="24" height="24" viewBox="0 0 24 24"><path d="M13.875 1.875h1.5v1.5h-1.5v-1.5zM17.25 1.875h1.5v1.5h-1.5v-1.5zM13.875 20.625h1.5v1.5h-1.5v-1.5zM17.25 20.625h1.5v1.5h-1.5v-1.5zM20.625 1.875h1.5v1.5h-1.5v-1.5zM20.625 4.943h1.5v1.568h-1.5V4.943zM20.625 8.08h1.5v1.568h-1.5V8.08zM20.625 17.489h1.5v1.568h-1.5v-1.568zM20.625 11.216h1.5v1.568h-1.5v-1.568zM20.625 14.352h1.5v1.568h-1.5v-1.568zM20.625 20.625h1.5v1.5h-1.5v-1.5zM10.5 1.875H2.625a.75.75 0 00-.75.75v18.75c0 .414.336.75.75.75H10.5v1.125H12V.75h-1.5zm0 18.75H3.375V3.375H10.5z"/></svg>