<svg xmlns="http://www.w3.org/2000/svg" width="24" height="24" viewBox="0 0 24 24"><path d="M19.955 4.045a11.213 11.213 0 00-7.959-3.3C5.783.745.746 5.782.746 11.995c0 3.109 1.261 5.923 3.299 7.959a11.213 11.213 0 007.959 3.3c6.213 0 11.25-5.037 11.25-11.25 0-3.109-1.261-5.923-3.299-7.959zm-.209 2.041a9.623 9.623 0 011.995 5.511l.001.019-3.1-2.333zm-4.932-3.421l-2.736 2.033-2.865-2.041a9.547 9.547 0 012.788-.407c1.004 0 1.972.152 2.883.433l-.069-.018zM5.475 9.283L2.258 11.64a9.66 9.66 0 012.036-5.606l-.016.022zm-1.434 8.342h3.72l1.174 3.631a9.85 9.85 0 01-4.874-3.601l-.02-.03zm6.599 4.03l-1.788-5.53H3.167a9.375 9.375 0 01-.805-2.643l-.007-.054 4.92-3.604-1.858-5.009a9.778 9.778 0 012.089-1.468l.054-.026 4.537 3.231 4.347-3.23c.82.427 1.527.927 2.158 1.508l-.007-.006-1.727 5 4.779 3.596a9.637 9.637 0 01-.838 2.762l.025-.058h-5.481l-1.971 5.527a9.833 9.833 0 01-2.794-.004l.053.006zm4.481-.417l1.288-3.613h3.55a9.843 9.843 0 01-4.769 3.592l-.069.021z"/><path d="M16.257 10.473l-4.17-3.03-4.17 3.03 1.593 4.902h5.154zm-2.683 3.402h-2.975l-.919-2.829 2.406-1.748 2.406 1.748z"/></svg>