<svg xmlns="http://www.w3.org/2000/svg" width="24" height="24" viewBox="0 0 24 24"><path d="M12 .75C5.787.75.75 5.787.75 12S5.787 23.25 12 23.25 23.25 18.213 23.25 12 18.213.75 12 .75zm6.894 18.144a9.684 9.684 0 01-6.859 2.835c-5.365 0-9.715-4.349-9.715-9.715s4.349-9.715 9.715-9.715c5.365 0 9.715 4.349 9.715 9.715a9.688 9.688 0 01-.79 3.843l.024-.063a9.768 9.768 0 01-2.09 3.099z"/><path d="M7.125 9.375H9v1.875H7.125V9.375zM15 9.375h1.875v1.875H15V9.375zM12 13.5a4.13 4.13 0 00-4.125 4.125h1.5a2.625 2.625 0 115.25 0h1.5A4.13 4.13 0 0012 13.5z"/></svg>