<svg xmlns="http://www.w3.org/2000/svg" width="24" height="24" viewBox="0 0 24 24"><path d="M17.099 17.378a1.469 1.469 0 01-.615-.883l-.002-.01-.432-2.02 4.954-4.789h-2.158l-3.165 3.06-.143-.667-.002-.009a2.98 2.98 0 00-2.765-2.31h-.006l-.015-.001H9.601l.883-4.11A1.476 1.476 0 0111.836 4.5h2.237V3l-2.281.001a2.978 2.978 0 00-2.768 2.29l-.004.02-.954 4.439h-3.94v1.5h3.617l-1.528 7.11a1.476 1.476 0 01-1.352 1.139H2.626v1.5l2.281-.001a2.978 2.978 0 002.768-2.29l.004-.02 1.599-7.439h3.439a1.476 1.476 0 011.354 1.129l.002.01.338 1.577-5.337 5.159h2.158l3.549-3.431.24 1.12a2.98 2.98 0 002.765 2.31h.006l2.46.001v-1.5H17.84a1.463 1.463 0 01-.745-.25l.005.003z"/></svg>