<svg xmlns="http://www.w3.org/2000/svg" width="24" height="24" viewBox="0 0 24 24"><path d="M17.25 7.875h-4.5v-3H21a1.127 1.127 0 001.125-1.125v-3h-1.5v2.625h-8.25A1.127 1.127 0 0011.25 4.5v3.375h-4.5a6.007 6.007 0 00-6 6v4.733a4.273 4.273 0 004.268 4.268H5.108a4.246 4.246 0 003.268-1.529l.005-.007 2.47-2.964h2.279l2.469 3.209a4.267 4.267 0 007.651-2.602v-5.107a6.007 6.007 0 00-6-6zm4.5 11.107a2.768 2.768 0 01-4.957 1.694l-.005-.006-2.919-3.795h-3.721l-2.92 3.504c-.51.61-1.271.996-2.123.996H5.017a2.771 2.771 0 01-2.768-2.768v-4.732a4.505 4.505 0 014.5-4.5h10.5a4.505 4.505 0 014.5 4.5z"/><path d="M16.875 11.625h1.5v1.5h-1.5v-1.5zM16.875 15.375h1.5v1.5h-1.5v-1.5zM15 13.5h1.5V15H15v-1.5zM18.75 13.5h1.5V15h-1.5v-1.5zM7.125 11.625h-1.5V13.5H3.75V15h1.875v1.875h1.5V15H9v-1.5H7.125v-1.875z"/></svg>