<svg xmlns="http://www.w3.org/2000/svg" width="24" height="24" viewBox="0 0 24 24"><path d="M21 11.974h-.024l-1.895-4.263a2.256 2.256 0 00-2.056-1.336H6.975a2.252 2.252 0 00-2.05 1.322l-.006.014-1.895 4.263H3a1.502 1.502 0 00-1.5 1.5v5.25a1.502 1.502 0 001.5 1.5v1.901a1.127 1.127 0 001.125 1.125H6.75a1.127 1.127 0 001.125-1.125v-1.901h8.25v1.901a1.127 1.127 0 001.125 1.125h2.625A1.127 1.127 0 0021 22.125v-1.901a1.502 1.502 0 001.5-1.5v-5.25a1.502 1.502 0 00-1.5-1.5zM6.289 8.32a.75.75 0 01.685-.445h10.05c.304 0 .566.181.683.441l.002.005 1.624 3.654H4.664zm.086 13.43H4.5v-1.526h1.875zm13.125 0h-1.875v-1.526H19.5zm1.5-3.026H3v-5.25h18z"/><path d="M4.5 15.375h3.75v1.5H4.5v-1.5zM15.75 15.375h3.75v1.5h-3.75v-1.5zM12 .692L.75 5.209v1.616L12 2.308l11.25 4.517V5.209L12 .692z"/></svg>