<svg xmlns="http://www.w3.org/2000/svg" width="24" height="24" viewBox="0 0 24 24"><path d="M12 .75C5.787.75.75 5.787.75 12S5.787 23.25 12 23.25 23.25 18.213 23.25 12 18.213.75 12 .75zM21.75 12v.004c0 4.454-2.986 8.21-7.066 9.375l-.069.017v-3.648q0-1.298-.696-1.9a9.303 9.303 0 001.435-.255l-.064.014a5.464 5.464 0 001.284-.536l-.026.014a3.768 3.768 0 001.08-.884l.005-.006q.435-.529.709-1.405t.274-2.014q0-1.619-1.057-2.757.495-1.218-.107-2.73-.375-.121-1.084.147c-.475.176-.88.374-1.263.607l.032-.018-.509.321c-.77-.221-1.655-.348-2.57-.348s-1.799.127-2.638.364l.068-.016c-.59-1.127-2.086-1.199-2.837-1.057-.5.797-.44 2.054-.094 2.73Q5.5 9.157 5.5 10.776q0 1.138.274 2.007t.703 1.405c.296.363.653.663 1.059.887l.019.009c.361.21.779.389 1.219.513l.038.009c.389.105.856.189 1.333.238l.039.003q-.535.482-.656 1.379a2.595 2.595 0 01-.585.198l-.017.003c-.214.043-.46.067-.711.067h-.054.003q-.442 0-.877-.288t-.743-.837a2.17 2.17 0 00-.642-.691l-.007-.005q-.395-.268-.662-.321l-.121-.027a.309.309 0 00-.343.159l-.001.002-.016.031a.308.308 0 00.145.423l.002.001q.294.134.582.509c.159.198.3.422.413.662l.009.02.134.308c.113.336.318.617.585.82l.004.003c.25.196.553.337.884.399l.013.002c.276.054.597.088.925.094h.005l.125.002c.218 0 .432-.018.64-.052l-.023.003.308-.053q0 .508.007 1.191c.003.276.005 1.027.006 1.582C5.303 20.29 2.254 16.501 2.254 12a9.757 9.757 0 015.889-8.959l.063-.024a9.587 9.587 0 013.798-.77c5.383 0 9.747 4.364 9.747 9.747v.009z"/></svg>