<svg xmlns="http://www.w3.org/2000/svg" width="24" height="24" viewBox="0 0 24 24"><path d="M17.758 16.033C15.908 15.367 13.463 15 10.875 15h-.059c-1.302 0-2.582.099-3.831.289l.14-.018V9.897l7.125-2.625V5.485L7.125 2.147V.749h-1.5v18.75h1.5v-2.711a22.807 22.807 0 013.674-.289h.08-.004c2.42 0 4.684.335 6.375.944 1.661.598 2.25 1.279 2.25 1.681s-.589 1.083-2.25 1.681c-1.691.609-3.955.944-6.375.944s-4.684-.335-6.375-.944c-1.661-.598-2.25-1.279-2.25-1.681 0-.37.5-.976 1.875-1.537v-1.602l-.133.047C1.313 16.997.75 18.246.75 19.124s.562 2.128 3.242 3.092c1.85.666 4.295 1.033 6.883 1.033s5.033-.367 6.883-1.033C20.437 21.251 21 20.002 21 19.124s-.562-2.128-3.242-3.092zM7.125 3.805l5.371 2.516L7.125 8.3zM21.75 13.125a1.5 1.5 0 11-3.001-.001 1.5 1.5 0 013.001.001z"/></svg>