<svg xmlns="http://www.w3.org/2000/svg" width="24" height="24" viewBox="0 0 24 24"><path d="M7.587 15h9l.231-1.5h-9L7.587 15z"/><path d="M21.896.75L21.126 6h-1.384l.859-5.25h-1.52l-1.656 10.125H7.304a2.254 2.254 0 00-2.208 1.815l-.002.014-.438 2.302a4.125 4.125 0 104.181 5.273l.007-.029h5.877a6.753 6.753 0 006.68-5.771l.004-.036L23.412.75zm-17.021 21A2.625 2.625 0 117.5 19.125a2.629 2.629 0 01-2.625 2.625zm15.045-7.52a5.205 5.205 0 01-1.177 2.634l.006-.008a5.372 5.372 0 01-1.314 1.131l-.023.013a5.152 5.152 0 01-2.692.75H8.982a4.08 4.08 0 00-.275-1.153l.01.028h7.465l.231-1.5h-8.71q-.123-.116-.255-.222a4.093 4.093 0 00-1.273-.694l-.029-.008.422-2.216a.754.754 0 01.737-.61h11.396l.797-4.875h1.409z"/></svg>