<svg xmlns="http://www.w3.org/2000/svg" width="24" height="24" viewBox="0 0 24 24"><path d="M20.625 1.875H3.375a.75.75 0 00-.75.75v18.75c0 .414.336.75.75.75h17.25a.75.75 0 00.75-.75V2.625a.75.75 0 00-.75-.75zm-16.5 11.25h2.25v-2.25h-2.25v-7.5h15.75v7.5h-2.25v2.25h2.25v2.25h-2.25v1.875h-2.25v-1.875h-2.25v1.875h-2.25v-1.875h-2.25v1.875h-2.25v-1.875h-2.25z"/><path d="M6.375 13.125h2.25v2.25h-2.25v-2.25zM8.625 10.875h2.25v2.25h-2.25v-2.25zM10.875 13.125h2.25v2.25h-2.25v-2.25zM13.125 10.875h2.25v2.25h-2.25v-2.25zM15.375 13.125h2.25v2.25h-2.25v-2.25zM6.375 8.625h2.25v2.25h-2.25v-2.25zM10.875 8.625h2.25v2.25h-2.25v-2.25zM15.375 8.625h2.25v2.25h-2.25v-2.25z"/></svg>