<svg xmlns="http://www.w3.org/2000/svg" width="24" height="24" viewBox="0 0 24 24"><path d="M8.243 3.729v1.258l1.5 1.5V3.729h4.514v4.514h-2.758l1.5 1.5h1.258v1.258l1.5 1.5V9.743h4.514v4.514h-2.758l1.5 1.5h1.258v1.258l1.5 1.5V2.978a.75.75 0 00-.75-.75H5.484l1.5 1.5zm12.028 4.514h-4.514V3.729h4.514zM1.811.781H.75v1.061l1.479 1.479v17.701c0 .414.336.75.75.75H20.68l1.51 1.51h1.061v-1.061zm11.354 13.476H9.743v-3.422zM3.729 9.743h4.514v4.514H3.729zm3.422-1.5H3.729V4.821zm-3.422 7.514h4.514v4.514H3.729zm6.014 0h4.514v4.514H9.743zm6.014 4.514v-3.422l3.422 3.422z"/></svg>