<svg xmlns="http://www.w3.org/2000/svg" width="24" height="24" viewBox="0 0 24 24"><path d="M7.36 21.149l-.001-.001-4.508-4.508 2.614-2.614-1.061-1.061-2.614 2.614c-.271.271-.439.646-.439 1.061s.168.789.439 1.061l4.508 4.508a1.499 1.499 0 002.122 0l2.614-2.614-1.06-1.06zM16.64 2.852l4.508 4.508-2.614 2.614 1.061 1.061 2.614-2.614c.271-.271.439-.646.439-1.061s-.168-.789-.439-1.061l-4.508-4.508a1.499 1.499 0 00-2.122 0l-2.614 2.614 1.061 1.061zM11.295 9.727L12.022 9l.727.727-.727.727-.727-.727zM11.295 14.273l.727-.727.727.727-.727.727-.727-.727zM13.568 12l.727-.727.727.727-.727.727-.727-.727zM9.023 12l.727-.727.727.727-.727.727L9.023 12z"/><path d="M21.315 14.685L8.951 2.321c-.407-.407-.97-.659-1.591-.659s-1.184.252-1.591.659L2.322 5.768c-.407.407-.659.97-.659 1.591s.252 1.184.659 1.591L15.05 21.678l.011.011a2.24 2.24 0 001.58.648c.621 0 1.184-.252 1.591-.659l3.447-3.447c.407-.407.659-.97.659-1.591s-.252-1.184-.659-1.591zM3.382 7.89a.747.747 0 010-1.06l3.447-3.447a.747.747 0 011.06 0l3.049 3.049L6.43 10.94zM7.492 12L12 7.492 16.508 12 12 16.508zm13.126 5.171l-3.447 3.447a.747.747 0 01-1.06 0l-3.049-3.049 4.508-4.508 3.049 3.049a.747.747 0 010 1.06z"/></svg>