<svg xmlns="http://www.w3.org/2000/svg" width="24" height="24" viewBox="0 0 24 24"><path d="M21.24 3.704a5.981 5.981 0 00-4.243-1.757c-1.658 0-3.16.673-4.246 1.76l-.727.736-.726-.739c-1.086-1.086-2.586-1.757-4.243-1.757s-3.157.672-4.243 1.757l-.324.324C1.402 5.114.731 6.614.731 8.271s.672 3.157 1.757 4.243l8.549 8.549.965 1.011.023-.023.025.025.904-.954 8.608-8.608c1.084-1.087 1.755-2.586 1.755-4.243s-.67-3.156-1.755-4.243zm-.737 7.748l-8.477 8.477-8.477-8.477c-.814-.814-1.318-1.939-1.318-3.182s.504-2.368 1.318-3.182l.324-.324a4.486 4.486 0 013.182-1.318 4.49 4.49 0 013.18 1.316l1.786 1.818 1.794-1.816c.814-.814 1.939-1.318 3.182-1.318s2.368.504 3.182 1.318l.324.324c.813.815 1.316 1.94 1.316 3.182s-.503 2.367-1.316 3.182z"/></svg>