<svg xmlns="http://www.w3.org/2000/svg" width="24" height="24" viewBox="0 0 24 24"><path d="M23.049 5.458l-4.356-4.412A1.482 1.482 0 0017.63.6H17.621c-.417 0-.794.171-1.064.447L4.103 13.698a1.496 1.496 0 00-.429 1.052c0 .414.167.789.438 1.061l.689.689-4.05 4.098v1.808h5.006l2.475-2.475.585.585a1.497 1.497 0 002.156-.036l.001-.001L23.079 7.535a1.493 1.493 0 00-.028-2.079zM5.135 20.906H2.554l2.182-2.208 1.303 1.303zm4.742-1.45L8.231 17.81 7.1 18.941l-1.309-1.309 1.124-1.138-1.743-1.743 2.266-2.302 4.646 4.646zm3.232-3.457L8.49 11.38l9.136-9.28 4.356 4.412z"/></svg>