<svg xmlns="http://www.w3.org/2000/svg" width="24" height="24" viewBox="0 0 24 24"><path d="M19.958 4.042A11.202 11.202 0 0012.012.75c-3.074 0-5.86 1.234-7.889 3.235l.001-.001V.751h-1.5v6h6v-1.5H4.981a9.724 9.724 0 017.029-3c5.37 0 9.738 4.369 9.738 9.738s-4.369 9.738-9.738 9.738-9.738-4.369-9.738-9.738h-1.5c0 6.207 5.032 11.238 11.238 11.238 3.103 0 5.913-1.258 7.947-3.292s3.292-4.843 3.292-7.947-1.258-5.913-3.292-7.947z"/><path d="M11.25 5.248l-.025 8.252h6.025V12h-4.52l.02-6.748-1.5-.005z"/></svg>