<svg xmlns="http://www.w3.org/2000/svg" width="24" height="24" viewBox="0 0 24 24"><path d="M6.824 6.652a1.598 1.598 0 11-3.196 0 1.598 1.598 0 013.196 0zM9 13.875h-.143l-1.636-4.5H3.857v4.5H.75V21A2.252 2.252 0 003 23.25h18A2.252 2.252 0 0023.25 21v-7.125zM21.75 21a.75.75 0 01-.75.75H3a.75.75 0 01-.75-.75v-5.625h19.5z"/><path d="M13.875 10.125v-.001c0-.392.236-.728.573-.876l.006-.002.557-.239a2.456 2.456 0 00.016-4.509l-.016-.006-.557-.239a.956.956 0 01-.579-.878V1.499h-1.5v1.877c0 1.006.606 1.871 1.473 2.25l.016.006.557.239a.957.957 0 01.006 1.755l-.006.002-.557.239a2.458 2.458 0 00-1.489 2.256v2.252h1.5zM19.125 10.125v-.001c0-.392.236-.728.573-.876l.006-.002.557-.239a2.456 2.456 0 00.016-4.509l-.016-.006-.557-.239a.956.956 0 01-.579-.878V1.499h-1.5v1.877c0 1.006.606 1.871 1.473 2.25l.016.006.557.239a.957.957 0 01.006 1.755l-.006.002-.557.239a2.458 2.458 0 00-1.489 2.256v2.252h1.5zM4.5 16.875H6v3.375H4.5v-3.375zM9 16.875h1.5v3.375H9v-3.375zM13.5 16.875H15v3.375h-1.5v-3.375zM18 16.875h1.5v3.375H18v-3.375z"/></svg>