<svg xmlns="http://www.w3.org/2000/svg" width="24" height="24" viewBox="0 0 24 24"><path d="M21.528 4.5l-6.153 6.08V4.5h-1.618l-5.882 5.966V.75H.75v22.5h22.5V4.5zm.222 17.25H2.25V2.25h4.125v10.125h1.724l5.776-5.859v5.859h1.817l6.058-5.986z"/><path d="M6.375 15.375v.375h1.5v-1.5h-1.5v1.125zM6.375 17.625h1.5v1.5h-1.5v-1.5zM10.125 15.375v.375h1.5v-1.5h-1.5v1.125zM10.125 17.625h1.5v1.5h-1.5v-1.5zM13.875 15.375v.375h1.5v-1.5h-1.5v1.125zM13.875 17.625h1.5v1.5h-1.5v-1.5zM17.625 14.25h1.5v1.5h-1.5v-1.5zM17.625 17.625h1.5v1.5h-1.5v-1.5z"/></svg>