<svg xmlns="http://www.w3.org/2000/svg" width="24" height="24" viewBox="0 0 24 24"><path d="M21.528 4.5l-6.153 6.08V4.5h-1.62l-3.021 3.053 1.061 1.061 2.079-2.102v4.181l1.749 1.749 6.126-6.053v12.179l1.5 1.5V4.5h-1.722zM7.875.75H3.932l3.943 3.943V.75zM6.375 14.25h1.5v1.5h-1.5v-1.5zM6.375 17.625h1.5v1.5h-1.5v-1.5zM10.125 14.25h1.5v1.5h-1.5v-1.5zM10.125 17.625h1.5v1.5h-1.5v-1.5zM13.875 17.625h1.5v1.5h-1.5v-1.5z"/><path d="M7.875 6.814L1.811.75H.75v22.5h22.5v-1.061L12.495 11.434zM2.25 21.75V3.311l4.125 4.125v4.189h1.5V8.936L20.689 21.75z"/></svg>