<svg xmlns="http://www.w3.org/2000/svg" width="24" height="24" viewBox="0 0 24 24"><path d="M23.25 12.75v-1.5h-10.5V9h2.625A1.127 1.127 0 0016.5 7.875v-6A1.127 1.127 0 0015.375.75h-6.75A1.127 1.127 0 007.5 1.875v6A1.127 1.127 0 008.625 9h2.625v2.25H.75v1.5H4.5V15H1.94a1.127 1.127 0 00-1.125 1.125v6A1.127 1.127 0 001.94 23.25h6.685a1.127 1.127 0 001.125-1.125v-6A1.127 1.127 0 008.625 15H6v-2.25h12V15h-2.625a1.127 1.127 0 00-1.125 1.125v6a1.127 1.127 0 001.125 1.125h6.75a1.127 1.127 0 001.125-1.125v-6A1.127 1.127 0 0022.125 15H19.5v-2.25zM9 2.25h6V7.5H9zm-.75 19.5H2.315V16.5H8.25zm13.5 0h-6V16.5h6z"/></svg>