<svg xmlns="http://www.w3.org/2000/svg" width="24" height="24" viewBox="0 0 24 24"><path d="M15 9V1.125H.75v14.25H9v7.875h14.25V9zM2.25 13.875V2.625H13.5V9h-3.125L8.798 4.5H6.952l-2.354 6.717h1.589l.383-1.092H9v3.75zm6.404-5.25H7.096l.779-2.224zM21.75 21.75H10.5V10.5h11.25z"/><path d="M14.88 17.273c.158.252.314.468.482.673l-.009-.011q-.816.44-1.853.441v1.5c1.132 0 2.143-.3 3-.882.857.582 1.868.882 3 .882v-1.5q-1.035 0-1.852-.441a6.4 6.4 0 00.457-.635l.016-.026a7.651 7.651 0 00.931-2.219l.011-.053h.813v-1.5h-2.625v-1.125h-1.5v1.125h-2.625v1.5h.813a7.76 7.76 0 00.961 2.305l-.019-.033zM17.509 15a6.22 6.22 0 01-.676 1.504l.015-.026a4.965 4.965 0 01-.355.499l.007-.009a4.665 4.665 0 01-.313-.433l-.012-.019a6.081 6.081 0 01-.673-1.471l-.012-.044z"/></svg>