<svg xmlns="http://www.w3.org/2000/svg" width="24" height="24" viewBox="0 0 24 24"><path d="M22.872 7.599l-10.5-6a.743.743 0 00-.748.002l.004-.002-10.5 6a.748.748 0 00.014 1.31l.004.002 10.5 5.625a.744.744 0 00.712-.002l-.004.002 10.5-5.625a.75.75 0 00.022-1.31l-.004-.002zM12 13.024L3.049 8.229 12 3.114l8.951 5.115z"/><path d="M1.5 11.182v1.712l10.139 5.576a.745.745 0 00.726-.002l-.004.002L22.5 12.894v-1.712L12 16.957z"/><path d="M1.5 15.3V17l10.147 5.412a.753.753 0 00.71-.002l-.004.002L22.5 17v-1.7L12 20.9z"/></svg>