<svg xmlns="http://www.w3.org/2000/svg" width="24" height="24" viewBox="0 0 24 24"><path d="M21.857 2.248a4.014 4.014 0 00-2.846-1.179 4.01 4.01 0 00-2.557.916l.007-.006a9.035 9.035 0 00-3.063-.524h-.014.001c-6.505 0-11.778 5.273-11.778 11.778v.014a9.2 9.2 0 00.544 3.127l-.02-.064a4.025 4.025 0 005.671 5.659l-.007.006a9.035 9.035 0 003.063.524h.014-.001c6.505 0 11.778-5.273 11.778-11.778v-.014a9.21 9.21 0 00-.544-3.128l.02.064a4.007 4.007 0 00.909-2.55c0-1.111-.45-2.117-1.177-2.847zm-1.293 5.513c.37.871.585 1.884.585 2.947v.014-.001c0 5.667-4.611 10.278-10.278 10.278h-.013a7.694 7.694 0 01-2.998-.604l.051.019-.484-.2-.354.386-.043.046a2.525 2.525 0 01-3.571-3.571l.046-.044.386-.354-.2-.484a7.586 7.586 0 01-.585-2.947v-.014.001c0-5.667 4.611-10.278 10.278-10.278h.013c1.063 0 2.076.215 2.998.604l-.051-.019.484.2.354-.385c.014-.015.028-.031.044-.046a2.525 2.525 0 013.57 3.57.978.978 0 01-.047.044l-.385.354z"/><path d="M5.64 10.629l1.335.685c1.198-2.309 3.179-4.072 5.584-4.96l.071-.023-.51-1.411c-2.837 1.043-5.108 3.063-6.449 5.644l-.031.065z"/></svg>