<svg xmlns="http://www.w3.org/2000/svg" width="24" height="24" viewBox="0 0 24 24"><path d="M12 .75c-4.595 0-8.333 3.738-8.333 8.333v.006a8.303 8.303 0 003.095 6.475l.016.012v2.611a5.069 5.069 0 005.062 5.063h.32a5.069 5.069 0 005.063-5.062v-2.611a8.31 8.31 0 003.111-6.487v-.007c0-4.595-3.738-8.333-8.333-8.333zM8.278 16.125h7.444V18H8.278zm3.882 5.625h-.319a3.568 3.568 0 01-3.302-2.226L8.53 19.5h6.941a3.575 3.575 0 01-3.311 2.25zm3.869-7.148l-.031.023H8.001l-.031-.023a6.86 6.86 0 01-2.804-5.518v-.001c0-3.768 3.065-6.833 6.833-6.833s6.833 3.065 6.833 6.833a6.852 6.852 0 01-2.785 5.506l-.019.013z"/></svg>