<svg xmlns="http://www.w3.org/2000/svg" width="24" height="24" viewBox="0 0 24 24"><path d="M13.5 23.25H15v-6h6v-1.5h-7.5v7.5zM10.5 8.25V.75H9v6H3v1.5h7.5zM3.689 20.371l-.06-.06c-.852-.852-1.379-2.03-1.379-3.33s.527-2.478 1.38-3.33l3.525-3.525H5.034L2.57 12.59a6.19 6.19 0 00-1.819 4.391 6.19 6.19 0 001.819 4.391l.06.06c1.125 1.122 2.677 1.816 4.391 1.816s3.267-.694 4.391-1.816l.214-.214v-2.121l-1.275 1.275c-.853.851-2.03 1.377-3.33 1.377s-2.477-.526-3.33-1.377zM21.431 2.629l-.06-.06a6.217 6.217 0 00-8.782 0l-.214.214v2.121l1.275-1.275a4.7 4.7 0 013.33-1.377 4.7 4.7 0 013.33 1.377l.06.06c.852.852 1.379 2.03 1.379 3.33s-.527 2.478-1.38 3.33l-3.525 3.525h2.121l2.464-2.464c1.124-1.124 1.819-2.676 1.819-4.391s-.695-3.267-1.819-4.391z"/></svg>