<svg xmlns="http://www.w3.org/2000/svg" width="24" height="24" viewBox="0 0 24 24"><path d="M11.903 5.981a3 3 0 103 3 3.004 3.004 0 00-3-3zm0 4.5a1.5 1.5 0 111.5-1.5 1.502 1.502 0 01-1.5 1.5z"/><path d="M20.011 8.13C19.568 4.007 16.107.824 11.902.824a8.153 8.153 0 00-6.813 12.633l-.019-.031 5.668 8.701a1.39 1.39 0 002.323.006l.003-.005 5.668-8.701a8.1 8.1 0 001.321-4.456c0-.296-.016-.588-.046-.876l.003.036zm-2.534 4.477l-5.574 8.557-5.574-8.557a6.684 6.684 0 01.87-8.335c1.204-1.204 2.867-1.949 4.704-1.949s3.5.745 4.704 1.949a6.684 6.684 0 01.87 8.335z"/></svg>