<svg xmlns="http://www.w3.org/2000/svg" width="24" height="24" viewBox="0 0 24 24"><path d="M23.25 17.489l-1.125-3v-3.062-.008c0-.874-.501-1.631-1.231-1.999l-.013-.006-1.006-.503V4.5h-5.25v4.125h-3.209l-1.362-4.087A2.252 2.252 0 007.921 3H.75v3.883l1.875.75v2.359l-1.875.75v9.508h4.054a2.477 2.477 0 004.943-.106v-.006l.674-.017a2.478 2.478 0 004.954-.099l-.001-.024.67-.017-.001.041v.003a2.478 2.478 0 004.956 0v-.004c0-.049-.002-.098-.005-.147h2.255zM7.272 21a.978.978 0 11.978-.978.979.979 0 01-.978.978zm5.625 0a.978.978 0 11.978-.978.979.979 0 01-.978.978zm5.625 0a.978.978 0 11.978-.978.979.979 0 01-.978.978zm3.228-2.625h-1.378a2.47 2.47 0 00-3.774.086l-.004.005-1.736.043a2.473 2.473 0 00-3.992.092l-.005.008-1.528.038a2.476 2.476 0 00-4.182.092l-.006.011H2.25v-6.992l1.875-.75v-4.39l-1.875-.75V4.501h5.67c.329 0 .609.212.709.508l.002.005 1.704 5.112h5.791V6.001h2.25V9.84l1.835.918a.747.747 0 01.415.668v2.451H4.501v1.5h16.355l.895 2.386z"/></svg>