<svg xmlns="http://www.w3.org/2000/svg" width="24" height="24" viewBox="0 0 24 24"><path d="M19.468 16.814c1.709-1.709 2.621-3.995 2.568-6.438a9.286 9.286 0 00-2.751-6.405l-.001-.001-1.061 1.06a7.794 7.794 0 012.313 5.367v.009c.044 2.03-.712 3.929-2.131 5.348l-2.28 2.301v-4.179h-1.5v6.75h6.753v-1.5h-4.2zM2.247 5.25h4.2l-2.29 2.311c-1.709 1.709-2.621 3.995-2.568 6.438a9.286 9.286 0 002.751 6.405l.001.001 1.061-1.06a7.794 7.794 0 01-2.313-5.367v-.009c-.044-2.03.712-3.929 2.131-5.347l2.279-2.297v4.179h1.5L9 3.75H2.247z"/></svg>