<svg xmlns="http://www.w3.org/2000/svg" width="24" height="24" viewBox="0 0 24 24"><path d="M18.62 6.52l-.01-.01c-2.892-2.892-7.223-3.489-10.709-1.791l1.135 1.135c2.834-1.152 6.211-.581 8.508 1.712l4.206 4.373v.146l-3.179 3.305 1.061 1.061 3.618-3.761v-1.354z"/><path d="M16.828 13.609a4.797 4.797 0 00.422-1.985 4.874 4.874 0 00-6.889-4.439l.031-.012 1.176 1.176a3.375 3.375 0 014.08 4.108l.005-.023zM.75.75v1.028l4.686 4.686-.046.045-4.64 4.824v1.354l4.64 4.824a9.33 9.33 0 006.611 2.733 9.316 9.316 0 005.486-1.775l-.027.019 4.761 4.761h1.028v-1.093L1.842.749zm3.093 9.532l.799-.83 9.099 9.099c-.424.1-.919.168-1.425.188h-.015zM2.25 12.084v-.146l.553-.575 7.099 7.099a7.822 7.822 0 01-3.445-2.006zm13.072 5.928L5.681 8.371l.775-.805.041-.04 9.886 9.886c-.303.207-.65.407-1.014.58l-.047.02z"/></svg>