<svg xmlns="http://www.w3.org/2000/svg" width="24" height="24" viewBox="0 0 24 24"><path d="M20.25 3H.75v15h19.5zm-1.5 13.5H2.25v-12h16.5z"/><path d="M21.75 6.75V19.5H4.5V21h18.75V6.75h-1.5z"/><path d="M10.5 14.178c1.861 0 3.375-1.647 3.375-3.672S12.361 6.834 10.5 6.834s-3.375 1.647-3.375 3.672 1.514 3.672 3.375 3.672zm0-5.843c1.034 0 1.875.974 1.875 2.172s-.841 2.172-1.875 2.172-1.875-.974-1.875-2.172.841-2.172 1.875-2.172zM3.75 6.375h1.5v8.25h-1.5v-8.25zM15.75 6.375h1.5v8.25h-1.5v-8.25z"/></svg>