<svg xmlns="http://www.w3.org/2000/svg" width="24" height="24" viewBox="0 0 24 24"><path d="M12.576 23.25c-3.168 0-6.14-1.228-8.369-3.457S.75 14.592.75 11.424v-.003C.75 6.841 3.353 2.87 7.161.906l.066-.031A1.146 1.146 0 018.84 2.241l.002-.008a10.092 10.092 0 00-.462 3.051c0 2.853 1.158 5.436 3.03 7.304a10.22 10.22 0 007.277 3.03h.019-.001.008c1.089 0 2.139-.169 3.125-.482l-.073.02a1.146 1.146 0 011.355 1.622l.003-.006c-1.995 3.874-5.967 6.477-10.546 6.477h-.003zM7.186 2.615C4.206 4.45 2.25 7.695 2.25 11.397v.029-.002c0 5.694 4.632 10.326 10.326 10.326h.028c3.702 0 6.946-1.957 8.756-4.892l.025-.044a11.56 11.56 0 01-2.673.305h-.027a11.703 11.703 0 01-8.333-3.469l-.001-.001a11.783 11.783 0 01-3.47-8.366c0-.947.111-1.867.321-2.749l-.016.08z"/></svg>