<svg xmlns="http://www.w3.org/2000/svg" width="24" height="24" viewBox="0 0 24 24"><path d="M20.625.75v1.5h-8.25a1.127 1.127 0 00-1.125 1.125V5.25H9.779a4.159 4.159 0 00-4.154 4.154v7.498c0 3.5 2.848 6.348 6.348 6.348h.054c3.5 0 6.348-2.848 6.348-6.348V9.405a4.159 4.159 0 00-4.154-4.154H12.75v-1.5H21a1.127 1.127 0 001.125-1.125V.751zm-10.846 6h1.471v4.125H7.125V9.404A2.657 2.657 0 019.779 6.75zm2.248 15h-.054a4.854 4.854 0 01-4.848-4.848v-4.527h9.75v4.527a4.854 4.854 0 01-4.848 4.848zm4.848-12.346v1.471H12.75V6.75h1.471a2.657 2.657 0 012.654 2.654z"/></svg>