<svg xmlns="http://www.w3.org/2000/svg" width="24" height="24" viewBox="0 0 24 24"><path d="M6.375 22.875H23.25V1.125H.75v21.75h5.625zm12.75-20.25h2.625V4.5h-2.625zm0 3.375h2.625v1.875h-2.625zm0 3.375h2.625v1.875h-2.625zm0 3.375h2.625v1.875h-2.625zm0 3.375h2.625V18h-2.625zm0 3.375h2.625v1.875h-2.625zM6.375 9.375v-6.75h11.25v8.625H6.375zm0 10.125v-6.75h11.25v8.625H6.375zM2.25 2.625h2.625V4.5H2.25zM2.25 6h2.625v1.875H2.25zm0 3.375h2.625v1.875H2.25zm0 3.375h2.625v1.875H2.25zm0 3.375h2.625V18H2.25zm0 3.375h2.625v1.875H2.25z"/></svg>