<svg xmlns="http://www.w3.org/2000/svg" width="24" height="24" viewBox="0 0 24 24"><path d="M23.25 10.875v-4.5h-4.5v1.5h-3.375V5.25h1.5V.75h-4.5v1.5H5.25V.75H.75v4.5h1.5v7.125H.75v4.5h4.5v-1.5h3.375v3.375h-1.5v4.5h4.5v-1.5h7.125v1.5h4.5v-4.5h-1.5v-7.875zm-3-3h1.5v1.5h-1.5zM13.875 2.25h1.5v1.5h-1.5zm-11.625 0h1.5v1.5h-1.5zm1.5 13.125h-1.5v-1.5h1.5zm1.5-1.5v-1.5h-1.5V5.25h1.5v-1.5h7.125v1.5h1.5v7.125h-1.5v1.5zm10.125 0v1.5h-1.5v-1.5zm-5.25 7.875h-1.5v-1.5h1.5zm11.625 0h-1.5v-1.5h1.5zm-1.5-3h-1.5v1.5h-7.125v-1.5h-1.5v-3.375h2.25v1.5h4.5v-4.5h-1.5v-3h3.375v1.5h1.5z"/></svg>