<svg xmlns="http://www.w3.org/2000/svg" width="24" height="24" viewBox="0 0 24 24"><path d="M8.403 16.407c.077.353.167.654.277.945l-.015-.046c.122.005.244.009.368.009h.001a8.36 8.36 0 001.585-.151l-.052.008-.448-.448 1.061-1.061 1.021 1.021a8.289 8.289 0 002.061-1.234l-.015.012-.545-.545 1.061-1.061.559.559c.517-.6.955-1.287 1.287-2.033l.021-.053-.941-.941 1.061-1.061.393.393c.11-.507.173-1.089.173-1.686v-.003c0-.154-.005-.307-.013-.459a6.163 6.163 0 00-.904-.253l-.043-.007.291-1.472q.202.04.4.09C16.115 3.377 12.876.749 9.035.749 4.468.749.752 4.465.752 9.032c0 3.873 2.672 7.133 6.269 8.035q-.045-.17-.082-.343zM2.25 9.033c0-3.74 3.043-6.783 6.783-6.783s6.783 3.043 6.783 6.783-3.043 6.783-6.783 6.783S2.25 12.773 2.25 9.033z"/><path d="M13.368 8.39l.727-.183-.367-1.454-.727.183c-3.04.79-5.369 3.185-6.05 6.205l-.011.055-.16.733 1.466.319.16-.733A6.847 6.847 0 0113.321 8.4l.048-.011zM17.045 6.931q-.198-.049-.4-.09l-.291 1.472c3.135.638 5.461 3.372 5.461 6.649v.005c0 .139-.005.277-.013.415l.999.999-1.061 1.061-.287-.287a6.805 6.805 0 01-1.234 2.179l.008-.01.401.401-1.061 1.061-.425-.425a6.724 6.724 0 01-2.115 1.093l-.048.013.066.066-1.061 1.061-.843-.843-.109.001c-2.856 0-5.4-1.821-6.368-4.443a6.141 6.141 0 01-.254-.855l-.008-.044-1.466.317q.037.172.082.343c.964 3.586 4.186 6.182 8.014 6.183 4.567 0 8.283-3.716 8.283-8.283a8.298 8.298 0 00-6.27-8.036z"/><path d="M11.179 15.664l-1.061 1.061 5.866 5.866 1.061-1.061-5.866-5.866zM14.762 13.857l-1.061 1.061 5.866 5.866 1.061-1.061-5.866-5.866zM16.749 10.329l-1.061 1.061 6.052 6.052 1.061-1.061-6.052-6.052z"/></svg>