<svg xmlns="http://www.w3.org/2000/svg" width="24" height="24" viewBox="0 0 24 24"><path d="M19.912 14.532l-.586-.733-.586.733c-.392.49-2.345 3.01-2.345 4.495 0 1.709 1.315 3.099 2.931 3.099s2.931-1.39 2.931-3.099c0-1.485-1.953-4.004-2.345-4.494zm-.586 6.093c-.789 0-1.431-.717-1.431-1.599 0-.547.726-1.776 1.431-2.775.705.998 1.431 2.227 1.431 2.775 0 .882-.642 1.599-1.431 1.599zM5.75 2.414L4.506 5.831 1.41 4.556.839 5.943l3.153 1.298-2.732 7.505a2.254 2.254 0 001.329 2.879l.016.005 8.659 3.152a2.249 2.249 0 002.879-1.329l.005-.016 4.489-12.333zm1.334 6.101a1.53 1.53 0 10.524-1.403l.002-.002-1.716-.707.752-2.067 10.068 3.665-1.34 3.681v-.057H3.993L5.38 7.814zm5.655 10.41a.753.753 0 01-.967.447l.005.002-8.659-3.152a.753.753 0 01-.447-.967l-.002.005.777-2.135h11.402z"/></svg>