<svg xmlns="http://www.w3.org/2000/svg" width="24" height="24" viewBox="0 0 24 24"><path d="M17.945 14.277C17.202 11.646 14.822 9.75 12 9.75s-5.202 1.896-5.934 4.484l-.011.043-.855 3.101a3.75 3.75 0 003.615 4.747h6.371a3.75 3.75 0 003.609-4.774l.006.026zm-.97 5.461a2.232 2.232 0 01-1.782.887H8.814a2.25 2.25 0 01-2.165-2.864l-.004.016.855-3.101c.562-1.991 2.363-3.426 4.499-3.426s3.937 1.435 4.491 3.393l.008.033.855 3.101a2.23 2.23 0 01-.382 1.967l.004-.005zM6.848 10.796c.13-.815-.043-1.689-.487-2.459S5.246 6.98 4.475 6.685c-.826-.316-1.669-.265-2.373.141-1.401.809-1.77 2.802-.822 4.444.445.77 1.115 1.357 1.886 1.652.318.127.685.202 1.071.205H4.247c.476 0 .922-.129 1.305-.353l-.012.007c.705-.407 1.17-1.112 1.309-1.985zm-1.481-.237c-.067.419-.272.746-.578.923s-.692.19-1.088.039c-.451-.172-.849-.527-1.122-1-.525-.91-.4-2.006.273-2.395.156-.09.343-.143.543-.143h.013-.001c.192.002.375.04.543.108l-.01-.004c.451.172.849.527 1.122 1s.382.996.305 1.472zM7.011 7.688c.533.426 1.141.647 1.756.647.194 0 .383-.022.565-.062l-.017.003c1.581-.344 2.539-2.13 2.137-3.982-.189-.869-.648-1.632-1.293-2.148-.691-.552-1.509-.761-2.304-.588-1.581.344-2.539 2.13-2.137 3.982.189.869.648 1.632 1.293 2.148zm1.162-4.664c.066-.015.143-.024.221-.024h.001c.279 0 .566.109.827.318.377.301.648.761.764 1.295.223 1.026-.23 2.033-.989 2.198-.345.075-.717-.029-1.048-.294-.377-.301-.648-.761-.764-1.295-.223-1.026.23-2.033.989-2.198zM21.899 6.826c-.704-.407-1.547-.457-2.373-.141-.771.295-1.441.881-1.886 1.652s-.618 1.644-.487 2.459c.14.873.605 1.578 1.309 1.985.371.218.816.346 1.292.346h.01-.001a2.978 2.978 0 001.092-.212l-.02.007c.771-.295 1.441-.881 1.886-1.652.948-1.642.579-3.635-.822-4.444zm-.478 3.694c-.273.473-.672.828-1.122 1-.396.151-.782.137-1.088-.039s-.511-.504-.578-.923c-.076-.476.032-.999.305-1.472s.672-.828 1.122-1a1.47 1.47 0 01.532-.104H20.605c.2 0 .387.053.549.146l-.005-.003c.673.389.798 1.485.273 2.395zM14.685 8.277c.165.038.354.059.548.059.615 0 1.223-.222 1.756-.647.645-.516 1.104-1.278 1.293-2.148.403-1.852-.556-3.639-2.137-3.982-.795-.173-1.613.036-2.304.588-.645.516-1.104 1.278-1.293 2.148-.403 1.852.556 3.639 2.137 3.982zm-.67-3.664c.116-.534.387-.994.764-1.295.261-.209.548-.318.827-.318h.001c.078 0 .155.009.228.025l-.007-.001c.759.165 1.212 1.172.989 2.198-.116.534-.387.994-.764 1.295-.331.265-.703.369-1.048.294-.759-.165-1.213-1.172-.989-2.198z"/></svg>