<svg xmlns="http://www.w3.org/2000/svg" width="24" height="24" viewBox="0 0 24 24"><path d="M22.03 1.97c-.754-.752-1.795-1.218-2.944-1.218s-2.19.465-2.944 1.218l-.447.447-.975-.975c-.428-.428-1.018-.692-1.67-.692s-1.243.264-1.67.692L5.096 7.726l1.061 1.061 6.284-6.284a.86.86 0 011.22 0l.975.975-6.295 6.295a30.303 30.303 0 00-7.164 11.414l-.065.213a1.164 1.164 0 00.281 1.205l.004.004a1.162 1.162 0 001.214.278l-.008.003c4.552-1.578 8.442-4.051 11.627-7.229l7.802-7.802c.752-.754 1.218-1.795 1.218-2.944s-.465-2.19-1.218-2.944zm-8.863 12.631A28.815 28.815 0 012.954 21.18l-.199.065c1.519-4.067 3.78-7.54 6.645-10.412l2.547-2.547 3.767 3.767zm7.803-7.803l-4.195 4.195-3.767-3.767 4.195-4.195a2.664 2.664 0 113.768 3.768z"/></svg>