<svg xmlns="http://www.w3.org/2000/svg" width="24" height="24" viewBox="0 0 24 24"><path d="M21.064 4.202l-.032-.02-4.059-2-4.381 5.841 2.016 2.688a4.153 4.153 0 01-3.884 3.895l-.012.001-2.688-2.016-5.841 4.381 2 4.059.02.032c.211.336.579.556.999.556h1.051c8.487 0 15.367-6.88 15.367-15.367V5.205v-.004c0-.42-.22-.788-.551-.996l-.005-.003zm-.944 2.05c0 7.646-6.221 13.867-13.867 13.867h-.848l-1.327-2.694 3.946-2.959 2.197 1.648h.25a5.651 5.651 0 005.644-5.643v-.25l-1.648-2.197 2.959-3.946 2.694 1.327z"/></svg>