<svg xmlns="http://www.w3.org/2000/svg" width="24" height="24" viewBox="0 0 24 24"><path d="M22.397 6.572l-4.969-4.969a2.912 2.912 0 00-4.383 3.815l-.005-.007-.23.259-4.578 2.011-1.997-1.079a1.122 1.122 0 00-1.352.217v.001L2.935 8.883a1.118 1.118 0 00.023 1.567l4.766 4.766-6.973 6.973v1.061h1.061l6.973-6.973 4.744 4.744a1.12 1.12 0 001.56.03l-.001.001 2.082-1.928a1.122 1.122 0 00.221-1.369l.003.006-1.094-2.009 1.975-4.243.403-.484a2.913 2.913 0 003.72-4.453zm-1.061 3.057c-.256.256-.609.414-.999.414s-.743-.158-.999-.414l-.791-.792-1.551 1.86-2.377 5.106 1.317 2.417-1.604 1.484L4.273 9.646l1.5-1.589 2.389 1.291 5.549-2.438 1.368-1.54-.711-.711a1.412 1.412 0 111.997-1.997l4.969 4.969c.256.256.414.609.414.999s-.158.743-.414.999z"/></svg>