<svg xmlns="http://www.w3.org/2000/svg" width="24" height="24" viewBox="0 0 24 24"><path d="M21.96 16.945c-.425-.198-.954-.445-1.924-.445s-1.499.247-1.924.445c-.365.17-.653.305-1.29.305s-.925-.134-1.29-.305c-.425-.198-.954-.445-1.924-.445s-1.499.247-1.924.445c-.365.17-.653.305-1.29.305s-.925-.134-1.29-.305c-.425-.198-.954-.445-1.924-.445s-1.499.247-1.924.445c-.365.17-.653.305-1.29.305s-.925-.134-1.29-.305c-.425-.198-.954-.445-1.924-.445V18c.637 0 .925.134 1.29.305.425.198.954.445 1.924.445s1.499-.247 1.924-.445c.365-.17.653-.305 1.29-.305s.925.134 1.29.305c.425.198.954.445 1.924.445s1.499-.247 1.924-.445c.365-.17.653-.305 1.29-.305s.925.134 1.29.305c.425.198.954.445 1.924.445s1.499-.247 1.924-.445c.365-.17.653-.305 1.29-.305s.925.134 1.29.305c.425.198.954.445 1.924.445v-1.5c-.637 0-.925-.134-1.29-.305zM20.036 21c-.97 0-1.499.247-1.924.445-.365.17-.653.305-1.29.305s-.925-.134-1.29-.305c-.425-.198-.954-.445-1.924-.445s-1.499.247-1.924.445c-.365.17-.653.305-1.29.305s-.925-.134-1.29-.305C8.679 21.247 8.15 21 7.18 21s-1.499.247-1.924.445c-.365.17-.653.305-1.29.305s-.925-.134-1.29-.305C2.251 21.247 1.722 21 .752 21v1.5c.637 0 .925.134 1.29.305.425.198.954.445 1.924.445s1.499-.247 1.924-.445c.365-.17.653-.305 1.29-.305s.925.134 1.29.305c.425.198.954.445 1.924.445s1.499-.247 1.924-.445c.365-.17.653-.305 1.29-.305s.925.134 1.29.305c.425.198.954.445 1.924.445s1.499-.247 1.924-.445c.365-.17.653-.305 1.29-.305s.925.134 1.29.305c.425.198.954.445 1.924.445v-1.5c-.637 0-.925-.134-1.29-.305-.425-.198-.954-.445-1.924-.445zM11.625 12.75h6.75v2.625h1.5V5.432v-.003c0-.476.148-.916.401-1.279l-.005.007L22.613.75h-1.82l-1.758 2.557a3.702 3.702 0 00-.66 2.12V7.5h-6.75V5.432v-.003c0-.476.148-.916.401-1.279l-.005.007L14.363.75h-1.82l-1.758 2.557a3.702 3.702 0 00-.66 2.12v9.948h1.5zm0-3.75h6.75v2.25h-6.75z"/></svg>