<svg xmlns="http://www.w3.org/2000/svg" width="24" height="24" viewBox="0 0 24 24"><path d="M18.665 6.432C18.131 3.192 15.35.75 12 .75a6.752 6.752 0 00-6.668 5.689l-.005.038a5.738 5.738 0 00-3.018 1.545l.001-.001a5.113 5.113 0 00-1.561 3.68c0 1.459.599 2.848 1.688 3.913q.133.13.274.251l.531-1.593c-.614-.71-.993-1.614-.993-2.57 0-1.986 1.675-3.657 3.812-3.805l.659-.046.038-.659a5.25 5.25 0 0110.48-.025l.001.015.042.698.699.007c2.184.023 3.769 1.627 3.769 3.815 0 1.554-.783 2.877-1.961 3.558l-.615 1.846a5.167 5.167 0 002.572-1.513l.003-.003c.968-1.041 1.501-2.421 1.501-3.887 0-2.771-1.928-4.932-4.585-5.269z"/><path d="M5.908 23.25h1.584l2.969-8.759-1.421-.482-3.132 9.241zM13.783 23.25h1.584l2.969-8.759-1.421-.482-3.132 9.241zM13.599 11.767L10.584 21h1.578l2.863-8.767-1.426-.466zM6.037 11.767L3.022 21H4.6l2.863-8.767-1.426-.466z"/></svg>