<svg xmlns="http://www.w3.org/2000/svg" width="24" height="24" viewBox="0 0 24 24"><path d="M15.854 18.755l.009-.005h-.012l.003.005zM15.263 12a3.373 3.373 0 00-2.511-5.625H8.625v10.5h1.5v-3.75h2.417l2.206 3.75h1.74l-2.375-4.038a3.423 3.423 0 001.148-.834l.003-.003zm-2.513-.375h-2.625v-3.75h2.625a1.874 1.874 0 110 3.75z"/><path d="M19.955 4.045A11.214 11.214 0 0012 .75C5.787.75.75 5.787.75 12c0 3.107 1.259 5.919 3.295 7.955A11.214 11.214 0 0012 23.25c6.213 0 11.25-5.037 11.25-11.25 0-3.107-1.259-5.919-3.295-7.955zM12 21.75c-5.376 0-9.75-4.374-9.75-9.75S6.624 2.25 12 2.25s9.75 4.374 9.75 9.75-4.374 9.75-9.75 9.75z"/></svg>