<svg xmlns="http://www.w3.org/2000/svg" width="24" height="24" viewBox="0 0 24 24"><path d="M19.962 4.096A11.186 11.186 0 0012.026.807C5.829.807.806 5.83.806 12.027c0 3.099 1.257 5.905 3.289 7.936a11.186 11.186 0 007.936 3.289c6.197 0 11.22-5.023 11.22-11.22 0-3.099-1.257-5.905-3.289-7.936zM12.028 21.75c-5.36 0-9.72-4.36-9.72-9.72s4.36-9.72 9.72-9.72 9.72 4.36 9.72 9.72-4.36 9.72-9.72 9.72z"/><path d="M12.028 9.03a3 3 0 103 3 3.004 3.004 0 00-3-3zm0 4.5a1.5 1.5 0 111.5-1.5 1.502 1.502 0 01-1.5 1.5z"/></svg>