<svg xmlns="http://www.w3.org/2000/svg" width="24" height="24" viewBox="0 0 24 24"><path d="M11.491 7.875A4.125 4.125 0 1015.616 12a4.13 4.13 0 00-4.125-4.125zm0 6.75A2.625 2.625 0 1114.116 12a2.629 2.629 0 01-2.625 2.625z"/><path d="M21.783 15.109l-1.489-1.226c.126-.566.198-1.216.198-1.883s-.072-1.317-.209-1.943l.011.06 1.489-1.226a.932.932 0 00.213-1.197l.002.004-1.529-2.648a.935.935 0 00-1.148-.407l.006-.002-1.808.677a8.989 8.989 0 00-3.196-1.866l-.064-.018-.317-1.902a.935.935 0 00-.922-.783H9.957a.933.933 0 00-.921.778l-.001.005-.317 1.902a9.037 9.037 0 00-3.267 1.891l.008-.007-1.808-.677a.934.934 0 00-1.138.405l-.002.004L.982 7.698a.934.934 0 00.215 1.191l.002.001 1.489 1.226c-.126.566-.198 1.216-.198 1.883s.072 1.317.209 1.943l-.011-.06-1.489 1.226a.932.932 0 00-.213 1.197l-.002-.004 1.529 2.648a.935.935 0 001.148.408l-.006.002 1.808-.677a8.989 8.989 0 003.196 1.866l.064.018.317 1.902a.935.935 0 00.922.783h3.063a.933.933 0 00.921-.778l.001-.005.317-1.902a9.037 9.037 0 003.267-1.891l-.008.007 1.808.677a.934.934 0 001.138-.405l.002-.004L22 16.302a.934.934 0 00-.215-1.191l-.002-.001zm-2.374 2.677l-2.255-.845-.341.344a7.49 7.49 0 01-3.352 1.955l-.053.012-.469.124-.396 2.374h-2.104l-.396-2.374-.469-.124a7.517 7.517 0 01-3.404-1.967l-.341-.344-2.255.845-1.052-1.822 1.858-1.529-.127-.467c-.166-.59-.261-1.267-.261-1.967s.095-1.377.274-2.02l-.013.053.127-.467-1.858-1.529 1.052-1.822 2.255.845.341-.344a7.49 7.49 0 013.352-1.955l.053-.012.469-.124.396-2.374h2.104l.396 2.374.469.124a7.517 7.517 0 013.404 1.967l.341.344 2.255-.845 1.052 1.822-1.858 1.529.127.467c.166.59.261 1.267.261 1.967s-.095 1.377-.274 2.02l.013-.053-.127.467 1.858 1.529z"/></svg>