<svg xmlns="http://www.w3.org/2000/svg" width="24" height="24" viewBox="0 0 24 24"><path d="M18 14.818l1.5 1.5V11.25H18v3.568zM20.625 11.25h1.5v5.625h-1.5V11.25zM17.037 5.346a2.99 2.99 0 00-.718 1.949c0 .618.187 1.193.507 1.671l-.007-.011.28.42h1.803l-.834-1.252a1.497 1.497 0 01.11-1.803l-.002.002c.449-.52.722-1.202.722-1.948a2.98 2.98 0 00-.565-1.749l.006.009-.274-.384H16.35l-.085.061.853 1.195c.174.241.279.543.279.868 0 .372-.136.713-.362.974l.002-.002zM20.412 5.346a2.99 2.99 0 00-.718 1.949c0 .618.187 1.193.507 1.671l-.007-.011.28.42h1.803l-.834-1.252a1.497 1.497 0 01.11-1.803l-.002.002c.449-.52.722-1.202.722-1.948a2.98 2.98 0 00-.565-1.749l.006.009-.274-.384h-1.715l-.085.061.853 1.195c.174.241.279.543.279.868 0 .372-.136.713-.362.974l.002-.002zM12.311 11.25L1.811.75H.75v1.061l9.439 9.439H.75v5.625h15.064l6.375 6.375h1.061v-1.061zM2.25 15.375V12.75h9.439l2.625 2.625z"/></svg>