<svg xmlns="http://www.w3.org/2000/svg" width="24" height="24" viewBox="0 0 24 24"><path d="M6.341 9.69l4.165 2.419-3.752 2.178-4.49-1.203v1.553l3.508.94-.945 3.528 1.345.776 1.117-4.17 3.96-2.299v4.138l-3.336 3.336 1.345.776 2.835-2.835 2.772 2.772 1.345-.776-3.461-3.461v-3.951l3.891 2.259 1.138 4.247 1.345-.776-.955-3.564 3.581-.96v-1.553l-4.523 1.212-3.733-2.168L17.64 9.7l4.11 1.101V9.248l-3.265-.875.901-3.364-1.345-.776-1.11 4.145-4.181 2.428V6.12l3.133-3.133-1.345-.776-2.586 2.586-2.546-2.546-1.345.776 3.189 3.189v4.589L7 8.337 5.91 4.269l-1.345.776.892 3.328-3.192.855v1.553l4.077-1.092z"/></svg>