<svg xmlns="http://www.w3.org/2000/svg" width="24" height="24" viewBox="0 0 24 24"><path d="M17.953 11.136a11.818 11.818 0 00-4.785-8.457l-.033-.023-1.338-.969-1.253.975C7.978 4.67 6.277 7.681 6.033 11.095l-.002.038a8.029 8.029 0 00-1.53-.143H.75v3.073c0 4.549 3.701 8.25 8.25 8.25h6c4.549 0 8.25-3.701 8.25-8.25V10.99H19.5c-.547 0-1.082.053-1.599.155l.052-.009zm-6.489-7.29l.364-.283.426.308c2.417 1.77 4.023 4.524 4.225 7.661l.002.03a8.352 8.352 0 00-4.459 4.192l-.021.051a8.346 8.346 0 00-4.436-4.227l-.056-.02a10.19 10.19 0 013.933-7.695l.023-.017zm-.214 16.967H9a6.758 6.758 0 01-6.75-6.75V12.49H4.5a6.758 6.758 0 016.75 6.75zm10.5-6.75a6.758 6.758 0 01-6.75 6.75h-2.25V19.24a6.758 6.758 0 016.75-6.75h2.25z"/></svg>