<svg xmlns="http://www.w3.org/2000/svg" width="24" height="24" viewBox="0 0 24 24"><path d="M23.156 9.313a1.907 1.907 0 00-1.497-1.292l-.011-.002-5.433-.883-2.519-4.894a1.907 1.907 0 00-3.387-.011l-.005.01-2.519 4.894-5.433.883a1.91 1.91 0 00-1.049 3.227l3.877 3.908-.839 5.44a1.906 1.906 0 002.755 1.989l-.011.005 4.914-2.479 4.915 2.479a1.907 1.907 0 002.742-2.004l.001.011-.839-5.44 3.877-3.908a1.893 1.893 0 00.456-1.946l.004.013zm-1.525.876l-4.409 4.445.955 6.188a.407.407 0 01-.589.425l.002.001-5.59-2.82-5.59 2.82a.406.406 0 01-.586-.428v.002l.955-6.188-4.409-4.445a.407.407 0 01.222-.689h.002l6.18-1.004 2.865-5.567a.408.408 0 01.723-.002l.001.002 2.865 5.567 6.18 1.004a.408.408 0 01.224.689z"/></svg>