<svg xmlns="http://www.w3.org/2000/svg" width="24" height="24" viewBox="0 0 24 24"><path d="M12 4.875c-3.929 0-7.125 3.196-7.125 7.125S8.071 19.125 12 19.125s7.125-3.196 7.125-7.125S15.929 4.875 12 4.875zm0 12.75a5.624 5.624 0 110-11.25A5.624 5.624 0 0117.625 12 5.632 5.632 0 0112 17.625zM11.25.75h1.5V3h-1.5V.75zM11.25 21h1.5v2.25h-1.5V21zM21 11.25h2.25v1.5H21v-1.5zM.75 11.25H3v1.5H.75v-1.5zM18.22 19.28l1.061-1.061 1.5 1.5-1.061 1.061-1.5-1.5zM3.22 4.28l1.061-1.061 1.5 1.5L4.72 5.78l-1.5-1.5zM3.22 19.72l1.5-1.5 1.061 1.061-1.5 1.5L3.22 19.72zM18.22 4.72l1.5-1.5 1.061 1.061-1.5 1.5L18.22 4.72z"/></svg>