<svg xmlns="http://www.w3.org/2000/svg" width="24" height="24" viewBox="0 0 24 24"><path d="M10.468 6.445a.752.752 0 01.841.142l1.541 1.648-4.784 4.221c.448.089.764.236 1.037.364.365.17.653.305 1.29.305s.925-.134 1.29-.305l.007-.003a8.151 8.151 0 001.95-1.278l-.009.007 1.268-1.119 2.48 2.652c.29-.053.495-.149.732-.259.223-.114.486-.218.759-.298l.033-.008-6.528-6.98a2.251 2.251 0 00-2.556-.442l.014-.006-3.025 1.412.634 1.359zM19.125 6.188a1.688 1.688 0 11-3.377 0 1.688 1.688 0 013.377 0zM20.036 17.625c-.97 0-1.499.247-1.924.445-.365.17-.653.305-1.29.305s-.925-.134-1.29-.305c-.425-.198-.954-.445-1.924-.445s-1.499.247-1.924.445c-.365.17-.653.305-1.29.305s-.925-.134-1.29-.305c-.425-.198-.954-.445-1.924-.445s-1.499.247-1.924.445c-.365.17-.653.305-1.29.305s-.925-.134-1.29-.305c-.425-.198-.954-.445-1.924-.445v1.5c.637 0 .925.134 1.29.305.425.198.954.445 1.924.445s1.499-.247 1.924-.445c.365-.17.653-.305 1.29-.305s.925.134 1.29.305c.425.198.954.445 1.924.445s1.499-.247 1.924-.445c.365-.17.653-.305 1.29-.305s.925.134 1.29.305c.425.198.954.445 1.924.445s1.499-.247 1.924-.445c.365-.17.653-.305 1.29-.305s.925.134 1.29.305c.425.198.954.445 1.924.445v-1.5c-.637 0-.925-.134-1.29-.305-.425-.198-.954-.445-1.924-.445zM23.123 14.623c-.55-.017-.824-.144-1.163-.303-.406-.19-.908-.423-1.798-.443l-.127-.002-.127.002c-.89.021-1.392.254-1.798.443-.34.158-.613.286-1.163.303a5.134 5.134 0 01-.254 0c-.55-.017-.824-.144-1.163-.303-.406-.19-.908-.423-1.798-.443l-.127-.002-.127.002c-.889.021-1.392.254-1.798.443-.34.158-.613.286-1.163.303a5.134 5.134 0 01-.254 0c-.55-.017-.824-.144-1.163-.303-.406-.19-.908-.423-1.798-.443l-.091-.002-.035-.001-.127.002c-.889.021-1.392.254-1.798.443-.34.158-.613.286-1.163.303a5.134 5.134 0 01-.254 0c-.55-.017-.824-.144-1.163-.303-.406-.19-.908-.423-1.798-.443l-.127-.002v1.5c.637 0 .925.134 1.29.305.425.198.954.445 1.924.445s1.499-.247 1.924-.445c.365-.17.653-.305 1.29-.305s.925.134 1.29.305c.425.198.954.445 1.924.445s1.499-.247 1.924-.445c.365-.17.653-.305 1.29-.305s.925.134 1.29.305c.425.198.954.445 1.924.445s1.499-.247 1.924-.445c.365-.17.653-.305 1.29-.305s.925.134 1.29.305c.425.198.954.445 1.924.445v-1.5l-.127-.002z"/></svg>