<svg xmlns="http://www.w3.org/2000/svg" width="24" height="24" viewBox="0 0 24 24"><path d="M22.776 12.34L11.625 1.189A1.488 1.488 0 0010.568.75H3A2.252 2.252 0 00.75 3v7.551c.001.431.182.819.472 1.093l.001.001 11.862 11.143c.2.189.47.305.767.305h.002l.042-.001c.312-.011.59-.148.786-.362l.001-.001 8.125-8.831c.185-.199.298-.467.298-.762 0-.311-.126-.592-.331-.795zm-8.94 9.094L2.25 10.55V2.999a.75.75 0 01.75-.75h7.564l10.897 10.897z"/><path d="M6.938 4.5a2.438 2.438 0 102.438 2.438A2.441 2.441 0 006.939 4.5zm0 3.375a.938.938 0 11.938-.938.94.94 0 01-.937.938z"/></svg>