<svg xmlns="http://www.w3.org/2000/svg" width="24" height="24" viewBox="0 0 24 24"><path d="M23.999 12.745a2.227 2.227 0 00-.689-1.546l-.001-.001-8.705-8.48a1.395 1.395 0 00-.99-.409h-1.558l10.212 9.97a.745.745 0 01.035 1.047l-7.331 8.126 1.029 1.001 7.41-8.116a2.23 2.23 0 00.587-1.596v.004z"/><path d="M20.011 13.273a1.115 1.115 0 00-.246-1.16l-.014-.016-9.241-9.396a1.488 1.488 0 00-1.057-.439H2.822A2.074 2.074 0 00.75 4.333v6.614c.001.43.181.817.47 1.091l.001.001 9.862 9.388c.2.189.47.305.767.305h.002l.042-.001c.114-.004.222-.025.324-.059l-.008.002a1.11 1.11 0 00.47-.305l.001-.001 7.099-7.716a1.13 1.13 0 00.228-.371l.003-.008zm-8.175 6.799L2.25 10.948V4.334c0-.316.256-.571.572-.572H9.45l8.986 9.137z"/><path d="M6.563 5.25a2.438 2.438 0 102.438 2.438A2.441 2.441 0 006.564 5.25zm0 3.375a.938.938 0 11.938-.938.94.94 0 01-.937.938z"/></svg>