<svg xmlns="http://www.w3.org/2000/svg" width="24" height="24" viewBox="0 0 24 24"><path d="M6.75 3.75a3 3 0 10-3 3 3.004 3.004 0 003-3zm-4.5 0a1.5 1.5 0 111.5 1.5 1.502 1.502 0 01-1.5-1.5zM20.655 3.349a6.23 6.23 0 00-4.416-1.844H16.209c-1.757 0-3.473.749-4.834 2.11-1.387 1.387-2.519 3.494-3.031 5.636a9.634 9.634 0 00-.254 1.591l-.002.035a5.614 5.614 0 01-.73 2.44l.015-.027c-.307.526-.66.981-1.064 1.384l-3.716 3.807c-.581.583-.642 1.182-.592 1.582.059.465.306.927.715 1.335s.871.656 1.335.715c.067.009.144.014.223.014.384 0 .879-.126 1.363-.609l3.716-3.806a6.686 6.686 0 011.465-1.11l.034-.017a5.49 5.49 0 012.261-.653l.017-.001c.607-.047 1.165-.14 1.705-.276l-.07.015c2.135-.515 4.238-1.651 5.626-3.039 1.369-1.369 2.118-3.096 2.11-4.864a6.235 6.235 0 00-1.844-4.417zM4.573 20.458c-.185.184-.293.17-.334.165-.128-.016-.297-.121-.463-.287s-.271-.335-.287-.463c-.005-.041-.019-.15.168-.337l2.971-3.043.919.919zm4.034-4.107l-.936-.936c.363-.402.691-.848.972-1.325l.021-.038c.313.55.756.994 1.29 1.298l.017.009c-.516.302-.962.63-1.371.999l.007-.006zm10.723-4.782c-1.183 1.183-3.067 2.195-4.917 2.641-1.841.444-3.383.266-4.126-.476-1.583-1.583-.418-6.494 2.148-9.06 1.175-1.175 2.508-1.664 3.759-1.664a4.824 4.824 0 013.401 1.4c1.671 1.671 2.146 4.748-.265 7.159z"/></svg>