<svg xmlns="http://www.w3.org/2000/svg" width="24" height="24" viewBox="0 0 24 24"><path d="M21.301 13.076l-5.926-1.646v-.384c1.793-.914 3-2.746 3-4.861a5.438 5.438 0 10-7.907 4.846l.031.014v3.579H9.354l-.867-1.06a4.233 4.233 0 00-3.28-1.554c-1.005 0-1.928.35-2.655.934l.008-.006a.98.98 0 00-.375 1.569l-.001-.001 7.896 8.742h12.043v-9.09a1.129 1.129 0 00-.816-1.082l-.008-.002zM9 6.188v-.003a3.938 3.938 0 116.384 3.086l-.008.006V6.188a2.438 2.438 0 10-4.876 0v3.089A3.928 3.928 0 019 6.188zM20.625 21.75h-9.876L3.71 13.957a2.71 2.71 0 011.498-.446c.852 0 1.614.389 2.116.999l.004.005 1.317 1.61H12V6.187a.938.938 0 011.876 0v6.383l6.75 1.875z"/></svg>