<svg xmlns="http://www.w3.org/2000/svg" width="24" height="24" viewBox="0 0 24 24"><path d="M23.047 9.973L20.714 6.64A1.501 1.501 0 0019.485 6H15.75V3.75a1.502 1.502 0 00-1.5-1.5h-12a1.502 1.502 0 00-1.5 1.5v15.375h2.488a3.187 3.187 0 006.271.02l.003-.02h4.976a3.187 3.187 0 006.271.02l.003-.02h2.488v-8.507-.002c0-.241-.076-.464-.206-.647l.002.003zM2.25 3.75h12V12h-12l-.001-8.25zm4.125 16.5a1.688 1.688 0 111.688-1.688 1.69 1.69 0 01-1.687 1.688zm11.25 0a1.688 1.688 0 111.688-1.688 1.69 1.69 0 01-1.687 1.688zm4.125-2.625h-1.078c-.414-1.314-1.621-2.25-3.047-2.25s-2.633.936-3.04 2.227l-.006.023H9.422c-.414-1.314-1.621-2.25-3.047-2.25s-2.633.936-3.04 2.227l-.006.023H2.251V13.5h19.5zm0-5.625h-6V7.5h3.735l2.265 3.236z"/></svg>