<svg xmlns="http://www.w3.org/2000/svg" width="24" height="24" viewBox="0 0 24 24"><path d="M9.75.75A5.256 5.256 0 004.5 6v3.735c.001.658.17 1.277.468 1.815l-.01-.019 1.287 2.359-3.414 2.219a3.74 3.74 0 00-1.706 3.137v4.004h13.5v-1.5h-12v-2.497-.004a2.24 2.24 0 011.015-1.877l.009-.005 4.578-2.976-1.952-3.578A2.231 2.231 0 016 9.736V6.001a3.75 3.75 0 017.5 0v3.735c0 .395-.102.766-.281 1.089l.006-.012-1.952 3.579 3.352 2.179v-1.789l-1.37-.89 1.287-2.359A3.718 3.718 0 0015 9.737V6.002A5.256 5.256 0 009.75.752zM19.875 18.75v-3h-1.5v3h-3v1.5h3v3h1.5v-3h3v-1.5h-3z"/></svg>