<svg xmlns="http://www.w3.org/2000/svg" width="24" height="24" viewBox="0 0 24 24"><path d="M19.294 16.109L15.88 13.89l1.287-2.359a3.718 3.718 0 00.458-1.796V6a5.25 5.25 0 10-10.5 0v3.735c.001.658.17 1.277.468 1.815l-.01-.019L8.87 13.89l-3.414 2.219a3.74 3.74 0 00-1.706 3.137v4.004H21v-3.997-.007a3.733 3.733 0 00-1.692-3.128l-.014-.009zm.206 5.641H5.25v-2.497-.004a2.24 2.24 0 011.015-1.877l.009-.005 4.578-2.976L8.9 10.813a2.231 2.231 0 01-.275-1.077V6.001a3.75 3.75 0 017.5 0v3.735c0 .395-.102.766-.281 1.089l.006-.012-1.952 3.579 4.578 2.976A2.244 2.244 0 0119.5 19.25v.004z"/></svg>