<svg xmlns="http://www.w3.org/2000/svg" width="24" height="24" viewBox="0 0 24 24"><path d="M18.618 14.556c1.411-1.531 2.219-3.57 2.36-5.931h2.272v-6h-6v6h2.225c-.219 3.243-1.866 5.608-4.475 6.603V13.5H9v1.728c-2.609-.995-4.256-3.36-4.475-6.603H6.75v-6h-6v6h2.272c.14 2.361.949 4.4 2.36 5.931a8.043 8.043 0 002.385 1.777l.047.021-2.293.764a2.728 2.728 0 00-.4-.423l-.004-.003a2.641 2.641 0 00-1.714-.627 2.65 2.65 0 00-2.024.937l-.003.004a2.656 2.656 0 002.023 4.369q.113 0 .226-.01a2.656 2.656 0 002.424-2.851l.001.009 2.949-.983v1.959h6V17.54l2.948.983a2.578 2.578 0 00.003.429l-.001-.01a2.658 2.658 0 002.64 2.433q.113 0 .226-.01a2.654 2.654 0 10-2.245-4.362l-.003.004a3.15 3.15 0 00-.09.112l-2.293-.764a8.036 8.036 0 002.427-1.793l.005-.005zm.132-7.431v-3h3v3zm-16.5 0v-3h3v3zm2.036 12.341a1.154 1.154 0 11-1.762-1.493l-.001.002c.192-.228.469-.379.781-.405h.004q.049-.004.098-.004a1.155 1.155 0 01.879 1.902l.001-.002zM13.5 18h-3v-3h3zm6.214-.025c.192-.228.469-.379.781-.405h.004q.049-.004.098-.004a1.155 1.155 0 11-.883.408l-.001.002z"/></svg>