<svg xmlns="http://www.w3.org/2000/svg" width="24" height="24" viewBox="0 0 24 24"><path d="M16.046 4.914a4.684 4.684 0 011.048 2.961 4.692 4.692 0 01-1.048 2.962l.007-.009 1.169.938a6.165 6.165 0 001.372-3.891 6.18 6.18 0 00-1.389-3.913l.009.011zM20.257 1.519l-1.172.945a8.556 8.556 0 011.914 5.412 8.573 8.573 0 01-1.915 5.413l.013-.016 1.172.942a10.064 10.064 0 002.229-6.339c0-2.416-.846-4.634-2.258-6.375l.015.019z"/><path d="M16.294 16.109l-3.413-2.219 1.287-2.359a3.721 3.721 0 00.458-1.796V6a5.25 5.25 0 00-10.5 0v3.735c0 .659.17 1.277.468 1.816l-.01-.019 1.287 2.359-3.413 2.219a3.74 3.74 0 00-1.706 3.137v4.004h17.25v-3.997-.007a3.733 3.733 0 00-1.692-3.128l-.014-.009zm.206 5.641H2.25v-2.497-.004a2.24 2.24 0 011.015-1.877l.009-.005 4.578-2.976L5.9 10.813a2.235 2.235 0 01-.275-1.078V6.001a3.75 3.75 0 017.5 0v3.735c0 .395-.102.767-.281 1.09l.006-.012-1.952 3.578 4.578 2.976A2.244 2.244 0 0116.5 19.25v.005z"/></svg>