<svg xmlns="http://www.w3.org/2000/svg" width="24" height="24" viewBox="0 0 24 24"><path d="M19.5 12v-.006c0-1.95-.747-3.726-1.971-5.057l.005.005L16.373.749H7.628L6.467 6.942c-1.219 1.327-1.966 3.105-1.966 5.057s.747 3.73 1.971 5.062l-.005-.005 1.161 6.193h8.745l1.161-6.193a7.44 7.44 0 001.966-5.051v-.006zm-4.372-9.75l.609 3.249C14.665 4.871 13.376 4.5 12 4.5s-2.664.371-3.772 1.018l.035-.019.609-3.249zM12 6a6 6 0 11-6 6 6.007 6.007 0 016-6zM8.872 21.75l-.609-3.249c1.072.628 2.361.999 3.737.999s2.664-.371 3.772-1.018l-.035.019-.609 3.249z"/></svg>