<svg xmlns="http://www.w3.org/2000/svg" width="24" height="24" viewBox="0 0 24 24"><path d="M6.188 6.554a2.902 2.902 0 10-2.902-2.902 2.906 2.906 0 002.902 2.902zm0-4.304a1.402 1.402 0 11-1.402 1.402A1.404 1.404 0 016.188 2.25zM8.25 7.125H4.125a2.252 2.252 0 00-2.25 2.25V16.5h1.5v6.75H9V16.5h1.5V9.375a2.252 2.252 0 00-2.25-2.25zM9 15H7.5v6.75H4.875V15h-1.5V9.375a.75.75 0 01.75-.75H8.25a.75.75 0 01.75.75zM17.348 6.554a2.902 2.902 0 10-2.902-2.902 2.906 2.906 0 002.902 2.902zm0-4.304a1.402 1.402 0 11-1.402 1.402 1.404 1.404 0 011.402-1.402zM19.957 9.063a2.886 2.886 0 00-5.423-.085l-.007.02-2.903 7.741v2.011h3v4.5h4.875v-4.5h3v-2.377zM21 17.25h-3v4.5h-1.875v-4.5h-3v-.239l2.807-7.486a1.386 1.386 0 012.606.022l.003.01L21 16.627z"/></svg>