<svg xmlns="http://www.w3.org/2000/svg" width="24" height="24" viewBox="0 0 24 24"><path d="M12 3.098a1.598 1.598 0 11-3.196 0 1.598 1.598 0 013.196 0zM21.568 16.897l-2.247.562-.899-4.195a1.132 1.132 0 00-1.1-.889h-4.158l-.303-2.625H18v-1.5h-5.312l-.194-1.679a1.127 1.127 0 00-1.252-.988l.005-.001-1.863.215.932 8.078h6.702l1.161 5.416 3.753-.938z"/><path d="M10.5 21a5.625 5.625 0 01-2.158-10.821l.037-.014-.177-1.535c-2.805.958-4.827 3.62-4.827 6.745a7.123 7.123 0 0013.203 3.717l.018-.031-.471-2.185c-.75 2.25-2.878 4.125-5.625 4.125z"/></svg>