<svg xmlns="http://www.w3.org/2000/svg" width="24" height="24" viewBox="0 0 24 24"><path d="M11.146 22.5h1.708L23.625 7.118V5.832l-.01-.007C20.378 3.534 16.349 2.163 12 2.163S3.622 3.534.322 5.868l.063-.043-.01.007v1.286zm-2.762-6.559C9.425 15.349 10.672 15 12 15s2.574.349 3.652.96l-.037-.019-3.616 5.164zM12 3.662h.03c3.753 0 7.248 1.109 10.174 3.017l-.072-.044-5.652 8.072c-1.284-.759-2.829-1.207-4.479-1.207s-3.196.448-4.521 1.23l.042-.023L1.87 6.635c2.854-1.864 6.348-2.973 10.102-2.973h.032-.002z"/></svg>