<svg xmlns="http://www.w3.org/2000/svg" width="24" height="24" viewBox="0 0 24 24"><path d="M23.615 5.824c-3.236-2.291-7.264-3.662-11.612-3.662-1.406 0-2.778.143-4.103.416l.131-.022 1.012 1.339a18.333 18.333 0 012.955-.233h.034c3.753 0 7.248 1.109 10.174 3.017l-.072-.044-5.299 7.568.951 1.258 5.842-8.343V5.832zM3.869.75v1.027l1.213 1.605a20.236 20.236 0 00-4.76 2.485l.063-.042-.01.007v1.286L11.146 22.5h1.708l3.211-4.586 2.899 3.836h1.077v-1.062L4.973.75zm11.246 15.907L12 21.105 1.868 6.635a18.326 18.326 0 014.029-1.961l.131-.039z"/></svg>