<svg xmlns="http://www.w3.org/2000/svg" width="24" height="24" viewBox="0 0 24 24"><path d="M16.316 6.624l-4.114 4.114-4.114-4.114-1.061 1.061 4.114 4.114-4.114 4.114 1.061 1.061 4.114-4.114 4.114 4.114 1.061-1.061-4.114-4.114 4.114-4.114-1.061-1.061z"/><path d="M19.955 4.045A11.214 11.214 0 0012 .75C5.787.75.75 5.787.75 12c0 3.107 1.259 5.919 3.295 7.955A11.214 11.214 0 0012 23.25c6.213 0 11.25-5.037 11.25-11.25 0-3.107-1.259-5.919-3.295-7.955zM12 21.75c-5.376 0-9.75-4.374-9.75-9.75S6.624 2.25 12 2.25s9.75 4.374 9.75 9.75-4.374 9.75-9.75 9.75z"/></svg>