<svg xmlns="http://www.w3.org/2000/svg" width="24" height="24" viewBox="0 0 24 24"><path d="M9.75 4.5h-1.5v3.75H4.5v1.5h3.75v3.75h1.5V9.75h3.75v-1.5H9.75V4.5z"/><path d="M22.481 18.769l-3.801-3.801-2.923-1.208a8.137 8.137 0 001.493-4.719v-.009c0-4.549-3.701-8.25-8.25-8.25S.75 4.483.75 9.032s3.701 8.25 8.25 8.25h.009a8.174 8.174 0 004.779-1.534l-.025.017 1.205 2.916 3.801 3.801a2.625 2.625 0 103.712-3.712zM2.25 9.032c0-3.722 3.028-6.75 6.75-6.75s6.75 3.028 6.75 6.75-3.028 6.75-6.75 6.75-6.75-3.028-6.75-6.75zM21.42 21.42a1.124 1.124 0 01-1.591 0l-3.589-3.589-1.12-2.711 2.711 1.12 3.589 3.589a1.124 1.124 0 010 1.591z"/></svg>