<?xml version="1.0" encoding="UTF-8"?>
<svg width="513px" height="100px" viewBox="0 0 513 100" version="1.1" xmlns="http://www.w3.org/2000/svg" xmlns:xlink="http://www.w3.org/1999/xlink">
    <!-- Generator: Sketch 57.1 (83088) - https://sketch.com -->
    <title>Group 1043</title>
    <desc>Created with Sketch.</desc>
    <g id="Page-1" stroke="none" stroke-width="1" fill="none" fill-rule="evenodd">
        <g id="Group-1043">
            <path d="M289.494306,68.23125 L289.494306,30.5520887 C289.494306,30.183121 289.677935,29.9971613 290.047935,29.9971613 L291.101887,29.9971613 C291.469629,29.9971613 291.655516,30.183121 291.655516,30.5520887 L291.655516,68.23125 C291.655516,68.6010081 291.469629,68.7860806 291.101887,68.7860806 L290.047935,68.7860806 C289.677935,68.7860806 289.494306,68.6010081 289.494306,68.23125 Z" id="Fill-983" fill="#3C4B64"></path>
            <path d="M307.596105,66.4032984 C305.674895,64.5185968 304.715621,62.007 304.715621,58.8668387 L304.715621,39.8053629 C304.715621,36.7389355 305.684169,34.2638629 307.624089,32.3799435 C309.564008,30.4960242 312.102718,29.5544032 315.242879,29.5544032 C318.419653,29.5544032 320.977556,30.4875565 322.917718,32.352871 C324.857476,34.2179839 325.827153,36.701621 325.827153,39.8053629 L325.827153,40.3601855 C325.827153,40.7291532 325.642476,40.9130484 325.272315,40.9130484 L324.163605,40.9682742 C323.794815,40.9682742 323.609815,40.8029919 323.609815,40.4693629 L323.609815,39.74925 C323.609815,37.2751532 322.842879,35.28 321.311105,33.7650484 C319.777395,32.2509758 317.755298,31.4935565 315.242879,31.4935565 C312.731347,31.4935565 310.708282,32.2509758 309.17554,33.7650484 C307.642798,35.28 306.875944,37.2751532 306.875944,39.74925 L306.875944,59.0331048 C306.875944,61.5082823 307.642798,63.5032419 309.17554,65.0173065 C310.708282,66.5322581 312.731347,67.2896855 315.242879,67.2896855 C317.755298,67.2896855 319.777395,66.5322581 321.311105,65.0173065 C322.842879,63.5032419 323.609815,61.5082823 323.609815,59.0331048 L323.609815,58.3670403 C323.609815,58.0364597 323.794815,57.8692097 324.163605,57.8692097 L325.272315,57.9243387 C325.642476,57.9243387 325.827153,58.1102984 325.827153,58.4791613 L325.827153,58.9218629 C325.827153,62.0247177 324.857476,64.5185968 322.917718,66.4032984 C320.977556,68.2873145 318.419653,69.2289355 315.242879,69.2289355 C312.065056,69.2289355 309.516185,68.2873145 307.596105,66.4032984 Z" id="Fill-985" fill="#3C4B64"></path>
            <path d="M343.037105,67.8988548 C341.410976,67.0122742 340.155411,65.7570161 339.270008,64.1309194 C338.382427,62.5057097 337.939847,60.6405968 337.939847,58.5352742 L337.939847,40.3040726 C337.939847,38.1988548 338.382427,36.3335403 339.270008,34.7074435 C340.155411,33.0823387 341.410976,31.8166452 343.037105,30.9116532 C344.662185,30.0075403 346.528315,29.5544032 348.633395,29.5544032 C350.739685,29.5544032 352.60404,30.0075403 354.230895,30.9116532 C355.856218,31.8166452 357.120815,33.0823387 358.025734,34.7074435 C358.930976,36.3335403 359.383073,38.1988548 359.383073,40.3040726 L359.383073,58.5352742 C359.383073,60.6405968 358.930976,62.5057097 358.025734,64.1309194 C357.120815,65.7570161 355.856218,67.0122742 354.230895,67.8988548 C352.60404,68.7860323 350.739685,69.2289355 348.633395,69.2289355 C346.528315,69.2289355 344.662185,68.7860323 343.037105,67.8988548 Z M354.840089,64.8789919 C356.427992,63.2715081 357.222831,61.176621 357.222831,58.5894194 L357.222831,40.2480645 C357.222831,37.6636129 356.427992,35.5574113 354.840089,33.9322016 C353.251218,32.3069919 351.182508,31.4935565 348.633395,31.4935565 C346.08525,31.4935565 344.025089,32.2967581 342.455089,33.9032581 C340.884927,35.51075 340.100492,37.6263065 340.100492,40.2480645 L340.100492,58.5894194 C340.100492,61.176621 340.884927,63.2715081 342.455089,64.8789919 C344.025089,66.4864839 346.08525,67.2896855 348.633395,67.2896855 C351.182508,67.2896855 353.251218,66.4864839 354.840089,64.8789919 Z" id="Fill-987" fill="#3C4B64"></path>
            <path d="M392.402129,29.9971613 L393.455677,29.9971613 C393.823823,29.9971613 394.009468,30.183121 394.009468,30.5520887 L394.009468,68.23125 C394.009468,68.6010081 393.823823,68.7860806 393.455677,68.7860806 L392.235919,68.7860806 C391.904145,68.7860806 391.682129,68.6561371 391.571645,68.3965403 L374.836806,34.9838306 C374.763177,34.9111774 374.698581,34.8822339 374.642452,34.9007419 C374.587694,34.9204274 374.559387,34.9838306 374.559387,35.0960565 L374.615516,68.23125 C374.615516,68.6010081 374.42979,68.7860806 374.060677,68.7860806 L373.007855,68.7860806 C372.638903,68.7860806 372.454226,68.6010081 372.454226,68.23125 L372.454226,30.5520887 C372.454226,30.183121 372.638903,29.9971613 373.007855,29.9971613 L374.171887,29.9971613 C374.504629,29.9971613 374.725919,30.1270081 374.836806,30.3848306 L391.571645,63.6871855 C391.644468,63.7619032 391.708903,63.7900565 391.764952,63.770371 C391.820274,63.7526532 391.848258,63.6871855 391.848258,63.5770242 L391.848258,30.5520887 C391.848258,30.183121 392.032129,29.9971613 392.402129,29.9971613 Z" id="Fill-989" fill="#3C4B64"></path>
            <path d="M409.31479,66.5685887 C407.374629,64.7959113 406.405113,62.4506855 406.405113,59.5317258 L406.405113,57.9804516 C406.405113,57.6115806 406.589226,57.425621 406.958984,57.425621 L407.900677,57.425621 C408.270435,57.425621 408.455516,57.6115806 408.455516,57.9804516 L408.455516,59.3655484 C408.455516,61.7669919 409.249226,63.6872339 410.837855,65.1284516 C412.426,66.5685887 414.550758,67.2896855 417.209952,67.2896855 C419.758823,67.2896855 421.771645,66.6059919 423.250032,65.2387097 C424.726726,63.8730968 425.465677,62.0433226 425.465677,59.753129 C425.465677,58.2765645 425.142532,57.0017177 424.496,55.9302581 C423.849952,54.8588952 422.889548,53.8792823 421.61471,52.9937742 C420.340677,52.1063065 418.558419,51.0350403 416.26721,49.7787984 C413.903581,48.4497097 412.102452,47.3411371 410.864871,46.45475 C409.626645,45.5682581 408.639226,44.50625 407.900677,43.2687097 C407.161806,42.0311774 406.792855,40.4889516 406.792855,38.6413629 C406.792855,35.7602016 407.679226,33.5249435 409.452935,31.9371371 C411.224548,30.3484516 413.626,29.5544032 416.655919,29.5544032 C419.942532,29.5544032 422.529226,30.4503468 424.413097,32.2407419 C426.296887,34.0340887 427.239387,36.4072742 427.239387,39.3616774 L427.239387,40.7467742 C427.239387,41.1175161 427.0535,41.3017016 426.685355,41.3017016 L425.687935,41.3017016 C425.317935,41.3017016 425.134306,41.1175161 425.134306,40.7467742 L425.134306,39.4727177 C425.134306,37.0724597 424.376645,35.1416855 422.861565,33.6819597 C421.346726,32.2230242 419.259952,31.4935565 416.601,31.4935565 C414.198742,31.4935565 412.314548,32.1127661 410.948339,33.3495161 C409.581726,34.5878387 408.898177,36.3523468 408.898177,38.6413629 C408.898177,40.0827742 409.193097,41.2828065 409.785274,42.243121 C410.375758,43.204129 411.243258,44.0813629 412.389387,44.8752177 C413.5335,45.6690645 415.251081,46.6759516 417.542452,47.8949758 C420.054145,49.336 421.993903,50.5650726 423.360516,51.579629 C424.726726,52.595871 425.779468,53.7325968 426.518419,54.9878548 C427.258097,56.244 427.626887,57.7403468 427.626887,59.4766935 C427.626887,62.4329597 426.685355,64.7959113 424.801565,66.5685887 C422.917694,68.3423468 420.368823,69.2289355 417.15479,69.2289355 C413.866,69.2289355 411.252532,68.3423468 409.31479,66.5685887 Z" id="Fill-991" fill="#3C4B64"></path>
            <path d="M83.1994032,21.4416452 L49.4337581,1.94682258 C47.8560968,1.03616935 46.0600484,0.554137097 44.2386774,0.554137097 C42.4174677,0.554137097 40.6210968,1.03616935 39.0435968,1.94682258 L5.27698387,21.4416452 C2.07319355,23.2919032 0.0819032258,26.7395 0.0819032258,30.4390161 L0.0819032258,69.4296532 C0.0819032258,73.129371 2.07319355,76.576871 5.27698387,78.427121 L39.0435968,97.9218468 C40.6210968,98.8324516 42.4174677,99.3135484 44.2386774,99.3135484 C46.0600484,99.3135484 47.8560968,98.8324516 49.4337581,97.9218468 L83.1994032,78.427121 C86.4041613,76.576871 88.3942419,73.129371 88.3942419,69.4296532 L88.3942419,30.4390161 C88.3942419,26.7395 86.4041613,23.2919032 83.1994032,21.4416452 Z M81.4675484,69.4296532 C81.4675484,70.6663065 80.8083548,71.809629 79.7369032,72.4288468 L45.9705323,91.9234758 C45.4344032,92.2326855 44.8364194,92.3879274 44.2386774,92.3879274 C43.6409355,92.3879274 43.0431935,92.2326855 42.5070645,91.9234758 L8.74045161,72.4288468 C7.669,71.809629 7.00843548,70.6663065 7.00843548,69.4296532 L7.00843548,30.4390161 C7.00843548,29.2014839 7.669,28.0581532 8.74045161,27.4399274 L42.5070645,7.94510484 C43.0431935,7.63599194 43.6409355,7.48083871 44.2386774,7.48083871 C44.8364194,7.48083871 45.4344032,7.63599194 45.9705323,7.94510484 L79.7369032,27.4399274 C80.8083548,28.0581532 81.4675484,29.2014839 81.4675484,30.4390161 L81.4675484,69.4296532 Z" id="Fill-993" fill="#3C4B64"></path>
            <path d="M64.1701694,61.22225 L60.801621,61.22225 L45.0612984,69.8619758 L27.7875081,59.8895161 L27.7875081,39.9949113 L45.0604919,30.0222581 L60.806379,38.6331371 L64.1701694,38.6331371 C65.1271048,38.6331371 65.9020242,37.8577903 65.9020242,36.9014113 L65.9020242,33.5268548 L48.3883145,23.9475887 C46.2804113,22.7920565 43.6771855,22.8220806 41.5979919,24.0250645 L24.3242823,33.9976129 C22.1882339,35.2303306 20.8617823,37.5299758 20.8617823,39.9958952 L20.8617823,59.8885323 C20.8617823,62.3637016 22.1819435,64.6502581 24.3250887,65.8876935 L41.5979919,75.8601532 C42.6620242,76.4749355 43.8610565,76.7830645 45.0622661,76.7830645 C46.2093629,76.7830645 47.3579919,76.5010242 48.3883145,75.9358548 L65.9020242,66.3247903 L65.9020242,62.953879 C65.9020242,61.9975887 65.1271048,61.22225 64.1701694,61.22225 Z" id="Fill-995" fill="#3C4B64"></path>
            <path d="M146.181952,29.496621 C139.02171,29.496621 133.195258,35.3229194 133.195258,42.4840161 L133.195258,57.4423548 C133.195258,64.6034516 139.02171,70.4299435 146.181952,70.4299435 C153.342919,70.4299435 159.169452,64.6034516 159.169452,57.4423548 L159.169452,42.4840161 C159.169452,35.3229194 153.342919,29.496621 146.181952,29.496621 Z M152.242758,57.4423548 C152.242758,60.7842258 149.523726,63.5032419 146.181952,63.5032419 C142.840016,63.5032419 140.12179,60.7842258 140.12179,57.4423548 L140.12179,42.4840161 C140.12179,39.1420403 142.840016,36.4232258 146.181952,36.4232258 C149.523726,36.4232258 152.242758,39.1420403 152.242758,42.4840161 L152.242758,57.4423548 Z" id="Fill-997" fill="#3C4B64"></path>
            <path d="M114.436782,36.4744597 C117.872831,36.0337258 120.847831,38.4911855 121.249282,41.7349032 C121.302427,42.163629 121.668637,42.4838629 122.101218,42.4838629 L127.322266,42.4838629 C127.833234,42.4838629 128.224605,42.0432339 128.187024,41.5332903 C127.683798,34.600879 121.714524,29.1612661 114.580492,29.5133065 C107.604363,29.8569677 102.247669,35.8759274 102.247669,42.8604113 L102.247669,57.0659516 C102.247669,64.0505403 107.604363,70.0692984 114.580492,70.4129597 C121.714524,70.7650968 127.683798,65.3254839 128.187024,58.3921855 C128.224605,57.88225 127.833234,57.4422016 127.322266,57.4422016 L122.101218,57.4422016 C121.668637,57.4422016 121.302427,57.76175 121.249282,58.1913629 C120.847831,61.4342984 117.872831,63.8926371 114.436782,63.4518065 C111.382427,63.0595081 109.174363,60.3107581 109.174363,57.2312419 L109.174363,42.695129 C109.174363,39.614621 111.382427,36.8668548 114.436782,36.4744597 Z" id="Fill-999" fill="#3C4B64"></path>
            <path d="M186.163548,53.363629 C189.823871,51.7159758 192.383226,48.0416613 192.383226,43.7731371 L192.383226,40.5685887 C192.383226,34.7589355 187.673871,30.0494758 181.864274,30.0494758 L167.182419,30.0494758 C166.704355,30.0494758 166.316694,30.4371532 166.316694,30.9153871 L166.316694,69.0111694 C166.316694,69.4894113 166.704355,69.8768871 167.182419,69.8768871 L172.3775,69.8768871 C172.855726,69.8768871 173.243387,69.4894113 173.243387,69.0111694 L173.243387,54.2919516 L178.976129,54.2919516 L185.829194,69.3689194 C185.970161,69.6779355 186.278306,69.8768871 186.617742,69.8768871 L192.324355,69.8768871 C192.95379,69.8768871 193.373387,69.225879 193.112661,68.6526371 L186.163548,53.363629 Z M185.456532,43.7731371 C185.456532,45.7542177 183.845403,47.3653468 181.864274,47.3653468 L173.335887,47.3653468 L173.335887,36.9761774 L181.864274,36.9761774 C183.845403,36.9761774 185.456532,38.5873145 185.456532,40.5685887 L185.456532,43.7731371 Z" id="Fill-1001" fill="#3C4B64"></path>
            <path d="M222.594,30.0494758 L200.083516,30.0494758 C199.605452,30.0494758 199.217548,30.4371532 199.217548,30.9153871 L199.217548,69.0111694 C199.217548,69.4894113 199.605452,69.8768871 200.083516,69.8768871 L222.594,69.8768871 C223.072629,69.8768871 223.459968,69.4894113 223.459968,69.0111694 L223.459968,63.8161935 C223.459968,63.3379516 223.072629,62.9502823 222.594,62.9502823 L206.144484,62.9502823 L206.144484,52.5603306 L217.400129,52.5603306 C217.878355,52.5603306 218.266016,52.17275 218.266016,51.6946129 L218.266016,46.4994355 C218.266016,46.0212016 217.878355,45.633621 217.400129,45.633621 L206.144484,45.633621 L206.144484,36.9761774 L222.594,36.9761774 C223.072629,36.9761774 223.459968,36.5885081 223.459968,36.110371 L223.459968,30.9153871 C223.459968,30.4371532 223.072629,30.0494758 222.594,30.0494758 Z" id="Fill-1003" fill="#3C4B64"></path>
            <path d="M255.494742,30.0494758 L250.299661,30.0494758 C249.821597,30.0494758 249.434177,30.4371532 249.434177,30.9153871 L249.434177,50.5232258 C249.434177,54.0127661 246.716274,56.8521855 243.373935,56.8521855 C240.032403,56.8521855 237.313371,54.0127661 237.313371,50.5232258 L237.313371,30.9153871 C237.313371,30.4371532 236.925871,30.0494758 236.447403,30.0494758 L231.252323,30.0494758 C230.774339,30.0494758 230.386435,30.4371532 230.386435,30.9153871 L230.386435,50.5232258 C230.386435,57.8318952 236.212726,63.7787823 243.373935,63.7787823 C250.535145,63.7787823 256.360629,57.8318952 256.360629,50.5232258 L256.360629,30.9153871 C256.360629,30.4371532 255.97321,30.0494758 255.494742,30.0494758 Z" id="Fill-1005" fill="#3C4B64"></path>
            <path d="M263.287153,62.2025282 L263.287153,30.797031 C263.287153,30.2986609 263.536338,30.0494758 264.034708,30.0494758 L269.46604,30.0494758 C269.96441,30.0494758 270.213595,30.2986609 270.213595,30.797031 L270.213595,62.2025282 C270.213595,62.7008968 269.96441,62.9500831 269.46604,62.9500831 L264.034708,62.9500831 C263.536338,62.9500831 263.287153,62.7008968 263.287153,62.2025282 Z" id="Fill-1007" fill="#3C4B64"></path>
            <path d="M470.882,42.4446823 C470.756823,42.166529 470.580363,41.9527145 470.352613,41.8031742 C470.123976,41.6536903 469.857145,41.5780371 469.550298,41.5780371 L465.902903,41.5780371 L465.902903,45.2367468 L469.550298,45.2367468 C469.850161,45.2367468 470.113597,45.1610935 470.342177,45.0116097 C470.569927,44.8621177 470.746387,44.6482468 470.871613,44.3701016 C470.995847,44.0910613 471.061952,43.770279 471.068895,43.4069726 C471.068895,43.0436177 471.006331,42.7228355 470.882,42.4446823 Z" id="Fill-1009" fill="#C8D2DC"></path>
            <path d="M511.098798,29.9108694 L441.530387,29.9108694 C440.577694,29.9108694 439.805798,30.688821 439.805798,31.6493855 L439.805798,61.2041355 C439.805798,62.1646516 440.577694,62.9426516 441.530387,62.9426516 L511.098798,62.9426516 C512.05154,62.9426516 512.823387,62.1646516 512.823387,61.2041355 L512.823387,31.6493855 C512.823387,30.688821 512.05154,29.9108694 511.098798,29.9108694 Z M458.626089,41.5893532 L451.342621,41.5893532 L451.342621,45.32195 L457.450032,45.32195 L457.450032,48.1461597 L451.342621,48.1461597 L451.342621,54.3170065 L448.411508,54.3170065 L448.411508,38.7660387 L449.481492,38.7660387 L451.342621,38.7660387 L458.626089,38.7660387 L458.626089,41.5893532 Z M471.186879,54.3170065 L467.680306,48.0600629 L465.902661,48.0600629 L465.902661,54.3170065 L462.972379,54.3170065 L462.972379,38.7547161 L464.138056,38.7547161 L465.902661,38.7547161 L469.785629,38.7547161 C470.64096,38.7547161 471.393758,38.9476677 472.042202,39.3318935 C472.690653,39.7169581 473.194,40.2611032 473.550363,40.9634984 C473.906734,41.6649581 474.084911,42.480321 474.084911,43.4069742 C474.084911,44.3344581 473.906734,45.1489339 473.550363,45.8512806 C473.194,46.5536758 472.688935,47.0969419 472.036984,47.4828935 C471.721427,47.6689016 471.381548,47.8079984 471.019129,47.9045226 L474.73779,54.3170065 L471.186879,54.3170065 Z M489.73679,41.5893532 L482.249895,41.5893532 L482.249895,45.1828532 L488.560677,45.1828532 L488.560677,48.0061677 L482.249895,48.0061677 L482.249895,51.4936919 L489.73679,51.4936919 L489.73679,54.3170065 L482.249895,54.3170065 L480.378379,54.3170065 L479.318774,54.3170065 L479.318774,38.7660387 L480.378379,38.7660387 L482.249895,38.7660387 L489.73679,38.7660387 L489.73679,41.5893532 Z M504.812323,41.5893532 L497.32454,41.5893532 L497.32454,45.1828532 L503.635331,45.1828532 L503.635331,48.0061677 L497.32454,48.0061677 L497.32454,51.4936919 L504.812323,51.4936919 L504.812323,54.3170065 L497.32454,54.3170065 L495.453073,54.3170065 L494.394315,54.3170065 L494.394315,38.7660387 L495.453073,38.7660387 L497.32454,38.7660387 L504.812323,38.7660387 L504.812323,41.5893532 Z" id="Fill-1011" fill="#C8D2DC"></path>
        </g>
    </g>
</svg>