<svg xmlns="http://www.w3.org/2000/svg" viewBox="0 0 512 512">
  <defs>
    <style>
      .ci-primary {
        fill: currentColor;
      }
    </style>
  </defs>
  <path class="ci-primary" d="M472,96H384V40H352V96H160V40H128V96H40a24.028,24.028,0,0,0-24,24V456a24.028,24.028,0,0,0,24,24H472a24.028,24.028,0,0,0,24-24V120A24.028,24.028,0,0,0,472,96Zm-8,352H48V128h80v40h32V128H352v40h32V128h80Z"/>
  <rect class="ci-primary" x="112" y="224" width="32" height="32"/>
  <rect class="ci-primary" x="200" y="224" width="32" height="32"/>
  <rect class="ci-primary" x="280" y="224" width="32" height="32"/>
  <rect class="ci-primary" x="368" y="224" width="32" height="32"/>
  <rect class="ci-primary" x="112" y="296" width="32" height="32"/>
  <rect class="ci-primary" x="200" y="296" width="32" height="32"/>
  <rect class="ci-primary" x="280" y="296" width="32" height="32"/>
  <rect class="ci-primary" x="368" y="296" width="32" height="32"/>
  <rect class="ci-primary" x="112" y="368" width="32" height="32"/>
  <rect class="ci-primary" x="200" y="368" width="32" height="32"/>
  <rect class="ci-primary" x="280" y="368" width="32" height="32"/>
  <rect class="ci-primary" x="368" y="368" width="32" height="32"/>
</svg>
