<svg xmlns="http://www.w3.org/2000/svg" viewBox="0 0 512 512">
  <defs>
    <style>
      .ci-primary {
       fill: currentColor;
      }
    </style>
  </defs>
  <rect class="ci-primary" x="80" y="160" width="32" height="200"/>
  <rect class="ci-primary" x="144" y="160" width="32" height="200"/>
  <rect class="ci-primary" x="208" y="160" width="32" height="200"/>
  <rect class="ci-primary" x="272" y="160" width="32" height="200"/>
  <rect class="ci-primary" x="336" y="160" width="32" height="200"/>
  <path class="ci-primary" d="M432,176V119.59A23.825,23.825,0,0,0,408,96H39.986a23.825,23.825,0,0,0-24,23.59V400.41a23.825,23.825,0,0,0,24,23.59H408a23.825,23.825,0,0,0,24-23.59V344h64V176Zm32,136H400v80H47.986V128H400v80h64Z"/>
</svg>
