<svg xmlns="http://www.w3.org/2000/svg" viewBox="0 0 512 512">
  <defs>
    <style>
      .ci-primary {
        fill: currentColor;
      }
    </style>
  </defs>
  <path class="ci-primary" d="M124,136H36a20.023,20.023,0,0,0-20,20V476a20.023,20.023,0,0,0,20,20h88a20.023,20.023,0,0,0,20-20V156A20.023,20.023,0,0,0,124,136ZM112,464H48V168h64Z"/>
  <path class="ci-primary" d="M300,240H212a20.023,20.023,0,0,0-20,20V476a20.023,20.023,0,0,0,20,20h88a20.023,20.023,0,0,0,20-20V260A20.023,20.023,0,0,0,300,240ZM288,464H224V272h64Z"/>
  <path class="ci-primary" d="M476,16H388a20.023,20.023,0,0,0-20,20V476a20.023,20.023,0,0,0,20,20h88a20.023,20.023,0,0,0,20-20V36A20.023,20.023,0,0,0,476,16ZM464,464H400V48h64Z"/>
</svg>
