<svg xmlns="http://www.w3.org/2000/svg" viewBox="0 0 512 512">
  <defs>
    <style>
      .ci-primary {
        fill: currentColor;
      }
    </style>
  </defs>
  <path class="ci-primary" d="M432,64H16V384H432ZM400,352H48V96H400Z"/>
  <polygon class="ci-primary" points="464 144 464 416 96 416 96 448 496 448 496 144 464 144"/>
  <path class="ci-primary" d="M224,302.46c39.7,0,72-35.137,72-78.326s-32.3-78.326-72-78.326-72,35.136-72,78.326S184.3,302.46,224,302.46Zm0-124.652c22.056,0,40,20.782,40,46.326s-17.944,46.326-40,46.326-40-20.782-40-46.326S201.944,177.808,224,177.808Z"/>
  <rect class="ci-primary" x="80" y="136" width="32" height="176"/>
  <rect class="ci-primary" x="336" y="136" width="32" height="176"/>
</svg>
