<svg xmlns="http://www.w3.org/2000/svg" viewBox="0 0 512 512">
  <defs>
    <style>
      .ci-primary {
        fill: currentColor;
      }
    </style>
  </defs>
  <path class="ci-primary" d="M 127.472656 104 L 51.425781 104 C 39.886719 104.03125 30.265625 112.175781 27.945312 123.015625 L 27.910156 123.175781 L 26.40625 130.488281 C 19.785156 161.113281 15.992188 196.296875 15.992188 232.367188 C 15.992188 270.921875 20.328125 308.457031 28.527344 344.527344 L 27.878906 341.152344 C 30.375 351.984375 39.910156 359.945312 51.3125 360 L 127.457031 360 C 140.703125 359.984375 151.441406 349.246094 151.457031 336 L 151.457031 128 C 151.441406 114.753906 140.703125 104.015625 127.457031 104 Z M 119.472656 328 L 57.808594 328 C 51.574219 299.246094 48.007812 266.214844 48.007812 232.351562 C 48.007812 198.566406 51.558594 165.609375 58.3125 133.832031 L 57.761719 136.921875 L 57.953125 136 L 119.472656 136 Z M 119.472656 328 "/>
  <path class="ci-primary" d="M 492.832031 218.472656 L 421.574219 93.238281 C 417.328125 85.886719 409.503906 81.015625 400.542969 81.007812 L 268.945312 81.007812 C 264.433594 81.007812 260.199219 82.246094 256.585938 84.398438 L 256.695312 84.335938 L 184.679688 126.574219 L 184.679688 163.671875 L 271.054688 113 L 396 113 L 463.992188 232.496094 L 463.992188 241.769531 L 444.296875 294.296875 L 316 294.296875 L 300 310.296875 L 300 359.273438 L 301.414062 365.855469 L 312.40625 390.199219 C 315.542969 396.984375 317.375 404.929688 317.375 413.296875 C 317.375 433.398438 306.808594 451.03125 290.929688 460.953125 L 290.6875 461.089844 L 207.96875 280 L 183.984375 280 L 183.984375 304 L 264.992188 481.855469 C 268.9375 490.265625 277.335938 495.984375 287.070312 495.984375 C 287.078125 495.984375 287.089844 495.984375 287.105469 495.984375 C 287.105469 495.984375 287.113281 495.984375 287.113281 495.984375 C 290.609375 495.984375 293.929688 495.230469 296.921875 493.886719 L 296.769531 493.953125 C 328.007812 479.945312 349.375 449.121094 349.375 413.304688 C 349.375 400.160156 346.496094 387.695312 341.34375 376.496094 L 341.566406 377.039062 L 331.992188 355.839844 L 331.992188 326.304688 L 449.695312 326.304688 C 460 326.273438 468.792969 319.832031 472.304688 310.769531 L 472.359375 310.601562 L 494.449219 251.695312 C 495.425781 249.175781 495.992188 246.257812 495.992188 243.207031 C 495.992188 243.199219 495.992188 243.191406 495.992188 243.191406 L 495.992188 230.441406 C 495.992188 226.039062 494.816406 221.910156 492.769531 218.359375 L 492.832031 218.480469 Z M 492.832031 218.472656 "/>
</svg>