<svg xmlns="http://www.w3.org/2000/svg" viewBox="0 0 512 512">
  <defs>
    <style>
      .ci-primary {
        fill: currentColor;
      }
    </style>
  </defs>
  <path class="ci-primary" d="M256,80C141.125,80,48,173.125,48,288s93.125,208,208,208,208-93.125,208-208S370.875,80,256,80ZM380.451,412.451A176,176,0,1,1,432,288,174.849,174.849,0,0,1,380.451,412.451Z"/>
  <polygon class="ci-primary" points="272 160 240 160 240 295.69 326.005 364.494 345.995 339.506 272 280.31 272 160"/>
  <rect class="ci-primary" x="15.913" y="60" width="184.174" height="32.001" transform="translate(-24.049 74.263) rotate(-34.38)"/>
  <rect class="ci-primary" x="388" y="-16.087" width="32.001" height="184.174" transform="translate(113.143 366.507) rotate(-55.619)"/>
</svg>
