<svg xmlns="http://www.w3.org/2000/svg" viewBox="0 0 512 512">
  <defs>
    <style>
      .ci-primary {
        fill: currentColor;
      }
    </style>
  </defs>
  <rect class="ci-primary" x="40" y="80" width="288" height="32"/>
  <rect class="ci-primary" x="40" y="240" width="288" height="32"/>
  <rect class="ci-primary" x="40" y="400" width="288" height="32"/>
  <polygon class="ci-primary" points="440 160 440 40 376 40 376 72 408 72 408 160 440 160"/>
  <polygon class="ci-primary" points="376 262.111 376 312 456 312 456 280 411.777 280 456 257.889 456 192 376 192 376 224 424 224 424 238.111 376 262.111"/>
  <polygon class="ci-primary" points="376 440 376 472 456 472 456 344 376 344 376 376 424 376 424 392 400 392 400 424 424 424 424 440 376 440"/>
</svg>
