<svg xmlns="http://www.w3.org/2000/svg" viewBox="0 0 512 512">
  <defs>
    <style>
      .ci-primary {
        fill: currentColor;
      }
    </style>
  </defs>
  <rect class="ci-primary" x="208" y="80" width="264" height="32"/>
  <path class="ci-primary" d="M40,96a64,64,0,1,0,64-64A64.072,64.072,0,0,0,40,96Zm64-32A32,32,0,1,1,72,96,32.036,32.036,0,0,1,104,64Z"/>
  <rect class="ci-primary" x="208" y="240" width="264" height="32"/>
  <path class="ci-primary" d="M104,320a64,64,0,1,0-64-64A64.072,64.072,0,0,0,104,320Zm0-96a32,32,0,1,1-32,32A32.036,32.036,0,0,1,104,224Z"/>
  <rect class="ci-primary" x="208" y="400" width="264" height="32"/>
  <path class="ci-primary" d="M104,480a64,64,0,1,0-64-64A64.072,64.072,0,0,0,104,480Zm0-96a32,32,0,1,1-32,32A32.036,32.036,0,0,1,104,384Z"/>
</svg>
