<svg xmlns="http://www.w3.org/2000/svg" viewBox="0 0 512 512">
  <defs>
    <style>
      .ci-primary {
        fill: currentColor;
      }
    </style>
  </defs>
  <path class="ci-primary" d="M256,104c-83.813,0-152,68.187-152,152s68.187,152,152,152,152-68.187,152-152S339.813,104,256,104Zm0,272A120,120,0,1,1,376,256,120.136,120.136,0,0,1,256,376Z"/>
  <rect class="ci-primary" x="240" y="16" width="32" height="48"/>
  <rect class="ci-primary" x="240" y="448" width="32" height="48"/>
  <rect class="ci-primary" x="448" y="240" width="48" height="32"/>
  <rect class="ci-primary" x="16" y="240" width="48" height="32"/>
  <rect class="ci-primary" x="400" y="393.373" width="32" height="45.255" transform="translate(-172.313 416) rotate(-45)"/>
  <rect class="ci-primary" x="80" y="73.373" width="32.001" height="45.255" transform="translate(-39.765 96) rotate(-45)"/>
  <rect class="ci-primary" x="73.373" y="400" width="45.255" height="32" transform="translate(-266.044 189.734) rotate(-45.001)"/>
  <rect class="ci-primary" x="393.373" y="80" width="45.255" height="32.001" transform="translate(53.961 322.274) rotate(-45)"/>
</svg>
