<svg xmlns="http://www.w3.org/2000/svg" viewBox="0 0 512 512">
  <defs>
    <style>
      .ci-primary {
        fill: currentColor;
      }
    </style>
  </defs>
  <path class="ci-primary" d="M88,72V388a20,20,0,0,1-40,0V152H16V388a52.059,52.059,0,0,0,52,52H444a52.059,52.059,0,0,0,52-52V72ZM464,388a20.023,20.023,0,0,1-20,20H116a51.722,51.722,0,0,0,4-20V104H464Z"/>
  <path class="ci-primary" d="M296,136H152V296H296ZM264,264H184V168h80Z"/>
  <rect class="ci-primary" x="328" y="136" width="104" height="32"/>
  <rect class="ci-primary" x="328" y="200" width="104" height="32"/>
  <rect class="ci-primary" x="328" y="264" width="104" height="32"/>
</svg>
