<svg xmlns="http://www.w3.org/2000/svg" viewBox="0 0 512 512">
  <defs>
    <style>
      .ci-primary {
        fill: currentColor;
      }
    </style>
  </defs>
  <polygon class="ci-primary" points="272 456 272 440 272 406.545 272 373.091 272 339.636 272 306.182 272 272.727 272 272 272 240 272 239.272 272 205.817 272 172.363 272 138.908 272 105.454 272 72 272 56 272 40 240 40 240 56 240 72 240 105.454 240 138.908 240 172.363 240 205.817 240 239.272 240 240 240 272 240 272.727 240 306.182 240 339.636 240 373.091 240 406.545 240 440 240 456 240 472 272 472 272 456"/>
  <rect class="ci-primary" x="440" y="440" width="32" height="32"/>
  <rect class="ci-primary" x="306.182" y="440" width="33.455" height="32"/>
  <rect class="ci-primary" x="172.364" y="440" width="33.455" height="32"/>
  <rect class="ci-primary" x="373.091" y="440" width="33.455" height="32"/>
  <rect class="ci-primary" x="105.455" y="440" width="33.455" height="32"/>
  <rect class="ci-primary" x="40" y="440" width="32" height="32"/>
  <rect class="ci-primary" x="40" y="306.183" width="32" height="33.454"/>
  <rect class="ci-primary" x="40" y="373.092" width="32" height="33.454"/>
  <rect class="ci-primary" x="40" y="239.272" width="32" height="33.455"/>
  <rect class="ci-primary" x="40" y="172.364" width="32" height="33.454"/>
  <rect class="ci-primary" x="40" y="105.455" width="32" height="33.454"/>
  <rect class="ci-primary" x="40" y="40" width="32" height="32"/>
  <rect class="ci-primary" x="306.182" y="40" width="33.455" height="32"/>
  <rect class="ci-primary" x="172.364" y="40" width="33.455" height="32"/>
  <rect class="ci-primary" x="373.091" y="40" width="33.455" height="32"/>
  <rect class="ci-primary" x="105.455" y="40" width="33.455" height="32"/>
  <rect class="ci-primary" x="440" y="40" width="32" height="32"/>
  <rect class="ci-primary" x="440" y="373.091" width="32" height="33.454"/>
  <rect class="ci-primary" x="440" y="306.182" width="32" height="33.454"/>
  <rect class="ci-primary" x="440" y="105.454" width="32" height="33.454"/>
  <rect class="ci-primary" x="440" y="172.363" width="32" height="33.454"/>
  <rect class="ci-primary" x="440" y="239.272" width="32" height="33.455"/>
  <rect class="ci-primary" x="306.182" y="239.272" width="33.455" height="33.455"/>
  <rect class="ci-primary" x="373.091" y="239.272" width="33.455" height="33.455"/>
  <rect class="ci-primary" x="172.364" y="239.272" width="33.455" height="33.455"/>
  <rect class="ci-primary" x="105.455" y="239.272" width="33.455" height="33.455"/>
</svg>
