<svg xmlns="http://www.w3.org/2000/svg" viewBox="0 0 512 512">
  <defs>
    <style>
      .ci-primary {
        fill: currentColor;
      }
    </style>
  </defs>
  <rect class="ci-primary" x="440" y="440" width="32" height="32"/>
  <rect class="ci-primary" x="306.182" y="440" width="33.455" height="32"/>
  <rect class="ci-primary" x="172.364" y="440" width="33.455" height="32"/>
  <rect class="ci-primary" x="373.091" y="440" width="33.455" height="32"/>
  <rect class="ci-primary" x="105.455" y="440" width="33.455" height="32"/>
  <rect class="ci-primary" x="40" y="440" width="32" height="32"/>
  <rect class="ci-primary" x="40" y="306.183" width="32" height="33.454"/>
  <rect class="ci-primary" x="40" y="373.092" width="32" height="33.454"/>
  <rect class="ci-primary" x="40" y="239.272" width="32" height="33.455"/>
  <rect class="ci-primary" x="40" y="172.364" width="32" height="33.454"/>
  <rect class="ci-primary" x="40" y="105.455" width="32" height="33.454"/>
  <rect class="ci-primary" x="40" y="40" width="32" height="32"/>
  <rect class="ci-primary" x="306.182" y="40" width="33.455" height="32"/>
  <rect class="ci-primary" x="172.364" y="40" width="33.455" height="32"/>
  <rect class="ci-primary" x="373.091" y="40" width="33.455" height="32"/>
  <rect class="ci-primary" x="239.272" y="40" width="33.455" height="32"/>
  <rect class="ci-primary" x="105.455" y="40" width="33.455" height="32"/>
  <rect class="ci-primary" x="440" y="40" width="32" height="32"/>
  <rect class="ci-primary" x="440" y="373.091" width="32" height="33.454"/>
  <rect class="ci-primary" x="440" y="306.182" width="32" height="33.454"/>
  <rect class="ci-primary" x="440" y="105.454" width="32" height="33.454"/>
  <rect class="ci-primary" x="440" y="172.363" width="32" height="33.454"/>
  <rect class="ci-primary" x="440" y="239.272" width="32" height="33.455"/>
  <rect class="ci-primary" x="239.272" y="239.272" width="33.455" height="33.455"/>
  <rect class="ci-primary" x="239.272" y="306.182" width="33.455" height="33.454"/>
  <rect class="ci-primary" x="239.272" y="172.363" width="33.455" height="33.454"/>
  <rect class="ci-primary" x="239.272" y="105.454" width="33.455" height="33.454"/>
  <rect class="ci-primary" x="239.272" y="373.091" width="33.455" height="33.454"/>
  <rect class="ci-primary" x="239.272" y="440" width="33.455" height="32"/>
  <rect class="ci-primary" x="306.182" y="239.272" width="33.455" height="33.455"/>
  <rect class="ci-primary" x="373.091" y="239.272" width="33.455" height="33.455"/>
  <rect class="ci-primary" x="172.364" y="239.272" width="33.455" height="33.455"/>
  <rect class="ci-primary" x="105.455" y="239.272" width="33.455" height="33.455"/>
</svg>
