<svg xmlns="http://www.w3.org/2000/svg" viewBox="0 0 512 512">
  <defs>
    <style>
      .ci-primary {
        fill: currentColor;
      }
    </style>
  </defs>
  <polygon class="ci-primary" points="472 440 472 406.545 472 373.091 472 339.636 472 306.182 472 272.727 472 239.272 472 205.817 472 172.363 472 138.908 472 105.454 472 72 472 40 440 40 440 72 440 105.454 440 138.908 440 172.363 440 205.817 440 239.272 440 240 440 272 440 272.727 440 306.182 440 339.636 440 373.091 440 406.545 440 440 440 472 472 472 472 440"/>
  <rect class="ci-primary" x="306.182" y="440" width="33.455" height="32"/>
  <rect class="ci-primary" x="172.364" y="440" width="33.455" height="32"/>
  <rect class="ci-primary" x="373.091" y="440" width="33.455" height="32"/>
  <rect class="ci-primary" x="105.455" y="440" width="33.455" height="32"/>
  <rect class="ci-primary" x="40" y="440" width="32" height="32"/>
  <rect class="ci-primary" x="40" y="306.183" width="32" height="33.454"/>
  <rect class="ci-primary" x="40" y="373.092" width="32" height="33.454"/>
  <rect class="ci-primary" x="40" y="239.272" width="32" height="33.455"/>
  <rect class="ci-primary" x="40" y="172.364" width="32" height="33.454"/>
  <rect class="ci-primary" x="40" y="105.455" width="32" height="33.454"/>
  <rect class="ci-primary" x="40" y="40" width="32" height="32"/>
  <rect class="ci-primary" x="306.182" y="40" width="33.455" height="32"/>
  <rect class="ci-primary" x="172.364" y="40" width="33.455" height="32"/>
  <rect class="ci-primary" x="373.091" y="40" width="33.455" height="32"/>
  <rect class="ci-primary" x="239.272" y="40" width="33.455" height="32"/>
  <rect class="ci-primary" x="105.455" y="40" width="33.455" height="32"/>
  <rect class="ci-primary" x="239.272" y="239.272" width="33.455" height="33.455"/>
  <rect class="ci-primary" x="239.272" y="306.182" width="33.455" height="33.454"/>
  <rect class="ci-primary" x="239.272" y="172.363" width="33.455" height="33.454"/>
  <rect class="ci-primary" x="239.272" y="105.454" width="33.455" height="33.454"/>
  <rect class="ci-primary" x="239.272" y="373.091" width="33.455" height="33.454"/>
  <rect class="ci-primary" x="239.272" y="440" width="33.455" height="32"/>
  <rect class="ci-primary" x="306.182" y="239.272" width="33.455" height="33.455"/>
  <rect class="ci-primary" x="373.091" y="239.272" width="33.455" height="33.455"/>
  <rect class="ci-primary" x="172.364" y="239.272" width="33.455" height="33.455"/>
  <rect class="ci-primary" x="105.455" y="239.272" width="33.455" height="33.455"/>
</svg>
