<svg xmlns="http://www.w3.org/2000/svg" viewBox="0 0 512 512">
  <defs>
    <style>
      .ci-primary {
        fill: currentColor;
      }
    </style>
  </defs>
  <path class="ci-primary" d="M56,40A16,16,0,0,0,40,56V456a16,16,0,0,0,16,16H456a16,16,0,0,0,16-16V56a16,16,0,0,0-16-16ZM440,440H72V72H440Z"/>
  <rect class="ci-primary" x="239.272" y="239.272" width="33.455" height="33.455"/>
  <rect class="ci-primary" x="239.272" y="306.182" width="33.455" height="33.454"/>
  <rect class="ci-primary" x="239.272" y="172.363" width="33.455" height="33.454"/>
  <rect class="ci-primary" x="239.272" y="105.454" width="33.455" height="33.454"/>
  <rect class="ci-primary" x="239.272" y="373.091" width="33.455" height="33.454"/>
  <rect class="ci-primary" x="306.182" y="239.272" width="33.455" height="33.455"/>
  <rect class="ci-primary" x="373.091" y="239.272" width="33.455" height="33.455"/>
  <rect class="ci-primary" x="172.364" y="239.272" width="33.455" height="33.455"/>
  <rect class="ci-primary" x="105.455" y="239.272" width="33.455" height="33.455"/>
</svg>
