<svg xmlns="http://www.w3.org/2000/svg" viewBox="0 0 512 512">
  <defs>
    <style>
      .ci-primary {
        fill: currentColor;
      }
    </style>
  </defs>
  <path class="ci-primary" d="M328,104a32.036,32.036,0,0,0-32-32H280V48a32.036,32.036,0,0,0-32-32H96A32.036,32.036,0,0,0,64,48V72H48a32.036,32.036,0,0,0-32,32V464a32.036,32.036,0,0,0,32,32H296a32.036,32.036,0,0,0,32-32V440H496V136H328Zm136,64V408H296v56H48V104H96V48H248v56h48v64Z"/>
  <rect class="ci-primary" x="392" y="200" width="40" height="40"/>
  <rect class="ci-primary" x="320" y="200" width="40" height="40"/>
  <rect class="ci-primary" x="248" y="200" width="40" height="40"/>
  <rect class="ci-primary" x="392" y="336" width="40" height="40"/>
  <rect class="ci-primary" x="320" y="336" width="40" height="40"/>
  <rect class="ci-primary" x="248" y="336" width="40" height="40"/>
  <rect class="ci-primary" x="176" y="200" width="40" height="40"/>
  <rect class="ci-primary" x="176" y="336" width="40" height="40"/>
</svg>
