<svg xmlns="http://www.w3.org/2000/svg" viewBox="0 0 512 512">
  <defs>
    <style>
      .ci-primary {
        fill: currentColor;
      }
    </style>
  </defs>
  <path class="ci-primary" d="M64,496H184V464H64a16.019,16.019,0,0,1-16-16V328H16V448A48.054,48.054,0,0,0,64,496Z"/>
  <path class="ci-primary" d="M48,64A16.019,16.019,0,0,1,64,48H184V16H64A48.054,48.054,0,0,0,16,64V184H48Z"/>
  <path class="ci-primary" d="M448,16H328V48H448a16.019,16.019,0,0,1,16,16V184h32V64A48.054,48.054,0,0,0,448,16Z"/>
  <path class="ci-primary" d="M464,448a16.019,16.019,0,0,1-16,16H328v32H448a48.054,48.054,0,0,0,48-48V328H464Z"/>
  <path class="ci-primary" d="M400,256c0-79.4-64.6-144-144-144S112,176.6,112,256s64.6,144,144,144S400,335.4,400,256ZM256,368A112,112,0,1,1,368,256,112.127,112.127,0,0,1,256,368Z"/>
</svg>
