<svg xmlns="http://www.w3.org/2000/svg" viewBox="0 0 512 512">
  <defs>
    <style>
      .ci-primary {
        fill: currentColor;
      }
    </style>
  </defs>
  <path class="ci-primary" d="M427.9,322.3a170.529,170.529,0,0,0-33.263-101.637L269.475,25.174a16,16,0,0,0-26.95,0l-125.16,195.49A170.528,170.528,0,0,0,84.1,322.3c0,94.785,77.112,171.9,171.9,171.9S427.9,417.086,427.9,322.3Zm-311.794,0a138.753,138.753,0,0,1,27.321-83.057q.319-.432.609-.884L256,63.475,367.967,238.359q.29.453.608.884A138.752,138.752,0,0,1,395.9,322.3c0,77.14-62.757,139.9-139.9,139.9S116.1,399.441,116.1,322.3Z"/>
</svg>
