<svg xmlns="http://www.w3.org/2000/svg" viewBox="0 0 512 512">
  <defs>
    <style>
      .ci-primary {
        fill: currentColor;
      }
    </style>
  </defs>
  <rect class="ci-primary" x="296" y="40" width="32" height="32"/>
  <rect class="ci-primary" x="368" y="40" width="32" height="32"/>
  <rect class="ci-primary" x="296" y="440" width="32" height="32"/>
  <rect class="ci-primary" x="368" y="440" width="32" height="32"/>
  <rect class="ci-primary" x="440" y="40" width="32" height="32"/>
  <rect class="ci-primary" x="440" y="105.454" width="32" height="33.454"/>
  <rect class="ci-primary" x="440" y="172.363" width="32" height="33.454"/>
  <rect class="ci-primary" x="440" y="373.091" width="32" height="33.454"/>
  <rect class="ci-primary" x="440" y="239.272" width="32" height="33.454"/>
  <rect class="ci-primary" x="440" y="306.182" width="32" height="33.454"/>
  <rect class="ci-primary" x="440" y="440" width="32" height="32"/>
  <path class="ci-primary" d="M40,456a16,16,0,0,0,16,16H224v24h32V16H224V40H56A16,16,0,0,0,40,56ZM72,72H224V440H72Z"/>
</svg>
