<svg xmlns="http://www.w3.org/2000/svg" viewBox="0 0 512 512">
  <defs>
    <style>
      .ci-primary {
        fill: currentColor;
      }
    </style>
  </defs>
  <path class="ci-primary" d="M192,104V392h96a32.036,32.036,0,0,0,32-32V136a32.036,32.036,0,0,0-32-32Zm96,256H224V136h64Z"/>
  <polygon class="ci-primary" points="160 392 160 104 128 104 128 232 64 232 64 104 32 104 32 392 64 392 64 264 128 264 128 392 160 392"/>
  <path class="ci-primary" d="M480,232V136a32.036,32.036,0,0,0-32-32H352V392h32V264h29.167L440,331.081V392h32V324.919L447.632,264H448A32.036,32.036,0,0,0,480,232Zm-96,0V136h64v96Z"/>
</svg>
