<svg xmlns="http://www.w3.org/2000/svg" viewBox="0 0 512 512">
  <defs>
    <style>
      .ci-primary {
        fill: currentColor;
      }
    </style>
  </defs>
  <path class="ci-primary" d="M93.976,276.6,38.211,332.367a32,32,0,0,0,0,45.255l96.167,96.168a32.038,32.038,0,0,0,45.254,0L235.4,418.024l-22.616-22.616L157.02,451.175a.094.094,0,0,1-.015-.013L60.839,355,116.6,299.23Z"/>
  <path class="ci-primary" d="M473.789,134.378,377.622,38.21a32.037,32.037,0,0,0-45.254,0L276.6,93.976,299.23,116.6,355,60.838l96.166,96.167L395.4,212.772,418.024,235.4l55.765-55.764a32,32,0,0,0,0-45.255Z"/>
  <rect class="ci-primary" x="245.515" y="196.544" width="21.941" height="21.941" transform="translate(-71.612 242.142) rotate(-45)"/>
  <rect class="ci-primary" x="245.515" y="293.515" width="21.941" height="21.941" transform="translate(-140.181 270.546) rotate(-45)"/>
  <rect class="ci-primary" x="294" y="245.029" width="21.941" height="21.941" transform="translate(-91.696 290.626) rotate(-45)"/>
  <rect class="ci-primary" x="197.029" y="245.029" width="21.941" height="21.941" transform="translate(-120.098 222.059) rotate(-45)"/>
  <path class="ci-primary" d="M321.3,462.705a47.988,47.988,0,0,0,67.641-.23l73.539-73.539a48,48,0,0,0,0-67.882l-7.764-7.765-240-240L190.946,49.525a48,48,0,0,0-67.882,0l-73.54,73.539h0a48,48,0,0,0,0,67.882l31.764,31.765L321.054,462.475C321.133,462.553,321.216,462.626,321.3,462.705ZM72.152,168.319a16,16,0,0,1,0-22.628l73.539-73.539a16,16,0,0,1,22.628,0l65.054,65.054-96.167,96.167ZM159.833,256,256,159.833,352.171,256l-96.162,96.172Zm214.961,22.627,65.054,65.054a16,16,0,0,1,0,22.628l-73.539,73.539a16,16,0,0,1-22.628,0l-65.054-65.054Z"/>
</svg>
