<svg xmlns="http://www.w3.org/2000/svg" viewBox="0 0 512 512">
  <defs>
    <style>
      .ci-primary {
        fill: currentColor;
      }
    </style>
  </defs>
  <path class="ci-primary" d="M487.938,162.108l-224-128a16,16,0,0,0-15.876,0l-224,128a16,16,0,0,0,.382,28l224,120a16,16,0,0,0,15.112,0l224-120a16,16,0,0,0,.382-28ZM256,277.849,65.039,175.548,256,66.428l190.961,109.12Z"/>
  <path class="ci-primary" d="M263.711,394.02,480,275.061V238.539L256,361.74,32,238.539v36.522L248.289,394.02a16.005,16.005,0,0,0,15.422,0Z"/>
  <path class="ci-primary" d="M32,362.667,248.471,478.118a16,16,0,0,0,15.058,0L480,362.667V326.4L256,445.867,32,326.4Z"/>
</svg>
